<?xml version="1.0" encoding="UTF-8" standalone="no"?>
<svg
   viewBox="0 0 22 22"
   version="1.1"
   id="svg1"
   sodipodi:docname="video-display-brightness-symbolic.svg"
   inkscape:version="1.3.2 (091e20ef0f, 2023-11-25)"
   xmlns:inkscape="http://www.inkscape.org/namespaces/inkscape"
   xmlns:sodipodi="http://sodipodi.sourceforge.net/DTD/sodipodi-0.dtd"
   xmlns="http://www.w3.org/2000/svg"
   xmlns:svg="http://www.w3.org/2000/svg">
  <sodipodi:namedview
     id="namedview1"
     pagecolor="#484848"
     bordercolor="#000000"
     borderopacity="0.25"
     inkscape:showpageshadow="2"
     inkscape:pageopacity="0.0"
     inkscape:pagecheckerboard="0"
     inkscape:deskcolor="#d1d1d1"
     inkscape:zoom="37.636364"
     inkscape:cx="11"
     inkscape:cy="11"
     inkscape:window-width="1920"
     inkscape:window-height="1094"
     inkscape:window-x="0"
     inkscape:window-y="0"
     inkscape:window-maximized="1"
     inkscape:current-layer="g1" />
  <defs
     id="defs3051">
    <style
       type="text/css"
       id="current-color-scheme">.ColorScheme-Text { color: #fcfcfc; } </style>
  </defs>
  <g
     id="g1"
     inkscape:label="22-22-video-display-brightness">
    <path
       style="fill:currentColor;fill-opacity:1;stroke:none"
       d="m 2,4 0,12 1,0 7,-5e-6 L 10,17 l -3,0 0,1 8,0 0,-1 -3,0 0,-1.000005 7,-3.5e-5 1,0 0,-12 -1,0 L 3,4 Z m 1,1 16,-4e-5 0,10 L 3,15 Z"
       class="ColorScheme-Text"
       id="path1" />
    <path
       style="color:#7b7c7e;fill:#fcfcfc;fill-opacity:1;stroke:none;stroke-width:0.750001"
       d="m 11,6.49998 c -1.933,0 -3.5,1.567 -3.5,3.5 0,1.932993 1.567,3.5 3.5,3.5 1.933,0 3.5,-1.567007 3.5,-3.5 0,-1.933 -1.567,-3.5 -3.5,-3.5 z m 0,0.999999 v 5.000002 c -1.380715,0 -2.500001,-1.119287 -2.500001,-2.500001 0,-1.380715 1.119286,-2.500001 2.500001,-2.500001 z"
       id="path3891"
       inkscape:connector-curvature="0"
       class="ColorScheme-Text" />
  </g>
</svg>
