<?xml version="1.0" encoding="UTF-8" standalone="no"?>
<svg
   width="128"
   height="128"
   viewBox="0 0 33.866666 33.866668"
   version="1.1"
   id="svg958"
   inkscape:version="1.3 (0e150ed6c4, 2023-07-21)"
   sodipodi:docname="application-x-skg.svg"
   xmlns:inkscape="http://www.inkscape.org/namespaces/inkscape"
   xmlns:sodipodi="http://sodipodi.sourceforge.net/DTD/sodipodi-0.dtd"
   xmlns:xlink="http://www.w3.org/1999/xlink"
   xmlns="http://www.w3.org/2000/svg"
   xmlns:svg="http://www.w3.org/2000/svg"
   xmlns:rdf="http://www.w3.org/1999/02/22-rdf-syntax-ns#"
   xmlns:cc="http://creativecommons.org/ns#"
   xmlns:dc="http://purl.org/dc/elements/1.1/">
  <defs
     id="defs952">
    <inkscape:path-effect
       down_right_point="100.12116,121.0787"
       down_left_point="13.568925,99.307899"
       up_right_point="113.40922,17.43532"
       up_left_point="37.064266,9.2424279"
       overflow_perspective="false"
       vertical_mirror="false"
       horizontal_mirror="false"
       deform_type="envelope_deformation"
       lpeversion="1"
       is_visible="true"
       id="path-effect1304"
       effect="perspective-envelope" />
    <inkscape:path-effect
       down_right_point="-9.525,68.791666"
       down_left_point="-31.749999,68.791666"
       up_right_point="-9.525,42.333333"
       up_left_point="-31.749999,42.333333"
       overflow_perspective="false"
       vertical_mirror="false"
       horizontal_mirror="false"
       deform_type="perspective"
       lpeversion="1"
       is_visible="true"
       id="path-effect1224"
       effect="perspective-envelope" />
    <inkscape:path-effect
       overflow_perspective="false"
       vertical_mirror="false"
       horizontal_mirror="false"
       deform_type="perspective"
       lpeversion="1"
       is_visible="true"
       id="path-effect1214"
       effect="perspective-envelope"
       up_left_point="-176,-16"
       up_right_point="-92,-16"
       down_left_point="-176,84"
       down_right_point="-92,84" />
    <inkscape:path-effect
       down_right_point="0,104"
       down_left_point="-84,104"
       up_right_point="0,4"
       up_left_point="-84,4"
       overflow_perspective="false"
       vertical_mirror="false"
       horizontal_mirror="false"
       deform_type="envelope_deformation"
       lpeversion="1"
       is_visible="true"
       id="path-effect949"
       effect="perspective-envelope" />
    <linearGradient
       id="linearGradient1617"
       inkscape:collect="always">
      <stop
         id="stop1613"
         offset="0"
         style="stop-color:#ffffe8;stop-opacity:1" />
      <stop
         id="stop1615"
         offset="1"
         style="stop-color:#ffe896;stop-opacity:1" />
    </linearGradient>
    <inkscape:perspective
       id="perspective1523"
       inkscape:persp3d-origin="16.933333 : 11.288889 : 1"
       inkscape:vp_z="33.866666 : 16.933334 : 1"
       inkscape:vp_y="50.799999 : 190.50001 : 1"
       inkscape:vp_x="-169.33333 : 50.800002 : 1"
       sodipodi:type="inkscape:persp3d" />
    <linearGradient
       gradientTransform="matrix(1.1,0,0,1.1,-1.6667144,-1.7229458)"
       gradientUnits="userSpaceOnUse"
       y2="30.691668"
       x2="25.4"
       y1="3.175"
       x1="10.583333"
       id="linearGradient1619"
       xlink:href="#linearGradient1617"
       inkscape:collect="always" />
  </defs>
  <sodipodi:namedview
     inkscape:bbox-nodes="true"
     inkscape:snap-bbox-edge-midpoints="false"
     inkscape:bbox-paths="true"
     inkscape:snap-bbox="true"
     inkscape:snap-grids="false"
     units="px"
     showgrid="true"
     inkscape:document-rotation="0"
     inkscape:current-layer="layer1"
     inkscape:document-units="mm"
     inkscape:cy="64.074592"
     inkscape:cx="64.074592"
     inkscape:zoom="6.703125"
     inkscape:pageshadow="2"
     inkscape:pageopacity="0.0"
     borderopacity="1.0"
     bordercolor="#666666"
     pagecolor="#ffffff"
     id="base"
     inkscape:showpageshadow="2"
     inkscape:pagecheckerboard="0"
     inkscape:deskcolor="#d1d1d1"
     showguides="true"
     inkscape:window-width="1920"
     inkscape:window-height="1011"
     inkscape:window-x="0"
     inkscape:window-y="0"
     inkscape:window-maximized="1">
    <inkscape:grid
       id="grid1521"
       type="xygrid"
       originx="0"
       originy="0"
       spacingy="0.26458334"
       spacingx="0.26458334"
       units="px"
       visible="true"
       empspacing="4"
       empcolor="#e52222"
       empopacity="0.2" />
  </sodipodi:namedview>
  <metadata
     id="metadata955">
    <rdf:RDF>
      <cc:Work
         rdf:about="">
        <dc:format>image/svg+xml</dc:format>
        <dc:type
           rdf:resource="http://purl.org/dc/dcmitype/StillImage" />
      </cc:Work>
    </rdf:RDF>
  </metadata>
  <g
     id="layer1"
     inkscape:groupmode="layer"
     inkscape:label="Layer 1">
    <g
       inkscape:corner7="-0.053832406 : -0.037633691 : 0.25907482 : 1"
       inkscape:corner0="0.069364932 : 0.12047969 : 0 : 1"
       inkscape:perspectiveID="#perspective1523"
       style="fill:#216778;stroke-width:1.2;stroke-linecap:square"
       id="g1525"
       sodipodi:type="inkscape:box3d" />
    <g
       id="g3828"
       transform="matrix(0.889975 0 0 0.889975 1.96441 1.90787)">
      <path
         style="fill:#000000;fill-opacity:0.196078;stroke:none;stroke-width:0.814916;stroke-miterlimit:4;stroke-dasharray:none;stroke-opacity:1;paint-order:markers stroke fill"
         d="m 27.558055,33.852116 6.985,-10.4775 -6.985,-2.328332 z"
         id="path1768"
         inkscape:connector-curvature="0"
         sodipodi:nodetypes="cccc" />
      <path
         sodipodi:nodetypes="ccccc"
         id="path1611"
         d="M 8.8107856,0.60538753 31.508502,3.039664 27.557158,33.853529 1.8257856,27.38122 Z"
         style="fill:url(#linearGradient1619);fill-opacity:1;stroke:none;stroke-width:0.494771;stroke-linecap:butt;stroke-linejoin:miter;stroke-miterlimit:4;stroke-dasharray:none;stroke-opacity:1" />
      <path
         style="fill:none;stroke:#4d3e2e;stroke-width:0.2675637;stroke-linecap:butt;stroke-linejoin:miter;stroke-miterlimit:4;stroke-dasharray:none;stroke-opacity:1"
         d="M 8.8116822,0.60397466 31.509399,3.0382511 27.558055,33.852116 1.8266822,27.379808 Z"
         id="path1553"
         sodipodi:nodetypes="ccccc" />
    </g>
    <g
       transform="translate(-7.8973586,-279.23158)"
       id="g6682" />
    <g
       aria-label="?"
       id="text3832"
       style="font-weight:bold;font-size:25.4px;line-height:0.6;font-family:Arial;-inkscape-font-specification:'Arial Bold';text-align:center;text-anchor:middle;fill:#0a0a96;fill-opacity:1;stroke:none;stroke-width:0.449792;stroke-linecap:square;stroke-miterlimit:4;stroke-dasharray:none" />
    <g
       transform="translate(1e-7,-1.0583334)"
       style="opacity:1"
       id="g886" />
    <path
       sodipodi:nodetypes="scsccccccccscscscscscscsscscscscs"
       d="m 19.579395,6.8287534 c 1.803501,0.2283677 3.033706,0.9585013 3.69805,2.2003213 0.500976,0.9198805 0.672151,1.8897393 0.509929,2.9046433 -0.110675,0.69241 -0.373009,1.379956 -0.788685,2.060387 -0.408699,0.679175 -1.10941,1.43614 -2.106314,2.265122 -1.601753,1.283525 -2.621493,2.204626 -3.046304,2.780889 -0.415627,0.566442 -0.761372,1.393287 -1.036579,2.481179 L 16.230068,21.39899 c 0.288876,-1.138726 0.617334,-2.061281 0.984793,-2.768521 0.376831,-0.716814 1.046807,-1.686118 2.004036,-2.914931 0.736841,-0.95178 1.234487,-1.69545 1.49611,-2.227214 0.262366,-0.54228 0.443603,-1.103287 0.544703,-1.681913 0.207092,-1.185252 0.07047,-2.1706666 -0.407028,-2.9519386 -0.46448,-0.7744983 -1.126012,-1.2163112 -1.987386,-1.3294722 -0.764689,-0.1004591 -1.404389,0.00595 -1.920538,0.3177932 -0.517842,0.3095963 -0.822878,0.6796201 -0.913632,1.1109854 -0.06996,0.3325098 -0.02219,0.7609271 0.143838,1.2867602 0.167366,0.527611 0.225377,0.918268 0.173478,1.17128 -0.06673,0.325303 -0.226878,0.584495 -0.480679,0.776789 -0.252398,0.182656 -0.527678,0.249211 -0.82566,0.20056 -0.379251,-0.06192 -0.687259,-0.301543 -0.923049,-0.717964 -0.223653,-0.422315 -0.261809,-0.96128 -0.115941,-1.618378 0.222745,-1.0034041 0.848678,-1.8319253 1.872877,-2.4922915 1.017232,-0.6696342 2.250098,-0.9158052 3.703405,-0.7317811 z M 16.28486,23.184226 c 0.446139,0.09821 0.792713,0.33271 1.040361,0.704501 0.259739,0.365836 0.350758,0.766862 0.271499,1.202015 -0.07757,0.425894 -0.302986,0.754723 -0.676012,0.985811 -0.372203,0.220675 -0.780162,0.278491 -1.223161,0.173922 -0.442998,-0.10457 -0.7947,-0.340466 -1.054537,-0.70643 -0.24755,-0.371663 -0.328716,-0.765702 -0.244792,-1.183147 0.08575,-0.42652 0.309911,-0.750895 0.67249,-0.973837 0.373025,-0.231085 0.777506,-0.298954 1.214152,-0.202835 z"
       style="fill:#000000;fill-opacity:0.2;stroke-width:0.502708;stroke-linecap:square;stroke-miterlimit:4;stroke-dasharray:none"
       id="path1" />
    <path
       sodipodi:nodetypes="scsccccccccscscscscscscsscscscscs"
       transform="scale(0.26458333)"
       d="m 72.658194,24.914358 c 6.816384,0.863122 11.465978,3.622682 13.976882,8.316175 1.893455,3.476714 2.540416,7.142313 1.927293,10.978171 -0.418299,2.616984 -1.4098,5.21558 -2.980857,7.78729 -1.544689,2.566959 -4.193047,5.427931 -7.960874,8.56109 -6.053868,4.851119 -9.908002,8.332445 -11.513587,10.510448 -1.570876,2.140881 -2.877627,5.265966 -3.917779,9.377683 l -2.189949,-0.462256 c 1.091813,-4.303844 2.333229,-7.790668 3.72205,-10.463702 1.424246,-2.709215 3.956437,-6.372726 7.57431,-11.01706 2.784911,-3.59728 4.665779,-6.408 5.654589,-8.417816 0.991619,-2.049562 1.67661,-4.169905 2.058719,-6.356836 0.78271,-4.479695 0.266337,-8.204087 -1.538372,-11.156926 -1.755515,-2.927238 -4.255792,-4.597082 -7.511381,-5.024777 -2.890164,-0.379688 -5.307925,0.02247 -7.258725,1.201108 -1.957197,1.170128 -3.110089,2.568643 -3.453098,4.199 -0.264401,1.25673 -0.08387,2.875945 0.54364,4.863335 0.632564,1.994124 0.85182,3.47062 0.655664,4.426888 -0.252201,1.229489 -0.857492,2.209115 -1.816739,2.935894 -0.953947,0.690352 -1.994372,0.941902 -3.120606,0.758024 -1.433387,-0.234027 -2.597513,-1.139691 -3.488689,-2.713565 -0.845303,-1.596152 -0.989514,-3.633185 -0.438201,-6.1167 0.841869,-3.79239 3.2076,-6.923809 7.07859,-9.419681 3.844656,-2.530901 8.504307,-3.461311 13.99712,-2.765787 z M 60.206411,86.730311 c 1.686195,0.371186 2.996078,1.257484 3.93207,2.662678 0.981691,1.382689 1.325701,2.898377 1.02614,4.543049 -0.293186,1.60968 -1.145146,2.852497 -2.555005,3.725901 -1.406751,0.834046 -2.948645,1.052566 -4.622971,0.657342 -1.674326,-0.395223 -3.00359,-1.2868 -3.985653,-2.669972 -0.93562,-1.404711 -1.242392,-2.893992 -0.925198,-4.471737 0.32409,-1.612043 1.171317,-2.838028 2.541696,-3.680641 1.409857,-0.873395 2.938603,-1.129908 4.588921,-0.76662 z"
       style="fill:#171799;fill-opacity:1;stroke-width:1.9;stroke-linecap:square;stroke-miterlimit:4;stroke-dasharray:none"
       id="path946" />
    <g
       transform="translate(31.154688,-7.7390625)"
       style="font-weight:600;font-size:14.1111px;line-height:0.8;font-family:'URW Bookman';-inkscape-font-specification:'URW Bookman Semi-Bold';letter-spacing:-0.529167px;fill:#8a6f5e;fill-opacity:1;stroke:none;stroke-width:1.00542;stroke-linecap:square;stroke-miterlimit:4;stroke-dasharray:none;stroke-opacity:1"
       id="text1154"
       aria-label="cpp" />
    <g
       style="font-style:normal;font-variant:normal;font-weight:normal;font-stretch:normal;font-size:16.1802px;line-height:0.8;font-family:'Times New Roman';-inkscape-font-specification:'Times New Roman, ';fill:#191996;fill-opacity:1;stroke:none;stroke-width:1.15283;stroke-linecap:square;stroke-miterlimit:4;stroke-dasharray:none;stroke-opacity:1"
       id="text1180"
       aria-label="?" />
    <g
       style="font-style:normal;font-variant:normal;font-weight:normal;font-stretch:normal;font-size:24.855px;line-height:0.8;font-family:'Times New Roman';-inkscape-font-specification:'Times New Roman, ';fill:#191996;fill-opacity:1;stroke:none;stroke-width:0.983845;stroke-linecap:square;stroke-miterlimit:4;stroke-dasharray:none;stroke-opacity:1"
       id="text1190"
       aria-label="f" />
    <g
       style="font-style:italic;font-variant:normal;font-weight:normal;font-stretch:normal;font-size:29.0422px;line-height:0.8;font-family:'Times New Roman';-inkscape-font-specification:'Times New Roman, Italic';fill:#191996;fill-opacity:1;stroke:none;stroke-width:1.14959;stroke-linecap:square;stroke-miterlimit:4;stroke-dasharray:none;stroke-opacity:1"
       id="text1218"
       aria-label="?" />
    <g
       style="font-style:italic;font-variant:normal;font-weight:normal;font-stretch:normal;font-size:29.1244px;line-height:0.8;font-family:'Times New Roman';-inkscape-font-specification:'Times New Roman,  Italic';fill:#191996;fill-opacity:1;stroke:none;stroke-width:1.15284;stroke-linecap:square;stroke-miterlimit:4;stroke-dasharray:none;stroke-opacity:1"
       id="text1298"
       aria-label="?" />
  </g>
</svg>
