<?xml version="1.0" encoding="UTF-8" standalone="no"?>
<svg
   width="128"
   height="128"
   viewBox="0 0 33.866666 33.866668"
   version="1.1"
   id="svg958"
   inkscape:version="1.3 (0e150ed6c4, 2023-07-21)"
   sodipodi:docname="application-vnd.stardivision.mail.svg"
   xmlns:inkscape="http://www.inkscape.org/namespaces/inkscape"
   xmlns:sodipodi="http://sodipodi.sourceforge.net/DTD/sodipodi-0.dtd"
   xmlns:xlink="http://www.w3.org/1999/xlink"
   xmlns="http://www.w3.org/2000/svg"
   xmlns:svg="http://www.w3.org/2000/svg"
   xmlns:rdf="http://www.w3.org/1999/02/22-rdf-syntax-ns#"
   xmlns:cc="http://creativecommons.org/ns#"
   xmlns:dc="http://purl.org/dc/elements/1.1/">
  <defs
     id="defs952">
    <inkscape:path-effect
       effect="perspective-envelope"
       up_left_point="9.8065869,2.4453923"
       up_right_point="30.006987,4.6118375"
       down_left_point="3.5901115,26.275215"
       down_right_point="26.489592,32.036664"
       id="path-effect1"
       is_visible="true"
       lpeversion="1"
       deform_type="perspective"
       horizontal_mirror="false"
       vertical_mirror="false"
       overflow_perspective="false" />
    <linearGradient
       id="linearGradient1617"
       inkscape:collect="always">
      <stop
         id="stop1613"
         offset="0"
         style="stop-color:#ffffe8;stop-opacity:1" />
      <stop
         id="stop1615"
         offset="1"
         style="stop-color:#ffe896;stop-opacity:1" />
    </linearGradient>
    <linearGradient
       gradientTransform="matrix(0.9789725,0,0,0.9789725,0.48107585,0.37449131)"
       gradientUnits="userSpaceOnUse"
       y2="30.691668"
       x2="25.4"
       y1="3.175"
       x1="10.583333"
       id="linearGradient1619"
       xlink:href="#linearGradient1617"
       inkscape:collect="always" />
    <inkscape:path-effect
       effect="perspective-envelope"
       up_left_point="-30.691667,2.1166667"
       up_right_point="-5.2916667,2.1166667"
       down_left_point="-30.691667,31.749999"
       down_right_point="-5.2916667,31.749999"
       id="path-effect16-5"
       is_visible="true"
       lpeversion="1"
       deform_type="perspective"
       horizontal_mirror="false"
       vertical_mirror="false"
       overflow_perspective="false" />
  </defs>
  <sodipodi:namedview
     inkscape:bbox-nodes="true"
     inkscape:snap-bbox-edge-midpoints="false"
     inkscape:bbox-paths="false"
     inkscape:snap-bbox="true"
     inkscape:snap-grids="false"
     units="px"
     showgrid="false"
     inkscape:document-rotation="0"
     inkscape:current-layer="layer1"
     inkscape:document-units="px"
     inkscape:cy="64"
     inkscape:cx="64"
     inkscape:zoom="5.9609375"
     inkscape:pageshadow="2"
     inkscape:pageopacity="0.0"
     borderopacity="1.0"
     bordercolor="#666666"
     pagecolor="#ffffff"
     id="base"
     inkscape:pagecheckerboard="0"
     showguides="false"
     inkscape:guide-bbox="true"
     guidetolerance="10000"
     inkscape:snap-tangential="true"
     inkscape:snap-perpendicular="true"
     inkscape:window-width="1920"
     inkscape:window-height="1011"
     inkscape:window-x="0"
     inkscape:window-y="0"
     inkscape:window-maximized="1"
     inkscape:snap-to-guides="false"
     inkscape:snap-intersection-paths="false"
     inkscape:snap-bbox-midpoints="false"
     inkscape:snap-nodes="true"
     inkscape:object-paths="false"
     inkscape:showpageshadow="2"
     inkscape:deskcolor="#d1d1d1">
    <inkscape:grid
       id="grid1521"
       type="xygrid"
       empcolor="#ff2624"
       empopacity="0.2"
       originx="0"
       originy="0"
       spacingy="0.26458334"
       spacingx="0.26458334"
       units="px"
       visible="false"
       empspacing="4" />
    <sodipodi:guide
       position="6.5361112,12.172222"
       orientation="0,-1"
       id="guide846"
       inkscape:locked="false" />
    <sodipodi:guide
       position="4.7625,13.798641"
       orientation="1,0"
       id="guide848"
       inkscape:locked="false" />
    <sodipodi:guide
       position="4.7625,29.104928"
       orientation="0,-1"
       id="guide1"
       inkscape:locked="false" />
    <sodipodi:guide
       position="21.695835,30.95625"
       orientation="1,0"
       id="guide2"
       inkscape:locked="false" />
  </sodipodi:namedview>
  <metadata
     id="metadata955">
    <rdf:RDF>
      <cc:Work
         rdf:about="">
        <dc:format>image/svg+xml</dc:format>
        <dc:type
           rdf:resource="http://purl.org/dc/dcmitype/StillImage" />
      </cc:Work>
    </rdf:RDF>
  </metadata>
  <g
     id="layer1"
     inkscape:groupmode="layer"
     inkscape:label="Layer 1">
    <path
       style="fill:#000000;fill-opacity:0.196078;stroke:none;stroke-width:0.725255;stroke-miterlimit:4;stroke-dasharray:none;stroke-opacity:1;paint-order:markers stroke fill"
       d="M 26.49039,32.035407 32.706865,22.710694 26.49039,20.638537 Z"
       id="path1768"
       inkscape:connector-curvature="0"
       sodipodi:nodetypes="cccc" />
    <path
       sodipodi:nodetypes="ccccc"
       id="path1611"
       d="M 9.8057889,2.4466498 30.006189,4.613095 26.489592,32.036664 3.5893135,26.276471 Z"
       style="fill:url(#linearGradient1619);fill-opacity:1;stroke:none;stroke-width:0.440334;stroke-linecap:butt;stroke-linejoin:miter;stroke-miterlimit:4;stroke-dasharray:none;stroke-opacity:1" />
    <path
       style="fill:none;stroke:#000000;stroke-width:0.238125;stroke-linecap:butt;stroke-linejoin:miter;stroke-miterlimit:4;stroke-dasharray:none;stroke-opacity:1"
       d="M 9.8065869,2.4453923 30.006987,4.6118375 26.49039,32.035407 3.5901115,26.275215 Z"
       id="path1553"
       sodipodi:nodetypes="ccccc" />
    <path
       style="font-style:italic;font-weight:bold;font-size:19.05px;line-height:1;font-family:Georgia;-inkscape-font-specification:'Georgia Bold Italic';letter-spacing:0px;fill:#000000;fill-opacity:0.19999999;stroke-width:1.5875;stroke-linecap:square"
       d="m 23.63259,11.289212 c 0.387216,0.544804 0.649809,1.14874 0.785666,1.8124 0.138079,0.665075 0.154321,1.341998 0.04701,2.02995 -0.215582,1.382079 -0.803956,2.499167 -1.764644,3.335947 -0.958061,0.840411 -2.027161,1.148577 -3.193982,0.924641 -0.599688,-0.115092 -1.070797,-0.312411 -1.414537,-0.591137 -0.34043,-0.282424 -0.532217,-0.592446 -0.576881,-0.930218 l -0.03983,-0.0074 c -0.148752,0.114033 -0.306036,0.229347 -0.471843,0.345933 -0.159456,0.112121 -0.325153,0.200303 -0.496996,0.264504 -0.188667,0.06664 -0.361689,0.110544 -0.51904,0.131743 -0.156071,0.01569 -0.357298,-9.3e-5 -0.603308,-0.04725 -0.640666,-0.122805 -1.093086,-0.426704 -1.358884,-0.909132 -0.257207,-0.48258 -0.311354,-1.059149 -0.165013,-1.728859 0.109849,-0.502711 0.322595,-0.99799 0.637772,-1.486607 0.320048,-0.490946 0.701998,-0.921879 1.146384,-1.293923 0.425437,-0.3587 0.90859,-0.631726 1.450732,-0.819722 0.549428,-0.192692 1.088835,-0.24863 1.619636,-0.167156 0.357302,0.05484 0.615305,0.160452 0.773388,0.317082 0.164845,0.152837 0.267878,0.365725 0.308786,0.6391 l 0.01577,0.0025 0.377606,-0.636673 2.048029,0.315407 -2.410177,4.179086 c -0.05767,0.102504 -0.123364,0.248883 -0.19716,0.439345 -0.07394,0.19083 -0.120522,0.33868 -0.139661,0.44337 -0.04138,0.226354 -0.02543,0.415287 0.04807,0.566644 0.07471,0.146188 0.218461,0.239381 0.431491,0.279367 0.862552,0.161903 1.629334,-0.112179 2.292398,-0.82132 0.661416,-0.711956 1.095277,-1.711153 1.301152,-2.985012 0.10177,-0.629707 0.08818,-1.223593 -0.03938,-1.781605 -0.126461,-0.553246 -0.36516,-1.052055 -0.714513,-1.496933 C 22.464428,11.172417 22.00396,10.80217 21.430842,10.501639 20.863849,10.198813 20.196679,9.9941969 19.430222,9.8863898 18.70055,9.7837567 17.972483,9.8183338 17.243941,9.9889942 16.524368,10.154756 15.84036,10.454212 15.189555,10.887987 c -0.638995,0.425514 -1.20188,0.976415 -1.690417,1.655274 -0.48621,0.683273 -0.835305,1.4864 -1.047089,2.414356 -0.209409,0.917553 -0.265948,1.758672 -0.16704,2.522251 0.10125,0.766983 0.329633,1.442906 0.687203,2.025941 0.365504,0.596054 0.84533,1.090493 1.440943,1.481285 0.601743,0.394813 1.3056,0.677265 2.11226,0.845413 0.928388,0.193523 1.782952,0.236454 2.559432,0.126908 0.779279,-0.104283 1.502421,-0.332504 2.16692,-0.684493 l 0.2394,0.607767 c -0.734254,0.400375 -1.530854,0.677962 -2.387047,0.83242 -0.847532,0.160708 -1.780772,0.131889 -2.794275,-0.08407 -0.846789,-0.180438 -1.661066,-0.505783 -2.441263,-0.972824 -0.765199,-0.460091 -1.399399,-1.025616 -1.90467,-1.694155 -0.502427,-0.666165 -0.848168,-1.43998 -1.040223,-2.318923 -0.184503,-0.866035 -0.153344,-1.811273 0.08936,-2.835037 0.210995,-0.890012 0.576088,-1.708349 1.094601,-2.458704 0.516527,-0.750761 1.147887,-1.387773 1.89598,-1.914141 0.73554,-0.5176 1.585225,-0.8983008 2.55326,-1.1433669 0.978073,-0.2456547 2.005024,-0.2958066 3.086423,-0.1481971 0.965074,0.1317313 1.771773,0.3850055 2.417796,0.7618567 0.659299,0.3766643 1.183899,0.8367923 1.571477,1.3816633 z m -4.315348,2.646167 c 0.04891,-0.288636 0.01963,-0.535083 -0.0874,-0.739529 -0.10141,-0.202862 -0.287419,-0.325305 -0.557713,-0.367792 -0.259154,-0.04074 -0.532569,0.0355 -0.820829,0.228649 -0.283161,0.194008 -0.557773,0.464128 -0.824286,0.810973 -0.266119,0.342507 -0.502941,0.747622 -0.710705,1.216354 -0.207651,0.465648 -0.36039,0.935096 -0.457907,1.40873 -0.07488,0.363684 -0.083,0.651914 -0.02397,0.864049 0.06445,0.213824 0.209144,0.341945 0.43433,0.383888 0.199466,0.03715 0.388631,0.01875 0.567234,-0.0553 0.179771,-0.07952 0.377737,-0.223345 0.59368,-0.431286 z"
       id="path1"
       aria-label="@" />
    <path
       style="font-style:italic;font-weight:bold;font-size:19.05px;line-height:1;font-family:Georgia;-inkscape-font-specification:'Georgia Bold Italic';letter-spacing:0px;fill:#a64b1e;stroke-width:1.5875;stroke-linecap:square;fill-opacity:1"
       d="m 23.233116,11.022896 c 0.387216,0.544804 0.649809,1.14874 0.785666,1.8124 0.138079,0.665075 0.154321,1.341998 0.04701,2.02995 -0.215582,1.382079 -0.803956,2.499167 -1.764644,3.335947 -0.958061,0.840411 -2.027161,1.148577 -3.193982,0.924641 -0.599688,-0.115092 -1.070797,-0.312411 -1.414537,-0.591137 -0.34043,-0.282424 -0.532217,-0.592446 -0.576881,-0.930218 l -0.03983,-0.0074 c -0.148752,0.114033 -0.306036,0.229347 -0.471843,0.345933 -0.159456,0.112121 -0.325153,0.200303 -0.496996,0.264504 -0.188667,0.06664 -0.361689,0.110544 -0.51904,0.131743 -0.156071,0.01569 -0.357298,-9.3e-5 -0.603308,-0.04725 -0.640666,-0.122805 -1.093086,-0.426704 -1.358884,-0.909132 -0.257207,-0.48258 -0.311354,-1.059149 -0.165013,-1.728859 0.109849,-0.502711 0.322595,-0.99799 0.637772,-1.486607 0.320048,-0.490946 0.701998,-0.921879 1.146384,-1.293923 0.425437,-0.3587 0.90859,-0.631726 1.450732,-0.819722 0.549428,-0.192692 1.088835,-0.24863 1.619636,-0.167156 0.357302,0.05484 0.615305,0.160452 0.773388,0.317082 0.164845,0.152837 0.267878,0.365725 0.308786,0.6391 l 0.01577,0.0025 0.377606,-0.636673 2.048029,0.315407 -2.410177,4.179086 c -0.05767,0.102504 -0.123364,0.248883 -0.19716,0.439345 -0.07394,0.19083 -0.120522,0.33868 -0.139661,0.44337 -0.04138,0.226354 -0.02543,0.415287 0.04807,0.566644 0.07471,0.146188 0.218461,0.239381 0.431491,0.279367 0.862552,0.161903 1.629334,-0.112179 2.292398,-0.82132 0.661416,-0.711956 1.095277,-1.711153 1.301152,-2.985012 0.10177,-0.629707 0.08818,-1.223593 -0.03938,-1.781605 -0.126461,-0.553246 -0.36516,-1.052055 -0.714513,-1.496933 -0.346203,-0.440867 -0.806671,-0.811114 -1.379789,-1.111645 -0.566993,-0.3028268 -1.234163,-0.5074433 -2.00062,-0.6152504 -0.729672,-0.1026331 -1.457739,-0.068056 -2.186281,0.1026044 -0.719573,0.165762 -1.403581,0.465219 -2.054386,0.898994 -0.638995,0.425514 -1.20188,0.976415 -1.690417,1.655274 -0.48621,0.683273 -0.835305,1.4864 -1.047089,2.414356 -0.209409,0.917553 -0.265948,1.758672 -0.16704,2.522251 0.10125,0.766983 0.329633,1.442906 0.687203,2.025941 0.365504,0.596054 0.84533,1.090493 1.440943,1.481285 0.601743,0.394813 1.3056,0.677265 2.11226,0.845413 0.928388,0.193523 1.782952,0.236454 2.559432,0.126908 0.779279,-0.104283 1.502421,-0.332504 2.16692,-0.684493 l 0.2394,0.607767 c -0.734254,0.400375 -1.530854,0.677962 -2.387047,0.83242 -0.847532,0.160708 -1.780772,0.131889 -2.794275,-0.08407 -0.846789,-0.180438 -1.661066,-0.505783 -2.441263,-0.972824 -0.765199,-0.460091 -1.399399,-1.025616 -1.90467,-1.694155 -0.502427,-0.666165 -0.848168,-1.43998 -1.040223,-2.318923 -0.184503,-0.866035 -0.153344,-1.811273 0.08936,-2.835037 0.210995,-0.890012 0.576088,-1.708349 1.094601,-2.458704 0.516527,-0.750761 1.147887,-1.387773 1.89598,-1.914141 0.73554,-0.5176012 1.585225,-0.898302 2.55326,-1.1433681 0.978073,-0.2456547 2.005024,-0.2958066 3.086423,-0.1481971 0.965074,0.1317313 1.771773,0.3850055 2.417796,0.7618567 0.659299,0.3766655 1.183899,0.8367935 1.571477,1.3816645 z m -4.315348,2.646167 c 0.04891,-0.288636 0.01963,-0.535083 -0.0874,-0.739529 -0.10141,-0.202862 -0.287419,-0.325305 -0.557713,-0.367792 -0.259154,-0.04074 -0.532569,0.0355 -0.820829,0.228649 -0.283161,0.194008 -0.557773,0.464128 -0.824286,0.810973 -0.266119,0.342507 -0.502941,0.747622 -0.710705,1.216354 -0.207651,0.465648 -0.36039,0.935096 -0.457907,1.40873 -0.07488,0.363684 -0.083,0.651914 -0.02397,0.864049 0.06445,0.213824 0.209144,0.341945 0.43433,0.383888 0.199466,0.03715 0.388631,0.01875 0.567234,-0.0553 0.179771,-0.07952 0.377737,-0.223345 0.59368,-0.431286 z"
       id="text1"
       aria-label="@" />
  </g>
</svg>
