<?xml version="1.0" encoding="UTF-8" standalone="no"?>
<svg
   width="128"
   height="128"
   viewBox="0 0 33.866666 33.866668"
   version="1.1"
   id="svg958"
   inkscape:version="1.3 (0e150ed6c4, 2023-07-21)"
   sodipodi:docname="patch.svg"
   xmlns:inkscape="http://www.inkscape.org/namespaces/inkscape"
   xmlns:sodipodi="http://sodipodi.sourceforge.net/DTD/sodipodi-0.dtd"
   xmlns:xlink="http://www.w3.org/1999/xlink"
   xmlns="http://www.w3.org/2000/svg"
   xmlns:svg="http://www.w3.org/2000/svg"
   xmlns:rdf="http://www.w3.org/1999/02/22-rdf-syntax-ns#"
   xmlns:cc="http://creativecommons.org/ns#"
   xmlns:dc="http://purl.org/dc/elements/1.1/">
  <defs
     id="defs952">
    <linearGradient
       id="linearGradient1617"
       inkscape:collect="always">
      <stop
         id="stop1613"
         offset="0"
         style="stop-color:#ffffe8;stop-opacity:1" />
      <stop
         id="stop1615"
         offset="1"
         style="stop-color:#ffe896;stop-opacity:1" />
    </linearGradient>
    <linearGradient
       gradientTransform="matrix(0.9789725,0,0,0.9789725,0.48107585,0.37449131)"
       gradientUnits="userSpaceOnUse"
       y2="30.691668"
       x2="25.4"
       y1="3.175"
       x1="10.583333"
       id="linearGradient1619"
       xlink:href="#linearGradient1617"
       inkscape:collect="always" />
    <linearGradient
       inkscape:collect="always"
       xlink:href="#linearGradient9770"
       id="linearGradient28-7"
       x1="50.586121"
       y1="47.299736"
       x2="98.03981"
       y2="38.659813"
       gradientUnits="userSpaceOnUse"
       gradientTransform="matrix(0.52916666,0,0,0.52916666,-30.877636,0.032607)" />
    <linearGradient
       id="linearGradient9770"
       inkscape:collect="always">
      <stop
         id="stop9766"
         offset="0"
         style="stop-color:#823a1c;stop-opacity:1" />
      <stop
         id="stop9768"
         offset="1"
         style="stop-color:#de7e2c;stop-opacity:1" />
    </linearGradient>
    <linearGradient
       inkscape:collect="always"
       xlink:href="#linearGradient11"
       id="linearGradient26"
       x1="81.721901"
       y1="27.825523"
       x2="92.827728"
       y2="20.051781"
       gradientUnits="userSpaceOnUse"
       gradientTransform="matrix(0.52916666,0,0,0.52916666,-30.877636,0.032607)" />
    <linearGradient
       id="linearGradient11"
       inkscape:collect="always">
      <stop
         style="stop-color:#000000;stop-opacity:0;"
         offset="0"
         id="stop11" />
      <stop
         style="stop-color:#000000;stop-opacity:1;"
         offset="0.33333334"
         id="stop14" />
      <stop
         style="stop-color:#000000;stop-opacity:1;"
         offset="0.66666663"
         id="stop13-7" />
      <stop
         style="stop-color:#000000;stop-opacity:0;"
         offset="1"
         id="stop12-5" />
    </linearGradient>
    <linearGradient
       inkscape:collect="always"
       xlink:href="#linearGradient9802"
       id="linearGradient9"
       x1="77.605415"
       y1="26.853327"
       x2="105.14168"
       y2="33.386311"
       gradientUnits="userSpaceOnUse"
       gradientTransform="matrix(0.52916666,0,0,0.52916666,-30.877636,0.032607)" />
    <linearGradient
       inkscape:collect="always"
       id="linearGradient9802">
      <stop
         style="stop-color:#e38d1d;stop-opacity:1;"
         offset="0"
         id="stop9798" />
      <stop
         style="stop-color:#bc661d;stop-opacity:1;"
         offset="1"
         id="stop9800" />
    </linearGradient>
    <linearGradient
       inkscape:collect="always"
       xlink:href="#linearGradient7"
       id="linearGradient10"
       x1="81.746033"
       y1="26.342899"
       x2="82.927979"
       y2="28.318741"
       gradientUnits="userSpaceOnUse"
       gradientTransform="matrix(0.52916666,0,0,0.52916666,-30.877636,0.032607)" />
    <linearGradient
       id="linearGradient7"
       inkscape:collect="always">
      <stop
         style="stop-color:#ffffff;stop-opacity:0;"
         offset="0"
         id="stop9" />
      <stop
         style="stop-color:#ffffff;stop-opacity:0.07;"
         offset="0.33333334"
         id="stop20" />
      <stop
         style="stop-color:#ffffff;stop-opacity:0.07;"
         offset="0.57022846"
         id="stop15" />
      <stop
         style="stop-color:#ffffff;stop-opacity:0;"
         offset="1"
         id="stop10" />
    </linearGradient>
    <linearGradient
       inkscape:collect="always"
       xlink:href="#linearGradient15"
       id="linearGradient17"
       x1="88.114853"
       y1="36.490227"
       x2="89.533554"
       y2="38.604229"
       gradientUnits="userSpaceOnUse"
       gradientTransform="matrix(0.52916666,0,0,0.52916666,-30.877636,0.032607)" />
    <linearGradient
       id="linearGradient15"
       inkscape:collect="always">
      <stop
         style="stop-color:#000000;stop-opacity:0;"
         offset="0"
         id="stop16" />
      <stop
         style="stop-color:#000000;stop-opacity:0.07;"
         offset="0.45121276"
         id="stop19" />
      <stop
         style="stop-color:#000000;stop-opacity:0.07;"
         offset="0.6546796"
         id="stop18" />
      <stop
         style="stop-color:#000000;stop-opacity:0;"
         offset="1"
         id="stop17" />
    </linearGradient>
  </defs>
  <sodipodi:namedview
     inkscape:bbox-nodes="true"
     inkscape:snap-bbox-edge-midpoints="false"
     inkscape:bbox-paths="false"
     inkscape:snap-bbox="true"
     inkscape:snap-grids="false"
     units="px"
     showgrid="false"
     inkscape:document-rotation="0"
     inkscape:current-layer="layer1"
     inkscape:document-units="px"
     inkscape:cy="63.916121"
     inkscape:cx="63.916121"
     inkscape:zoom="5.9609375"
     inkscape:pageshadow="2"
     inkscape:pageopacity="0.0"
     borderopacity="1.0"
     bordercolor="#666666"
     pagecolor="#ffffff"
     id="base"
     inkscape:pagecheckerboard="0"
     showguides="true"
     inkscape:guide-bbox="true"
     guidetolerance="10000"
     inkscape:snap-tangential="true"
     inkscape:snap-perpendicular="true"
     inkscape:window-width="1920"
     inkscape:window-height="1119"
     inkscape:window-x="0"
     inkscape:window-y="0"
     inkscape:window-maximized="1"
     inkscape:snap-to-guides="false"
     inkscape:snap-intersection-paths="false"
     inkscape:snap-bbox-midpoints="false"
     inkscape:snap-nodes="true"
     inkscape:object-paths="false"
     inkscape:showpageshadow="2"
     inkscape:deskcolor="#d1d1d1">
    <inkscape:grid
       id="grid1521"
       type="xygrid"
       empcolor="#ff2624"
       empopacity="0.2"
       originx="0"
       originy="0"
       spacingy="0.26458334"
       spacingx="0.26458334"
       units="px"
       visible="false"
       empspacing="4" />
    <sodipodi:guide
       position="6.5361112,12.172222"
       orientation="0,-1"
       id="guide846"
       inkscape:locked="false" />
    <sodipodi:guide
       position="4.7625,13.798641"
       orientation="1,0"
       id="guide848"
       inkscape:locked="false" />
    <sodipodi:guide
       position="4.7625,29.104928"
       orientation="0,-1"
       id="guide1"
       inkscape:locked="false" />
    <sodipodi:guide
       position="21.695835,30.95625"
       orientation="1,0"
       id="guide2"
       inkscape:locked="false" />
  </sodipodi:namedview>
  <metadata
     id="metadata955">
    <rdf:RDF>
      <cc:Work
         rdf:about="">
        <dc:format>image/svg+xml</dc:format>
        <dc:type
           rdf:resource="http://purl.org/dc/dcmitype/StillImage" />
      </cc:Work>
    </rdf:RDF>
  </metadata>
  <g
     id="layer1"
     inkscape:groupmode="layer"
     inkscape:label="Layer 1">
    <path
       style="fill:#000000;fill-opacity:0.196078;stroke:none;stroke-width:0.725255;stroke-miterlimit:4;stroke-dasharray:none;stroke-opacity:1;paint-order:markers stroke fill"
       d="M 26.49039,32.035407 32.706865,22.710694 26.49039,20.638537 Z"
       id="path1768"
       inkscape:connector-curvature="0"
       sodipodi:nodetypes="cccc" />
    <path
       sodipodi:nodetypes="ccccc"
       id="path1611"
       d="M 9.8057889,2.4466498 30.006189,4.613095 26.489592,32.036664 3.5893135,26.276471 Z"
       style="fill:url(#linearGradient1619);fill-opacity:1;stroke:none;stroke-width:0.440334;stroke-linecap:butt;stroke-linejoin:miter;stroke-miterlimit:4;stroke-dasharray:none;stroke-opacity:1" />
    <path
       style="fill:none;stroke:#4d3e2e;stroke-width:0.238125;stroke-linecap:butt;stroke-linejoin:miter;stroke-miterlimit:4;stroke-dasharray:none;stroke-opacity:1"
       d="M 9.8065869,2.4453923 30.006987,4.6118375 26.49039,32.035407 3.5901115,26.275215 Z"
       id="path1553"
       sodipodi:nodetypes="ccccc" />
    <g
       id="text1"
       style="font-weight:bold;font-size:7.39186px;line-height:0.83;font-family:'Liberation Mono';-inkscape-font-specification:'Liberation Mono Bold';letter-spacing:0.659987px;stroke-width:0.263994"
       transform="scale(1.005984,0.99405155)"
       aria-label="0101&#10;1010&#10;1100&#10;0011" />
    <g
       id="text3"
       style="font-size:3.17736px;line-height:1;font-family:'Liberation Mono';-inkscape-font-specification:'Liberation Mono';letter-spacing:0.0635472px;fill:#996b2e;fill-opacity:0.501961;stroke-width:0.238302"
       transform="matrix(1.0021339,0,0,0.99787067,0.05198801,0.27852107)"
       aria-label="010101010101&#10;101010101010&#10;110011001100&#10;001100110011&#10;011100111001&#10;100011000110&#10;000110011000&#10;011001100110&#10;100110011001&#10;">
      <path
         id="path36"
         d="m 10.905563,3.3414259 c -0.191475,-0.021456 -0.347558,0.026092 -0.468838,0.1428493 -0.121354,0.1168297 -0.214743,0.3036239 -0.280258,0.5608322 -0.06403,0.2513919 -0.06713,0.4489554 -0.009,0.5922643 0.05853,0.1429552 0.179605,0.2255865 0.36347,0.2478466 0.18425,0.022307 0.340158,-0.027427 0.467552,-0.1493572 0.128261,-0.1225101 0.223558,-0.3099487 0.285834,-0.5616437 0.06354,-0.2568163 0.06611,-0.4544401 0.0079,-0.5931049 -0.05709,-0.1389469 -0.179369,-0.2186901 -0.366741,-0.2396866 z m 2.911199,0.3262235 c -0.197835,-0.022169 -0.357631,0.026033 -0.479996,0.144815 -0.122442,0.1188563 -0.21449,0.3090574 -0.276228,0.5710708 -0.06035,0.2561022 -0.0591,0.4574566 0.0041,0.6036242 0.06354,0.1458141 0.19021,0.2302508 0.380243,0.2532577 0.190437,0.023056 0.350037,-0.027375 0.478613,-0.1514502 0.129454,-0.1246641 0.223455,-0.3155654 0.281957,-0.5720096 0.05969,-0.261648 0.05787,-0.4630555 -0.0052,-0.6044659 -0.06199,-0.14169 -0.189834,-0.2231474 -0.383435,-0.244842 z m 3.008757,0.3371556 c -0.204517,-0.022918 -0.368587,0.025911 -0.492044,0.1467883 -0.123535,0.120954 -0.214097,0.3146869 -0.271767,0.5816852 -0.05637,0.260989 -0.05048,0.4662791 0.01802,0.6154179 0.06887,0.1487861 0.201835,0.2351524 0.398352,0.2589443 0.196943,0.023843 0.360397,-0.027303 0.490162,-0.1536005 0.130654,-0.1268949 0.223216,-0.3213879 0.277652,-0.5827614 0.05554,-0.2666624 0.04902,-0.4719984 -0.01932,-0.6162624 C 17.159383,4.110476 17.025665,4.0272331 16.825519,4.004805 Z m 3.110888,0.3486004 c -0.211541,-0.023705 -0.379262,0.025859 -0.503814,0.1489061 -0.124632,0.1231273 -0.213554,0.3205246 -0.266839,0.5926991 -0.05209,0.2660638 -0.04124,0.4754441 0.03292,0.627674 0.07452,0.151878 0.213321,0.2401575 0.41666,0.2647752 0.203786,0.024672 0.371269,-0.02721 0.502227,-0.1558101 0.131862,-0.1292065 0.223248,-0.3273776 0.273301,-0.5938706 0.05106,-0.2718699 0.03952,-0.4812878 -0.03438,-0.6285194 C 20.283771,4.461755 20.143437,4.3766048 19.936407,4.3534054 Z m 3.219168,0.3607339 c -0.218936,-0.024534 -0.39089,0.025739 -0.51654,0.1510359 -0.125733,0.1253797 -0.212846,0.3265814 -0.261405,0.6041335 -0.04747,0.271337 -0.03131,0.4849702 0.04885,0.6404181 0.08053,0.1550973 0.225926,0.2454242 0.436448,0.2709115 0.210993,0.025544 0.382688,-0.027093 0.514846,-0.1580818 0.133074,-0.1316039 0.222276,-0.3336967 0.267604,-0.60551 0.04624,-0.277281 0.02933,-0.4909425 -0.05047,-0.6412624 -0.07858,-0.1505892 -0.225055,-0.2376336 -0.439329,-0.2616448 z m 3.332755,0.3734623 c -0.226723,-0.025406 -0.403109,0.025595 -0.529858,0.1532247 -0.126833,0.1277159 -0.212396,0.332819 -0.255858,0.6159616 -0.04249,0.2768192 -0.02021,0.4949304 0.06634,0.6537308 0.08693,0.1584515 0.2393,0.2509169 0.457393,0.2773209 0.218589,0.026464 0.394694,-0.026951 0.528054,-0.160418 0.13429,-0.1340917 0.221543,-0.3402094 0.261773,-0.617557 0.04104,-0.2829091 0.01838,-0.5009869 -0.06771,-0.6545239 C 26.863645,5.2015388 26.710237,5.1124681 26.48833,5.0876016 Z M 12.336768,3.525792 C 12.279308,3.594664 12.1942,3.6473787 12.081754,3.684166 11.970128,3.721021 11.8581,3.733153 11.745473,3.720351 l -0.04029,0.1644131 c 0.102051,0.011697 0.210794,0.0023 0.326599,-0.028735 0.116644,-0.030972 0.196384,-0.074019 0.23868,-0.1287292 l -0.276829,1.1454082 -0.505108,-0.060607 -0.04002,0.1633409 1.12439,0.1359795 0.0391,-0.1645184 -0.409514,-0.049137 0.324581,-1.3506262 z m 2.959502,0.3320349 c -0.05767,0.070101 -0.144213,0.123689 -0.259302,0.1610002 -0.114241,0.037381 -0.229457,0.049564 -0.345854,0.036334 l -0.0378,0.1675033 c 0.10547,0.012088 0.217363,0.00269 0.336046,-0.028753 0.119551,-0.031377 0.200781,-0.075122 0.243142,-0.1308151 l -0.259359,1.1671153 -0.52216,-0.062652 -0.03756,0.1664498 1.162056,0.1405346 0.03656,-0.1676716 -0.422993,-0.050754 0.303893,-1.3762261 z m 3.059122,0.3432115 c -0.05786,0.071373 -0.145482,0.1259109 -0.26333,0.1637607 -0.11697,0.037922 -0.235933,0.050106 -0.356292,0.036426 l -0.03513,0.1707097 c 0.109066,0.0125 0.224668,0.00316 0.346358,-0.028709 0.12259,-0.031792 0.204958,-0.076304 0.247364,-0.1330159 l -0.240536,1.1896457 -0.539679,-0.064755 -0.0349,0.1696774 1.202073,0.1453742 0.03383,-0.1709465 -0.437574,-0.052503 0.281599,-1.4028008 z m 3.164699,0.3550566 c -0.05803,0.072693 -0.147175,0.1281665 -0.267904,0.1665702 -0.119822,0.038479 -0.242303,0.050704 -0.366831,0.03655 l -0.03224,0.17404 c 0.112847,0.012934 0.231508,0.00355 0.356345,-0.028741 0.125768,-0.032217 0.210149,-0.077427 0.252577,-0.135196 L 21.241795,5.9823708 20.68284,5.9153032 20.6508,6.0883334 21.895417,6.2388527 21.926302,6.0645029 21.47338,6.010158 21.730947,4.5797515 Z m 3.275403,0.3674767 c -0.05818,0.074062 -0.149335,0.130455 -0.273077,0.1694285 -0.122802,0.039051 -0.248542,0.051363 -0.377459,0.03671 l -0.02913,0.1775008 c 0.116829,0.01339 0.23913,0.00402 0.367261,-0.028709 0.129094,-0.032653 0.215143,-0.078634 0.257572,-0.1374984 L 24.5423,6.378389 23.963469,6.308937 l -0.02895,0.1765164 1.288564,0.155834 0.02771,-0.1778887 -0.46909,-0.056285 0.23166,-1.4590996 z m 3.392018,0.38056 c -0.0583,0.075483 -0.151104,0.1328778 -0.278,0.1724376 -0.125921,0.03964 -0.255527,0.051987 -0.38907,0.036808 l -0.02577,0.1810999 c 0.121025,0.013871 0.247152,0.00452 0.378736,-0.028655 0.132581,-0.033099 0.219912,-0.079929 0.262313,-0.1399319 l -0.174762,1.2626948 -0.59933,-0.071912 -0.02562,0.1801438 1.335354,0.1614926 0.02428,-0.1815721 L 28.2095,6.8184064 28.413212,5.3294533 Z M 10.865225,3.5021016 c 0.121957,0.01378 0.197388,0.071719 0.226307,0.1735417 0.02991,0.1013568 0.01836,0.2593166 -0.03513,0.4743386 -0.05142,0.2066808 -0.11789,0.3571071 -0.199122,0.4511559 -0.08129,0.09411 -0.182269,0.1341596 -0.302688,0.1196966 -0.121011,-0.014534 -0.19701,-0.074175 -0.228197,-0.178385 -0.03019,-0.1046681 -0.01827,-0.262491 0.03518,-0.47344 0.0548,-0.2162786 0.120828,-0.3681374 0.198682,-0.4561137 0.07856,-0.087839 0.180177,-0.124895 0.304971,-0.1107941 z m 2.913588,0.3292165 c 0.126016,0.014239 0.205074,0.073404 0.237186,0.1772179 0.03312,0.1033438 0.02479,0.2643111 -0.02549,0.4833741 -0.04833,0.2105746 -0.113455,0.3637917 -0.19507,0.45952 -0.08167,0.095792 -0.184863,0.1364442 -0.309321,0.1214961 -0.125068,-0.015021 -0.204751,-0.075943 -0.239243,-0.1822158 -0.03347,-0.1067346 -0.02513,-0.2676168 0.02521,-0.482522 0.05161,-0.2203248 0.116632,-0.3749298 0.194892,-0.4644569 0.07899,-0.089385 0.182889,-0.1269832 0.311833,-0.1124134 z m 3.011331,0.3402607 c 0.13028,0.014721 0.213171,0.075163 0.248674,0.1810453 0.03654,0.1054085 0.03125,0.2694514 -0.01557,0.4927076 -0.04501,0.214615 -0.108247,0.3707747 -0.190224,0.4682435 -0.08203,0.097534 -0.18753,0.1388079 -0.316235,0.1233497 -0.129331,-0.015533 -0.212906,-0.07779 -0.250911,-0.1862059 -0.03696,-0.1088821 -0.03204,-0.2728948 0.01495,-0.4919058 0.04818,-0.2245237 0.111684,-0.3820211 0.190334,-0.4731544 0.0794,-0.090987 0.185683,-0.1291425 0.318988,-0.11408 z m 3.113661,0.3518234 c 0.134764,0.015228 0.221705,0.076999 0.260814,0.1850326 0.04017,0.1075546 0.03896,0.2748871 -0.0041,0.5024982 -0.04143,0.2188119 -0.103447,0.3779289 -0.185763,0.4772021 -0.08237,0.099341 -0.190274,0.1412543 -0.323445,0.1252598 -0.133815,-0.016072 -0.221503,-0.079719 -0.263245,-0.1903645 -0.04067,-0.111115 -0.039,-0.2783309 0.0044,-0.5016053 0.04447,-0.2288833 0.105914,-0.3894296 0.184934,-0.4822273 0.0798,-0.092646 0.188563,-0.1313762 0.326452,-0.1157956 z m 3.222156,0.3640826 c 0.139484,0.015761 0.230708,0.07892 0.273656,0.1891905 0.04403,0.109788 0.04677,0.2804924 0.0077,0.5126291 -0.03756,0.2231736 -0.09781,0.3854124 -0.180437,0.4865579 -0.08268,0.1012157 -0.193095,0.143789 -0.33097,0.1272295 -0.138539,-0.016639 -0.230579,-0.081737 -0.276298,-0.194703 -0.04463,-0.1134392 -0.04729,-0.2840854 -0.0078,-0.5117892 0.04048,-0.2334125 0.100527,-0.397028 0.179897,-0.491552 0.08018,-0.094367 0.191534,-0.1336887 0.334249,-0.1175628 z m 3.335977,0.3769436 c 0.144457,0.016323 0.240216,0.080929 0.287252,0.1935295 0.04815,0.1121136 0.05467,0.2862744 0.01994,0.5231168 -0.03339,0.2277093 -0.09125,0.3932462 -0.174162,0.4963356 -0.08297,0.1031622 -0.196,0.1464163 -0.338833,0.1292614 -0.143516,-0.017237 -0.240166,-0.08385 -0.29012,-0.1992326 -0.04884,-0.11586 -0.05571,-0.2900244 -0.02041,-0.5223348 0.03618,-0.2381222 0.09425,-0.4049767 0.173942,-0.5012921 0.08053,-0.096153 0.194598,-0.1360841 0.342397,-0.1193838 z M 10.611805,3.951049 l -0.06966,0.2764587 0.266147,0.031223 0.06929,-0.2769305 z m 2.915932,0.3373776 -0.06556,0.2816447 0.275043,0.032267 0.06517,-0.2821342 z m 3.013977,0.3487215 -0.06116,0.2870261 0.284393,0.033364 0.06073,-0.2875343 z m 3.116635,0.3605992 -0.05641,0.2926134 0.294226,0.034517 0.05595,-0.2931412 z m 3.225489,0.3731938 -0.05128,0.2984199 0.30458,0.035732 0.05079,-0.2989686 z m 3.339702,0.3864083 -0.04576,0.3044579 0.315491,0.037012 0.04523,-0.3050286 z m -14.431683,0.053704 c -0.196878,-0.02469 -0.357004,0.023358 -0.480806,0.1435898 -0.12388,0.1203075 -0.218555,0.3138934 -0.284119,0.5812388 -0.06409,0.2613196 -0.06584,0.4668918 -0.0051,0.6170414 0.06111,0.1497946 0.185996,0.2378475 0.375094,0.2633284 0.189503,0.025536 0.349482,-0.024803 0.479566,-0.1503978 0.130967,-0.1261879 0.227509,-0.3200998 0.289753,-0.5818007 0.06351,-0.2670053 0.06477,-0.4730207 0.004,-0.6182951 -0.05963,-0.1455465 -0.185743,-0.2305425 -0.378411,-0.2547048 z m 2.99455,0.3755432 c -0.203572,-0.02553 -0.367591,0.023178 -0.492521,0.1455554 -0.125009,0.1224562 -0.218249,0.3196938 -0.279806,0.592214 -0.06017,0.2663927 -0.05733,0.4760583 0.0087,0.6293223 0.06641,0.1529099 0.197193,0.2429685 0.392787,0.2693247 0.196019,0.026414 0.359873,-0.024629 0.491183,-0.1525005 0.132207,-0.1284726 0.227365,-0.3260902 0.285604,-0.5929086 0.05942,-0.2722112 0.05602,-0.4823199 -0.0099,-0.630586 -0.06481,-0.1485347 -0.196791,-0.2354367 -0.396016,-0.2604213 z m 3.096888,0.3883772 c -0.210611,-0.026412 -0.3787,0.022971 -0.504762,0.1475723 -0.126144,0.1246825 -0.217792,0.3257102 -0.275027,0.6036052 -0.05595,0.2716626 -0.0482,0.4855832 0.02347,0.6420888 0.07204,0.1561526 0.209057,0.2483038 0.411486,0.2755811 0.202878,0.027338 0.371197,-0.024373 0.503742,-0.1546038 0.133454,-0.1308414 0.227074,-0.3323073 0.280989,-0.6044438 0.055,-0.2776205 0.04663,-0.4919847 -0.02487,-0.6433643 -0.0703,-0.1516441 -0.208905,-0.2405856 -0.415028,-0.2664355 z m 3.205416,0.4019877 c -0.218023,-0.027342 -0.390368,0.022736 -0.517566,0.1496428 -0.127283,0.1269912 -0.217173,0.3319561 -0.269742,0.6154393 -0.05139,0.2771421 -0.03838,0.4954907 0.03927,0.6553734 0.07803,0.1595312 0.221643,0.2538682 0.431274,0.2821159 0.210103,0.028311 0.382241,-0.024199 0.516025,-0.1568778 C 21.422678,8.389357 21.51459,8.1838923 21.56384,7.906226 21.614079,7.6229813 21.600381,7.4041902 21.523,7.2495684 21.446844,7.0946865 21.302098,7.0037223 21.088711,6.9769615 Z m 3.31931,0.4162709 c -0.225835,-0.028322 -0.402634,0.022469 -0.530971,0.1517685 -0.128423,0.1293868 -0.216369,0.3384444 -0.263902,0.6277411 -0.04647,0.2828431 -0.02782,0.5058022 0.05619,0.6692056 0.0844,0.1630539 0.235005,0.2596755 0.452228,0.2889463 0.217721,0.029338 0.394292,-0.023937 0.529322,-0.1591568 0.135966,-0.1358495 0.225987,-0.3454735 0.270197,-0.6288955 0.0451,-0.2890979 0.02569,-0.5124989 -0.05795,-0.6705004 C 24.780751,7.5140848 24.62906,7.4209529 24.408021,7.3932324 Z m 3.439382,0.431329 c -0.234073,-0.029355 -0.415996,0.022111 -0.545471,0.153894 -0.129563,0.1318737 -0.215366,0.345188 -0.257461,0.6405363 -0.04116,0.2887784 -0.01647,0.5165414 0.07432,0.6836177 0.09119,0.1667292 0.249663,0.2658029 0.474899,0.2961534 0.225761,0.030421 0.406979,-0.023639 0.543255,-0.1614993 0.137228,-0.1384997 0.225156,-0.3524524 0.263923,-0.6418694 0.03954,-0.2951937 0.01402,-0.5233983 -0.0763,-0.6849252 C 28.235563,7.9486927 28.076515,7.8532944 27.847403,7.8245614 Z M 10.318723,5.6508871 c -0.05833,0.069847 -0.143697,0.1233147 -0.256347,0.1597891 -0.111834,0.036552 -0.2239691,0.047389 -0.3360338,0.033149 l -0.04279,0.1681072 c 0.1015412,0.013003 0.2105527,0.00418 0.3264628,-0.026384 0.116747,-0.030484 0.196418,-0.073363 0.23942,-0.1288824 l -0.2934727,1.1682316 -0.5025651,-0.067157 -0.042506,0.1670342 1.1187468,0.1505985 0.0416,-0.1682587 -0.40709,-0.054398 0.34431,-1.3780086 z m 2.945204,0.3697659 c -0.05856,0.071109 -0.145753,0.1254213 -0.261063,0.1624077 -0.114466,0.037066 -0.229427,0.047964 -0.345268,0.033244 l -0.04034,0.171321 c 0.104967,0.013442 0.216755,0.00459 0.335559,-0.026361 0.119669,-0.030871 0.201231,-0.074397 0.244313,-0.1309281 l -0.276283,1.1907514 -0.519644,-0.069439 -0.04008,0.1702676 1.156477,0.1556775 0.0391,-0.1715389 -0.420976,-0.056254 0.323947,-1.404573 z m 3.045412,0.3823469 c -0.05877,0.072418 -0.147462,0.1276523 -0.265549,0.1651649 -0.117212,0.037596 -0.235535,0.0485 -0.355347,0.033275 l -0.03769,0.174658 c 0.108567,0.013903 0.223665,0.00508 0.345494,-0.026269 0.122725,-0.031267 0.205451,-0.075563 0.248593,-0.1331428 l -0.257739,1.2141383 -0.537199,-0.071785 -0.03746,0.1736266 1.196573,0.1610751 0.0364,-0.1749478 -0.435587,-0.058206 0.301974,-1.4321679 z m 3.150405,0.3955285 c -0.05896,0.073775 -0.148784,0.1300166 -0.269773,0.16807 -0.120083,0.038139 -0.24235,0.048991 -0.366339,0.033236 l -0.03484,0.1781249 c 0.112358,0.014389 0.231347,0.00566 0.356342,-0.026102 0.125923,-0.031672 0.210263,-0.076713 0.253445,-0.1353806 L 19.160855,8.2549261 18.604337,8.1805601 18.569707,8.3576778 19.80892,8.5244928 19.84241,8.346 19.391438,8.2857377 19.6697,6.8248881 Z m 3.26179,0.4095128 c -0.05913,0.075184 -0.150976,0.1323604 -0.275,0.1709696 -0.123086,0.038698 -0.248636,0.049598 -0.377026,0.033283 l -0.03176,0.1817303 c 0.11635,0.0149 0.238568,0.00616 0.366879,-0.026017 0.129269,-0.032087 0.215723,-0.077843 0.258922,-0.1376393 l -0.216116,1.2637361 -0.576446,-0.077029 -0.03157,0.18075 1.28328,0.1727471 0.03034,-0.1821802 -0.467184,-0.062429 0.252669,-1.490679 z m 3.37874,0.4241956 c -0.05928,0.076647 -0.152783,0.134847 -0.279984,0.1740279 -0.126228,0.039273 -0.25567,0.050159 -0.3887,0.033255 l -0.02843,0.1854821 c 0.120559,0.015439 0.246613,0.00675 0.378398,-0.025852 0.13278,-0.032511 0.220996,-0.079062 0.264183,-0.1400317 L 25.852958,9.1491758 25.255495,9.0693378 25.227225,9.2538693 26.55744,9.4329344 26.58438,9.2469131 26.100092,9.1821991 26.32512,7.6604657 Z M 11.751429,5.978437 c 0.125407,0.015849 0.203409,0.076784 0.233832,0.1832873 0.03144,0.1060347 0.02059,0.2709687 -0.03289,0.4945123 -0.05141,0.2148856 -0.118674,0.3709349 -0.201505,0.4680146 -0.08289,0.097144 -0.186293,0.1372798 -0.310141,0.1207151 -0.124453,-0.016646 -0.203051,-0.079387 -0.235808,-0.1884396 -0.03173,-0.109513 -0.02095,-0.2739791 0.03253,-0.493267 C 11.29227,6.3384458 11.359552,6.1806045 11.43894,6.0898408 11.51905,5.99923 11.62311,5.9622199 11.751429,5.978437 Z m 2.997092,0.3787738 c 0.129679,0.016389 0.211501,0.07867 0.245297,0.1873385 0.03484,0.1081954 0.02699,0.2763352 -0.02308,0.5042319 -0.04813,0.2190802 -0.113557,0.3781786 -0.196778,0.4770467 -0.08328,0.098935 -0.189012,0.1396785 -0.317115,0.1225449 -0.128724,-0.017217 -0.211201,-0.081365 -0.247451,-0.1926608 -0.0352,-0.1117603 -0.0278,-0.279485 0.02238,-0.5030348 0.05144,-0.2291723 0.117246,-0.3900145 0.197049,-0.4824278 0.08055,-0.092255 0.187013,-0.1298078 0.319701,-0.1130386 z m 3.099628,0.3917324 c 0.134173,0.016957 0.220034,0.080642 0.257418,0.191562 0.03845,0.1104429 0.03466,0.28202 -0.01173,0.5144403 -0.0446,0.2234396 -0.108842,0.3855969 -0.192431,0.4863199 -0.08364,0.1007922 -0.191811,0.142162 -0.324389,0.1244297 -0.133218,-0.017818 -0.219797,-0.083433 -0.259764,-0.1970634 -0.03889,-0.1140982 -0.03471,-0.2851558 0.01191,-0.5131335 0.04779,-0.2337001 0.111562,-0.3977107 0.191762,-0.4918342 0.08098,-0.09396 0.189945,-0.1320706 0.327227,-0.1147208 z m 3.208374,0.4054757 c 0.138905,0.017555 0.229039,0.082705 0.270245,0.1959693 0.04229,0.1127834 0.04242,0.2878828 4e-6,0.5250066 -0.04078,0.2279729 -0.103293,0.3933647 -0.187223,0.4960133 -0.08399,0.1027205 -0.19469,0.1447359 -0.331984,0.1263729 -0.137953,-0.018451 -0.228875,-0.085598 -0.2728,-0.2016599 -0.04283,-0.1165335 -0.04252,-0.291113 2.6e-4,-0.5236944 0.04385,-0.2384073 0.105831,-0.4056571 0.186409,-0.5015551 0.08138,-0.095729 0.192968,-0.134414 0.335089,-0.1164527 z m 3.322501,0.4198991 c 0.143891,0.018185 0.238553,0.084865 0.28383,0.2005719 0.04639,0.1152221 0.05028,0.2939308 0.01215,0.5359483 -0.03666,0.2326899 -0.09682,0.4015046 -0.181068,0.5061534 -0.0843,0.1047235 -0.197654,0.1474047 -0.339919,0.1283767 -0.142945,-0.019119 -0.238469,-0.087865 -0.286613,-0.2064621 -0.04702,-0.1190715 -0.05131,-0.2973759 -0.01268,-0.5347467 0.0396,-0.2433039 0.10006,-0.4138646 0.180991,-0.511605 0.08176,-0.097565 0.196089,-0.1368421 0.343309,-0.1182365 z m 3.442827,0.4351061 c 0.149153,0.01885 0.248613,0.087129 0.298233,0.2053825 0.05076,0.1177651 0.05915,0.3002917 0.02565,0.5474061 -0.03221,0.2376031 -0.09028,0.4099219 -0.174798,0.51665 -0.08458,0.1068056 -0.200707,0.1501735 -0.348219,0.1304438 -0.148213,-0.019823 -0.248615,-0.090243 -0.30126,-0.2114838 -0.05149,-0.1217186 -0.06027,-0.3038457 -0.02611,-0.5462042 0.03501,-0.2484027 0.09334,-0.4224657 0.174596,-0.5221202 0.08212,-0.099472 0.199312,-0.1393594 0.351909,-0.1200742 z M 11.494227,6.442999 l -0.06968,0.2873912 0.2737,0.035816 0.06929,-0.2878991 z m 2.999612,0.3875044 -0.06533,0.2929773 0.283067,0.037041 0.06491,-0.2935049 z m 3.102475,0.4007929 -0.06065,0.2987803 0.292922,0.038331 0.0602,-0.2993288 z m 3.211576,0.414887 -0.05559,0.3048146 0.303303,0.039689 0.05511,-0.305385 z m 3.326094,0.4296811 -0.05013,0.3110931 0.314244,0.041121 0.04961,-0.3116869 z m 3.446848,0.4452805 -0.04424,0.3176309 0.325789,0.042632 0.04367,-0.3182494 z M 12.719986,8.3979079 c -0.202583,-0.02821 -0.366771,0.019534 -0.4932,0.1434414 -0.126512,0.1239874 -0.222492,0.3248049 -0.288036,0.6029692 -0.06407,0.2719159 -0.06454,0.4868533 -0.001,0.6443414 0.06387,0.1571318 0.192999,0.2502211 0.387626,0.2792081 0.195053,0.02905 0.359124,-0.02108 0.49201,-0.1505516 0.13379,-0.1300818 0.231782,-0.3316946 0.293921,-0.6040797 0.06339,-0.2778844 0.06321,-0.4928745 -3.02e-4,-0.6452369 -0.06235,-0.1526221 -0.19272,-0.2424837 -0.390982,-0.2700919 z m 1.528125,0.2127933 c -0.206066,-0.028695 -0.372281,0.019371 -0.499296,0.1444068 -0.127097,0.1251178 -0.222328,0.3278769 -0.285784,0.6088049 -0.06203,0.2746256 -0.06011,0.4917622 0.0062,0.6509321 0.06663,0.158814 0.198824,0.252997 0.396831,0.282488 0.198445,0.02956 0.364534,-0.02092 0.498058,-0.15159 0.134432,-0.131284 0.231698,-0.3348721 0.291749,-0.6099917 0.06126,-0.2806658 0.05865,-0.4978514 -0.0076,-0.6518292 C 14.583219,8.7296867 14.4498,8.6387844 14.248128,8.6107012 Z m 4.7451,0.6607617 c -0.217066,-0.030227 -0.389646,0.018827 -0.518422,0.1473759 -0.128863,0.1286353 -0.221597,0.3374475 -0.278284,0.6269982 -0.05542,0.283081 -0.04579,0.507086 0.02926,0.671514 0.07544,0.164075 0.217372,0.261689 0.426065,0.292771 0.209168,0.03115 0.381593,-0.02038 0.517037,-0.154786 0.136374,-0.135028 0.231644,-0.344713 0.28492,-0.628369 0.05435,-0.2893478 0.04395,-0.5133902 -0.03094,-0.6724189 -0.07365,-0.1592787 -0.217187,-0.2535009 -0.42964,-0.2830852 z m 1.637933,0.2280844 c -0.22093,-0.030765 -0.39573,0.018627 -0.525096,0.1483908 -0.129453,0.1298521 -0.221266,0.340762 -0.275516,0.6333039 -0.05304,0.286014 -0.04066,0.512404 0.03751,0.67866 0.07857,0.165903 0.223936,0.264713 0.436384,0.296354 0.212936,0.03172 0.387571,-0.02018 0.523659,-0.155879 0.137025,-0.136323 0.230965,-0.348208 0.281803,-0.634825 0.05185,-0.292359 0.03868,-0.5187807 -0.03928,-0.6795641 -0.07671,-0.1610308 -0.22323,-0.256329 -0.439469,-0.2864406 z m 5.092824,0.7091827 c -0.233161,-0.03247 -0.414942,0.01796 -0.546078,0.151514 -0.131228,0.133644 -0.220435,0.351039 -0.266775,0.652929 -0.04531,0.295181 -0.02363,0.529097 0.06454,0.701078 0.08857,0.171632 0.244873,0.274198 0.469216,0.307611 0.22487,0.03349 0.406459,-0.01953 0.544484,-0.159247 0.138985,-0.140364 0.22993,-0.358922 0.272848,-0.654799 0.04377,-0.301776 0.02163,-0.535644 -0.06614,-0.701924 -0.08647,-0.166518 -0.243863,-0.265381 -0.472088,-0.297162 z m 1.760026,0.245086 c -0.237465,-0.03307 -0.422148,0.01765 -0.553875,0.152516 -0.131819,0.134957 -0.219445,0.354691 -0.262935,0.659828 -0.04252,0.298366 -0.01813,0.534809 0.07358,0.708783 0.09212,0.173627 0.252761,0.277572 0.481292,0.311609 0.229073,0.03412 0.413092,-0.01928 0.551764,-0.160399 0.139639,-0.141764 0.229479,-0.36264 0.269542,-0.661736 0.04086,-0.305047 0.01552,-0.541504 -0.07575,-0.709697 -0.08994,-0.168429 -0.251174,-0.268536 -0.483616,-0.300904 z M 9.7272138,8.0065617 c -0.05935,0.071484 -0.1458901,0.1253546 -0.260064,0.161753 -0.1133475,0.036487 -0.2269802,0.0468 -0.3403266,0.030821 l -0.043975,0.1727645 c 0.1027029,0.014584 0.2129686,0.00709 0.330416,-0.023159 0.1182947,-0.030164 0.1992209,-0.073942 0.2429936,-0.1308034 L 9.353823,9.4218442 8.8454669,9.3467214 8.8017766,9.5184111 9.9334802,9.6868046 9.9762449,9.5138232 9.5644174,9.452965 9.9191322,8.0333144 Z m 1.4773722,0.2059399 c -0.05947,0.072139 -0.147138,0.1264072 -0.262665,0.1630569 -0.114685,0.03674 -0.22956,0.0471 -0.344821,0.030851 l -0.04275,0.1744436 c 0.10444,0.01483 0.215928,0.00732 0.334845,-0.02312 0.119779,-0.030349 0.201858,-0.07443 0.245676,-0.1318162 L 10.841053,9.641621 10.324037,9.5652185 10.28156,9.7385977 11.432597,9.909868 11.474112,9.7351718 11.054848,9.6732148 11.39936,8.2396524 Z m 4.585243,0.639165 c -0.05982,0.074176 -0.149785,0.1298461 -0.269553,0.1672707 -0.11888,0.03752 -0.238867,0.047847 -0.360172,0.030746 l -0.03878,0.1796788 c 0.109922,0.015609 0.226461,0.00821 0.349996,-0.022802 0.124443,-0.030916 0.208503,-0.076162 0.252429,-0.1351822 l -0.265882,1.2524981 -0.54395,-0.08038 -0.03854,0.178649 1.211686,0.180295 0.03746,-0.180046 -0.441114,-0.06519 0.311419,-1.4769611 z m 1.581262,0.2204219 c -0.05992,0.07488 -0.150267,0.1310925 -0.271511,0.1687823 -0.120342,0.037787 -0.242533,0.04804 -0.365958,0.03064 l -0.03735,0.1814925 c 0.111846,0.015882 0.230569,0.00858 0.355715,-0.022622 0.12607,-0.031109 0.210951,-0.076738 0.254902,-0.1363231 l -0.255823,1.2652538 -0.553543,-0.0818 -0.03712,0.180476 1.233118,0.183484 0.036,-0.181901 -0.448924,-0.06634 0.299505,-1.4920068 z m 4.914822,0.6851071 c -0.0602,0.077076 -0.153433,0.1347324 -0.279315,0.1732396 -0.124931,0.03861 -0.252344,0.048864 -0.382475,0.030518 l -0.03271,0.1871578 c 0.117929,0.01675 0.241812,0.0095 0.372021,-0.02227 0.131184,-0.0317 0.219067,-0.07845 0.263059,-0.1398021 l -0.22319,1.3050961 -0.584334,-0.08635 -0.03252,0.186184 1.300933,0.193574 0.03126,-0.187698 -0.473639,-0.06999 0.260859,-1.538995 z m 1.697431,0.2366152 c -0.06028,0.077837 -0.154368,0.1360122 -0.281869,0.1747992 -0.126531,0.03889 -0.255921,0.04912 -0.388409,0.03044 l -0.03104,0.189123 c 0.120068,0.01705 0.245906,0.0099 0.377885,-0.02212 0.132971,-0.0319 0.22175,-0.07906 0.265742,-0.141023 l -0.211434,1.318929 -0.595015,-0.08793 -0.03086,0.188165 1.324786,0.197124 0.02955,-0.189712 -0.482333,-0.07128 0.246936,-1.55531 z M 12.679699,8.5716607 c 0.12905,0.0181 0.209591,0.083056 0.241632,0.1945763 0.03309,0.1110483 0.02319,0.2826421 -0.03021,0.5152838 -0.05133,0.2236458 -0.119398,0.3856891 -0.203889,0.485986 -0.08455,0.1003636 -0.190695,0.1413635 -0.318167,0.1225101 -0.12809,-0.018945 -0.209254,-0.085832 -0.243696,-0.2000752 -0.03339,-0.1147055 -0.02345,-0.2862265 0.03,-0.5144162 0.0548,-0.2339247 0.122768,-0.3973955 0.203749,-0.4911154 0.08172,-0.09355 0.188539,-0.1312693 0.320581,-0.1127494 z m 1.529446,0.2145148 c 0.131272,0.018412 0.213805,0.084108 0.247601,0.1967945 0.03485,0.112213 0.02632,0.2854901 -0.0253,0.5204572 -0.04963,0.2258867 -0.116533,0.3895845 -0.201225,0.4908261 -0.08475,0.1013097 -0.192106,0.1426217 -0.321792,0.1234407 -0.130312,-0.01927 -0.213498,-0.08693 -0.249759,-0.2023863 -0.0352,-0.1159166 -0.02702,-0.2891837 0.02471,-0.5196499 0.05303,-0.2362525 0.120238,-0.4013169 0.201434,-0.4959074 0.08195,-0.094418 0.190013,-0.1324135 0.324328,-0.1135749 z m 4.749383,0.6661323 c 0.138296,0.019397 0.227153,0.08741 0.266564,0.2037424 0.0405,0.1158523 0.03809,0.2946247 -0.0078,0.5368518 -0.04409,0.232883 -0.10892,0.401499 -0.19418,0.505683 -0.08532,0.104257 -0.196461,0.146532 -0.333144,0.126317 -0.137338,-0.02031 -0.226949,-0.09039 -0.269027,-0.209628 -0.04097,-0.119702 -0.03805,-0.298359 0.0081,-0.53593 0.04732,-0.2435173 0.111563,-0.4136116 0.193373,-0.5109132 0.08261,-0.097119 0.194576,-0.1359687 0.336071,-0.116123 z m 1.639475,0.2299471 c 0.140762,0.019743 0.231853,0.088563 0.273258,0.2061618 0.04251,0.1171163 0.04214,0.2977763 -0.0016,0.5425213 -0.04209,0.235311 -0.106018,0.405653 -0.191454,0.510857 -0.0855,0.105277 -0.197955,0.147884 -0.337097,0.127304 -0.139808,-0.02068 -0.231687,-0.0916 -0.275831,-0.21215 -0.04303,-0.121018 -0.04213,-0.301567 0.002,-0.541602 0.04526,-0.246037 0.10857,-0.417855 0.190575,-0.5160948 0.08282,-0.098054 0.196145,-0.1371967 0.340163,-0.1169973 z m 5.097826,0.7150041 c 0.148572,0.02084 0.246768,0.09219 0.29456,0.213753 0.04894,0.121075 0.0547,0.307572 0.01766,0.56019 -0.03562,0.242899 -0.09609,0.418702 -0.182005,0.527085 -0.08598,0.108462 -0.202573,0.152093 -0.349504,0.130362 -0.147627,-0.02184 -0.246731,-0.09541 -0.297493,-0.22007 -0.0496,-0.125138 -0.05569,-0.311669 -0.01805,-0.559407 0.03858,-0.253912 0.09927,-0.431049 0.181824,-0.532215 0.08341,-0.10097 0.201008,-0.141018 0.35301,-0.119698 z m 1.761827,0.247108 c 0.151321,0.02122 0.25203,0.09346 0.302095,0.216401 0.05123,0.122453 0.05934,0.311 0.02472,0.566353 -0.03328,0.245537 -0.09265,0.423214 -0.178712,0.532701 -0.08612,0.109565 -0.204159,0.153549 -0.353832,0.131412 -0.15038,-0.02224 -0.252039,-0.09674 -0.305156,-0.222833 -0.05194,-0.126572 -0.06038,-0.315161 -0.02508,-0.565576 0.03617,-0.256647 0.09575,-0.435653 0.17847,-0.537833 0.08359,-0.101981 0.202683,-0.142339 0.357494,-0.120625 z m -15.039213,-1.5907324 -0.06962,0.2990643 0.28168,0.040816 0.06921,-0.299612 z m 1.530766,0.2191558 -0.06736,0.3020483 0.286555,0.041522 0.06693,-0.3026068 z m 4.753869,0.6805992 -0.06002,0.3113604 0.301959,0.04376 0.05954,-0.3119536 z m 1.641159,0.2349604 -0.05738,0.314591 0.307372,0.04454 0.05688,-0.315196 z m 5.103509,0.730656 -0.0488,0.324689 0.32451,0.04702 0.04824,-0.325333 z m 1.763948,0.25254 -0.04571,0.328198 0.330543,0.0479 0.04512,-0.328855 z M 9.1312263,10.408947 c -0.19815,-0.03044 -0.36069,0.01681 -0.4880473,0.141138 -0.1274395,0.124412 -0.226909,0.326919 -0.2985162,0.608044 -0.069998,0.274807 -0.075963,0.492085 -0.017728,0.652171 0.058609,0.159728 0.1828428,0.255603 0.373159,0.286751 0.1907331,0.03122 0.3532174,-0.01845 0.4870554,-0.148359 0.1347404,-0.130513 0.2361045,-0.333392 0.3042201,-0.608689 0.069491,-0.280857 0.074926,-0.498601 0.016551,-0.6535 -0.057232,-0.155152 -0.1827712,-0.247768 -0.376694,-0.277556 z m 1.4946587,0.229592 c -0.20155,-0.03096 -0.366082,0.0166 -0.494042,0.142063 -0.128043,0.125548 -0.2268289,0.330025 -0.2964623,0.613963 -0.068071,0.277565 -0.071749,0.497084 -0.010858,0.658896 0.061268,0.161454 0.1884813,0.258468 0.3820973,0.290156 0.194043,0.03176 0.358511,-0.01825 0.493005,-0.149358 0.135402,-0.131723 0.236109,-0.336601 0.30225,-0.614681 0.06747,-0.283688 0.07059,-0.503674 0.0096,-0.660231 -0.05983,-0.156808 -0.188336,-0.250508 -0.38559,-0.280808 z m 4.641304,0.712944 c -0.212291,-0.03261 -0.38349,0.01583 -0.513268,0.144836 -0.129865,0.129089 -0.226362,0.339708 -0.289587,0.632425 -0.06181,0.286173 -0.05813,0.512693 0.01124,0.6799 0.06976,0.166852 0.206857,0.267505 0.410902,0.3009 0.204508,0.03347 0.375203,-0.01756 0.511677,-0.152427 0.137403,-0.13549 0.235902,-0.346605 0.295627,-0.633376 0.06092,-0.292528 0.05659,-0.519517 -0.01276,-0.681259 -0.06813,-0.161985 -0.206055,-0.259083 -0.413831,-0.290999 z m 1.601441,0.245994 c -0.216061,-0.03319 -0.389027,0.01565 -0.519414,0.14587 -0.130475,0.130313 -0.226124,0.343061 -0.287039,0.638824 -0.05955,0.28916 -0.05325,0.518111 0.01913,0.687194 0.07278,0.16873 0.212793,0.270559 0.420502,0.304553 0.208185,0.03407 0.381479,-0.01724 0.518617,-0.153406 0.138074,-0.136793 0.235752,-0.350071 0.293165,-0.639859 0.05856,-0.295595 0.05156,-0.525015 -0.02075,-0.68856 -0.07108,-0.163785 -0.212747,-0.262132 -0.424219,-0.294616 z m 4.980312,0.765018 c -0.227999,-0.03502 -0.40782,0.01481 -0.540041,0.148848 -0.132313,0.134129 -0.225136,0.353525 -0.278546,0.65881 -0.05222,0.298497 -0.03745,0.535055 0.04456,0.710017 0.08242,0.174611 0.233067,0.28035 0.452382,0.316244 0.219831,0.03598 0.399526,-0.01649 0.538668,-0.156703 0.140099,-0.140858 0.235029,-0.360894 0.284927,-0.660113 0.05089,-0.305185 0.03531,-0.542213 -0.04648,-0.711403 -0.0805,-0.169421 -0.232308,-0.271419 -0.455479,-0.3057 z m 1.721023,0.264364 c -0.232199,-0.03567 -0.414415,0.01451 -0.547249,0.149864 -0.132927,0.135451 -0.224706,0.357156 -0.275409,0.665748 -0.04958,0.301742 -0.03178,0.540946 0.05366,0.717955 0.08585,0.17666 0.240254,0.283764 0.463655,0.320327 0.22393,0.03665 0.406013,-0.01619 0.545824,-0.157806 0.140777,-0.142267 0.234689,-0.364651 0.281875,-0.667148 0.04813,-0.308519 0.02947,-0.548193 -0.05568,-0.719349 -0.08384,-0.171382 -0.23939,-0.274678 -0.466677,-0.309591 z M 12.133106,10.896782 c -0.06066,0.07457 -0.150533,0.130535 -0.269087,0.167335 -0.117686,0.03691 -0.23565,0.04585 -0.354288,0.02741 l -0.04286,0.182028 c 0.107502,0.01682 0.222198,0.01 0.344282,-0.02028 0.122973,-0.03017 0.206984,-0.07474 0.251649,-0.134112 l -0.293655,1.265621 -0.532292,-0.08647 -0.0426,0.180989 1.184777,0.193732 0.04158,-0.182413 -0.431326,-0.07007 0.344327,-1.492937 z m 1.546938,0.237855 c -0.06078,0.07528 -0.151442,0.131733 -0.27145,0.168787 -0.119125,0.03716 -0.238845,0.04607 -0.359553,0.02731 l -0.0415,0.183879 c 0.10938,0.01711 0.225804,0.01034 0.349472,-0.02011 0.124572,-0.03035 0.209407,-0.0753 0.254112,-0.135238 l -0.284135,1.278604 -0.541661,-0.088 -0.04126,0.182853 1.205693,0.197152 0.04019,-0.184306 -0.438948,-0.07131 0.333047,-1.508254 z m 4.80614,0.738986 c -0.06111,0.0775 -0.153792,0.135525 -0.278365,0.173363 -0.123642,0.03795 -0.249324,0.04667 -0.376578,0.02689 l -0.03709,0.18966 c 0.115319,0.01804 0.237622,0.01151 0.366267,-0.01949 0.129601,-0.0309 0.216577,-0.07707 0.261365,-0.138796 l -0.253216,1.319158 -0.571299,-0.09281 -0.03689,0.188678 1.272306,0.208045 0.03569,-0.190224 -0.463067,-0.07523 0.296406,-1.556108 z m 1.659925,0.255227 c -0.06121,0.07827 -0.154729,0.136816 -0.280896,0.174922 -0.125218,0.03822 -0.252847,0.04689 -0.382402,0.02676 l -0.03551,0.191668 c 0.117406,0.01837 0.241191,0.01184 0.371573,-0.01936 0.131358,-0.03109 0.219657,-0.0776 0.26446,-0.139934 l -0.242064,1.333243 -0.581722,-0.0945 -0.03531,0.190701 1.29559,0.211852 0.03406,-0.192279 -0.471551,-0.07661 0.283194,-1.572725 z m 5.164226,0.794045 c -0.06146,0.08067 -0.158056,0.140766 -0.289233,0.179699 -0.130173,0.03905 -0.26349,0.04763 -0.400334,0.02637 l -0.03034,0.197946 c 0.124019,0.0194 0.253839,0.0131 0.3897,-0.01867 0.136888,-0.03166 0.227975,-0.07941 0.272784,-0.143676 l -0.205822,1.377313 -0.61476,-0.09987 -0.03019,0.197032 1.368937,0.223846 0.02878,-0.198714 -0.498445,-0.08098 0.240258,-1.62472 z m 1.785766,0.274577 c -0.06153,0.0815 -0.159037,0.142159 -0.291965,0.181374 -0.131906,0.03934 -0.267373,0.04786 -0.406784,0.02619 l -0.02848,0.200128 c 0.126348,0.01977 0.258289,0.01355 0.396066,-0.01842 0.138826,-0.03185 0.230409,-0.08011 0.275203,-0.145041 l -0.192746,1.392638 -0.625925,-0.101685 -0.02834,0.199234 1.39494,0.228098 0.02687,-0.200954 -0.507924,-0.08252 0.224762,-1.642807 z M 9.087038,10.584957 c 0.1262221,0.01952 0.2036984,0.08565 0.2322424,0.198891 0.029583,0.112776 0.015286,0.286879 -0.043213,0.522007 -0.056236,0.226034 -0.1272867,0.389523 -0.2128517,0.490325 -0.085624,0.10087 -0.190801,0.141007 -0.3154526,0.12074 -0.1252558,-0.02036 -0.2032946,-0.08845 -0.2341279,-0.204467 -0.029788,-0.116479 -0.015165,-0.290043 0.043266,-0.520662 0.0599,-0.236417 0.1306143,-0.401819 0.2125629,-0.495994 0.082674,-0.094 0.1884234,-0.130813 0.3175739,-0.11084 z m 1.495912,0.231349 c 0.128392,0.01986 0.207797,0.08675 0.238031,0.201184 0.03129,0.113969 0.01868,0.289853 -0.03813,0.527349 -0.05462,0.228316 -0.124977,0.393425 -0.210765,0.49518 -0.08584,0.101824 -0.192218,0.142261 -0.31903,0.121643 -0.127425,-0.02072 -0.207422,-0.08959 -0.240007,-0.206855 -0.031527,-0.11772 -0.018975,-0.293127 0.03783,-0.526063 0.05823,-0.238786 0.12862,-0.405749 0.210802,-0.500802 0.08292,-0.09487 0.189901,-0.131953 0.321269,-0.111636 z m 4.64537,0.718425 c 0.135248,0.02092 0.220782,0.09019 0.256422,0.20837 0.03673,0.1177 0.02917,0.29908 -0.02219,0.543967 -0.04938,0.235439 -0.117012,0.405669 -0.203433,0.510394 -0.08648,0.104798 -0.196597,0.146162 -0.330239,0.124433 -0.134283,-0.02183 -0.220505,-0.0932 -0.258688,-0.214339 -0.03709,-0.1216 -0.02996,-0.302571 0.02157,-0.54274 0.05282,-0.246182 0.120846,-0.418206 0.203702,-0.515994 0.08363,-0.0976 0.194474,-0.135492 0.332853,-0.114091 z m 1.602906,0.247896 c 0.137655,0.02129 0.225352,0.0914 0.262913,0.210872 0.03866,0.118996 0.03348,0.302373 -0.01591,0.549824 -0.04749,0.237911 -0.114697,0.409827 -0.201317,0.51558 -0.08668,0.105827 -0.198099,0.147509 -0.334141,0.125391 -0.136692,-0.02222 -0.22511,-0.09446 -0.265284,-0.216946 -0.03907,-0.122949 -0.03346,-0.305784 0.01617,-0.548462 0.05087,-0.248748 0.117607,-0.422592 0.200677,-0.521326 0.08386,-0.09854 0.196047,-0.136714 0.336887,-0.114933 z m 4.98507,0.770961 c 0.145279,0.02247 0.239859,0.09519 0.283573,0.218727 0.04485,0.123056 0.04599,0.312473 0.003,0.567943 -0.04134,0.245641 -0.105762,0.423036 -0.192936,0.531998 -0.08724,0.109042 -0.202744,0.151707 -0.346385,0.128353 -0.144323,-0.02347 -0.239738,-0.09843 -0.286287,-0.225135 -0.0454,-0.127173 -0.04648,-0.316118 -0.003,-0.566642 0.04453,-0.256769 0.108835,-0.436026 0.192516,-0.537713 0.08452,-0.101481 0.200922,-0.140518 0.349554,-0.117531 z m 1.722739,0.266428 c 0.14796,0.02288 0.244975,0.09652 0.29088,0.221468 0.04706,0.124469 0.04999,0.315914 0.0093,0.574171 -0.03912,0.248327 -0.102064,0.427698 -0.189406,0.537774 -0.08741,0.110156 -0.20434,0.15316 -0.350657,0.12937 -0.147008,-0.0239 -0.244899,-0.09982 -0.293717,-0.227993 -0.04765,-0.128644 -0.05097,-0.31969 -0.0098,-0.572941 0.04225,-0.259555 0.105503,-0.440716 0.189374,-0.543427 0.08472,-0.1025 0.202601,-0.141832 0.353975,-0.118422 z m -14.7209643,-1.74972 -0.076154,0.30225 0.2754725,0.04393 0.075764,-0.302807 z m 1.4970813,0.236048 -0.07401,0.305288 0.28023,0.04469 0.07361,-0.305856 z m 4.649379,0.73308 -0.06707,0.314768 0.295268,0.04709 0.06661,-0.315373 z m 1.604422,0.252973 -0.06456,0.318058 0.300548,0.04793 0.06409,-0.318674 z m 4.990217,0.78682 -0.05643,0.328342 0.317273,0.0506 0.05589,-0.328998 z m 1.72467,0.271933 -0.05349,0.331917 0.32316,0.05154 0.05293,-0.332586 z M 8.5033504,12.909896 c -0.20047,-0.03378 -0.3651422,0.01275 -0.4946616,0.139811 -0.1296045,0.127142 -0.2312636,0.335359 -0.3050908,0.625199 -0.072172,0.283343 -0.079351,0.50838 -0.02115,0.674618 0.058583,0.165882 0.1840262,0.266082 0.3765845,0.300542 0.1929867,0.03454 0.3576466,-0.0145 0.4937787,-0.147278 0.1370473,-0.133397 0.2407342,-0.342449 0.3109797,-0.626354 0.07166,-0.289624 0.078166,-0.514721 0.019773,-0.675571 C 8.8263321,13.03977 8.6995501,12.942959 8.5033504,12.909896 Z m 6.2112616,1.046687 c -0.215008,-0.03623 -0.388599,0.01144 -0.52063,0.143379 -0.13212,0.132026 -0.230757,0.348799 -0.296013,0.650917 -0.0638,0.295383 -0.06109,0.530264 0.0085,0.704119 0.07003,0.173501 0.208664,0.278857 0.415341,0.315844 0.207152,0.03707 0.38028,-0.01328 0.519147,-0.15124 0.139809,-0.138595 0.24057,-0.356355 0.302231,-0.652419 0.06289,-0.301989 0.05938,-0.536916 -0.01027,-0.705087 -0.06842,-0.168401 -0.207909,-0.27005 -0.418353,-0.305513 z m 1.622197,0.273364 c -0.218888,-0.03689 -0.39431,0.01117 -0.526973,0.144385 -0.132753,0.133306 -0.230526,0.352327 -0.293415,0.657675 -0.06149,0.298551 -0.05607,0.536024 0.01665,0.711888 0.07312,0.175512 0.21477,0.282137 0.425218,0.319798 0.210938,0.03775 0.386741,-0.01286 0.526297,-0.152182 0.140506,-0.139958 0.240426,-0.360007 0.299716,-0.659271 0.06048,-0.305243 0.05423,-0.542759 -0.01847,-0.71286 -0.07144,-0.170328 -0.214777,-0.27333 -0.429023,-0.309433 z m 6.793149,1.144743 c -0.235515,-0.03969 -0.420492,0.0097 -0.555694,0.148233 -0.135298,0.138682 -0.229113,0.367174 -0.281522,0.686144 -0.05125,0.31191 -0.034,0.560332 0.05215,0.744695 0.08658,0.184018 0.243023,0.296351 0.469642,0.336906 0.227165,0.04065 0.41206,-0.01143 0.554392,-0.156461 0.143311,-0.145688 0.239364,-0.375388 0.288152,-0.688153 0.04976,-0.318971 0.03153,-0.567417 -0.05438,-0.745682 -0.08458,-0.178476 -0.242195,-0.286833 -0.472736,-0.325682 z m 1.778231,0.299657 c -0.239968,-0.04044 -0.427481,0.0092 -0.563319,0.149223 -0.135936,0.140094 -0.229093,0.370999 -0.278606,0.69356 -0.04842,0.315434 -0.02747,0.566829 0.06233,0.75344 0.09023,0.186269 0.250663,0.300116 0.481616,0.341447 0.231515,0.04143 0.41894,-0.01101 0.561968,-0.157543 0.144017,-0.147194 0.238965,-0.379437 0.284849,-0.695765 0.04679,-0.322594 0.02529,-0.573926 -0.06421,-0.75435 -0.08814,-0.18063 -0.249722,-0.290427 -0.484627,-0.330012 z M 10.002184,13.189886 c -0.061633,0.07569 -0.1520094,0.131601 -0.270789,0.168026 -0.1179151,0.03654 -0.2357795,0.04488 -0.3537903,0.02477 l -0.045439,0.185421 c 0.1069328,0.01834 0.2214042,0.01254 0.3436031,-0.01716 0.1230849,-0.02959 0.2075416,-0.07433 0.2529928,-0.134625 l -0.3124217,1.292676 -0.5294478,-0.09409 -0.04517,0.184373 1.1788669,0.210787 0.04417,-0.185849 -0.4294491,-0.07632 0.3663371,-1.524378 z m 1.538931,0.259573 c -0.06176,0.07642 -0.152944,0.13282 -0.273187,0.169492 -0.119365,0.03679 -0.238987,0.04508 -0.359071,0.02462 l -0.04411,0.187338 c 0.108814,0.01866 0.225019,0.01294 0.348811,-0.01694 0.124693,-0.02976 0.209984,-0.07488 0.255483,-0.135758 l -0.30306,1.30616 -0.538832,-0.09575 -0.04385,0.186305 1.199412,0.21446 0.04281,-0.187811 -0.436679,-0.0776 0.355246,-1.540283 z m 1.56612,0.264157 c -0.06189,0.07716 -0.153887,0.134063 -0.275629,0.170985 -0.120845,0.03704 -0.242271,0.04528 -0.364484,0.02446 l -0.04272,0.189295 c 0.110744,0.01899 0.228727,0.01335 0.35415,-0.0167 0.12634,-0.02993 0.21248,-0.07543 0.258023,-0.136912 l -0.293317,1.319922 -0.548467,-0.09746 -0.04248,0.188275 1.220924,0.218307 0.04139,-0.189813 -0.44452,-0.07899 0.343703,-1.556514 z m 4.868457,0.821165 c -0.06224,0.07949 -0.15634,0.138006 -0.282786,0.175697 -0.1255,0.03782 -0.253047,0.0458 -0.381996,0.02383 l -0.03822,0.195412 c 0.116856,0.02004 0.240886,0.01473 0.371435,-0.01585 0.13152,-0.03045 0.219878,-0.07721 0.265513,-0.140565 l -0.261621,1.36295 -0.578976,-0.102886 -0.03801,0.194439 1.289494,0.230568 0.03678,-0.196077 -0.469353,-0.08341 0.306153,-1.607274 z m 1.682404,0.283771 c -0.06234,0.0803 -0.157314,0.139348 -0.285403,0.177302 -0.127126,0.03808 -0.256675,0.04599 -0.387993,0.02362 l -0.03659,0.197537 c 0.119005,0.02041 0.244568,0.01511 0.37691,-0.01564 0.133331,-0.03062 0.223046,-0.07772 0.2687,-0.141725 l -0.250175,1.377909 -0.589713,-0.104795 -0.0364,0.196582 1.313484,0.234858 0.03512,-0.198256 -0.478094,-0.08496 0.292593,-1.624918 z m 1.713501,0.289017 c -0.06244,0.08112 -0.15875,0.140639 -0.288521,0.178859 -0.128789,0.03835 -0.259942,0.04627 -0.393696,0.02348 l -0.0349,0.199708 c 0.121215,0.02079 0.248798,0.01559 0.382978,-0.01534 0.135185,-0.0308 0.22584,-0.07832 0.271507,-0.142982 l -0.238255,1.39319 -0.600752,-0.106756 -0.03472,0.198772 1.33769,0.239185 0.03339,-0.200481 -0.487079,-0.08656 0.278477,-1.642939 z m 5.33595,0.900017 c -0.06269,0.08369 -0.161783,0.144902 -0.296851,0.183941 -0.134029,0.03918 -0.271656,0.04685 -0.413137,0.02275 l -0.02939,0.20651 c 0.128226,0.02199 0.262202,0.01712 0.402176,-0.01436 0.141038,-0.03134 0.234155,-0.08024 0.279807,-0.146971 l -0.19945,1.441075 -0.635313,-0.112897 -0.02925,0.205634 1.415976,0.253183 0.02774,-0.207461 -0.515618,-0.09163 0.232509,-1.699429 z M 8.4578965,13.090948 c 0.1277044,0.02166 0.2057371,0.09135 0.234113,0.208779 0.029431,0.116959 0.014252,0.296407 -0.04607,0.538865 -0.057992,0.233093 -0.1306968,0.401336 -0.2178081,0.504579 -0.087172,0.103313 -0.193966,0.144008 -0.320089,0.121578 -0.1267315,-0.02254 -0.2053206,-0.09429 -0.2359913,-0.214637 -0.02961,-0.120807 -0.013984,-0.300118 0.046264,-0.537909 0.06176,-0.243758 0.1340261,-0.413537 0.2174352,-0.509951 0.084141,-0.09622 0.1914822,-0.133465 0.3221462,-0.111304 z m 6.2166895,1.054335 c 0.136985,0.02323 0.223307,0.09635 0.258962,0.219044 0.03676,0.122218 0.02848,0.309376 -0.02453,0.562173 -0.05097,0.243057 -0.120201,0.418424 -0.20821,0.525779 -0.08807,0.107432 -0.19994,0.149374 -0.335309,0.1253 -0.136015,-0.02419 -0.223022,-0.09951 -0.261233,-0.225324 -0.0371,-0.126276 -0.02915,-0.313459 0.02404,-0.561366 0.05452,-0.2541 0.124055,-0.430851 0.208414,-0.53105 0.08515,-0.09999 0.197715,-0.138325 0.337866,-0.114556 z m 1.623695,0.275375 c 0.139462,0.02365 0.228011,0.09768 0.26564,0.221756 0.03875,0.123604 0.0329,0.312884 -0.0181,0.568401 -0.04904,0.24568 -0.117825,0.422826 -0.206043,0.53126 -0.08828,0.108512 -0.20149,0.150778 -0.339328,0.126265 -0.138495,-0.02463 -0.227764,-0.100897 -0.26802,-0.22815 -0.03913,-0.127718 -0.03274,-0.31688 0.0185,-0.567448 0.05252,-0.256822 0.120748,-0.435495 0.205331,-0.536687 0.08538,-0.100979 0.199336,-0.139596 0.342021,-0.115397 z m 6.79978,1.153227 c 0.150079,0.02545 0.248238,0.103313 0.29445,0.23326 0.04739,0.129465 0.04987,0.327314 0.0078,0.594308 -0.04045,0.256744 -0.104868,0.441787 -0.193846,0.554763 -0.08904,0.11306 -0.207929,0.15667 -0.356357,0.130273 -0.149126,-0.02652 -0.248164,-0.106796 -0.297313,-0.240142 -0.04797,-0.133815 -0.05074,-0.331726 -0.0081,-0.593521 0.04367,-0.268298 0.108342,-0.454694 0.193764,-0.560059 0.08629,-0.105137 0.206094,-0.144922 0.359633,-0.118882 z m 1.780063,0.301894 c 0.152923,0.02594 0.253672,0.104813 0.302217,0.236311 0.04973,0.131013 0.05462,0.331144 0.01502,0.601167 -0.03808,0.259663 -0.101385,0.446768 -0.19053,0.560938 -0.08921,0.114257 -0.209602,0.158216 -0.360868,0.131315 -0.151975,-0.02703 -0.253649,-0.108367 -0.305215,-0.243324 -0.05037,-0.135427 -0.05554,-0.335628 -0.01531,-0.600385 0.04122,-0.271325 0.104775,-0.459775 0.19039,-0.566237 0.0865,-0.10623 0.207855,-0.146318 0.364301,-0.119785 z m -16.6949198,-2.285728 -0.078523,0.311656 0.2787147,0.04866 0.078125,-0.312246 z m 6.2219458,1.074748 -0.06923,0.324917 0.29907,0.05222 0.06876,-0.325557 z m 1.625239,0.280736 -0.06666,0.328405 0.304504,0.05317 0.06618,-0.329059 z m 6.807016,1.175809 -0.0553,0.343124 0.327805,0.05724 0.05473,-0.343836 z m 1.782163,0.307842 -0.05216,0.347006 0.334049,0.05833 0.05156,-0.347734 z M 9.3864684,15.77011 c -0.2064298,-0.03798 -0.375614,0.0089 -0.508018,0.140054 -0.1324932,0.131223 -0.2356221,0.347168 -0.3097151,0.64929 -0.072438,0.295374 -0.078395,0.530656 -0.017465,0.705328 0.061323,0.174316 0.1909117,0.281271 0.3892465,0.319917 0.1987862,0.03873 0.3679996,-0.01079 0.5072104,-0.147878 0.1401456,-0.137718 0.2454658,-0.355028 0.3158791,-0.651073 0.071826,-0.301984 0.076933,-0.536889 0.015798,-0.705888 -0.059937,-0.169225 -0.1908926,-0.272575 -0.3929359,-0.30975 z m 1.5577166,0.286613 c -0.210116,-0.03866 -0.38146,0.0085 -0.514514,0.140934 -0.133145,0.132486 -0.235532,0.350661 -0.30748,0.656002 -0.07034,0.29853 -0.07381,0.536402 -0.01,0.713088 0.06421,0.176331 0.197034,0.284649 0.398949,0.323993 0.202379,0.03943 0.373744,-0.01041 0.513663,-0.148841 0.140861,-0.139063 0.24546,-0.358648 0.313724,-0.657881 0.06963,-0.305226 0.07222,-0.542712 0.0082,-0.713648 -0.06276,-0.171157 -0.196934,-0.275807 -0.402589,-0.313647 z m 1.585674,0.291758 c -0.213902,-0.03936 -0.387455,0.0081 -0.521162,0.141822 -0.133799,0.133774 -0.235401,0.354224 -0.305114,0.662852 -0.06816,0.301752 -0.06905,0.542269 -0.0023,0.721014 0.06719,0.178392 0.203347,0.288104 0.40894,0.328165 0.20607,0.04015 0.379638,-0.01002 0.520268,-0.149816 0.141579,-0.140434 0.245414,-0.36234 0.311439,-0.664829 0.06734,-0.308537 0.06733,-0.548659 4.19e-4,-0.721574 -0.06567,-0.173133 -0.203164,-0.279112 -0.412529,-0.317634 z m 4.932067,0.907481 c -0.225892,-0.04156 -0.406396,0.0068 -0.542072,0.144542 -0.135771,0.137791 -0.234737,0.365355 -0.297171,0.684266 -0.06105,0.311837 -0.05362,0.56064 0.02271,0.745843 0.07675,0.184856 0.223508,0.298956 0.440759,0.341288 0.217769,0.04243 0.398265,-0.0087 0.541042,-0.152803 0.143749,-0.144714 0.245457,-0.373796 0.304185,-0.686478 0.0599,-0.318902 0.05146,-0.567284 -0.02484,-0.746406 -0.07501,-0.179328 -0.223493,-0.289568 -0.44461,-0.330252 z m 1.705379,0.313783 c -0.230115,-0.04234 -0.413048,0.0064 -0.549383,0.145468 -0.136432,0.139184 -0.234418,0.36922 -0.294221,0.691708 -0.05848,0.315347 -0.04807,0.567035 0.03166,0.754491 0.08015,0.18711 0.230665,0.302745 0.452023,0.345877 0.221891,0.04324 0.40481,-0.0083 0.548307,-0.153822 0.144478,-0.146198 0.244777,-0.377891 0.300866,-0.69412 0.0572,-0.322508 0.04575,-0.573766 -0.03389,-0.755051 -0.07833,-0.181487 -0.230102,-0.293105 -0.455357,-0.334551 z m 1.737426,0.319679 c -0.234457,-0.04314 -0.419879,0.0059 -0.556875,0.146403 -0.137094,0.140605 -0.234045,0.373168 -0.291105,0.699312 -0.0558,0.318933 -0.04229,0.573572 0.04094,0.763333 0.08367,0.189416 0.238054,0.306624 0.463637,0.35058 0.22613,0.04406 0.411533,-0.0078 0.555752,-0.154852 0.145208,-0.147713 0.244491,-0.381987 0.29783,-0.701842 0.0544,-0.326195 0.03982,-0.580394 -0.04329,-0.763894 -0.08177,-0.183696 -0.237385,-0.296811 -0.466895,-0.33904 z m 5.41385,0.996127 c -0.248245,-0.04568 -0.442001,0.0042 -0.580979,0.149175 -0.139081,0.145047 -0.232578,0.385522 -0.280696,0.723134 -0.04706,0.330182 -0.02355,0.594086 0.07096,0.791094 0.09496,0.196671 0.262201,0.318933 0.50121,0.365505 0.239606,0.04669 0.432839,-0.0062 0.579231,-0.158009 0.147405,-0.152453 0.243285,-0.394816 0.287653,-0.726052 C 26.9412,19.692635 26.9165,19.429201 26.8223,19.23874 26.72951,19.048098 26.561607,18.930267 26.318581,18.885551 Z M 7.8420775,15.514086 c -0.062629,0.07682 -0.1533219,0.133604 -0.2723224,0.16964 -0.1181414,0.03616 -0.2360799,0.04296 -0.3534345,0.02114 l -0.048296,0.189739 c 0.1063372,0.01989 0.2209623,0.01524 0.34327,-0.01388 0.1231898,-0.02899 0.2076987,-0.07398 0.2539539,-0.135214 l -0.3314739,1.319504 -0.5264726,-0.101898 -0.048018,0.188695 1.1722614,0.228233 0.047029,-0.19023 -0.4266585,-0.08258 0.3889198,-1.556547 z m 6.2885475,1.158087 c -0.06317,0.07992 -0.157594,0.138682 -0.282699,0.17569 -0.124179,0.03714 -0.249067,0.04369 -0.375068,0.02026 l -0.04272,0.197972 c 0.114181,0.02136 0.235641,0.01704 0.364588,-0.01272 0.129894,-0.02963 0.217849,-0.07617 0.264302,-0.139905 l -0.292367,1.377261 -0.56519,-0.109391 -0.0425,0.196989 1.259269,0.245173 0.04133,-0.198659 -0.458516,-0.08875 0.34257,-1.624698 z m 1.643543,0.302672 c -0.0633,0.08074 -0.158153,0.140112 -0.284874,0.177371 -0.125778,0.0374 -0.253054,0.04377 -0.381366,0.01992 l -0.04118,0.200139 c 0.116277,0.02175 0.240097,0.01762 0.370804,-0.0123 0.131674,-0.02979 0.220534,-0.07674 0.267021,-0.14113 l -0.281547,1.392478 -0.575651,-0.111416 -0.04097,0.199174 1.28265,0.249726 0.03975,-0.200881 -0.467038,-0.09039 0.329746,-1.642654 z m 6.887776,1.26844 c -0.06372,0.08416 -0.162662,0.145704 -0.296247,0.183996 -0.132569,0.03844 -0.267765,0.04448 -0.405987,0.01878 l -0.03435,0.209292 c 0.125268,0.02344 0.256884,0.01973 0.395086,-0.01086 0.139241,-0.03044 0.232381,-0.07901 0.278939,-0.146162 l -0.233527,1.456753 -0.621011,-0.120195 -0.03418,0.208407 1.382997,0.269262 0.03275,-0.21027 -0.503618,-0.09747 0.272844,-1.718494 z m 1.804399,0.332294 c -0.06381,0.08507 -0.163706,0.147195 -0.299115,0.185753 -0.134372,0.03871 -0.271799,0.04464 -0.412678,0.01844 L 23.7221,18.99148 c 0.127679,0.02389 0.261494,0.02032 0.40169,-0.01044 0.141256,-0.03061 0.235408,-0.07962 0.281964,-0.147498 l -0.22023,1.473731 -0.633063,-0.122528 -0.0323,0.210847 1.409925,0.274504 0.03081,-0.212752 -0.513435,-0.09937 0.257087,-1.738529 z M 9.3407843,15.959257 c 0.1315104,0.02435 0.2123441,0.09783 0.2423036,0.221012 0.031044,0.122709 0.016602,0.310188 -0.043875,0.562981 -0.058144,0.243045 -0.1319591,0.418508 -0.2209179,0.525344 -0.089021,0.106912 -0.1985313,0.147609 -0.3284398,0.122447 -0.1305307,-0.02528 -0.2119497,-0.100958 -0.2442726,-0.227266 -0.031233,-0.126765 -0.016601,-0.314625 0.043855,-0.562523 0.061969,-0.2541 0.1356177,-0.430609 0.2207945,-0.53032 0.085931,-0.0995 0.1959994,-0.136584 0.3305522,-0.111675 z m 1.5590777,0.288623 c 0.133864,0.02478 0.216791,0.09918 0.248587,0.223748 0.03289,0.124098 0.02029,0.313622 -0.03836,0.569127 -0.05639,0.245658 -0.129441,0.422968 -0.218638,0.530872 -0.08926,0.107981 -0.200067,0.148983 -0.33232,0.123367 -0.132886,-0.02574 -0.216431,-0.102362 -0.250654,-0.230113 -0.03312,-0.12821 -0.02032,-0.318125 0.03837,-0.568675 0.06016,-0.256812 0.13303,-0.435161 0.218458,-0.535854 0.0862,-0.100475 0.197599,-0.137827 0.334557,-0.112472 z m 1.587094,0.293809 c 0.13628,0.02523 0.221364,0.100556 0.255056,0.226547 0.0348,0.125518 0.02369,0.317052 -0.03305,0.575324 -0.05456,0.248325 -0.126388,0.427602 -0.215819,0.536595 -0.08949,0.109071 -0.201625,0.150384 -0.336287,0.124301 -0.135303,-0.02621 -0.221039,-0.103802 -0.257228,-0.233027 -0.03507,-0.129686 -0.02417,-0.321701 0.03268,-0.574958 0.05827,-0.259581 0.130329,-0.439807 0.216003,-0.541502 0.08646,-0.101472 0.199224,-0.139092 0.338654,-0.11328 z m 4.936685,0.913901 c 0.143938,0.02665 0.235888,0.104897 0.275667,0.235343 0.04093,0.129967 0.03641,0.328123 -0.01413,0.595061 -0.04859,0.256678 -0.118189,0.441776 -0.208277,0.554169 -0.09016,0.112478 -0.206446,0.154748 -0.348742,0.127186 -0.142967,-0.02769 -0.23568,-0.108339 -0.278174,-0.24219 -0.04134,-0.134314 -0.03614,-0.33282 0.01472,-0.594553 0.05212,-0.268246 0.121037,-0.454428 0.207417,-0.559248 0.08721,-0.104585 0.204262,-0.143029 0.351519,-0.115768 z m 1.707049,0.316016 c 0.146634,0.02715 0.241016,0.106418 0.282964,0.238416 0.04311,0.131519 0.04081,0.331953 -0.0075,0.601905 -0.04644,0.259585 -0.115053,0.446736 -0.205346,0.560311 -0.09036,0.113659 -0.208102,0.156258 -0.353088,0.128176 -0.145667,-0.02821 -0.240852,-0.10993 -0.285594,-0.245393 -0.04357,-0.135928 -0.04057,-0.336722 0.0081,-0.601404 0.0499,-0.27126 0.117811,-0.459485 0.204416,-0.56539 0.08745,-0.105665 0.205997,-0.144392 0.356011,-0.116621 z m 1.739165,0.321962 c 0.149407,0.02766 0.246296,0.107977 0.290488,0.241564 0.04537,0.133105 0.04537,0.335868 -5.81e-4,0.608903 -0.04419,0.262556 -0.111776,0.451804 -0.202265,0.566585 -0.09056,0.114867 -0.209785,0.157799 -0.357537,0.129181 -0.148445,-0.02875 -0.246179,-0.111561 -0.293246,-0.248674 -0.04588,-0.137578 -0.04562,-0.340799 8.08e-4,-0.608495 0.04758,-0.274341 0.1149,-0.464567 0.201722,-0.571579 0.08768,-0.106768 0.207763,-0.145781 0.360611,-0.117485 z m 5.419521,1.003285 c 0.158214,0.02929 0.26311,0.112905 0.314517,0.251482 0.05263,0.138091 0.05959,0.348074 0.02127,0.630778 -0.03686,0.271879 -0.100545,0.467798 -0.191565,0.586353 -0.09109,0.118646 -0.214995,0.16261 -0.371539,0.132289 -0.157271,-0.03046 -0.26315,-0.116717 -0.317693,-0.259017 -0.05331,-0.142768 -0.06047,-0.353339 -0.02141,-0.630491 0.04003,-0.284005 0.103894,-0.480769 0.19132,-0.591244 0.08834,-0.110216 0.213244,-0.150113 0.375095,-0.12015 z m -17.2278313,-2.61974 -0.078772,0.32491 0.2870517,0.05463 0.078348,-0.325548 z m 1.5603573,0.293944 -0.07645,0.328387 0.292214,0.05562 0.076,-0.329039 z m 1.588463,0.299238 -0.07402,0.331937 0.297515,0.05662 0.07356,-0.332602 z m 4.941388,0.930871 -0.06613,0.343047 0.314316,0.05982 0.06561,-0.343757 z m 1.708831,0.321913 -0.06327,0.346914 0.320234,0.06095 0.06273,-0.347638 z m 1.741063,0.327986 -0.0603,0.350865 0.32632,0.06211 0.05973,-0.351606 z m 5.425965,1.022156 -0.05059,0.363262 0.345658,0.06579 0.04995,-0.364054 z M 7.1879646,18.149328 c -0.2052592,-0.04107 -0.3745852,0.0047 -0.5086549,0.137568 -0.1341604,0.132941 -0.2404723,0.353375 -0.3190617,0.661912 -0.076836,0.301653 -0.086441,0.542491 -0.028404,0.721987 0.058438,0.179138 0.1861165,0.289584 0.3833044,0.331266 0.1976406,0.04178 0.3670505,-0.0067 0.5080124,-0.145573 0.1419041,-0.139526 0.250312,-0.36092 0.3251283,-0.663299 0.076315,-0.308436 0.085163,-0.549339 0.026819,-0.723015 -0.057145,-0.173891 -0.1862425,-0.280647 -0.3871435,-0.320846 z m 1.5489966,0.309944 c -0.2089511,-0.04181 -0.3804523,0.0043 -0.515195,0.1384 -0.1348347,0.134236 -0.2404334,0.356982 -0.316919,0.668861 -0.074781,0.304929 -0.08193,0.548463 -0.021027,0.730068 0.061307,0.181248 0.1922088,0.293128 0.3929818,0.335569 0.2012374,0.04254 0.3728169,-0.0062 0.5145117,-0.146493 0.1426434,-0.140906 0.2503629,-0.364653 0.3230701,-0.670342 0.074161,-0.311803 0.080519,-0.555399 0.019353,-0.731102 -0.05995,-0.175914 -0.192257,-0.284039 -0.3967756,-0.324961 z m 1.5769958,0.315545 c -0.212742,-0.04257 -0.3864709,0.0038 -0.5218892,0.139241 -0.1355116,0.135557 -0.2403539,0.360662 -0.3146463,0.675954 -0.072639,0.308275 -0.077238,0.554565 -0.013377,0.738325 0.06427,0.183405 0.1984933,0.296755 0.4029502,0.339974 0.2049333,0.04332 0.3787343,-0.0058 0.5211643,-0.147421 0.143386,-0.142313 0.250374,-0.368463 0.320882,-0.677534 0.07192,-0.315242 0.07569,-0.561589 0.01161,-0.739365 -0.06285,-0.177982 -0.198458,-0.287508 -0.406694,-0.329174 z m 4.906348,0.981725 c -0.224756,-0.04497 -0.405492,0.0022 -0.54295,0.141807 -0.137556,0.13968 -0.239848,0.372167 -0.306986,0.698143 -0.06565,0.318755 -0.06202,0.573682 0.01133,0.764207 0.07377,0.190176 0.218576,0.308152 0.434712,0.353839 0.216656,0.0458 0.397891,-0.0041 0.542545,-0.150171 0.145634,-0.146705 0.250144,-0.380375 0.313476,-0.70004 0.06459,-0.326015 0.06002,-0.580989 -0.0134,-0.765268 -0.07213,-0.184472 -0.218713,-0.298495 -0.438722,-0.342517 z m 1.696936,0.339544 c -0.228989,-0.04582 -0.412176,0.0017 -0.550318,0.142679 -0.13824,0.141109 -0.239582,0.376164 -0.304128,0.705859 -0.06312,0.322404 -0.05653,0.580341 0.02019,0.773227 0.07716,0.192538 0.225709,0.312133 0.445962,0.358691 0.220788,0.04667 0.404022,-0.0037 0.549422,-0.151232 0.146387,-0.148229 0.250426,-0.38442 0.311159,-0.707776 0.06194,-0.329765 0.05438,-0.587745 -0.02238,-0.774293 -0.07544,-0.186736 -0.225753,-0.302302 -0.44991,-0.347155 z m 5.287276,1.057946 c -0.242428,-0.04851 -0.43334,-1.33e-4 -0.57354,0.145339 -0.140304,0.145579 -0.238457,0.388678 -0.294545,0.730042 -0.05485,0.333851 -0.03871,0.60124 0.04887,0.801551 0.08803,0.199972 0.248549,0.324672 0.481884,0.373995 0.233916,0.04945 0.42486,-0.0019 0.572513,-0.154191 0.148663,-0.152997 0.249125,-0.397487 0.301371,-0.732421 0.05328,-0.341536 0.03604,-0.608955 -0.05141,-0.802637 -0.08606,-0.193853 -0.247813,-0.31419 -0.485142,-0.361678 z m 1.831106,0.366391 c -0.247172,-0.04946 -0.44079,-7.82e-4 -0.581679,0.146241 -0.140992,0.147133 -0.238443,0.392935 -0.291466,0.738367 -0.05186,0.337842 -0.0318,0.608632 0.05965,0.811539 0.09191,0.20257 0.256677,0.329061 0.494632,0.379361 0.238554,0.05043 0.4322,-0.0012 0.580606,-0.155198 0.149425,-0.154654 0.248724,-0.402004 0.297893,-0.740978 0.05014,-0.345642 0.02942,-0.616356 -0.06184,-0.812532 -0.08985,-0.196342 -0.25582,-0.318381 -0.497799,-0.3668 z m 1.867135,0.373601 c -0.252056,-0.05044 -0.448943,-0.0016 -0.590519,0.147051 -0.141682,0.148718 -0.2374,0.397484 -0.287226,0.74708 -0.04873,0.341928 -0.0256,0.615995 0.06987,0.821561 0.09593,0.205233 0.265575,0.333666 0.508289,0.384971 0.243331,0.05144 0.43975,-5.56e-4 0.58891,-0.156213 0.150189,-0.156348 0.248258,-0.406623 0.294217,-0.749732 0.04686,-0.349846 0.02253,-0.623934 -0.07268,-0.822665 -0.09377,-0.19889 -0.264096,-0.322677 -0.510863,-0.372053 z m -13.997041,-2.77076 c -0.06424,0.08117 -0.159227,0.139887 -0.284588,0.176456 -0.124441,0.03672 -0.249221,0.04255 -0.374549,0.01722 l -0.04555,0.201821 c 0.113568,0.02309 0.234794,0.01995 0.363878,-0.0092 0.130028,-0.02896 0.218903,-0.0756 0.266218,-0.140377 l -0.312852,1.407832 -0.562567,-0.118154 -0.04531,0.200832 1.252489,0.26455 0.04417,-0.202564 -0.456069,-0.09579 0.366609,-1.660245 z m 1.635398,0.327507 c -0.06438,0.08201 -0.160249,0.141264 -0.287239,0.178074 -0.126051,0.03696 -0.252791,0.04269 -0.380434,0.01689 l -0.04404,0.204069 c 0.115669,0.02351 0.238828,0.02052 0.369684,-0.0087 0.131818,-0.02911 0.221185,-0.07625 0.268544,-0.141697 l -0.302213,1.423647 -0.57262,-0.120267 -0.04382,0.203099 1.275916,0.269498 0.04262,-0.204868 -0.464608,-0.09758 0.353999,-1.678905 z m 5.091522,1.019635 c -0.06475,0.08463 -0.162924,0.145653 -0.295038,0.183203 -0.13112,0.03771 -0.264513,0.04298 -0.3995,0.0157 l -0.03911,0.211112 c 0.122333,0.02487 0.251607,0.02232 0.388048,-0.0074 0.137461,-0.02955 0.230148,-0.07787 0.277601,-0.145438 l -0.267482,1.473235 -0.606341,-0.127349 -0.03892,0.210202 1.350737,0.285302 0.03757,-0.212095 -0.491717,-0.103274 0.312847,-1.737403 z m 1.762206,0.352902 c -0.06486,0.08554 -0.164447,0.147052 -0.298352,0.184854 -0.132894,0.03797 -0.268009,0.04319 -0.405585,0.01539 l -0.03732,0.213565 c 0.124682,0.02535 0.256106,0.02296 0.394505,-0.0069 0.139436,-0.0297 0.233126,-0.07846 0.280598,-0.146761 l -0.254898,1.490516 -0.618085,-0.129815 -0.03715,0.212678 1.376508,0.290745 0.03574,-0.214614 -0.501279,-0.105282 0.297942,-1.757784 z M 7.1395802,18.342053 c 0.130765,0.02632 0.2101223,0.102853 0.2380861,0.229287 0.029053,0.125964 0.01174,0.317763 -0.052496,0.575953 -0.06176,0.248238 -0.1379867,0.426665 -0.2283615,0.535113 -0.09044,0.108524 -0.2003958,0.149481 -0.3295567,0.122334 -0.1297781,-0.02728 -0.209681,-0.106078 -0.2399486,-0.235748 -0.029172,-0.130128 -0.011368,-0.32179 0.052778,-0.574964 0.065749,-0.259503 0.1415375,-0.439519 0.2280261,-0.540702 0.087236,-0.100954 0.1976839,-0.1382 0.3314726,-0.111273 z m 1.55033,0.312025 c 0.1331216,0.02679 0.2145702,0.104292 0.2443558,0.232179 0.030887,0.127417 0.015391,0.321344 -0.04705,0.582349 -0.060036,0.250951 -0.1355308,0.431287 -0.2261629,0.540833 -0.090696,0.109625 -0.2019552,0.150887 -0.333464,0.123247 -0.1321353,-0.02777 -0.2141617,-0.107579 -0.2463165,-0.238758 -0.031046,-0.131637 -0.015448,-0.325517 0.046965,-0.581444 0.063973,-0.262318 0.1394117,-0.444156 0.2261678,-0.546349 0.087518,-0.10196 0.1993061,-0.139469 0.3355048,-0.112057 z m 1.5783858,0.317671 c 0.135543,0.02728 0.219145,0.105767 0.250815,0.23514 0.03278,0.1289 0.01917,0.325003 -0.0414,0.588883 -0.05824,0.253722 -0.132962,0.436008 -0.223844,0.546674 -0.09095,0.110747 -0.20354,0.15232 -0.3374609,0.124173 C 9.7818508,20.438338 9.6976365,20.3575 9.6635313,20.22478 c -0.032984,-0.133181 -0.01926,-0.329241 0.041348,-0.58798 0.06212,-0.265193 0.1367694,-0.448977 0.2237886,-0.5522 0.087795,-0.102986 0.2009551,-0.140761 0.3396281,-0.112851 z m 4.91088,0.988381 c 0.143214,0.02882 0.233683,0.110416 0.271399,0.244449 0.03887,0.133556 0.03136,0.336475 -0.0231,0.60936 -0.05237,0.262403 -0.124527,0.450789 -0.216124,0.564957 -0.09166,0.114253 -0.20844,0.156785 -0.35001,0.12703 -0.142236,-0.02989 -0.233426,-0.113972 -0.273796,-0.251532 -0.03921,-0.138023 -0.0311,-0.340826 0.02361,-0.608372 0.05607,-0.274197 0.127661,-0.464157 0.215438,-0.570596 0.0886,-0.106189 0.206067,-0.144784 0.352583,-0.115296 z m 1.698576,0.341861 c 0.145917,0.02937 0.238818,0.112046 0.278691,0.247704 0.04104,0.13518 0.03573,0.340473 -0.01653,0.616494 -0.05025,0.265426 -0.121454,0.455935 -0.213274,0.57132 -0.09189,0.115471 -0.210125,0.158332 -0.354391,0.128011 -0.144943,-0.03046 -0.238605,-0.115675 -0.28121,-0.254923 -0.04142,-0.139712 -0.03549,-0.344894 0.01709,-0.615507 0.05389,-0.277332 0.124497,-0.46941 0.212516,-0.576966 0.08886,-0.107301 0.207828,-0.146177 0.357107,-0.116133 z m 5.29263,1.065214 c 0.154501,0.0311 0.25517,0.117194 0.301979,0.257959 0.04802,0.140285 0.04934,0.352935 0.0043,0.638795 -0.04331,0.274912 -0.110884,0.47218 -0.203323,0.591372 -0.09251,0.119286 -0.215341,0.163163 -0.368173,0.131042 -0.153543,-0.03227 -0.255105,-0.121056 -0.304896,-0.265613 -0.04856,-0.145022 -0.05014,-0.357774 -0.0045,-0.638007 0.04674,-0.287164 0.114588,-0.485789 0.203289,-0.596838 0.08959,-0.110779 0.213299,-0.150521 0.371351,-0.11871 z m 1.833045,0.368925 c 0.157531,0.03171 0.260957,0.119002 0.310245,0.261552 0.05052,0.142068 0.05438,0.357319 0.01196,0.646611 -0.0408,0.278221 -0.107199,0.477812 -0.199824,0.59833 -0.0927,0.120612 -0.217136,0.164839 -0.372995,0.132082 -0.15658,-0.03291 -0.260946,-0.122947 -0.313306,-0.269359 -0.05112,-0.146878 -0.05523,-0.36224 -0.01215,-0.645828 0.04415,-0.290594 0.110817,-0.491531 0.19973,-0.603796 0.08982,-0.111988 0.215186,-0.152026 0.376335,-0.119592 z m 1.869158,0.376193 c 0.160651,0.03233 0.266924,0.120859 0.31878,0.265237 0.0531,0.143895 0.05962,0.361808 0.01993,0.654612 -0.03818,0.28161 -0.103344,0.483578 -0.196146,0.605451 -0.09287,0.121968 -0.21896,0.16655 -0.377934,0.133137 -0.159708,-0.03357 -0.266971,-0.124889 -0.321992,-0.273202 -0.05376,-0.14878 -0.06052,-0.366813 -0.02007,-0.653836 0.04145,-0.294103 0.106874,-0.497406 0.195991,-0.610912 0.09004,-0.113224 0.217106,-0.153562 0.381444,-0.120487 z m -19.019514,-3.243035 -0.083606,0.331827 0.2854077,0.05899 0.083191,-0.33249 z m 1.551531,0.317524 -0.081324,0.335437 0.2905763,0.06006 0.080891,-0.336114 z m 1.5796776,0.323284 -0.078945,0.339125 0.2958864,0.06115 0.07849,-0.339815 z m 4.9153454,1.005937 -0.07118,0.35067 0.312718,0.06463 0.07067,-0.351407 z m 1.700276,0.347965 -0.06837,0.35469 0.318652,0.06586 0.06784,-0.355444 z m 5.298448,1.084339 -0.05919,0.367304 0.337495,0.06975 0.05859,-0.368111 z m 1.835243,0.375587 -0.05587,0.371703 0.344149,0.07113 0.05524,-0.372529 z m 1.871496,0.383005 -0.0524,0.376206 0.351002,0.07254 0.05174,-0.37705 z M 6.4985366,20.895451 c -0.2077308,-0.04504 -0.3795971,7.53e-4 -0.516063,0.136684 -0.1365597,0.136023 -0.2452293,0.362544 -0.3263744,0.681114 -0.079339,0.311479 -0.09027,0.560815 -0.032369,0.747458 0.058312,0.186287 0.1870017,0.302742 0.3865794,0.348364 0.2000434,0.04573 0.3720472,-0.0028 0.5155537,-0.144984 0.1444624,-0.142787 0.2553803,-0.370792 0.3326514,-0.683092 0.078814,-0.318537 0.088829,-0.56748 0.030558,-0.748071 C 6.8320201,21.052135 6.7018648,20.93954 6.4985366,20.895451 Z m 4.7909354,1.03885 c -0.21944,-0.04758 -0.398184,-9.71e-4 -0.536755,0.139101 -0.13867,0.140172 -0.245044,0.37416 -0.319457,0.703593 -0.07276,0.322134 -0.07586,0.580273 -0.0088,0.77384 0.06744,0.193215 0.206391,0.314456 0.417348,0.36268 0.211461,0.04834 0.390327,-0.0011 0.536127,-0.147684 0.146778,-0.147205 0.255465,-0.382831 0.325983,-0.705902 0.07192,-0.329489 0.07399,-0.587209 0.0067,-0.774457 -0.06598,-0.187433 -0.206344,-0.304594 -0.421146,-0.351171 z m 1.656758,0.359246 c -0.223565,-0.04848 -0.405149,-0.0017 -0.544427,0.139824 -0.139378,0.14161 -0.244891,0.378195 -0.316863,0.711409 -0.07038,0.325843 -0.07066,0.587049 -3.9e-4,0.783031 0.0707,0.195633 0.213716,0.31865 0.428683,0.36779 0.215486,0.04926 0.396751,-5.24e-4 0.543322,-0.1486 0.147557,-0.148739 0.255405,-0.387017 0.323472,-0.713839 0.06942,-0.333303 0.06864,-0.594082 -0.0018,-0.783653 C 13.309052,22.459758 13.165074,22.341 12.94623,22.293547 Z m 5.161234,1.119143 c -0.236656,-0.05132 -0.425383,-0.0036 -0.566795,0.142414 -0.141515,0.146107 -0.244126,0.390831 -0.308118,0.735912 -0.06258,0.337483 -0.05375,0.608326 0.02696,0.811909 0.08115,0.203241 0.23533,0.331442 0.463036,0.383494 0.228274,0.05218 0.417103,0.0015 0.566003,-0.151398 0.14991,-0.153535 0.254915,-0.40013 0.314972,-0.738727 0.06124,-0.345273 0.05125,-0.61566 -0.02949,-0.812536 -0.07938,-0.197038 -0.234883,-0.320832 -0.46656,-0.371068 z m 1.787466,0.387588 c -0.241277,-0.05232 -0.432658,-0.0043 -0.574784,0.143257 -0.142231,0.14767 -0.243759,0.39523 -0.304855,0.74445 -0.05975,0.341543 -0.04764,0.615751 0.03679,0.821991 0.08489,0.205902 0.243181,0.335956 0.475386,0.389037 0.232788,0.05321 0.424269,0.0022 0.573951,-0.152347 0.150699,-0.155202 0.25464,-0.404697 0.311789,-0.747403 0.05827,-0.349451 0.04496,-0.623192 -0.03945,-0.822622 -0.08302,-0.199586 -0.242619,-0.325144 -0.478826,-0.376363 z m 5.577199,1.209341 c -0.255982,-0.05551 -0.456248,-0.0067 -0.60052,0.145712 -0.144382,0.152564 -0.242274,0.409027 -0.2939,0.771256 -0.0505,0.354308 -0.02777,0.639106 0.06866,0.853723 0.0969,0.21429 0.268876,0.350317 0.515409,0.406673 0.247172,0.0565 0.447027,0.0045 0.599061,-0.155241 0.153079,-0.160428 0.253433,-0.419033 0.301069,-0.774664 0.04857,-0.362587 0.0245,-0.646886 -0.07172,-0.854366 -0.09475,-0.207614 -0.267436,-0.338749 -0.518059,-0.393093 z M 8.0519891,21.26279 c -0.065179,0.0816 -0.1600619,0.140648 -0.2840745,0.176532 -0.1231126,0.03604 -0.2456406,0.04035 -0.3680062,0.01356 l -0.05009,0.204397 c 0.1108815,0.02441 0.229962,0.02234 0.3574332,-0.006 0.1283946,-0.02813 0.2169659,-0.07502 0.2651005,-0.140169 L 7.6285309,22.933755 7.0793868,22.809 7.0295548,23.012399 8.252534,23.291755 8.301289,23.086592 7.8556889,22.985361 8.258866,21.307684 Z m 1.5967786,0.34652 c -0.065334,0.08245 -0.1610963,0.142035 -0.28671,0.178148 -0.1246976,0.03628 -0.2491454,0.04045 -0.3737671,0.01317 l -0.048664,0.206687 c 0.1129283,0.02486 0.2338987,0.02295 0.3631107,-0.0055 0.1301522,-0.02827 0.2196358,-0.07556 0.2678319,-0.141395 L 9.2367613,23.299097 8.6773988,23.172021 8.6289798,23.377729 9.874359,23.662201 9.921655,23.454691 9.4681559,23.35168 9.859466,21.655034 Z m 4.9709213,1.078749 c -0.06576,0.0851 -0.163819,0.146463 -0.294472,0.183276 -0.129682,0.03699 -0.260647,0.04062 -0.392424,0.01177 l -0.04401,0.213864 c 0.11942,0.02629 0.246815,0.02499 0.38151,-0.0039 0.135693,-0.02867 0.227581,-0.07733 0.275924,-0.1453 l -0.301082,1.489095 -0.59134,-0.134341 -0.0438,0.212947 1.317811,0.301018 0.04252,-0.214875 -0.479904,-0.109024 0.352526,-1.756129 z m 1.720336,0.373334 c -0.06589,0.08601 -0.16489,0.147966 -0.297305,0.185019 -0.131425,0.03723 -0.264533,0.0407 -0.398833,0.0113 l -0.04232,0.216365 c 0.121709,0.0268 0.251215,0.02567 0.387831,-0.0033 0.137633,-0.0288 0.230503,-0.0779 0.278882,-0.146617 l -0.289209,1.506668 -0.603223,-0.137041 -0.04213,0.21547 1.34382,0.306958 0.04079,-0.217442 -0.48922,-0.111141 0.338455,-1.77686 z m 5.363708,1.163988 c -0.06624,0.0889 -0.16865,0.152565 -0.306622,0.190347 -0.136924,0.03797 -0.276339,0.04102 -0.418656,0.0099 l -0.0368,0.224218 c 0.128984,0.0284 0.264697,0.02777 0.407381,-0.0016 0.143759,-0.02919 0.240187,-0.07957 0.288626,-0.150609 l -0.250379,1.561873 -0.639598,-0.145304 -0.03664,0.223398 1.424639,0.325419 0.03513,-0.225513 -0.518853,-0.117872 0.292451,-1.841982 z m 1.858819,0.403386 c -0.06634,0.0899 -0.169774,0.154197 -0.309695,0.192228 -0.138851,0.03822 -0.280646,0.04109 -0.425797,0.0093 l -0.03479,0.226959 c 0.131555,0.02896 0.269615,0.02855 0.414429,-9.67e-4 0.145911,-0.02932 0.243419,-0.08017 0.29186,-0.152024 l -0.236283,1.581151 -0.652457,-0.148225 -0.03465,0.226166 1.453378,0.331984 0.03307,-0.228332 -0.529332,-0.120254 0.275749,-1.864725 z M 6.4484651,21.094895 c 0.1323451,0.02886 0.2124824,0.108637 0.2401979,0.239922 0.028822,0.130818 0.01035,0.329254 -0.055987,0.595889 -0.063783,0.25637 -0.1420018,0.440721 -0.2340996,0.551945 -0.092166,0.111305 -0.2036574,0.151909 -0.3343864,0.12219 -0.1313505,-0.02986 -0.2120294,-0.112015 -0.2420512,-0.24671 -0.028909,-0.13515 -0.0098,-0.333912 0.056434,-0.595343 0.06789,-0.267954 0.1455545,-0.453453 0.2336678,-0.557178 0.088868,-0.103478 0.2008231,-0.14024 0.3362245,-0.110715 z m 4.7952119,1.045634 c 0.139822,0.03049 0.226596,0.113452 0.260114,0.249501 0.03467,0.135578 0.02156,0.340863 -0.03903,0.616653 -0.05826,0.265195 -0.133679,0.455848 -0.226568,0.570604 -0.09296,0.114842 -0.208584,0.156361 -0.346765,0.124948 -0.138832,-0.03156 -0.226252,-0.117038 -0.262284,-0.25668 -0.03488,-0.1401 -0.02195,-0.345931 0.03874,-0.616315 0.0622,-0.277107 0.13786,-0.468691 0.226801,-0.575659 0.08974,-0.106708 0.205946,-0.144244 0.348992,-0.113052 z m 1.658308,0.361607 c 0.142455,0.03106 0.23158,0.11514 0.267168,0.252851 0.03675,0.137238 0.02572,0.34494 -0.03278,0.623919 -0.05626,0.268268 -0.130792,0.461083 -0.223931,0.577066 -0.09321,0.116071 -0.210278,0.157904 -0.351085,0.125894 -0.141469,-0.03216 -0.231277,-0.1188 -0.269454,-0.260168 -0.03701,-0.141827 -0.02616,-0.350089 0.03252,-0.623591 0.06014,-0.280294 0.134905,-0.474026 0.224111,-0.58212 0.09002,-0.10783 0.207712,-0.14563 0.353449,-0.113851 z m 5.166299,1.126551 c 0.150817,0.03289 0.247448,0.120473 0.289698,0.263408 0.04345,0.142458 0.03964,0.357854 -0.01206,0.646839 -0.04971,0.277917 -0.121761,0.477406 -0.215606,0.59723 -0.09392,0.119918 -0.215525,0.162719 -0.364675,0.128812 -0.149844,-0.03407 -0.247282,-0.124368 -0.29236,-0.271163 -0.04386,-0.147258 -0.03928,-0.36305 0.01283,-0.646336 0.0534,-0.290294 0.124728,-0.490863 0.214694,-0.602481 0.09083,-0.111337 0.213194,-0.149952 0.367479,-0.116309 z m 1.789304,0.390172 c 0.153768,0.03353 0.253064,0.122346 0.297694,0.267106 0.04585,0.144283 0.04447,0.36233 -0.0048,0.654807 -0.04734,0.281283 -0.118304,0.483134 -0.212367,0.604295 -0.09414,0.121257 -0.217331,0.16439 -0.369427,0.129813 -0.152802,-0.03474 -0.252951,-0.126325 -0.300495,-0.275018 -0.04631,-0.149155 -0.04462,-0.367717 0.0051,-0.654415 0.05095,-0.293781 0.121649,-0.496595 0.211854,-0.609439 0.09109,-0.112556 0.215086,-0.15145 0.372387,-0.117149 z m 5.583207,1.217462 c 0.163162,0.03558 0.270987,0.128278 0.323291,0.278787 0.05358,0.150031 0.0596,0.376311 0.01847,0.679766 -0.03957,0.291869 -0.106424,0.501256 -0.201078,0.62661 -0.09473,0.125457 -0.22293,0.169615 -0.384409,0.132905 -0.16222,-0.03688 -0.271047,-0.132524 -0.326544,-0.287198 -0.05421,-0.155137 -0.06039,-0.382087 -0.01847,-0.679516 0.04295,-0.304747 0.110003,-0.514934 0.200875,-0.631619 0.09181,-0.11638 0.220967,-0.15613 0.38787,-0.119735 z M 6.155627,21.63741 l -0.086335,0.342659 0.2888632,0.06462 0.085911,-0.343361 z m 4.799129,1.063416 -0.07903,0.354397 0.305265,0.06828 0.07855,-0.355147 z m 1.659815,0.36779 -0.07638,0.358485 0.311043,0.06958 0.07588,-0.359251 z m 5.171498,1.145927 -0.06772,0.371312 0.329397,0.07368 0.06715,-0.372132 z m 1.791282,0.396922 -0.06458,0.375786 0.335878,0.07513 0.06398,-0.376626 z m 5.589965,1.238653 -0.0543,0.389856 0.356511,0.07975 0.05362,-0.390758 z M 7.3736442,24.103828 c -0.2141634,-0.05017 -0.3907189,-0.0051 -0.5303939,0.135478 -0.1397736,0.140659 -0.2504074,0.377072 -0.3320388,0.709933 -0.079822,0.325484 -0.089585,0.586807 -0.028843,0.78339 0.061167,0.19623 0.1945127,0.319755 0.4003276,0.370493 0.2063068,0.05086 0.3830505,0.0029 0.5299865,-0.144164 C 7.5605952,25.811257 7.6734254,25.57369 7.7510697,25.247243 7.830257,24.914309 7.839132,24.652919 7.7779969,24.462729 7.7181195,24.272362 7.5832808,24.15294 7.3736442,24.103828 Z m 1.6168809,0.378791 c -0.2181791,-0.05111 -0.3971017,-0.0058 -0.5375067,0.136235 -0.1405051,0.142105 -0.25036,0.381156 -0.329698,0.717861 -0.077583,0.329254 -0.084667,0.593703 -0.020806,0.792756 0.064292,0.198703 0.2011491,0.323948 0.4108682,0.375648 0.2102252,0.05183 0.389331,0.0036 0.537062,-0.145019 0.1487158,-0.149243 0.2607923,-0.389497 0.3361342,-0.719757 0.076836,-0.336811 0.082996,-0.601322 0.018785,-0.793889 -0.062932,-0.192737 -0.201266,-0.313801 -0.4148387,-0.363835 z m 5.0366239,1.179944 c -0.230929,-0.0541 -0.417308,-0.008 -0.559919,0.13853 -0.142716,0.14663 -0.249928,0.393948 -0.32176,0.742713 -0.07025,0.341085 -0.06866,0.615351 0.0052,0.822177 0.07433,0.206484 0.222403,0.337154 0.444524,0.391912 0.222674,0.05489 0.409682,0.0059 0.55982,-0.14751 0.151146,-0.154068 0.260655,-0.402751 0.328457,-0.74498 0.06914,-0.348981 0.0665,-0.6233 -0.0076,-0.823342 -0.07275,-0.200193 -0.222689,-0.326538 -0.448759,-0.3795 z m 1.744176,0.408613 c -0.235429,-0.05516 -0.42442,-0.0088 -0.567771,0.139303 -0.143457,0.148203 -0.249679,0.398401 -0.318783,0.751374 -0.06758,0.345212 -0.06288,0.622907 0.01459,0.832452 0.07792,0.209206 0.22997,0.341779 0.456471,0.397616 0.22707,0.05598 0.416229,0.0066 0.567173,-0.148502 0.151963,-0.155745 0.260973,-0.407252 0.326036,-0.75366 0.06634,-0.353226 0.06054,-0.630971 -0.01708,-0.833626 -0.07625,-0.2028 -0.230158,-0.330962 -0.460639,-0.384957 z m 5.441676,1.274836 c -0.249747,-0.05851 -0.446984,-0.01136 -0.592565,0.141647 -0.145692,0.153127 -0.248574,0.412372 -0.308742,0.778573 -0.05885,0.358192 -0.04402,0.646681 0.04497,0.864797 0.08947,0.217788 0.254255,0.356378 0.494701,0.415653 0.241068,0.05943 0.438468,0.0091 0.591853,-0.151179 0.154429,-0.161002 0.259698,-0.421858 0.315783,-0.781405 0.05718,-0.366583 0.04112,-0.655109 -0.04786,-0.866001 -0.08753,-0.211015 -0.253629,-0.344801 -0.498145,-0.402085 z m 1.887127,0.442103 c -0.25481,-0.0597 -0.454943,-0.01229 -0.601269,0.142434 -0.146439,0.154841 -0.24857,0.417126 -0.305491,0.78795 -0.05568,0.362728 -0.0367,0.655115 0.05642,0.876235 0.0936,0.220795 0.262918,0.361501 0.5083,0.421993 0.246023,0.06065 0.446316,0.01004 0.600518,-0.152084 0.155255,-0.162833 0.259298,-0.426914 0.312118,-0.791058 0.05385,-0.371253 0.03409,-0.663551 -0.05895,-0.87733 -0.09157,-0.213894 -0.262162,-0.349694 -0.511643,-0.40814 z M 5.7715693,23.759851 c -0.066282,0.08288 -0.1613093,0.14197 -0.2855564,0.177391 -0.1233533,0.0356 -0.2461545,0.03906 -0.3677776,0.0103 l -0.053035,0.208356 c 0.110207,0.0262 0.2294169,0.02546 0.3569968,-0.0021 0.1284993,-0.02744 0.2170399,-0.07413 0.2660662,-0.14035 l -0.365156,1.453582 -0.5457742,-0.133741 -0.052765,0.207352 1.21549,0.299425 0.051714,-0.20918 -0.4424767,-0.108429 0.4283238,-1.71425 z m 4.8516847,1.137504 c -0.06677,0.08555 -0.164948,0.146204 -0.29415,0.182288 -0.128254,0.03627 -0.256572,0.03935 -0.3851647,0.0089 l -0.048668,0.215635 c 0.1165287,0.0277 0.2411727,0.02743 0.3741357,-5.39e-4 0.133935,-0.02779 0.225724,-0.07563 0.274951,-0.144006 l -0.334407,1.504826 -0.577348,-0.141478 -0.04844,0.214691 1.285595,0.316695 0.04724,-0.216646 -0.468185,-0.114728 0.391881,-1.774699 z m 1.678803,0.393605 c -0.06692,0.08648 -0.166048,0.147706 -0.296982,0.184015 -0.129969,0.0365 -0.26037,0.0394 -0.391419,0.0084 l -0.04708,0.218171 c 0.118758,0.02823 0.245456,0.02817 0.380304,7.5e-5 0.135839,-0.02791 0.228171,-0.07628 0.277451,-0.145407 l -0.323238,1.522685 -0.588036,-0.144098 -0.04687,0.21725 1.310471,0.322823 0.04562,-0.21925 -0.477255,-0.116951 0.378641,-1.795772 z m 5.23333,1.226983 c -0.06734,0.08939 -0.168949,0.152514 -0.305346,0.189509 -0.135374,0.0372 -0.272839,0.03942 -0.411695,0.0066 l -0.04189,0.226136 c 0.125843,0.02992 0.25905,0.03051 0.399849,0.0021 0.141853,-0.02825 0.237715,-0.07786 0.287112,-0.149333 l -0.286649,1.578805 -0.62389,-0.152883 -0.04172,0.225289 1.390064,0.34243 0.04029,-0.227435 -0.506104,-0.124021 0.33528,-1.861982 z m 1.813644,0.425219 c -0.06746,0.0904 -0.170567,0.154035 -0.308878,0.191264 -0.137267,0.03743 -0.276586,0.03956 -0.4182,0.0061 l -0.04,0.228917 c 0.128345,0.03051 0.263844,0.03134 0.406733,0.0028 0.143962,-0.02836 0.240898,-0.07843 0.290321,-0.150727 l -0.273349,1.598406 -0.636407,-0.15595 -0.03984,0.228098 1.417557,0.349202 0.03835,-0.230295 -0.5163,-0.126519 0.319523,-1.885101 z m 5.662876,1.327693 c -0.06778,0.09358 -0.174085,0.159148 -0.318445,0.197087 -0.14325,0.03816 -0.289943,0.03962 -0.440343,0.0041 l -0.03382,0.237669 c 0.136318,0.03241 0.279099,0.03401 0.428601,0.0051 0.150642,-0.02869 0.250439,-0.08032 0.299874,-0.155188 l -0.229765,1.660109 -0.675786,-0.1656 -0.0337,0.236941 1.506731,0.37117 0.032,-0.239306 -0.548819,-0.134487 0.267873,-1.957907 z M 7.3234291,24.311734 c 0.1364535,0.03214 0.2193517,0.117405 0.2487051,0.255453 0.030491,0.137582 0.012697,0.345405 -0.05397,0.624076 -0.064106,0.267966 -0.1434126,0.459717 -0.2375834,0.575055 -0.09424,0.115425 -0.2089353,0.156894 -0.3437529,0.123836 -0.1354531,-0.03321 -0.2189175,-0.121031 -0.2506467,-0.262736 -0.030584,-0.142159 -0.012648,-0.349951 0.053979,-0.623151 0.068283,-0.279993 0.147542,-0.473276 0.2376353,-0.580769 0.090871,-0.107222 0.2060343,-0.144646 0.3456336,-0.111764 z M 8.941764,24.69292 c 0.1390183,0.03274 0.2241928,0.119161 0.255532,0.258907 0.032489,0.139278 0.016677,0.349565 -0.048032,0.631477 -0.062225,0.271089 -0.1407303,0.465024 -0.2351786,0.5816 -0.094518,0.116664 -0.2106317,0.158443 -0.3480063,0.124758 -0.1380209,-0.03384 -0.2237982,-0.122862 -0.2575828,-0.266331 -0.032626,-0.143923 -0.016656,-0.354184 0.048081,-0.630552 0.066345,-0.283232 0.1447858,-0.478694 0.2351686,-0.587323 0.091175,-0.108353 0.207797,-0.146035 0.3500181,-0.112536 z m 5.041381,1.187457 c 0.147162,0.03466 0.23961,0.12471 0.277336,0.269794 0.03892,0.144613 0.02954,0.362636 -0.02876,0.654719 -0.05606,0.280895 -0.131891,0.481682 -0.227131,0.602133 -0.09531,0.120543 -0.215886,0.163277 -0.361383,0.1276 -0.146174,-0.03584 -0.239341,-0.12865 -0.279744,-0.277665 -0.0392,-0.149471 -0.02916,-0.36738 0.02939,-0.653692 0.06,-0.293397 0.135258,-0.495798 0.226476,-0.60798 0.09206,-0.111889 0.213268,-0.150369 0.363813,-0.114909 z m 1.745904,0.411234 c 0.150036,0.03534 0.245065,0.126659 0.285076,0.273608 0.04122,0.146479 0.03415,0.367203 -0.02181,0.662835 -0.05382,0.284318 -0.128659,0.487494 -0.224147,0.609293 -0.09556,0.121894 -0.217694,0.164955 -0.366059,0.128575 -0.149053,-0.03655 -0.244845,-0.130684 -0.287615,-0.281639 -0.04155,-0.151411 -0.0338,-0.372026 0.0225,-0.661808 0.0577,-0.296943 0.131931,-0.501727 0.223416,-0.615144 0.09234,-0.11312 0.215156,-0.151872 0.368639,-0.11572 z m 5.447335,1.283076 c 0.159181,0.03749 0.262475,0.132833 0.309851,0.28566 0.04864,0.152354 0.04861,0.38146 2.72e-4,0.688255 -0.04649,0.295082 -0.117513,0.505888 -0.21369,0.631918 -0.09625,0.126131 -0.2233,0.170202 -0.380798,0.131582 -0.15822,-0.0388 -0.262417,-0.13713 -0.312818,-0.294198 -0.04913,-0.157524 -0.04932,-0.386775 -3.78e-4,-0.687467 0.05015,-0.308092 0.121465,-0.520248 0.213705,-0.637539 0.09315,-0.116975 0.221025,-0.156565 0.383856,-0.118211 z m 1.889183,0.444982 c 0.162417,0.03826 0.268651,0.135007 0.318665,0.289892 0.05129,0.154412 0.05397,0.38649 0.0084,0.697188 -0.04382,0.298846 -0.113607,0.512279 -0.209993,0.639784 -0.09646,0.127608 -0.225231,0.172025 -0.385961,0.132613 -0.161465,-0.03959 -0.268654,-0.139401 -0.321789,-0.29861 -0.05184,-0.159666 -0.05474,-0.3919 -0.0085,-0.696406 0.0474,-0.311989 0.117474,-0.526758 0.209948,-0.6454 0.09341,-0.118318 0.223052,-0.158194 0.389189,-0.119061 z m -16.0403516,-3.143285 -0.086816,0.358089 0.2978648,0.07191 0.086363,-0.35885 z m 1.6196504,0.387447 -0.084327,0.362243 0.3034919,0.07327 0.083854,-0.363022 z m 5.0459692,1.20708 -0.07618,0.375281 0.321362,0.07758 0.07564,-0.376115 z m 1.747664,0.41807 -0.07322,0.37983 0.327672,0.0791 0.07266,-0.380682 z m 5.4534,1.304545 -0.06352,0.394135 0.347757,0.08395 0.06288,-0.395052 z m 1.891488,0.452475 -0.05999,0.399137 0.354863,0.08567 0.05932,-0.400076 z"
         style="fill:#996b2e;fill-opacity:0.501961" />
    </g>
    <path
       id="path2297"
       style="fill:#000000;fill-opacity:0.2;stroke-width:0.105833;paint-order:stroke fill markers"
       d="m 15.176133,8.771882 c -0.615192,0.0034 -1.24721,0.193704 -1.805575,0.58291 -1.375888,0.959058 -1.817365,2.800464 -0.963765,4.144445 l 0.980302,1.543575 -1.599386,1.119312 c -1.435047,1.004709 -1.914724,3.006505 -1.047998,4.507735 0.891847,1.543953 2.857782,1.967077 4.365625,0.905887 l 1.680001,-1.182873 1.120345,1.763717 c 1.035372,1.629801 3.167807,2.088591 4.732528,0.981852 1.561964,-1.105313 1.898447,-3.30501 0.784448,-4.872571 l -1.205611,-1.696537 1.667598,-1.174089 c 1.49211,-1.050354 1.80008,-3.060037 0.717786,-4.455025 -0.529857,-0.682941 -1.293657,-1.089512 -2.099614,-1.199405 -0.799105,-0.108959 -1.645166,0.073 -2.355928,0.570505 L 18.558872,11.422878 17.503123,9.937702 C 17.040451,9.2868 16.346062,8.901224 15.598329,8.79927 15.459278,8.78031 15.318101,8.7711 15.176133,8.77188 Z" />
    <path
       id="path19-3"
       style="fill:url(#linearGradient28-7);fill-opacity:1;stroke-width:0.105833;paint-order:stroke fill markers"
       d="M 21.835956,9.20731 C 21.036851,9.098351 20.190987,9.2803 19.480225,9.777811 l -8.358949,5.851013 c -1.435051,1.004709 -1.914742,3.006682 -1.04801,4.507912 0.891847,1.543953 2.857559,1.966843 4.365402,0.905653 l 8.779506,-6.180238 c 1.49211,-1.050354 1.799753,-3.060454 0.717459,-4.455442 C 23.405776,9.723765 22.641913,9.317203 21.835956,9.20731 Z" />
    <path
       style="fill:url(#linearGradient26);stroke:none;stroke-width:0.529167px;stroke-linecap:butt;stroke-linejoin:miter;stroke-opacity:1"
       d="m 12.36687,14.756946 5.876831,-4.113606 3.675985,5.132868 -6.172507,4.345069 z"
       id="path24-6"
       sodipodi:nodetypes="ccccc" />
    <path
       id="path5-0"
       style="fill:none;fill-opacity:1;stroke:#8c4d15;stroke-width:0.238125;stroke-miterlimit:4;stroke-dasharray:none;stroke-opacity:1;paint-order:stroke fill markers"
       d="M 21.835956,9.20731 C 21.036851,9.098351 20.190987,9.2803 19.480225,9.777811 l -8.358949,5.851013 c -1.435051,1.004709 -1.914742,3.006682 -1.04801,4.507912 0.891847,1.543953 2.857559,1.966843 4.365402,0.905653 l 8.779506,-6.180238 c 1.49211,-1.050354 1.799753,-3.060454 0.717459,-4.455442 C 23.405776,9.723765 22.641913,9.317203 21.835956,9.20731 Z" />
    <path
       id="path17-6"
       style="mix-blend-mode:normal;fill:url(#linearGradient9);fill-opacity:1;fill-rule:nonzero;stroke-width:0.105833;paint-order:stroke fill markers"
       d="m 14.931655,8.265902 c -0.741609,-0.101119 -1.540533,0.07638 -2.227751,0.555405 -1.375889,0.959061 -1.817137,2.800579 -0.963537,4.14456 l 5.49861,8.657478 c 1.035373,1.629801 3.167626,2.088519 4.732347,0.98178 1.561964,-1.105313 1.898639,-3.305077 0.78464,-4.872638 L 16.836393,9.404624 C 16.373721,8.753721 15.679387,8.367856 14.931655,8.265902 Z" />
    <path
       style="fill:url(#linearGradient10);stroke:none;stroke-width:0.529167px;stroke-linecap:butt;stroke-linejoin:miter;stroke-opacity:1"
       d="m 13.005087,15.017941 5.203854,-3.682368 -0.657873,-0.98097 -5.171429,3.617789 z"
       id="path6-2"
       sodipodi:nodetypes="ccccc" />
    <path
       style="fill:url(#linearGradient17);stroke:none;stroke-width:0.529167px;stroke-linecap:butt;stroke-linejoin:miter;stroke-opacity:1"
       d="m 15.749808,19.342019 5.413631,-3.849953 0.825637,1.102559 -5.488543,3.866053 z"
       id="path7-6"
       sodipodi:nodetypes="ccccc" />
    <path
       id="path3-1"
       style="mix-blend-mode:normal;fill:none;fill-opacity:1;fill-rule:nonzero;stroke:#8c4d15;stroke-width:0.238125;stroke-miterlimit:4;stroke-dasharray:none;stroke-opacity:1;paint-order:stroke fill markers"
       d="m 14.931655,8.265902 c -0.741609,-0.101119 -1.540533,0.07638 -2.227751,0.555405 -1.375889,0.959061 -1.817137,2.800579 -0.963537,4.14456 l 5.49861,8.657478 c 1.035373,1.629801 3.167626,2.088519 4.732347,0.98178 1.561964,-1.105313 1.898639,-3.305077 0.78464,-4.872638 L 16.836393,9.404624 C 16.373721,8.753721 15.679387,8.367856 14.931655,8.265902 Z" />
  </g>
</svg>
