<?xml version="1.0" encoding="UTF-8" standalone="no"?>
<svg
   width="128"
   height="128"
   viewBox="0 0 33.866666 33.866668"
   version="1.1"
   id="svg958"
   inkscape:version="1.3 (0e150ed6c4, 2023-07-21)"
   sodipodi:docname="application-vnd.scribus.svg"
   xmlns:inkscape="http://www.inkscape.org/namespaces/inkscape"
   xmlns:sodipodi="http://sodipodi.sourceforge.net/DTD/sodipodi-0.dtd"
   xmlns:xlink="http://www.w3.org/1999/xlink"
   xmlns="http://www.w3.org/2000/svg"
   xmlns:svg="http://www.w3.org/2000/svg"
   xmlns:rdf="http://www.w3.org/1999/02/22-rdf-syntax-ns#"
   xmlns:cc="http://creativecommons.org/ns#"
   xmlns:dc="http://purl.org/dc/elements/1.1/">
  <defs
     id="defs952">
    <linearGradient
       id="linearGradient1617"
       inkscape:collect="always">
      <stop
         id="stop1613"
         offset="0"
         style="stop-color:#ffffe8;stop-opacity:1" />
      <stop
         id="stop1615"
         offset="1"
         style="stop-color:#ffe896;stop-opacity:1" />
    </linearGradient>
    <linearGradient
       gradientTransform="matrix(0.9789725,0,0,0.9789725,0.48107585,0.37449131)"
       gradientUnits="userSpaceOnUse"
       y2="30.691668"
       x2="25.4"
       y1="3.175"
       x1="10.583333"
       id="linearGradient1619"
       xlink:href="#linearGradient1617"
       inkscape:collect="always" />
    <inkscape:path-effect
       effect="perspective-envelope"
       up_left_point="-30.691667,2.1166667"
       up_right_point="-5.2916667,2.1166667"
       down_left_point="-30.691667,31.749999"
       down_right_point="-5.2916667,31.749999"
       id="path-effect16-5"
       is_visible="true"
       lpeversion="1"
       deform_type="perspective"
       horizontal_mirror="false"
       vertical_mirror="false"
       overflow_perspective="false" />
    <linearGradient
       gradientTransform="matrix(-0.26458333,0,0,0.26458333,27.202158,2.7265059)"
       gradientUnits="userSpaceOnUse"
       xlink:href="#linearGradient3715"
       id="linearGradient3795"
       y2="-2.0991025"
       x2="40.229939"
       y1="81.5"
       x1="39.479939" />
    <linearGradient
       id="linearGradient3715">
      <stop
         offset="0"
         style="stop-color:#66ccff;stop-opacity:1"
         id="stop3717" />
      <stop
         offset="1"
         style="stop-color:#0049b6;stop-opacity:1"
         id="stop3719" />
    </linearGradient>
    <linearGradient
       gradientTransform="matrix(-0.28158297,0.05887869,0.08977878,0.18466764,20.684927,6.4051085)"
       gradientUnits="userSpaceOnUse"
       xlink:href="#linearGradient11508"
       id="linearGradient3719"
       y2="16.211916"
       x2="77.923637"
       y1="82.473648"
       x1="43.700191" />
    <linearGradient
       id="linearGradient11508">
      <stop
         offset="0"
         style="stop-color:#000000;stop-opacity:1"
         id="stop11510" />
      <stop
         offset="1"
         style="stop-color:#000000;stop-opacity:0"
         id="stop11512" />
    </linearGradient>
    <linearGradient
       gradientTransform="matrix(-0.27439487,0.03941897,0.04205823,0.2571759,24.33296,1.2006687)"
       gradientUnits="userSpaceOnUse"
       xlink:href="#linearGradient11508"
       id="linearGradient10454"
       y2="6.208179"
       x2="87.732079"
       y1="82.473648"
       x1="43.700191" />
    <linearGradient
       gradientTransform="matrix(-0.26458333,0,0,0.26458333,27.402611,2.2587844)"
       x1="60.899021"
       y1="35.60585"
       x2="68.2229"
       y2="39.53442"
       id="linearGradient10400-1"
       xlink:href="#linearGradient10394"
       gradientUnits="userSpaceOnUse" />
    <linearGradient
       id="linearGradient10394">
      <stop
         offset="0"
         style="stop-color:#1a1a1a;stop-opacity:1"
         id="stop10396" />
      <stop
         offset="0.35185185"
         style="stop-color:#636363;stop-opacity:1"
         id="stop10404" />
      <stop
         offset="0.5"
         style="stop-color:#c7c7c7;stop-opacity:1"
         id="stop10402" />
      <stop
         offset="0.64999998"
         style="stop-color:#636363;stop-opacity:1"
         id="stop10406" />
      <stop
         offset="1"
         style="stop-color:#000000;stop-opacity:1"
         id="stop10398" />
    </linearGradient>
    <linearGradient
       gradientTransform="matrix(-0.19195306,-0.05141201,-0.05154439,0.19228529,20.456221,7.0921271)"
       gradientUnits="userSpaceOnUse"
       xlink:href="#linearGradient6531"
       id="linearGradient8183"
       y2="67.6745"
       x2="13.405647"
       y1="77.502068"
       x1="24.248737" />
    <linearGradient
       id="linearGradient6531">
      <stop
         offset="0"
         style="stop-color:#c38125;stop-opacity:1"
         id="stop6533" />
      <stop
         offset="0.62962961"
         style="stop-color:#c68d31;stop-opacity:1"
         id="stop10377" />
      <stop
         offset="1"
         style="stop-color:#fffce6;stop-opacity:1"
         id="stop6535" />
    </linearGradient>
    <linearGradient
       gradientTransform="matrix(-0.26458333,0,0,0.26458333,27.402611,2.2587844)"
       inkscape:collect="always"
       xlink:href="#linearGradient3737-1"
       id="linearGradient1521"
       gradientUnits="userSpaceOnUse"
       x1="58.651787"
       y1="68.171875"
       x2="47.450871"
       y2="57.993305" />
    <linearGradient
       id="linearGradient3737-1">
      <stop
         offset="0"
         style="stop-color:#ffffff;stop-opacity:1"
         id="stop3739-9" />
      <stop
         offset="1"
         style="stop-color:#ffffff;stop-opacity:0"
         id="stop3741-3" />
    </linearGradient>
    <radialGradient
       cx="59.85154"
       cy="41.7043"
       r="18.182745"
       fx="59.85154"
       fy="41.7043"
       id="radialGradient10416-2"
       xlink:href="#linearGradient3737-1"
       gradientUnits="userSpaceOnUse"
       gradientTransform="matrix(-0.12252837,-0.23450189,-0.02931274,0.01531605,18.58607,25.085984)" />
  </defs>
  <sodipodi:namedview
     inkscape:bbox-nodes="true"
     inkscape:snap-bbox-edge-midpoints="false"
     inkscape:bbox-paths="false"
     inkscape:snap-bbox="true"
     inkscape:snap-grids="false"
     units="px"
     showgrid="false"
     inkscape:document-rotation="0"
     inkscape:current-layer="layer1"
     inkscape:document-units="px"
     inkscape:cy="42.25"
     inkscape:cx="42.75"
     inkscape:zoom="4"
     inkscape:pageshadow="2"
     inkscape:pageopacity="0.0"
     borderopacity="1.0"
     bordercolor="#666666"
     pagecolor="#ffffff"
     id="base"
     inkscape:pagecheckerboard="0"
     showguides="false"
     inkscape:guide-bbox="true"
     guidetolerance="10000"
     inkscape:snap-tangential="true"
     inkscape:snap-perpendicular="true"
     inkscape:window-width="1920"
     inkscape:window-height="1119"
     inkscape:window-x="0"
     inkscape:window-y="0"
     inkscape:window-maximized="1"
     inkscape:snap-to-guides="false"
     inkscape:snap-intersection-paths="false"
     inkscape:snap-bbox-midpoints="false"
     inkscape:snap-nodes="true"
     inkscape:object-paths="false"
     inkscape:showpageshadow="2"
     inkscape:deskcolor="#d1d1d1">
    <inkscape:grid
       id="grid1521"
       type="xygrid"
       empcolor="#ff2624"
       empopacity="0.2"
       originx="0"
       originy="0"
       spacingy="0.26458334"
       spacingx="0.26458334"
       units="px"
       visible="false"
       empspacing="4" />
    <sodipodi:guide
       position="6.5361112,12.172222"
       orientation="0,-1"
       id="guide846"
       inkscape:locked="false" />
    <sodipodi:guide
       position="4.7625,13.798641"
       orientation="1,0"
       id="guide848"
       inkscape:locked="false" />
    <sodipodi:guide
       position="4.7625,29.104928"
       orientation="0,-1"
       id="guide1"
       inkscape:locked="false" />
    <sodipodi:guide
       position="21.695835,30.95625"
       orientation="1,0"
       id="guide2"
       inkscape:locked="false" />
  </sodipodi:namedview>
  <metadata
     id="metadata955">
    <rdf:RDF>
      <cc:Work
         rdf:about="">
        <dc:format>image/svg+xml</dc:format>
        <dc:type
           rdf:resource="http://purl.org/dc/dcmitype/StillImage" />
      </cc:Work>
    </rdf:RDF>
  </metadata>
  <g
     id="layer1"
     inkscape:groupmode="layer"
     inkscape:label="Layer 1">
    <path
       style="fill:#000000;fill-opacity:0.196078;stroke:none;stroke-width:0.725255;stroke-miterlimit:4;stroke-dasharray:none;stroke-opacity:1;paint-order:markers stroke fill"
       d="M 26.49039,32.035407 32.706865,22.710694 26.49039,20.638537 Z"
       id="path1768"
       inkscape:connector-curvature="0"
       sodipodi:nodetypes="cccc" />
    <path
       sodipodi:nodetypes="ccccc"
       id="path1611"
       d="M 9.8057889,2.4466498 30.006189,4.613095 26.489592,32.036664 3.5893135,26.276471 Z"
       style="fill:url(#linearGradient1619);fill-opacity:1;stroke:none;stroke-width:0.440334;stroke-linecap:butt;stroke-linejoin:miter;stroke-miterlimit:4;stroke-dasharray:none;stroke-opacity:1" />
    <path
       inkscape:transform-center-y="-10.920179"
       inkscape:transform-center-x="-0.70899459"
       id="path959"
       style="display:inline;fill:#000000;fill-opacity:0.2;stroke:none;stroke-width:0.264583"
       d="M 9.8073849,2.4441348 8.3863319,7.8902504 C 10.57635,11.942942 21.65129,14.911122 20.116635,19.499913 c -0.788276,2.357031 -2.572156,2.166239 -3.968431,4.659915 1.976897,-2.29664 7.224036,-1.894321 8.539288,-6.196317 1.351027,-4.419009 -7.303588,-8.7873039 -2.869967,-14.2299739 z"
       sodipodi:nodetypes="ccscscc" />
    <path
       sodipodi:nodetypes="ccscscc"
       d="M 9.8065869,2.4453923 8.3863319,7.8902504 C 10.716453,11.864043 21.326642,14.725965 19.953068,19.365519 c -0.705536,2.383106 -2.494988,2.254686 -3.803385,4.795573 1.895541,-2.364234 7.153525,-2.145283 8.317838,-6.49056 1.195983,-4.463467 -7.637228,-8.4229439 -3.396255,-14.0170295 z"
       style="display:inline;fill:url(#linearGradient3795);fill-opacity:1;stroke:none;stroke-width:0.264583"
       id="path8185" />
    <path
       d="m 6.2288409,16.16003 -0.784448,3.007569 c 1.1445393,0.654009 2.2653878,1.127151 3.123323,1.338936 0.504093,0.309468 1.250665,0.821355 1.5461601,1.30638 0.135991,0.223215 0.190571,0.390036 0.206705,0.496094 0.01613,0.106058 0,0.14056 0,0.14056 l -0.03307,0.08268 0.124024,0.03307 c 0,0 3.683623,0.849403 5.514909,1.703255 l 0.214974,-0.132291 c 0,0 -1.863478,-1.949707 -2.968295,-2.71198 -1.011986,-0.698224 -3.004576,-1.90045 -3.2824871,-2.067057 -0.0021,-0.0034 -0.0062,-0.0049 -0.0083,-0.0083 C 9.4258309,18.60961 8.4316999,17.639217 7.0132892,16.670077 6.7582605,16.495826 6.4959177,16.326589 6.2288409,16.16003 Z"
       style="opacity:0.3;fill:url(#linearGradient3719);fill-opacity:1;stroke:none;stroke-width:0.264583"
       id="path10456"
       sodipodi:nodetypes="cccsscccccsccsc" />
    <path
       d="m 7.6153197,10.845108 -1.0934734,4.19096 c 1.15487,1.511864 2.4422766,2.677062 3.4183956,3.196704 0.3985831,0.479517 0.9834391,1.259374 1.1492851,1.943034 0.07632,0.314629 0.08313,0.543425 0.07441,0.686263 -0.0087,0.142838 -0.03307,0.190169 -0.03307,0.190169 l -0.04134,0.107487 0.107487,0.05788 c 0,0 3.221062,1.626145 4.729427,3.009635 l 0.23151,-0.148828 c 0,0 -1.294929,-2.839472 -2.14974,-4.001823 -0.782985,-1.064687 -2.35905,-2.915949 -2.579687,-3.175 -0.0012,-0.0047 -0.0071,-0.01177 -0.0083,-0.01654 C 11.161797,15.842044 10.461029,14.412518 9.3614659,12.932837 8.8235629,12.20898 8.2307499,11.522788 7.6153197,10.845108 Z"
       style="opacity:0.2;fill:url(#linearGradient10454);fill-opacity:1;stroke:none;stroke-width:0.264583"
       id="path10430"
       sodipodi:nodetypes="cccsccccccsccsc" />
    <path
       style="fill:none;stroke:#4d3e2e;stroke-width:0.238125;stroke-linecap:butt;stroke-linejoin:miter;stroke-miterlimit:4;stroke-dasharray:none;stroke-opacity:1"
       d="M 9.8065869,2.4453923 30.006987,4.6118375 26.49039,32.035407 3.5901115,26.275215 Z"
       id="path1553"
       sodipodi:nodetypes="ccccc" />
    <path
       d="m 8.5005319,13.337473 c 1.315908,2.681127 3.1728181,4.587843 3.8488531,4.224646 0.721094,-0.387417 0.372484,-2.858365 -0.977737,-5.609402 C 10.021744,9.2023236 7.91832,6.8185103 6.5358631,3.7476487 6.2724,3.1624162 5.7621949,2.2978072 5.0378364,2.6650464 4.2870257,3.0456964 4.4907281,3.7580012 4.8874041,4.567087 c 1.5318817,3.1245232 2.2972178,6.089257 3.6131278,8.770386 z"
       inkscape:connector-curvature="0"
       id="path10375"
       style="fill:url(#linearGradient10400-1);fill-opacity:1;stroke:#000000;stroke-width:0.264583"
       sodipodi:nodetypes="scsssss" />
    <path
       d="m 10.84715,16.068507 c -0.63317,1.173667 1.202537,1.665336 1.835707,0.491669 0.63317,-1.173667 -1.202537,-1.665336 -1.835707,-0.491669 z"
       id="path4343"
       style="fill:none;stroke:#2e3436;stroke-width:0.520965;stroke-linecap:round;stroke-miterlimit:4;stroke-dasharray:none;stroke-opacity:1"
       sodipodi:nodetypes="sss" />
    <path
       d="m 16.040332,24.108268 c 0,0 -0.78232,-3.051233 -1.391219,-4.307279 -0.608898,-1.256047 -2.048515,-3.754687 -2.048515,-3.754687 0,0 -0.415359,-0.621297 -1.08585,-0.29083 -0.670492,0.330466 -0.476953,0.965216 -0.476953,0.965216 0,0 1.011138,1.522847 1.09526,2.697865 0.04849,0.677326 -0.110289,0.954126 -0.110289,0.954126 0,0 2.784682,2.093824 4.017566,3.735589 z"
       inkscape:connector-curvature="0"
       id="path4341"
       style="fill:url(#linearGradient8183);fill-opacity:1;fill-rule:evenodd;stroke:#c17d11;stroke-width:0.264583;stroke-linecap:butt;stroke-linejoin:miter;stroke-miterlimit:4;stroke-dasharray:none;stroke-opacity:1"
       sodipodi:nodetypes="cscscscc" />
    <path
       d="m 14.001842,19.777609 c 0.242458,0.481372 0.56866,0.341649 0.326202,-0.139723 -0.242458,-0.481372 -0.56866,-0.341649 -0.326202,0.139723 z"
       id="path6537"
       style="fill:#000000;fill-opacity:0.6;stroke:#c17d11;stroke-width:0.0885458;stroke-linecap:round;stroke-miterlimit:4;stroke-dasharray:none;stroke-opacity:1"
       sodipodi:nodetypes="sss" />
    <path
       d="M 16.024622,24.031197 C 15.472595,22.608222 15.078604,21.409736 14.388331,20.095462"
       inkscape:connector-curvature="0"
       id="path8007"
       style="fill:#c17d11;fill-opacity:1;fill-rule:evenodd;stroke:#c17d11;stroke-width:0.090746;stroke-linecap:butt;stroke-linejoin:miter;stroke-miterlimit:4;stroke-dasharray:none;stroke-opacity:1"
       sodipodi:nodetypes="cc" />
    <path
       d="m 11.610293,16.190751 c 0.05791,0.04702 0.09645,0.09592 0.09922,0.09922 1.6e-5,2.8e-5 0.0083,-3.3e-5 0.0083,0 0.01996,0.03465 1.431397,2.495248 2.017448,3.704166 0.199682,0.411908 0.437214,1.076749 0.65319,1.761133 -0.893395,-0.804158 -1.659869,-1.380452 -1.868619,-1.537891 0.03986,-0.196017 0.06748,-0.470023 0.04134,-0.835091 -0.0499,-0.696944 -0.345543,-1.399735 -0.620117,-1.951302 -0.248533,-0.499255 -0.444217,-0.792981 -0.487826,-0.859896 -0.0029,-0.01166 -0.01436,-0.05586 0,-0.140559 0.01331,-0.07851 0.028,-0.155189 0.157096,-0.239779 z"
       inkscape:connector-curvature="0"
       id="path10381"
       style="fill:url(#linearGradient1521);fill-opacity:1;fill-rule:evenodd;stroke:none;stroke-width:0.264583"
       sodipodi:nodetypes="cccsccsscscc" />
    <path
       d="M 7.8021886,7.4255411 C 7.0915403,7.7968572 11.547345,16.324634 12.257993,15.953318 12.968641,15.582002 8.5128369,7.054225 7.8021886,7.4255411 Z"
       id="path10408"
       style="fill:url(#radialGradient10416-2);fill-opacity:1;stroke:none;stroke-width:0.264583"
       sodipodi:nodetypes="sss" />
    <path
       d="m 9.7664779,10.022651 c 0.204033,0 0.4029451,0.03545 0.5953131,0.09095 0.09146,0.152978 0.175919,0.309121 0.264583,0.46302 -0.108611,-0.01644 -0.218811,-0.0248 -0.330729,-0.0248 -0.9423261,0 -1.7878151,0.623887 -2.3399093,1.595769 C 7.839459,11.875656 7.7272442,11.597763 7.6167384,11.320763 8.1632969,10.521835 8.9244389,10.022651 9.7664779,10.022651 Z"
       inkscape:connector-curvature="0"
       id="path10418"
       style="opacity:0.6;fill:#ffffff;fill-opacity:1;stroke:none;stroke-width:0.264583"
       sodipodi:nodetypes="sccsccs" />
  </g>
</svg>
