<?xml version="1.0" encoding="UTF-8" standalone="no"?>
<svg
   width="128"
   height="128"
   viewBox="0 0 33.866666 33.866668"
   version="1.1"
   id="svg958"
   inkscape:version="1.3 (0e150ed6c4, 2023-07-21)"
   sodipodi:docname="application-x-perl.svg"
   xmlns:inkscape="http://www.inkscape.org/namespaces/inkscape"
   xmlns:sodipodi="http://sodipodi.sourceforge.net/DTD/sodipodi-0.dtd"
   xmlns:xlink="http://www.w3.org/1999/xlink"
   xmlns="http://www.w3.org/2000/svg"
   xmlns:svg="http://www.w3.org/2000/svg"
   xmlns:rdf="http://www.w3.org/1999/02/22-rdf-syntax-ns#"
   xmlns:cc="http://creativecommons.org/ns#"
   xmlns:dc="http://purl.org/dc/elements/1.1/">
  <defs
     id="defs952">
    <linearGradient
       id="linearGradient1617"
       inkscape:collect="always">
      <stop
         id="stop1613"
         offset="0"
         style="stop-color:#ffffe8;stop-opacity:1" />
      <stop
         id="stop1615"
         offset="1"
         style="stop-color:#ffe896;stop-opacity:1" />
    </linearGradient>
    <linearGradient
       gradientTransform="matrix(0.9789725,0,0,0.9789725,0.48107585,0.37449131)"
       gradientUnits="userSpaceOnUse"
       y2="30.691668"
       x2="25.4"
       y1="3.175"
       x1="10.583333"
       id="linearGradient1619"
       xlink:href="#linearGradient1617"
       inkscape:collect="always" />
    <inkscape:path-effect
       effect="perspective-envelope"
       up_left_point="-30.691667,2.1166667"
       up_right_point="-5.2916667,2.1166667"
       down_left_point="-30.691667,31.749999"
       down_right_point="-5.2916667,31.749999"
       id="path-effect16-5"
       is_visible="true"
       lpeversion="1"
       deform_type="perspective"
       horizontal_mirror="false"
       vertical_mirror="false"
       overflow_perspective="false" />
    <radialGradient
       gradientUnits="userSpaceOnUse"
       gradientTransform="matrix(2.31525,0,0,2.3924186,-3.145168,-677.55749)"
       r="1.7908984"
       fy="287.23389"
       fx="7.4083333"
       cy="287.23389"
       cx="7.4083333"
       id="radialGradient1034"
       xlink:href="#linearGradient1032"
       inkscape:collect="always" />
    <linearGradient
       id="linearGradient1032"
       inkscape:collect="always">
      <stop
         id="stop1028"
         offset="0"
         style="stop-color:#ffffff;stop-opacity:1" />
      <stop
         id="stop1030"
         offset="1"
         style="stop-color:#8f8f8f;stop-opacity:1" />
    </linearGradient>
  </defs>
  <sodipodi:namedview
     inkscape:bbox-nodes="true"
     inkscape:snap-bbox-edge-midpoints="false"
     inkscape:bbox-paths="false"
     inkscape:snap-bbox="true"
     inkscape:snap-grids="false"
     units="px"
     showgrid="false"
     inkscape:document-rotation="0"
     inkscape:current-layer="layer1"
     inkscape:document-units="px"
     inkscape:cy="61.916352"
     inkscape:cx="-28.593316"
     inkscape:zoom="2.3257184"
     inkscape:pageshadow="2"
     inkscape:pageopacity="0.0"
     borderopacity="1.0"
     bordercolor="#666666"
     pagecolor="#ffffff"
     id="base"
     inkscape:pagecheckerboard="0"
     showguides="false"
     inkscape:guide-bbox="true"
     guidetolerance="10000"
     inkscape:snap-tangential="true"
     inkscape:snap-perpendicular="true"
     inkscape:window-width="1920"
     inkscape:window-height="1135"
     inkscape:window-x="0"
     inkscape:window-y="0"
     inkscape:window-maximized="1"
     inkscape:snap-to-guides="false"
     inkscape:snap-intersection-paths="false"
     inkscape:snap-bbox-midpoints="false"
     inkscape:snap-nodes="true"
     inkscape:object-paths="false"
     inkscape:showpageshadow="2"
     inkscape:deskcolor="#d1d1d1">
    <inkscape:grid
       id="grid1521"
       type="xygrid"
       empcolor="#ff2624"
       empopacity="0.2"
       originx="0"
       originy="0"
       spacingy="0.26458334"
       spacingx="0.26458334"
       units="px"
       visible="false"
       empspacing="4" />
    <sodipodi:guide
       position="6.5361112,12.172222"
       orientation="0,-1"
       id="guide846"
       inkscape:locked="false" />
    <sodipodi:guide
       position="4.7625,13.798641"
       orientation="1,0"
       id="guide848"
       inkscape:locked="false" />
    <sodipodi:guide
       position="4.7625,29.104928"
       orientation="0,-1"
       id="guide1"
       inkscape:locked="false" />
    <sodipodi:guide
       position="21.695835,30.95625"
       orientation="1,0"
       id="guide2"
       inkscape:locked="false" />
  </sodipodi:namedview>
  <metadata
     id="metadata955">
    <rdf:RDF>
      <cc:Work
         rdf:about="">
        <dc:format>image/svg+xml</dc:format>
        <dc:type
           rdf:resource="http://purl.org/dc/dcmitype/StillImage" />
      </cc:Work>
    </rdf:RDF>
  </metadata>
  <g
     id="layer1"
     inkscape:groupmode="layer"
     inkscape:label="Layer 1">
    <path
       style="fill:#000000;fill-opacity:0.196078;stroke:none;stroke-width:0.725255;stroke-miterlimit:4;stroke-dasharray:none;stroke-opacity:1;paint-order:markers stroke fill"
       d="M 26.49039,32.035407 32.706865,22.710694 26.49039,20.638537 Z"
       id="path1768"
       inkscape:connector-curvature="0"
       sodipodi:nodetypes="cccc" />
    <path
       sodipodi:nodetypes="ccccc"
       id="path1611"
       d="M 9.8057889,2.4466498 30.006189,4.613095 26.489592,32.036664 3.5893135,26.276471 Z"
       style="fill:url(#linearGradient1619);fill-opacity:1;stroke:none;stroke-width:0.440334;stroke-linecap:butt;stroke-linejoin:miter;stroke-miterlimit:4;stroke-dasharray:none;stroke-opacity:1" />
    <path
       style="fill:none;stroke:#4d3e2e;stroke-width:0.238125;stroke-linecap:butt;stroke-linejoin:miter;stroke-miterlimit:4;stroke-dasharray:none;stroke-opacity:1"
       d="M 9.8065869,2.4453923 30.006987,4.6118375 26.49039,32.035407 3.5901115,26.275215 Z"
       id="path1553"
       sodipodi:nodetypes="ccccc" />
    <path
       sodipodi:nodetypes="sssssssscsssssss"
       inkscape:connector-curvature="0"
       id="path1158"
       d="m 10.646758,22.95026 c 0.824755,0.3261 1.352862,1.91196 2.278627,2.09022 0.859551,0.1656 2.143091,-0.91408 3.234562,-0.86556 1.091471,0.0486 1.990874,1.22504 2.756595,1.22508 1.225152,6e-5 0.918864,-1.83766 3.462585,-1.41002 0.863232,0.1452 1.26925,-2.1008 2.10083,-3.15124 0.83158,-1.05042 2.088888,-1.05046 2.10083,-2.10082 0.02714,-2.38598 -2.61112,-1.70954 -5.252076,-5.25208 -1.403843,-1.88312 -0.981237,-1.20198 -3.151248,-2.10084 -3.459064,-1.10866 -5.722782,-1.46288 -7.836993,-0.99306 -2.756595,0.61258 -1.961613,1.52476 -2.756595,2.4503 -0.794982,0.92558 -1.531441,0.6126 -1.83773,2.7566 -0.178596,1.25018 -1.225153,1.22516 -1.225153,3.0629 0,1.22514 1.83773,1.22514 2.144018,1.83772 0.38742,0.77486 0.306289,1.83774 0.918865,2.14402 1.225153,0.61258 2.238128,-0.0208 3.062883,0.30678 z"
       style="fill:#000000;fill-opacity:0.195219;stroke:none;stroke-width:0.857607;stroke-linecap:butt;stroke-linejoin:miter;stroke-miterlimit:4;stroke-dasharray:none;stroke-opacity:1" />
    <path
       style="fill:#f4bf3d;fill-opacity:1;stroke:none;stroke-width:0.857607;stroke-linecap:butt;stroke-linejoin:miter;stroke-miterlimit:4;stroke-dasharray:none;stroke-opacity:1"
       d="m 8.493787,20.34676 c 0.824754,0.3261 1.352861,1.91196 2.278627,2.09022 0.85955,0.1656 2.143091,-0.91408 3.234562,-0.86556 1.091471,0.0486 1.990873,1.22504 2.756594,1.22508 1.225153,6e-5 0.918865,-1.83766 3.462585,-1.41002 0.863232,0.1452 1.26925,-2.1008 2.10083,-3.15124 0.83158,-1.05042 2.088888,-1.05046 2.10083,-2.10082 0.02714,-2.38598 -2.61112,-1.70954 -5.252076,-5.25208 C 17.771897,8.99922 18.194503,9.68036 16.024492,8.7815 12.565427,7.67284 10.30171,7.31862 8.187498,7.78844 5.430904,8.40102 6.225886,9.3132 5.430904,10.23874 c -0.794982,0.92558 -1.531442,0.6126 -1.83773,2.7566 -0.178596,1.25018 -1.225153,1.22516 -1.225153,3.0629 0,1.22514 1.83773,1.22514 2.144018,1.83772 0.387419,0.77486 0.306288,1.83774 0.918865,2.14402 1.225153,0.61258 2.238128,-0.0208 3.062883,0.30678 z"
       id="path1047"
       inkscape:connector-curvature="0"
       sodipodi:nodetypes="sssssssscsssssss" />
    <path
       id="path1095"
       style="fill:#9f730e;fill-opacity:0.196078;stroke:none;stroke-width:0.55285px;stroke-linecap:butt;stroke-linejoin:miter;stroke-opacity:1"
       d="M 14.49989 11.926921 L 19.261357 21.338233 C 19.53027 21.313809 19.842751 21.321835 20.226156 21.386292 C 20.945587 21.507304 21.350127 19.973447 21.945431 18.848979 L 14.49989 11.926921 z " />
    <path
       id="path989"
       style="fill:#9f730e;fill-opacity:0.196078;stroke:none;stroke-width:0.55285px;stroke-linecap:butt;stroke-linejoin:miter;stroke-opacity:1"
       d="M 14.49989 11.926921 L 22.473564 18.066598 C 23.250598 17.233718 24.28641 17.132872 24.413497 16.296163 C 24.410112 16.288903 24.407633 16.282271 24.404195 16.274976 L 14.49989 11.926921 z " />
    <path
       id="path1097"
       style="fill:#9f730e;fill-opacity:0.392157;stroke:none;stroke-width:0.55285px;stroke-linecap:butt;stroke-linejoin:miter;stroke-opacity:1"
       d="M 14.49989 11.926921 L 22.967591 17.638717 C 23.393203 17.334911 23.824566 17.143062 24.107056 16.870805 L 14.49989 11.926921 z " />
    <path
       id="path985"
       style="fill:#9f730e;fill-opacity:0.392157;stroke:none;stroke-width:0.55285px;stroke-linecap:butt;stroke-linejoin:miter;stroke-opacity:1"
       d="M 14.49989 11.926921 L 20.280933 21.390943 C 20.808676 21.418448 21.169894 20.537037 21.570777 19.631877 L 14.49989 11.926921 z " />
    <path
       id="path981"
       style="fill:#9f730e;fill-opacity:0.196078;stroke:none;stroke-width:0.55285px;stroke-linecap:butt;stroke-linejoin:miter;stroke-opacity:1"
       d="M 14.49989 11.926921 L 9.3906414 21.179586 C 9.8080648 21.722266 10.219184 22.330336 10.772469 22.436874 C 11.21403 22.521944 11.767809 22.279049 12.349634 22.02863 L 12.497945 21.831226 L 14.49989 11.926921 z " />
    <path
       id="path983"
       style="fill:#9f730e;fill-opacity:0.196078;stroke:none;stroke-width:0.55285px;stroke-linecap:butt;stroke-linejoin:miter;stroke-opacity:1"
       d="M 14.49989 11.926921 L 14.085445 21.566642 L 14.099915 21.581112 C 15.149406 21.689342 16.019569 22.796503 16.763318 22.796542 C 17.232577 22.796565 17.478536 22.526405 17.744653 22.217766 L 14.49989 11.926921 z " />
    <path
       id="path1099"
       style="fill:#9f730e;fill-opacity:0.392157;stroke:none;stroke-width:0.55285px;stroke-linecap:butt;stroke-linejoin:miter;stroke-opacity:1"
       d="M 14.49989 11.926921 L 14.901416 21.843111 C 15.603323 22.204163 16.218062 22.796513 16.763318 22.796542 C 16.866392 22.796547 16.955783 22.779802 17.039787 22.756234 L 14.49989 11.926921 z " />
    <path
       id="path1101"
       style="fill:#9f730e;fill-opacity:0.392157;stroke:none;stroke-width:0.55285px;stroke-linecap:butt;stroke-linejoin:miter;stroke-opacity:1"
       d="M 14.49989 11.926921 L 9.8701987 21.791952 C 10.139837 22.109726 10.428723 22.370684 10.772469 22.436874 C 11.033747 22.487211 11.33691 22.416672 11.659237 22.303548 L 14.49989 11.926921 z " />
    <path
       id="path997"
       style="fill:#9f730e;fill-opacity:0.196078;stroke:none;stroke-width:0.55285px;stroke-linecap:butt;stroke-linejoin:miter;stroke-opacity:1"
       d="M 9.9854371 7.5886842 C 9.3608437 7.5948927 8.7680323 7.6596914 8.187614 7.788672 C 7.7892926 7.8771883 7.4718013 7.9722117 7.2062786 8.0723756 C 7.206336 8.0725406 7.2062211 8.0727273 7.2062786 8.0728923 L 14.49989 11.926921 L 9.9854371 7.5886842 z " />
    <path
       id="path1111"
       style="fill:#9f730e;fill-opacity:0.392157;stroke:none;stroke-width:0.55285px;stroke-linecap:butt;stroke-linejoin:miter;stroke-opacity:1"
       d="M 9.2764365 7.6222738 C 8.906134 7.6549591 8.5443769 7.7093921 8.187614 7.788672 C 8.0577389 7.8175333 7.9431083 7.847394 7.8284628 7.8775554 L 14.49989 11.926921 L 9.2764365 7.6222738 z " />
    <path
       id="path979"
       style="fill:#9f730e;fill-opacity:0.196078;stroke:none;stroke-width:0.55285px;stroke-linecap:butt;stroke-linejoin:miter;stroke-opacity:1"
       d="M 14.49989 11.926921 L 4.7066895 18.427299 C 4.894515 19.094474 4.9501337 19.799856 5.4306763 20.040121 C 6.163465 20.406517 6.8191302 20.327586 7.4052328 20.274732 L 14.49989 11.926921 z " />
    <path
       id="path1109"
       style="fill:#9f730e;fill-opacity:0.196078;stroke:none;stroke-width:0.55285px;stroke-linecap:butt;stroke-linejoin:miter;stroke-opacity:1"
       d="M 6.2616334 8.6470175 C 5.8160927 9.1315271 5.9085273 9.6823243 5.4306763 10.238652 C 5.3383113 10.34619 5.2469934 10.435741 5.1567912 10.515637 C 5.1568458 10.516139 5.156737 10.516686 5.1567912 10.517188 L 14.49989 11.926921 L 6.2616334 8.6470175 z " />
    <path
       id="path1107"
       style="fill:#9f730e;fill-opacity:0.196078;stroke:none;stroke-width:0.55285px;stroke-linecap:butt;stroke-linejoin:miter;stroke-opacity:1"
       d="M 4.5604452 10.983309 C 4.5515921 10.985447 4.5438965 10.987882 4.5351237 10.990027 C 4.1196838 11.306212 3.7775601 11.704115 3.5930624 12.995589 C 3.5581893 13.239702 3.4896991 13.434103 3.4028931 13.604338 L 14.49989 11.926921 L 4.5604452 10.983309 z " />
    <path
       id="path1103"
       style="fill:#9f730e;fill-opacity:0.392157;stroke:none;stroke-width:0.55285px;stroke-linecap:butt;stroke-linejoin:miter;stroke-opacity:1"
       d="M 14.49989 11.926921 L 4.9108114 19.222599 C 5.0125745 19.58786 5.1454262 19.8975 5.4306763 20.040121 C 5.7504934 20.20003 6.0555732 20.273794 6.3468995 20.303154 L 14.49989 11.926921 z " />
    <path
       id="path1105"
       style="fill:#9f730e;fill-opacity:0.392157;stroke:none;stroke-width:0.55285px;stroke-linecap:butt;stroke-linejoin:miter;stroke-opacity:1"
       d="M 14.49989 11.926921 L 2.6990601 14.629081 C 2.5105978 14.95743 2.3678142 15.38116 2.3678142 16.058451 C 2.3678142 17.008222 3.4701225 17.22213 4.1093099 17.555518 L 14.49989 11.926921 z " />
    <path
       id="path170"
       style="fill:#9f730e;fill-opacity:0.392157;stroke:none;stroke-width:0.55285px;stroke-linecap:butt;stroke-linejoin:miter;stroke-opacity:1"
       d="M 3.9630656 11.658203 C 3.8246012 11.928126 3.7085165 12.296829 3.6214844 12.825574 L 14.49989 11.926921 L 3.9630656 11.658203 z " />
    <path
       id="path977"
       style="fill:#9f730e;fill-opacity:0.392157;stroke:none;stroke-width:0.55285px;stroke-linecap:butt;stroke-linejoin:miter;stroke-opacity:1"
       d="M 14.49989 11.926921 L 2.4437785 15.745809 L 2.3771159 15.80472 C 2.3723115 15.886226 2.3678142 15.968363 2.3678142 16.058451 C 2.3678142 16.697311 2.8677604 17.001447 3.3894572 17.234607 L 14.49989 11.926921 z " />
    <path
       id="path987"
       style="fill:#9f730e;fill-opacity:0.392157;stroke:none;stroke-width:0.55285px;stroke-linecap:butt;stroke-linejoin:miter;stroke-opacity:1"
       d="M 6.0115194 9.0170208 C 5.8656351 9.321889 5.8087959 9.6447919 5.6172282 9.9730348 L 14.49989 11.926921 L 6.0115194 9.0170208 z " />
    <path
       sodipodi:nodetypes="sssssssscssssssss"
       inkscape:connector-curvature="0"
       id="path168"
       d="m 8.493787,20.34676 c 0.824754,0.3261 1.352861,1.91196 2.278627,2.09022 0.85955,0.1656 2.143091,-0.91408 3.234562,-0.86556 1.091471,0.0486 1.990873,1.22504 2.756594,1.22508 1.225153,6e-5 0.892304,-1.1931 3.462585,-1.41002 1.438028,-0.1214 1.26925,-2.1008 2.10083,-3.15124 0.83158,-1.05042 2.088888,-1.05046 2.10083,-2.10082 0.02714,-2.38598 -2.61112,-1.70954 -5.252076,-5.25208 C 17.771897,8.99922 18.194503,9.68036 16.024492,8.7815 12.565427,7.67284 10.301713,7.31864 8.187498,7.78844 6.858449,8.08378 6.354976,8.44878 6.100848,8.85132 5.827887,9.2837 5.842597,9.75944 5.430904,10.23874 c -0.794993,0.92558 -1.531442,0.6126 -1.83773,2.7566 -0.178596,1.25018 -1.225153,1.22516 -1.225153,3.0629 0,1.22514 1.83773,1.22514 2.144018,1.83772 0.387419,0.77486 0.306288,1.83774 0.918865,2.14402 1.225153,0.61258 2.238128,-0.0208 3.062883,0.30678 z"
       style="fill:none;fill-opacity:1;stroke:#000000;stroke-width:0.238125;stroke-linecap:butt;stroke-linejoin:miter;stroke-miterlimit:4;stroke-dasharray:none;stroke-opacity:1" />
    <ellipse
       ry="4.0200229"
       rx="4.6302085"
       cy="13.313123"
       cx="15.805246"
       id="ellipse1160"
       style="fill:#000000;fill-opacity:0.196078;fill-rule:nonzero;stroke:none;stroke-width:1.5845;stroke-linecap:square;stroke-linejoin:miter;stroke-miterlimit:4;stroke-dasharray:none;stroke-opacity:1" />
    <path
       style="fill:#c4c4c4;fill-opacity:1;fill-rule:nonzero;stroke:#000000;stroke-width:0.47625;stroke-linecap:square;stroke-linejoin:miter;stroke-miterlimit:4;stroke-dasharray:none;stroke-opacity:1"
       d="m 19.072218,11.310743 a 4.1463776,4.2845902 0 0 1 -4.146377,4.28459 4.1463776,4.2845902 0 0 1 -4.146378,-4.28459 4.1463776,4.2845902 0 0 1 4.146378,-4.2845901 4.1463776,4.2845902 0 0 1 4.146377,4.2845901 z"
       id="path991"
       inkscape:connector-curvature="0" />
    <ellipse
       style="fill:url(#radialGradient1034);fill-opacity:1;fill-rule:nonzero;stroke:none;stroke-width:1.54798;stroke-linecap:square;stroke-linejoin:miter;stroke-miterlimit:4;stroke-dasharray:none;stroke-opacity:1"
       id="ellipse993"
       cx="14.92584"
       cy="11.310743"
       rx="4.1463776"
       ry="4.2845902" />
  </g>
</svg>
