<?xml version="1.0" encoding="UTF-8" standalone="no"?>
<svg
   width="128"
   height="128"
   viewBox="0 0 33.866666 33.866668"
   version="1.1"
   id="svg958"
   inkscape:version="1.3 (0e150ed6c4, 2023-07-21)"
   sodipodi:docname="application-dicom.svg"
   xmlns:inkscape="http://www.inkscape.org/namespaces/inkscape"
   xmlns:sodipodi="http://sodipodi.sourceforge.net/DTD/sodipodi-0.dtd"
   xmlns:xlink="http://www.w3.org/1999/xlink"
   xmlns="http://www.w3.org/2000/svg"
   xmlns:svg="http://www.w3.org/2000/svg"
   xmlns:rdf="http://www.w3.org/1999/02/22-rdf-syntax-ns#"
   xmlns:cc="http://creativecommons.org/ns#"
   xmlns:dc="http://purl.org/dc/elements/1.1/">
  <defs
     id="defs952">
    <linearGradient
       id="linearGradient1617"
       inkscape:collect="always">
      <stop
         id="stop1613"
         offset="0"
         style="stop-color:#ffffe8;stop-opacity:1" />
      <stop
         id="stop1615"
         offset="1"
         style="stop-color:#ffe896;stop-opacity:1" />
    </linearGradient>
    <linearGradient
       gradientTransform="matrix(0.9789725,0,0,0.9789725,0.48107585,0.37449131)"
       gradientUnits="userSpaceOnUse"
       y2="30.691668"
       x2="25.4"
       y1="3.175"
       x1="10.583333"
       id="linearGradient1619"
       xlink:href="#linearGradient1617"
       inkscape:collect="always" />
    <inkscape:path-effect
       effect="perspective-envelope"
       up_left_point="-30.691667,2.1166667"
       up_right_point="-5.2916667,2.1166667"
       down_left_point="-30.691667,31.749999"
       down_right_point="-5.2916667,31.749999"
       id="path-effect16-5"
       is_visible="true"
       lpeversion="1"
       deform_type="perspective"
       horizontal_mirror="false"
       vertical_mirror="false"
       overflow_perspective="false" />
    <radialGradient
       inkscape:collect="always"
       xlink:href="#linearGradient3"
       id="radialGradient970"
       cx="-6.4563637"
       cy="8.287096"
       fx="-6.4563637"
       fy="8.287096"
       r="7.4083333"
       gradientTransform="matrix(1.527759,1.7328146,-1.2432183,1.0960999,30.20387,13.23892)"
       gradientUnits="userSpaceOnUse" />
    <linearGradient
       id="linearGradient3"
       inkscape:collect="always">
      <stop
         style="stop-color:#ffffff;stop-opacity:1;"
         offset="0"
         id="stop3" />
      <stop
         style="stop-color:#e5e5e5;stop-opacity:1;"
         offset="0.16803934"
         id="stop5" />
      <stop
         style="stop-color:#d9d9d9;stop-opacity:1;"
         offset="0.63017899"
         id="stop6" />
      <stop
         style="stop-color:#cccccc;stop-opacity:1;"
         offset="0.78506941"
         id="stop7" />
      <stop
         style="stop-color:#808080;stop-opacity:1;"
         offset="1"
         id="stop4" />
    </linearGradient>
  </defs>
  <sodipodi:namedview
     inkscape:bbox-nodes="true"
     inkscape:snap-bbox-edge-midpoints="false"
     inkscape:bbox-paths="false"
     inkscape:snap-bbox="true"
     inkscape:snap-grids="false"
     units="px"
     showgrid="false"
     inkscape:document-rotation="0"
     inkscape:current-layer="layer1"
     inkscape:document-units="px"
     inkscape:cy="86.595095"
     inkscape:cx="204.74402"
     inkscape:zoom="2.1075097"
     inkscape:pageshadow="2"
     inkscape:pageopacity="0.0"
     borderopacity="1.0"
     bordercolor="#666666"
     pagecolor="#ffffff"
     id="base"
     inkscape:pagecheckerboard="0"
     showguides="true"
     inkscape:guide-bbox="true"
     guidetolerance="10000"
     inkscape:snap-tangential="true"
     inkscape:snap-perpendicular="true"
     inkscape:window-width="1920"
     inkscape:window-height="1011"
     inkscape:window-x="0"
     inkscape:window-y="0"
     inkscape:window-maximized="1"
     inkscape:snap-to-guides="false"
     inkscape:snap-intersection-paths="false"
     inkscape:snap-bbox-midpoints="false"
     inkscape:snap-nodes="true"
     inkscape:object-paths="false"
     inkscape:showpageshadow="2"
     inkscape:deskcolor="#d1d1d1">
    <inkscape:grid
       id="grid1521"
       type="xygrid"
       empcolor="#ff2624"
       empopacity="0.2"
       originx="0"
       originy="0"
       spacingy="0.26458334"
       spacingx="0.26458334"
       units="px"
       visible="false"
       empspacing="4" />
    <sodipodi:guide
       position="6.5361112,12.172222"
       orientation="0,-1"
       id="guide846"
       inkscape:locked="false" />
    <sodipodi:guide
       position="4.7625,13.798641"
       orientation="1,0"
       id="guide848"
       inkscape:locked="false" />
    <sodipodi:guide
       position="4.7625,29.104928"
       orientation="0,-1"
       id="guide1"
       inkscape:locked="false" />
    <sodipodi:guide
       position="21.695835,30.95625"
       orientation="1,0"
       id="guide2"
       inkscape:locked="false" />
  </sodipodi:namedview>
  <metadata
     id="metadata955">
    <rdf:RDF>
      <cc:Work
         rdf:about="">
        <dc:format>image/svg+xml</dc:format>
        <dc:type
           rdf:resource="http://purl.org/dc/dcmitype/StillImage" />
      </cc:Work>
    </rdf:RDF>
  </metadata>
  <g
     id="layer1"
     inkscape:groupmode="layer"
     inkscape:label="Layer 1">
    <path
       style="fill:#000000;fill-opacity:0.196078;stroke:none;stroke-width:0.725255;stroke-miterlimit:4;stroke-dasharray:none;stroke-opacity:1;paint-order:markers stroke fill"
       d="M 26.49039,32.035407 32.706865,22.710694 26.49039,20.638537 Z"
       id="path1768"
       inkscape:connector-curvature="0"
       sodipodi:nodetypes="cccc" />
    <path
       sodipodi:nodetypes="ccccc"
       id="path1611"
       d="M 9.8057889,2.4466498 30.006189,4.613095 26.489592,32.036664 3.5893135,26.276471 Z"
       style="fill:url(#linearGradient1619);fill-opacity:1;stroke:none;stroke-width:0.440334;stroke-linecap:butt;stroke-linejoin:miter;stroke-miterlimit:4;stroke-dasharray:none;stroke-opacity:1" />
    <path
       style="fill:none;stroke:#000000;stroke-width:0.238125;stroke-linecap:butt;stroke-linejoin:miter;stroke-miterlimit:4;stroke-dasharray:none;stroke-opacity:1"
       d="M 9.8065869,2.4453923 30.006987,4.6118375 26.49039,32.035407 3.5901115,26.275215 Z"
       id="path1553"
       sodipodi:nodetypes="ccccc" />
    <path
       id="path1166"
       style="fill:#000000;fill-opacity:0.2;stroke-width:0.502708;stroke-linecap:square;stroke-linejoin:round;stroke-opacity:0.05"
       d="M 14.229993,7.1521126 C 13.39832,7.0054662 12.233646,7.2683543 11.108402,7.8510888 10.470433,7.991321 9.9513728,8.4848789 9.8349524,9.145132 c -0.036395,0.206404 -0.031927,0.4162539 0.014156,0.6190612 -1.0620027,0.00983 -1.9930876,0.7417938 -2.1769202,1.7843608 -0.038255,0.216957 -0.042775,0.436083 -0.012002,0.654328 -0.4947042,0.327528 -0.8304018,0.83181 -0.9321406,1.408799 -0.079406,0.450332 -0.00783,0.895132 0.1792823,1.283632 -0.3209631,0.313421 -0.5302232,0.706652 -0.6077677,1.146429 -0.1375127,0.779873 0.1783504,1.573274 0.812974,2.07333 -0.029167,0.094 -0.051019,0.18816 -0.068183,0.285503 -0.1854872,1.05195 0.3626074,2.108736 1.3436221,2.608199 0.3199531,0.820635 1.0615068,1.420303 1.9591297,1.578578 0.984332,0.173564 1.932982,-0.222687 2.48576,-0.943849 0.272998,0.86556 1.031756,1.564082 2.016089,1.737646 0.897622,0.158275 1.797008,-0.152051 2.37834,-0.813764 1.092679,-0.133815 1.971197,-0.939052 2.156684,-1.991002 0.01716,-0.09734 0.02939,-0.193191 0.03409,-0.291514 0.767379,-0.252845 1.335554,-0.890366 1.473066,-1.670239 0.07755,-0.439777 0.0156,-0.882039 -0.179013,-1.28516 0.308918,-0.302245 0.528093,-0.694569 0.607499,-1.144902 0.101739,-0.576989 -0.04124,-1.165674 -0.394088,-1.642648 0.103558,-0.194559 0.174259,-0.402016 0.212515,-0.618973 0.183832,-1.042566 -0.441266,-2.048916 -1.435858,-2.42139 0.111241,-0.173865 0.188432,-0.36931 0.225034,-0.576886 C 20.04364,10.264418 19.724994,9.6243583 19.173666,9.2732124 18.315592,8.3407655 17.31107,7.6953897 16.479394,7.5487427 16.016539,7.4671288 15.567298,7.6140439 15.255357,7.9048743 15.061491,7.526067 14.692854,7.2337274 14.229996,7.1521131 Z"
       inkscape:transform-center-x="-8.5320133"
       inkscape:transform-center-y="-6.4899336" />
    <path
       id="rect879"
       style="fill:url(#radialGradient970);fill-opacity:1;stroke-width:0.502708;stroke-linecap:square;stroke-linejoin:round;stroke-opacity:0.05"
       d="m 11.028718,5.8194459 c -0.844503,0 -1.9458329,0.4611378 -2.9527907,1.2304157 -0.603926,0.248884 -1.0293948,0.8250774 -1.0293948,1.495516 0,0.2095881 0.04084,0.4154741 0.1214398,0.6071981 -1.0441607,0.1940999 -1.833997,1.0766203 -1.833997,2.1352703 0,0.220304 0.0336,0.436886 0.101803,0.646472 -0.430314,0.408456 -0.673344,0.96337 -0.673344,1.54926 0,0.45728 0.147727,0.882893 0.399459,1.232999 -0.261662,0.364394 -0.399459,0.787989 -0.399459,1.23455 0,0.791904 0.448837,1.518402 1.160653,1.90066 -0.0124,0.09764 -0.01757,0.194161 -0.01757,0.293005 0,1.068178 0.7232768,2.013734 1.7761186,2.335258 0.457594,0.752608 1.2920131,1.214396 2.2034831,1.214396 0.999517,0 1.864946,-0.554963 2.284098,-1.361157 0.419154,0.805004 1.287681,1.361157 2.287199,1.361157 0.91147,0 1.743304,-0.461788 2.200899,-1.214396 1.052842,-0.321524 1.778186,-1.26708 1.778186,-2.335258 0,-0.09884 -0.0046,-0.195361 -0.01705,-0.293005 0.711814,-0.382258 1.160653,-1.108756 1.160653,-1.90066 0,-0.446561 -0.137807,-0.871346 -0.399459,-1.23455 0.25174,-0.351296 0.399459,-0.775719 0.399459,-1.232999 0,-0.58589 -0.243032,-1.140804 -0.673344,-1.54926 0.0682,-0.209586 0.101803,-0.426168 0.101803,-0.646472 0,-1.05865 -0.790352,-1.9411643 -1.834514,-2.1352703 0.07936,-0.19054 0.12144,-0.3964202 0.12144,-0.6071981 0,-0.6704386 -0.42495,-1.2454419 -1.028878,-1.495516 -1.006956,-0.7692779 -2.108285,-1.2304157 -2.952791,-1.2304157 -0.469996,0 -0.8869,0.2226929 -1.1436,0.563273 -0.2567,-0.3393879 -0.670501,-0.563273 -1.140499,-0.563273 z" />
    <path
       id="path7"
       style="fill:#675200;fill-opacity:1;fill-rule:evenodd;stroke-width:1.21522"
       d="m 11.028778,5.8194459 c -0.844504,0 -1.9458355,0.46062 -2.9527915,1.229898 -0.603926,0.248884 -1.029394,0.82611 -1.029394,1.4965495 0,0.209587 0.04136,0.414958 0.12196,0.60668 C 6.124392,9.3466734 5.33404,10.229196 5.33404,11.287846 c 0,0.220302 0.0341,0.437402 0.10232,0.646989 -0.430312,0.408456 -0.67386,0.96337 -0.67386,1.54926 0,0.457277 0.1472,0.881859 0.398942,1.231966 -0.26166,0.364393 -0.398942,0.788504 -0.398942,1.235066 0,0.791904 0.448838,1.518402 1.160652,1.90066 -0.0124,0.09764 -0.0176,0.19364 -0.0176,0.292488 0,1.068176 0.7227625,2.01425 1.7756025,2.335774 0.457594,0.752606 1.293048,1.214396 2.204515,1.214396 0.9995175,0 1.8649475,-0.554964 2.2840975,-1.361156 0.419152,0.805002 1.28665,1.361156 2.286166,1.361156 0.911471,0 1.743823,-0.46179 2.201417,-1.214396 1.052841,-0.321524 1.778702,-1.267598 1.778702,-2.335774 0,-0.09884 -0.0052,-0.19484 -0.0176,-0.292488 0.711812,-0.382258 1.160649,-1.108756 1.160649,-1.90066 0,-0.446562 -0.137279,-0.871862 -0.398941,-1.235066 0.251738,-0.351297 0.398941,-0.774689 0.398941,-1.231966 0,-0.58589 -0.243547,-1.140804 -0.673859,-1.54926 0.0682,-0.209587 0.10232,-0.426687 0.10232,-0.646989 0,-1.05865 -0.790352,-1.9411656 -1.834512,-2.1352726 0.07936,-0.190539 0.12196,-0.395902 0.12196,-0.60668 0,-0.6704395 -0.425468,-1.2464755 -1.029394,-1.4965495 -1.006958,-0.769278 -2.108288,-1.229898 -2.952793,-1.229898 -0.469996,0 -0.886383,0.222694 -1.143081,0.563272 -0.2567,-0.339388 -0.67102,-0.563272 -1.141016,-0.563272 z m 2.27893,0.51263 0.0011,0.0052 c 0.536962,0 1.211166,0.228264 1.894458,0.628384 -0.487356,0.11312 -0.91263,0.431534 -1.135848,0.873332 -0.06448,0.12742 -0.0086,0.280174 0.12402,0.342098 0.1327,0.06192 0.293116,0.0086 0.357602,-0.11886 0.19594,-0.38702 0.595982,-0.627352 1.044896,-0.627352 0.1451,0 0.283616,0.02472 0.411344,0.07234 0.0148,0.0072 0.02936,0.0138 0.04548,0.0186 0.412952,0.17028 0.704866,0.564722 0.704866,1.0231925 0,0.202442 -0.05748,0.400062 -0.16536,0.571542 -1.18181,0.07264 -2.121836,1.0166526 -2.121836,2.1693766 0,0.1417 0.12218,0.258382 0.269752,0.258382 0.147579,0 0.26665,-0.11668 0.26665,-0.258382 0,-0.91694 0.777527,-1.6619146 1.73116,-1.6619146 0.954873,0 1.731162,0.7461646 1.731162,1.6619146 0,0.21435 -0.04362,0.425226 -0.1292,0.625286 -0.0434,0.1036 -0.012,0.222072 0.07854,0.293522 0.395592,0.316762 0.622183,0.783402 0.622183,1.276408 0,0.91694 -0.777526,1.661914 -1.73116,1.661914 -0.14758,0 -0.26975,0.1146 -0.26975,0.256314 0,0.1417 0.12218,0.258382 0.26975,0.258382 0.572924,0 1.097238,-0.20544 1.49655,-0.543636 0.15378,0.252458 0.23461,0.53635 0.23461,0.834058 0,0.656148 -0.404386,1.251506 -1.029394,1.518254 -0.11532,0.04882 -0.17982,0.1684 -0.15502,0.286288 0.02728,0.12742 0.04134,0.25658 0.04134,0.387571 0,0.872881 -0.614428,1.643397 -1.492416,1.869654 -0.07192,0.019 -0.1327,0.06504 -0.16742,0.12816 -0.350948,0.639476 -1.033612,1.036628 -1.783872,1.036628 -1.112364,0 -2.01848,-0.868656 -2.01848,-1.936832 0,-0.07264 -0.003,-0.14352 -0.0094,-0.214974 0.0062,-0.02144 0.0094,-0.04528 0.0094,-0.07028 v -8.491492 c 0,-0.463234 0.391968,-0.8423266 0.874364,-0.8423266 0.14758,0 0.269752,-0.11358 0.269752,-0.255282 0,-0.1417 -0.12218,-0.258382 -0.269752,-0.258382 -0.329864,0 -0.633786,0.1091 -0.874364,0.29249 V 7.1733679 c 0,-0.463234 0.391968,-0.841292 0.874364,-0.841292 z m -2.27893,0.002 c 0.482396,0 0.874364,0.37909 0.874364,0.842326 v 3.3258951 c -0.240578,-0.18338 -0.5445,-0.293522 -0.874364,-0.293522 -0.14758,0 -0.268718,0.11548 -0.268718,0.258382 0,0.1417 0.12114,0.256314 0.268718,0.256314 0.482396,0 0.874364,0.375992 0.874364,0.839226 v 6.18154 c -0.332344,-0.412028 -0.80208,-0.725265 -1.353922,-0.868164 -0.14262,-0.03692 -0.292286,0.04496 -0.330728,0.1819 -0.03844,0.13694 0.04652,0.279344 0.18914,0.31626 0.879228,0.227448 1.494484,0.994706 1.494484,1.867586 0,1.068176 -0.906118,1.936832 -2.0184815,1.936832 -0.750258,0 -1.434164,-0.397152 -1.78387,-1.03663 -0.03472,-0.06312 -0.0955,-0.1103 -0.16744,-0.12816 -0.879228,-0.22745 -1.4924165,-0.996774 -1.4924165,-1.869654 0,-0.131 0.0132,-0.260154 0.03928,-0.387574 0.0248,-0.1179 -0.03888,-0.237462 -0.15296,-0.286286 -0.62501,-0.266748 -1.029396,-0.863296 -1.029396,-1.518254 0,-0.297708 0.08208,-0.581602 0.234612,-0.834058 0.39931,0.338196 0.923626,0.543636 1.4965505,0.543636 0.14758,0 0.26665,-0.11548 0.26665,-0.258382 0,-0.1417 -0.11908,-0.256314 -0.26665,-0.256314 -0.9548745,0 -1.7311625,-0.746166 -1.7311625,-1.661916 0,-0.493004 0.226594,-0.959646 0.622184,-1.276408 0.08928,-0.07144 0.11906,-0.18992 0.07442,-0.29352 -0.08432,-0.200062 -0.1261,-0.412128 -0.1261,-0.625286 0,-0.91694 0.7775285,-1.6619146 1.7311605,-1.6619146 0.954874,0 1.731162,0.7461646 1.731162,1.6619146 0,0.1417 0.11908,0.258382 0.26665,0.258382 0.14758,0 0.268718,-0.11548 0.268718,-0.258382 0,-1.153916 -0.938784,-2.0967366 -2.121836,-2.1693766 -0.10664,-0.17148 -0.16432,-0.3691 -0.16432,-0.571542 0,-0.4584705 0.290054,-0.8529045 0.701766,-1.0231945 0.0162,-0.0048 0.0337,-0.0102 0.04858,-0.0186 0.12772,-0.04644 0.264186,-0.07234 0.409276,-0.07234 0.447674,0 0.849996,0.240332 1.045932,0.627352 0.06448,0.12742 0.2238755,0.18078 0.3565655,0.11886 0.13268,-0.06192 0.19058,-0.21468 0.1261,-0.342098 -0.223218,-0.4418 -0.6484915,-0.761394 -1.1358475,-0.873332 0.683292,-0.40012 1.3564615,-0.628386 1.8934235,-0.628386 z m 6.277652,4.4204011 0.0011,0.0011 c -0.14758,0 -0.269752,0.1146 -0.269752,0.256314 0,0.916941 -0.77422,1.661913 -1.729094,1.661913 -0.468756,0 -0.909542,-0.175599 -1.238166,-0.497126 -0.10292,-0.10122 -0.272864,-0.104 -0.378272,-0.0052 -0.1054,0.09884 -0.10808,0.261549 -0.0052,0.362768 0.370788,0.364394 0.85086,0.588234 1.37046,0.64182 0.12276,0.782378 0.826918,1.383896 1.676382,1.383896 0.14758,0 0.269751,-0.11358 0.269751,-0.255282 0,-0.1417 -0.12218,-0.258382 -0.269751,-0.258382 -0.554322,0 -1.018658,-0.376282 -1.132746,-0.876432 1.111124,-0.13932 1.974038,-1.05395 1.974038,-2.159042 0,-0.1417 -0.12114,-0.256314 -0.268716,-0.256314 z m -9.7100015,0.27492 c -0.14758,0 -0.26975,0.1146 -0.26975,0.256314 0,1.103902 0.862088,2.018524 1.971972,2.159042 -0.11408,0.50015 -0.576358,0.876432 -1.13068,0.876432 -0.14758,0 -0.26975,0.11358 -0.26975,0.255282 0,0.1417 0.12218,0.258382 0.26975,0.258382 0.848226,0 1.552374,-0.600484 1.676384,-1.382862 0.5195995,-0.05358 0.9996695,-0.277426 1.3704575,-0.64182 0.10292,-0.10122 0.10026,-0.263772 -0.0052,-0.363802 -0.1054,-0.09884 -0.274104,-0.09606 -0.378272,0.0052 -0.328626,0.321524 -0.768378,0.497126 -1.2371335,0.497126 -0.954874,0 -1.73116,-0.746164 -1.73116,-1.661914 0,-0.1417 -0.11908,-0.256314 -0.26665,-0.256314 z m 5.7102455,3.841626 c -0.14708,5.28e-4 -0.265616,0.11494 -0.265616,0.256314 0,0.1417 0.11908,0.258382 0.26665,0.258382 0.954874,0 1.73116,0.746164 1.73116,1.661914 0,0.05836 -0.003,0.1175 -0.0094,0.17466 -0.830864,0.322716 -1.420068,1.105272 -1.420068,2.017448 0,0.14172 0.12114,0.259416 0.268718,0.259416 0.14758,0 0.26665,-0.11652 0.26665,-0.259416 0,-0.91694 0.777528,-1.661912 1.73116,-1.661912 0.14758,0 0.26975,-0.1146 0.26975,-0.256316 0,-0.1417 -0.12218,-0.258382 -0.26975,-0.258382 -0.10292,0 -0.203616,0.0086 -0.302824,0.0217 v -0.0372 c 0,-1.202406 -1.015958,-2.176068 -2.265494,-2.17661 z m -3.141926,0.548802 c -1.2520155,5.3e-4 -2.2665275,0.97452 -2.2665275,2.174546 v 0.03928 c -0.0992,-0.013 -0.19886,-0.0217 -0.301792,-0.0217 -0.14758,0 -0.26975,0.1146 -0.26975,0.256315 0,0.141701 0.12218,0.258382 0.26975,0.258382 0.954874,0 1.731162,0.747198 1.731162,1.662946 0,0.14172 0.11908,0.255282 0.26665,0.255282 0.14758,0 0.268718,-0.11358 0.268718,-0.255282 0,-0.912176 -0.589206,-1.695766 -1.420068,-2.01848 -0.0062,-0.05836 -0.0094,-0.11632 -0.0094,-0.17466 0,-0.916942 0.777528,-1.661916 1.7311595,-1.661916 0.14758,0 0.266652,-0.11668 0.266652,-0.258381 h 0.002 c 0,-0.14136 -0.1206,-0.255767 -0.267682,-0.256315 z" />
  </g>
</svg>
