<?xml version="1.0" encoding="UTF-8" standalone="no"?>
<svg
   width="128"
   height="128"
   viewBox="0 0 33.866666 33.866668"
   version="1.1"
   id="svg958"
   inkscape:version="1.3 (0e150ed6c4, 2023-07-21)"
   sodipodi:docname="json3.svg"
   xmlns:inkscape="http://www.inkscape.org/namespaces/inkscape"
   xmlns:sodipodi="http://sodipodi.sourceforge.net/DTD/sodipodi-0.dtd"
   xmlns:xlink="http://www.w3.org/1999/xlink"
   xmlns="http://www.w3.org/2000/svg"
   xmlns:svg="http://www.w3.org/2000/svg"
   xmlns:rdf="http://www.w3.org/1999/02/22-rdf-syntax-ns#"
   xmlns:cc="http://creativecommons.org/ns#"
   xmlns:dc="http://purl.org/dc/elements/1.1/">
  <defs
     id="defs952">
    <linearGradient
       id="linearGradient6">
      <stop
         offset="0"
         id="stop5"
         style="stop-color:#595959;stop-opacity:1;" />
      <stop
         stop-color="#fff"
         offset="1"
         id="stop6" />
    </linearGradient>
    <linearGradient
       id="linearGradient1617"
       inkscape:collect="always">
      <stop
         id="stop1613"
         offset="0"
         style="stop-color:#ffffe8;stop-opacity:1" />
      <stop
         id="stop1615"
         offset="1"
         style="stop-color:#ffe896;stop-opacity:1" />
    </linearGradient>
    <linearGradient
       gradientTransform="matrix(0.9789725,0,0,0.9789725,0.48107585,0.37449131)"
       gradientUnits="userSpaceOnUse"
       y2="30.691668"
       x2="25.4"
       y1="3.175"
       x1="10.583333"
       id="linearGradient1619"
       xlink:href="#linearGradient1617"
       inkscape:collect="always" />
    <linearGradient
       id="linearGradient3005-9"
       x1="-666.12"
       x2="-553.27002"
       y1="413.04001"
       y2="525.90997"
       gradientTransform="matrix(0.99884,0,0,0.9987,689.01,-388.84)"
       gradientUnits="userSpaceOnUse"
       xlink:href="#linearGradient4" />
    <linearGradient
       id="linearGradient4">
      <stop
         offset="0"
         id="stop3"
         style="stop-color:#4d4d4d;stop-opacity:1;" />
      <stop
         stop-color="#fff"
         offset="1"
         id="stop4" />
    </linearGradient>
    <linearGradient
       id="linearGradient3002-7"
       x1="-553.27002"
       x2="-666.12"
       y1="525.90997"
       y2="413.04999"
       gradientTransform="matrix(0.99884,0,0,0.9987,689.01,-388.84)"
       gradientUnits="userSpaceOnUse"
       xlink:href="#linearGradient6" />
    <linearGradient
       id="linearGradient3005"
       x1="-666.12"
       x2="-553.27002"
       y1="413.04001"
       y2="525.90997"
       gradientTransform="matrix(0.99884,0,0,0.9987,689.01,-388.84)"
       gradientUnits="userSpaceOnUse"
       xlink:href="#linearGradient8385" />
    <linearGradient
       id="linearGradient8385">
      <stop
         offset="0"
         id="stop1"
         style="stop-color:#5a5a5a;stop-opacity:1;" />
      <stop
         stop-color="#fff"
         offset="1"
         id="stop2" />
    </linearGradient>
    <linearGradient
       inkscape:collect="always"
       xlink:href="#linearGradient6"
       id="linearGradient25"
       x1="37.312454"
       y1="61.934044"
       x2="50.012459"
       y2="74.634048"
       gradientUnits="userSpaceOnUse"
       gradientTransform="translate(1.9924796,-36.573293)" />
    <linearGradient
       inkscape:collect="always"
       xlink:href="#linearGradient6"
       id="linearGradient28"
       x1="51.32917"
       y1="75.672226"
       x2="38.629169"
       y2="62.972225"
       gradientUnits="userSpaceOnUse"
       gradientTransform="translate(1.7340982,-36.553139)" />
    <linearGradient
       inkscape:collect="always"
       xlink:href="#linearGradient7089"
       id="linearGradient16"
       x1="7.8637094"
       y1="15.388992"
       x2="25.874912"
       y2="15.388992"
       gradientUnits="userSpaceOnUse"
       gradientTransform="translate(0.0765839,0.218813)" />
    <linearGradient
       inkscape:collect="always"
       id="linearGradient7089">
      <stop
         style="stop-color:#aa8a34;stop-opacity:0.34999999;"
         offset="0"
         id="stop7085" />
      <stop
         style="stop-color:#caa22c;stop-opacity:0.35051546;"
         offset="1"
         id="stop7087" />
    </linearGradient>
  </defs>
  <sodipodi:namedview
     inkscape:bbox-nodes="true"
     inkscape:snap-bbox-edge-midpoints="false"
     inkscape:bbox-paths="false"
     inkscape:snap-bbox="true"
     inkscape:snap-grids="false"
     units="px"
     showgrid="false"
     inkscape:document-rotation="0"
     inkscape:current-layer="layer1"
     inkscape:document-units="px"
     inkscape:cy="125.25"
     inkscape:cx="-7.2500001"
     inkscape:zoom="2"
     inkscape:pageshadow="2"
     inkscape:pageopacity="0.0"
     borderopacity="1.0"
     bordercolor="#666666"
     pagecolor="#ffffff"
     id="base"
     inkscape:pagecheckerboard="0"
     showguides="false"
     inkscape:guide-bbox="true"
     guidetolerance="10000"
     inkscape:snap-tangential="true"
     inkscape:snap-perpendicular="true"
     inkscape:window-width="1920"
     inkscape:window-height="1011"
     inkscape:window-x="0"
     inkscape:window-y="0"
     inkscape:window-maximized="1"
     inkscape:snap-to-guides="false"
     inkscape:snap-intersection-paths="false"
     inkscape:snap-bbox-midpoints="false"
     inkscape:snap-nodes="true"
     inkscape:object-paths="false"
     inkscape:showpageshadow="2"
     inkscape:deskcolor="#d1d1d1">
    <inkscape:grid
       id="grid1521"
       type="xygrid"
       empcolor="#ff2624"
       empopacity="0.2"
       originx="0"
       originy="0"
       spacingy="0.26458334"
       spacingx="0.26458334"
       units="px"
       visible="false"
       empspacing="4" />
    <sodipodi:guide
       position="6.5361112,12.172222"
       orientation="0,-1"
       id="guide846"
       inkscape:locked="false" />
    <sodipodi:guide
       position="4.7625,13.798641"
       orientation="1,0"
       id="guide848"
       inkscape:locked="false" />
    <sodipodi:guide
       position="4.7625,29.104928"
       orientation="0,-1"
       id="guide1"
       inkscape:locked="false" />
    <sodipodi:guide
       position="21.695835,30.95625"
       orientation="1,0"
       id="guide2"
       inkscape:locked="false" />
  </sodipodi:namedview>
  <metadata
     id="metadata955">
    <rdf:RDF>
      <cc:Work
         rdf:about="">
        <dc:format>image/svg+xml</dc:format>
        <dc:type
           rdf:resource="http://purl.org/dc/dcmitype/StillImage" />
      </cc:Work>
    </rdf:RDF>
  </metadata>
  <g
     id="layer1"
     inkscape:groupmode="layer"
     inkscape:label="Layer 1">
    <path
       style="fill:#000000;fill-opacity:0.196078;stroke:none;stroke-width:0.725255;stroke-miterlimit:4;stroke-dasharray:none;stroke-opacity:1;paint-order:markers stroke fill"
       d="M 26.49039,32.035407 32.706865,22.710694 26.49039,20.638537 Z"
       id="path1768"
       inkscape:connector-curvature="0"
       sodipodi:nodetypes="cccc" />
    <path
       sodipodi:nodetypes="ccccc"
       id="path1611"
       d="M 9.8057889,2.4466498 30.006189,4.613095 26.489592,32.036664 3.5893135,26.276471 Z"
       style="fill:url(#linearGradient1619);fill-opacity:1;stroke:none;stroke-width:0.440334;stroke-linecap:butt;stroke-linejoin:miter;stroke-miterlimit:4;stroke-dasharray:none;stroke-opacity:1" />
    <path
       id="path1"
       style="color:#000000;fill:url(#linearGradient16);-inkscape-stroke:none"
       d="m 12.302198,5.710322 -0.169255,0.703947 13.701995,1.7392577 0.116559,-0.766159 z m -0.420389,1.7484307 -0.173138,0.720094 13.833739,1.8975173 0.119436,-0.7850753 z m -0.430212,1.789285 -0.176674,0.734804 13.967904,2.0627263 0.12209,-0.802515 z m -0.439698,1.8287413 -0.180721,0.751631 14.104617,2.235327 0.12511,-0.822362 z m -0.449803,1.870763 -0.184806,0.768622 14.243883,2.415635 0.128172,-0.842496 z m -0.460156,1.913824 -0.189549,0.78835 14.385926,2.60427 0.131709,-0.865744 z m -0.47108,1.95926 -0.194044,0.807046 14.530598,2.80139 0.135092,-0.887982 z m -0.482184,2.005443 -0.198809,0.826859 14.678068,3.007587 0.138681,-0.911578 z m -0.493906,2.054189 -0.203526,0.846483 14.828374,3.223316 0.14226,-0.9351 z m -0.506283,2.105674 -0.208194,0.865891 7.181828,1.653464 0.179876,-0.909943 z" />
    <path
       style="fill:none;stroke:#4d3e2e;stroke-width:0.238125;stroke-linecap:butt;stroke-linejoin:miter;stroke-miterlimit:4;stroke-dasharray:none;stroke-opacity:1"
       d="M 9.8065869,2.4453923 30.006987,4.6118375 26.49039,32.035407 3.5901115,26.275215 Z"
       id="path1553"
       sodipodi:nodetypes="ccccc" />
    <g
       id="path3">
      <path
         style="color:#000000;fill:#ee6300;stroke-linecap:round;-inkscape-stroke:none;paint-order:markers stroke fill"
         d="m -10.583334,34.395834 h 1.5874999"
         id="path11" />
    </g>
    <g
       id="path4">
      <path
         style="color:#000000;fill:#ee6300;stroke-linecap:round;-inkscape-stroke:none;paint-order:markers stroke fill"
         d="m -10.583334,36.247918 h 1.5874999"
         id="path13" />
    </g>
    <path
       id="path29"
       style="fill:#000000;fill-opacity:0.2;fill-rule:evenodd;stroke:none;stroke-width:0.242512;stroke-linejoin:round;stroke-opacity:1;paint-order:fill markers stroke"
       d="m 16.655878,6.8791669 c -4.88987,-0.7931014 -9.5528669,2.21024 -10.4150831,6.7081431 -0.8622159,4.497903 2.4028495,8.787119 7.2927191,9.58022 4.889871,0.793102 9.552868,-2.210239 10.415084,-6.708142 0.862216,-4.497903 -2.40285,-8.7871194 -7.29272,-9.5802211 z m -0.780877,4.0735821 c 1.528084,0.247844 2.417361,2.271901 1.986253,4.520853 -0.431108,2.248951 -2.01935,3.871173 -3.547434,3.623329 -1.528085,-0.247845 -2.417362,-2.271902 -1.986254,-4.520853 0.431108,-2.248953 2.01935,-3.871174 3.547435,-3.623329 z"
       inkscape:transform-center-x="-10.415113"
       inkscape:transform-center-y="-6.7082988" />
    <g
       id="g28"
       transform="matrix(0.93749992,0,0,0.93749997,-30.597592,-16.466676)">
      <path
         id="path14"
         style="fill:url(#linearGradient28);fill-rule:evenodd;stroke:none;stroke-width:0.238125;stroke-linejoin:round;stroke-dasharray:none;stroke-opacity:1;paint-order:fill markers stroke"
         d="m 46.738591,23.808037 c 2.69256,0.340442 4.736661,3.06487 4.737179,6.313827 0,3.507007 -2.36916,6.349999 -5.291667,6.35 -1.461252,0 -2.645834,-1.895333 -2.645834,-4.233334 0,-2.198347 1.047608,-4.005154 2.387453,-4.213179 -2.814656,0.165112 -5.027702,2.948233 -5.033285,6.329846 0,3.507007 2.36916,6.349999 5.291666,6.35 4.676012,-10e-7 8.466667,-3.790657 8.466667,-8.466667 -0.0095,-4.453819 -3.467911,-8.138818 -7.912179,-8.430493 z"
         sodipodi:nodetypes="ccssccscc" />
      <path
         id="path20"
         style="fill:url(#linearGradient25);fill-rule:evenodd;stroke:none;stroke-width:0.238125;stroke-linejoin:round;stroke-dasharray:none;stroke-opacity:1;paint-order:fill markers stroke"
         d="m 45.629614,40.669023 c -2.69256,-0.340443 -4.73666,-3.06487 -4.737179,-6.313827 0,-3.507008 2.36916,-6.35 5.291668,-6.35 1.461252,0 2.645834,1.895333 2.645834,4.233334 0,2.198347 -1.047608,4.005154 -2.387453,4.213179 2.814656,-0.165112 5.027702,-2.948233 5.033285,-6.329846 0,-3.507008 -2.36916,-6.35 -5.291666,-6.35 -4.676012,0 -8.466668,3.790656 -8.466668,8.466667 0.0095,4.453818 3.467912,8.138818 7.912179,8.430493 z"
         sodipodi:nodetypes="ccssccscc" />
    </g>
    <path
       id="path27"
       style="fill:none;fill-opacity:0.2;fill-rule:evenodd;stroke:#333333;stroke-width:0.238125;stroke-linejoin:round;stroke-opacity:1;paint-order:fill markers stroke;stroke-dasharray:none"
       d="M 20.637502,13.756945 A 7.9375015,7.9375007 0 0 1 12.7,21.694445 7.9375015,7.9375007 0 0 1 4.7624995,13.756945 7.9375015,7.9375007 0 0 1 12.7,5.8194442 7.9375015,7.9375007 0 0 1 20.637502,13.756945 Z" />
    <ellipse
       style="fill:none;fill-opacity:0.2;fill-rule:evenodd;stroke:#333333;stroke-width:0.238125;stroke-linejoin:round;stroke-dasharray:none;stroke-opacity:1;paint-order:fill markers stroke"
       id="path28"
       cx="12.700002"
       cy="13.758246"
       rx="2.4804692"
       ry="3.9687502" />
  </g>
</svg>
