<?xml version="1.0" encoding="UTF-8" standalone="no"?>
<svg
   width="128"
   height="128"
   viewBox="0 0 33.866666 33.866668"
   version="1.1"
   id="svg958"
   inkscape:version="1.3 (0e150ed6c4, 2023-07-21)"
   sodipodi:docname="uri.svg"
   xmlns:inkscape="http://www.inkscape.org/namespaces/inkscape"
   xmlns:sodipodi="http://sodipodi.sourceforge.net/DTD/sodipodi-0.dtd"
   xmlns:xlink="http://www.w3.org/1999/xlink"
   xmlns="http://www.w3.org/2000/svg"
   xmlns:svg="http://www.w3.org/2000/svg"
   xmlns:rdf="http://www.w3.org/1999/02/22-rdf-syntax-ns#"
   xmlns:cc="http://creativecommons.org/ns#"
   xmlns:dc="http://purl.org/dc/elements/1.1/">
  <defs
     id="defs952">
    <linearGradient
       id="linearGradient1617"
       inkscape:collect="always">
      <stop
         id="stop1613"
         offset="0"
         style="stop-color:#ffffe8;stop-opacity:1" />
      <stop
         id="stop1615"
         offset="1"
         style="stop-color:#ffe896;stop-opacity:1" />
    </linearGradient>
    <linearGradient
       id="linearGradient5188"
       inkscape:collect="always">
      <stop
         id="stop5184"
         offset="0"
         style="stop-color:#cacbff;stop-opacity:1" />
      <stop
         id="stop5186"
         offset="1"
         style="stop-color:#0054c7;stop-opacity:1" />
    </linearGradient>
    <linearGradient
       id="linearGradient5196"
       inkscape:collect="always">
      <stop
         id="stop5192"
         offset="0"
         style="stop-color:#00c700;stop-opacity:1" />
      <stop
         id="stop5194"
         offset="1"
         style="stop-color:#003500;stop-opacity:1" />
    </linearGradient>
    <linearGradient
       inkscape:collect="always"
       xlink:href="#linearGradient5196"
       id="linearGradient136"
       gradientUnits="userSpaceOnUse"
       gradientTransform="matrix(1.6805679,0,0,1.6805679,1.2071796,-469.35772)"
       x1="3.4431159"
       y1="283.60382"
       x2="10.099849"
       y2="291.45084" />
    <radialGradient
       inkscape:collect="always"
       xlink:href="#linearGradient5188"
       id="radialGradient136"
       gradientUnits="userSpaceOnUse"
       gradientTransform="matrix(2.370449,0.90582037,-0.71865767,1.8806603,203.32651,-531.77252)"
       cx="5.5915289"
       cy="286.61069"
       fx="5.5915289"
       fy="286.61069"
       r="5.0388217" />
    <linearGradient
       inkscape:collect="always"
       xlink:href="#linearGradient1617"
       id="linearGradient137"
       gradientUnits="userSpaceOnUse"
       gradientTransform="matrix(0.9789725,0,0,0.9789725,0.48186963,0.3732342)"
       x1="10.583333"
       y1="3.175"
       x2="25.4"
       y2="30.691668" />
    <linearGradient
       id="linearGradient3236">
      <stop
         style="stop-color:#ffffff;stop-opacity:1;"
         offset="0"
         id="stop3240" />
      <stop
         style="stop-color:#808080;stop-opacity:1;"
         offset="1"
         id="stop3244" />
    </linearGradient>
    <radialGradient
       inkscape:collect="always"
       xlink:href="#linearGradient3236"
       id="radialGradient9"
       cx="7.4083338"
       cy="13.496753"
       fx="7.4083338"
       fy="13.496753"
       r="10.054168"
       gradientTransform="matrix(1.9736842,0,6.293141e-8,0.97165988,-7.2133787,3.8190809)"
       gradientUnits="userSpaceOnUse" />
  </defs>
  <sodipodi:namedview
     inkscape:bbox-nodes="true"
     inkscape:snap-bbox-edge-midpoints="false"
     inkscape:bbox-paths="false"
     inkscape:snap-bbox="true"
     inkscape:snap-grids="false"
     units="px"
     showgrid="true"
     inkscape:document-rotation="0"
     inkscape:current-layer="layer1"
     inkscape:document-units="px"
     inkscape:cy="64"
     inkscape:cx="64"
     inkscape:zoom="6.578125"
     inkscape:pageshadow="2"
     inkscape:pageopacity="0.0"
     borderopacity="1.0"
     bordercolor="#666666"
     pagecolor="#ffffff"
     id="base"
     inkscape:pagecheckerboard="0"
     showguides="true"
     inkscape:guide-bbox="true"
     guidetolerance="10000"
     inkscape:snap-tangential="true"
     inkscape:snap-perpendicular="true"
     inkscape:window-width="1920"
     inkscape:window-height="1119"
     inkscape:window-x="0"
     inkscape:window-y="0"
     inkscape:window-maximized="1"
     inkscape:snap-to-guides="false"
     inkscape:snap-intersection-paths="false"
     inkscape:snap-bbox-midpoints="false"
     inkscape:snap-nodes="true"
     inkscape:object-paths="false"
     inkscape:showpageshadow="2"
     inkscape:deskcolor="#d1d1d1">
    <inkscape:grid
       id="grid1521"
       type="xygrid"
       empcolor="#ff2624"
       empopacity="0.2"
       originx="0"
       originy="0"
       spacingy="0.26458334"
       spacingx="0.26458334"
       units="px"
       visible="true"
       empspacing="4" />
    <sodipodi:guide
       position="6.5361112,12.172222"
       orientation="0,-1"
       id="guide846"
       inkscape:locked="false" />
    <sodipodi:guide
       position="4.7625,13.798641"
       orientation="1,0"
       id="guide848"
       inkscape:locked="false" />
    <sodipodi:guide
       position="4.7625,29.104928"
       orientation="0,-1"
       id="guide1"
       inkscape:locked="false" />
    <sodipodi:guide
       position="21.695835,30.95625"
       orientation="1,0"
       id="guide2"
       inkscape:locked="false" />
  </sodipodi:namedview>
  <metadata
     id="metadata955">
    <rdf:RDF>
      <cc:Work
         rdf:about="">
        <dc:format>image/svg+xml</dc:format>
        <dc:type
           rdf:resource="http://purl.org/dc/dcmitype/StillImage" />
      </cc:Work>
    </rdf:RDF>
  </metadata>
  <g
     id="layer1"
     inkscape:groupmode="layer"
     inkscape:label="Layer 1">
    <path
       style="fill:#000000;fill-opacity:0.196078;stroke:none;stroke-width:0.725255;stroke-miterlimit:4;stroke-dasharray:none;stroke-opacity:1;paint-order:markers stroke fill"
       d="M 26.49039,32.035407 32.706865,22.710694 26.49039,20.638537 Z"
       id="path1768"
       inkscape:connector-curvature="0"
       sodipodi:nodetypes="cccc" />
    <path
       sodipodi:nodetypes="ccccc"
       id="path131"
       d="M 9.8065896,2.4453932 30.00699,4.6118382 26.49039,32.035407 3.5901096,26.275214 Z"
       style="fill:url(#linearGradient137);fill-opacity:1;stroke:none;stroke-width:0.440334;stroke-linecap:butt;stroke-linejoin:miter;stroke-miterlimit:4;stroke-dasharray:none;stroke-opacity:1" />
    <path
       style="fill:none;stroke:#4d3e2e;stroke-width:0.238125;stroke-linecap:butt;stroke-linejoin:miter;stroke-miterlimit:4;stroke-dasharray:none;stroke-opacity:1"
       d="M 9.8065869,2.4453923 30.006987,4.6118375 26.49039,32.035407 3.5901115,26.275215 Z"
       id="path1553"
       sodipodi:nodetypes="ccccc" />
    <g
       id="text1"
       style="font-weight:bold;font-size:7.39186px;line-height:0.83;font-family:'Liberation Mono';-inkscape-font-specification:'Liberation Mono Bold';letter-spacing:0.659987px;stroke-width:0.263994"
       transform="scale(1.005984,0.99405155)"
       aria-label="0101&#10;1010&#10;1100&#10;0011" />
    <path
       style="color:#000000;font-style:normal;font-variant:normal;font-weight:normal;font-stretch:normal;font-size:medium;line-height:normal;font-family:sans-serif;font-variant-ligatures:normal;font-variant-position:normal;font-variant-caps:normal;font-variant-numeric:normal;font-variant-alternates:normal;font-feature-settings:normal;text-indent:0;text-align:start;text-decoration:none;text-decoration-line:none;text-decoration-style:solid;text-decoration-color:#000000;letter-spacing:normal;word-spacing:normal;text-transform:none;writing-mode:lr-tb;direction:ltr;text-orientation:mixed;dominant-baseline:auto;baseline-shift:baseline;text-anchor:start;white-space:normal;shape-padding:0;clip-rule:nonzero;display:inline;overflow:visible;visibility:visible;isolation:auto;mix-blend-mode:normal;color-interpolation:sRGB;color-interpolation-filters:linearRGB;solid-color:#000000;solid-opacity:1;vector-effect:none;fill:#000000;fill-opacity:0.196078;fill-rule:nonzero;stroke:none;stroke-width:0.467916;stroke-linecap:round;stroke-linejoin:bevel;stroke-miterlimit:4;stroke-dasharray:none;stroke-dashoffset:0;stroke-opacity:1;color-rendering:auto;image-rendering:auto;shape-rendering:auto;text-rendering:auto;enable-background:accumulate"
       d="M 17.135902,8.6298132 C 12.226448,7.7798054 7.3950134,10.335508 6.3514827,14.334502 c -1.043541,3.999004 2.0936927,7.935708 7.0031463,8.785725 4.909464,0.850016 9.743302,-1.706594 10.786843,-5.705597 1.043541,-3.999004 -2.096117,-7.9348006 -7.00557,-8.7848168 z"
       id="path132"
       inkscape:connector-curvature="0"
       inkscape:transform-center-x="-10.785818"
       inkscape:transform-center-y="-5.7053973" />
    <path
       style="fill:url(#radialGradient136);fill-opacity:1;stroke:none;stroke-width:0.849704;stroke-linecap:round;stroke-linejoin:bevel"
       d="M 21.69663,13.226521 A 8.4666663,8.4666635 0 0 1 13.22996,21.693188 8.4666663,8.4666635 0 0 1 4.7632996,13.226521 8.4666663,8.4666635 0 0 1 13.22996,4.7598542 8.4666663,8.4666635 0 0 1 21.69663,13.226521 Z"
       id="path133"
       inkscape:connector-curvature="0" />
    <path
       id="path134"
       style="fill:#000000;fill-opacity:0.196078;stroke:none;stroke-width:0.44465px;stroke-linecap:butt;stroke-linejoin:miter;stroke-opacity:1"
       d="m 11.9458,5.0857712 c -0.60077,0.03161 -1.32792,0.158035 -2.0551704,0.505912 -0.50591,0.126478 -2.65617,1.86552 -2.65617,1.86552 0,0 -0.0312,0.948545 -0.12609,2.371431 -0.0949,1.4228658 0.31604,1.1383268 0.72709,2.6876908 0.41105,1.549344 0.79026,1.075477 1.92856,2.561601 1.1383104,1.486106 1.1066904,0.473866 2.0236504,0.979785 0.91697,0.505873 1.10691,0.600997 1.10691,0.600997 l -0.72708,1.07487 c -0.54653,0.807897 -0.095,1.580905 0.53743,2.213302 0.63239,0.632377 0.66381,0.854058 0.56896,1.581298 -0.009,0.06526 -0.01,0.117225 -0.007,0.163815 a 8.4666663,8.4666635 0 0 0 5.7304,-2.269112 c 0.0622,-0.276994 0.089,-0.735842 -0.28422,-1.088306 -0.56915,-0.537525 -0.75909,-1.327996 -1.61282,-1.865519 -0.85373,-0.537505 -1.48592,-0.410889 -2.08669,-0.537435 -0.60077,-0.126438 -0.91713,0.31627 -1.29656,0.15813 -0.37944,-0.158082 -1.04361,-0.316252 -1.80248,-0.822172 -0.75887,-0.505899 0.0949,-0.44261 0.50591,-0.695565 0.41105,-0.252966 0.0315,-0.600997 0.0315,-0.600997 l -1.22112,-0.452686 c 0,0 -0.16979,0.67408 -0.58084,0.263033 -0.41105,-0.411057 -0.22173,-0.980164 0.12609,-1.359607 0.34781,-0.379521 2.15026,-0.379305 2.15026,-0.379305 0,0 -0.50566,1.169499 0.25321,1.296045 0.72725,0.189717 -0.0634,-1.296377 1.07487,-1.201477 1.13831,0.09485 2.8782,-0.639998 2.78278,-2.023649 -0.12648,-1.8338628 -1.92539,0.16481 -1.61283,-1.9606038 0.1581,-1.075058 -0.82217,-0.537435 -0.82217,-0.537435 0,0 -1.32811,-0.600633 -0.9803,-1.897041 0,0 -1.0751,-0.664154 -1.67587,-0.63252 z" />
    <path
       id="path135"
       style="fill:url(#linearGradient136);fill-opacity:1;stroke:none;stroke-width:0.44465px;stroke-linecap:butt;stroke-linejoin:miter;stroke-opacity:1"
       d="m 11.82746,4.8888842 a 8.4666663,8.4666635 0 0 0 -4.8456904,2.642733 c -0.0116,0.298205 -0.0398,0.973451 -0.11473,2.097546 -0.0949,1.4228668 0.31604,1.1383288 0.72709,2.6876908 0.41106,1.549355 0.79078,1.074959 1.92908,2.561084 1.1383104,1.486104 1.1066904,0.474392 2.0236504,0.980302 0.91697,0.505873 1.10639,0.600997 1.10639,0.600997 l -0.72708,1.07487 c -0.54653,0.807897 -0.095,1.580904 0.53743,2.213302 0.63239,0.632376 0.66433,0.854048 0.56948,1.581298 -0.022,0.168777 -0.005,0.279574 0.0403,0.35295 a 8.4666663,8.4666635 0 0 0 0.15658,0.01137 8.4666663,8.4666635 0 0 0 5.60018,-2.11925 c 0.0343,-0.403557 0.0255,-1.075896 -0.35864,-1.438672 -0.56915,-0.537535 -0.75909,-1.327996 -1.61282,-1.865519 -0.85373,-0.537496 -1.48592,-0.411405 -2.08669,-0.537952 -0.60077,-0.126438 -0.91713,0.316281 -1.29656,0.15813 -0.37944,-0.158082 -1.04309,-0.316253 -1.80196,-0.822172 -0.75887,-0.505901 0.0949,-0.442611 0.50591,-0.695565 0.41106,-0.252965 0.0315,-0.60048 0.0315,-0.60048 l -1.22163,-0.452686 c 0,0 -0.16979,0.674081 -0.58084,0.263033 -0.4110504,-0.411046 -0.22121,-0.980165 0.12661,-1.359607 0.34781,-0.379521 2.15025,-0.379821 2.15025,-0.379821 0,0 -0.50617,1.170014 0.2527,1.296561 0.72725,0.189726 -0.0634,-1.296377 1.07487,-1.201477 1.13831,0.09485 2.8782,-0.639998 2.78278,-2.0236488 -0.12648,-1.833863 -1.92539,0.1648078 -1.61282,-1.960604 0.15809,-1.075058 -0.82166,-0.537435 -0.82166,-0.537435 0,0 -1.32812,-0.600633 -0.9803,-1.897041 0,0 -0.94015,-0.580554 -1.5534,-0.629936 z" />
    <path
       style="fill:none;fill-opacity:1;stroke:#000000;stroke-width:0.238125;stroke-linecap:round;stroke-linejoin:bevel;stroke-dasharray:none;stroke-opacity:1"
       d="M 21.69663,13.226521 A 8.4666663,8.4666635 0 0 1 13.22996,21.693188 8.4666663,8.4666635 0 0 1 4.7632996,13.226521 8.4666663,8.4666635 0 0 1 13.22996,4.7598542 8.4666663,8.4666635 0 0 1 21.69663,13.226521 Z"
       id="path136"
       inkscape:connector-curvature="0" />
    <path
       id="rect26"
       style="fill:url(#radialGradient9);stroke-width:0.235254;stroke-linecap:round;paint-order:stroke fill markers"
       d="m 4.2333333,15.344448 16.9333357,0 3.175,3.175 -3.175,3.174997 -16.9333357,0 z"
       sodipodi:nodetypes="cccccc" />
    <path
       id="rect1-7"
       style="fill:none;fill-opacity:0.15;stroke:#000000;stroke-width:0.238125;stroke-linecap:square;stroke-linejoin:round;stroke-dasharray:none;paint-order:stroke fill markers"
       d="M 4.2333333,15.344448 H 21.166669 l 3.175,3.175 -3.175,3.174997 H 4.2333333 Z"
       sodipodi:nodetypes="cccccc" />
    <path
       style="font-weight:bold;font-size:5.82083px;line-height:0.95;font-family:'SFNS Display';-inkscape-font-specification:'SFNS Display Bold';letter-spacing:1.05833px;stroke-width:0.264583"
       d="m 8.1414998,19.001166 q 0,0.196112 0.056844,0.358118 0.056844,0.159163 0.1648478,0.272851 0.1108458,0.113688 0.2700092,0.176217 0.1620055,0.06253 0.3694862,0.06253 0.2046386,0 0.3638019,-0.06253 0.1620055,-0.06253 0.2700092,-0.176217 0.1108459,-0.113688 0.1676899,-0.272851 0.056844,-0.162006 0.056844,-0.358118 v -2.566508 h 0.8583449 v 2.651774 q 0,0.338222 -0.122215,0.6196 -0.119372,0.278536 -0.343906,0.480333 -0.221692,0.198954 -0.5400185,0.3098 -0.3183266,0.110845 -0.7105505,0.110845 -0.3950661,0 -0.7133927,-0.110845 -0.3183266,-0.110846 -0.5428606,-0.3098 -0.2216918,-0.201797 -0.3439065,-0.480333 -0.1193724,-0.281378 -0.1193724,-0.6196 v -2.651774 h 0.858345 z M 13.318181,18.41283 h 0.753183 q 0.326854,0 0.505912,-0.173374 0.179059,-0.173374 0.179059,-0.480332 0,-0.147795 -0.04832,-0.267167 -0.04832,-0.122215 -0.139268,-0.207481 -0.08811,-0.08527 -0.21885,-0.130741 -0.127899,-0.04832 -0.287062,-0.04832 h -0.744657 z m 0,2.123125 h -0.858345 v -4.101297 h 1.693952 q 0.352433,0 0.628127,0.09095 0.278536,0.09095 0.466121,0.261483 0.190428,0.16769 0.289905,0.409277 0.09948,0.241587 0.09948,0.545703 0,0.196112 -0.05116,0.378013 -0.04832,0.181901 -0.144952,0.332537 -0.09379,0.150637 -0.233061,0.270009 -0.139268,0.116531 -0.315484,0.184744 l 0.864029,1.628581 h -0.972033 l -0.764552,-1.500682 h -0.702024 z m 3.940323,0 v -4.101297 h 0.858345 v 4.101297 z"
       id="text11"
       aria-label="URI" />
  </g>
</svg>
