<?xml version="1.0" encoding="UTF-8" standalone="no"?>
<svg
   width="128"
   height="128"
   viewBox="0 0 33.866666 33.866668"
   version="1.1"
   id="svg958"
   inkscape:version="1.3 (0e150ed6c4, 2023-07-21)"
   sodipodi:docname="xml.svg"
   xmlns:inkscape="http://www.inkscape.org/namespaces/inkscape"
   xmlns:sodipodi="http://sodipodi.sourceforge.net/DTD/sodipodi-0.dtd"
   xmlns:xlink="http://www.w3.org/1999/xlink"
   xmlns="http://www.w3.org/2000/svg"
   xmlns:svg="http://www.w3.org/2000/svg"
   xmlns:rdf="http://www.w3.org/1999/02/22-rdf-syntax-ns#"
   xmlns:cc="http://creativecommons.org/ns#"
   xmlns:dc="http://purl.org/dc/elements/1.1/">
  <defs
     id="defs952">
    <linearGradient
       id="linearGradient1617"
       inkscape:collect="always">
      <stop
         id="stop1613"
         offset="0"
         style="stop-color:#ffffe8;stop-opacity:1" />
      <stop
         id="stop1615"
         offset="1"
         style="stop-color:#ffe896;stop-opacity:1" />
    </linearGradient>
    <linearGradient
       gradientTransform="matrix(0.9789725,0,0,0.9789725,0.48107585,0.37449131)"
       gradientUnits="userSpaceOnUse"
       y2="30.691668"
       x2="25.4"
       y1="3.175"
       x1="10.583333"
       id="linearGradient1619"
       xlink:href="#linearGradient1617"
       inkscape:collect="always" />
    <linearGradient
       inkscape:collect="always"
       xlink:href="#linearGradient7089"
       id="linearGradient16"
       x1="7.8637094"
       y1="15.388992"
       x2="25.874912"
       y2="15.388992"
       gradientUnits="userSpaceOnUse"
       gradientTransform="translate(0.07658437,0.2188127)" />
    <linearGradient
       inkscape:collect="always"
       id="linearGradient7089">
      <stop
         style="stop-color:#aa8a34;stop-opacity:0.34999999;"
         offset="0"
         id="stop7085" />
      <stop
         style="stop-color:#caa22c;stop-opacity:0.34999999;"
         offset="1"
         id="stop7087" />
    </linearGradient>
  </defs>
  <sodipodi:namedview
     inkscape:bbox-nodes="true"
     inkscape:snap-bbox-edge-midpoints="false"
     inkscape:bbox-paths="false"
     inkscape:snap-bbox="true"
     inkscape:snap-grids="false"
     units="px"
     showgrid="false"
     inkscape:document-rotation="0"
     inkscape:current-layer="layer1"
     inkscape:document-units="px"
     inkscape:cy="64.07601"
     inkscape:cx="64.07601"
     inkscape:zoom="6.578125"
     inkscape:pageshadow="2"
     inkscape:pageopacity="0.0"
     borderopacity="1.0"
     bordercolor="#666666"
     pagecolor="#ffffff"
     id="base"
     inkscape:pagecheckerboard="0"
     showguides="false"
     inkscape:guide-bbox="true"
     guidetolerance="10000"
     inkscape:snap-tangential="true"
     inkscape:snap-perpendicular="true"
     inkscape:window-width="1920"
     inkscape:window-height="1093"
     inkscape:window-x="0"
     inkscape:window-y="0"
     inkscape:window-maximized="1"
     inkscape:snap-to-guides="false"
     inkscape:snap-intersection-paths="false"
     inkscape:snap-bbox-midpoints="false"
     inkscape:snap-nodes="true"
     inkscape:object-paths="false"
     inkscape:showpageshadow="2"
     inkscape:deskcolor="#d1d1d1">
    <inkscape:grid
       id="grid1521"
       type="xygrid"
       empcolor="#ff2624"
       empopacity="0.2"
       originx="0"
       originy="0"
       spacingy="0.26458334"
       spacingx="0.26458334"
       units="px"
       visible="false"
       empspacing="4" />
    <sodipodi:guide
       position="18.785418,15.08125"
       orientation="0,-1"
       id="guide846"
       inkscape:locked="false" />
    <sodipodi:guide
       position="8.4666674,14.2875"
       orientation="1,0"
       id="guide848"
       inkscape:locked="false" />
    <sodipodi:guide
       position="17.826302,21.695833"
       orientation="0,-1"
       id="guide1"
       inkscape:locked="false" />
    <sodipodi:guide
       position="27.781252,22.754167"
       orientation="1,0"
       id="guide2"
       inkscape:locked="false" />
  </sodipodi:namedview>
  <metadata
     id="metadata955">
    <rdf:RDF>
      <cc:Work
         rdf:about="">
        <dc:format>image/svg+xml</dc:format>
        <dc:type
           rdf:resource="http://purl.org/dc/dcmitype/StillImage" />
      </cc:Work>
    </rdf:RDF>
  </metadata>
  <g
     id="layer1"
     inkscape:groupmode="layer"
     inkscape:label="Layer 1">
    <g
       id="text8"
       style="font-size:1.05833px;line-height:1.15;font-family:Georgia;-inkscape-font-specification:Georgia;stroke-width:0.264583"
       aria-label="&lt;?xml version=&quot;1.0&quot; encoding=&quot;UTF-8&quot;?&gt;&#10;&#10;&lt;mesage&gt;&#10;  &lt;sender&gt;Ronald&lt;/sender&gt;&#10;  &lt;title&gt;Hello&lt;/title&gt;&#10;  &lt;body&gt;&#10;    Don't forget the presentation!&#10;  &lt;/body&gt;&#10;&lt;/mesage&gt;&#10;&#10;&lt;mesage&gt;&#10;  &lt;sender&gt;Edward&lt;/sender&gt;&#10;  &lt;title&gt;Good morning&lt;/title&gt;&#10;  &lt;body&gt;&#10;    The meeting is at 10!&#10;  &lt;/body&gt;&#10;&lt;/mesage&gt;" />
    <path
       style="fill:#000000;fill-opacity:0.196078;stroke:none;stroke-width:0.725255;stroke-miterlimit:4;stroke-dasharray:none;stroke-opacity:1;paint-order:markers stroke fill"
       d="M 26.49039,32.035407 32.706865,22.710694 26.49039,20.638537 Z"
       id="path1768"
       inkscape:connector-curvature="0"
       sodipodi:nodetypes="cccc" />
    <path
       sodipodi:nodetypes="ccccc"
       id="path1611"
       d="M 9.8057889,2.4466498 30.006189,4.613095 26.489592,32.036664 3.5893135,26.276471 Z"
       style="fill:url(#linearGradient1619);fill-opacity:1;stroke:none;stroke-width:0.440334;stroke-linecap:butt;stroke-linejoin:miter;stroke-miterlimit:4;stroke-dasharray:none;stroke-opacity:1" />
    <path
       id="path1"
       style="color:#000000;fill:url(#linearGradient16);-inkscape-stroke:none"
       d="M 12.302198,5.7103222 12.132943,6.4142683 25.834938,8.1535269 25.951497,7.3873673 Z M 11.881809,7.458753 11.708671,8.1788471 25.54241,10.076363 25.661846,9.2912883 Z m -0.430212,1.7892848 -0.176674,0.7348039 13.967904,2.0627263 0.12209,-0.802515 z m -0.439698,1.8287412 -0.180721,0.751631 14.104617,2.235327 0.12511,-0.822362 z m -0.449803,1.870763 -0.184806,0.768622 14.243883,2.415635 0.128172,-0.842496 z m -0.460156,1.913824 -0.1895484,0.78835 14.3859254,2.60427 0.131709,-0.865744 z m -0.4710796,1.95926 -0.1940444,0.807046 14.530598,2.801389 0.135092,-0.887982 z m -0.4821845,2.005442 -0.1988083,0.826859 14.6780674,3.007587 0.138681,-0.911578 z m -0.4939051,2.054189 -0.2035266,0.846483 14.8283738,3.223316 0.14226,-0.9351 z m -0.5062837,2.105674 -0.2081933,0.865891 7.1818272,1.653464 0.179876,-0.909942 z" />
    <path
       style="fill:none;stroke:#4d3e2e;stroke-width:0.238125;stroke-linecap:butt;stroke-linejoin:miter;stroke-miterlimit:4;stroke-dasharray:none;stroke-opacity:1"
       d="M 9.8065869,2.4453923 30.006987,4.6118375 26.49039,32.035407 3.5901115,26.275215 Z"
       id="path1553"
       sodipodi:nodetypes="ccccc" />
    <g
       id="text1"
       style="font-weight:bold;font-size:7.39186px;line-height:0.83;font-family:'Liberation Mono';-inkscape-font-specification:'Liberation Mono Bold';letter-spacing:0.659987px;stroke-width:0.263994"
       transform="scale(1.005984,0.99405155)"
       aria-label="0101&#10;1010&#10;1100&#10;0011" />
    <path
       style="font-style:italic;font-size:10.5833px;line-height:0.95;font-family:Georgia;-inkscape-font-specification:'Georgia Italic';fill:#000000;stroke-width:0.264583;fill-opacity:0.2"
       d="m 14.559168,14.287824 q -0.0052,0.299722 -0.222207,0.444416 -0.211873,0.139526 -0.465087,0.139526 -0.155029,0 -0.351399,-0.05168 -0.196369,-0.05684 -0.310057,-0.09302 -0.232543,0.206705 -0.542601,0.60978 -0.30489,0.403075 -0.578774,0.888832 0.124023,0.490924 0.222208,0.842323 0.09818,0.346231 0.211873,0.69763 0.09818,0.315225 0.30489,0.506427 0.211872,0.186035 0.552936,0.186035 0.124023,0 0.341063,-0.03101 0.21704,-0.03617 0.335896,-0.07751 l -0.09302,0.341064 q -0.496092,0.206705 -0.749305,0.268716 -0.248047,0.06201 -0.537434,0.06201 -0.361734,0 -0.599444,-0.165364 -0.232544,-0.165364 -0.377237,-0.682127 -0.103353,-0.377237 -0.170532,-0.63045 -0.06201,-0.258382 -0.124023,-0.511595 -0.237711,0.356566 -0.392739,0.60978 -0.155029,0.248046 -0.516763,0.687294 -0.315227,0.382404 -0.5787771,0.542601 -0.2635489,0.160196 -0.5374332,0.160196 -0.2428784,0 -0.3979072,-0.139526 -0.1601965,-0.144693 -0.1601965,-0.397907 0,-0.242878 0.1860346,-0.41341 0.1860346,-0.175699 0.5115951,-0.175699 0.165364,0 0.3203928,0.06201 0.1601965,0.05684 0.3307295,0.10852 0.196371,-0.186034 0.516764,-0.578774 0.325561,-0.39274 0.604612,-0.893999 -0.09818,-0.366902 -0.21704,-0.80615 -0.113688,-0.439248 -0.21704,-0.769977 -0.134359,-0.418577 -0.310058,-0.537433 -0.175699,-0.118855 -0.449586,-0.118855 -0.1498613,0 -0.320393,0.04134 -0.1653641,0.04134 -0.3100576,0.08268 l 0.098185,-0.341064 q 0.3979073,-0.165364 0.7131346,-0.268716 0.320393,-0.10852 0.434081,-0.10852 0.356566,0 0.58911,0.175699 0.23771,0.170532 0.377236,0.666624 0.160197,0.573606 0.186035,0.702797 0.03101,0.124023 0.113688,0.496092 0.248046,-0.382404 0.403075,-0.645953 0.155028,-0.263549 0.506427,-0.69763 0.325561,-0.408242 0.599445,-0.558103 0.279052,-0.155029 0.532265,-0.155029 0.227376,0 0.382405,0.149861 0.160196,0.144694 0.155028,0.377237 z m 8.784966,4.061754 -0.07751,0.330729 q -0.475422,0.191202 -0.759641,0.263549 -0.28422,0.07751 -0.485757,0.07751 -0.41341,0 -0.620115,-0.211873 -0.206706,-0.21704 -0.206706,-0.532265 0,-0.113688 0.02067,-0.248046 0.02067,-0.139526 0.06718,-0.325561 l 0.506428,-1.927525 q 0.05684,-0.222208 0.08785,-0.403075 0.03617,-0.180867 0.03617,-0.289387 0,-0.346231 -0.149862,-0.547768 -0.149862,-0.201534 -0.475422,-0.201534 -0.346231,0 -0.682127,0.165364 -0.330728,0.160197 -0.749306,0.604613 L 18.956819,18.93352 H 17.99564 l 0.811318,-3.451974 q 0.02584,-0.113688 0.04651,-0.237711 0.02584,-0.129191 0.02584,-0.191202 0,-0.335896 -0.170532,-0.527098 -0.165367,-0.191203 -0.490928,-0.191203 -0.294554,0 -0.651121,0.149862 -0.356566,0.144693 -0.82682,0.656288 L 15.866578,18.93352 H 14.9054 l 0.769976,-3.348622 q 0.04134,-0.180867 0.07751,-0.387572 0.04134,-0.206705 0.04134,-0.351399 0,-0.299722 -0.09818,-0.392739 -0.09819,-0.09818 -0.382405,-0.09818 -0.113688,0 -0.294555,0.04134 -0.175699,0.04134 -0.273884,0.06718 l 0.07752,-0.330728 q 0.403075,-0.180867 0.713132,-0.268717 0.310058,-0.08785 0.532266,-0.08785 0.41341,0 0.583942,0.227375 0.175699,0.222208 0.186034,0.60978 h 0.03101 q 0.60978,-0.480589 1.002519,-0.687294 0.39274,-0.206705 0.935341,-0.206705 0.459919,0 0.744138,0.268716 0.289387,0.263549 0.325561,0.666624 h 0.02067 q 0.552936,-0.459918 0.981849,-0.697629 0.434081,-0.237711 1.007687,-0.237711 0.496093,0 0.759642,0.289387 0.268716,0.284219 0.268716,0.749306 0,0.09302 -0.03101,0.330728 -0.02584,0.237711 -0.08785,0.470254 l -0.434081,1.658808 q -0.04651,0.165364 -0.08785,0.382405 -0.04134,0.211872 -0.04134,0.330728 0,0.294554 0.124023,0.403075 0.124024,0.103352 0.418578,0.103352 0.09819,0 0.28422,-0.02584 0.186034,-0.02584 0.284219,-0.06201 z m 3.400299,-7.33803 -1.441768,6.221823 q -0.04651,0.19637 -0.08785,0.39274 -0.04134,0.19637 -0.04134,0.320393 0,0.294554 0.129191,0.403074 0.134358,0.108521 0.428913,0.108521 0.103352,0 0.30489,-0.02584 0.206705,-0.02584 0.310057,-0.06201 l -0.07751,0.330728 q -0.465087,0.186035 -0.7183,0.263549 -0.248046,0.07751 -0.563272,0.07751 -0.41341,0 -0.63045,-0.211872 -0.211873,-0.217041 -0.211873,-0.532266 0,-0.118855 0.02067,-0.248046 0.02584,-0.129191 0.06718,-0.32556 l 1.255733,-5.441511 q 0.03617,-0.160197 0.04651,-0.222208 0.0155,-0.06201 0.0155,-0.155029 0,-0.186035 -0.06201,-0.28422 -0.06201,-0.103352 -0.175699,-0.155028 -0.10852,-0.04651 -0.273884,-0.06201 -0.165364,-0.0155 -0.335896,-0.03617 l 0.07235,-0.315226 1.917189,-0.118855 z"
       id="path88"
       aria-label="xml" />
    <path
       style="font-style:italic;font-size:10.5833px;line-height:0.95;font-family:Georgia;-inkscape-font-specification:'Georgia Italic';fill:#171799;stroke-width:0.264583;fill-opacity:1"
       d="m 14.19717,14.046492 q -0.0052,0.299722 -0.222207,0.444416 -0.211873,0.139526 -0.465087,0.139526 -0.155029,0 -0.351399,-0.05168 -0.196369,-0.05684 -0.310057,-0.09302 -0.232543,0.206705 -0.542601,0.60978 -0.30489,0.403075 -0.578774,0.888832 0.124023,0.490924 0.222208,0.842323 0.09818,0.346231 0.211873,0.69763 0.09818,0.315225 0.30489,0.506427 0.211872,0.186035 0.552936,0.186035 0.124023,0 0.341063,-0.03101 0.21704,-0.03617 0.335896,-0.07751 l -0.09302,0.341064 q -0.496092,0.206705 -0.749305,0.268716 -0.248047,0.06201 -0.537434,0.06201 -0.361734,0 -0.599444,-0.165364 -0.232544,-0.165364 -0.377237,-0.682127 -0.103353,-0.377237 -0.170532,-0.63045 -0.06201,-0.258382 -0.124023,-0.511595 -0.237711,0.356566 -0.392739,0.60978 -0.155029,0.248046 -0.516763,0.687294 -0.3152254,0.382404 -0.5787744,0.542601 -0.2635489,0.160196 -0.5374332,0.160196 -0.2428784,0 -0.3979072,-0.139526 -0.1601965,-0.144693 -0.1601965,-0.397907 0,-0.242878 0.1860346,-0.41341 0.1860346,-0.175699 0.5115951,-0.175699 0.165364,0 0.3203928,0.06201 0.1601965,0.05684 0.3307281,0.10852 0.1963697,-0.186034 0.5167627,-0.578774 0.325561,-0.39274 0.604612,-0.893999 -0.09818,-0.366902 -0.21704,-0.80615 -0.113688,-0.439248 -0.21704,-0.769977 -0.134359,-0.418577 -0.310058,-0.537433 -0.175699,-0.118855 -0.4495834,-0.118855 -0.1498612,0 -0.3203929,0.04134 -0.1653641,0.04134 -0.3100576,0.08268 l 0.098185,-0.341064 q 0.3979073,-0.165364 0.7131325,-0.268716 0.3203925,-0.10852 0.4340805,-0.10852 0.356566,0 0.58911,0.175699 0.23771,0.170532 0.377236,0.666624 0.160197,0.573606 0.186035,0.702797 0.03101,0.124023 0.113688,0.496092 0.248046,-0.382404 0.403075,-0.645953 0.155028,-0.263549 0.506427,-0.69763 0.325561,-0.408242 0.599445,-0.558103 0.279052,-0.155029 0.532265,-0.155029 0.227376,0 0.382405,0.149861 0.160196,0.144694 0.155028,0.377237 z m 8.784966,4.061754 -0.07751,0.330729 q -0.475422,0.191202 -0.759641,0.263549 -0.28422,0.07751 -0.485757,0.07751 -0.41341,0 -0.620115,-0.211873 -0.206706,-0.21704 -0.206706,-0.532265 0,-0.113688 0.02067,-0.248046 0.02067,-0.139526 0.06718,-0.325561 l 0.506428,-1.927525 q 0.05684,-0.222208 0.08785,-0.403075 0.03617,-0.180867 0.03617,-0.289387 0,-0.346231 -0.149862,-0.547768 Q 21.250981,14.093 20.925421,14.093 q -0.346231,0 -0.682127,0.165364 -0.330728,0.160197 -0.749306,0.604613 l -0.899167,3.829211 h -0.961179 l 0.811318,-3.451974 q 0.02584,-0.113688 0.04651,-0.237711 0.02584,-0.129191 0.02584,-0.191202 0,-0.335896 -0.170532,-0.527098 Q 18.181411,14.093 17.85585,14.093 q -0.294554,0 -0.651121,0.149862 -0.356566,0.144693 -0.82682,0.656288 l -0.873329,3.793038 h -0.961178 l 0.769976,-3.348622 q 0.04134,-0.180867 0.07751,-0.387572 0.04134,-0.206705 0.04134,-0.351399 0,-0.299722 -0.09818,-0.392739 -0.09819,-0.09818 -0.382405,-0.09818 -0.113688,0 -0.294555,0.04134 -0.175699,0.04134 -0.273884,0.06718 l 0.07752,-0.330728 q 0.403075,-0.180867 0.713132,-0.268717 0.310058,-0.08785 0.532266,-0.08785 0.41341,0 0.583942,0.227375 0.175699,0.222208 0.186034,0.60978 h 0.03101 q 0.60978,-0.480589 1.002519,-0.687294 0.39274,-0.206705 0.935341,-0.206705 0.459919,0 0.744138,0.268716 0.289387,0.263549 0.325561,0.666624 h 0.02067 q 0.552936,-0.459918 0.981849,-0.697629 0.434081,-0.237711 1.007687,-0.237711 0.496093,0 0.759642,0.289387 0.268716,0.284219 0.268716,0.749306 0,0.09302 -0.03101,0.330728 -0.02584,0.237711 -0.08785,0.470254 l -0.434081,1.658808 q -0.04651,0.165364 -0.08785,0.382405 -0.04134,0.211872 -0.04134,0.330728 0,0.294554 0.124023,0.403075 0.124024,0.103352 0.418578,0.103352 0.09819,0 0.28422,-0.02584 0.186034,-0.02584 0.284219,-0.06201 z m 3.400299,-7.33803 -1.441768,6.221823 q -0.04651,0.19637 -0.08785,0.39274 -0.04134,0.19637 -0.04134,0.320393 0,0.294554 0.129191,0.403074 0.134358,0.108521 0.428913,0.108521 0.103352,0 0.30489,-0.02584 0.206705,-0.02584 0.310057,-0.06201 l -0.07751,0.330728 q -0.465087,0.186035 -0.7183,0.263549 -0.248046,0.07751 -0.563272,0.07751 -0.41341,0 -0.63045,-0.211872 -0.211873,-0.217041 -0.211873,-0.532266 0,-0.118855 0.02067,-0.248046 0.02584,-0.129191 0.06718,-0.32556 l 1.255733,-5.441511 q 0.03617,-0.160197 0.04651,-0.222208 0.0155,-0.06201 0.0155,-0.155029 0,-0.186035 -0.06201,-0.28422 -0.06201,-0.103352 -0.175699,-0.155028 -0.10852,-0.04651 -0.273884,-0.06201 -0.165364,-0.0155 -0.335896,-0.03617 l 0.07235,-0.315226 1.917189,-0.118855 z"
       id="text5"
       aria-label="xml" />
  </g>
</svg>
