<?xml version="1.0" encoding="UTF-8" standalone="no"?>
<svg
   width="128"
   height="128"
   viewBox="0 0 33.866666 33.866668"
   version="1.1"
   id="svg958"
   inkscape:version="1.3 (0e150ed6c4, 2023-07-21)"
   sodipodi:docname="application-x-m4.svg"
   xmlns:inkscape="http://www.inkscape.org/namespaces/inkscape"
   xmlns:sodipodi="http://sodipodi.sourceforge.net/DTD/sodipodi-0.dtd"
   xmlns:xlink="http://www.w3.org/1999/xlink"
   xmlns="http://www.w3.org/2000/svg"
   xmlns:svg="http://www.w3.org/2000/svg"
   xmlns:rdf="http://www.w3.org/1999/02/22-rdf-syntax-ns#"
   xmlns:cc="http://creativecommons.org/ns#"
   xmlns:dc="http://purl.org/dc/elements/1.1/">
  <defs
     id="defs952">
    <linearGradient
       id="linearGradient1617"
       inkscape:collect="always">
      <stop
         id="stop1613"
         offset="0"
         style="stop-color:#ffffe8;stop-opacity:1" />
      <stop
         id="stop1615"
         offset="1"
         style="stop-color:#ffe896;stop-opacity:1" />
    </linearGradient>
    <linearGradient
       gradientTransform="matrix(0.9789725,0,0,0.9789725,0.48107585,0.37449131)"
       gradientUnits="userSpaceOnUse"
       y2="30.691668"
       x2="25.4"
       y1="3.175"
       x1="10.583333"
       id="linearGradient1619"
       xlink:href="#linearGradient1617"
       inkscape:collect="always" />
    <inkscape:path-effect
       effect="perspective-envelope"
       up_left_point="-30.691667,2.1166667"
       up_right_point="-5.2916667,2.1166667"
       down_left_point="-30.691667,31.749999"
       down_right_point="-5.2916667,31.749999"
       id="path-effect16-5"
       is_visible="true"
       lpeversion="1"
       deform_type="perspective"
       horizontal_mirror="false"
       vertical_mirror="false"
       overflow_perspective="false" />
    <linearGradient
       y2="293.25934"
       x2="24.576395"
       y1="263.83768"
       x1="-6.4894447"
       gradientTransform="translate(0.001781,-263.13607)"
       gradientUnits="userSpaceOnUse"
       id="linearGradient1080"
       xlink:href="#linearGradient15813"
       inkscape:collect="always" />
    <linearGradient
       inkscape:collect="always"
       id="linearGradient15813">
      <stop
         style="stop-color:#e5c654;stop-opacity:1"
         offset="0"
         id="stop15809" />
      <stop
         style="stop-color:#ecd581;stop-opacity:1"
         offset="1"
         id="stop15811" />
    </linearGradient>
  </defs>
  <sodipodi:namedview
     inkscape:bbox-nodes="true"
     inkscape:snap-bbox-edge-midpoints="false"
     inkscape:bbox-paths="false"
     inkscape:snap-bbox="true"
     inkscape:snap-grids="false"
     units="px"
     showgrid="false"
     inkscape:document-rotation="0"
     inkscape:current-layer="layer1"
     inkscape:document-units="px"
     inkscape:cy="63.449631"
     inkscape:cx="64.078624"
     inkscape:zoom="6.359375"
     inkscape:pageshadow="2"
     inkscape:pageopacity="0.0"
     borderopacity="1.0"
     bordercolor="#666666"
     pagecolor="#ffffff"
     id="base"
     inkscape:pagecheckerboard="0"
     showguides="false"
     inkscape:guide-bbox="true"
     guidetolerance="10000"
     inkscape:snap-tangential="true"
     inkscape:snap-perpendicular="true"
     inkscape:window-width="1920"
     inkscape:window-height="1011"
     inkscape:window-x="0"
     inkscape:window-y="0"
     inkscape:window-maximized="1"
     inkscape:snap-to-guides="false"
     inkscape:snap-intersection-paths="false"
     inkscape:snap-bbox-midpoints="false"
     inkscape:snap-nodes="true"
     inkscape:object-paths="false"
     inkscape:showpageshadow="2"
     inkscape:deskcolor="#d1d1d1">
    <inkscape:grid
       id="grid1521"
       type="xygrid"
       empcolor="#ff2624"
       empopacity="0.2"
       originx="0"
       originy="0"
       spacingy="0.26458334"
       spacingx="0.26458334"
       units="px"
       visible="false"
       empspacing="4" />
    <sodipodi:guide
       position="6.5361112,12.172222"
       orientation="0,-1"
       id="guide846"
       inkscape:locked="false" />
    <sodipodi:guide
       position="4.7625,13.798641"
       orientation="1,0"
       id="guide848"
       inkscape:locked="false" />
    <sodipodi:guide
       position="4.7625,29.104928"
       orientation="0,-1"
       id="guide1"
       inkscape:locked="false" />
    <sodipodi:guide
       position="21.695835,30.95625"
       orientation="1,0"
       id="guide2"
       inkscape:locked="false" />
  </sodipodi:namedview>
  <metadata
     id="metadata955">
    <rdf:RDF>
      <cc:Work
         rdf:about="">
        <dc:format>image/svg+xml</dc:format>
        <dc:type
           rdf:resource="http://purl.org/dc/dcmitype/StillImage" />
      </cc:Work>
    </rdf:RDF>
  </metadata>
  <g
     id="layer1"
     inkscape:groupmode="layer"
     inkscape:label="Layer 1">
    <path
       style="fill:#000000;fill-opacity:0.196078;stroke:none;stroke-width:0.725255;stroke-miterlimit:4;stroke-dasharray:none;stroke-opacity:1;paint-order:markers stroke fill"
       d="M 26.49039,32.035407 32.706865,22.710694 26.49039,20.638537 Z"
       id="path1768"
       inkscape:connector-curvature="0"
       sodipodi:nodetypes="cccc" />
    <path
       sodipodi:nodetypes="ccccc"
       id="path1611"
       d="M 9.8057889,2.4466498 30.006189,4.613095 26.489592,32.036664 3.5893135,26.276471 Z"
       style="fill:url(#linearGradient1619);fill-opacity:1;stroke:none;stroke-width:0.440334;stroke-linecap:butt;stroke-linejoin:miter;stroke-miterlimit:4;stroke-dasharray:none;stroke-opacity:1" />
    <path
       style="fill:none;stroke:#4d3e2e;stroke-width:0.238125;stroke-linecap:butt;stroke-linejoin:miter;stroke-miterlimit:4;stroke-dasharray:none;stroke-opacity:1"
       d="M 9.8065869,2.4453923 30.006987,4.6118375 26.49039,32.035407 3.5901115,26.275215 Z"
       id="path1553"
       sodipodi:nodetypes="ccccc" />
    <path
       style="fill:#000000;fill-opacity:0.2;stroke-width:0.502708;stroke-linecap:square;stroke-linejoin:round;stroke-opacity:0.05"
       id="path10"
       width="25.4"
       height="29.633333"
       x="-30.691666"
       y="2.1166663"
       sodipodi:type="rect"
       d="m -30.691667,2.1166667 25.4000003,0 V 31.749999 l -25.4000003,0 z"
       inkscape:path-effect="#path-effect16-5"
       transform="translate(-20.108337)" />
    <path
       style="fill:url(#linearGradient1080);fill-opacity:1;stroke-width:0.502708;stroke-linecap:square;stroke-miterlimit:4;stroke-dasharray:none"
       d="M 12.457415,8.0010244 25.319009,9.7782444 25.15957,10.836414 12.232155,8.9697144 Z m -0.47402,2.0384396 9.99944,1.51183 -0.174721,1.03805 -10.050096,-1.58069 z m -0.474598,2.04092 13.138782,2.15403 -0.159192,1.05654 -13.204503,-2.24337 z m -0.461983,1.98667 10.209944,1.79799 -0.174631,1.03752 -10.260573,-1.86682 z m -0.474135,2.03893 13.41232,2.52588 -0.159521,1.05871 -13.478175,-2.6154 z m -0.474136,2.03894 10.423076,2.08772 -0.174632,1.03752 -10.473705,-2.15655 z m -0.474137,2.03894 13.687866,2.90222 -0.167803,1.11362 -13.757131,-2.99638 z"
       id="path1074"
       inkscape:connector-curvature="0"
       sodipodi:nodetypes="ccccccccccccccccccccccccccccccccccc" />
    <path
       id="path1"
       d="m 11.437669,12.900806 -1.074867,3.728964 q 0.719334,-1.314646 1.223695,-1.976103 0.78548,-1.025258 1.52962,-1.488278 0.438215,-0.264583 0.917771,-0.264583 0.413411,0 0.686262,0.264583 0.272851,0.264583 0.272851,0.677993 0,0.405143 -0.190169,1.058331 l -0.587043,2.100127 q 1.347719,-2.521805 2.554878,-3.538796 0.669725,-0.562238 1.322914,-0.562238 0.380338,0 0.620116,0.264583 0.248045,0.256314 0.248045,0.802016 0,0.479557 -0.148828,1.016991 l -0.909502,3.216334 q -0.297656,1.050063 -0.297656,1.165818 0,0.115755 0.07441,0.198438 0.04961,0.05788 0.132291,0.05788 0.08268,0 0.289388,-0.157096 0.471288,-0.363801 0.884699,-0.959113 l 0.27285,0.173633 q -0.206706,0.330728 -0.73587,0.909503 -0.520898,0.578775 -0.892967,0.78548 -0.37207,0.206706 -0.686262,0.206706 -0.289387,0 -0.487824,-0.198437 -0.190169,-0.198437 -0.190169,-0.487825 0,-0.396874 0.338996,-1.595765 l 0.752408,-2.654096 q 0.256314,-0.917772 0.272851,-1.016991 0.0248,-0.157096 0.0248,-0.305923 0,-0.206706 -0.09095,-0.322461 -0.09922,-0.115755 -0.223242,-0.115755 -0.347265,0 -0.735871,0.355533 -1.141013,1.050063 -2.133199,2.943484 -0.653188,1.2485 -1.223695,3.199799 h -1.2485 l 1.413864,-5.002269 q 0.23151,-0.810285 0.23151,-1.083136 0,-0.223242 -0.09095,-0.330729 -0.09095,-0.107486 -0.223242,-0.107486 -0.272851,0 -0.578775,0.198437 -0.496093,0.32246 -1.281573,1.380791 -0.777212,1.058332 -1.207158,2.025712 -0.206705,0.454752 -0.9839165,2.91868 H 8.055972 L 9.5855914,15.02574 9.7840285,14.33121 q 0.057878,-0.157096 0.057878,-0.23151 0,-0.181901 -0.1653643,-0.32246 -0.1653643,-0.148828 -0.4216789,-0.148828 -0.1074867,0 -0.5953113,0.09922 L 8.585138,13.421708 Z"
       style="font-style:italic;font-variant:normal;font-weight:normal;font-stretch:normal;font-size:16.9333px;line-height:0.8;font-family:'Times New Roman';-inkscape-font-specification:'Times New Roman, Italic';fill:#000000;fill-opacity:0.2;stroke-width:0.185208;stroke-linecap:square" />
    <path
       id="path881"
       d="M 11.063224,12.651176 9.9883566,16.38014 q 0.7193344,-1.314646 1.2236954,-1.976103 0.78548,-1.025258 1.52962,-1.488278 0.438215,-0.264583 0.917771,-0.264583 0.413411,0 0.686262,0.264583 0.272851,0.264583 0.272851,0.677993 0,0.405143 -0.190169,1.058331 l -0.587043,2.100127 q 1.347719,-2.521805 2.554878,-3.538796 0.669725,-0.562238 1.322914,-0.562238 0.380338,0 0.620116,0.264583 0.248045,0.256314 0.248045,0.802016 0,0.479557 -0.148828,1.016991 L 17.528967,17.9511 q -0.297656,1.050063 -0.297656,1.165818 0,0.115755 0.07441,0.198438 0.04961,0.05788 0.132291,0.05788 0.08268,0 0.289388,-0.157096 0.471288,-0.363801 0.884699,-0.959113 l 0.27285,0.173633 q -0.206706,0.330728 -0.73587,0.909503 -0.520898,0.578775 -0.892967,0.78548 -0.37207,0.206706 -0.686262,0.206706 -0.289387,0 -0.487824,-0.198437 -0.190169,-0.198437 -0.190169,-0.487825 0,-0.396874 0.338996,-1.595765 l 0.752408,-2.654096 q 0.256314,-0.917772 0.272851,-1.016991 0.0248,-0.157096 0.0248,-0.305923 0,-0.206706 -0.09095,-0.322461 -0.09922,-0.115755 -0.223242,-0.115755 -0.347265,0 -0.735871,0.355533 -1.141013,1.050063 -2.133199,2.943484 -0.653188,1.2485 -1.223695,3.199799 h -1.2485 l 1.413864,-5.002269 q 0.23151,-0.810285 0.23151,-1.083136 0,-0.223242 -0.09095,-0.330729 -0.09095,-0.107486 -0.223242,-0.107486 -0.272851,0 -0.578775,0.198437 -0.496093,0.32246 -1.281573,1.380791 -0.777212,1.058332 -1.207159,2.025712 -0.2067053,0.454752 -0.9839173,2.91868 H 7.6815252 L 9.2111446,14.77611 9.4095817,14.08158 q 0.057878,-0.157096 0.057878,-0.23151 0,-0.181901 -0.1653643,-0.32246 -0.1653643,-0.148828 -0.4216789,-0.148828 -0.1074867,0 -0.5953113,0.09922 l -0.074414,-0.305924 z"
       style="font-style:italic;font-variant:normal;font-weight:normal;font-stretch:normal;font-size:16.9333px;line-height:0.8;font-family:'Times New Roman';-inkscape-font-specification:'Times New Roman, Italic';fill:#171799;fill-opacity:1;stroke-width:0.185208;stroke-linecap:square" />
    <path
       d="m 26.857059,11.036573 -6.738606,7.242452 -0.347267,1.157552 h 4.051433 l -0.876432,3.009635 h 1.21543 l 0.868163,-3.009635 h 1.35599 l 0.297657,-1.025261 h -1.339453 l 2.14147,-7.374743 z m -1.207162,2.133203 -1.504817,5.24154 h -3.31556 z"
       style="font-style:italic;font-variant:normal;font-weight:normal;font-stretch:normal;font-size:16.9333px;line-height:0.8;font-family:'Times New Roman';-inkscape-font-specification:'Times New Roman, Italic';fill:#000000;fill-opacity:0.2;stroke-width:0.185208;stroke-linecap:square"
       id="path2" />
    <path
       d="m 26.482614,10.786943 -6.738606,7.242452 -0.347267,1.157552 h 4.051433 l -0.876432,3.009635 h 1.21543 l 0.868163,-3.009635 h 1.35599 l 0.297657,-1.025261 h -1.339453 l 2.14147,-7.374743 z m -1.207162,2.133203 -1.504817,5.24154 h -3.31556 z"
       style="font-style:italic;font-variant:normal;font-weight:normal;font-stretch:normal;font-size:16.9333px;line-height:0.8;font-family:'Times New Roman';-inkscape-font-specification:'Times New Roman, Italic';fill:#171799;fill-opacity:1;stroke-width:0.185208;stroke-linecap:square"
       id="path860" />
  </g>
</svg>
