<?xml version="1.0" encoding="UTF-8" standalone="no"?>
<svg
   width="128"
   height="128"
   viewBox="0 0 33.866666 33.866668"
   version="1.1"
   id="svg958"
   inkscape:version="1.3 (0e150ed6c4, 2023-07-21)"
   sodipodi:docname="application-x-kicad-project.svg"
   xmlns:inkscape="http://www.inkscape.org/namespaces/inkscape"
   xmlns:sodipodi="http://sodipodi.sourceforge.net/DTD/sodipodi-0.dtd"
   xmlns:xlink="http://www.w3.org/1999/xlink"
   xmlns="http://www.w3.org/2000/svg"
   xmlns:svg="http://www.w3.org/2000/svg"
   xmlns:rdf="http://www.w3.org/1999/02/22-rdf-syntax-ns#"
   xmlns:cc="http://creativecommons.org/ns#"
   xmlns:dc="http://purl.org/dc/elements/1.1/">
  <defs
     id="defs952">
    <linearGradient
       id="linearGradient1617"
       inkscape:collect="always">
      <stop
         id="stop1613"
         offset="0"
         style="stop-color:#ffffe8;stop-opacity:1" />
      <stop
         id="stop1615"
         offset="1"
         style="stop-color:#ffe896;stop-opacity:1" />
    </linearGradient>
    <linearGradient
       gradientTransform="matrix(0.9789725,0,0,0.9789725,0.48107585,0.37449131)"
       gradientUnits="userSpaceOnUse"
       y2="30.691668"
       x2="25.4"
       y1="3.175"
       x1="10.583333"
       id="linearGradient1619"
       xlink:href="#linearGradient1617"
       inkscape:collect="always" />
    <inkscape:path-effect
       effect="perspective-envelope"
       up_left_point="-30.691667,2.1166667"
       up_right_point="-5.2916667,2.1166667"
       down_left_point="-30.691667,31.749999"
       down_right_point="-5.2916667,31.749999"
       id="path-effect16-5"
       is_visible="true"
       lpeversion="1"
       deform_type="perspective"
       horizontal_mirror="false"
       vertical_mirror="false"
       overflow_perspective="false" />
    <linearGradient
       inkscape:collect="always"
       xlink:href="#linearGradient10744"
       id="linearGradient10746"
       x1="13.562195"
       y1="25.75"
       x2="53.710957"
       y2="55.972519"
       gradientUnits="userSpaceOnUse"
       gradientTransform="matrix(0.26458334,0,0,0.26458334,0.0017813,-0.002733)" />
    <linearGradient
       inkscape:collect="always"
       id="linearGradient10744">
      <stop
         style="stop-color:#637cde;stop-opacity:1;"
         offset="0"
         id="stop10740" />
      <stop
         style="stop-color:#282eba;stop-opacity:0.99607843"
         offset="1"
         id="stop10742" />
    </linearGradient>
  </defs>
  <sodipodi:namedview
     inkscape:bbox-nodes="true"
     inkscape:snap-bbox-edge-midpoints="false"
     inkscape:bbox-paths="false"
     inkscape:snap-bbox="true"
     inkscape:snap-grids="false"
     units="px"
     showgrid="false"
     inkscape:document-rotation="0"
     inkscape:current-layer="layer1"
     inkscape:document-units="px"
     inkscape:cy="64.07601"
     inkscape:cx="63.92399"
     inkscape:zoom="6.578125"
     inkscape:pageshadow="2"
     inkscape:pageopacity="0.0"
     borderopacity="1.0"
     bordercolor="#666666"
     pagecolor="#ffffff"
     id="base"
     inkscape:pagecheckerboard="0"
     showguides="true"
     inkscape:guide-bbox="true"
     guidetolerance="10000"
     inkscape:snap-tangential="true"
     inkscape:snap-perpendicular="true"
     inkscape:window-width="1920"
     inkscape:window-height="1089"
     inkscape:window-x="0"
     inkscape:window-y="0"
     inkscape:window-maximized="1"
     inkscape:snap-to-guides="false"
     inkscape:snap-intersection-paths="false"
     inkscape:snap-bbox-midpoints="false"
     inkscape:snap-nodes="true"
     inkscape:object-paths="false"
     inkscape:showpageshadow="2"
     inkscape:deskcolor="#d1d1d1">
    <inkscape:grid
       id="grid1521"
       type="xygrid"
       empcolor="#ff2624"
       empopacity="0.2"
       originx="0"
       originy="0"
       spacingy="0.26458334"
       spacingx="0.26458334"
       units="px"
       visible="false"
       empspacing="4" />
    <sodipodi:guide
       position="6.5361112,12.172222"
       orientation="0,-1"
       id="guide846"
       inkscape:locked="false" />
    <sodipodi:guide
       position="4.7625,13.798641"
       orientation="1,0"
       id="guide848"
       inkscape:locked="false" />
    <sodipodi:guide
       position="4.7625,29.104928"
       orientation="0,-1"
       id="guide1"
       inkscape:locked="false" />
    <sodipodi:guide
       position="21.695835,30.95625"
       orientation="1,0"
       id="guide2"
       inkscape:locked="false" />
  </sodipodi:namedview>
  <metadata
     id="metadata955">
    <rdf:RDF>
      <cc:Work
         rdf:about="">
        <dc:format>image/svg+xml</dc:format>
        <dc:type
           rdf:resource="http://purl.org/dc/dcmitype/StillImage" />
      </cc:Work>
    </rdf:RDF>
  </metadata>
  <g
     id="layer1"
     inkscape:groupmode="layer"
     inkscape:label="Layer 1">
    <path
       style="fill:#000000;fill-opacity:0.196078;stroke:none;stroke-width:0.725255;stroke-miterlimit:4;stroke-dasharray:none;stroke-opacity:1;paint-order:markers stroke fill"
       d="M 26.49039,32.035407 32.706865,22.710694 26.49039,20.638537 Z"
       id="path1768"
       inkscape:connector-curvature="0"
       sodipodi:nodetypes="cccc" />
    <path
       sodipodi:nodetypes="ccccc"
       id="path1611"
       d="M 9.8057889,2.4466498 30.006189,4.613095 26.489592,32.036664 3.5893135,26.276471 Z"
       style="fill:url(#linearGradient1619);fill-opacity:1;stroke:none;stroke-width:0.440334;stroke-linecap:butt;stroke-linejoin:miter;stroke-miterlimit:4;stroke-dasharray:none;stroke-opacity:1" />
    <path
       style="fill:none;stroke:#4d3e2e;stroke-width:0.238125;stroke-linecap:butt;stroke-linejoin:miter;stroke-miterlimit:4;stroke-dasharray:none;stroke-opacity:1"
       d="M 9.8065869,2.4453923 30.006987,4.6118375 26.49039,32.035407 3.5901115,26.275215 Z"
       id="path1553"
       sodipodi:nodetypes="ccccc" />
    <g
       id="g37767"
       transform="translate(0.0017821,-263.13606)">
      <g
         id="g37677"
         style="stroke-width:0.999999" />
    </g>
    <path
       id="path38376"
       style="fill:#000000;fill-opacity:0.2;stroke-width:0.132293;stroke-linecap:square;paint-order:stroke fill markers"
       d="m 11.202221,6.217657 10.044735,2.13507 c 1.669434,0.35485 2.726979,1.98813 2.371173,3.66206 L 21.4773,22.086597 c -0.355805,1.67393 -1.986236,2.73587 -3.65567,2.38102 L 7.776895,22.332547 C 6.10746,21.977697 5.049918,20.344407 5.405724,18.670477 L 7.546553,8.598667 c 0.355806,-1.67393 1.986233,-2.73586 3.655668,-2.38101 z"
       inkscape:transform-center-x="-9.7437581"
       inkscape:transform-center-y="-6.3459959" />
    <path
       id="rect2162"
       style="fill:url(#linearGradient10746);fill-opacity:1;stroke-width:0.132293;stroke-linecap:square;paint-order:stroke fill markers"
       d="m 7.845024,5.218017 h 10.269141 c 1.70673,0 3.080742,1.37771 3.080742,3.08904 v 10.29682 c 0,1.71133 -1.374012,3.08905 -3.080742,3.08905 H 7.845024 c -1.706731,0 -3.080742,-1.37772 -3.080742,-3.08905 V 8.307057 c 0,-1.71133 1.374011,-3.08904 3.080742,-3.08904 z" />
    <path
       id="path20558"
       style="font-weight:bold;font-size:24px;line-height:1.25;font-family:'Times New Roman';-inkscape-font-specification:'Times New Roman,  Bold';fill:#000000;fill-opacity:0.2;stroke-width:0.264583"
       d="m 18.134,9.646227 c -0.25673,0 -0.475351,0.0925 -0.655862,0.27753 -0.180512,0.181 -0.270769,0.40022 -0.270769,0.65763 0,0.25742 0.09026,0.47663 0.270769,0.65763 0.180511,0.181 0.399132,0.27149 0.655862,0.27149 0.256728,0 0.475347,-0.0904 0.65586,-0.27149 0.184524,-0.181 0.276785,-0.40021 0.276785,-0.65763 0,-0.25741 -0.09025,-0.47663 -0.270768,-0.65763 C 18.615365,9.738737 18.394738,9.646227 18.134,9.646227 Z M 7.056568,9.839297 v 0.22323 h 0.270768 c 0.228649,0 0.409161,0.0403 0.541537,0.12067 0.136387,0.0765 0.226643,0.16692 0.270768,0.27149 0.04413,0.10455 0.06619,0.36602 0.06619,0.78433 v 5.3817 c 0,0.41025 -0.02206,0.66366 -0.06619,0.7602 -0.05616,0.13674 -0.136387,0.23328 -0.240683,0.28959 -0.144409,0.0845 -0.33495,0.1267 -0.571622,0.1267 H 7.056568 v 0.22323 h 4.115677 v -0.22323 c -0.300855,0 -0.519475,-0.0362 -0.655862,-0.10864 -0.136386,-0.0764 -0.228649,-0.16691 -0.276786,-0.27149 -0.04814,-0.10454 -0.0722,-0.37005 -0.0722,-0.7964 v -2.23232 l 0.300854,-0.2534 1.871311,2.35902 c 0.369046,0.46658 0.55357,0.78432 0.55357,0.95327 0,0.0885 -0.04012,0.16289 -0.120341,0.22322 -0.07622,0.0603 -0.248705,0.10261 -0.517469,0.12671 v 0.22322 h 4.248053 v -0.22322 c -0.236671,0 -0.461308,-0.0644 -0.673911,-0.19307 -0.292831,-0.181 -0.641822,-0.5249 -1.046972,-1.0317 l -2.870144,-3.60187 2.388779,-1.91858 c 0.585661,-0.47463 0.95872,-0.75216 1.119176,-0.8326 0.164466,-0.0845 0.389104,-0.13676 0.673912,-0.15687 v -0.22323 h -3.183031 v 0.22323 c 0.348989,0.0121 0.56761,0.0403 0.655859,0.0844 0.17249,0.0885 0.258735,0.20916 0.258735,0.362 0,0.20513 -0.210599,0.47864 -0.631792,0.82053 l -3.026589,2.45555 v -2.54605 c 0,-0.41428 0.02407,-0.6717 0.0722,-0.77225 0.06017,-0.13273 0.142405,-0.22726 0.2467,-0.28357 0.14441,-0.0804 0.355008,-0.12067 0.631794,-0.12067 v -0.22323 z m 9.561129,2.54002 v 0.22322 c 0.26475,0.016 0.443257,0.0804 0.535518,0.19307 0.09226,0.10864 0.138393,0.36199 0.138393,0.76019 v 3.29419 c 0,0.39819 -0.04012,0.64355 -0.12034,0.73605 -0.120342,0.13675 -0.304866,0.20916 -0.553571,0.2172 v 0.2172 h 3.038622 v -0.2172 c -0.268761,-0.016 -0.449275,-0.0785 -0.541537,-0.18703 -0.09226,-0.11262 -0.138392,-0.36803 -0.138392,-0.76622 v -4.47067 z" />
    <path
       d="m 11.535496,12.592717 2.870145,3.60186 q 0.607723,0.7602 1.046971,1.03169 0.318904,0.19307 0.673912,0.19307 v 0.22323 H 11.87847 v -0.22323 q 0.403143,-0.0362 0.517468,-0.1267 0.120342,-0.0904 0.120342,-0.22323 0,-0.25339 -0.553571,-0.95325 l -1.871311,-2.35902 -0.300853,0.2534 v 2.23231 q 0,0.63954 0.07221,0.7964 0.07221,0.15687 0.276784,0.27149 0.204581,0.10864 0.655862,0.10864 v 0.22323 H 6.679722 v -0.22323 H 6.95049 q 0.355007,0 0.571622,-0.1267 0.156444,-0.0844 0.240683,-0.2896 0.06619,-0.1448 0.06619,-0.76019 v -5.3817 q 0,-0.62746 -0.06619,-0.78433 Q 7.696607,9.919997 7.492027,9.805367 7.293463,9.684687 6.95049,9.684687 H 6.679717 v -0.22322 h 4.061525 v 0.22322 q -0.415178,0 -0.631793,0.12068 -0.156443,0.0845 -0.2467,0.28356 -0.07221,0.15083 -0.07221,0.77226 v 2.54606 l 3.026589,-2.45556 q 0.631792,-0.51283 0.631792,-0.82053 0,-0.22926 -0.258734,-0.36199 -0.132374,-0.0663 -0.65586,-0.0845 v -0.22323 h 3.183031 v 0.22323 q -0.427211,0.0301 -0.673911,0.15687 -0.240684,0.12066 -1.119176,0.83259 z"
       style="font-weight:bold;font-size:24px;line-height:1.25;font-family:'Times New Roman';-inkscape-font-specification:'Times New Roman,  Bold';fill:#ffffff;fill-opacity:1;stroke-width:0.264583"
       id="path2317" />
    <path
       style="font-weight:bold;font-size:24px;line-height:1.25;font-family:'Times New Roman';-inkscape-font-specification:'Times New Roman,  Bold';fill:#ffffff;fill-opacity:1;stroke-width:0.264583"
       d="m 18.599542,12.001447 v 4.47067 q 0,0.59729 0.138392,0.76622 0.138393,0.16291 0.541537,0.18703 v 0.2172 h -3.038623 v -0.2172 q 0.37306,-0.012 0.553571,-0.21719 0.120342,-0.13877 0.120342,-0.73606 v -3.29418 q 0,-0.59729 -0.138394,-0.76019 -0.138392,-0.16893 -0.535519,-0.19307 v -0.22323 z"
       id="path2326" />
    <path
       style="font-weight:bold;font-size:24px;line-height:1.25;font-family:'Times New Roman';-inkscape-font-specification:'Times New Roman,  Bold';fill:#cb5701;fill-opacity:1;stroke-width:0.264583"
       d="m 17.757151,9.268357 q 0.39111,0 0.661879,0.27754 0.270767,0.27149 0.270767,0.65763 0,0.38613 -0.276785,0.65762 -0.270768,0.27151 -0.655861,0.27151 -0.385093,0 -0.65586,-0.27151 -0.27077,-0.27149 -0.27077,-0.65762 0,-0.38614 0.27077,-0.65763 0.270767,-0.27754 0.65586,-0.27754 z"
       id="path2319" />
    <path
       id="path39789"
       style="fill:none;fill-opacity:1;stroke:#000000;stroke-width:0.238125;stroke-linecap:square;stroke-dasharray:none;stroke-opacity:1;paint-order:stroke fill markers"
       d="m 7.845024,5.218017 h 10.269141 c 1.70673,0 3.080742,1.37771 3.080742,3.08904 v 10.29682 c 0,1.71133 -1.374012,3.08905 -3.080742,3.08905 H 7.845024 c -1.706731,0 -3.080742,-1.37772 -3.080742,-3.08905 V 8.307057 c 0,-1.71133 1.374011,-3.08904 3.080742,-3.08904 z" />
  </g>
</svg>
