<?xml version="1.0" encoding="UTF-8" standalone="no"?>
<svg
   width="128"
   height="128"
   viewBox="0 0 33.866666 33.866668"
   version="1.1"
   id="svg958"
   inkscape:version="1.3 (0e150ed6c4, 2023-07-21)"
   sodipodi:docname="application-mathml+xml.svg"
   xmlns:inkscape="http://www.inkscape.org/namespaces/inkscape"
   xmlns:sodipodi="http://sodipodi.sourceforge.net/DTD/sodipodi-0.dtd"
   xmlns:xlink="http://www.w3.org/1999/xlink"
   xmlns="http://www.w3.org/2000/svg"
   xmlns:svg="http://www.w3.org/2000/svg"
   xmlns:rdf="http://www.w3.org/1999/02/22-rdf-syntax-ns#"
   xmlns:cc="http://creativecommons.org/ns#"
   xmlns:dc="http://purl.org/dc/elements/1.1/">
  <defs
     id="defs952">
    <linearGradient
       id="linearGradient4"
       inkscape:collect="always">
      <stop
         style="stop-color:#dd000b;stop-opacity:1;"
         offset="0"
         id="stop4" />
      <stop
         style="stop-color:#a60008;stop-opacity:1;"
         offset="1"
         id="stop5" />
    </linearGradient>
    <linearGradient
       id="linearGradient1617"
       inkscape:collect="always">
      <stop
         id="stop1613"
         offset="0"
         style="stop-color:#ffffe8;stop-opacity:1" />
      <stop
         id="stop1615"
         offset="1"
         style="stop-color:#ffe896;stop-opacity:1" />
    </linearGradient>
    <linearGradient
       gradientTransform="matrix(0.9789725,0,0,0.9789725,0.48107585,0.37449131)"
       gradientUnits="userSpaceOnUse"
       y2="30.691668"
       x2="25.4"
       y1="3.175"
       x1="10.583333"
       id="linearGradient1619"
       xlink:href="#linearGradient1617"
       inkscape:collect="always" />
    <linearGradient
       inkscape:collect="always"
       xlink:href="#linearGradient7089"
       id="linearGradient16"
       x1="7.8637094"
       y1="15.388992"
       x2="25.874912"
       y2="15.388992"
       gradientUnits="userSpaceOnUse"
       gradientTransform="translate(0.0765845,0.218813)" />
    <linearGradient
       inkscape:collect="always"
       id="linearGradient7089">
      <stop
         style="stop-color:#aa8a34;stop-opacity:0.34999999;"
         offset="0"
         id="stop7085" />
      <stop
         style="stop-color:#caa22c;stop-opacity:0.35051546;"
         offset="1"
         id="stop7087" />
    </linearGradient>
    <linearGradient
       inkscape:collect="always"
       xlink:href="#linearGradient4"
       id="linearGradient5"
       x1="13.312401"
       y1="8.5253363"
       x2="10.386103"
       y2="20.650444"
       gradientUnits="userSpaceOnUse" />
  </defs>
  <sodipodi:namedview
     inkscape:bbox-nodes="true"
     inkscape:snap-bbox-edge-midpoints="false"
     inkscape:bbox-paths="false"
     inkscape:snap-bbox="true"
     inkscape:snap-grids="false"
     units="px"
     showgrid="false"
     inkscape:document-rotation="0"
     inkscape:current-layer="layer1"
     inkscape:document-units="px"
     inkscape:cy="64"
     inkscape:cx="64.5"
     inkscape:zoom="1"
     inkscape:pageshadow="2"
     inkscape:pageopacity="0.0"
     borderopacity="1.0"
     bordercolor="#666666"
     pagecolor="#ffffff"
     id="base"
     inkscape:pagecheckerboard="0"
     showguides="false"
     inkscape:guide-bbox="true"
     guidetolerance="10000"
     inkscape:snap-tangential="true"
     inkscape:snap-perpendicular="true"
     inkscape:window-width="1920"
     inkscape:window-height="1119"
     inkscape:window-x="0"
     inkscape:window-y="0"
     inkscape:window-maximized="1"
     inkscape:snap-to-guides="false"
     inkscape:snap-intersection-paths="false"
     inkscape:snap-bbox-midpoints="false"
     inkscape:snap-nodes="true"
     inkscape:object-paths="false"
     inkscape:showpageshadow="2"
     inkscape:deskcolor="#d1d1d1">
    <inkscape:grid
       id="grid1521"
       type="xygrid"
       empcolor="#ff2624"
       empopacity="0.2"
       originx="0"
       originy="0"
       spacingy="0.26458334"
       spacingx="0.26458334"
       units="px"
       visible="false"
       empspacing="4" />
    <sodipodi:guide
       position="6.5361112,12.172222"
       orientation="0,-1"
       id="guide846"
       inkscape:locked="false" />
    <sodipodi:guide
       position="4.7625,13.798641"
       orientation="1,0"
       id="guide848"
       inkscape:locked="false" />
    <sodipodi:guide
       position="4.7625,29.104928"
       orientation="0,-1"
       id="guide1"
       inkscape:locked="false" />
    <sodipodi:guide
       position="21.695835,30.95625"
       orientation="1,0"
       id="guide2"
       inkscape:locked="false" />
  </sodipodi:namedview>
  <metadata
     id="metadata955">
    <rdf:RDF>
      <cc:Work
         rdf:about="">
        <dc:format>image/svg+xml</dc:format>
        <dc:type
           rdf:resource="http://purl.org/dc/dcmitype/StillImage" />
      </cc:Work>
    </rdf:RDF>
  </metadata>
  <g
     id="layer1"
     inkscape:groupmode="layer"
     inkscape:label="Layer 1">
    <path
       style="fill:#000000;fill-opacity:0.196078;stroke:none;stroke-width:0.725255;stroke-miterlimit:4;stroke-dasharray:none;stroke-opacity:1;paint-order:markers stroke fill"
       d="M 26.49039,32.035407 32.706865,22.710694 26.49039,20.638537 Z"
       id="path1768"
       inkscape:connector-curvature="0"
       sodipodi:nodetypes="cccc" />
    <path
       sodipodi:nodetypes="ccccc"
       id="path1611"
       d="M 9.8057889,2.4466498 30.006189,4.613095 26.489592,32.036664 3.5893135,26.276471 Z"
       style="fill:url(#linearGradient1619);fill-opacity:1;stroke:none;stroke-width:0.440334;stroke-linecap:butt;stroke-linejoin:miter;stroke-miterlimit:4;stroke-dasharray:none;stroke-opacity:1" />
    <path
       id="path1"
       style="color:#000000;fill:url(#linearGradient16);-inkscape-stroke:none"
       d="m 12.302199,5.710322 -0.169255,0.703947 13.701994,1.739258 0.11656,-0.766159 z m -0.420389,1.748431 -0.173138,0.720094 13.833739,1.897517 0.119436,-0.785075 z m -0.430212,1.789285 -0.176674,0.734804 13.967904,2.062726 0.12209,-0.802515 z m -0.439698,1.828741 -0.180721,0.751631 14.104616,2.235327 0.12511,-0.822362 z m -0.449803,1.870763 -0.184806,0.768622 14.243883,2.415635 0.128172,-0.842496 z m -0.460156,1.913824 -0.1895495,0.78835 14.3859265,2.60427 0.131709,-0.865744 z m -0.4710805,1.95926 -0.194044,0.807046 14.5305985,2.80139 0.135092,-0.887982 z m -0.482184,2.005443 -0.198809,0.826859 14.6780675,3.007587 0.138681,-0.911578 z m -0.493906,2.054189 -0.203526,0.846483 14.8283735,3.223316 0.14226,-0.9351 z m -0.506283,2.105674 -0.208194,0.865891 7.1818285,1.653464 0.179876,-0.909943 z" />
    <path
       style="fill:none;stroke:#4d3e2e;stroke-width:0.238125;stroke-linecap:butt;stroke-linejoin:miter;stroke-miterlimit:4;stroke-dasharray:none;stroke-opacity:1"
       d="M 9.8065869,2.4453923 30.006987,4.6118375 26.49039,32.035407 3.5901115,26.275215 Z"
       id="path1553"
       sodipodi:nodetypes="ccccc" />
    <g
       id="g2"
       transform="translate(0.72399045,0.76421216)"
       style="fill:#000000;fill-opacity:0.2">
      <path
         d="m 22.129049,18.68568 -1.169076,4.185688 -10.57387,-2.220924 0.07396,-0.321594 6.341339,-4.759794 -3.552971,-6.7645394 0.06397,-0.2791805 9.402371,1.3072305 -0.549591,3.2489444 -0.665464,-0.104275 C 21.464027,12.374722 21.296162,11.792748 20.998196,11.23183 20.710375,10.671876 20.37036,10.334029 19.977458,10.21447 19.802258,10.16071 19.547983,10.104322 19.215269,10.045366 18.89081,9.9819258 18.625222,9.9354838 18.41794,9.9059115 l -2.701785,-0.3854557 2.990295,5.4876092 -0.02672,0.14218 -5.786668,4.323788 6.061047,1.215391 c 0.288332,0.05782 0.560638,0.02319 0.816325,-0.104047 0.255797,-0.127295 0.487663,-0.308765 0.6953,-0.544127 0.19008,-0.212192 0.368077,-0.452549 0.533895,-0.720833 0.166532,-0.274002 0.316069,-0.52786 0.448692,-0.761683 z"
         id="path2"
         style="font-size:40px;line-height:1.25;font-family:Georgia;-inkscape-font-specification:Georgia;fill:#000000;fill-opacity:0.2;stroke-width:0.264583"
         aria-label="Σ" />
    </g>
    <g
       id="g1">
      <path
         d="m 22.129049,18.68568 -1.169076,4.185688 -10.57387,-2.220924 0.07396,-0.321594 6.341339,-4.759794 -3.552971,-6.7645394 0.06397,-0.2791805 9.402371,1.3072305 -0.549591,3.2489444 -0.665464,-0.104275 c -0.03569,-0.602514 -0.203555,-1.184488 -0.501521,-1.745406 -0.287821,-0.559954 -0.627836,-0.897801 -1.020738,-1.01736 -0.1752,-0.05376 -0.429475,-0.110148 -0.762189,-0.169104 C 18.89081,9.9819258 18.625222,9.9354838 18.41794,9.9059115 l -2.701785,-0.3854557 2.990295,5.4876092 -0.02672,0.14218 -5.786668,4.323788 6.061047,1.215391 c 0.288332,0.05782 0.560638,0.02319 0.816325,-0.104047 0.255797,-0.127295 0.487663,-0.308765 0.6953,-0.544127 0.19008,-0.212192 0.368077,-0.452549 0.533895,-0.720833 0.166532,-0.274002 0.316069,-0.52786 0.448692,-0.761683 z"
         id="text1"
         style="font-size:40px;line-height:1.25;font-family:Georgia;-inkscape-font-specification:Georgia;fill:url(#linearGradient5);fill-opacity:1;stroke-width:0.264583"
         aria-label="Σ" />
      <path
         d="m 22.129049,18.68568 -1.169076,4.185688 -10.57387,-2.220924 0.07396,-0.321594 6.341339,-4.759794 -3.552971,-6.7645394 0.06397,-0.2791805 9.402371,1.3072305 -0.549591,3.2489444 -0.665464,-0.104275 c -0.03569,-0.602514 -0.203555,-1.184488 -0.501521,-1.745406 -0.287821,-0.559954 -0.627836,-0.897801 -1.020738,-1.01736 -0.1752,-0.05376 -0.429475,-0.110148 -0.762189,-0.169104 C 18.89081,9.9819258 18.625222,9.9354838 18.41794,9.9059115 l -2.701785,-0.3854557 2.990295,5.4876092 -0.02672,0.14218 -5.786668,4.323788 6.061047,1.215391 c 0.288332,0.05782 0.560638,0.02319 0.816325,-0.104047 0.255797,-0.127295 0.487663,-0.308765 0.6953,-0.544127 0.19008,-0.212192 0.368077,-0.452549 0.533895,-0.720833 0.166532,-0.274002 0.316069,-0.52786 0.448692,-0.761683 z"
         id="path3"
         style="font-size:40px;line-height:1.25;font-family:Georgia;-inkscape-font-specification:Georgia;fill:none;fill-opacity:1;stroke-width:0.238125;stroke:#590004;stroke-opacity:1;stroke-dasharray:none"
         aria-label="Σ" />
    </g>
  </g>
</svg>
