<?xml version="1.0" encoding="UTF-8" standalone="no"?>
<svg
   width="128"
   height="128"
   viewBox="0 0 33.866666 33.866668"
   version="1.1"
   id="svg958"
   inkscape:version="1.3 (0e150ed6c4, 2023-07-21)"
   sodipodi:docname="application-x-msdos-batch-script.svg"
   xml:space="preserve"
   xmlns:inkscape="http://www.inkscape.org/namespaces/inkscape"
   xmlns:sodipodi="http://sodipodi.sourceforge.net/DTD/sodipodi-0.dtd"
   xmlns:xlink="http://www.w3.org/1999/xlink"
   xmlns="http://www.w3.org/2000/svg"
   xmlns:svg="http://www.w3.org/2000/svg"
   xmlns:rdf="http://www.w3.org/1999/02/22-rdf-syntax-ns#"
   xmlns:cc="http://creativecommons.org/ns#"
   xmlns:dc="http://purl.org/dc/elements/1.1/"><defs
     id="defs952"><linearGradient
       id="linearGradient5"
       inkscape:collect="always"><stop
         style="stop-color:#be8b00;stop-opacity:1;"
         offset="0"
         id="stop4" /><stop
         style="stop-color:#f6f6ce;stop-opacity:1;"
         offset="1"
         id="stop5" /></linearGradient><linearGradient
       id="linearGradient2"
       inkscape:collect="always"><stop
         style="stop-color:#000000;stop-opacity:0.75;"
         offset="0"
         id="stop2" /><stop
         style="stop-color:#000000;stop-opacity:0;"
         offset="1"
         id="stop3" /></linearGradient><inkscape:path-effect
       effect="fillet_chamfer"
       id="path-effect33"
       is_visible="true"
       lpeversion="1"
       nodesatellites_param="F,0,0,1,0,0,0,1 @ F,0,0,1,0,0,0,1 @ F,0,0,1,0,0,0,1 @ F,0,0,1,0,0,0,1 @ F,0,0,1,0,0,0,1 @ F,0,0,1,0,0,0,1 @ F,0,0,1,0,0,0,1 @ F,0,0,1,0,1.650769,0,1"
       radius="0"
       unit="px"
       method="auto"
       mode="F"
       chamfer_steps="1"
       flexible="false"
       use_knot_distance="true"
       apply_no_radius="true"
       apply_with_radius="true"
       only_selected="false"
       hide_knots="false" /><inkscape:path-effect
       effect="fillet_chamfer"
       id="path-effect3"
       is_visible="true"
       lpeversion="1"
       nodesatellites_param="F,0,0,1,0,1.3229167,0,1 @ F,0,0,1,0,1.5875,0,1 @ F,0,0,1,0,1.3229167,0,1 @ F,0,0,1,0,1.3229153,0,1"
       radius="0"
       unit="px"
       method="auto"
       mode="F"
       chamfer_steps="1"
       flexible="false"
       use_knot_distance="true"
       apply_no_radius="true"
       apply_with_radius="true"
       only_selected="false"
       hide_knots="false" /><inkscape:path-effect
       effect="fillet_chamfer"
       id="path-effect2"
       is_visible="true"
       lpeversion="1"
       nodesatellites_param="F,0,0,1,0,1.3229167,0,1 @ F,0,0,1,0,1.3229177,0,1 @ F,0,0,1,0,1.3229157,0,1 @ F,0,0,1,0,1.3229168,0,1"
       radius="0"
       unit="px"
       method="auto"
       mode="F"
       chamfer_steps="1"
       flexible="false"
       use_knot_distance="true"
       apply_no_radius="true"
       apply_with_radius="true"
       only_selected="false"
       hide_knots="false" /><linearGradient
       id="linearGradient1617"
       inkscape:collect="always"><stop
         id="stop1613"
         offset="0"
         style="stop-color:#ffffe8;stop-opacity:1" /><stop
         id="stop1615"
         offset="1"
         style="stop-color:#ffe896;stop-opacity:1" /></linearGradient><linearGradient
       gradientTransform="matrix(0.9789725,0,0,0.9789725,0.48107585,0.37449131)"
       gradientUnits="userSpaceOnUse"
       y2="30.691668"
       x2="25.4"
       y1="3.175"
       x1="10.583333"
       id="linearGradient1619"
       xlink:href="#linearGradient1617"
       inkscape:collect="always" /><inkscape:path-effect
       effect="perspective-envelope"
       up_left_point="-30.691667,2.1166667"
       up_right_point="-5.2916667,2.1166667"
       down_left_point="-30.691667,31.749999"
       down_right_point="-5.2916667,31.749999"
       id="path-effect16-5"
       is_visible="true"
       lpeversion="1"
       deform_type="perspective"
       horizontal_mirror="false"
       vertical_mirror="false"
       overflow_perspective="false" /><linearGradient
       inkscape:collect="always"
       xlink:href="#linearGradient5"
       id="linearGradient28"
       x1="-16.143456"
       y1="18.360403"
       x2="-18.889959"
       y2="6.8581271"
       gradientUnits="userSpaceOnUse"
       gradientTransform="matrix(1.3042523,0,0,1.3042523,31.173507,-1.4267274)" /><linearGradient
       id="linearGradient7"
       inkscape:collect="always"><stop
         style="stop-color:#be7200;stop-opacity:1;"
         offset="0"
         id="stop9" /><stop
         style="stop-color:#ffff4d;stop-opacity:1;"
         offset="1"
         id="stop10" /></linearGradient><linearGradient
       inkscape:collect="always"
       xlink:href="#linearGradient11"
       id="linearGradient12"
       x1="-17.991669"
       y1="7.6729169"
       x2="-9.5250006"
       y2="13.758334"
       gradientUnits="userSpaceOnUse"
       gradientTransform="matrix(1.3042523,0,0,1.3042523,31.173507,-1.4267274)" /><linearGradient
       id="linearGradient11"
       inkscape:collect="always"><stop
         style="stop-color:#ffff8d;stop-opacity:1;"
         offset="0"
         id="stop11" /><stop
         style="stop-color:#c5ab3b;stop-opacity:1;"
         offset="1"
         id="stop12" /></linearGradient><linearGradient
       inkscape:collect="always"
       xlink:href="#linearGradient7"
       id="linearGradient10"
       x1="-15.875001"
       y1="9.5250006"
       x2="-11.641667"
       y2="11.641667"
       gradientUnits="userSpaceOnUse"
       gradientTransform="matrix(1.3042523,0,0,1.3042523,31.173507,-1.4267274)" /><radialGradient
       inkscape:collect="always"
       xlink:href="#linearGradient30"
       id="radialGradient33"
       cx="-14.816668"
       cy="6.4022274"
       fx="-14.816668"
       fy="6.4022274"
       r="2.156354"
       gradientTransform="matrix(1.7603406,0,0,1.2562165,37.931217,-0.84222553)"
       gradientUnits="userSpaceOnUse" /><linearGradient
       id="linearGradient30"
       inkscape:collect="always"><stop
         style="stop-color:#eeeeee;stop-opacity:1;"
         offset="0"
         id="stop30" /><stop
         style="stop-color:#b9b9b9;stop-opacity:1;"
         offset="1"
         id="stop31" /></linearGradient><linearGradient
       inkscape:collect="always"
       xlink:href="#linearGradient30"
       id="linearGradient31"
       x1="-15.875257"
       y1="8.5979424"
       x2="-12.798892"
       y2="11.34156"
       gradientUnits="userSpaceOnUse"
       gradientTransform="matrix(1.3042523,0,0,1.3042523,31.173507,-1.4267274)" /><linearGradient
       inkscape:collect="always"
       xlink:href="#linearGradient12623"
       id="linearGradient12237"
       gradientUnits="userSpaceOnUse"
       x1="-11.543406"
       y1="-15.968405"
       x2="9.4127216"
       y2="-11.820045"
       gradientTransform="matrix(3.7795276,0,0,3.7795276,51.999999,152)" /><linearGradient
       inkscape:collect="always"
       id="linearGradient12623"><stop
         style="stop-color:#bf8f26;stop-opacity:0.34999999"
         offset="0"
         id="stop12619" /><stop
         style="stop-color:#d9b92b;stop-opacity:0.34999999"
         offset="1"
         id="stop12621" /></linearGradient><radialGradient
       inkscape:collect="always"
       xlink:href="#linearGradient2"
       id="radialGradient3"
       cx="15.345834"
       cy="15.875001"
       fx="15.345834"
       fy="15.875001"
       r="8.9958344"
       gradientTransform="matrix(1,0,0,0.80541246,0,3.0890774)"
       gradientUnits="userSpaceOnUse" /></defs><sodipodi:namedview
     inkscape:bbox-nodes="true"
     inkscape:snap-bbox-edge-midpoints="false"
     inkscape:bbox-paths="false"
     inkscape:snap-bbox="true"
     inkscape:snap-grids="false"
     units="px"
     showgrid="false"
     inkscape:document-rotation="0"
     inkscape:current-layer="layer1"
     inkscape:document-units="px"
     inkscape:cy="56.5"
     inkscape:cx="71.5"
     inkscape:zoom="1"
     inkscape:pageshadow="2"
     inkscape:pageopacity="0.0"
     borderopacity="1.0"
     bordercolor="#666666"
     pagecolor="#ffffff"
     id="base"
     inkscape:pagecheckerboard="0"
     showguides="false"
     inkscape:guide-bbox="true"
     guidetolerance="10000"
     inkscape:snap-tangential="true"
     inkscape:snap-perpendicular="true"
     inkscape:window-width="1920"
     inkscape:window-height="1011"
     inkscape:window-x="0"
     inkscape:window-y="0"
     inkscape:window-maximized="1"
     inkscape:snap-to-guides="false"
     inkscape:snap-intersection-paths="false"
     inkscape:snap-bbox-midpoints="false"
     inkscape:snap-nodes="true"
     inkscape:object-paths="false"
     inkscape:showpageshadow="2"
     inkscape:deskcolor="#d1d1d1"><inkscape:grid
       id="grid1521"
       type="xygrid"
       empcolor="#ff2624"
       empopacity="0.2"
       originx="0"
       originy="0"
       spacingy="0.26458334"
       spacingx="0.26458334"
       units="px"
       visible="false"
       empspacing="4" /><sodipodi:guide
       position="6.5361112,12.172222"
       orientation="0,-1"
       id="guide846"
       inkscape:locked="false" /><sodipodi:guide
       position="4.7625,13.798641"
       orientation="1,0"
       id="guide848"
       inkscape:locked="false" /><sodipodi:guide
       position="4.7625,29.104928"
       orientation="0,-1"
       id="guide1"
       inkscape:locked="false" /><sodipodi:guide
       position="21.695835,30.95625"
       orientation="1,0"
       id="guide2"
       inkscape:locked="false" /></sodipodi:namedview><metadata
     id="metadata955"><rdf:RDF><cc:Work
         rdf:about=""><dc:format>image/svg+xml</dc:format><dc:type
           rdf:resource="http://purl.org/dc/dcmitype/StillImage" /></cc:Work></rdf:RDF></metadata><g
     id="layer1"
     inkscape:groupmode="layer"
     inkscape:label="Layer 1"><path
       style="fill:#000000;fill-opacity:0.196078;stroke:none;stroke-width:0.725255;stroke-miterlimit:4;stroke-dasharray:none;stroke-opacity:1;paint-order:markers stroke fill"
       d="M 26.49039,32.035407 32.706865,22.710694 26.49039,20.638537 Z"
       id="path1768"
       inkscape:connector-curvature="0"
       sodipodi:nodetypes="cccc" /><path
       sodipodi:nodetypes="ccccc"
       id="path1611"
       d="M 9.8057889,2.4466498 30.006189,4.613095 26.489592,32.036664 3.5893135,26.276471 Z"
       style="fill:url(#linearGradient1619);fill-opacity:1;stroke:none;stroke-width:0.440334;stroke-linecap:butt;stroke-linejoin:miter;stroke-miterlimit:4;stroke-dasharray:none;stroke-opacity:1" /><g
       id="g12231"
       transform="translate(13.759132,40.21541)"><g
         id="g12229"><path
           id="path12207"
           style="fill:#002e99;fill-opacity:1;stroke:url(#linearGradient12237);stroke-width:1.901;stroke-linecap:square;stroke-linejoin:round;stroke-miterlimit:4;stroke-dasharray:none;stroke-opacity:1"
           d="m 45.888672,22.082031 51.685547,6.455078 z m -1.435547,5.96875 52.132813,6.988281 z m -1.464844,6.089844 52.587891,7.541016 z m -1.49414,6.214844 53.048828,8.115234 z m -1.523438,6.341797 53.515625,8.714843 z m -1.556641,6.474609 53.994141,9.335937 z m -1.589843,6.611328 54.478515,9.984375 z m -1.625,6.751953 54.974609,10.658203 z m -1.658203,6.898438 55.476562,11.359375 z m -1.69336,7.046875 55.986328,12.091797 z m -1.732422,7.203125 56.507813,12.853516 z"
           transform="matrix(0.26458333,0,0,0.26458333,-13.758333,-40.216667)" /></g></g><ellipse
       style="fill:url(#radialGradient3);stroke:none;stroke-width:0.221097;stroke-linecap:square;stroke-linejoin:miter;stroke-dasharray:none;stroke-opacity:1;fill-opacity:1"
       id="path5"
       cx="15.345834"
       cy="15.875001"
       rx="8.9958344"
       ry="7.245357" /><path
       style="fill:none;stroke:#000000;stroke-width:0.238125;stroke-linecap:butt;stroke-linejoin:miter;stroke-miterlimit:4;stroke-dasharray:none;stroke-opacity:1"
       d="M 9.8065869,2.4453923 30.006987,4.6118375 26.49039,32.035407 3.5901115,26.275215 Z"
       id="path1553"
       sodipodi:nodetypes="ccccc" /><path
       id="path42"
       style="fill:url(#linearGradient28);stroke:none;stroke-width:1.86345;stroke-linecap:round;stroke-linejoin:round"
       d="m 6.3969224,9.2647932 v 3.4508338 l 1.0743413,0.760936 v -3.450834 z m 13.6644946,0 -1.074342,0.7609358 v 3.450834 l 1.074342,-0.760936 z M 6.4494929,13.691567 v 0.0081 H 4.9471664 v 2.313972 h 1.449756 v 2.478939 l 1.9518774,1.382356 1.0750157,-0.760936 v -2.313972 l -1.0750157,0.760936 -0.8883197,-0.628833 0.00404,-1.52996 C 6.982503,14.884613 6.644206,14.306784 6.4670168,13.699653 Z m 2.9743226,5.422418 6.743e-4,-6.74e-4 c 0.7364812,0.344655 1.5594752,0.586036 2.4243452,0.711061 v 1.077712 h 2.760668 v -1.077712 c 0.864871,-0.125025 1.687864,-0.366406 2.424346,-0.711061 l 6.74e-4,6.74e-4 -0.01017,-2.321386 c -0.73392,0.342921 -1.553592,0.583354 -2.41491,0.708365 v 1.087147 h -2.76067 V 17.500964 C 10.987517,17.375952 10.167846,17.13552 9.433926,16.792599 Z m 7.6107075,0 1.075015,0.760936 1.951879,-1.383029 v -2.478266 h 1.449755 v -2.313972 h -1.519851 v 2.528141 l -6.74e-4,6.74e-4 c 4.03e-4,-0.990274 7.23e-4,-2.528815 6.74e-4,-2.528815 l -0.01753,0.0081 c -0.177188,0.607133 -0.515483,1.18496 -0.997506,1.702502 l 0.004,1.534002 -0.870797,0.616703 -1.075016,-0.760936 z"
       sodipodi:nodetypes="ccccccccccccccccccccccccccccccccccccccccccccccccccccccc" /><path
       style="fill:none;stroke:#ad8411;stroke-width:0.10583333;stroke-linecap:butt;stroke-linejoin:miter;stroke-dasharray:none;stroke-opacity:1"
       d="m 19.991321,13.699654 5.9e-5,2.440659"
       id="path26"
       sodipodi:nodetypes="cc" /><path
       style="fill:none;stroke:#b38c1a;stroke-width:0.10583333;stroke-linecap:butt;stroke-linejoin:miter;stroke-dasharray:none;stroke-opacity:1"
       d="M 6.4818448,13.699654 6.4669498,16.13358"
       id="path22"
       sodipodi:nodetypes="cc" /><path
       style="fill:none;stroke:#67001b;stroke-width:0.238125;stroke-linecap:round;stroke-linejoin:round;stroke-dasharray:none;stroke-opacity:1"
       d="m 6.3969224,16.013624 -1.4497599,2e-6 3.9e-6,-2.313972"
       id="path21"
       sodipodi:nodetypes="ccc" /><path
       style="fill:none;stroke:#67001b;stroke-width:0.238125;stroke-linecap:round;stroke-linejoin:round;stroke-dasharray:none;stroke-opacity:1"
       d="m 21.511172,13.699654 -3e-6,2.313843 -1.438989,-4.8e-5"
       id="path16"
       sodipodi:nodetypes="ccc" /><path
       style="fill:none;stroke:#67001b;stroke-width:0.238125;stroke-linecap:round;stroke-linejoin:miter;stroke-dasharray:none;stroke-opacity:1"
       d="M 6.3968637,9.2648741 V 12.715709"
       id="path23" /><path
       style="fill:none;stroke:#67001b;stroke-width:0.238125;stroke-linecap:butt;stroke-linejoin:miter;stroke-dasharray:none;stroke-opacity:1"
       d="m 18.109538,7.8824371 1.951931,1.3824357 v 3.4508352"
       id="path15" /><path
       id="path3"
       style="fill:url(#linearGradient12);stroke-width:1.56832;stroke-linecap:round;stroke-linejoin:round"
       d="M 11.848835,6.8552749 V 7.9424223 A 6.9016695,4.8886826 0 0 0 9.433926,8.6507865 L 8.3487998,7.8824371 6.3969224,9.2647932 7.4820472,10.033143 A 6.9016695,4.8886826 0 0 0 6.4818448,11.743732 H 4.9471664 v 1.955922 h 1.5346784 a 6.9016695,4.8886826 0 0 0 1.0002024,1.71059 l -1.0851248,0.768349 1.9518774,1.382356 1.0851262,-0.76835 a 6.9016695,4.8886826 0 0 0 2.414909,0.708365 v 1.087147 h 2.760668 v -1.087147 a 6.9016695,4.8886826 0 0 0 2.414909,-0.708365 l 1.085126,0.76835 1.951879,-1.382356 -1.085126,-0.768349 a 6.9016695,4.8886826 0 0 0 1.000202,-1.71059 h 1.534679 V 11.743732 H 19.989974 A 6.9016695,4.8886826 0 0 0 18.985053,10.027077 L 20.061417,9.2647932 18.109538,7.8824371 17.033849,8.6440474 A 6.9016695,4.8886826 0 0 0 14.609503,7.932986 V 6.8552749 Z m 1.380335,3.9111711 a 2.7606678,1.955473 0 0 1 2.760666,1.955247 2.7606678,1.955473 0 0 1 -2.760666,1.955248 2.7606678,1.955473 0 0 1 -2.760668,-1.955248 2.7606678,1.955473 0 0 1 2.760668,-1.955247 z" /><path
       id="path4"
       style="fill:url(#linearGradient10);stroke:none;stroke-width:1.86345;stroke-linecap:round;stroke-linejoin:round"
       d="m 13.22917,10.766446 c -1.524546,0 -2.760492,0.87536 -2.760668,1.955247 0,0.747394 0.592635,1.396289 1.462561,1.725418 0.387049,-0.1464 0.828684,-0.229832 1.298107,-0.229832 0.469422,0 0.911058,0.08343 1.298106,0.229832 0.869926,-0.329129 1.462562,-0.978024 1.462562,-1.725418 -1.76e-4,-1.079887 -1.236122,-1.955247 -2.760668,-1.955247 z"
       sodipodi:nodetypes="ccccccc" /><path
       style="fill:none;stroke:#67001b;stroke-width:0.238125;stroke-linecap:round;stroke-linejoin:round;stroke-dasharray:none;stroke-opacity:1"
       d="m 20.061417,16.178593 -5e-6,2.313972 -1.951877,1.382356 -1.077657,-0.760688"
       id="path17"
       sodipodi:nodetypes="cccc" /><path
       style="fill:none;stroke:#67001b;stroke-width:0.238125;stroke-linecap:round;stroke-linejoin:miter;stroke-dasharray:none;stroke-opacity:1"
       d="m 18.109538,17.560949 -1.55e-4,2.314264"
       id="path18"
       sodipodi:nodetypes="cc" /><path
       style="fill:none;stroke:#67001b;stroke-width:0.238125;stroke-linecap:round;stroke-linejoin:round;stroke-dasharray:none;stroke-opacity:1"
       d="m 14.609498,18.588113 10e-7,2.313971 h -2.760668 l -5.8e-5,-2.313973"
       id="path19"
       sodipodi:nodetypes="cccc" /><path
       style="fill:none;stroke:#67001b;stroke-width:0.238125;stroke-linecap:round;stroke-linejoin:round;stroke-dasharray:none;stroke-opacity:1"
       d="m 9.4339551,19.106572 -1.0849723,0.768641 -1.9520874,-1.382728 1.3e-6,-2.31397"
       id="path20"
       sodipodi:nodetypes="cccc" /><path
       style="fill:#000000;fill-opacity:0.088983;stroke:#ad8411;stroke-width:0.10583333;stroke-linecap:round;stroke-linejoin:round;stroke-dasharray:none;stroke-opacity:1"
       d="m 9.4339262,16.792599 -0.01011,2.321399"
       id="path7" /><path
       style="fill:none;stroke:#ad8411;stroke-width:0.10583333;stroke-linecap:butt;stroke-linejoin:miter;stroke-dasharray:none;stroke-opacity:1"
       d="m 17.034681,16.800064 -8.36e-4,2.313247"
       id="path25"
       sodipodi:nodetypes="cc" /><path
       id="path24"
       style="fill:none;fill-opacity:1;stroke:#67001b;stroke-width:0.238125;stroke-linecap:round;stroke-linejoin:round;stroke-dasharray:none;stroke-opacity:1"
       d="m 9.4238155,19.113983 6.743e-4,-6.75e-4 c 0.7364822,0.344655 1.5594732,0.586036 2.4243452,0.711062 m 2.760668,0 c 0.864872,-0.125026 1.687863,-0.366407 2.424346,-0.711062 l 6.74e-4,6.75e-4"
       sodipodi:nodetypes="cccccc" /><path
       style="fill:#000000;fill-opacity:0.088983;stroke:none;stroke-width:0.238125;stroke-linecap:round;stroke-linejoin:round;stroke-dasharray:none"
       d="m 11.967508,14.433571 5.067173,2.366602 1.074857,0.760776 1.951879,-1.382356 v 0 l 1.360582,-0.164967 -1.430678,-2.313972 -5.014419,-2.491509 z"
       id="path6"
       sodipodi:nodetypes="ccccccccc" /><path
       id="path14"
       style="fill:none;fill-opacity:1;stroke:#67001b;stroke-width:0.238125;stroke-linecap:round;stroke-linejoin:round;stroke-dasharray:none;stroke-opacity:1"
       d="M 11.848835,6.8552749 V 7.9424223 A 6.9016695,4.8886826 0 0 0 9.433926,8.6507865 L 8.3487998,7.8824371 6.3969224,9.2647932 7.4820472,10.033143 A 6.9016695,4.8886826 0 0 0 6.4818448,11.743732 H 4.9471664 v 1.955922 h 1.5346784 a 6.9016695,4.8886826 0 0 0 1.0002024,1.71059 l -1.0851248,0.768349 1.9518774,1.382356 1.0851262,-0.76835 a 6.9016695,4.8886826 0 0 0 2.414909,0.708365 v 1.087147 h 2.760668 v -1.087147 a 6.9016695,4.8886826 0 0 0 2.414909,-0.708365 l 1.085126,0.76835 1.951879,-1.382356 -1.085126,-0.768349 a 6.9016695,4.8886826 0 0 0 1.000202,-1.71059 h 1.534679 V 11.743732 H 19.989974 A 6.9016695,4.8886826 0 0 0 18.985053,10.027077 L 20.061417,9.2647932 18.109538,7.8824371 17.033849,8.6440474 A 6.9016695,4.8886826 0 0 0 14.609503,7.932986 V 6.8552749 Z m 1.380335,3.9111711 a 2.7606678,1.955473 0 0 1 2.760666,1.955247 2.7606678,1.955473 0 0 1 -2.760666,1.955248 2.7606678,1.955473 0 0 1 -2.760668,-1.955248 2.7606678,1.955473 0 0 1 2.760668,-1.955247 z" /><path
       style="fill:none;stroke:#700020;stroke-width:0.238125;stroke-linecap:butt;stroke-linejoin:miter;stroke-dasharray:none;stroke-opacity:1"
       d="m 8.3487998,17.560949 -3.9e-6,2.313972"
       id="path27"
       sodipodi:nodetypes="cc" /><path
       id="path28"
       style="fill:none;fill-opacity:0.466102;stroke:#67001b;stroke-width:0.103525;stroke-linecap:round;stroke-linejoin:round;stroke-dasharray:none;stroke-opacity:1"
       d="m 11.931063,14.447111 c 0.387049,-0.1464 0.828684,-0.229832 1.298107,-0.229832 0.469422,0 0.911058,0.08343 1.298106,0.229832"
       sodipodi:nodetypes="ccc" /><path
       id="path29"
       style="fill:url(#radialGradient33);stroke:#67001b;stroke-width:0.238125;stroke-linecap:round;stroke-linejoin:bevel;stroke-dasharray:none;stroke-opacity:1"
       d="m 13.229168,5.9352774 c 1.52455,5e-7 2.760491,0.8753583 2.760667,1.9552474 -1.76e-4,1.0798896 -1.236117,1.9552466 -2.760667,1.9552479 -1.524549,0 -2.760491,-0.8753583 -2.760667,-1.9552479 1.76e-4,-1.0798895 1.236117,-1.9552474 2.760667,-1.9552474 z"
       sodipodi:nodetypes="scscs" /><path
       id="rect29"
       style="fill:url(#linearGradient31);fill-rule:evenodd;stroke:#67001b;stroke-width:0.238125;stroke-linecap:round;stroke-linejoin:round;stroke-dasharray:none;stroke-opacity:1;paint-order:fill markers stroke"
       d="m 10.468502,7.8905248 v 4.8311682 c 1.76e-4,1.079887 1.236121,1.955248 2.760668,1.955248 1.524544,-10e-7 2.76049,-0.875362 2.760666,-1.955248 V 7.8905248 c -1.76e-4,1.0798883 -1.236119,1.9552479 -2.760666,1.9552492 -1.524549,0 -2.760492,-0.8753609 -2.760668,-1.9552492 z" /></g></svg>
