<?xml version="1.0" encoding="UTF-8" standalone="no"?>
<svg
   width="128"
   height="128"
   viewBox="0 0 128 128"
   version="1.1"
   id="svg958"
   inkscape:version="1.3 (0e150ed6c4, 2023-07-21)"
   sodipodi:docname="application-vnd.oasis.opendocument.web-template.svg"
   xmlns:inkscape="http://www.inkscape.org/namespaces/inkscape"
   xmlns:sodipodi="http://sodipodi.sourceforge.net/DTD/sodipodi-0.dtd"
   xmlns:xlink="http://www.w3.org/1999/xlink"
   xmlns="http://www.w3.org/2000/svg"
   xmlns:svg="http://www.w3.org/2000/svg"
   xmlns:rdf="http://www.w3.org/1999/02/22-rdf-syntax-ns#"
   xmlns:cc="http://creativecommons.org/ns#"
   xmlns:dc="http://purl.org/dc/elements/1.1/">
  <defs
     id="defs952">
    <linearGradient
       id="linearGradient1617"
       inkscape:collect="always">
      <stop
         id="stop1613"
         offset="0"
         style="stop-color:#ffffe8;stop-opacity:1" />
      <stop
         id="stop1615"
         offset="1"
         style="stop-color:#ffe896;stop-opacity:1" />
    </linearGradient>
    <linearGradient
       gradientTransform="matrix(3.7000536,0,0,3.7000536,1.8182381,1.4153997)"
       gradientUnits="userSpaceOnUse"
       y2="30.691668"
       x2="25.4"
       y1="3.175"
       x1="10.583333"
       id="linearGradient1619"
       xlink:href="#linearGradient1617"
       inkscape:collect="always" />
    <inkscape:perspective
       id="perspective1523-9"
       inkscape:persp3d-origin="-68.877233 : 1121.3238 : 1"
       inkscape:vp_z="-51.9439 : 1126.9682 : 1"
       inkscape:vp_y="-35.010567 : 1300.5349 : 1"
       inkscape:vp_x="-255.1439 : 1160.8349 : 1"
       sodipodi:type="inkscape:persp3d" />
    <linearGradient
       id="j"
       gradientUnits="userSpaceOnUse"
       x1="235.57521"
       x2="194.65672"
       y1="108.95737"
       y2="13.071068"
       gradientTransform="translate(-145,10)">
      <stop
         offset="0"
         stop-color="#e6e6e6"
         id="stop13-75" />
      <stop
         offset="1"
         stop-color="#fff"
         id="stop14-3" />
    </linearGradient>
  </defs>
  <sodipodi:namedview
     inkscape:bbox-nodes="true"
     inkscape:snap-bbox-edge-midpoints="false"
     inkscape:bbox-paths="false"
     inkscape:snap-bbox="true"
     inkscape:snap-grids="false"
     units="px"
     showgrid="true"
     inkscape:document-rotation="0"
     inkscape:current-layer="layer1"
     inkscape:document-units="mm"
     inkscape:cy="58.862931"
     inkscape:cx="28.587552"
     inkscape:zoom="4.7398251"
     inkscape:pageshadow="2"
     inkscape:pageopacity="0.0"
     borderopacity="1.0"
     bordercolor="#666666"
     pagecolor="#ffffff"
     id="base"
     inkscape:pagecheckerboard="0"
     showguides="true"
     inkscape:guide-bbox="true"
     guidetolerance="10000"
     inkscape:snap-tangential="true"
     inkscape:snap-perpendicular="true"
     inkscape:window-width="1920"
     inkscape:window-height="1135"
     inkscape:window-x="0"
     inkscape:window-y="0"
     inkscape:window-maximized="1"
     inkscape:snap-to-guides="false"
     inkscape:snap-intersection-paths="false"
     inkscape:snap-bbox-midpoints="false"
     inkscape:snap-nodes="true"
     inkscape:object-paths="false"
     inkscape:showpageshadow="2"
     inkscape:deskcolor="#d1d1d1">
    <inkscape:grid
       id="grid1521"
       type="xygrid"
       empcolor="#ff2624"
       empopacity="0.2"
       originx="0"
       originy="0"
       spacingy="1"
       spacingx="1"
       units="px"
       visible="true"
       empspacing="4" />
  </sodipodi:namedview>
  <metadata
     id="metadata955">
    <rdf:RDF>
      <cc:Work
         rdf:about="">
        <dc:format>image/svg+xml</dc:format>
        <dc:type
           rdf:resource="http://purl.org/dc/dcmitype/StillImage" />
      </cc:Work>
    </rdf:RDF>
  </metadata>
  <g
     id="layer1"
     inkscape:groupmode="layer"
     inkscape:label="Layer 1">
    <g
       inkscape:corner7="-0.053832406 : -0.037633691 : 0.25907482 : 1"
       inkscape:corner0="0.069364932 : 0.12047969 : 0 : 1"
       inkscape:perspectiveID="#perspective1523-9"
       style="fill:#216778;stroke-width:1.2;stroke-linecap:square"
       id="g1525"
       sodipodi:type="inkscape:box3d" />
    <path
       style="fill:#000000;fill-opacity:0.196078;stroke:none;stroke-width:2.74112;stroke-miterlimit:4;stroke-dasharray:none;stroke-opacity:1;paint-order:markers stroke fill"
       d="M 100.12116,121.0787 123.61649,85.835695 100.12116,78.00392 Z"
       id="path1768"
       inkscape:connector-curvature="0"
       sodipodi:nodetypes="cccc" />
    <path
       sodipodi:nodetypes="ccccc"
       id="path1611"
       d="M 37.061249,9.2471797 113.40922,17.43532 100.11814,121.08346 13.565908,99.312647 Z"
       style="fill:url(#linearGradient1619);fill-opacity:1;stroke:none;stroke-width:1.66425;stroke-linecap:butt;stroke-linejoin:miter;stroke-miterlimit:4;stroke-dasharray:none;stroke-opacity:1" />
    <g
       transform="matrix(3.7795276,0,0,3.7795276,-29.848286,-1055.3635)"
       id="g6682" />
    <g
       aria-label="?"
       id="text3832"
       style="font-weight:bold;font-size:25.4px;line-height:0.6;font-family:Arial;-inkscape-font-specification:'Arial Bold';text-align:center;text-anchor:middle;fill:#0a0a96;fill-opacity:1;stroke:none;stroke-width:0.449792;stroke-linecap:square;stroke-miterlimit:4;stroke-dasharray:none"
       transform="scale(3.7795276)" />
    <g
       transform="matrix(3.7795276,0,0,3.7795276,-9.4848633e-7,-4.0000003)"
       id="g886" />
    <g
       transform="matrix(3.7795276,0,0,3.7795276,117.75,-29.25)"
       style="font-weight:600;font-size:14.1111px;line-height:0.8;font-family:'URW Bookman';-inkscape-font-specification:'URW Bookman Semi-Bold';letter-spacing:-0.529167px;fill:#8a6f5e;fill-opacity:1;stroke:none;stroke-width:1.00542;stroke-linecap:square;stroke-miterlimit:4;stroke-dasharray:none;stroke-opacity:1"
       id="text1154"
       aria-label="cpp" />
    <g
       style="font-style:normal;font-variant:normal;font-weight:normal;font-stretch:normal;font-size:16.1802px;line-height:0.8;font-family:'Times New Roman';-inkscape-font-specification:'Times New Roman, ';fill:#191996;fill-opacity:1;stroke:none;stroke-width:1.15283;stroke-linecap:square;stroke-miterlimit:4;stroke-dasharray:none;stroke-opacity:1"
       id="text1180"
       aria-label="?"
       transform="scale(3.7795276)" />
    <g
       style="font-style:normal;font-variant:normal;font-weight:normal;font-stretch:normal;font-size:24.855px;line-height:0.8;font-family:'Times New Roman';-inkscape-font-specification:'Times New Roman, ';fill:#191996;fill-opacity:1;stroke:none;stroke-width:0.983845;stroke-linecap:square;stroke-miterlimit:4;stroke-dasharray:none;stroke-opacity:1"
       id="text1190"
       aria-label="f"
       transform="scale(3.7795276)" />
    <g
       style="font-style:italic;font-variant:normal;font-weight:normal;font-stretch:normal;font-size:29.0422px;line-height:0.8;font-family:'Times New Roman';-inkscape-font-specification:'Times New Roman, Italic';fill:#191996;fill-opacity:1;stroke:none;stroke-width:1.14959;stroke-linecap:square;stroke-miterlimit:4;stroke-dasharray:none;stroke-opacity:1"
       id="text1218"
       aria-label="?"
       transform="scale(3.7795276)" />
    <g
       style="font-style:italic;font-variant:normal;font-weight:normal;font-stretch:normal;font-size:29.1244px;line-height:0.8;font-family:'Times New Roman';-inkscape-font-specification:'Times New Roman,  Italic';fill:#191996;fill-opacity:1;stroke:none;stroke-width:1.15284;stroke-linecap:square;stroke-miterlimit:4;stroke-dasharray:none;stroke-opacity:1"
       id="text1298"
       aria-label="?"
       transform="scale(3.7795276)" />
    <g
       id="g29513"
       transform="matrix(3.7795276,0,0,3.7795276,-0.15289495,5.8448117)">
      <g
         aria-label="js"
         id="g29511"
         style="font-style:italic;font-size:19.05px;font-family:Georgia;-inkscape-font-specification:'Georgia Italic';fill-opacity:0.2;stroke-width:0.502708;stroke-linecap:square;stroke-linejoin:round;stroke-opacity:0.05" />
    </g>
    <path
       id="path14"
       style="fill:#6e6e6e;fill-opacity:1"
       d="M 83.783203 14.257812 L 109.90625 44.759766 L 113.41211 17.429688 L 83.783203 14.257812 z " />
    <path
       d="M 37.061249,9.2471797 13.565908,99.312647 100.11814,121.08346 109.90537,44.759495 83.782698,14.257945 Z"
       fill="url(#j)"
       id="path15"
       style="fill:url(#j)"
       sodipodi:nodetypes="cccccc" />
    <path
       style="fill:none;stroke:#6e6e6e;stroke-width:1.9;stroke-linecap:butt;stroke-linejoin:miter;stroke-miterlimit:4;stroke-dasharray:none;stroke-opacity:1"
       d="M 37.064265,9.2424277 113.41224,17.430567 100.12116,121.0787 13.568925,99.3079 Z"
       id="path1553"
       sodipodi:nodetypes="ccccc" />
    <path
       id="path7"
       style="fill:#6e6e6e;stroke-width:2.90909;stroke:none;stroke-opacity:1;fill-opacity:1"
       d="M 63.650391 40.703125 C 50.845529 40.727567 39.200873 49.892951 36.015625 63.140625 C 32.331939 78.461337 41.099388 94.109536 56.445312 97.691406 C 72.511936 101.4415 88.17325 90.342689 90.742188 73.457031 C 93.183835 57.407987 82.575029 43.204473 67.652344 40.994141 C 66.310913 40.795449 64.975032 40.700597 63.650391 40.703125 z M 63.818359 43.082031 C 64.925628 43.092486 66.045306 43.17686 67.171875 43.347656 L 67.183594 43.363281 C 71.20367 43.972836 74.838677 45.536699 77.933594 47.791016 C 77.926594 47.890396 77.911766 47.960001 77.884766 48.066406 C 78.018035 48.152796 78.054778 48.43125 78.273438 48.601562 C 78.354437 48.664752 78.411171 48.696633 78.488281 48.753906 C 78.619361 48.855534 78.716609 49.003832 78.662109 49.136719 C 78.586609 49.33209 78.297239 49.278862 78.130859 49.404297 C 78.099859 49.692731 77.92182 49.651973 77.8125 49.832031 C 77.8359 49.962332 78.012219 49.950635 78.005859 50.101562 C 77.953059 50.255327 77.678004 50.233924 77.708984 50.40625 C 77.942514 50.656576 78.2694 50.530865 78.53125 50.537109 C 79.105879 50.557609 79.588252 50.741031 79.982422 50.529297 C 79.982582 50.259984 80.428283 50.249797 80.439453 50.007812 C 80.445453 49.826103 80.139621 49.734574 80.025391 49.589844 C 79.999791 49.558154 79.972419 49.483176 79.949219 49.423828 C 80.317578 49.755562 80.661956 50.107894 81.009766 50.462891 C 80.897536 50.526801 80.800046 50.614099 80.691406 50.642578 C 80.577666 50.670638 80.420653 50.657132 80.314453 50.701172 C 80.156873 50.772732 80.07992 50.911904 79.900391 50.990234 C 79.770611 51.051304 79.37081 51.263494 79.25 51.244141 C 79.10405 51.220761 78.910975 51.039332 78.796875 51.056641 C 78.638245 51.077391 78.679197 51.33123 78.498047 51.363281 C 78.145447 51.428851 77.601167 50.954872 77.398438 51.425781 C 77.488437 51.730494 77.936316 51.713989 78.160156 51.908203 C 78.298346 52.032537 78.499396 52.506059 78.509766 52.681641 C 78.525166 52.827469 78.452644 53.358488 78.365234 53.498047 C 78.138395 53.871567 77.701484 53.761654 77.240234 53.675781 C 77.114515 53.655151 76.998466 53.646507 76.884766 53.617188 C 76.115856 53.439721 75.41893 53.049147 74.96875 53.542969 C 74.91645 53.969672 74.939564 54.240815 74.777344 54.59375 C 74.658264 54.851363 74.324785 54.99924 74.296875 55.236328 C 74.280175 55.357072 74.447326 55.576054 74.447266 55.746094 C 74.450266 55.839264 74.357613 56.010813 74.382812 56.097656 C 74.468512 56.36516 74.864081 56.138145 75.087891 56.216797 C 75.30266 56.289057 75.501441 56.638486 75.457031 56.884766 C 75.425331 57.060794 75.2296 57.398396 75.087891 57.550781 C 74.806171 57.845648 74.408383 57.736033 74.058594 57.863281 C 73.769684 57.969776 73.658768 58.26058 73.455078 58.496094 C 73.237568 58.7501 73.075246 58.867828 73.066406 59.283203 C 72.757587 59.694167 72.452582 59.930084 71.945312 60.066406 C 71.798473 60.103986 71.571967 60.153517 71.429688 60.222656 C 71.316298 60.275926 71.180285 60.380068 71.009766 60.517578 C 70.797556 60.68436 70.574692 60.776873 70.451172 60.912109 C 70.359272 61.016329 70.348711 61.223222 70.244141 61.367188 C 70.094031 61.560831 69.842289 61.688554 69.662109 61.876953 C 69.577709 61.966933 69.454365 62.073673 69.359375 62.193359 C 69.143645 62.459726 68.866756 62.699869 68.847656 62.964844 C 68.825156 63.21898 69.137598 63.285734 69.111328 63.507812 C 69.103328 63.633095 68.945911 63.708089 68.925781 63.841797 C 68.894281 64.036954 68.967025 64.191376 68.953125 64.347656 C 68.916825 64.733025 68.701671 64.774812 68.582031 65.023438 C 68.523631 65.140089 68.562472 65.292738 68.513672 65.384766 C 68.416972 65.563625 68.094695 65.6909 68.046875 65.916016 C 68.011475 66.074398 68.219106 66.215954 68.191406 66.445312 C 68.172606 66.601833 67.983518 66.760299 67.986328 66.910156 C 67.988328 67.198914 68.481374 67.653382 68.652344 67.910156 C 68.884764 68.259219 69.134825 68.559129 69.203125 68.894531 C 69.259925 69.179769 69.241454 69.579003 69.402344 69.814453 C 69.522304 69.988373 69.767745 70.103837 69.927734 70.291016 C 70.079634 70.465962 70.290702 70.583795 70.451172 70.771484 C 70.715932 71.082237 71.010862 71.680146 71.513672 71.738281 C 71.778602 71.767381 72.096718 71.647211 72.398438 71.650391 C 72.710657 71.655391 73.080123 71.624484 73.382812 71.714844 C 73.614742 71.785994 73.839774 71.941187 74.089844 71.972656 C 74.350473 72.005736 74.660896 71.962699 74.978516 71.886719 C 75.530155 71.756979 76.397231 71.531148 77.125 71.78125 C 77.681779 71.974848 77.577394 72.625847 77.933594 72.962891 C 78.385363 73.092928 78.801884 73.034756 79.152344 73.195312 C 79.417903 73.317886 79.648549 73.838773 79.636719 74.068359 C 79.623719 74.30332 79.341056 74.504151 79.285156 74.642578 C 79.159076 74.939105 79.100302 75.309734 79.013672 75.498047 C 78.945572 75.645687 78.829914 75.821703 78.808594 75.978516 C 78.784794 76.118344 78.961286 76.470627 79.072266 76.681641 C 79.207595 76.942177 79.407252 77.143556 79.576172 77.433594 C 79.885132 77.964262 79.998899 78.598788 80.167969 79.255859 C 80.211669 79.422095 80.071216 79.437191 80.103516 79.640625 C 79.833756 80.533651 79.434377 81.102009 78.679688 82.001953 C 78.348408 82.274625 77.927781 82.620301 77.863281 83.033203 C 77.674381 84.019416 78.149655 84.635467 77.947266 85.589844 C 77.632306 86.868701 77.666545 87.10318 77.453125 87.779297 C 77.837575 88.0923 77.554885 88.673142 77.353516 89.111328 C 77.077936 89.627067 76.836225 89.710168 76.671875 90.058594 C 76.978115 90.28193 77.347765 90.324818 77.734375 90.306641 C 71.921851 94.717424 64.463905 96.61217 56.976562 94.896484 C 53.838516 94.177415 51.005846 92.862865 48.517578 91.144531 C 48.426978 91.078541 48.322691 91.029499 48.238281 90.947266 C 48.104541 90.814303 48.049321 90.583487 48.113281 90.380859 C 48.397841 90.319389 48.806188 90.820541 49.080078 90.464844 C 49.215188 90.295256 49.077678 89.861802 49.242188 89.699219 C 49.359307 89.588661 49.921451 89.618313 50.113281 89.626953 C 50.388761 89.636853 50.67188 89.726 50.84375 89.65625 C 51.03292 89.5787 51.317232 89.313138 51.357422 88.96875 C 51.374922 88.807499 51.286892 88.70011 51.201172 88.533203 C 51.131072 88.392622 51.203909 88.25183 51.162109 88.128906 C 51.081809 87.912501 50.908256 87.830366 50.916016 87.542969 C 51.291435 87.546469 51.717695 88.149905 52.271484 88.107422 C 52.532974 88.085662 52.993336 87.597355 53.160156 87.373047 C 53.210856 87.304867 53.181434 87.07369 53.240234 86.990234 C 53.306934 86.897184 53.507023 86.839942 53.533203 86.789062 C 53.598303 86.650446 53.534684 86.618559 53.583984 86.533203 C 53.730744 86.276774 53.994017 86.171346 54.185547 86.003906 C 54.331987 85.877523 54.506991 85.706186 54.644531 85.572266 C 54.799251 85.43089 54.848874 85.370653 54.958984 85.242188 C 55.133964 84.767387 54.897533 84.365752 55.095703 83.958984 C 55.314593 83.501043 55.996926 83.322789 56.478516 83.195312 C 56.644445 83.152163 56.866463 83.06466 57.001953 83.042969 C 57.326583 82.994099 57.694257 83.038074 57.998047 82.990234 C 58.508826 82.907634 58.726862 82.44432 59.050781 82.03125 C 59.204401 81.839879 59.366949 81.606238 59.417969 81.455078 C 59.465569 81.319933 59.435488 81.237517 59.492188 81.082031 C 59.548887 80.926699 59.630038 80.769769 59.705078 80.601562 C 59.805838 80.383279 59.945474 80.011927 59.996094 79.755859 C 60.038294 79.542609 59.943663 79.419292 59.976562 79.226562 C 60.078142 78.528088 60.355785 78.530978 60.671875 78.203125 C 60.829355 78.041921 60.917677 77.749984 61.029297 77.634766 C 61.562076 77.081454 62.319731 76.957177 62.457031 75.984375 C 62.498831 75.663676 62.526019 74.946606 62.324219 74.802734 C 62.209839 74.720194 61.932979 74.676791 61.761719 74.566406 C 61.215759 74.21849 60.918093 73.428823 60.314453 73.255859 C 60.185793 73.225249 60.10644 73.22103 59.962891 73.1875 C 59.724851 73.13539 59.463292 72.867066 59.201172 72.783203 C 59.036442 72.729443 58.709764 72.739553 58.621094 72.667969 C 58.483074 72.56019 58.592378 72.247215 58.486328 72.134766 C 58.401928 72.042816 58.184779 72.009086 58.042969 71.921875 C 57.820689 71.776116 57.675617 71.618574 57.398438 71.542969 C 57.310838 71.520629 57.146241 71.509629 57.050781 71.474609 C 56.903251 71.419309 56.762302 71.261314 56.638672 71.140625 C 56.484872 70.992627 56.406054 70.88907 56.365234 70.714844 C 56.641964 70.189883 56.146876 70.001261 56.103516 69.65625 C 56.085216 69.497887 56.224605 69.316622 56.203125 69.173828 C 56.178425 68.971913 56.01136 68.80242 55.84375 68.605469 C 55.55142 68.252067 55.312298 67.95083 54.824219 67.789062 C 54.605559 67.721333 54.28843 67.707716 54.025391 67.636719 C 53.747991 67.563009 53.490951 67.304609 53.332031 67.007812 C 53.181441 66.72084 53.156123 66.480259 53.001953 66.330078 C 52.856493 66.186924 52.579281 66.124376 52.488281 65.986328 C 52.446181 65.925778 52.453187 65.853732 52.429688 65.728516 C 52.381988 65.53063 52.264379 65.432445 52.417969 65.230469 C 52.246859 65.093723 52.257034 65.364229 52.058594 65.285156 C 51.930394 64.973206 51.788636 64.776683 51.347656 64.783203 C 51.147046 64.787203 50.935474 65.070375 50.708984 65.033203 C 50.520995 65.003123 50.462922 64.654972 50.226562 64.574219 C 50.045403 64.514639 49.762985 64.642121 49.640625 64.587891 C 49.443935 64.509731 49.427001 64.315193 49.269531 64.150391 C 49.152101 64.02964 48.978087 63.730295 48.898438 63.720703 C 48.659408 63.681383 48.328185 64.167854 48.041016 63.921875 C 47.927066 63.67732 48.397873 63.707405 48.251953 63.472656 C 48.142623 63.296671 48.027994 63.471097 47.896484 63.529297 C 47.742575 63.599367 47.557587 63.652226 47.398438 63.679688 C 47.042598 63.748377 46.855069 63.677701 46.568359 63.769531 C 46.30285 63.854911 46.186357 64.041073 45.992188 64.269531 C 45.836438 64.458542 45.585659 64.784826 45.417969 64.763672 C 45.216059 64.741522 45.104629 64.427863 44.943359 64.314453 C 44.45782 63.963947 44.045436 64.256677 43.597656 64.177734 C 43.183317 64.104934 42.734536 63.354555 42.847656 62.947266 C 42.919956 62.69776 43.179947 62.366328 43.279297 62.060547 C 43.358897 61.818232 43.603556 61.630116 43.660156 61.404297 C 43.733756 61.104911 43.307596 60.781364 43.128906 60.712891 C 42.710167 60.549345 42.058685 60.730369 41.609375 60.433594 C 41.555275 60.250237 41.840364 60.163086 41.933594 60.011719 C 41.987694 59.924639 41.931881 59.877979 41.988281 59.78125 C 42.079881 59.634951 42.307866 59.534301 42.416016 59.380859 C 42.496316 59.263106 42.545463 59.088229 42.632812 58.941406 C 42.734012 58.77677 42.913771 58.647643 42.957031 58.523438 C 43.013731 58.361164 42.946173 58.152961 42.845703 58.023438 C 42.455554 57.978598 42.192262 57.915252 41.945312 57.982422 C 41.390583 58.130891 41.355079 58.892381 40.8125 58.966797 C 40.62802 58.993827 40.340462 58.959984 40.138672 58.958984 C 40.049172 58.960884 39.951832 58.957144 39.851562 58.964844 C 40.588842 57.262295 41.4804 55.666376 42.511719 54.195312 C 42.622099 54.214452 42.73998 54.218274 42.8125 54.246094 C 42.97967 54.309994 43.048436 54.507935 43.197266 54.548828 C 43.613905 54.65619 43.796017 54.268187 44.191406 54.136719 C 44.539726 54.25173 44.744573 54.192116 45.064453 54.287109 C 45.281383 54.349319 45.463659 54.69321 45.636719 54.738281 C 45.784199 54.768761 45.856315 54.633427 45.990234 54.681641 C 46.124274 54.729631 46.338149 55.034402 46.324219 55.212891 C 46.297719 55.434578 46.055077 55.62614 46.060547 55.878906 C 46.226687 56.149973 46.659157 56.31689 46.941406 56.507812 C 47.186506 56.368923 47.096864 55.968823 47.121094 55.710938 C 47.141394 55.598617 47.188566 55.473423 47.197266 55.369141 C 47.213566 55.190823 47.161113 55.046382 47.195312 54.896484 C 47.351292 54.205761 47.952288 54.013683 48.460938 53.820312 C 48.678307 53.737313 48.919802 53.51703 49.107422 53.458984 C 49.372792 53.379064 49.484781 53.408486 49.707031 53.326172 C 50.108951 53.179334 50.516833 52.999976 50.845703 52.810547 C 51.041473 52.518637 50.988053 52.100211 51.070312 51.794922 C 51.214842 51.734392 51.257275 51.841489 51.396484 51.849609 C 51.622804 51.837599 51.78807 51.577242 51.9375 51.472656 C 52.0233 51.412626 52.214113 51.358789 52.314453 51.300781 C 52.568293 51.163787 52.648896 50.969498 52.853516 50.923828 C 52.924416 50.911028 53.101238 50.876594 53.210938 50.865234 C 53.360377 50.850494 53.566917 50.774677 53.810547 50.730469 C 53.967907 50.701959 54.315806 50.760861 54.384766 50.712891 C 54.470566 50.652771 54.439922 50.367096 54.482422 50.259766 C 54.712412 49.736375 55.571691 49.817137 56.087891 49.712891 C 56.44657 49.637331 56.803993 49.405025 57.158203 49.537109 C 57.032523 49.785036 56.709818 49.722551 56.705078 50.044922 C 56.692678 50.495983 57.36617 49.985016 57.53125 49.947266 C 57.84732 49.869456 58.418035 49.884275 58.828125 49.806641 C 59.186765 49.740491 59.761114 49.661791 59.527344 49.220703 C 59.269334 49.159253 59.14906 49.405653 58.900391 49.464844 C 58.738401 49.463044 58.722977 49.333987 58.591797 49.302734 C 58.464387 49.277204 58.357655 49.402242 58.234375 49.357422 C 58.111085 49.312882 57.980811 49.008097 57.994141 48.851562 C 58.026941 48.44062 58.491164 48.427203 58.714844 48.15625 C 58.682044 47.775091 58.145907 47.980985 57.873047 47.789062 C 57.951547 47.579456 58.151183 47.415128 58.414062 47.410156 C 58.624852 47.409269 59.065569 47.522424 59.167969 47.642578 C 59.225869 47.716268 59.116678 47.877996 59.205078 47.996094 C 59.305648 48.126033 59.487677 48.066119 59.654297 48.068359 C 59.768717 47.804553 59.304192 47.847197 59.388672 47.677734 C 59.755702 47.518827 60.345494 47.77271 60.751953 47.783203 C 60.987843 47.786203 61.264138 47.630329 61.492188 47.552734 C 61.705947 47.472864 61.908796 47.319255 62.072266 47.533203 C 62.088966 47.73903 61.886499 47.863996 61.755859 47.947266 C 61.32065 48.215003 60.904022 48.467073 60.539062 48.800781 C 60.680052 49.002459 61.011172 48.953588 61.300781 49.035156 C 61.412681 49.068386 61.493555 49.162528 61.609375 49.201172 C 61.748345 49.248182 61.95222 49.233001 62.0625 49.275391 C 62.25419 49.356261 62.243553 49.656801 62.445312 49.689453 C 62.772292 49.742363 62.810269 49.392934 62.667969 49.140625 C 62.771239 48.923063 62.945814 48.767819 62.896484 48.595703 C 62.808284 48.273314 62.128844 48.513526 62.177734 48.128906 C 62.207734 47.885626 62.483932 47.901239 62.607422 47.732422 C 62.663222 47.26569 63.08819 47.309513 63.125 46.884766 C 63.1364 46.708595 62.945855 46.677694 62.859375 46.496094 C 62.814475 46.400424 62.875406 46.213997 62.816406 46.140625 C 62.610806 45.891699 62.092924 45.869632 62.146484 45.464844 C 62.180784 45.224537 62.265796 45.05296 62.285156 44.791016 C 62.301556 44.54358 62.244679 43.802418 62.042969 43.722656 C 61.788759 43.625586 61.49854 44.058416 61.150391 44.15625 C 60.963021 44.21047 60.63116 44.226196 60.462891 44.166016 C 60.354131 44.125266 60.167999 44.0009 60.199219 43.78125 C 60.228219 43.52736 60.432806 43.518735 60.535156 43.261719 C 61.614875 43.134183 62.71109 43.071576 63.818359 43.082031 z M 57.1875 43.886719 C 56.91202 44.845326 55.944632 45.213749 54.939453 45.029297 C 54.679523 45.20305 54.706844 45.609097 54.527344 45.878906 C 54.376764 46.104568 54.007537 46.279349 53.773438 46.222656 C 53.603898 46.180806 53.397404 45.872205 53.433594 45.707031 C 53.477994 45.504248 53.780003 45.433884 53.658203 45.175781 C 53.675703 45.129731 53.747984 45.090933 53.808594 45.046875 C 54.907353 44.585912 56.028781 44.188821 57.1875 43.886719 z M 50.267578 46.871094 L 50.269531 46.871094 C 50.467801 47.025255 50.730156 47.619047 50.253906 47.738281 C 50.202206 47.754131 49.57456 47.762303 49.46875 47.720703 C 49.38175 47.691643 49.327231 47.597005 49.269531 47.501953 C 49.595011 47.280397 49.933708 47.076668 50.267578 46.871094 z M 49.382812 47.962891 C 49.512659 47.964366 49.649829 47.977532 49.746094 47.998047 L 49.744141 47.996094 C 49.809041 48.006624 49.831216 47.981352 49.847656 48.013672 C 49.758956 48.259565 49.642451 48.320658 49.425781 48.408203 C 49.051042 48.558338 48.775282 48.772282 48.570312 49.191406 C 48.509013 49.314336 48.08195 49.605693 47.931641 49.548828 C 47.584791 49.407792 48.243703 48.790695 48.351562 48.695312 C 48.470812 48.591955 48.611707 48.529352 48.748047 48.414062 C 48.884347 48.298775 48.947606 48.063018 49.066406 48.003906 C 49.130996 47.972691 49.252966 47.961416 49.382812 47.962891 z M 50.714844 48.056641 C 50.762023 48.050629 50.807848 48.051407 50.853516 48.0625 L 50.853516 48.060547 C 50.964086 48.083297 51.00265 48.30721 51.130859 48.337891 C 51.254389 48.368191 51.415075 48.243497 51.484375 48.279297 C 51.668535 48.363137 51.685917 48.734489 51.466797 48.851562 C 51.308807 48.845263 51.283076 48.685911 51.166016 48.691406 C 50.836866 48.696406 50.590592 49.309892 50.357422 49.251953 C 50.139392 49.191833 50.137664 48.697428 50.402344 48.568359 C 50.438944 48.426655 50.326188 48.355696 50.367188 48.214844 C 50.434237 48.155729 50.573306 48.074675 50.714844 48.056641 z M 77.132812 48.166016 C 77.037513 48.169116 76.979132 48.208718 76.888672 48.242188 C 76.679292 48.325057 76.628659 48.499986 76.474609 48.53125 C 76.25748 48.57227 76.031987 48.511675 75.966797 48.6875 C 75.914697 48.835316 76.051384 48.910473 76.021484 49.046875 C 75.914264 49.216462 75.783045 49.256385 75.703125 49.470703 C 75.882785 49.918402 76.556689 49.58339 76.886719 49.544922 C 77.033439 49.528032 77.165426 49.580695 77.259766 49.484375 C 77.368436 49.365125 77.373956 49.107831 77.472656 48.931641 C 77.579386 48.736693 77.762061 48.808396 77.769531 48.623047 C 77.782231 48.438627 77.444919 48.186924 77.130859 48.167969 L 77.132812 48.166016 z M 51.714844 49.265625 C 51.778926 49.265617 51.857244 49.282039 51.933594 49.287109 L 51.935547 49.287109 C 52.044047 49.300029 52.148695 49.320704 52.265625 49.339844 C 52.382585 49.358994 52.553524 49.339071 52.589844 49.394531 C 52.445474 49.697492 51.797688 49.494128 51.580078 49.339844 C 51.600378 49.281416 51.650761 49.265633 51.714844 49.265625 z M 49.683594 49.640625 C 49.755311 49.629611 49.846014 49.649293 49.927734 49.650391 C 50.137654 49.660581 50.470375 49.633639 50.708984 49.667969 L 50.714844 49.664062 C 50.794044 49.677102 50.862873 49.654002 50.939453 49.701172 C 50.683673 49.851914 50.360107 49.948136 49.960938 50.005859 C 49.771398 50.033419 49.536478 50.026011 49.548828 49.820312 C 49.558128 49.693425 49.611876 49.651639 49.683594 49.640625 z M 82.521484 54.046875 L 82.517578 54.058594 C 82.924898 54.099674 83.092958 54.632353 83.236328 54.904297 C 83.356848 55.126163 83.749886 55.454932 83.978516 55.632812 C 84.109705 55.732062 84.272392 55.851953 84.419922 55.949219 C 84.730002 56.151466 85.266646 56.734552 85.228516 57.0625 C 85.207016 57.226148 85.032653 57.366342 85.033203 57.523438 C 85.279693 57.606337 85.568518 57.257853 85.617188 57.009766 C 85.627187 56.951106 85.611497 56.909736 85.591797 56.867188 C 86.158856 57.998727 86.648482 59.174239 87.050781 60.394531 C 86.810511 60.422421 86.595857 60.49747 86.523438 60.712891 C 86.424438 60.992719 86.606776 61.41862 86.160156 61.394531 C 85.877987 61.382861 85.604441 61.009254 85.238281 60.861328 C 85.088221 60.798458 84.86786 60.839684 84.75 60.777344 C 84.48081 60.63048 84.579418 60.309322 84.361328 60.097656 C 84.237628 59.976219 83.886009 59.796131 83.667969 59.732422 C 83.531079 59.692922 83.451777 59.714952 83.310547 59.669922 C 83.138527 59.619632 82.856112 59.559263 82.726562 59.447266 C 82.602093 59.33657 82.321484 59.127943 82.302734 59.003906 C 82.278234 58.805568 82.724829 58.628884 82.761719 58.472656 C 82.793019 58.35217 82.699578 58.283267 82.705078 58.095703 C 82.703078 57.980334 82.778925 57.811804 82.765625 57.736328 C 82.751925 57.598117 82.531765 57.456473 82.322266 57.416016 C 82.137686 57.384976 81.977139 57.479855 81.818359 57.453125 C 81.59225 57.420165 81.166269 57.19583 80.880859 57.173828 C 80.70972 57.160948 80.536923 57.227447 80.376953 57.210938 C 79.927254 57.171608 79.653084 57.064553 79.302734 57.03125 C 79.050915 57.00472 78.560653 57.040812 78.308594 57.107422 C 78.182204 57.143052 78.075706 57.233165 77.910156 57.283203 C 77.832956 57.306503 77.748681 57.332672 77.650391 57.357422 C 77.496851 57.399222 77.278312 57.50775 77.132812 57.519531 C 76.926413 57.536611 76.664254 57.424341 76.302734 57.378906 C 76.042455 57.350616 75.607943 57.212371 75.658203 56.904297 C 75.737103 56.436061 76.564558 56.7732 77.023438 56.767578 C 77.196487 56.760478 77.337777 56.579813 77.560547 56.498047 C 77.666407 56.459037 77.718583 56.464952 77.820312 56.419922 C 77.990902 56.339742 78.332396 56.143853 78.378906 56.027344 C 78.418506 55.920088 78.298925 55.732188 78.328125 55.654297 C 78.366825 55.552197 78.579705 55.476135 78.740234 55.363281 C 78.989864 55.187793 79.148477 54.964852 79.435547 54.873047 C 79.629587 54.807077 79.964763 54.863468 80.070312 54.736328 C 80.118212 54.57915 80.100359 54.527377 80.130859 54.382812 C 80.259829 54.300943 80.315366 54.190644 80.410156 54.185547 C 80.694636 54.170857 80.90176 54.397902 81.224609 54.435547 C 81.362859 54.453197 81.558656 54.473174 81.722656 54.402344 C 81.858716 54.341734 81.990447 54.26481 82.123047 54.224609 C 82.267557 54.176099 82.356535 54.030275 82.521484 54.046875 z M 84.087891 54.263672 C 84.21984 54.466255 84.357705 54.666381 84.484375 54.871094 C 84.353845 54.658019 84.101791 54.54264 84.087891 54.263672 z M 84.494141 54.871094 C 84.611238 55.062078 84.735327 55.247891 84.849609 55.441406 C 84.828209 55.425066 84.792891 55.413198 84.775391 55.392578 C 84.651629 55.259564 84.605918 55.063702 84.494141 54.871094 z M 82.5625 54.876953 C 82.546186 54.880752 82.531311 54.896604 82.503906 54.902344 C 82.326046 54.929764 82.179265 55.288293 82.421875 55.375 C 82.551375 55.32392 82.617907 55.138423 82.623047 54.921875 C 82.595697 54.88119 82.578814 54.873154 82.5625 54.876953 z M 82.265625 55.589844 C 82.180143 55.600664 82.10931 55.588519 82.007812 55.664062 C 81.964913 55.947513 81.984909 56.140607 81.886719 56.378906 C 81.997009 56.719912 82.38211 56.558289 82.5 56.359375 C 82.685722 55.851266 82.522897 55.566635 82.267578 55.589844 L 82.265625 55.589844 z M 83.970703 57.353516 C 83.863652 57.352599 83.767196 57.367971 83.691406 57.410156 C 83.830946 57.747351 84.162545 57.904102 84.578125 58.052734 C 84.751675 57.966694 84.813669 57.683365 84.917969 57.501953 C 84.732149 57.470793 84.539513 57.448995 84.314453 57.400391 L 84.306641 57.396484 C 84.194196 57.372194 84.077754 57.354432 83.970703 57.353516 z M 39.396484 60.152344 C 39.596763 60.449202 39.680599 60.898421 39.953125 61.119141 C 40.053835 61.204371 40.218848 61.252102 40.361328 61.314453 C 40.476178 61.360913 40.555279 61.423896 40.662109 61.484375 C 40.887519 61.618012 41.195641 61.731827 41.369141 61.861328 C 41.63497 62.054321 41.725383 62.600953 41.945312 62.806641 C 41.923013 62.967334 41.818561 63.146025 41.837891 63.273438 C 41.919291 63.469337 42.134588 63.569934 42.304688 63.720703 C 42.511467 63.904365 42.514944 64.252621 42.714844 64.404297 C 42.786644 64.454067 42.933885 64.402368 43.046875 64.464844 C 43.334145 64.622784 43.316546 65.090056 43.603516 65.058594 C 43.790125 65.036914 43.862651 64.806831 43.931641 64.632812 C 44.07991 64.520515 44.271408 64.330705 44.455078 64.365234 C 44.748378 64.415284 44.698591 64.82935 44.738281 65.154297 C 44.761481 65.335763 44.851636 65.477896 44.853516 65.666016 C 44.854026 65.989804 44.638866 66.904091 44.535156 67.078125 C 44.406866 67.294718 44.086309 67.338007 43.849609 67.554688 C 43.737319 67.658993 43.631385 67.797499 43.546875 67.865234 C 43.399065 67.994325 43.252769 68.036805 43.136719 68.15625 C 43.072219 68.22223 43.013676 68.38867 42.947266 68.486328 C 42.731986 68.781414 42.478323 68.982565 42.507812 69.394531 C 42.519512 69.560475 42.663724 69.724856 42.621094 69.912109 C 42.570394 70.134884 42.129636 70.181344 42.041016 70.417969 C 41.977116 70.590765 42.103862 70.924784 42.101562 71.173828 C 42.098563 71.359206 42.363973 71.604737 42.439453 71.742188 C 42.560593 71.974106 42.630169 72.266917 42.724609 72.552734 C 42.912439 73.109069 42.962428 73.721724 43.148438 74.269531 C 43.249437 74.553589 43.501685 74.817888 43.546875 75.107422 C 43.569375 75.252283 43.41728 75.459994 43.4375 75.59375 C 43.5163 76.047819 44.202945 76.676657 44.546875 76.964844 C 44.708185 77.101426 44.910711 77.191087 45.056641 77.330078 C 45.27824 77.539292 45.723911 77.979343 45.800781 78.251953 C 45.868881 78.495747 45.805709 79.040969 45.787109 79.404297 C 45.758309 79.881386 45.578791 80.255834 45.488281 80.759766 C 45.443081 81.036883 45.501606 81.249043 45.441406 81.523438 C 45.420606 81.618227 45.385275 81.802421 45.359375 81.896484 C 45.282475 82.22323 45.239848 82.560059 45.142578 82.888672 C 45.088078 83.065684 45.0549 83.23448 45.03125 83.390625 C 45.01005 83.558422 45.082147 83.637585 45.060547 83.783203 C 45.036947 83.939654 44.852114 84.136163 44.839844 84.261719 C 44.800444 84.604693 45.003171 84.884555 44.994141 85.207031 C 44.989141 85.463513 44.953125 86.071207 44.859375 86.359375 C 44.805875 86.510558 44.693859 86.674357 44.636719 86.841797 C 44.592319 86.972674 44.603141 87.095609 44.556641 87.214844 C 44.515141 87.332459 44.464739 87.425198 44.412109 87.523438 C 38.724865 81.347332 36.22604 72.443356 38.330078 63.552734 C 38.608998 62.374132 38.983165 61.249258 39.396484 60.152344 z M 47.964844 64.542969 C 48.10494 64.579162 47.976804 64.904568 47.808594 64.900391 C 47.627154 64.892091 47.696729 64.599858 47.886719 64.546875 C 47.918295 64.538466 47.94483 64.537798 47.964844 64.542969 z " />
  </g>
</svg>
