<?xml version="1.0" encoding="UTF-8" standalone="no"?>
<svg
   width="128"
   height="128"
   viewBox="0 0 128 128"
   version="1.1"
   id="svg958"
   inkscape:version="1.3 (0e150ed6c4, 2023-07-21)"
   sodipodi:docname="template-libreoffice-impress.svg"
   xmlns:inkscape="http://www.inkscape.org/namespaces/inkscape"
   xmlns:sodipodi="http://sodipodi.sourceforge.net/DTD/sodipodi-0.dtd"
   xmlns:xlink="http://www.w3.org/1999/xlink"
   xmlns="http://www.w3.org/2000/svg"
   xmlns:svg="http://www.w3.org/2000/svg"
   xmlns:rdf="http://www.w3.org/1999/02/22-rdf-syntax-ns#"
   xmlns:cc="http://creativecommons.org/ns#"
   xmlns:dc="http://purl.org/dc/elements/1.1/">
  <defs
     id="defs952">
    <linearGradient
       id="linearGradient1617"
       inkscape:collect="always">
      <stop
         id="stop1613"
         offset="0"
         style="stop-color:#ffffe8;stop-opacity:1" />
      <stop
         id="stop1615"
         offset="1"
         style="stop-color:#ffe896;stop-opacity:1" />
    </linearGradient>
    <linearGradient
       gradientTransform="matrix(3.7000536,0,0,3.7000536,1.8182381,1.4153997)"
       gradientUnits="userSpaceOnUse"
       y2="30.691668"
       x2="25.4"
       y1="3.175"
       x1="10.583333"
       id="linearGradient1619"
       xlink:href="#linearGradient1617"
       inkscape:collect="always" />
    <inkscape:perspective
       id="perspective1523-9"
       inkscape:persp3d-origin="-68.877233 : 1121.3238 : 1"
       inkscape:vp_z="-51.9439 : 1126.9682 : 1"
       inkscape:vp_y="-35.010567 : 1300.5349 : 1"
       inkscape:vp_x="-255.1439 : 1160.8349 : 1"
       sodipodi:type="inkscape:persp3d" />
    <linearGradient
       id="k"
       gradientTransform="matrix(7.99974,0,0,7.9977797,-1006.4841,-7802.2803)"
       gradientUnits="userSpaceOnUse"
       x1="138.32977"
       x2="130.4474"
       xlink:href="#e"
       y1="990.69543"
       y2="976.71204" />
    <linearGradient
       id="e">
      <stop
         offset="0"
         stop-color="#a33e03"
         id="stop8" />
      <stop
         offset="1"
         stop-color="#d36118"
         id="stop9" />
    </linearGradient>
    <linearGradient
       id="f"
       gradientUnits="userSpaceOnUse"
       x1="108.00134"
       x2="20.001341"
       y1="122"
       y2="6">
      <stop
         offset="0"
         stop-color="#e6e6e6"
         id="stop10" />
      <stop
         offset="1"
         stop-color="#fff"
         id="stop11"
         style="stop-color:#ffffff;stop-opacity:1;" />
    </linearGradient>
    <linearGradient
       id="c"
       gradientTransform="matrix(0.140493,0,0,0.999984,67.079595,1284.6174)"
       gradientUnits="userSpaceOnUse"
       x1="-17"
       x2="144"
       y1="-1194.6378"
       y2="-1194.6378">
      <stop
         offset="0"
         stop-color="#fff"
         stop-opacity="0"
         id="stop5" />
      <stop
         offset=".49305555"
         stop-color="#fff"
         id="stop6" />
      <stop
         offset="1"
         stop-color="#fff"
         stop-opacity="0"
         id="stop7" />
    </linearGradient>
    <linearGradient
       id="b"
       gradientUnits="userSpaceOnUse"
       x1="108.00537"
       x2="19.322689"
       y1="120.77719"
       y2="6.7152839">
      <stop
         offset="0"
         stop-color="#6e6e6e"
         id="stop3" />
      <stop
         offset="1"
         stop-color="#b0b0b0"
         id="stop4" />
    </linearGradient>
    <linearGradient
       id="a"
       gradientUnits="userSpaceOnUse"
       x1="108.00134"
       x2="20.001341"
       y1="122"
       y2="6">
      <stop
         offset="0"
         stop-color="#18a303"
         id="stop12" />
      <stop
         offset="1"
         stop-color="#106802"
         id="stop13" />
    </linearGradient>
    <linearGradient
       inkscape:collect="always"
       xlink:href="#f"
       id="linearGradient148"
       gradientUnits="userSpaceOnUse"
       x1="232.27933"
       y1="119.96705"
       x2="169.21289"
       y2="8.1673059"
       gradientTransform="translate(-132.15816,1.1116494)" />
    <linearGradient
       inkscape:collect="always"
       xlink:href="#e"
       id="linearGradient149"
       gradientUnits="userSpaceOnUse"
       x1="232.27631"
       y1="119.97181"
       x2="169.21451"
       y2="8.1611538"
       gradientTransform="translate(-132.15816,1.1116494)" />
    <linearGradient
       inkscape:collect="always"
       xlink:href="#c"
       id="linearGradient150"
       gradientUnits="userSpaceOnUse"
       gradientTransform="matrix(0.140493,0,0,0.999984,-65.078565,1285.729)"
       x1="-17"
       y1="-1194.6378"
       x2="144"
       y2="-1194.6378" />
    <linearGradient
       inkscape:collect="always"
       xlink:href="#b"
       id="linearGradient151"
       gradientUnits="userSpaceOnUse"
       x1="108.00537"
       y1="120.77719"
       x2="19.322689"
       y2="6.7152839"
       gradientTransform="translate(-132.15816,1.1116494)" />
    <linearGradient
       inkscape:collect="always"
       xlink:href="#a"
       id="linearGradient152"
       gradientUnits="userSpaceOnUse"
       x1="108.00134"
       y1="122"
       x2="20.001341"
       y2="6"
       gradientTransform="translate(-132.15816,1.1116494)" />
  </defs>
  <sodipodi:namedview
     inkscape:bbox-nodes="true"
     inkscape:snap-bbox-edge-midpoints="false"
     inkscape:bbox-paths="false"
     inkscape:snap-bbox="true"
     inkscape:snap-grids="false"
     units="px"
     showgrid="false"
     inkscape:document-rotation="0"
     inkscape:current-layer="layer1"
     inkscape:document-units="mm"
     inkscape:cy="52.390674"
     inkscape:cx="40.558121"
     inkscape:zoom="6.718753"
     inkscape:pageshadow="2"
     inkscape:pageopacity="0.0"
     borderopacity="1.0"
     bordercolor="#666666"
     pagecolor="#ffffff"
     id="base"
     inkscape:pagecheckerboard="0"
     showguides="true"
     inkscape:guide-bbox="true"
     guidetolerance="10000"
     inkscape:snap-tangential="true"
     inkscape:snap-perpendicular="true"
     inkscape:window-width="1920"
     inkscape:window-height="1119"
     inkscape:window-x="0"
     inkscape:window-y="0"
     inkscape:window-maximized="1"
     inkscape:snap-to-guides="false"
     inkscape:snap-intersection-paths="false"
     inkscape:snap-bbox-midpoints="false"
     inkscape:snap-nodes="true"
     inkscape:object-paths="false"
     inkscape:showpageshadow="2"
     inkscape:deskcolor="#d1d1d1">
    <inkscape:grid
       id="grid1521"
       type="xygrid"
       empcolor="#ff2624"
       empopacity="0.2"
       originx="0"
       originy="0"
       spacingy="1"
       spacingx="1"
       units="px"
       visible="false"
       empspacing="4" />
  </sodipodi:namedview>
  <metadata
     id="metadata955">
    <rdf:RDF>
      <cc:Work
         rdf:about="">
        <dc:format>image/svg+xml</dc:format>
        <dc:type
           rdf:resource="http://purl.org/dc/dcmitype/StillImage" />
      </cc:Work>
    </rdf:RDF>
  </metadata>
  <g
     id="layer1"
     inkscape:groupmode="layer"
     inkscape:label="Layer 1">
    <g
       inkscape:corner7="-0.053832406 : -0.037633691 : 0.25907482 : 1"
       inkscape:corner0="0.069364932 : 0.12047969 : 0 : 1"
       inkscape:perspectiveID="#perspective1523-9"
       style="fill:#216778;stroke-width:1.2;stroke-linecap:square"
       id="g1525"
       sodipodi:type="inkscape:box3d" />
    <path
       style="fill:#000000;fill-opacity:0.196078;stroke:none;stroke-width:2.74112;stroke-miterlimit:4;stroke-dasharray:none;stroke-opacity:1;paint-order:markers stroke fill"
       d="M 100.12116,121.0787 123.61649,85.835695 100.12116,78.00392 Z"
       id="path1768"
       inkscape:connector-curvature="0"
       sodipodi:nodetypes="cccc" />
    <path
       sodipodi:nodetypes="ccccc"
       id="path1611"
       d="M 37.061249,9.2471797 113.40922,17.43532 100.11814,121.08346 13.565908,99.312647 Z"
       style="fill:url(#linearGradient1619);fill-opacity:1;stroke:none;stroke-width:1.66425;stroke-linecap:butt;stroke-linejoin:miter;stroke-miterlimit:4;stroke-dasharray:none;stroke-opacity:1" />
    <g
       transform="matrix(3.7795276,0,0,3.7795276,-29.848286,-1055.3635)"
       id="g6682" />
    <g
       aria-label="?"
       id="text3832"
       style="font-weight:bold;font-size:25.4px;line-height:0.6;font-family:Arial;-inkscape-font-specification:'Arial Bold';text-align:center;text-anchor:middle;fill:#0a0a96;fill-opacity:1;stroke:none;stroke-width:0.449792;stroke-linecap:square;stroke-miterlimit:4;stroke-dasharray:none"
       transform="scale(3.7795276)" />
    <g
       transform="matrix(3.7795276,0,0,3.7795276,-9.4848633e-7,-4.0000003)"
       id="g886" />
    <g
       transform="matrix(3.7795276,0,0,3.7795276,117.75,-29.25)"
       style="font-weight:600;font-size:14.1111px;line-height:0.8;font-family:'URW Bookman';-inkscape-font-specification:'URW Bookman Semi-Bold';letter-spacing:-0.529167px;fill:#8a6f5e;fill-opacity:1;stroke:none;stroke-width:1.00542;stroke-linecap:square;stroke-miterlimit:4;stroke-dasharray:none;stroke-opacity:1"
       id="text1154"
       aria-label="cpp" />
    <g
       style="font-style:normal;font-variant:normal;font-weight:normal;font-stretch:normal;font-size:16.1802px;line-height:0.8;font-family:'Times New Roman';-inkscape-font-specification:'Times New Roman, ';fill:#191996;fill-opacity:1;stroke:none;stroke-width:1.15283;stroke-linecap:square;stroke-miterlimit:4;stroke-dasharray:none;stroke-opacity:1"
       id="text1180"
       aria-label="?"
       transform="scale(3.7795276)" />
    <g
       style="font-style:normal;font-variant:normal;font-weight:normal;font-stretch:normal;font-size:24.855px;line-height:0.8;font-family:'Times New Roman';-inkscape-font-specification:'Times New Roman, ';fill:#191996;fill-opacity:1;stroke:none;stroke-width:0.983845;stroke-linecap:square;stroke-miterlimit:4;stroke-dasharray:none;stroke-opacity:1"
       id="text1190"
       aria-label="f"
       transform="scale(3.7795276)" />
    <g
       style="font-style:italic;font-variant:normal;font-weight:normal;font-stretch:normal;font-size:29.0422px;line-height:0.8;font-family:'Times New Roman';-inkscape-font-specification:'Times New Roman, Italic';fill:#191996;fill-opacity:1;stroke:none;stroke-width:1.14959;stroke-linecap:square;stroke-miterlimit:4;stroke-dasharray:none;stroke-opacity:1"
       id="text1218"
       aria-label="?"
       transform="scale(3.7795276)" />
    <g
       style="font-style:italic;font-variant:normal;font-weight:normal;font-stretch:normal;font-size:29.1244px;line-height:0.8;font-family:'Times New Roman';-inkscape-font-specification:'Times New Roman,  Italic';fill:#191996;fill-opacity:1;stroke:none;stroke-width:1.15284;stroke-linecap:square;stroke-miterlimit:4;stroke-dasharray:none;stroke-opacity:1"
       id="text1298"
       aria-label="?"
       transform="scale(3.7795276)" />
    <g
       id="g29513"
       transform="matrix(3.7795276,0,0,3.7795276,-0.15289495,5.8448117)">
      <g
         aria-label="js"
         id="g29511"
         style="font-style:italic;font-size:19.05px;font-family:Georgia;-inkscape-font-specification:'Georgia Italic';fill-opacity:0.2;stroke-width:0.502708;stroke-linecap:square;stroke-linejoin:round;stroke-opacity:0.05" />
    </g>
    <path
       d="m 83.782698,14.257945 26.122672,30.501553 3.50687,-27.328931 z"
       fill="url(#k)"
       id="path14"
       style="fill:url(#k)"
       sodipodi:nodetypes="cccc" />
    <path
       d="M 37.056341,9.2728035 13.565908,99.312647 100.12116,121.0787 109.90537,44.759495 83.782698,14.257945 Z"
       fill="url(#f)"
       id="path142"
       style="fill:url(#linearGradient148)"
       sodipodi:nodetypes="cccccc" />
    <path
       d="m 54.729357,87.167246 -0.382457,1.880042 -12.264464,4.748977 5.242068,1.218766 9.340339,-4.579052 0.471157,0.104888 6.876488,8.354077 5.709113,1.327356 -9.883189,-10.035995 0.355593,-1.825291 z"
       fill="#646464"
       id="path143" />
    <path
       id="path144"
       style="fill:url(#linearGradient149)"
       d="M 39.023438 45.984375 L 30.335938 81.839844 L 86.900391 94.197266 L 92.947266 54.707031 L 39.023438 45.984375 z M 41.076172 47.927734 L 89.871094 55.9375 C 90.389481 56.0226 90.749169 56.469647 90.675781 56.939453 L 85.367188 90.925781 C 85.285558 91.448356 84.781774 91.775435 84.238281 91.658203 L 33.277344 80.666016 C 32.80967 80.565138 32.524727 80.100625 32.638672 79.625 L 40.078125 48.572266 C 40.181355 48.141366 40.626616 47.853938 41.076172 47.927734 z M 42.150391 50.541016 L 41.40625 53.701172 L 87.050781 61.583984 L 87.599609 58.167969 L 42.150391 50.541016 z M 49.1875 57.5625 L 48.464844 60.824219 L 76.744141 65.957031 L 77.347656 62.53125 L 49.1875 57.5625 z M 40.642578 62.837891 C 39.847322 62.84864 39.121997 63.401625 38.935547 64.193359 C 38.721855 65.100771 39.296238 65.980983 40.220703 66.158203 C 41.147738 66.335918 42.071262 65.739056 42.28125 64.826172 C 42.490639 63.91589 41.90965 63.039433 40.986328 62.867188 C 40.871231 62.845716 40.756186 62.836355 40.642578 62.837891 z M 45.1875 63.646484 L 44.439453 66.962891 L 57.416016 69.451172 L 58.111328 66.058594 L 45.1875 63.646484 z M 39.294922 68.617188 C 38.493677 68.622792 37.762114 69.180164 37.572266 69.986328 C 37.354674 70.910303 37.930341 71.812992 38.861328 72 C 39.794926 72.187534 40.727566 71.583928 40.941406 70.654297 C 41.154631 69.727339 40.570463 68.830318 39.640625 68.648438 C 39.524719 68.625765 39.409385 68.616387 39.294922 68.617188 z M 43.871094 69.472656 L 43.109375 72.849609 L 56.181641 75.476562 L 56.890625 72.019531 L 43.871094 69.472656 z M 37.921875 74.501953 C 37.114554 74.502222 36.374981 75.067679 36.181641 75.888672 C 35.96004 76.829666 36.538969 77.752091 37.476562 77.949219 C 38.41681 78.146906 39.358373 77.53864 39.576172 76.591797 C 39.793339 75.647701 39.207922 74.728952 38.271484 74.537109 C 38.154758 74.513196 38.037207 74.501915 37.921875 74.501953 z M 42.53125 75.40625 L 41.753906 78.845703 L 54.923828 81.615234 L 55.646484 78.09375 L 42.53125 75.40625 z " />
    <path
       d="m 60.581116,80.025125 21.11851,4.354638 -0.150392,0.920775 -21.14267,-4.388035 z"
       fill="url(#c)"
       id="path145"
       style="fill:url(#linearGradient150)" />
    <path
       d="m 61.641617,66.716534 -3.11754,15.655367 24.36013,5.121577 2.62455,-16.324617 z m 1.443819,2.039673 20.23914,3.827485 -2.0728,12.654583 -20.563481,-4.267812 z m 0.559889,1.888854 -0.168176,0.863262 18.460972,3.56285 0.147323,-0.891215 z m -0.505882,2.596741 -0.169535,0.870236 18.523801,3.647544 0.148546,-0.898607 z m -0.509974,2.617744 -0.170909,0.877293 18.587042,3.733512 0.149782,-0.906092 z m -0.514115,2.639002 -0.172301,0.884436 18.650698,3.820776 0.151036,-0.91367 z"
       fill="url(#b)"
       id="path146"
       style="fill:url(#linearGradient151)" />
    <path
       d="m 80.791331,73.004319 c -0.368337,-0.05976 -0.740343,0.01777 -1.037559,0.216123 l -7.016042,4.544334 -2.248921,-3.14063 C 70.044811,74.004365 69.1741,73.834787 68.542453,74.243591 l -5.932181,3.84105 c -1.578196,0.976753 0.02623,3.320595 1.570154,2.275087 l 4.815491,-3.118541 2.243677,3.170706 c 0.451447,0.637703 1.338751,0.819056 1.980816,0.403304 l 8.218439,-5.324071 c 1.069099,-0.672218 0.647431,-2.276293 -0.647518,-2.486807 z"
       fill="url(#a)"
       id="path147"
       style="fill:url(#linearGradient152)" />
    <path
       style="fill:none;stroke:#8d220b;stroke-width:1.9;stroke-linecap:butt;stroke-linejoin:miter;stroke-miterlimit:4;stroke-dasharray:none;stroke-opacity:1"
       d="M 37.064265,9.2424277 113.41224,17.430567 100.12116,121.0787 13.568925,99.3079 Z"
       id="path1553"
       sodipodi:nodetypes="ccccc" />
  </g>
</svg>
