<?xml version="1.0" encoding="UTF-8" standalone="no"?>
<svg
   width="128"
   height="128"
   viewBox="0 0 33.866666 33.866668"
   version="1.1"
   id="svg958"
   inkscape:version="1.3 (0e150ed6c4, 2023-07-21)"
   sodipodi:docname="application-acad1.svg"
   xmlns:inkscape="http://www.inkscape.org/namespaces/inkscape"
   xmlns:sodipodi="http://sodipodi.sourceforge.net/DTD/sodipodi-0.dtd"
   xmlns:xlink="http://www.w3.org/1999/xlink"
   xmlns="http://www.w3.org/2000/svg"
   xmlns:svg="http://www.w3.org/2000/svg"
   xmlns:rdf="http://www.w3.org/1999/02/22-rdf-syntax-ns#"
   xmlns:cc="http://creativecommons.org/ns#"
   xmlns:dc="http://purl.org/dc/elements/1.1/">
  <defs
     id="defs952">
    <inkscape:path-effect
       effect="perspective-envelope"
       up_left_point="9.8065869,2.4453923"
       up_right_point="30.006189,4.613095"
       down_left_point="3.5901115,26.275215"
       down_right_point="26.49039,32.035407"
       id="path-effect13"
       is_visible="true"
       lpeversion="1"
       deform_type="perspective"
       horizontal_mirror="false"
       vertical_mirror="false"
       overflow_perspective="false" />
    <linearGradient
       id="linearGradient1617"
       inkscape:collect="always">
      <stop
         id="stop1613"
         offset="0"
         style="stop-color:#ffffe8;stop-opacity:1" />
      <stop
         id="stop1615"
         offset="1"
         style="stop-color:#ffe896;stop-opacity:1" />
    </linearGradient>
    <linearGradient
       gradientTransform="matrix(0.9789725,0,0,0.9789725,0.48107585,0.37449131)"
       gradientUnits="userSpaceOnUse"
       y2="30.691668"
       x2="25.4"
       y1="3.175"
       x1="10.583333"
       id="linearGradient1619"
       xlink:href="#linearGradient1617"
       inkscape:collect="always" />
    <inkscape:path-effect
       effect="perspective-envelope"
       up_left_point="-30.691667,2.1166667"
       up_right_point="-5.2916667,2.1166667"
       down_left_point="-30.691667,31.749999"
       down_right_point="-5.2916667,31.749999"
       id="path-effect16-5"
       is_visible="true"
       lpeversion="1"
       deform_type="perspective"
       horizontal_mirror="false"
       vertical_mirror="false"
       overflow_perspective="false" />
    <linearGradient
       inkscape:collect="always"
       xlink:href="#linearGradient19"
       id="linearGradient20"
       x1="1034.8043"
       y1="-153.85963"
       x2="790.31732"
       y2="293.24921"
       gradientUnits="userSpaceOnUse"
       gradientTransform="matrix(0.03044732,0,0,0.03047533,-15.959663,12.50937)" />
    <linearGradient
       id="linearGradient19"
       inkscape:collect="always">
      <stop
         style="stop-color:#af2527;stop-opacity:1;"
         offset="0"
         id="stop19" />
      <stop
         style="stop-color:#922a31;stop-opacity:1;"
         offset="1"
         id="stop20" />
    </linearGradient>
    <linearGradient
       inkscape:collect="always"
       xlink:href="#linearGradient17"
       id="linearGradient18"
       x1="1143.524"
       y1="208.05724"
       x2="1104.2728"
       y2="361.4155"
       gradientUnits="userSpaceOnUse"
       gradientTransform="matrix(0.03044732,0,0,0.03047533,-15.959663,12.50937)" />
    <linearGradient
       id="linearGradient17"
       inkscape:collect="always">
      <stop
         style="stop-color:#bb2c2d;stop-opacity:1;"
         offset="0"
         id="stop17" />
      <stop
         style="stop-color:#832b30;stop-opacity:1;"
         offset="1"
         id="stop18" />
    </linearGradient>
    <linearGradient
       inkscape:collect="always"
       xlink:href="#linearGradient9"
       id="linearGradient10"
       x1="1073.8662"
       y1="-63.920551"
       x2="928.30292"
       y2="364.38275"
       gradientUnits="userSpaceOnUse"
       gradientTransform="matrix(0.03044732,0,0,0.03047533,-15.959663,12.50937)" />
    <linearGradient
       id="linearGradient9"
       inkscape:collect="always">
      <stop
         style="stop-color:#8f282e;stop-opacity:1;"
         offset="0"
         id="stop9" />
      <stop
         style="stop-color:#d96f68;stop-opacity:1;"
         offset="1"
         id="stop10" />
    </linearGradient>
    <linearGradient
       inkscape:collect="always"
       xlink:href="#linearGradient13"
       id="linearGradient14"
       x1="917.44916"
       y1="195.19624"
       x2="1224.4971"
       y2="284.46527"
       gradientUnits="userSpaceOnUse"
       gradientTransform="matrix(0.03044732,0,0,0.03047533,-15.959663,12.50937)" />
    <linearGradient
       id="linearGradient13"
       inkscape:collect="always">
      <stop
         style="stop-color:#90272d;stop-opacity:1;"
         offset="0"
         id="stop13" />
      <stop
         style="stop-color:#c22326;stop-opacity:1;"
         offset="1"
         id="stop14" />
    </linearGradient>
    <linearGradient
       inkscape:collect="always"
       xlink:href="#linearGradient11"
       id="linearGradient12"
       x1="939.47882"
       y1="-153.53738"
       x2="767.00574"
       y2="298.07343"
       gradientUnits="userSpaceOnUse"
       gradientTransform="matrix(0.03044732,0,0,0.03047533,-15.959663,12.50937)" />
    <linearGradient
       id="linearGradient11"
       inkscape:collect="always">
      <stop
         style="stop-color:#d8272c;stop-opacity:1;"
         offset="0"
         id="stop11" />
      <stop
         style="stop-color:#8b2c32;stop-opacity:1;"
         offset="1"
         id="stop12" />
    </linearGradient>
  </defs>
  <sodipodi:namedview
     inkscape:bbox-nodes="true"
     inkscape:snap-bbox-edge-midpoints="false"
     inkscape:bbox-paths="false"
     inkscape:snap-bbox="true"
     inkscape:snap-grids="false"
     units="px"
     showgrid="false"
     inkscape:document-rotation="0"
     inkscape:current-layer="layer1"
     inkscape:document-units="px"
     inkscape:cy="64"
     inkscape:cx="64"
     inkscape:zoom="6.1015625"
     inkscape:pageshadow="2"
     inkscape:pageopacity="0.0"
     borderopacity="1.0"
     bordercolor="#666666"
     pagecolor="#ffffff"
     id="base"
     inkscape:pagecheckerboard="0"
     showguides="false"
     inkscape:guide-bbox="true"
     guidetolerance="10000"
     inkscape:snap-tangential="true"
     inkscape:snap-perpendicular="true"
     inkscape:window-width="1920"
     inkscape:window-height="1011"
     inkscape:window-x="0"
     inkscape:window-y="0"
     inkscape:window-maximized="1"
     inkscape:snap-to-guides="false"
     inkscape:snap-intersection-paths="false"
     inkscape:snap-bbox-midpoints="false"
     inkscape:snap-nodes="true"
     inkscape:object-paths="false"
     inkscape:showpageshadow="2"
     inkscape:deskcolor="#d1d1d1">
    <inkscape:grid
       id="grid1521"
       type="xygrid"
       empcolor="#ff2624"
       empopacity="0.2"
       originx="0"
       originy="0"
       spacingy="0.26458334"
       spacingx="0.26458334"
       units="px"
       visible="false"
       empspacing="4" />
    <sodipodi:guide
       position="6.5361112,12.172222"
       orientation="0,-1"
       id="guide846"
       inkscape:locked="false" />
    <sodipodi:guide
       position="4.7625,13.798641"
       orientation="1,0"
       id="guide848"
       inkscape:locked="false" />
    <sodipodi:guide
       position="4.7625,29.104928"
       orientation="0,-1"
       id="guide1"
       inkscape:locked="false" />
    <sodipodi:guide
       position="21.695835,30.95625"
       orientation="1,0"
       id="guide2"
       inkscape:locked="false" />
  </sodipodi:namedview>
  <metadata
     id="metadata955">
    <rdf:RDF>
      <cc:Work
         rdf:about="">
        <dc:format>image/svg+xml</dc:format>
        <dc:type
           rdf:resource="http://purl.org/dc/dcmitype/StillImage" />
      </cc:Work>
    </rdf:RDF>
  </metadata>
  <g
     id="layer1"
     inkscape:groupmode="layer"
     inkscape:label="Layer 1">
    <path
       style="fill:#000000;fill-opacity:0.196078;stroke:none;stroke-width:0.725255;stroke-miterlimit:4;stroke-dasharray:none;stroke-opacity:1;paint-order:markers stroke fill"
       d="M 26.49039,32.035407 32.706865,22.710694 26.49039,20.638537 Z"
       id="path1768"
       inkscape:connector-curvature="0"
       sodipodi:nodetypes="cccc" />
    <path
       sodipodi:nodetypes="ccccc"
       id="path1611"
       d="M 9.8057889,2.4466498 30.006189,4.613095 26.489592,32.036664 3.5893135,26.276471 Z"
       style="fill:url(#linearGradient1619);fill-opacity:1;stroke:none;stroke-width:0.440334;stroke-linecap:butt;stroke-linejoin:miter;stroke-miterlimit:4;stroke-dasharray:none;stroke-opacity:1" />
    <g
       id="g2"
       transform="translate(25.566543,-0.1474255)">
      <g
         aria-label="1010101010 0101010101 1100110011 0011001101 1001001001 0110110110 1011001101 0010110100"
         id="text2054"
         style="font-style:italic;font-size:6.4714px;line-height:0.9;font-family:Georgia;-inkscape-font-specification:'Georgia Italic';letter-spacing:0px;fill:#8a6f5e;fill-opacity:0.497807;stroke-width:3.07392;stroke-linecap:square;stroke-linejoin:round"
         transform="matrix(0.52916668,0,0,0.52916668,-55.562505,-1.2539583e-6)">
        <path
           id="path26459"
           style="font-style:normal;font-weight:600;font-family:'Source Code Pro';-inkscape-font-specification:'Source Code Pro Semi-Bold';fill:#8a6f5e;fill-opacity:0.5"
           d="m 78.493875,8.8762574 c -0.258072,0.089969 -0.504583,0.1336122 -0.916016,0.1425781 l -0.08398,0.336914 0.702148,0.083984 -0.488281,1.9775395 -0.884766,-0.111328 -0.112305,0.446289 2.25293,0.287109 0.108398,-0.450195 -0.786132,-0.09961 0.626953,-2.5634774 z m 2.783203,0.2958984 c -0.607406,0.04675 -1.081869,0.5217818 -1.295899,1.4140622 -0.245146,1.021997 0.08084,1.652696 0.821289,1.747071 0.743708,0.09479 1.345409,-0.421819 1.583985,-1.452149 0.238038,-1.0280134 -0.103352,-1.6152229 -0.840821,-1.7021483 -0.09178,-0.010819 -0.181782,-0.013514 -0.268554,-0.00684 z m 3.307617,0.4238281 c -0.264529,0.09139 -0.518317,0.1341807 -0.94336,0.1425781 l -0.07813,0.344727 0.727539,0.08691 -0.456054,2.018554 -0.917969,-0.116211 -0.103516,0.457032 2.334961,0.296875 0.101563,-0.459961 -0.81543,-0.102539 0.584961,-2.6171878 z m -3.282227,0.00684 c 0.04699,-0.00445 0.09437,-0.00379 0.142578,0.00195 0.386577,0.046066 0.602163,0.3799003 0.408203,1.2109371 -0.195047,0.835704 -0.560269,1.132068 -0.949218,1.083008 -0.388058,-0.04895 -0.594518,-0.416128 -0.396485,-1.248047 0.172317,-0.72388 0.465957,-1.0166839 0.794922,-1.0478513 z m 6.166992,0.2998047 c -0.626853,0.046621 -1.106611,0.5305124 -1.305664,1.4414064 -0.228019,1.043448 0.125491,1.688238 0.893555,1.786133 0.771505,0.09833 1.380675,-0.42834 1.601562,-1.480469 0.220364,-1.04963 -0.147376,-1.6500952 -0.912109,-1.7402344 -0.09517,-0.011218 -0.187793,-0.013496 -0.277344,-0.00684 z m 3.430664,0.4384764 c -0.271291,0.09286 -0.532296,0.13675 -0.971679,0.144531 l -0.07227,0.351563 0.753906,0.09082 -0.419922,2.060547 -0.952148,-0.120117 -0.09668,0.46582 2.423828,0.308594 0.09277,-0.469727 -0.84668,-0.106445 0.540039,-2.671875 z m -3.394531,9.77e-4 c 0.04848,-0.0045 0.09844,-0.003 0.148438,0.0029 0.400883,0.04777 0.631895,0.388814 0.452148,1.237305 -0.180776,0.853343 -0.550644,1.155382 -0.954102,1.104492 -0.402516,-0.05077 -0.625423,-0.42599 -0.441406,-1.27539 0.160102,-0.739016 0.455557,-1.038119 0.794922,-1.069336 z m -6.242187,0.0332 c -0.193356,-0.02349 -0.380946,0.08607 -0.430664,0.295898 -0.04979,0.210132 0.0768,0.358878 0.270507,0.382813 0.193927,0.02396 0.383224,-0.08625 0.432618,-0.296875 0.04932,-0.210332 -0.07888,-0.358317 -0.272461,-0.381836 z m 12.628906,0.285156 c -0.647342,0.04645 -1.131655,0.539439 -1.314453,1.469727 -0.209427,1.065802 0.172474,1.725533 0.969726,1.827148 0.80089,0.102079 1.418433,-0.43491 1.620117,-1.509766 0.201179,-1.07216 -0.194742,-1.685762 -0.988281,-1.779296 -0.09875,-0.01164 -0.194632,-0.01445 -0.287109,-0.0078 z m 0.04883,0.449219 c 0.05005,-0.0045 0.101443,-0.0033 0.15332,0.0029 0.415999,0.04957 0.663347,0.397967 0.499024,1.264649 -0.16528,0.871731 -0.54019,1.179778 -0.958985,1.126953 -0.417796,-0.0527 -0.658056,-0.436092 -0.489258,-1.303711 0.146848,-0.754788 0.445579,-1.059572 0.795899,-1.09082 z m 3.512695,0.0049 c -0.278381,0.09437 -0.548416,0.139373 -1.00293,0.146484 l -0.06543,0.358398 0.783203,0.09375 -0.381836,2.105469 -0.989258,-0.124023 -0.08789,0.476562 2.516601,0.320313 0.08496,-0.480469 -0.878906,-0.110352 0.489258,-2.730468 z m -9.96875,0.0166 c -0.200523,-0.02436 -0.392308,0.08655 -0.438476,0.300781 -0.04623,0.214544 0.08913,0.366777 0.290039,0.391602 0.201138,0.02485 0.393646,-0.08669 0.439453,-0.301758 0.04574,-0.214752 -0.09025,-0.366233 -0.291016,-0.390625 z m 13.074213,0.31543 c -0.668943,0.04623 -1.157105,0.549488 -1.32226,1.5 -0.189239,1.08912 0.222643,1.764565 1.05078,1.870117 0.83198,0.106042 1.45686,-0.44147 1.63769,-1.540039 0.18035,-1.095663 -0.24533,-1.725141 -1.06933,-1.822266 -0.10253,-0.01209 -0.20131,-0.01442 -0.29688,-0.0078 z m 0.0615,0.458984 c 0.0517,-0.0045 0.10433,-0.0035 0.1582,0.0029 0.43198,0.05148 0.69836,0.409265 0.55078,1.294922 -0.14846,0.890917 -0.52885,1.205262 -0.96387,1.15039 -0.433958,-0.05474 -0.692308,-0.448335 -0.540033,-1.334961 0.132459,-0.771236 0.433043,-1.08202 0.794923,-1.113281 z m -6.680665,0.0098 c -0.208097,-0.02529 -0.403974,0.08782 -0.446289,0.30664 -0.04238,0.219142 0.101061,0.375604 0.309571,0.401368 0.208757,0.0258 0.405353,-0.08891 0.447265,-0.308594 0.04185,-0.219359 -0.102202,-0.3741 -0.310547,-0.399414 z m 10.317385,0.0029 c -0.28582,0.09593 -0.56272,0.141076 -1.03321,0.14746 l -0.0596,0.366211 0.81446,0.09766 -0.34082,2.152343 -1.02735,-0.129882 -0.0781,0.487304 2.61523,0.333008 0.0742,-0.491211 -0.91309,-0.115234 0.43457,-2.791016 z m 3.22558,0.344726 c -0.69176,0.04596 -1.18408,0.559631 -1.33008,1.53125 -0.16731,1.113463 0.27783,1.805318 1.13868,1.915039 0.86493,0.110241 1.49808,-0.448932 1.65625,-1.572266 0.15773,-1.120201 -0.3,-1.76333 -1.15625,-1.864257 -0.10654,-0.01256 -0.20978,-0.01633 -0.3086,-0.0098 z m -6.84277,0.466797 c -0.21611,-0.02626 -0.415,0.0889 -0.45313,0.3125 -0.0382,0.223937 0.11451,0.383398 0.33106,0.410156 0.21682,0.02679 0.4174,-0.08898 0.45508,-0.313476 0.0376,-0.224166 -0.11663,-0.382891 -0.33301,-0.40918 z m 6.91992,0.0029 c 0.0534,-0.0045 0.10809,-0.0028 0.16406,0.0039 0.44891,0.05349 0.73388,0.418751 0.60449,1.324219 -0.13017,0.91095 -0.51654,1.231844 -0.96874,1.174804 -0.45109,-0.0569 -0.72906,-0.459744 -0.59473,-1.366211 0.11683,-0.788404 0.42086,-1.105469 0.79492,-1.136718 z m -30.383786,0.486328 c -0.605498,0.04163 -1.086744,0.521876 -1.314453,1.43164 -0.260824,1.042065 0.05338,1.689957 0.789062,1.793946 0.73894,0.104449 1.346204,-0.417074 1.600586,-1.467774 0.253799,-1.048293 -0.07577,-1.652724 -0.808594,-1.749023 -0.0912,-0.01198 -0.180102,-0.01474 -0.266601,-0.0088 z m 30.425776,0.356445 c -0.22459,-0.02729 -0.42832,0.09074 -0.46191,0.319336 -0.0336,0.228944 0.12941,0.392111 0.35449,0.419922 0.22535,0.02785 0.4298,-0.09077 0.46289,-0.320313 0.033,-0.229182 -0.1306,-0.391623 -0.35547,-0.418945 z m -30.408198,0.08301 c 0.04686,-0.0041 0.09369,-0.0025 0.141601,0.0039 0.384132,0.05099 0.593419,0.394777 0.386719,1.242188 -0.207867,0.852197 -0.575454,1.150775 -0.961914,1.096679 -0.385569,-0.05397 -0.585796,-0.431022 -0.375,-1.279297 0.183415,-0.738088 0.480561,-1.034952 0.808594,-1.063476 z m 3.267578,0.02637 c -0.264882,0.09073 -0.518059,0.132439 -0.941406,0.136719 l -0.08301,0.351562 0.722656,0.0957 -0.486328,2.058594 -0.912109,-0.126953 -0.111328,0.464844 2.320312,0.328125 0.109375,-0.469727 -0.811523,-0.113281 0.625976,-2.668945 z m 2.868164,0.342773 c -0.624976,0.0413 -1.110229,0.531884 -1.323242,1.460938 -0.244022,1.064295 0.09706,1.726093 0.860351,1.833984 0.766729,0.108376 1.382121,-0.422798 1.619141,-1.496093 0.236446,-1.070701 -0.119806,-1.689182 -0.879883,-1.789063 -0.09459,-0.01243 -0.187085,-0.01567 -0.276367,-0.0098 z m -6.1875,0.419922 c -0.192126,-0.02597 -0.380659,0.08487 -0.433594,0.298828 -0.05301,0.214264 0.0712,0.367126 0.263672,0.393555 0.192691,0.02646 0.381946,-0.08404 0.43457,-0.298828 0.05255,-0.214474 -0.0723,-0.367555 -0.264648,-0.393555 z m 6.216797,0.03027 c 0.04835,-0.0041 0.0968,-0.0027 0.146484,0.0039 0.398434,0.05289 0.623414,0.404029 0.430664,1.269531 -0.193859,0.870481 -0.566811,1.175268 -0.967773,1.119141 -0.400022,-0.05599 -0.615987,-0.442201 -0.418945,-1.308594 0.171428,-0.753775 0.471119,-1.055515 0.80957,-1.083984 z m 3.379883,0.0332 c -0.271681,0.09217 -0.532023,0.134196 -0.969727,0.137695 l -0.07813,0.358399 0.75,0.100586 -0.452148,2.102539 -0.946289,-0.132813 -0.103516,0.475586 2.40918,0.339844 0.100585,-0.478516 -0.841796,-0.118164 0.580078,-2.726562 z m 2.975585,0.356445 c -0.6455,0.04092 -1.135963,0.540094 -1.333007,1.489258 -0.225758,1.087476 0.14405,1.765914 0.936523,1.87793 0.796111,0.11253 1.41955,-0.4295 1.637695,-1.526368 0.217588,-1.094068 -0.167171,-1.726412 -0.956054,-1.830078 -0.09817,-0.0129 -0.192942,-0.01659 -0.285157,-0.01074 z m -6.388671,0.416016 c -0.199292,-0.02694 -0.391956,0.08519 -0.441407,0.303711 -0.04952,0.218836 0.08256,0.375904 0.282227,0.40332 0.199899,0.02745 0.39328,-0.08531 0.442383,-0.304687 0.04903,-0.219057 -0.08368,-0.375374 -0.283203,-0.402344 z m 6.429687,0.04395 c 0.04992,-0.0041 0.100773,-0.0029 0.152344,0.0039 0.413548,0.0549 0.65513,0.41446 0.477539,1.298828 -0.178631,0.889553 -0.557335,1.200852 -0.973633,1.142579 -0.415301,-0.05813 -0.648889,-0.45358 -0.466797,-1.338868 0.158406,-0.770129 0.461121,-1.078054 0.810547,-1.106445 z m 3.498047,0.04102 c -0.27881,0.09365 -0.547147,0.136016 -1,0.138672 l -0.07129,0.366211 0.77832,0.103515 -0.414062,2.149414 -0.983399,-0.137695 -0.09473,0.486328 2.501953,0.353516 0.0918,-0.490235 -0.874024,-0.12207 0.53125,-2.787109 z m 3.088867,0.370117 c -0.667152,0.04047 -1.162109,0.55036 -1.341797,1.520508 -0.2059,1.11167 0.194213,1.806468 1.017578,1.922851 0.82722,0.116927 1.458629,-0.437116 1.65625,-1.558593 0.197089,-1.11846 -0.216774,-1.765376 -1.036133,-1.873047 -0.101948,-0.0134 -0.20059,-0.0175 -0.295898,-0.01172 z m -6.601562,0.412109 c -0.206867,-0.02796 -0.403554,0.0863 -0.449219,0.309571 -0.04573,0.223603 0.09547,0.384625 0.302734,0.413086 0.207519,0.02849 0.404919,-0.08638 0.450196,-0.310547 0.04521,-0.223835 -0.0966,-0.384114 -0.303711,-0.41211 z m 6.655273,0.05859 c 0.05157,-0.004 0.10464,-0.0022 0.158203,0.0049 0.42954,0.05702 0.688455,0.425041 0.527344,1.329101 -0.162074,0.909463 -0.545986,1.22656 -0.978516,1.166016 -0.431474,-0.0604 -0.682437,-0.46511 -0.516601,-1.370117 0.144249,-0.787197 0.448568,-1.101599 0.80957,-1.129883 z m 3.62402,0.04883 c -0.286285,0.09518 -0.563366,0.13888 -1.032223,0.140625 l -0.06543,0.374024 0.80957,0.108398 -0.373046,2.197266 -1.021485,-0.142578 -0.08594,0.496093 2.600584,0.367188 0.082,-0.500977 -0.9082,-0.126953 0.47754,-2.848633 z m 3.20801,0.386719 c -0.69002,0.03996 -1.18879,0.559696 -1.34961,1.551758 -0.1843,1.136942 0.24839,1.848717 1.10449,1.969726 0.86018,0.121587 1.49951,-0.443626 1.67481,-1.59082 0.17479,-1.143942 -0.27142,-1.807033 -1.12305,-1.918945 -0.10596,-0.01392 -0.20807,-0.01743 -0.30664,-0.01172 z m -6.825194,0.40625 c -0.21488,-0.02905 -0.415481,0.08719 -0.457031,0.31543 -0.04161,0.22858 0.108898,0.393285 0.324218,0.422851 0.215583,0.0296 0.416893,-0.08724 0.458008,-0.316406 0.04105,-0.228821 -0.110053,-0.392793 -0.325195,-0.421875 z m 6.893554,0.07422 c 0.0533,-0.004 0.10839,-0.0025 0.16406,0.0049 0.44648,0.05927 0.72425,0.436698 0.58106,1.361329 -0.14406,0.930264 -0.53367,1.254359 -0.9834,1.191406 -0.44861,-0.0628 -0.71944,-0.477712 -0.57129,-1.40332 0.12886,-0.805023 0.43635,-1.126149 0.80957,-1.154297 z m 3.75586,0.05859 c -0.29415,0.09676 -0.58063,0.139866 -1.06641,0.140625 l -0.0566,0.383789 0.84082,0.111329 -0.32812,2.248046 -1.0625,-0.148437 -0.0762,0.508789 2.70508,0.381836 0.0723,-0.512695 -0.94531,-0.131836 0.41992,-2.915039 z M 76.290722,17.82254 c -0.265225,0.09005 -0.51787,0.130797 -0.939454,0.13086 l -0.08984,0.357422 0.71875,0.106445 -0.518555,2.098633 -0.905273,-0.139649 -0.119141,0.47461 2.305664,0.359375 0.116211,-0.478516 -0.805664,-0.124024 0.666015,-2.722656 z m 27.035158,0.165039 c -0.22337,-0.03019 -0.42777,0.08787 -0.46485,0.321289 -0.0371,0.233779 0.12185,0.402856 0.3457,0.433594 0.22412,0.03078 0.43021,-0.08885 0.4668,-0.323242 0.0365,-0.234032 -0.12401,-0.401409 -0.34765,-0.431641 z m -23.945315,0.285157 c -0.268601,0.09075 -0.52543,0.131263 -0.954101,0.130859 l -0.08594,0.361328 0.731445,0.108399 -0.501953,2.12207 -0.922851,-0.142578 -0.114258,0.479492 2.348633,0.366211 0.111328,-0.484375 -0.820313,-0.125977 0.644532,-2.751953 z m 2.902344,0.387695 c -0.633149,0.03556 -1.127053,0.536242 -1.34668,1.49414 -0.251625,1.097457 0.09154,1.785889 0.864258,1.90625 0.776257,0.120912 1.402025,-0.421331 1.646484,-1.52832 0.243842,-1.104191 -0.115313,-1.747459 -0.884765,-1.859375 -0.09575,-0.01393 -0.188847,-0.01778 -0.279297,-0.01269 z m 0.02734,0.464844 c 0.04899,-0.0037 0.09911,-0.0015 0.149414,0.0059 0.403346,0.05923 0.629435,0.424844 0.430664,1.317383 -0.199933,0.897753 -0.579417,1.209136 -0.985352,1.146484 -0.404965,-0.0625 -0.622135,-0.464975 -0.418945,-1.358398 0.176762,-0.777224 0.481306,-1.085768 0.824219,-1.111328 z m 3.174804,9.76e-4 c -0.643564,0.03525 -1.139936,0.540356 -1.351562,1.508789 -0.242476,1.109603 0.114828,1.807021 0.902344,1.929688 0.791155,0.123233 1.420274,-0.424603 1.655273,-1.543946 0.234389,-1.116437 -0.137821,-1.766819 -0.921875,-1.880859 -0.09756,-0.01419 -0.192242,-0.01871 -0.28418,-0.01367 z m 0.0332,0.469727 c 0.04978,-0.0036 0.101091,-6.9e-4 0.152344,0.0068 0.411008,0.06035 0.645276,0.429606 0.454102,1.332031 -0.1923,0.907747 -0.574573,1.222055 -0.988281,1.158203 -0.412713,-0.0637 -0.638082,-0.469724 -0.442383,-1.373047 0.170236,-0.785793 0.475735,-1.098564 0.824218,-1.124023 z m 3.484375,0.07813 c -0.279226,0.09291 -0.547904,0.133746 -0.999023,0.131836 l -0.07715,0.374023 0.774414,0.114258 -0.447266,2.193359 -0.976563,-0.151367 -0.103515,0.496094 2.487305,0.386719 0.09863,-0.5 -0.868164,-0.133789 0.573242,-2.84375 z m -6.729492,0.284179 c -0.201748,-0.03013 -0.397248,0.08326 -0.448242,0.308594 -0.05107,0.225663 0.08205,0.389284 0.28418,0.419922 0.202371,0.03067 0.399556,-0.08334 0.450195,-0.30957 0.05056,-0.225899 -0.08414,-0.388778 -0.286133,-0.418946 z m 10.05957,0.201172 c -0.282943,0.09365 -0.554651,0.134287 -1.013671,0.131836 l -0.07422,0.37793 0.789062,0.116211 -0.427734,2.21875 -0.996094,-0.15332 -0.09766,0.500976 2.535156,0.394531 0.09473,-0.505859 -0.885742,-0.136719 0.547851,-2.875976 z m -6.841796,0.279297 c -0.205587,-0.03071 -0.403053,0.08371 -0.452149,0.311524 -0.04917,0.22816 0.08796,0.393582 0.293946,0.424804 0.206232,0.03126 0.40538,-0.08376 0.454101,-0.3125 0.04865,-0.228402 -0.09007,-0.393086 -0.295898,-0.423828 z m 9.971679,0.139649 c -0.676556,0.0342 -1.178772,0.555194 -1.364258,1.55664 -0.212567,1.147669 0.189872,1.870985 1.024415,2.000977 0.838513,0.13061 1.4805,-0.434696 1.68457,-1.592774 0.203498,-1.154824 -0.213501,-1.829407 -1.043946,-1.950195 -0.103319,-0.01503 -0.20413,-0.01953 -0.300781,-0.01465 z m 0.05371,0.486328 c 0.0523,-0.0036 0.105871,-0.0011 0.160156,0.0068 0.435351,0.06393 0.696616,0.447445 0.530274,1.380859 -0.167352,0.93908 -0.557674,1.263955 -0.996094,1.196289 -0.437332,-0.0675 -0.690745,-0.489475 -0.519531,-1.423828 0.148912,-0.812647 0.459069,-1.135053 0.825195,-1.160156 z m 3.40332,0.0166 c -0.688171,0.03381 -1.194113,0.560296 -1.370117,1.573242 -0.201716,1.160931 0.218178,1.893789 1.069336,2.026368 0.855247,0.133216 1.501482,-0.438775 1.694332,-1.610352 0.19229,-1.168201 -0.24106,-1.850463 -1.087886,-1.973633 -0.105353,-0.01532 -0.207354,-0.02045 -0.305665,-0.01563 z m 0.06055,0.492188 c 0.05319,-0.0036 0.107731,-0.0013 0.163086,0.0068 0.443949,0.06519 0.714951,0.454225 0.557617,1.398437 -0.158298,0.95 -0.551872,1.277022 -0.999023,1.208008 -0.44603,-0.06884 -0.709206,-0.495265 -0.546875,-1.44043 0.141177,-0.822001 0.45286,-1.147886 0.825195,-1.172851 z m 3.741211,0.09863 c -0.29466,0.09595 -0.58035,0.137012 -1.06445,0.132812 l -0.0635,0.391602 0.83692,0.123047 -0.36328,2.295898 -1.05664,-0.162109 -0.083,0.518554 2.68945,0.418946 0.0801,-0.524415 -0.94043,-0.144531 0.46484,-2.977539 z m -7.201172,0.264648 c -0.217786,-0.03253 -0.421947,0.08468 -0.464843,0.320313 -0.04296,0.235991 0.108909,0.408327 0.327148,0.441406 0.218509,0.03312 0.423369,-0.08565 0.46582,-0.322266 0.04239,-0.236251 -0.110069,-0.406885 -0.328125,-0.439453 z M 106.322,22.19657 c -0.29877,0.09674 -0.58909,0.138619 -1.08203,0.133789 l -0.0586,0.395508 0.85352,0.125976 -0.33984,2.323242 -1.07813,-0.166015 -0.0781,0.52539 2.74414,0.426758 0.0752,-0.530273 -0.95898,-0.147461 0.43359,-3.012696 z m -31.420899,0.231445 c -0.620944,0.03027 -1.118441,0.531548 -1.360351,1.498047 -0.277148,1.107285 0.03878,1.806952 0.791992,1.935547 0.756647,0.129183 1.383875,-0.41332 1.654297,-1.530274 0.269745,-1.114157 -0.06322,-1.76764 -0.813477,-1.887695 -0.09336,-0.01494 -0.183755,-0.01995 -0.272461,-0.01563 z m 24.09375,0.02734 c -0.222095,-0.03317 -0.428104,0.08587 -0.46875,0.324218 -0.04071,0.23872 0.1163,0.412555 0.338867,0.44629 0.222847,0.03378 0.42955,-0.08487 0.469726,-0.324219 0.04012,-0.238986 -0.117469,-0.413076 -0.339843,-0.446289 z m -24.080078,0.443359 c 0.04807,-0.0033 0.09647,-0.0011 0.145508,0.0068 0.393268,0.0635 0.604436,0.435354 0.384765,1.335937 -0.220948,0.905827 -0.601372,1.217364 -0.99707,1.150391 -0.394758,-0.06681 -0.595099,-0.475518 -0.371094,-1.376953 0.194876,-0.784208 0.501414,-1.093444 0.837891,-1.116211 z m 3.107422,0.0293 c -0.631101,0.02987 -1.130837,0.536486 -1.365235,1.513672 -0.268557,1.119605 0.06152,1.827934 0.829102,1.958984 0.771119,0.131652 1.403503,-0.417389 1.665039,-1.546875 0.260863,-1.12658 -0.08614,-1.786853 -0.850586,-1.909179 -0.09512,-0.01522 -0.188163,-0.02087 -0.27832,-0.0166 z m 0.02051,0.475586 c 0.04884,-0.0032 0.09749,-2.56e-4 0.147461,0.0078 0.400714,0.0647 0.620734,0.44095 0.408203,1.351563 -0.213781,0.915965 -0.59675,1.229384 -1,1.161133 -0.402284,-0.06809 -0.611504,-0.481101 -0.394532,-1.392578 0.188747,-0.792902 0.496956,-1.105315 0.838868,-1.12793 z m 3.408203,0.109375 c -0.275986,0.09142 -0.539835,0.130974 -0.981446,0.125 l -0.08594,0.376953 0.754883,0.12207 -0.5,2.213867 -0.952149,-0.161132 -0.114258,0.5 2.423829,0.413086 0.111328,-0.503907 -0.84668,-0.143554 0.641602,-2.870117 z m -6.595703,0.227539 c -0.196693,-0.03227 -0.391993,0.08026 -0.448242,0.307617 -0.05633,0.22769 0.06955,0.393973 0.266601,0.426758 0.197285,0.03282 0.39329,-0.08033 0.449219,-0.308594 0.05585,-0.227933 -0.07066,-0.39347 -0.267578,-0.425781 z m 9.842773,0.292969 c -0.279633,0.09214 -0.547765,0.131589 -0.99707,0.125 l -0.08301,0.380859 0.769531,0.125 -0.480469,2.238281 -0.970703,-0.164062 -0.110351,0.505859 2.470703,0.421875 0.106445,-0.510742 -0.863281,-0.145508 0.618164,-2.902344 z m -6.706055,0.221679 c -0.200423,-0.03288 -0.39768,0.08067 -0.452148,0.310547 -0.05455,0.230224 0.07557,0.399209 0.276367,0.432617 0.201038,0.03345 0.398998,-0.08071 0.453125,-0.311523 0.05405,-0.230472 -0.07668,-0.398717 -0.277344,-0.431641 z m 9.757813,0.230469 c -0.663262,0.02851 -1.170068,0.550842 -1.379883,1.561524 -0.240445,1.158222 0.134005,1.892402 0.947266,2.03125 0.817116,0.139505 1.461888,-0.425943 1.694335,-1.594727 0.231801,-1.165531 -0.158252,-1.850931 -0.967773,-1.980469 -0.100718,-0.01612 -0.199194,-0.02165 -0.293945,-0.01758 z m 0.03906,0.492188 c 0.0513,-0.0032 0.103334,-7.32e-4 0.15625,0.0078 0.424365,0.06852 0.669644,0.459312 0.480469,1.401367 -0.190319,0.947755 -0.581536,1.271533 -1.008789,1.199219 -0.426199,-0.07213 -0.661727,-0.500401 -0.467773,-1.443359 0.168692,-0.820148 0.480728,-1.142941 0.839843,-1.165039 z m 3.330078,0.04687 c -0.674583,0.02801 -1.183877,0.555774 -1.384765,1.578125 -0.230232,1.17168 0.159861,1.916014 0.989258,2.057617 0.833367,0.14228 1.482221,-0.429822 1.704101,-1.612305 0.221246,-1.179105 -0.184329,-1.872798 -1.009766,-2.004883 -0.102693,-0.01643 -0.202459,-0.02256 -0.298828,-0.01855 z m 0.0459,0.498046 c 0.05217,-0.0031 0.105224,7.8e-5 0.159179,0.0088 0.432717,0.06987 0.687527,0.464955 0.506836,1.417968 -0.181795,0.958835 -0.575986,1.28664 -1.011718,1.212891 -0.434644,-0.07356 -0.680709,-0.507986 -0.495118,-1.461914 0.161411,-0.829641 0.475652,-1.155831 0.840821,-1.177735 z m 3.659179,0.132813 c -0.291125,0.09435 -0.572175,0.134553 -1.045898,0.125977 l -0.07227,0.394531 0.81543,0.131836 -0.419922,2.317382 -1.030273,-0.173828 -0.09668,0.524414 2.621094,0.446289 0.09277,-0.52832 -0.915039,-0.154297 0.538086,-3.005859 z m -7.055664,0.203125 c -0.212275,-0.03483 -0.415229,0.08251 -0.463867,0.320312 -0.04871,0.238169 0.09491,0.41383 0.307617,0.449219 0.212964,0.03543 0.416612,-0.08249 0.464844,-0.321289 0.04816,-0.238435 -0.09606,-0.41337 -0.308594,-0.448242 z m 10.56543,0.359375 c -0.295154,0.09511 -0.580165,0.135266 -1.0625,0.125977 l -0.06934,0.399414 0.832031,0.134765 -0.398437,2.344727 -1.049805,-0.177735 -0.0918,0.530274 2.673828,0.456054 0.08789,-0.535156 -0.93457,-0.157226 0.509765,-3.041016 z m -7.178711,0.196289 c -0.216461,-0.03552 -0.421254,0.08267 -0.467773,0.323242 -0.04659,0.240937 0.101454,0.41899 0.318359,0.455078 0.217176,0.03613 0.42266,-0.08263 0.46875,-0.324218 0.04602,-0.24121 -0.102606,-0.418542 -0.319336,-0.454102 z m 10.478512,0.293945 c -0.71051,0.02637 -1.22677,0.571869 -1.39843,1.63086 -0.19678,1.213944 0.24323,1.986342 1.12402,2.136718 0.88514,0.151119 1.54809,-0.438537 1.73535,-1.664062 0.18668,-1.221744 -0.26941,-1.942816 -1.14551,-2.083008 -0.10898,-0.01744 -0.21393,-0.02427 -0.31543,-0.02051 z m 0.0674,0.516602 c 0.0549,-0.003 0.11167,5.19e-4 0.16894,0.0098 0.4593,0.07416 0.74276,0.484251 0.58984,1.471679 -0.15387,0.993645 -0.55679,1.332225 -1.01953,1.253906 -0.46155,-0.07812 -0.7373,-0.529191 -0.5791,-1.517578 0.13757,-0.85945 0.45546,-1.196526 0.83985,-1.217773 z m -27.75098,0.102539 c -0.272781,0.08996 -0.532625,0.127171 -0.964843,0.117187 l -0.09473,0.379883 0.735352,0.13086 -0.550782,2.232421 -0.927734,-0.170898 -0.125977,0.504883 2.361328,0.439453 0.123047,-0.509766 -0.825195,-0.151367 0.708984,-2.895508 z m 31.61816,0.04981 c -0.30352,0.09666 -0.5983,0.136773 -1.09863,0.125976 l -0.0615,0.408203 0.86621,0.140625 -0.35156,2.402344 -1.09375,-0.18457 -0.0811,0.542968 2.78516,0.47461 0.0772,-0.547852 -0.97266,-0.164062 0.44824,-3.115235 z m -28.699214,0.423828 c -0.639401,0.02348 -1.147814,0.542584 -1.389649,1.550781 -0.277112,1.155265 0.05402,1.891387 0.831055,2.036133 0.780675,0.145423 1.423429,-0.414343 1.693359,-1.580078 0.269204,-1.162604 -0.07869,-1.850789 -0.852539,-1.986328 -0.09629,-0.01687 -0.190884,-0.02386 -0.282226,-0.02051 z m 24.856444,0.347656 c -0.22979,-0.0377 -0.44088,0.08475 -0.48047,0.333984 -0.0396,0.249632 0.12323,0.434341 0.35352,0.472657 0.23059,0.03836 0.44334,-0.08464 0.48242,-0.334961 0.039,-0.249927 -0.12539,-0.43393 -0.35547,-0.47168 z m -24.83789,0.145508 c 0.04949,-0.0028 0.09981,-1.46e-4 0.150391,0.0088 0.405641,0.07166 0.625568,0.463628 0.40625,1.40332 -0.220629,0.945303 -0.610319,1.265849 -1.018555,1.19043 -0.40724,-0.07523 -0.617447,-0.504766 -0.393555,-1.445313 0.194749,-0.818113 0.509021,-1.137855 0.855469,-1.157226 z m 3.202149,0.07129 c -0.650133,0.0229 -1.160719,0.546637 -1.394532,1.566406 -0.267937,1.168607 0.07689,1.91492 0.869141,2.0625 0.795994,0.148277 1.44367,-0.418339 1.704102,-1.597656 0.259714,-1.176065 -0.102739,-1.871597 -0.891602,-2.009766 -0.09815,-0.01719 -0.194233,-0.02476 -0.287109,-0.02148 z m 0.02441,0.498047 c 0.05031,-0.0027 0.10078,0.0016 0.152343,0.01074 0.413519,0.07305 0.643333,0.469365 0.431641,1.419922 -0.212969,0.956288 -0.605255,1.28002 -1.021484,1.203125 -0.415206,-0.07671 -0.63435,-0.511467 -0.417969,-1.462891 0.188203,-0.827529 0.503278,-1.151764 0.855469,-1.170898 z m 3.514648,0.161133 c -0.283785,0.09205 -0.555411,0.129313 -1.010742,0.117187 l -0.08594,0.393555 0.779297,0.137695 -0.49707,2.311523 -0.982422,-0.18164 -0.114258,0.522461 2.50293,0.46582 0.110351,-0.527344 -0.874023,-0.161132 0.637695,-2.997071 z m -6.796875,0.149414 c -0.202887,-0.03639 -0.401804,0.0792 -0.458008,0.316406 -0.05629,0.237565 0.07407,0.41325 0.277344,0.450195 0.203517,0.03699 0.404104,-0.07919 0.459961,-0.317383 0.05577,-0.237832 -0.07616,-0.412784 -0.279297,-0.449218 z m 9.888672,0.353515 c -0.672505,0.02167 -1.188602,0.556878 -1.405274,1.600586 -0.248331,1.196215 0.128103,1.960755 0.952149,2.114258 0.828018,0.154242 1.4835,-0.423436 1.723633,-1.630859 0.239434,-1.203917 -0.152426,-1.917861 -0.972657,-2.061524 -0.102042,-0.01787 -0.201779,-0.02556 -0.297851,-0.02246 z m -6.651367,0.226563 c -0.206835,-0.0371 -0.409566,0.08037 -0.463867,0.320312 -0.05438,0.240311 0.08182,0.418389 0.289062,0.456055 0.207489,0.03771 0.409934,-0.07937 0.463867,-0.320313 0.05385,-0.240584 -0.08197,-0.418911 -0.289062,-0.456054 z m 6.688476,0.284179 c 0.05202,-0.0027 0.105566,2.95e-4 0.15918,0.0098 0.429978,0.07596 0.676842,0.483016 0.481445,1.456055 -0.196598,0.979022 -0.594405,1.31045 -1.027343,1.230468 -0.431852,-0.07978 -0.670052,-0.527045 -0.469727,-1.500976 0.174218,-0.847004 0.492287,-1.176691 0.856445,-1.195313 z m 3.376953,0.08789 c -0.684169,0.02101 -1.202637,0.562071 -1.410156,1.618164 -0.23786,1.2105 0.15445,1.985004 0.995117,2.141602 0.84476,0.157361 1.505086,-0.427443 1.734375,-1.649414 0.228606,-1.21833 -0.179981,-1.941357 -1.016601,-2.087891 -0.104077,-0.01823 -0.204996,-0.02546 -0.302735,-0.02246 z m 0.04492,0.516602 c 0.05291,-0.0026 0.106449,0.0011 0.161133,0.01074 0.438579,0.07747 0.695483,0.488961 0.508789,1.473633 -0.187854,0.990788 -0.589576,1.325737 -1.03125,1.24414 -0.440552,-0.08139 -0.687843,-0.533954 -0.496094,-1.519531 0.166749,-0.85708 0.487025,-1.19064 0.857422,-1.208984 z m 3.710938,0.180664 c -0.295637,0.09424 -0.58104,0.131697 -1.061524,0.117187 l -0.07519,0.408203 0.826172,0.146485 -0.433594,2.395507 -1.043945,-0.193359 -0.100586,0.541992 2.658203,0.494141 0.0957,-0.545899 -0.928711,-0.171875 0.556641,-3.105468 z m -7.157227,0.125976 c -0.215084,-0.03858 -0.421446,0.08056 -0.471679,0.326172 -0.05031,0.245991 0.09503,0.429578 0.310546,0.46875 0.215789,0.03922 0.422837,-0.08048 0.472657,-0.327148 0.04974,-0.246279 -0.09617,-0.429148 -0.311524,-0.467774 z m 10.436523,0.40918 c -0.708513,0.0196 -1.231965,0.572556 -1.419921,1.654297 -0.21547,1.240087 0.21146,2.03614 1.086914,2.199218 0.879803,0.163889 1.549755,-0.433432 1.755859,-1.685546 0.205457,-1.248187 -0.23749,-1.991016 -1.108398,-2.143555 -0.108332,-0.01897 -0.213237,-0.02721 -0.314454,-0.02441 z m -7.164062,0.207031 c -0.153374,0.02887 -0.28036,0.142692 -0.316406,0.329102 -0.04814,0.248928 0.10144,0.43465 0.321289,0.474609 0.220127,0.04001 0.429916,-0.08047 0.477539,-0.330078 0.04755,-0.249225 -0.102596,-0.434233 -0.322266,-0.473633 -0.05485,-0.0098 -0.109031,-0.0096 -0.160156,0 z m 7.223633,0.322266 c 0.05477,-0.0025 0.111044,0.0017 0.167969,0.01172 0.456573,0.08065 0.733521,0.503926 0.565429,1.512695 -0.169157,1.015164 -0.577154,1.356457 -1.037109,1.271484 -0.458763,-0.08475 -0.726148,-0.548892 -0.552735,-1.558594 0.150786,-0.877948 0.473031,-1.21956 0.856446,-1.237304 z m 3.566409,0.106445 c -0.72122,0.01884 -1.247301,0.577828 -1.424808,1.672852 -0.203505,1.255414 0.241108,2.062044 1.134768,2.228515 0.89815,0.167306 1.57289,-0.437344 1.7666,-1.705078 0.19309,-1.263656 -0.2674,-2.016194 -1.15625,-2.171875 -0.11055,-0.01936 -0.21728,-0.02711 -0.32031,-0.02441 z m -28.314456,0.225586 c -0.637165,0.01737 -1.152675,0.542579 -1.410156,1.571289 -0.295055,1.178825 0.02244,1.935607 0.793945,2.091797 0.775142,0.156925 1.424861,-0.40993 1.712891,-1.599609 0.287242,-1.186428 -0.04794,-1.89336 -0.816406,-2.040039 -0.09561,-0.01825 -0.18925,-0.02592 -0.280274,-0.02344 z m 28.381836,0.310547 c 0.0558,-0.0025 0.11281,0.0015 0.1709,0.01172 0.46599,0.08232 0.75288,0.510972 0.59473,1.532226 -0.15917,1.027793 -0.56954,1.37385 -1.03906,1.28711 -0.4683,-0.08651 -0.746628,-0.55788 -0.58301,-1.580079 0.14227,-0.888757 0.46624,-1.233557 0.85644,-1.250977 z m -28.37207,0.193359 c 0.04934,-0.0023 0.09919,0.0021 0.149414,0.01172 0.402809,0.07751 0.615736,0.480531 0.381836,1.439453 -0.235306,0.964684 -0.628833,1.288445 -1.03418,1.207031 -0.404352,-0.08121 -0.606663,-0.523644 -0.368164,-1.483398 0.207445,-0.83479 0.525742,-1.158595 0.871094,-1.174806 z m 32.29688,0.01074 c -0.30844,0.09653 -0.60828,0.134359 -1.11621,0.117188 l -0.0625,0.422851 0.8789,0.15625 -0.36328,2.484375 -1.11035,-0.204101 -0.084,0.561523 2.82715,0.526367 0.0791,-0.567382 -0.98731,-0.182617 0.46387,-3.222657 z m -7.714849,0.09863 c -0.158226,0.02915 -0.285795,0.145958 -0.31836,0.336914 -0.04349,0.255017 0.115817,0.445699 0.344727,0.487305 0.229207,0.04166 0.443401,-0.08118 0.486328,-0.336914 0.04286,-0.255328 -0.117973,-0.445306 -0.34668,-0.486328 -0.0571,-0.01024 -0.113273,-0.01069 -0.166015,-9.77e-4 z m -21.145508,0.08398 c -0.280409,0.09052 -0.547729,0.12568 -0.993164,0.109375 l -0.09473,0.397461 0.758789,0.146484 -0.550782,2.332031 -0.958007,-0.192383 -0.125977,0.527344 2.4375,0.492188 0.123047,-0.53125 -0.851563,-0.170899 0.708008,-3.023437 z m 24.788087,0.570312 c -0.16075,0.02929 -0.28863,0.147507 -0.31933,0.34082 -0.041,0.25817 0.12377,0.450697 0.35742,0.493164 0.23396,0.04252 0.44981,-0.08192 0.49023,-0.34082 0.0404,-0.25849 -0.12593,-0.450318 -0.35937,-0.492187 -0.0583,-0.01045 -0.11536,-0.01074 -0.16895,-9.77e-4 z m -21.522462,0.05371 c -0.284186,0.09121 -0.555428,0.126523 -1.008789,0.109375 l -0.0918,0.402344 0.774414,0.149414 -0.533203,2.359375 -0.975586,-0.196289 -0.12207,0.533203 2.485352,0.50293 0.11914,-0.538086 -0.86914,-0.173829 0.68457,-3.05957 z m -6.920898,0.08203 c -0.144294,0.02746 -0.268562,0.137797 -0.313477,0.319336 -0.05998,0.242417 0.0677,0.423956 0.269532,0.463867 0.202082,0.03996 0.404312,-0.07725 0.463867,-0.320312 0.05946,-0.242699 -0.0688,-0.423506 -0.270508,-0.462891 -0.05036,-0.0098 -0.101316,-0.0092 -0.149414,0 z m 9.993164,0.464844 c -0.670319,0.01516 -1.192937,0.557515 -1.425781,1.623047 -0.266881,1.221286 0.09558,2.008128 0.914062,2.173828 0.822459,0.166505 1.485298,-0.418451 1.744141,-1.651367 0.258078,-1.229274 -0.121701,-1.963613 -0.936524,-2.119141 -0.101367,-0.01935 -0.200138,-0.02853 -0.295898,-0.02637 z m 0.0293,0.522461 c 0.05187,-0.0022 0.103968,0.0024 0.157226,0.0127 0.427134,0.08219 0.666522,0.501612 0.456055,1.495117 -0.211771,0.999654 -0.612932,1.333444 -1.042969,1.247071 -0.428949,-0.08615 -0.658783,-0.545668 -0.443359,-1.540039 0.187341,-0.864747 0.509955,-1.199591 0.873047,-1.214844 z m 3.626953,0.216797 c -0.292033,0.09262 -0.572087,0.127326 -1.041992,0.108398 l -0.08496,0.41211 0.804687,0.155273 -0.492187,2.416992 -1.016602,-0.204101 -0.113281,0.545898 2.586914,0.523438 0.110351,-0.550782 -0.904296,-0.18164 0.631836,-3.133789 z m 3.46582,0.662109 c -0.296108,0.09334 -0.581029,0.128267 -1.05957,0.108399 l -0.08106,0.416992 0.821289,0.158203 -0.47168,2.446289 -1.037109,-0.208008 -0.108398,0.553711 2.640625,0.53418 0.104492,-0.558594 -0.921875,-0.185547 0.604492,-3.171875 z m -7.289062,0.05273 c -0.150946,0.02782 -0.27783,0.142009 -0.31836,0.330078 -0.05412,0.251153 0.08671,0.440089 0.300782,0.482422 0.214348,0.04239 0.42292,-0.07823 0.476562,-0.330079 0.05356,-0.251456 -0.08881,-0.439676 -0.302734,-0.481445 -0.05341,-0.01043 -0.105935,-0.01025 -0.15625,-9.76e-4 z m 10.548828,0.529296 c -0.706397,0.01265 -1.236742,0.572733 -1.441407,1.677735 -0.234636,1.266819 0.177956,2.085611 1.047852,2.261719 0.874246,0.176987 1.550933,-0.427724 1.776367,-1.707032 0.224714,-1.275229 -0.203831,-2.039876 -1.069336,-2.205078 -0.107656,-0.02055 -0.212563,-0.02915 -0.313476,-0.02734 z m 0.05078,0.541993 c 0.05463,-0.002 0.110422,0.0028 0.166992,0.01367 0.45373,0.08731 0.722723,0.523117 0.539063,1.553711 -0.184832,1.037169 -0.595683,1.382815 -1.052735,1.291016 -0.455862,-0.09156 -0.716358,-0.570065 -0.527344,-1.601562 0.164345,-0.896864 0.491633,-1.24269 0.874024,-1.256836 z m 3.835937,0.241211 c -0.30458,0.09481 -0.599108,0.130249 -1.095703,0.108398 l -0.07324,0.426758 0.855469,0.165039 -0.425782,2.508789 -1.081054,-0.216797 -0.09766,0.566406 2.750976,0.556641 0.09473,-0.572266 -0.961914,-0.193359 0.544921,-3.251953 z M 71.458718,37.44364 c -0.280778,0.08967 -0.547838,0.122908 -0.991211,0.101562 l -0.100585,0.405274 0.752929,0.158203 -0.586914,2.379883 -0.951172,-0.207032 -0.133789,0.538086 2.418945,0.530274 0.131836,-0.542969 -0.845703,-0.183594 0.75586,-3.085937 z m 28.759762,0.115234 c -0.308977,0.09556 -0.608223,0.131297 -1.114254,0.108399 l -0.06934,0.43164 0.873047,0.168945 -0.401368,2.540039 -1.103515,-0.221679 -0.09277,0.575195 2.80957,0.568359 0.0889,-0.580078 -0.98145,-0.197265 0.5127,-3.293946 z m -7.691403,0.02051 c -0.158156,0.02817 -0.286752,0.146716 -0.322265,0.341797 -0.04743,0.260523 0.108468,0.456972 0.335937,0.501953 0.227766,0.04504 0.442383,-0.07858 0.489258,-0.339844 0.0468,-0.26085 -0.109639,-0.457576 -0.336914,-0.501953 -0.05675,-0.01108 -0.113297,-0.01134 -0.166016,-0.002 z M 74.449929,38.02372 c -0.656643,0.0094 -1.183592,0.552139 -1.441406,1.626953 -0.295494,1.231894 0.03739,2.030406 0.833984,2.205078 0.800451,0.175516 1.465929,-0.409644 1.753907,-1.65332 0.287132,-1.240035 -0.06412,-1.985996 -0.857422,-2.150391 -0.09869,-0.02045 -0.195257,-0.02966 -0.289063,-0.02832 z m 29.234371,0.155273 c -0.74576,0.0098 -1.28364,0.588918 -1.45605,1.736328 -0.1977,1.315763 0.27097,2.169895 1.19726,2.357422 0.93109,0.188495 1.62242,-0.436416 1.80958,-1.765625 0.1865,-1.324637 -0.29769,-2.122044 -1.21875,-2.297851 -0.11455,-0.02187 -0.2255,-0.03167 -0.33204,-0.03027 z M 74.464578,38.55204 c 0.05084,-0.0017 0.10147,0.0028 0.15332,0.01367 0.415836,0.08685 0.639178,0.512459 0.405273,1.514648 -0.235348,1.008372 -0.638089,1.343033 -1.05664,1.251954 -0.417498,-0.09085 -0.629389,-0.557526 -0.390625,-1.560547 0.207643,-0.872285 0.532793,-1.207524 0.888672,-1.219727 z m 29.294922,0.19043 c 0.0576,-0.0018 0.11753,0.004 0.17773,0.01563 0.48289,0.09292 0.78383,0.546722 0.63086,1.617187 -0.15398,1.077514 -0.57483,1.434667 -1.06152,1.336914 -0.48539,-0.09749 -0.77888,-0.595584 -0.62012,-1.666992 0.13802,-0.931378 0.46961,-1.289867 0.87305,-1.302734 z m -25.750977,0.05957 c -0.288472,0.09102 -0.562998,0.124847 -1.022461,0.101563 l -0.09473,0.415039 0.783204,0.164062 -0.549805,2.4375 -0.989258,-0.214844 -0.125976,0.551758 2.517578,0.551758 0.123047,-0.556641 -0.879883,-0.191406 0.707031,-3.161133 z m -3.762695,0.689453 c -0.148549,0.02678 -0.275363,0.14134 -0.320313,0.331055 -0.06003,0.253341 0.07287,0.445562 0.28125,0.490234 0.208645,0.04473 0.415034,-0.07506 0.47461,-0.329101 0.05948,-0.253652 -0.07398,-0.445155 -0.282227,-0.489258 -0.052,-0.01101 -0.103804,-0.01186 -0.15332,-0.0029 z m 7.136718,0.01074 c -0.292466,0.09171 -0.572178,0.124892 -1.040039,0.100586 l -0.09082,0.419922 0.799805,0.167969 -0.530274,2.467773 -1.009765,-0.21875 -0.121094,0.557618 2.569336,0.5625 0.118164,-0.5625 -0.898438,-0.195313 0.681641,-3.200195 z m 22.235354,0.243165 c -0.16599,0.02851 -0.29836,0.150904 -0.32813,0.353515 -0.0398,0.270594 0.13382,0.476529 0.37598,0.524414 0.24249,0.04795 0.46381,-0.08017 0.50293,-0.351562 0.0391,-0.270948 -0.13406,-0.475225 -0.37598,-0.522461 -0.0604,-0.01179 -0.11947,-0.01341 -0.1748,-0.0039 z m -19.060549,0.374023 c -0.691765,0.0065 -1.226576,0.567808 -1.458008,1.682617 -0.265316,1.278029 0.115466,2.10932 0.961914,2.294922 0.850666,0.186527 1.530418,-0.418301 1.78711,-1.708984 0.255879,-1.286603 -0.14288,-2.062722 -0.985352,-2.237305 -0.104793,-0.02172 -0.206841,-0.03218 -0.305664,-0.03125 z m 0.03418,0.547851 c 0.05352,-0.0016 0.108023,0.0041 0.163086,0.01563 0.441634,0.09223 0.693172,0.535423 0.484375,1.575196 -0.210125,1.046385 -0.622634,1.391703 -1.067383,1.294922 -0.443596,-0.09653 -0.684748,-0.58241 -0.470703,-1.623047 0.186111,-0.90483 0.515953,-1.251777 0.890625,-1.262696 z m 3.473632,0.178711 c -0.70416,0.0055 -1.242063,0.573361 -1.463867,1.702149 -0.254297,1.294157 0.143705,2.136698 1.007813,2.326172 0.868459,0.190427 1.552585,-0.420415 1.797851,-1.727539 0.244472,-1.302887 -0.170392,-2.090364 -1.030273,-2.268555 -0.106953,-0.02216 -0.210929,-0.03301 -0.311524,-0.03223 z m 0.04199,0.555664 c 0.05447,-0.0015 0.109816,0.0039 0.166015,0.01563 0.450771,0.09414 0.711352,0.543767 0.511719,1.59668 -0.200916,1.059679 -0.616281,1.408371 -1.070313,1.30957 -0.452839,-0.09854 -0.704043,-0.590741 -0.499023,-1.644531 0.178252,-0.916205 0.510298,-1.266893 0.891602,-1.277344 z m -3.709961,0.240235 c -0.155591,0.02707 -0.284942,0.145961 -0.325196,0.342773 -0.05376,0.262834 0.09308,0.462309 0.314454,0.509766 0.221657,0.04752 0.436017,-0.07528 0.489257,-0.338867 0.05315,-0.26317 -0.0952,-0.46292 -0.316406,-0.509766 -0.05523,-0.0117 -0.110246,-0.01293 -0.162109,-0.0039 z m 7.52832,0.04687 c -0.305088,0.09383 -0.599166,0.12721 -1.09375,0.09961 l -0.08008,0.436524 0.849609,0.177734 -0.464844,2.563477 -1.073242,-0.233399 -0.106445,0.579102 2.733398,0.598632 0.102539,-0.58496 -0.955078,-0.207032 0.595703,-3.324218 z m -4.004883,0.700195 c -0.158069,0.02716 -0.28861,0.146411 -0.327148,0.345703 -0.05147,0.266154 0.101177,0.469135 0.327148,0.517578 0.226267,0.04851 0.442238,-0.07585 0.493164,-0.342773 0.05084,-0.266498 -0.102339,-0.468784 -0.328125,-0.516602 -0.05637,-0.01194 -0.112349,-0.01296 -0.165039,-0.0039 z m 7.666016,0.05957 c -0.309522,0.09456 -0.608267,0.128387 -1.112305,0.09961 l -0.07617,0.441406 0.868164,0.181641 -0.441406,2.595703 -1.095703,-0.238281 -0.101563,0.58789 2.791992,0.611328 0.09766,-0.592773 -0.976563,-0.211914 0.564453,-3.367188 z m -25.683594,0.204102 c -0.654213,0.0027 -1.188284,0.553262 -1.46289,1.650391 -0.314754,1.25753 0.0033,2.077435 0.793945,2.264648 0.794466,0.188123 1.466999,-0.403105 1.774414,-1.672852 0.306499,-1.265966 -0.03087,-2.033369 -0.818359,-2.20996 -0.09797,-0.02197 -0.193651,-0.03261 -0.28711,-0.03223 z m 29.128906,0.467773 c -0.743617,0.0021 -1.289372,0.589861 -1.479492,1.762696 -0.218027,1.344992 0.235715,2.222958 1.15625,2.424804 0.925319,0.202896 1.624375,-0.429119 1.832035,-1.788086 0.20692,-1.354216 -0.26227,-2.175525 -1.177738,-2.365234 -0.113849,-0.02359 -0.224824,-0.03449 -0.331055,-0.03418 z m -29.124023,0.07324 c 0.05067,-0.0012 0.101853,0.004 0.15332,0.01563 0.412776,0.09326 0.627488,0.530593 0.37793,1.553711 -0.251109,1.029471 -0.657815,1.368157 -1.073242,1.270507 -0.414375,-0.0974 -0.617726,-0.577639 -0.363281,-1.601562 0.22127,-0.890427 0.550588,-1.229551 0.905273,-1.238281 z m 3.273438,0.194336 c -0.665603,0.0016 -1.202346,0.558317 -1.46875,1.668945 -0.305378,1.273099 0.02727,2.104873 0.833984,2.295898 0.810684,0.191964 1.488446,-0.406772 1.786133,-1.692383 0.296777,-1.281683 -0.056,-2.059102 -0.859375,-2.239257 -0.09994,-0.02241 -0.196906,-0.03344 -0.291992,-0.0332 z m 25.916991,0.310546 c 0.05749,-0.0013 0.11595,0.0041 0.175782,0.0166 0.479942,0.100235 0.773965,0.568753 0.604492,1.663086 -0.170594,1.101592 -0.59639,1.462677 -1.080078,1.357422 -0.482377,-0.104969 -0.767106,-0.618622 -0.591797,-1.713867 0.15239,-0.952055 0.489194,-1.314334 0.891601,-1.323243 z m -25.906249,0.237305 c 0.05154,-0.0012 0.103745,0.0038 0.15625,0.01563 0.42111,0.09514 0.64507,0.539392 0.40332,1.575195 -0.243267,1.0423 -0.65326,1.38382 -1.077148,1.28418 -0.422804,-0.09938 -0.635434,-0.585453 -0.388672,-1.62207 0.214577,-0.901412 0.545468,-1.244685 0.90625,-1.25293 z m 29.953126,0.08105 c -0.31876,0.09604 -0.62851,0.128927 -1.15234,0.09766 l -0.0674,0.453125 0.90528,0.19043 -0.38965,2.664062 -1.14355,-0.248047 -0.0908,0.602539 2.91504,0.638672 0.085,-0.609375 -1.01855,-0.221679 0.49805,-3.455078 z m -33.469728,0.135742 c -0.148411,0.02584 -0.277281,0.141298 -0.325195,0.334961 -0.06399,0.258622 0.06563,0.456962 0.272461,0.504883 0.207094,0.04798 0.414971,-0.07268 0.478516,-0.332032 0.06345,-0.258947 -0.06674,-0.456572 -0.273438,-0.503906 -0.05161,-0.01182 -0.102873,-0.01252 -0.152344,-0.0039 z m 7.109375,0.08594 c -0.292887,0.09077 -0.572363,0.122591 -1.038086,0.09277 l -0.09766,0.428711 0.793945,0.179687 -0.569336,2.520508 -1.000976,-0.235351 -0.13086,0.570312 2.550782,0.603516 0.126953,-0.575196 -0.891602,-0.209961 0.731446,-3.268554 z m 22.15625,0.485351 c -0.165938,0.02743 -0.300113,0.150302 -0.333008,0.357422 -0.04393,0.276615 0.125546,0.489423 0.366211,0.541016 0.240991,0.05166 0.4645,-0.07704 0.507812,-0.354493 0.04324,-0.276987 -0.12675,-0.488141 -0.367187,-0.539062 -0.06003,-0.01271 -0.118516,-0.01403 -0.173828,-0.0049 z m -19.00293,0.179688 c -0.689383,-6.3e-4 -1.231654,0.568422 -1.480468,1.707031 -0.285258,1.305379 0.08046,2.160368 0.920898,2.359375 0.844646,0.200006 1.531781,-0.411956 1.808594,-1.730469 0.275925,-1.314277 -0.108689,-2.113171 -0.945313,-2.300781 -0.104062,-0.02334 -0.205227,-0.03507 -0.303711,-0.03516 z m -6.971679,0.0029 c -0.150704,0.02591 -0.279718,0.142809 -0.326172,0.338867 -0.06204,0.261826 0.07217,0.462826 0.283203,0.511719 0.211298,0.04896 0.420847,-0.07239 0.482422,-0.334961 0.06148,-0.262159 -0.07231,-0.46245 -0.283203,-0.510742 -0.05266,-0.01206 -0.106016,-0.01352 -0.15625,-0.0049 z m 6.99707,0.559571 c 0.05336,-0.001 0.107432,0.0042 0.162109,0.0166 0.438557,0.09909 0.681055,0.555084 0.456055,1.617188 -0.22644,1.068905 -0.642378,1.418258 -1.083984,1.314453 -0.440453,-0.103532 -0.672662,-0.603077 -0.442383,-1.666016 0.200217,-0.924183 0.534694,-1.275019 0.908203,-1.282226 z m 3.728516,0.323242 c -0.301239,0.09213 -0.588974,0.123049 -1.072266,0.09082 l -0.09082,0.44043 0.826172,0.1875 -0.526368,2.584961 -1.043945,-0.245118 -0.121094,0.584961 2.658203,0.628907 0.117188,-0.590821 -0.928711,-0.217773 0.676758,-3.352539 z m -3.938477,0.671875 c -0.155478,0.02606 -0.286757,0.14565 -0.330078,0.346679 -0.05786,0.268469 0.08586,0.474462 0.305664,0.525391 0.220098,0.051 0.434839,-0.07254 0.492188,-0.341797 0.05726,-0.268821 -0.08699,-0.474116 -0.306641,-0.524414 -0.05484,-0.01256 -0.109307,-0.01455 -0.161133,-0.0059 z m 7.500977,0.127929 c -0.305584,0.09282 -0.599322,0.123341 -1.091797,0.08984 l -0.08691,0.446289 0.844726,0.191406 -0.504883,2.618164 -1.066406,-0.25 -0.116211,0.591797 2.71582,0.642578 0.112305,-0.597656 -0.949219,-0.222656 0.647461,-3.396484 z m 3.352539,0.708008 c -0.727764,-0.0044 -1.277918,0.585329 -1.497071,1.768555 -0.251315,1.356869 0.167399,2.248008 1.0625,2.459961 0.899736,0.213051 1.602155,-0.419992 1.84375,-1.791016 0.240757,-1.366272 -0.196411,-2.198744 -1.086914,-2.398437 -0.110746,-0.02484 -0.218299,-0.03844 -0.322265,-0.03906 z m 0.04883,0.584961 c 0.05629,-7.82e-4 0.113677,0.0054 0.171875,0.01855 0.466831,0.105475 0.740698,0.581485 0.543945,1.685547 -0.198054,1.111357 -0.624385,1.472862 -1.094727,1.362304 -0.469073,-0.110261 -0.733721,-0.631399 -0.53125,-1.736328 0.176005,-0.960495 0.516112,-1.324606 0.910157,-1.330078 z m 3.950195,0.357422 c -0.314627,0.09423 -0.618181,0.125054 -1.129883,0.08887 l -0.07813,0.457031 0.88086,0.200196 -0.457032,2.688476 -1.112304,-0.261718 -0.105469,0.608398 2.833984,0.669922 0.100586,-0.614258 -0.990234,-0.232422 0.583984,-3.486328 z m -4.133789,0.676758 c -0.163158,0.02626 -0.296923,0.150423 -0.334961,0.359375 -0.0508,0.279065 0.108723,0.4946 0.342773,0.548828 0.234367,0.0543 0.456616,-0.0736 0.506836,-0.353516 0.05014,-0.279445 -0.109902,-0.494301 -0.34375,-0.547851 -0.05838,-0.01337 -0.116512,-0.01559 -0.170898,-0.0068 z m 7.631836,0.06348 c -0.755336,-0.0071 -1.311852,0.595657 -1.508789,1.810547 -0.225877,1.39342 0.231448,2.310928 1.166015,2.532227 0.939512,0.222469 1.651994,-0.424686 1.867188,-1.833008 0.214412,-1.403195 -0.260087,-2.261319 -1.189453,-2.469727 -0.115567,-0.02591 -0.227056,-0.03902 -0.334961,-0.04004 z m 0.06445,0.600586 c 0.0584,-5.97e-4 0.117974,0.0058 0.178711,0.01953 0.487228,0.110082 0.783988,0.600523 0.608398,1.734375 -0.176776,1.141506 -0.6095,1.510941 -1.100586,1.395507 -0.489728,-0.115116 -0.777334,-0.65237 -0.595703,-1.787109 0.157866,-0.98627 0.500387,-1.358125 0.90918,-1.362305 z m 3.805665,0.267578 c -0.76977,-0.0086 -1.32865,0.601668 -1.51367,1.833008 -0.21223,1.412416 0.26542,2.344109 1.2207,2.570313 0.9604,0.227414 1.67886,-0.428734 1.87989,-1.856446 0.20027,-1.422383 -0.29438,-2.292878 -1.24414,-2.505859 -0.1181,-0.02648 -0.23281,-0.03979 -0.34278,-0.04102 z m 0.0742,0.609375 c 0.0595,-4.98e-4 0.12055,0.0065 0.18262,0.02051 0.49793,0.1125 0.80681,0.609455 0.64258,1.758789 -0.16536,1.157179 -0.60252,1.53108 -1.1045,1.413086 -0.50057,-0.117666 -0.80033,-0.662267 -0.62988,-1.8125 0.14814,-0.999662 0.49267,-1.376394 0.90918,-1.379883 z m -4.042971,0.185547 c -0.168656,0.02638 -0.304787,0.152608 -0.338867,0.367188 -0.04552,0.286587 0.12579,0.508822 0.370117,0.565429 0.244663,0.05669 0.471725,-0.07385 0.516602,-0.361328 0.0448,-0.286989 -0.127001,-0.508557 -0.371094,-0.564453 -0.06094,-0.01395 -0.120539,-0.01563 -0.176758,-0.0068 z m 3.889651,0.890625 c -0.17153,0.02643 -0.30789,0.154571 -0.33984,0.372071 -0.0427,0.290496 0.13407,0.51636 0.38379,0.574218 0.25007,0.05794 0.48045,-0.07382 0.52246,-0.365234 0.0419,-0.290912 -0.13627,-0.516115 -0.38574,-0.573242 -0.0623,-0.01426 -0.12349,-0.01662 -0.18067,-0.0078 z" />
      </g>
    </g>
    <path
       id="path13"
       style="fill:#000000;fill-opacity:0.2;stroke:none;stroke-width:0.00805955px;stroke-linecap:butt;stroke-linejoin:miter;stroke-opacity:1"
       d="m 17.922693,8.825305 c -2.963027,3.503013 -6.320213,9.816023 -7.682742,12.828163 l 0.71624,0.553455 1.575616,0.457853 c 0.235905,-0.395786 1.069243,-1.778381 2.020032,-3.350183 1.310892,0.01272 3.07318,0.09398 5.391919,0.259415 0.166645,1.622094 0.243397,3.146772 0.06925,3.968234 l 0.839742,0.8847 1.91978,0.250631 0.917256,-0.105937 c -0.005,-0.05544 -0.01187,-0.110944 -0.01705,-0.166398 C 22.949291,17.001882 22.591583,14.072335 20.967985,9.2335488 20.976382,9.2320628 17.922693,8.825305 17.922693,8.825305 Z m 0.825789,3.867986 c 0.101402,0.0069 0.147012,0.114464 0.162781,0.199471 0.126938,0.684198 0.274104,1.521805 0.427364,2.407089 -0.971941,0.321253 -1.965723,0.658398 -2.979663,1.036112 0.790774,-1.297414 1.5576,-2.549596 2.146122,-3.49126 0.05042,-0.08067 0.119138,-0.159832 0.243396,-0.151412 z"
       sodipodi:nodetypes="cccccccccccccccccsc" />
    <path
       style="fill:none;stroke:#4d3e2e;stroke-width:0.238125;stroke-linecap:butt;stroke-linejoin:miter;stroke-miterlimit:4;stroke-dasharray:none;stroke-opacity:1"
       d="M 9.8065869,2.4453923 30.006987,4.6118375 26.49039,32.035407 3.5901115,26.275215 Z"
       id="path1553"
       sodipodi:nodetypes="ccccc" />
    <path
       id="path21"
       style="fill:none;fill-opacity:0.2;stroke:#66000f;stroke-width:0.47625;stroke-linecap:round;stroke-linejoin:miter;stroke-dasharray:none;stroke-opacity:1;paint-order:fill markers stroke"
       d="M 16.836516,8.1012805 C 13.873489,11.604294 10.516303,17.917304 9.153774,20.929444 l 0.71624,0.553454 1.575616,0.457853 c 0.235905,-0.395786 1.069243,-1.77838 2.020032,-3.350183 1.310892,0.01272 3.07318,0.09398 5.391919,0.259415 0.166645,1.622094 0.243397,3.146772 0.06925,3.968234 l 0.839742,0.884701 1.91978,0.25063 0.917256,-0.105937 c -0.005,-0.05544 -0.01187,-0.110944 -0.01705,-0.166398 C 21.863114,16.277857 21.505406,13.348311 19.881808,8.5095243 Z m 0.825789,3.8679865 c 0.101402,0.0069 0.147012,0.114464 0.162781,0.199471 0.126938,0.684198 0.274104,1.521805 0.427364,2.407089 -0.971941,0.321253 -1.965723,0.658398 -2.979663,1.036112 0.790774,-1.297414 1.5576,-2.549596 2.146122,-3.49126 0.05042,-0.08067 0.119138,-0.159832 0.243396,-0.151412 z"
       sodipodi:nodetypes="cccccccccccccccccsc" />
    <path
       id="path2"
       style="fill:url(#linearGradient20);stroke:none;stroke-width:0.00805955px;stroke-linecap:butt;stroke-linejoin:miter;stroke-opacity:1"
       d="m 16.836516,8.1012805 c -2.96303,3.5030115 -6.319835,9.8159885 -7.6823587,12.8281315 1.2790597,-2.546462 2.8683787,-4.720931 4.2978437,-6.811031 1.429464,-2.0901 2.699074,-4.095831 4.198612,-5.9079439 z"
       sodipodi:nodetypes="ccscc" />
    <path
       id="path3"
       style="fill:#e33d3b;fill-opacity:1;stroke:none;stroke-width:0.00805955px;stroke-linecap:butt;stroke-linejoin:miter;stroke-opacity:1"
       d="m 19.118119,8.4072041 c 0.745701,2.3071079 1.265054,4.8405769 1.889664,7.4514929 0.624611,2.610916 1.354479,5.299278 1.595169,7.982319 C 21.868197,16.311055 21.518047,13.385554 19.881984,8.5096256 Z"
       sodipodi:nodetypes="csccc" />
    <path
       style="fill:none;stroke:#000000;stroke-width:0.00805955px;stroke-linecap:butt;stroke-linejoin:miter;stroke-opacity:1"
       d="m 9.8700417,21.482753 1.5757213,0.458108 c 0,0 3.990291,-6.688807 5.973149,-9.819911 0.05091,-0.08039 0.119515,-0.159923 0.243773,-0.151503 0.101405,0.0069 0.146902,0.114303 0.162674,0.19931 0.681265,3.672012 1.941273,11.534077 1.941273,11.534077 l 1.919706,0.250713 c -1.018673,-4.985576 -3.461166,-13.729295 -3.461166,-13.729295 0,0 -0.02979,-0.148561 -0.15681,-0.1578 -0.107144,-0.0078 -0.185856,0.07252 -0.27335,0.180872 -2.700981,3.344964 -6.884292,9.03053 -7.9249703,11.235429 z"
       id="path5"
       sodipodi:nodetypes="ccssscccssc" />
    <path
       style="fill:url(#linearGradient18);stroke:none;stroke-width:0.00805955px;stroke-linecap:butt;stroke-linejoin:miter;stroke-opacity:1"
       d="m 18.926861,22.818425 0.839771,0.884409 c -0.246103,-2.383527 -0.723176,-4.809634 -1.192135,-7.180663 0.320537,2.33116 0.609808,5.0819 0.352364,6.296254 z"
       id="path6"
       sodipodi:nodetypes="cccc" />
    <path
       id="path8"
       style="fill:url(#linearGradient10);fill-opacity:1;stroke:none;stroke-width:0.00805955px;stroke-linecap:butt;stroke-linejoin:miter;stroke-opacity:1"
       d="m 18.068365,10.066453 c -0.107141,-0.0078 -0.18585,0.07251 -0.273344,0.180866 -1.797058,2.22552 -3.600218,4.674101 -4.722954,6.243877 0.740215,-0.319266 1.474512,-0.608585 2.201036,-0.879222 0.790775,-1.297415 1.55728,-2.549362 2.145803,-3.491027 0.05042,-0.08067 0.119518,-0.159918 0.243776,-0.151498 0.101402,0.0069 0.146902,0.114296 0.162671,0.199303 0.126938,0.684198 0.274263,1.5217 0.427523,2.406985 0.353366,-0.116793 0.708558,-0.234249 1.054616,-0.347535 -0.605865,-2.282439 -1.08232,-4.003945 -1.08232,-4.003945 0,0 -0.02978,-0.148565 -0.156807,-0.157804 z m 1.791725,6.443303 c -0.40857,0.0098 -0.834394,0.0309 -1.268442,0.05815 0.58447,3.466201 1.174993,7.134926 1.174993,7.134926 l 1.919694,0.250719 C 21.139453,21.357135 20.532479,18.976358 19.86009,16.509756 Z m -5.472162,0.556927 c -0.644524,0.109956 -1.309453,0.236789 -1.997504,0.383587 -0.271924,0.391335 -1.786593,2.704527 -2.5203716,4.03248 l 1.5757096,0.458117 c 0.313351,-0.525719 1.578092,-2.626585 2.942166,-4.874184 z" />
    <path
       id="path4"
       style="fill:url(#linearGradient14);fill-opacity:0.997625;stroke:none;stroke-width:0.00805955px;stroke-linecap:butt;stroke-linejoin:miter;stroke-opacity:1"
       d="m 19.86009,16.509756 c -2.134178,0.05099 -4.61336,0.331109 -7.469666,0.940514 -0.10547,0.151785 -0.41782,0.62741 -0.777403,1.185085 1.476396,-0.113952 4.243852,-0.02924 8.898988,0.339467 -0.211316,-0.820741 -0.426146,-1.636832 -0.651919,-2.465066 z" />
    <path
       id="path1"
       style="fill:url(#linearGradient12);fill-opacity:0.973872;stroke:none;stroke-width:0.00805955px;stroke-linecap:butt;stroke-linejoin:miter;stroke-opacity:1"
       d="M 17.650613,8.2104371 C 14.651531,11.834665 11.712274,15.836482 9.1541512,20.929412 l 0.7158954,0.553338 c 0.7337794,-1.327954 2.2484474,-3.641145 2.5203724,-4.03248 2.856308,-0.609406 5.335484,-0.889524 7.469665,-0.940513 0.672389,2.466604 1.279362,4.847376 1.826245,7.443794 l 0.917299,-0.105765 C 22.122916,18.479555 20.610147,13.023358 19.118116,8.4072041 Z m 0.417746,1.8560159 c 0.127023,0.0092 0.156807,0.157804 0.156807,0.157804 0,0 0.476455,1.721504 1.08232,4.003945 -1.980419,0.648308 -4.087979,1.336775 -6.235415,2.262995 1.122738,-1.569777 2.925886,-4.018355 4.722944,-6.243878 0.08749,-0.108355 0.166203,-0.188659 0.273344,-0.180866 z"
       sodipodi:nodetypes="cccccccccscccss" />
    <path
       style="color:#000000;fill:#db7871;fill-opacity:1;stroke-width:0.0304613;-inkscape-stroke:none"
       d="m 18.077996,9.9881385 c -0.07533,-0.00545 -0.145688,0.02274 -0.200688,0.063541 -0.055,0.0408 -0.09973,0.09296 -0.144834,0.148802 -3.18416,3.941632 -4.64791,6.122585 -6.119453,8.434874 2.074794,-2.879106 4.11552,-5.678915 6.244588,-8.341158 0.0424,-0.05253 0.08082,-0.09469 0.113797,-0.119159 0.03298,-0.02447 0.05551,-0.0325 0.08732,-0.03018 0.03223,0.0024 0.0496,0.02004 0.06551,0.0462 0.01592,0.02617 0.02139,0.0515 0.02139,0.0515 l 5.48e-4,0.0026 7.01e-4,0.0026 c 0,0 0.475164,1.721151 1.079333,4.003157 l 0.162619,-0.04551 c -0.607561,-2.282866 -1.085319,-4.00473 -1.085319,-4.00473 l 0.0012,0.0053 c 0,0 -0.0094,-0.04903 -0.04024,-0.09948 -0.03075,-0.0504 -0.09177,-0.1114725 -0.186499,-0.118326 z"
       id="path23"
       sodipodi:nodetypes="ssscsssscccccccss" />
    <path
       style="color:#000000;fill:#db7871;fill-opacity:1;stroke-width:0.0304613;-inkscape-stroke:none"
       d="m 19.925119,16.421772 -0.06663,0.0016 c -2.138745,0.05184 -4.607358,0.416534 -7.468061,1.026878 h -5e-6 c 2.822773,-0.602251 5.289627,-0.797364 7.404459,-0.85162 0.663209,2.441957 1.350025,4.78439 1.891451,7.354901 l 9e-6,-4e-6 C 21.138917,21.354585 20.617156,18.954 19.942791,16.486467 Z"
       id="path24"
       sodipodi:nodetypes="ccccccccc" />
  </g>
</svg>
