<?xml version="1.0" encoding="UTF-8" standalone="no"?>
<svg
   width="128"
   height="128"
   viewBox="0 0 33.866666 33.866668"
   version="1.1"
   id="svg958"
   inkscape:version="1.3 (0e150ed6c4, 2023-07-21)"
   sodipodi:docname="application-x-raw-disk-image.svg"
   xmlns:inkscape="http://www.inkscape.org/namespaces/inkscape"
   xmlns:sodipodi="http://sodipodi.sourceforge.net/DTD/sodipodi-0.dtd"
   xmlns:xlink="http://www.w3.org/1999/xlink"
   xmlns="http://www.w3.org/2000/svg"
   xmlns:svg="http://www.w3.org/2000/svg"
   xmlns:rdf="http://www.w3.org/1999/02/22-rdf-syntax-ns#"
   xmlns:cc="http://creativecommons.org/ns#"
   xmlns:dc="http://purl.org/dc/elements/1.1/">
  <defs
     id="defs952">
    <linearGradient
       id="linearGradient1617"
       inkscape:collect="always">
      <stop
         id="stop1613"
         offset="0"
         style="stop-color:#ffffe8;stop-opacity:1" />
      <stop
         id="stop1615"
         offset="1"
         style="stop-color:#ffe896;stop-opacity:1" />
    </linearGradient>
    <linearGradient
       gradientTransform="matrix(0.9789725,0,0,0.9789725,0.48107585,0.37449131)"
       gradientUnits="userSpaceOnUse"
       y2="30.691668"
       x2="25.4"
       y1="3.175"
       x1="10.583333"
       id="linearGradient1619"
       xlink:href="#linearGradient1617"
       inkscape:collect="always" />
    <linearGradient
       gradientTransform="matrix(0.26192415,-0.26192415,0.26192415,0.26192415,-4.6667671,14.360565)"
       gradientUnits="userSpaceOnUse"
       y2="60"
       x2="28"
       y1="2"
       x1="28"
       id="linearGradient9802-2"
       xlink:href="#linearGradient9800"
       inkscape:collect="always" />
    <linearGradient
       id="linearGradient9800"
       inkscape:collect="always">
      <stop
         id="stop9796"
         offset="0"
         style="stop-color:#969696;stop-opacity:1" />
      <stop
         id="stop9798-8"
         offset="1"
         style="stop-color:#505050;stop-opacity:1" />
    </linearGradient>
  </defs>
  <sodipodi:namedview
     inkscape:bbox-nodes="true"
     inkscape:snap-bbox-edge-midpoints="false"
     inkscape:bbox-paths="false"
     inkscape:snap-bbox="true"
     inkscape:snap-grids="false"
     units="px"
     showgrid="false"
     inkscape:document-rotation="0"
     inkscape:current-layer="layer1"
     inkscape:document-units="px"
     inkscape:cy="64.07601"
     inkscape:cx="64"
     inkscape:zoom="6.578125"
     inkscape:pageshadow="2"
     inkscape:pageopacity="0.0"
     borderopacity="1.0"
     bordercolor="#666666"
     pagecolor="#ffffff"
     id="base"
     inkscape:pagecheckerboard="0"
     showguides="true"
     inkscape:guide-bbox="true"
     guidetolerance="10000"
     inkscape:snap-tangential="true"
     inkscape:snap-perpendicular="true"
     inkscape:window-width="1920"
     inkscape:window-height="1097"
     inkscape:window-x="0"
     inkscape:window-y="0"
     inkscape:window-maximized="1"
     inkscape:snap-to-guides="false"
     inkscape:snap-intersection-paths="false"
     inkscape:snap-bbox-midpoints="false"
     inkscape:snap-nodes="true"
     inkscape:object-paths="false"
     inkscape:showpageshadow="2"
     inkscape:deskcolor="#d1d1d1">
    <inkscape:grid
       id="grid1521"
       type="xygrid"
       empcolor="#ff2624"
       empopacity="0.2"
       originx="0"
       originy="0"
       spacingy="0.26458334"
       spacingx="0.26458334"
       units="px"
       visible="false"
       empspacing="4" />
    <sodipodi:guide
       position="6.5361112,12.172222"
       orientation="0,-1"
       id="guide846"
       inkscape:locked="false" />
    <sodipodi:guide
       position="4.7625,13.798641"
       orientation="1,0"
       id="guide848"
       inkscape:locked="false" />
    <sodipodi:guide
       position="4.7625,29.104928"
       orientation="0,-1"
       id="guide1"
       inkscape:locked="false" />
    <sodipodi:guide
       position="21.695835,30.95625"
       orientation="1,0"
       id="guide2"
       inkscape:locked="false" />
  </sodipodi:namedview>
  <metadata
     id="metadata955">
    <rdf:RDF>
      <cc:Work
         rdf:about="">
        <dc:format>image/svg+xml</dc:format>
        <dc:type
           rdf:resource="http://purl.org/dc/dcmitype/StillImage" />
      </cc:Work>
    </rdf:RDF>
  </metadata>
  <g
     id="layer1"
     inkscape:groupmode="layer"
     inkscape:label="Layer 1">
    <path
       style="fill:#000000;fill-opacity:0.196078;stroke:none;stroke-width:0.725255;stroke-miterlimit:4;stroke-dasharray:none;stroke-opacity:1;paint-order:markers stroke fill"
       d="M 26.49039,32.035407 32.706865,22.710694 26.49039,20.638537 Z"
       id="path1768"
       inkscape:connector-curvature="0"
       sodipodi:nodetypes="cccc" />
    <path
       sodipodi:nodetypes="ccccc"
       id="path1611"
       d="M 9.8057889,2.4466498 30.006189,4.613095 26.489592,32.036664 3.5893135,26.276471 Z"
       style="fill:url(#linearGradient1619);fill-opacity:1;stroke:none;stroke-width:0.440334;stroke-linecap:butt;stroke-linejoin:miter;stroke-miterlimit:4;stroke-dasharray:none;stroke-opacity:1" />
    <g
       id="text17-2"
       style="font-size:5.39661px;line-height:0.76;font-family:'Liberation Mono';-inkscape-font-specification:'Liberation Mono';letter-spacing:0px;stroke-width:0.270322"
       transform="scale(1.0075986,0.99245875)"
       aria-label="010101&#10;101010&#10;110011&#10;001100&#10;100100&#10;011011">
      <path
         id="path32-1"
         d="m 12.590612,4.6135005 c -0.334078,-0.039833 -0.604837,0.041475 -0.812967,0.2436291 -0.208347,0.2023657 -0.366477,0.5272824 -0.475125,0.9769799 -0.10644,0.4405617 -0.107838,0.7885686 -0.0034,1.0426377 0.105237,0.2539607 0.318769,0.4031927 0.64141,0.4467469 0.323825,0.043714 0.596673,-0.041293 0.81714,-0.2548554 0.221873,-0.2144781 0.383683,-0.5445555 0.485258,-0.988041 0.103396,-0.451437 0.101291,-0.7984898 -0.0049,-1.0426063 -0.10413,-0.2441205 -0.31992,-0.3854501 -0.647356,-0.4244909 z m 4.975142,0.5931961 c -0.353048,-0.042095 -0.634838,0.041073 -0.846138,0.2491989 -0.211528,0.2083494 -0.365584,0.5434155 -0.462866,1.007549 -0.09532,0.4547762 -0.08362,0.8143232 0.0359,1.0771886 0.120385,0.2627909 0.350805,0.4177228 0.692095,0.4637944 0.342576,0.046245 0.626602,-0.040736 0.850571,-0.2607776 0.225409,-0.2209764 0.383141,-0.5616086 0.473096,-1.0195829 0.09155,-0.466111 0.07604,-0.8246373 -0.04514,-1.0771023 C 18.144328,5.3945346 17.911819,5.2479586 17.565754,5.2066966 Z m 5.262054,0.6274053 c -0.373681,-0.044555 -0.66734,0.040555 -0.881836,0.2550153 -0.214733,0.2146968 -0.363977,0.5605593 -0.44838,1.0400705 -0.08272,0.4699221 -0.05637,0.8417826 0.07985,1.1140526 0.137149,0.2722347 0.386096,0.4332878 0.747699,0.4821015 0.363005,0.049003 0.659072,-0.040042 0.88658,-0.266966 0.228981,-0.2278794 0.381872,-0.579755 0.458651,-1.0531797 0.07813,-0.4817543 0.04762,-0.8525216 -0.09008,-1.1139074 C 23.444968,6.029982 23.194138,5.8777802 22.827808,5.8341019 Z M 15.022446,4.9453252 c -0.09842,0.1202784 -0.245836,0.2120449 -0.442338,0.2751095 -0.19498,0.063171 -0.391531,0.082661 -0.589816,0.058467 l -0.06513,0.28885 c 0.179772,0.022234 0.370804,0.00714 0.573484,-0.045704 0.204255,-0.05274 0.342548,-0.1269373 0.41492,-0.2226654 L 14.469121,7.3230961 13.5749,7.2040863 l -0.06527,0.289614 1.997428,0.2691722 0.06235,-0.2933409 -0.728886,-0.097006 0.518542,-2.3869859 z m 5.115971,0.6111779 c -0.09899,0.123966 -0.250676,0.2183331 -0.455158,0.2829014 -0.202871,0.064681 -0.409071,0.084229 -0.61877,0.058642 l -0.05746,0.2982187 c 0.190139,0.023516 0.390706,0.0085 0.602093,-0.045487 0.213055,-0.053877 0.355822,-0.1301235 0.428336,-0.2288134 L 19.647536,8.012279 18.70108,7.8863174 18.64346,8.185532 20.758161,8.4705079 20.812471,8.167318 20.040714,8.0646067 20.494471,5.5990393 Z m 5.415381,0.6469468 c -0.09945,0.1278856 -0.255669,0.2250052 -0.468743,0.2911476 -0.211363,0.066262 -0.428023,0.085842 -0.650149,0.058739 l -0.04878,0.3082051 c 0.201429,0.024912 0.412338,0.010011 0.633117,-0.045167 0.222554,-0.055058 0.370089,-0.1334702 0.442635,-0.2353102 L 25.133795,8.7424324 24.13039,8.6088917 24.081456,8.918353 26.324069,9.2205662 26.369249,8.906856 25.550725,8.7979206 25.931018,6.2485143 Z M 12.524603,4.8940291 c 0.213193,0.025766 0.346678,0.1279298 0.40021,0.3067845 0.05533,0.17829 0.03964,0.4556491 -0.04776,0.8333091 -0.08417,0.3637234 -0.196607,0.6284572 -0.336541,0.7932246 C 12.400429,6.9922981 12.224385,7.0610461 12.012928,7.0328601 11.80065,7.0045645 11.666313,6.8978398 11.609459,6.713097 11.554418,6.5278204 11.571474,6.2495059 11.660005,5.8795208 11.750594,5.5009371 11.86249,5.2360819 11.99596,5.0832911 12.130604,4.9308135 12.306676,4.867691 12.524603,4.8940291 Z m 4.982386,0.6021575 c 0.225341,0.027234 0.369726,0.1331374 0.432904,0.3180228 0.06505,0.1843238 0.05914,0.470793 -0.01841,0.8607053 -0.0747,0.3755731 -0.182961,0.6487997 -0.323989,0.8186405 -0.141189,0.1700351 -0.3239,0.2405237 -0.547575,0.2107089 -0.224528,-0.029928 -0.369982,-0.1406566 -0.436836,-0.3317496 -0.06496,-0.191621 -0.05757,-0.4791216 0.02156,-0.8610668 0.08096,-0.39077 0.188638,-0.6639749 0.323273,-0.8213686 0.135879,-0.1570625 0.318748,-0.2217295 0.549077,-0.1938925 z m 5.270258,0.6369488 c 0.238557,0.028831 0.3949,0.1387422 0.468767,0.3300669 0.07583,0.1907681 0.08088,0.4869537 0.01448,0.8899259 -0.06397,0.3882071 -0.167359,0.670482 -0.309372,0.8457164 C 22.808943,8.3742855 22.619074,8.4466034 22.382091,8.4150147 22.14422,8.3833077 21.98656,8.2682836 21.90862,8.0704032 21.83266,7.8720021 21.82922,7.5747019 21.89769,7.1800112 21.96773,6.776258 22.070516,6.4941664 22.20623,6.3318852 22.343264,6.1699551 22.533434,6.103668 22.777254,6.1331354 Z M 12.094052,5.676611 l -0.114834,0.4848266 0.466532,0.0599 0.113712,-0.4862841 z m 4.989647,0.6265604 -0.102414,0.5005027 0.493325,0.06334 0.101143,-0.5020546 z m 5.279093,0.6629068 -0.08833,0.5172086 0.52206,0.06703 0.08689,-0.5188628 z m -7.997176,1.03091 C 14.016865,7.949236 13.73618,8.0309562 13.522003,8.241719 13.307596,8.45271 13.146756,8.794382 13.039532,9.2692622 c -0.105065,0.4653211 -0.101885,0.8343468 0.01037,1.1055918 0.113113,0.271188 0.337853,0.432736 0.674888,0.484449 0.338313,0.05191 0.621646,-0.03322 0.848676,-0.25608 0.228475,-0.223796 0.392691,-0.571237 0.492491,-1.0399425 0.101569,-0.4770176 0.09496,-0.8449795 -0.01921,-1.1055522 -0.11195,-0.2605007 -0.33927,-0.4139316 -0.681131,-0.4607401 z m 5.19889,0.7118482 c -0.369251,-0.050559 -0.661782,0.033014 -0.87929,0.2502691 -0.217751,0.2174971 -0.374072,0.5703666 -0.468826,1.0612795 -0.09286,0.481113 -0.07538,0.863034 0.05329,1.144202 0.129594,0.281152 0.37264,0.449245 0.729853,0.504054 0.358605,0.05502 0.653996,-0.03207 0.884712,-0.26198 0.232197,-0.230873 0.39185,-0.58998 0.478881,-1.0748 0.08856,-0.4933341 0.06732,-0.8741183 -0.0631,-1.1441103 -0.128061,-0.2698723 -0.373528,-0.4293492 -0.73552,-0.4789143 z m 5.509397,0.7543638 c -0.39161,-0.05362 -0.696923,0.031884 -0.917786,0.2560426 -0.221116,0.2244158 -0.372086,0.5892302 -0.452663,1.0972742 -0.07898,0.497989 -0.04545,0.893714 0.101446,1.185527 0.147894,0.291843 0.411088,0.46699 0.790344,0.525181 0.380781,0.05843 0.689194,-0.03071 0.923632,-0.268135 0.235956,-0.238409 0.390178,-0.60998 0.462681,-1.112038 0.07376,-0.510782 0.03612,-0.905289 -0.112341,-1.1853794 C 25.723273,9.6817557 25.457862,9.5157731 25.073903,9.4632002 Z M 11.852834,7.6960143 c -0.100303,0.1221015 -0.248468,0.2143222 -0.444579,0.2764669 -0.194604,0.062273 -0.390125,0.079666 -0.585949,0.052282 l -0.07129,0.2954434 c 0.177535,0.025135 0.36749,0.012185 0.56948,-0.039398 0.20355,-0.051454 0.342361,-0.1261678 0.41629,-0.2234246 l -0.487691,2.070228 -0.883347,-0.1337729 -0.07155,0.2966679 1.972663,0.3022 0.06873,-0.300556 -0.719757,-0.109 0.569481,-2.441531 z m 5.053769,0.6932096 c -0.100956,0.1258976 -0.253436,0.2207451 -0.457531,0.2843368 -0.202499,0.063728 -0.407655,0.081052 -0.614813,0.052082 l -0.06387,0.3052066 c 0.18783,0.026593 0.387303,0.01385 0.597991,-0.038799 0.212343,-0.052511 0.355648,-0.1292944 0.429787,-0.2296045 l -0.43494,2.1396452 -0.93524,-0.141632 -0.06415,0.306686 2.089145,0.320045 0.06094,-0.310838 -0.762333,-0.115447 0.506798,-2.5234286 z m 5.35123,0.7340113 c -0.101512,0.1299358 -0.258567,0.2275642 -0.471259,0.2926682 -0.210999,0.065248 -0.426603,0.082465 -0.64611,0.051769 l -0.05545,0.315624 c 0.199047,0.028181 0.408847,0.015692 0.628924,-0.038059 0.221834,-0.053606 0.369931,-0.1325755 0.444175,-0.2361356 l -0.374971,2.2137792 -0.991844,-0.150204 -0.05572,0.317389 2.21626,0.339518 0.05207,-0.321832 -0.808803,-0.122484 0.435545,-2.6108939 z M 14.300645,8.293196 c 0.222595,0.030857 0.363161,0.1413705 0.421435,0.3318575 0.06014,0.1899402 0.04761,0.4837549 -0.03832,0.8827735 -0.08277,0.3843552 -0.195992,0.663336 -0.339674,0.83576 -0.143848,0.172622 -0.326508,0.242567 -0.547407,0.209066 -0.221739,-0.03363 -0.363653,-0.149189 -0.425414,-0.346117 -0.05987,-0.19744 -0.04583,-0.4923046 0.04149,-0.8831223 0.08933,-0.3998363 0.202388,-0.6787113 0.339437,-0.8384291 0.138272,-0.1593601 0.320935,-0.2233286 0.548455,-0.1917886 z m 5.206839,0.7218005 c 0.235725,0.032678 0.38811,0.1474809 0.456884,0.3447509 0.07073,0.1967296 0.06889,0.5007122 -0.0062,0.9133516 -0.07237,0.397532 -0.180928,0.685917 -0.325718,0.863893 -0.14496,0.178188 -0.334795,0.249927 -0.568915,0.214421 -0.234992,-0.03564 -0.388991,-0.155795 -0.46164,-0.359872 -0.07067,-0.204581 -0.06719,-0.509697 0.0098,-0.913805 0.07876,-0.4133733 0.187148,-0.7014802 0.325387,-0.866226 0.139536,-0.1643667 0.32951,-0.2299115 0.570433,-0.1965135 z m 5.518428,0.7649947 c 0.250052,0.034664 0.415442,0.1540808 0.495893,0.3586178 0.0825,0.204004 0.09269,0.518865 0.02985,0.946068 -0.06054,0.411624 -0.163649,0.710058 -0.309416,0.893954 -0.145946,0.184121 -0.343505,0.257746 -0.592067,0.220049 -0.24947,-0.03783 -0.416781,-0.16294 -0.501543,-0.374684 -0.08268,-0.212235 -0.09109,-0.528324 -0.02584,-0.946636 0.06674,-0.42784 0.169691,-0.725801 0.309018,-0.8958999 0.140708,-0.1696961 0.338553,-0.236894 0.594099,-0.2014689 z M 13.862966,9.1152235 13.749728,9.6277751 14.236567,9.699108 14.348575,9.1849389 Z m 5.215047,0.7486858 -0.09959,0.5299857 0.515792,0.07557 0.09819,-0.5317129 z m 5.528423,0.7936747 -0.08407,0.548622 0.547405,0.08021 0.08248,-0.55047 z m -8.341772,0.958609 c -0.364695,-0.0567 -0.656822,0.02476 -0.877396,0.244859 -0.220821,0.220344 -0.383608,0.580902 -0.488941,1.083447 -0.103234,0.492529 -0.09482,0.884719 0.02612,1.174973 0.121859,0.290256 0.35878,0.465969 0.711479,0.52691 0.354082,0.06118 0.648833,-0.02433 0.882818,-0.25729 0.235472,-0.23392 0.402033,-0.600403 0.499546,-1.096853 0.09922,-0.50515 0.0866,-0.89628 -0.03636,-1.175057 -0.120629,-0.278617 -0.35973,-0.445406 -0.717266,-0.500989 z m 2.680734,0.416754 c -0.375556,-0.05838 -0.673539,0.02403 -0.895863,0.247617 -0.222576,0.223837 -0.383355,0.590433 -0.482049,1.101759 -0.09673,0.50118 -0.08071,0.900473 0.04895,1.196239 0.130614,0.295794 0.377251,0.475208 0.74065,0.537998 0.364846,0.06304 0.665984,-0.02343 0.901906,-0.260182 0.237428,-0.237722 0.401542,-0.610565 0.492247,-1.115853 0.09229,-0.514095 0.0723,-0.912222 -0.0593,-1.196235 -0.129188,-0.283824 -0.378338,-0.454101 -0.746542,-0.511343 z M 11.1082,10.85954 c -0.102601,0.125879 -0.253672,0.219868 -0.45329,0.281755 -0.198086,0.06204 -0.396844,0.07725 -0.595649,0.04573 L 9.985143,11.49419 c 0.18024,0.0289 0.373322,0.01825 0.578859,-0.03253 0.207124,-0.05062 0.348597,-0.126486 0.424264,-0.226849 l -0.50724,2.153216 -0.8969739,-0.153105 -0.074426,0.308587 2.0033789,0.345648 0.07153,-0.312773 -0.731054,-0.124784 0.592331,-2.539496 z m 2.530086,0.39398 c -0.10296,0.127864 -0.256242,0.223198 -0.459927,0.285787 -0.202105,0.06275 -0.405354,0.07791 -0.609904,0.04549 l -0.07042,0.312333 c 0.18546,0.02974 0.38297,0.0192 0.592932,-0.03207 0.211599,-0.05111 0.35537,-0.128029 0.431166,-0.22999 l -0.480958,2.189963 -0.922872,-0.157525 -0.07074,0.313891 2.062027,0.355766 0.06764,-0.318218 -0.752642,-0.128468 0.561093,-2.582856 z m 8.047184,1.253094 c -0.103894,0.134206 -0.264216,0.233818 -0.481059,0.298602 -0.215114,0.06496 -0.434712,0.07967 -0.658076,0.04426 l -0.05778,0.328906 c 0.20255,0.03248 0.416225,0.02263 0.640543,-0.03018 0.226113,-0.05263 0.377245,-0.132886 0.45327,-0.239959 l -0.390924,2.307957 -1.009542,-0.172319 -0.0581,0.330925 2.256181,0.389264 0.05432,-0.335726 -0.823479,-0.14056 0.454092,-2.722081 z m 2.845729,0.443132 c -0.104148,0.136461 -0.266963,0.237585 -0.48854,0.303132 -0.219795,0.06573 -0.444717,0.08035 -0.674932,0.04385 l -0.05299,0.334819 c 0.208775,0.03348 0.42771,0.0238 0.657206,-0.02954 0.231348,-0.05315 0.385101,-0.134585 0.461141,-0.243477 l -0.356735,2.35009 -1.040536,-0.177609 -0.05329,0.337011 2.326396,0.401378 0.04925,-0.341986 -0.849324,-0.144971 0.413467,-2.771796 z m -8.33016,-1.020123 c 0.232815,0.03661 0.381142,0.156409 0.444704,0.35975 0.06551,0.202814 0.05662,0.514755 -0.02742,0.937259 -0.08096,0.407046 -0.19567,0.701535 -0.34329,0.882305 -0.147797,0.180985 -0.337496,0.25169 -0.568668,0.212178 -0.23203,-0.03966 -0.381408,-0.164926 -0.448641,-0.375328 -0.06526,-0.210889 -0.05479,-0.523549 0.03092,-0.937263 0.08767,-0.423189 0.201783,-0.71743 0.342594,-0.884687 0.142088,-0.166849 0.33185,-0.23163 0.569795,-0.194214 z m 2.684968,0.422205 c 0.239773,0.0377 0.39437,0.159924 0.463511,0.367023 0.07114,0.206578 0.06794,0.524114 -0.01034,0.954084 -0.07542,0.414271 -0.187205,0.713965 -0.3354,0.897734 -0.148373,0.183992 -0.341878,0.2556 -0.580062,0.21489 -0.239059,-0.04086 -0.395275,-0.168793 -0.468292,-0.383158 -0.07099,-0.214847 -0.06614,-0.53314 0.01407,-0.954136 0.08204,-0.430605 0.193659,-0.729882 0.335089,-0.899849 0.142745,-0.169547 0.336375,-0.235121 0.581422,-0.196588 z m -3.130702,0.443286 -0.11094,0.54217 0.509765,0.08438 0.109587,-0.543972 z m 2.689799,0.436893 -0.103675,0.551718 0.524693,0.08685 0.102232,-0.55358 z m -8.088364,0.875058 c -0.349692,-0.06117 -0.6349827,0.01777 -0.8568657,0.237305 -0.2221271,0.219775 -0.3939512,0.581562 -0.516096,1.087125 -0.1197037,0.495459 -0.1274479,0.890516 -0.022545,1.184442 0.1057872,0.293926 0.3271769,0.474061 0.6650738,0.539312 0.3392118,0.0655 0.6272449,-0.01795 0.8625509,-0.250231 0.236784,-0.233244 0.412385,-0.600433 0.52677,-1.099846 0.116395,-0.508193 0.120296,-0.903107 0.01302,-1.18553 -0.105036,-0.282246 -0.32909,-0.452614 -0.671906,-0.512577 z m 2.570069,0.449539 c -0.360011,-0.06297 -0.65094,0.01687 -0.874638,0.239862 -0.223948,0.223246 -0.394098,0.591088 -0.510248,1.105497 -0.113838,0.504173 -0.1146,0.9064 -0.0016,1.205927 0.113936,0.299551 0.344472,0.483496 0.692525,0.550708 0.349428,0.06748 0.643602,-0.01687 0.880914,-0.252922 0.238808,-0.237022 0.412332,-0.610581 0.520566,-1.118895 0.110126,-0.517205 0.107272,-0.919196 -0.0081,-1.206943 -0.113012,-0.287542 -0.346532,-0.461498 -0.699485,-0.523234 z m 8.184122,1.431512 c -0.393871,-0.06889 -0.70483,0.01344 -0.934027,0.24751 -0.229468,0.234345 -0.391691,0.621931 -0.487244,1.164787 -0.09368,0.532201 -0.07082,0.957532 0.06934,1.275147 0.141188,0.317724 0.402022,0.51403 0.783458,0.587688 0.383011,0.07396 0.697123,-0.01317 0.940533,-0.261295 0.244963,-0.249123 0.410942,-0.643164 0.498028,-1.180137 0.08858,-0.546209 0.06104,-0.971318 -0.08117,-1.276247 -0.139659,-0.304627 -0.4027,-0.489898 -0.788918,-0.557453 z m 2.897717,0.506849 c -0.406223,-0.07105 -0.723796,0.01225 -0.954841,0.250255 -0.23132,0.238294 -0.391023,0.63282 -0.478735,1.185848 -0.086,0.542229 -0.05427,0.975839 0.09597,1.299951 0.151313,0.324253 0.423303,0.52502 0.816938,0.601034 0.395286,0.07633 0.716598,-0.01177 0.962062,-0.264187 0.247035,-0.253434 0.410002,-0.6548 0.489029,-1.202034 0.08038,-0.556592 0.0442,-0.989873 -0.107999,-1.300971 -0.149554,-0.310759 -0.424071,-0.500218 -0.822428,-0.569896 z m -8.457536,-1.43092 c -0.10575,0.134151 -0.264515,0.232814 -0.476374,0.295755 -0.210202,0.06314 -0.422668,0.07557 -0.636711,0.03744 l -0.06925,0.330916 c 0.194081,0.03494 0.400721,0.0269 0.619299,-0.02389 0.220298,-0.05059 0.369306,-0.129397 0.447053,-0.236497 l -0.471982,2.321866 -0.966782,-0.184564 -0.06962,0.332869 2.160281,0.416591 0.06621,-0.337702 -0.788495,-0.150528 0.550003,-2.738555 z m 2.72675,0.477676 c -0.106084,0.136401 -0.267292,0.236548 -0.483709,0.3002 -0.214707,0.06385 -0.432253,0.07614 -0.652802,0.03686 l -0.06491,0.336874 c 0.19999,0.03601 0.41164,0.02818 0.635189,-0.02308 0.225322,-0.05105 0.37689,-0.131001 0.454726,-0.239917 l -0.441031,2.3643 -0.996178,-0.190176 -0.06528,0.338995 2.226871,0.429433 0.06162,-0.344003 -0.813006,-0.155208 0.513212,-2.788629 z m -7.995325,-1.119304 c 0.223211,0.03946 0.361475,0.161878 0.414517,0.367599 0.05495,0.205205 0.03362,0.519616 -0.06473,0.944662 -0.09475,0.409476 -0.217475,0.705103 -0.367314,0.88573 -0.150017,0.180841 -0.3359711,0.250057 -0.557455,0.207722 -0.2223122,-0.04249 -0.3613718,-0.170396 -0.4176836,-0.383233 -0.054389,-0.213314 -0.031542,-0.528416 0.068043,-0.944596 0.1018704,-0.42573 0.2241106,-0.721598 0.3668428,-0.888707 0.1439493,-0.166688 0.3296508,-0.229509 0.5577848,-0.189177 z m 2.573897,0.455032 c 0.229821,0.04063 0.373987,0.165534 0.43221,0.375071 0.06017,0.209026 0.04406,0.529087 -0.04909,0.961655 -0.08975,0.416753 -0.209881,0.717611 -0.36039,0.901228 -0.150689,0.183838 -0.340319,0.253916 -0.56846,0.210308 -0.228985,-0.04377 -0.374479,-0.174407 -0.436163,-0.391266 -0.05971,-0.21733 -0.04201,-0.53812 0.05261,-0.961634 0.09679,-0.433201 0.21684,-0.734135 0.360273,-0.903946 0.144688,-0.169377 0.334125,-0.23294 0.569007,-0.191416 z m 8.197261,1.449171 c 0.251519,0.04447 0.415221,0.177422 0.490807,0.399266 0.07768,0.221353 0.07927,0.559613 0.004,1.016386 -0.07254,0.440176 -0.1854,0.757526 -0.337737,0.95073 -0.152528,0.193447 -0.354047,0.266238 -0.604061,0.218449 -0.250907,-0.04796 -0.415934,-0.18713 -0.495624,-0.416976 -0.07757,-0.230291 -0.07731,-0.569404 2.49e-4,-1.016514 0.07931,-0.457229 0.191639,-0.774434 0.337035,-0.952899 0.146776,-0.177988 0.348307,-0.24388 0.605332,-0.198442 z m 2.902716,0.513164 c 0.259436,0.04586 0.430331,0.18172 0.512378,0.40798 0.08419,0.225775 0.09244,0.570553 0.02399,1.035989 -0.06598,0.448562 -0.175356,0.771928 -0.328229,0.968552 -0.153067,0.196875 -0.358866,0.270615 -0.616874,0.221298 -0.258919,-0.04949 -0.431771,-0.191857 -0.518164,-0.426366 -0.08422,-0.234944 -0.09053,-0.580622 -0.01947,-1.036174 0.07266,-0.465823 0.18197,-0.788841 0.327964,-0.970387 0.147417,-0.181056 0.353301,-0.24776 0.618407,-0.200892 z m -14.1393971,-1.549566 -0.129185,0.545416 0.4885401,0.09062 0.127963,-0.547231 z m 2.5779271,0.469761 -0.122624,0.555033 0.502712,0.09324 0.121319,-0.556909 z m 8.210385,1.496133 -0.100079,0.585967 0.550584,0.102124 0.09848,-0.588052 z m 2.908717,0.530039 -0.09149,0.597038 0.568071,0.105368 0.08978,-0.599201 z m -11.351491,0.254752 c -0.365899,-0.07148 -0.662283,0.0074 -0.891063,0.237031 -0.229041,0.229872 -0.404175,0.611777 -0.52521,1.147828 -0.118643,0.525451 -0.121683,0.946131 -0.0084,1.261241 0.114249,0.315184 0.347806,0.51131 0.701623,0.587196 0.355243,0.07619 0.655101,-0.0074 0.89791,-0.25056 0.244331,-0.244184 0.422937,-0.632245 0.535793,-1.162274 0.114816,-0.53923 0.114038,-0.959687 -0.0018,-1.262404 -0.113463,-0.302435 -0.35013,-0.487978 -0.708885,-0.558058 z m 2.691217,0.525712 c -0.377093,-0.07366 -0.680429,0.006 -0.911123,0.239345 -0.230964,0.233666 -0.403342,0.622455 -0.517769,1.168384 -0.112174,0.535184 -0.107557,0.963918 0.01461,1.285373 0.123151,0.321558 0.366669,0.522073 0.73152,0.600325 0.366344,0.07857 0.672845,-0.0059 0.917776,-0.253178 0.246472,-0.248321 0.422735,-0.643464 0.528799,-1.183449 0.107895,-0.549306 0.09882,-0.977883 -0.0258,-1.28663 -0.122175,-0.308431 -0.368266,-0.497941 -0.738019,-0.57017 z m 5.635057,1.100773 c -0.401077,-0.07835 -0.71829,0.0029 -0.952843,0.244246 -0.234836,0.24164 -0.401837,0.644766 -0.501602,1.211547 -0.09782,0.555735 -0.07641,1.001499 0.06503,1.336392 0.142508,0.335062 0.407525,0.544907 0.796047,0.628236 0.390162,0.08368 0.710785,-0.0025 0.960001,-0.258538 0.250795,-0.257027 0.421646,-0.66712 0.512632,-1.228141 0.09254,-0.570591 0.06619,-1.016159 -0.07752,-1.337675 -0.1411,-0.321123 -0.408424,-0.519234 -0.801745,-0.596067 z m 2.951871,0.57663 c -0.413935,-0.08086 -0.738051,0.0013 -0.974546,0.246843 -0.236783,0.245833 -0.401177,0.656428 -0.492817,1.234224 -0.08986,0.566593 -0.05925,1.021365 0.09268,1.363381 0.153033,0.342222 0.429661,0.55703 0.830891,0.643085 0.402951,0.08642 0.731086,-6.98e-4 0.98246,-0.261281 0.252973,-0.261611 0.420712,-0.679599 0.503337,-1.251743 0.08403,-0.581843 0.0487,-1.036303 -0.105401,-1.364585 -0.151386,-0.327847 -0.430642,-0.530622 -0.8366,-0.609924 z M 9.5274275,17.575334 c -0.1075205,0.134078 -0.2647569,0.231811 -0.4717779,0.292963 -0.205431,0.06137 -0.4109843,0.07161 -0.6160062,0.03087 l -0.080304,0.332803 c 0.1858826,0.03731 0.3856338,0.03143 0.5986421,-0.0174 0.2146577,-0.04861 0.3616669,-0.126437 0.44106,-0.233547 l -0.5500382,2.334889 -0.9254096,-0.196335 -0.080721,0.334686 2.0675096,0.442854 0.07765,-0.339548 L 9.2333784,20.397461 9.875737,17.64348 Z m 8.0770905,1.580087 c -0.108677,0.141036 -0.27333,0.24327 -0.494039,0.306444 -0.218963,0.06341 -0.440568,0.07283 -0.664975,0.02823 l -0.06772,0.351442 c 0.203494,0.04085 0.41908,0.03601 0.646998,-0.01408 0.229728,-0.04985 0.384476,-0.131104 0.46426,-0.243839 l -0.460318,2.467697 -1.013879,-0.215105 -0.06814,0.353858 2.26683,0.485547 0.06436,-0.359276 -0.827712,-0.175607 0.535679,-2.910712 z m -5.5153,-0.780185 c 0.233601,0.04609 0.379709,0.178503 0.437828,0.39852 0.06011,0.219529 0.04191,0.554453 -0.05521,1.005405 -0.09357,0.434511 -0.217452,0.747336 -0.371619,0.937035 -0.154356,0.189933 -0.347723,0.260225 -0.579652,0.210961 -0.232776,-0.04945 -0.3801,-0.188431 -0.441659,-0.416267 -0.05955,-0.22828 -0.03975,-0.563524 0.05888,-1.004946 0.100867,-0.451472 0.224664,-0.764236 0.371515,-0.939526 0.14812,-0.17481 0.341185,-0.238287 0.579917,-0.191182 z m 2.695438,0.531846 c 0.240774,0.04751 0.393298,0.182766 0.457084,0.407095 0.06582,0.223848 0.05336,0.56512 -0.03801,1.02448 -0.08804,0.442647 -0.209931,0.761119 -0.364782,0.954109 -0.155043,0.193232 -0.352379,0.264405 -0.591538,0.213605 -0.24002,-0.05098 -0.393477,-0.192932 -0.46091,-0.425316 -0.06537,-0.23282 -0.05122,-0.574446 0.04193,-1.024063 0.09526,-0.459816 0.216622,-0.778213 0.364194,-0.956471 0.148882,-0.177763 0.345981,-0.241989 0.592033,-0.193439 z M 20.42907,20.0208 c 0.256147,0.05054 0.422517,0.191845 0.498637,0.425296 0.07826,0.232987 0.0784,0.587678 -2.23e-4,1.064797 -0.07578,0.459837 -0.192162,0.790419 -0.348278,0.990342 -0.156316,0.20018 -0.36207,0.273179 -0.61674,0.219084 -0.255565,-0.05429 -0.423179,-0.202719 -0.503404,-0.444735 -0.07806,-0.242431 -0.07631,-0.597547 0.0047,-1.064467 0.08282,-0.477434 0.19866,-0.80771 0.347596,-0.992214 0.150334,-0.183977 0.355986,-0.249747 0.617726,-0.198103 z m 2.957052,0.583467 c 0.264391,0.05217 0.438237,0.196682 0.521071,0.434963 0.08503,0.237827 0.0921,0.599613 0.02054,1.086119 -0.06897,0.468925 -0.18176,0.806005 -0.338449,1.009583 -0.156892,0.203843 -0.367112,0.277788 -0.63011,0.221924 -0.263911,-0.05606 -0.439657,-0.208041 -0.526849,-0.455162 -0.08496,-0.247522 -0.09004,-0.609774 -0.01578,-1.085839 0.07592,-0.486741 0.188647,-0.823286 0.338218,-1.011077 0.151016,-0.187247 0.361206,-0.253816 0.631357,-0.200511 z m -11.771238,-1.313497 -0.127814,0.578527 0.511015,0.105502 0.126468,-0.580551 z m 2.699133,0.548004 -0.120577,0.589269 0.527276,0.10886 0.119136,-0.591369 z m 5.654145,1.147958 -0.104519,0.61196 0.560774,0.115775 0.102864,-0.614217 z m 2.963225,0.601623 -0.09562,0.623951 0.578986,0.119535 0.09384,-0.626295 z M 8.7118334,21.09763 C 8.3509703,21.01938 8.0550322,21.09633 7.8229338,21.329068 7.5905694,21.56204 7.408434,21.951922 7.2758436,22.50072 c -0.1299727,0.537963 -0.1429275,0.969904 -0.038103,1.295 0.1057608,0.325196 0.3325623,0.529728 0.6813795,0.61239 0.3502325,0.083 0.6493523,0.0012 0.8957042,-0.245319 C 9.0627046,23.915286 9.24884,23.519152 9.373159,22.976362 9.4996315,22.42417 9.5083386,21.992325 9.4006902,21.679953 9.2953815,21.367911 9.0656592,21.174351 8.7118334,21.09763 Z m 8.2135896,1.780954 c -0.395772,-0.08582 -0.711665,-0.0065 -0.949797,0.238251 -0.238421,0.245052 -0.413812,0.656773 -0.525921,1.237604 -0.109928,0.56953 -0.0991,1.027715 0.03331,1.373631 0.133468,0.346117 0.391316,0.565247 0.774565,0.656069 0.384877,0.09121 0.704767,0.0069 0.957809,-0.252727 0.254629,-0.26069 0.43355,-0.679695 0.536789,-1.254803 0.104995,-0.584896 0.08968,-1.042832 -0.04533,-1.375001 -0.132427,-0.331721 -0.393299,-0.538866 -0.781427,-0.623024 z M 11.34167,21.720159 c -0.110597,0.14092 -0.273608,0.242155 -0.489097,0.303447 -0.213819,0.06155 -0.427985,0.06868 -0.642652,0.02137 l -0.07966,0.353312 c 0.194643,0.04331 0.402813,0.04073 0.62472,-0.0073 0.223645,-0.04778 0.376239,-0.12798 0.457806,-0.240694 l -0.544782,2.480573 -0.9691859,-0.227309 -0.08015,0.35565 2.1665459,0.512782 0.07676,-0.361095 -0.791116,-0.185545 0.635629,-2.925967 z m 2.737063,0.594289 c -0.111012,0.143392 -0.276601,0.246191 -0.496835,0.308128 -0.218509,0.06221 -0.438809,0.06882 -0.660181,0.02004 l -0.07534,0.360018 c 0.200734,0.04466 0.414964,0.04267 0.642038,-0.0057 0.228867,-0.04813 0.384147,-0.129518 0.465863,-0.244234 l -0.513966,2.528398 -1.000385,-0.234626 -0.07583,0.362553 2.236127,0.52925 0.07219,-0.368205 -0.816411,-0.191478 0.598979,-2.982413 z m 5.736836,1.245621 c -0.111751,0.148602 -0.282748,0.254675 -0.513065,0.317936 -0.228477,0.06355 -0.460983,0.06924 -0.69674,0.01728 l -0.06574,0.374198 c 0.213806,0.04757 0.440088,0.04667 0.678161,-0.0025 0.23999,-0.04885 0.400935,-0.132697 0.482845,-0.251634 l -0.445401,2.62958 -1.066486,-0.250129 -0.06621,0.377163 2.384735,0.564422 0.06201,-0.383265 -0.870777,-0.204229 0.517443,-3.101838 z m 3.008315,0.653186 c -0.112069,0.151349 -0.285903,0.259139 -0.521584,0.323077 -0.233777,0.06423 -0.472329,0.06952 -0.715812,0.01586 l -0.06041,0.381699 c 0.220826,0.04913 0.453075,0.04872 0.697009,-7.78e-4 0.245916,-0.0492 0.409848,-0.134339 0.4918,-0.255503 l -0.407292,2.683149 -1.101532,-0.258349 -0.06086,0.384901 2.464164,0.583222 0.05635,-0.391247 -0.900017,-0.211087 0.47213,-3.165068 z M 8.6313982,21.439466 c 0.2303818,0.05043 0.3719274,0.188794 0.4243348,0.415477 0.05439,0.226214 0.028465,0.569882 -0.07839,1.031653 -0.1029626,0.444949 -0.2335167,0.764445 -0.3907621,0.957197 -0.1574379,0.192989 -0.3507131,0.262593 -0.5793778,0.208903 -0.229495,-0.05389 -0.3717807,-0.198485 -0.4273982,-0.433274 -0.053615,-0.235213 -0.026076,-0.579201 0.08207,-1.031156 0.1106044,-0.462231 0.240651,-0.781722 0.3902932,-0.959749 0.1508886,-0.177516 0.3437935,-0.240588 0.5792301,-0.189051 z m 8.2266588,1.800817 c 0.252755,0.05533 0.414313,0.203177 0.484351,0.44398 0.07217,0.240361 0.06407,0.604696 -0.02496,1.093753 -0.08581,0.471357 -0.208426,0.809508 -0.367856,1.012799 -0.159633,0.203552 -0.365326,0.275787 -0.616555,0.216798 -0.252109,-0.05919 -0.415284,-0.214036 -0.489179,-0.463728 -0.07173,-0.250083 -0.06173,-0.614846 0.02945,-1.093381 0.09322,-0.489295 0.21575,-0.826984 0.36769,-1.014501 0.15331,-0.186956 0.3588,-0.252255 0.617069,-0.19572 z m -8.7187789,-0.8667 -0.1403014,0.592349 0.5042953,0.115245 0.1390075,-0.594459 z m 8.2397499,1.853285 -0.117861,0.627206 0.553255,0.126435 0.116263,-0.629562 z"
         style="fill:#8a6f5e;fill-opacity:0.5" />
    </g>
    <path
       style="fill:none;stroke:#4d3e2e;stroke-width:0.238125;stroke-linecap:butt;stroke-linejoin:miter;stroke-miterlimit:4;stroke-dasharray:none;stroke-opacity:1"
       d="M 9.8065869,2.4453923 30.006987,4.6118375 26.49039,32.035407 3.5901115,26.275215 Z"
       id="path1553"
       sodipodi:nodetypes="ccccc" />
    <g
       id="text1"
       style="font-weight:bold;font-size:7.39186px;line-height:0.83;font-family:'Liberation Mono';-inkscape-font-specification:'Liberation Mono Bold';letter-spacing:0.659987px;stroke-width:0.263994"
       transform="scale(1.005984,0.99405155)"
       aria-label="0101&#10;1010&#10;1100&#10;0011" />
    <path
       id="path7934"
       style="color:#000000;font-style:normal;font-variant:normal;font-weight:normal;font-stretch:normal;font-size:medium;line-height:normal;font-family:sans-serif;font-variant-ligatures:normal;font-variant-position:normal;font-variant-caps:normal;font-variant-numeric:normal;font-variant-alternates:normal;font-feature-settings:normal;text-indent:0;text-align:start;text-decoration:none;text-decoration-line:none;text-decoration-style:solid;text-decoration-color:#000000;letter-spacing:normal;word-spacing:normal;text-transform:none;writing-mode:lr-tb;direction:ltr;text-orientation:mixed;dominant-baseline:auto;baseline-shift:baseline;text-anchor:start;white-space:normal;shape-padding:0;clip-rule:nonzero;display:inline;overflow:visible;visibility:visible;isolation:auto;mix-blend-mode:normal;color-interpolation:sRGB;color-interpolation-filters:linearRGB;solid-color:#000000;solid-opacity:1;vector-effect:none;fill:#000000;fill-opacity:0.196078;fill-rule:nonzero;stroke:none;stroke-width:1.00542;stroke-linecap:square;stroke-linejoin:miter;stroke-miterlimit:4;stroke-dasharray:none;stroke-dashoffset:0;stroke-opacity:1;paint-order:markers stroke fill;color-rendering:auto;image-rendering:auto;shape-rendering:auto;text-rendering:auto;enable-background:accumulate"
       inkscape:transform-center-x="-9.294258"
       inkscape:transform-center-y="-6.036327"
       d="M 8.7436524 6.5184652 L 4.7836874 21.698934 L 20.093864 24.952999 L 22.371761 14.235824 L 21.348051 14.017749 L 21.465873 13.463778 L 22.489584 13.681852 L 23.352063 9.6237021 L 8.7436524 6.5184652 z M 13.967623 15.189771 C 14.030409 15.190659 14.09265 15.197474 14.153658 15.210441 C 14.397694 15.262341 14.620777 15.409659 14.769641 15.638839 C 15.067355 16.097288 14.940237 16.695568 14.481804 16.993278 C 14.023378 17.290978 13.424563 17.16389 13.126847 16.70544 C 12.829141 16.247011 12.956777 15.648711 13.415202 15.351001 C 13.587112 15.239364 13.779265 15.187105 13.967623 15.189771 z " />
    <path
       style="fill:none;fill-opacity:1;stroke:#000000;stroke-width:0.47625;stroke-linecap:square;stroke-miterlimit:4;stroke-dasharray:none;stroke-opacity:1;paint-order:markers stroke fill"
       d="m 4.762503,7.0266947 -3e-6,14.6677403 14.667754,1e-5 -1e-6,-9.95312 h -1.047696 v -1.57155 h 1.047696 V 7.0266847 Z m 6.286178,6.8100203 c 0.578624,-0.57862 1.516765,-0.57862 2.095395,0 0.578626,0.57864 0.578625,1.51677 10e-7,2.0954 -0.578623,0.57862 -1.51676,0.57862 -2.095394,-10e-6 -0.578621,-0.57863 -0.578626,-1.51677 -2e-6,-2.09539 z"
       id="path9794"
       inkscape:connector-curvature="0"
       sodipodi:nodetypes="cccccccccscscs" />
    <path
       sodipodi:nodetypes="cccccccccscscs"
       inkscape:connector-curvature="0"
       id="path9708"
       d="m 4.762503,7.0266947 -3e-6,14.6677403 14.667754,1e-5 -1e-6,-9.95312 h -1.047696 v -1.57155 h 1.047696 V 7.0266847 Z m 6.286178,6.8100203 c 0.578624,-0.57862 1.516765,-0.57862 2.095395,0 0.578626,0.57864 0.578625,1.51677 10e-7,2.0954 -0.578623,0.57862 -1.51676,0.57862 -2.095394,-10e-6 -0.578621,-0.57863 -0.578626,-1.51677 -2e-6,-2.09539 z"
       style="fill:url(#linearGradient9802-2);fill-opacity:1;stroke:none;stroke-width:0.518583;stroke-linecap:square;stroke-opacity:1;paint-order:markers stroke fill" />
    <path
       inkscape:connector-curvature="0"
       id="path9822"
       d="m 11.572527,20.646745 7e-6,-2.61924"
       style="fill:#d16f6f;fill-opacity:0.379592;stroke:#a0a0a0;stroke-width:0.518584;stroke-linecap:butt;stroke-miterlimit:4;stroke-dasharray:none;stroke-opacity:1;paint-order:markers stroke fill" />
    <path
       sodipodi:nodetypes="ccccc"
       inkscape:connector-curvature="0"
       id="path9710"
       d="m 13.144072,8.0743847 -7.333881,-10e-6 4e-6,2.6192503 h 7.33388 z"
       style="fill:#ffffff;fill-opacity:1;stroke-width:0.518584;stroke-linecap:square;stroke-opacity:0.196078;paint-order:markers stroke fill" />
    <path
       sodipodi:nodetypes="ccccc"
       inkscape:connector-curvature="0"
       id="path9714"
       d="m 11.572527,20.646745 1.04769,-10e-6 7e-6,-2.61924 -1.04769,1e-5 z"
       style="fill:#3a3a3a;fill-opacity:1;stroke-width:0.518584;stroke-linecap:square;stroke-opacity:0.196078;paint-order:markers stroke fill" />
  </g>
</svg>
