<?xml version="1.0" encoding="UTF-8" standalone="no"?>
<svg
   width="128"
   height="128"
   viewBox="0 0 33.866666 33.866668"
   version="1.1"
   id="svg958"
   inkscape:version="1.3 (0e150ed6c4, 2023-07-21)"
   sodipodi:docname="font-woff.svg"
   xmlns:inkscape="http://www.inkscape.org/namespaces/inkscape"
   xmlns:sodipodi="http://sodipodi.sourceforge.net/DTD/sodipodi-0.dtd"
   xmlns:xlink="http://www.w3.org/1999/xlink"
   xmlns="http://www.w3.org/2000/svg"
   xmlns:svg="http://www.w3.org/2000/svg"
   xmlns:rdf="http://www.w3.org/1999/02/22-rdf-syntax-ns#"
   xmlns:cc="http://creativecommons.org/ns#"
   xmlns:dc="http://purl.org/dc/elements/1.1/">
  <defs
     id="defs952">
    <linearGradient
       id="linearGradient1617"
       inkscape:collect="always">
      <stop
         id="stop1613"
         offset="0"
         style="stop-color:#ffffe8;stop-opacity:1" />
      <stop
         id="stop1615"
         offset="1"
         style="stop-color:#ffe896;stop-opacity:1" />
    </linearGradient>
    <linearGradient
       gradientTransform="matrix(0.9789725,0,0,0.9789725,0.48107585,0.37449131)"
       gradientUnits="userSpaceOnUse"
       y2="30.691668"
       x2="25.4"
       y1="3.175"
       x1="10.583333"
       id="linearGradient1619"
       xlink:href="#linearGradient1617"
       inkscape:collect="always" />
    <inkscape:path-effect
       effect="perspective-envelope"
       up_left_point="-30.691667,2.1166667"
       up_right_point="-5.2916667,2.1166667"
       down_left_point="-30.691667,31.749999"
       down_right_point="-5.2916667,31.749999"
       id="path-effect16-5"
       is_visible="true"
       lpeversion="1"
       deform_type="perspective"
       horizontal_mirror="false"
       vertical_mirror="false"
       overflow_perspective="false" />
    <linearGradient
       inkscape:collect="always"
       xlink:href="#linearGradient7298-0"
       id="linearGradient172125"
       x1="26.355532"
       y1="234.49159"
       x2="26.355532"
       y2="251.0359"
       gradientUnits="userSpaceOnUse" />
    <linearGradient
       inkscape:collect="always"
       id="linearGradient7298-0">
      <stop
         style="stop-color:#ff2d2f;stop-opacity:1"
         offset="0"
         id="stop7294" />
      <stop
         style="stop-color:#640002;stop-opacity:1"
         offset="1"
         id="stop7296" />
    </linearGradient>
  </defs>
  <sodipodi:namedview
     inkscape:bbox-nodes="true"
     inkscape:snap-bbox-edge-midpoints="false"
     inkscape:bbox-paths="false"
     inkscape:snap-bbox="true"
     inkscape:snap-grids="false"
     units="px"
     showgrid="false"
     inkscape:document-rotation="0"
     inkscape:current-layer="layer1"
     inkscape:document-units="px"
     inkscape:cy="55.981283"
     inkscape:cx="58.236454"
     inkscape:zoom="3.7691169"
     inkscape:pageshadow="2"
     inkscape:pageopacity="0.0"
     borderopacity="1.0"
     bordercolor="#666666"
     pagecolor="#ffffff"
     id="base"
     inkscape:pagecheckerboard="0"
     showguides="false"
     inkscape:guide-bbox="true"
     guidetolerance="10000"
     inkscape:snap-tangential="true"
     inkscape:snap-perpendicular="true"
     inkscape:window-width="1920"
     inkscape:window-height="1119"
     inkscape:window-x="0"
     inkscape:window-y="0"
     inkscape:window-maximized="1"
     inkscape:snap-to-guides="false"
     inkscape:snap-intersection-paths="false"
     inkscape:snap-bbox-midpoints="false"
     inkscape:snap-nodes="true"
     inkscape:object-paths="false"
     inkscape:showpageshadow="2"
     inkscape:deskcolor="#d1d1d1">
    <inkscape:grid
       id="grid1521"
       type="xygrid"
       empcolor="#ff2624"
       empopacity="0.2"
       originx="0"
       originy="0"
       spacingy="0.26458334"
       spacingx="0.26458334"
       units="px"
       visible="false"
       empspacing="4" />
    <sodipodi:guide
       position="6.5361112,12.172222"
       orientation="0,-1"
       id="guide846"
       inkscape:locked="false" />
    <sodipodi:guide
       position="4.7625,13.798641"
       orientation="1,0"
       id="guide848"
       inkscape:locked="false" />
    <sodipodi:guide
       position="4.7625,29.104928"
       orientation="0,-1"
       id="guide1"
       inkscape:locked="false" />
    <sodipodi:guide
       position="21.695835,30.95625"
       orientation="1,0"
       id="guide2"
       inkscape:locked="false" />
  </sodipodi:namedview>
  <metadata
     id="metadata955">
    <rdf:RDF>
      <cc:Work
         rdf:about="">
        <dc:format>image/svg+xml</dc:format>
        <dc:type
           rdf:resource="http://purl.org/dc/dcmitype/StillImage" />
      </cc:Work>
    </rdf:RDF>
  </metadata>
  <g
     id="layer1"
     inkscape:groupmode="layer"
     inkscape:label="Layer 1">
    <path
       style="fill:#000000;fill-opacity:0.196078;stroke:none;stroke-width:0.725255;stroke-miterlimit:4;stroke-dasharray:none;stroke-opacity:1;paint-order:markers stroke fill"
       d="M 26.49039,32.035407 32.706865,22.710694 26.49039,20.638537 Z"
       id="path1768"
       inkscape:connector-curvature="0"
       sodipodi:nodetypes="cccc" />
    <path
       sodipodi:nodetypes="ccccc"
       id="path1611"
       d="M 9.8057889,2.4466498 30.006189,4.613095 26.489592,32.036664 3.5893135,26.276471 Z"
       style="fill:url(#linearGradient1619);fill-opacity:1;stroke:none;stroke-width:0.440334;stroke-linecap:butt;stroke-linejoin:miter;stroke-miterlimit:4;stroke-dasharray:none;stroke-opacity:1" />
    <path
       style="fill:none;stroke:#4d3e2e;stroke-width:0.238125;stroke-linecap:butt;stroke-linejoin:miter;stroke-miterlimit:4;stroke-dasharray:none;stroke-opacity:1"
       d="M 9.8065869,2.4453923 30.006987,4.6118375 26.49039,32.035407 3.5901115,26.275215 Z"
       id="path1553"
       sodipodi:nodetypes="ccccc" />
    <path
       d="m 15.074934,5.1306835 c 0.40453,0.0488 0.676131,0.2718 0.815992,0.66999 0.141655,0.39491 0.139924,0.93863 -0.0058,1.63016 -0.145763,0.69154 -0.369248,1.20776 -0.671043,1.54768 -0.301707,0.33437 -0.659426,0.47063 -1.073115,0.40962 -0.409469,-0.0604 -0.687693,-0.2888 -0.833613,-0.68439 -0.139864,-0.39819 -0.131992,-0.93655 0.02298,-1.61583 0.15497,-0.67927 0.383634,-1.18576 0.685295,-1.5202 0.305923,-0.33943 0.65894,-0.48535 1.059343,-0.43703 z m 5.901101,0.71207 c 0.40453,0.0488 0.682396,0.27957 0.83384,0.69319 0.153099,0.41015 0.167849,0.97582 0.0436,1.69601 -0.124251,0.72019 -0.331188,1.25845 -0.621399,1.6138 -0.290262,0.3496205 -0.642744,0.4934205 -1.056433,0.4324105 -0.409469,-0.0604 -0.692927,-0.2963505 -0.850292,-0.7071805 -0.15145,-0.41362 -0.160127,-0.97402 -0.02667,-1.68195 0.133459,-0.70793 0.345642,-1.23637 0.63586,-1.58605 0.29434,-0.35485 0.641091,-0.50855 1.041494,-0.46023 z m 5.901577,0.71213 c 0.40453,0.0488 0.688184,0.28728 0.851213,0.71633 0.164544,0.4254 0.195773,1.01301 0.09304,1.76186 -0.102738,0.74884 -0.293127,1.3091405 -0.571754,1.6799205 -0.278816,0.36486 -0.625579,0.51629 -1.039268,0.45527 -0.409468,-0.0604 -0.698648,-0.30396 -0.867458,-0.73005 -0.163033,-0.42904 -0.188259,-1.0114805 -0.07631,-1.7480605 0.111947,-0.73658 0.307649,-1.28698 0.586422,-1.6519 0.282758,-0.37028 0.623718,-0.53169 1.02412,-0.48337 z m -14.694916,-1.67993 0.359229,0.0436 -0.842036,3.55361 0.739057,0.1065 -0.105522,0.4552 -2.107928,-0.30978 0.110578,-0.44846 0.846088,0.12193 0.673398,-2.79904 c -0.05597,0.0372 -0.122874,0.0754 -0.200667,0.1142 -0.07264,0.035 -0.153413,0.0686 -0.242711,0.10141 -0.0852,0.0333 -0.17391,0.0641 -0.266422,0.0919 -0.09256,0.0278 -0.181807,0.0496 -0.267122,0.0651 l -0.06366,-0.41824 c 0.232627,-0.0587 0.464272,-0.13989 0.694502,-0.24356 0.230989,-0.10833 0.455251,-0.2528 0.673217,-0.43432 z m 5.90448,0.716 0.359229,0.0436 -0.728486,3.70486 0.738573,0.10643 -0.09105,0.47447 -2.107444,-0.30971 0.09611,-0.46773 0.846088,0.12193 0.58363,-2.9186 c -0.05459,0.039 -0.120043,0.0791 -0.19632,0.11999 -0.07126,0.0368 -0.150665,0.0723 -0.238585,0.1069 -0.08382,0.0351 -0.171692,0.0677 -0.262964,0.0971 -0.09132,0.0294 -0.179049,0.0527 -0.263536,0.0693 l -0.0765,-0.43534 c 0.229871,-0.0623 0.458064,-0.14816 0.684157,-0.25733 0.226714,-0.11403 0.445614,-0.26564 0.657098,-0.45579 z m 5.90448,0.716 0.359231,0.0436 -0.614935,3.8561005 0.73857,0.10643 -0.07658,0.49374 -2.107442,-0.3097 0.08164,-0.48701 0.84609,0.12193 0.493862,-3.0381705 c -0.05321,0.0409 -0.117215,0.0829 -0.191972,0.12578 -0.06988,0.0387 -0.147921,0.076 -0.234464,0.1124 -0.08244,0.037 -0.168996,0.0712 -0.259028,0.10234 -0.09008,0.0311 -0.176769,0.0557 -0.260427,0.0734 l -0.08933,-0.45243 c 0.227115,-0.066 0.451857,-0.15643 0.673813,-0.27112 0.222442,-0.11971 0.435977,-0.27847 0.640979,-0.47725 z m -9.022305,-0.69499 c -0.140707,-0.0174 -0.268684,0.0114 -0.383341,0.0873 -0.11473,0.0757 -0.217566,0.18434 -0.30884,0.3258 -0.09137,0.14133 -0.172213,0.31092 -0.242248,0.50881 -0.06911,0.19343 -0.128648,0.40181 -0.178692,0.62471 -0.05004,0.22289 -0.08523,0.43677 -0.105222,0.6413 -0.01896,0.20024 -0.01546,0.3784 0.01006,0.53543 0.02561,0.15714 0.07689,0.28644 0.15418,0.38794 0.07739,0.10159 0.188093,0.16301 0.331259,0.1837 0.143165,0.0207 0.272736,-0.006 0.388661,-0.0802 0.115843,-0.0742 0.219174,-0.1822 0.31033,-0.32381 0.09107,-0.14175 0.1705,-0.30974 0.238291,-0.50494 0.06869,-0.19968 0.127082,-0.41239 0.175354,-0.63764 0.04827,-0.22525 0.08137,-0.43912 0.09901,-0.6411 0.01864,-0.20634 0.01492,-0.38827 -0.0109,-0.5457 -0.02573,-0.1573 -0.07651,-0.28594 -0.152695,-0.38597 -0.0761,-0.0999 -0.184487,-0.15813 -0.325193,-0.17554 z m 5.916204,0.73219 c -0.140708,-0.0174 -0.266841,0.0133 -0.37874,0.0928 -0.111973,0.0794 -0.211084,0.19298 -0.29767,0.34067 -0.08668,0.14759 -0.162008,0.32452 -0.225701,0.53086 -0.06289,0.2017 -0.115816,0.4189 -0.158827,0.65117 -0.04301,0.23226 -0.07151,0.45505 -0.08515,0.66803 -0.01275,0.2085 -0.0038,0.3939 0.02638,0.55717 0.0303,0.16339 0.0853,0.29765 0.165349,0.40282 0.08015,0.10527 0.191749,0.16845 0.334916,0.18914 0.143166,0.0207 0.271836,-0.008 0.385004,-0.0857 0.113086,-0.0779 0.212693,-0.19083 0.299161,-0.33869 0.08638,-0.14799 0.16038,-0.32322 0.221966,-0.52668 0.06234,-0.20813 0.114044,-0.42975 0.155284,-0.66437 0.04124,-0.23462 0.06771,-0.45731 0.07914,-0.66756 0.01231,-0.21479 0.0031,-0.40406 -0.02745,-0.56774 -0.03042,-0.16355 -0.08492,-0.29715 -0.163865,-0.40084 -0.07886,-0.10355 -0.189087,-0.16369 -0.329794,-0.1811 z m 5.91668,0.73224 c -0.140705,-0.0174 -0.265475,0.0151 -0.374611,0.0983 -0.109219,0.0831 -0.204607,0.20161 -0.286505,0.35555 -0.08199,0.15383 -0.151802,0.33811 -0.209152,0.5529 -0.0567,0.20996 -0.102985,0.436 -0.138964,0.67762 -0.03598,0.24163 -0.05778,0.47334 -0.06508,0.69477 -0.0065,0.21677 0.0078,0.4094 0.04271,0.5789205 0.03499,0.16963 0.09371,0.30885 0.176522,0.4177 0.0829,0.10893 0.195888,0.17396 0.339054,0.19465 0.143165,0.0207 0.269966,-0.01 0.38038,-0.0913 0.110328,-0.0816 0.206695,-0.1994 0.288475,-0.3535 0.08169,-0.15424 0.150259,-0.3367005 0.205639,-0.5484305 0.056,-0.21658 0.101008,-0.44712 0.135216,-0.69111 0.03421,-0.24398 0.05405,-0.4755 0.05928,-0.69401 0.006,-0.22323 -0.0088,-0.41986 -0.044,-0.58978 -0.03511,-0.16979 -0.09381,-0.30841 -0.175508,-0.41578 -0.08162,-0.10722 -0.192739,-0.16912 -0.333447,-0.18654 z m -12.070511,-0.32286 c 0.104084,0.0136 0.177491,0.0687 0.220814,0.16488 0.04754,0.0968 0.05907,0.20277 0.03423,0.31729 -0.02484,0.11453 -0.07988,0.20876 -0.164924,0.28335 -0.08091,0.0751 -0.173479,0.10566 -0.278034,0.0914 -0.108739,-0.0148 -0.187555,-0.0687 -0.236027,-0.16112 -0.04842,-0.0923 -0.06024,-0.19518 -0.03497,-0.30914 0.02527,-0.11394 0.0812,-0.21045 0.167289,-0.28935 0.08602,-0.0789 0.183377,-0.11149 0.291628,-0.0973 z m 5.952457,0.7799 c 0.104086,0.0136 0.178877,0.0705 0.224955,0.17039 0.0503,0.10051 0.065,0.21068 0.04374,0.32998 -0.02126,0.1193 -0.07321,0.21765 -0.155627,0.29573 -0.07829,0.0785 -0.169544,0.1109 -0.274099,0.0966 -0.10874,-0.0148 -0.188867,-0.0704 -0.239962,-0.16637 -0.05104,-0.0958 -0.06596,-0.20278 -0.04427,-0.32151 0.02169,-0.11872 0.07444,-0.21946 0.157769,-0.30203 0.08326,-0.0826 0.179237,-0.11701 0.287487,-0.10283 z m 5.951981,0.77984 c 0.104084,0.0136 0.180739,0.0725 0.229573,0.17597 0.05306,0.10418 0.07094,0.21858 0.05326,0.34265 -0.01767,0.12408 -0.06653,0.22654 -0.146328,0.30812 -0.07567,0.082 -0.166092,0.11608 -0.270645,0.10181 -0.108741,-0.0148 -0.189704,-0.0721 -0.243416,-0.17154 -0.05366,-0.0993 -0.07167,-0.21039 -0.05356,-0.33389 0.0181,-0.1235 0.06768,-0.22847 0.148248,-0.31472 0.0805,-0.0863 0.174618,-0.12258 0.282867,-0.1084 z M 10.835273,10.142864 c 0.416327,0.0645 0.694112,0.29575 0.834559,0.69473 0.142315,0.39577 0.135532,0.93276 -0.02099,1.60998 -0.156518,0.67721 -0.391468,1.17816 -0.705435,1.50187 -0.313809,0.31826 -0.683465,0.43861 -1.1089515,0.36189 -0.421143,-0.0759 -0.705597,-0.31265 -0.852294,-0.70928 -0.140452,-0.39897 -0.127496,-0.93057 0.03823,-1.59551 0.165726,-0.66495 0.405823,-1.15622 0.719583,-1.47453 0.3182165,-0.32306 0.6832165,-0.45301 1.0952945,-0.38915 z m 6.073654,0.94133 c 0.416328,0.0645 0.699903,0.30346 0.851932,0.71787 0.153761,0.41102 0.163458,0.96996 0.02845,1.67582 -0.135006,0.70587 -0.353407,1.22886 -0.655791,1.568 -0.302364,0.3335 -0.666299,0.46148 -1.091786,0.38475 -0.421143,-0.0759 -0.711319,-0.32027 -0.86946,-0.73214 -0.152035,-0.4144 -0.155628,-0.96804 -0.01141,-1.66164 0.144215,-0.6936 0.367831,-1.20682 0.670146,-1.54037 0.306633,-0.33849 0.665844,-0.47615 1.077921,-0.41229 z m 6.073167,0.94126 c 0.416328,0.0645 0.706181,0.31124 0.869796,0.74108 0.165203,0.42626 0.191381,1.00715 0.07789,1.74167 -0.113495,0.73452 -0.315347,1.27955 -0.606145,1.63412 -0.290921,0.34875 -0.649633,0.48425 -1.075121,0.40753 -0.421143,-0.076 -0.716541,-0.3278 -0.886128,-0.75492 -0.163618,-0.42983 -0.18376,-1.00551 -0.06106,-1.72776 0.122703,-0.72226 0.329838,-1.25743 0.620708,-1.60622 0.295051,-0.35392 0.647984,-0.49937 1.060061,-0.4355 z m -9.047649,-1.30652 0.369698,0.0575 -0.785261,3.62923 0.76019,0.13465 -0.09829,0.46483 -2.168057,-0.38986 0.103343,-0.45809 0.870282,0.15415 0.628514,-2.85882 c -0.0566,0.0364 -0.124408,0.0733 -0.203369,0.1106 -0.07375,0.0335 -0.155887,0.0654 -0.246786,0.096 -0.08666,0.0313 -0.1775,0.0599 -0.271799,0.0853 -0.09434,0.0254 -0.184936,0.0448 -0.272122,0.0578 l -0.07477,-0.43304 c 0.237386,-0.0523 0.473268,-0.1279 0.707205,-0.22663 0.234631,-0.10348 0.461564,-0.2444 0.681224,-0.42365 z m 6.076559,0.94519 0.369698,0.0575 -0.671711,3.78047 0.759693,0.13456 -0.08382,0.48411 -2.16756,-0.38978 0.08887,-0.47737 0.870282,0.15415 0.538746,-2.97838 c -0.05522,0.0382 -0.121577,0.0771 -0.199021,0.1164 -0.07237,0.0353 -0.153139,0.069 -0.242658,0.10148 -0.08529,0.0331 -0.174808,0.0635 -0.267867,0.0906 -0.0931,0.0271 -0.182655,0.0479 -0.269012,0.062 l -0.08761,-0.45013 c 0.234629,-0.056 0.467061,-0.13618 0.69686,-0.24042 0.230357,-0.10917 0.451926,-0.25723 0.665105,-0.44512 z m 6.076559,0.9452 0.369698,0.0575 -0.55816,3.93171 0.759693,0.13456 -0.06935,0.50338 -2.16756,-0.38977 0.0744,-0.49665 0.870282,0.15415 0.448979,-3.09794 c -0.05385,0.04 -0.118746,0.0809 -0.194674,0.12218 -0.071,0.0372 -0.150391,0.0727 -0.238533,0.10698 -0.08392,0.035 -0.172111,0.0671 -0.26393,0.0958 -0.09186,0.0287 -0.180376,0.0509 -0.265905,0.0661 l -0.100446,-0.46723 c 0.231873,-0.0597 0.460854,-0.14444 0.686517,-0.25419 0.226082,-0.11487 0.442287,-0.27007 0.648985,-0.46659 z m -15.365427,-1.99523 c -0.144798,-0.0229 -0.276412,5.3e-4 -0.395214,0.0709 -0.118876,0.0702 -0.226284,0.17329 -0.321592,0.30939 -0.0954,0.13597 -0.1802055,0.30027 -0.2541315,0.49296 -0.07294,0.18835 -0.136144,0.39184 -0.189703,0.61005 -0.05356,0.21821 -0.09174,0.4281 -0.11418,0.62938 -0.02134,0.19706 -0.01936,0.37321 0.0055,0.52936 0.02495,0.15627 0.07709,0.28614 0.15577,0.38949 0.07878,0.10344 0.191732,0.16844 0.33899,0.19458 0.1472565,0.0261 0.2809485,0.005 0.4010225,-0.0638 0.119991,-0.0687 0.227405,-0.17124 0.322589,-0.30749 0.09509,-0.13638 0.178456,-0.29915 0.250071,-0.48924 0.07257,-0.1945 0.134681,-0.40228 0.18647,-0.62285 0.05179,-0.22057 0.08783,-0.43048 0.107857,-0.62931 0.02109,-0.20306 0.01891,-0.38293 -0.0062,-0.53948 -0.02507,-0.15643 -0.07621,-0.28556 -0.153785,-0.38742 -0.07749,-0.10172 -0.188622,-0.16364 -0.333421,-0.1865 z m 6.08876,0.96144 c -0.144798,-0.0229 -0.275535,0.002 -0.391578,0.0763 -0.11612,0.0738 -0.219314,0.18201 -0.309932,0.32435 -0.09071,0.14221 -0.170002,0.31386 -0.237585,0.515 -0.06673,0.19662 -0.123313,0.40893 -0.16984,0.6365 -0.04653,0.22758 -0.07801,0.44639 -0.09411,0.65612 -0.01514,0.20532 -0.0077,0.38871 0.02183,0.5511 0.02964,0.16252 0.085,0.29726 0.166441,0.40428 0.08153,0.10711 0.196371,0.17404 0.343628,0.20018 0.147261,0.0261 0.279565,0.003 0.396885,-0.0693 0.117233,-0.0724 0.220922,-0.17987 0.311418,-0.32237 0.09041,-0.14262 0.168334,-0.31262 0.233743,-0.51099 0.06624,-0.20294 0.121646,-0.41963 0.166402,-0.64957 0.04476,-0.22994 0.07418,-0.44868 0.08799,-0.65577 0.01475,-0.21151 0.0071,-0.39872 -0.0228,-0.56152 -0.02976,-0.16268 -0.08462,-0.29676 -0.164952,-0.4023 -0.08025,-0.10539 -0.192747,-0.16913 -0.337548,-0.192 z m 6.088271,0.96137 c -0.144799,-0.0229 -0.27368,0.004 -0.386964,0.0819 -0.113363,0.0775 -0.212834,0.19064 -0.298763,0.33922 -0.08602,0.14847 -0.159797,0.32747 -0.221037,0.53705 -0.06053,0.20488 -0.110482,0.42602 -0.149976,0.66296 -0.03949,0.23695 -0.06429,0.46467 -0.07404,0.68285 -0.0089,0.21359 0.0039,0.40421 0.03816,0.57285 0.03433,0.16876 0.09341,0.30846 0.17761,0.41915 0.08429,0.11079 0.200014,0.17947 0.347272,0.20561 0.147257,0.0261 0.278677,0.001 0.393241,-0.0747 0.114476,-0.076 0.21444,-0.1885 0.300248,-0.33724 0.08572,-0.14887 0.158214,-0.32611 0.217418,-0.53274 0.05988,-0.21139 0.108608,-0.437 0.146331,-0.6763 0.03772,-0.23931 0.06052,-0.46687 0.06813,-0.68223 0.0084,-0.21996 -0.0048,-0.41452 -0.03935,-0.58356 -0.03445,-0.16893 -0.09303,-0.30797 -0.176121,-0.41717 -0.08301,-0.10907 -0.197364,-0.17471 -0.342162,-0.19758 z m -12.432184,-0.8046 c 0.107097,0.0177 0.182233,0.0749 0.225957,0.17174 0.04809,0.0976 0.059,0.20267 0.03236,0.31481 -0.02664,0.11214 -0.08419,0.20302 -0.172467,0.2733 -0.08403,0.0709 -0.17965,0.0974 -0.287217,0.0792 -0.111866,-0.019 -0.192558,-0.0753 -0.241647,-0.16861 -0.049039,-0.0932 -0.059789,-0.19514 -0.032719,-0.30671 0.027069,-0.11157 0.085059,-0.20476 0.1744475,-0.27924 0.08932,-0.0745 0.189911,-0.10281 0.301288,-0.0845 z m 6.124539,1.00911 c 0.107094,0.0176 0.183612,0.0767 0.230096,0.17725 0.05084,0.10124 0.06493,0.21057 0.04188,0.32749 -0.02305,0.11691 -0.07751,0.21191 -0.163173,0.28568 -0.08141,0.0744 -0.175715,0.10268 -0.28328,0.0844 -0.111868,-0.019 -0.193874,-0.0771 -0.245584,-0.17385 -0.05166,-0.0966 -0.06599,-0.20283 -0.04251,-0.31918 0.02348,-0.11634 0.07879,-0.21369 0.165422,-0.29184 0.08656,-0.0782 0.18577,-0.10832 0.297149,-0.09 z m 6.124042,1.00901 c 0.107097,0.0177 0.18549,0.0787 0.234732,0.18286 0.0536,0.10491 0.07087,0.21847 0.0514,0.34016 -0.01947,0.12169 -0.07084,0.22081 -0.153875,0.29807 -0.07879,0.0779 -0.172275,0.10784 -0.279842,0.0896 -0.111866,-0.019 -0.194692,-0.0787 -0.249023,-0.17901 -0.05428,-0.10013 -0.0717,-0.21044 -0.05181,-0.33156 0.01989,-0.12112 0.07203,-0.2227 0.155902,-0.30452 0.08381,-0.0819 0.181137,-0.11392 0.292514,-0.0956 z m -6.923428,2.93122 c 0.428123,0.0802 0.720777,0.33126 0.879186,0.75416 0.16014,0.41952 0.173025,0.98272 0.03802,1.68858 -0.135006,0.70587 -0.356595,1.2246 -0.665358,1.55525 -0.308743,0.325 -0.681757,0.44088 -1.119039,0.34845 -0.432818,-0.0915 -0.732086,-0.34794 -0.896728,-0.76846 -0.158414,-0.4229 -0.165199,-0.98078 -0.02098,-1.67438 0.144215,-0.6936 0.371023,-1.20258 0.679717,-1.52764 0.313133,-0.32983 0.681437,-0.45538 1.105189,-0.37596 z m 3.122367,0.58517 c 0.42812,0.0802 0.724173,0.33521 0.888374,0.76582 0.165859,0.42714 0.186988,1.00132 0.06274,1.72151 -0.124251,0.72019 -0.337568,1.24995 -0.640537,1.5883 -0.30302,0.33263 -0.673688,0.45221 -1.110968,0.35978 -0.432818,-0.0915 -0.734435,-0.35163 -0.904799,-0.77978 -0.164208,-0.43062 -0.179265,-0.99951 -0.04581,-1.70744 0.133459,-0.70793 0.352023,-1.22788 0.654998,-1.56056 0.307342,-0.33755 0.672248,-0.46705 1.096002,-0.38763 z m -9.3048685,-1.64912 0.380168,0.0715 -0.842036,3.55361 0.781322,0.1628 -0.105639,0.45569 -2.228192,-0.46995 0.110699,-0.44896 0.894475,0.18637 0.673398,-2.79903 c -0.05862,0.0337 -0.128772,0.0675 -0.210419,0.10122 -0.07625,0.0302 -0.161085,0.0583 -0.254978,0.0851 -0.08953,0.0275 -0.182805,0.0523 -0.280131,0.0736 -0.09737,0.0214 -0.191332,0.0369 -0.28122,0.0463 l -0.07305,-0.43074 c 0.244903,-0.0423 0.488474,-0.10765 0.730258,-0.19593 0.242546,-0.0929 0.47751,-0.22315 0.705348,-0.39153 z m 3.1243205,0.5872 0.380167,0.0715 -0.785261,3.62923 0.781322,0.1628 -0.0984,0.46534 -2.228193,-0.46996 0.103457,-0.4586 0.894475,0.18637 0.628514,-2.85881 c -0.05793,0.0346 -0.127357,0.0694 -0.208245,0.10412 -0.07556,0.0311 -0.159714,0.0601 -0.252919,0.0878 -0.08883,0.0284 -0.181962,0.054 -0.278668,0.0762 -0.09675,0.0222 -0.189684,0.0385 -0.279159,0.0485 l -0.07947,-0.43929 c 0.243525,-0.0442 0.48537,-0.11178 0.725083,-0.20282 0.240411,-0.0958 0.472694,-0.22957 0.697291,-0.40226 z m 9.372956,1.76159 0.38017,0.0714 -0.614936,3.8561 0.780808,0.16269 -0.07667,0.49428 -2.227678,-0.46985 0.08173,-0.48754 0.894476,0.18637 0.493862,-3.03816 c -0.05586,0.0374 -0.123113,0.0751 -0.201723,0.1128 -0.07349,0.0339 -0.1556,0.0656 -0.246732,0.096 -0.08677,0.0312 -0.177919,0.0593 -0.272766,0.084 -0.09489,0.0247 -0.186265,0.0431 -0.274496,0.0547 l -0.09872,-0.46493 c 0.239391,-0.0497 0.476058,-0.12419 0.70957,-0.22349 0.233997,-0.10433 0.458235,-0.24882 0.673108,-0.43447 z m 3.12432,0.5872 0.380168,0.0715 -0.558161,3.93171 0.780811,0.1627 -0.06943,0.50393 -2.227681,-0.46985 0.07449,-0.49719 0.894474,0.18637 0.448979,-3.09795 c -0.05517,0.0383 -0.121695,0.077 -0.19955,0.1157 -0.0728,0.0348 -0.154224,0.0674 -0.244666,0.0988 -0.08608,0.0321 -0.176573,0.0611 -0.270799,0.0866 -0.09427,0.0255 -0.185124,0.0446 -0.272941,0.0567 l -0.10514,-0.47348 c 0.23801,-0.0515 0.472954,-0.12832 0.704394,-0.23037 0.231861,-0.10719 0.453416,-0.25525 0.665051,-0.44521 z m -9.537126,-1.3807 c -0.148891,-0.0283 -0.28307,-0.008 -0.401882,0.0626 -0.118888,0.0702 -0.224305,0.17537 -0.316609,0.31547 -0.09239,0.13996 -0.172891,0.31 -0.241199,0.51019 -0.06745,0.19564 -0.124393,0.40748 -0.17092,0.63506 -0.04653,0.22758 -0.07765,0.44687 -0.09303,0.65756 -0.01442,0.20628 -0.0059,0.39179 0.02534,0.55642 0.03133,0.16476 0.08891,0.30246 0.173115,0.41318 0.0843,0.1108 0.202687,0.18179 0.354037,0.21338 0.151353,0.0316 0.286967,0.0135 0.407069,-0.0551 0.120002,-0.0687 0.225914,-0.17323 0.318096,-0.31349 0.09209,-0.14036 0.171327,-0.30928 0.237458,-0.50668 0.06696,-0.20199 0.122725,-0.4182 0.167481,-0.64814 0.04476,-0.22993 0.07382,-0.44916 0.08691,-0.6572 0.01403,-0.21249 0.0051,-0.40131 -0.02641,-0.56634 -0.03145,-0.16493 -0.08853,-0.30197 -0.171625,-0.4112 -0.08302,-0.10908 -0.198943,-0.17739 -0.347837,-0.2057 z m 3.129918,0.59523 c -0.148893,-0.0283 -0.281884,-0.007 -0.399319,0.0654 -0.11751,0.072 -0.221064,0.17969 -0.311022,0.3229 -0.09005,0.14309 -0.167791,0.31681 -0.232927,0.52122 -0.06434,0.19978 -0.117978,0.41603 -0.160988,0.64829 -0.04301,0.23226 -0.07079,0.45601 -0.083,0.67092 -0.01131,0.21042 -6e-5,0.39956 0.03352,0.56731 0.03367,0.16788 0.09311,0.30806 0.178697,0.42061 0.08568,0.11264 0.20424,0.18443 0.355592,0.21602 0.15135,0.0316 0.286795,0.0127 0.405515,-0.0577 0.118623,-0.0705 0.222673,-0.17754 0.312513,-0.32092 0.08975,-0.14349 0.166256,-0.31604 0.229285,-0.51757 0.06379,-0.20621 0.116207,-0.42688 0.157447,-0.6615 0.04124,-0.23462 0.06699,-0.45826 0.07698,-0.67043 0.01086,-0.21671 -7.94e-4,-0.40921 -0.03468,-0.57736 -0.03379,-0.16805 -0.09274,-0.30757 -0.177212,-0.41864 -0.08439,-0.11092 -0.201509,-0.18023 -0.3504,-0.20854 z m -3.348934,0.57113 c 0.110103,0.0216 0.189022,0.0839 0.237312,0.18685 0.05277,0.10381 0.06783,0.21444 0.04478,0.33135 -0.02305,0.11691 -0.07848,0.21062 -0.166069,0.28184 -0.08321,0.072 -0.179919,0.0971 -0.290493,0.0748 -0.114997,-0.0232 -0.199537,-0.0846 -0.253175,-0.18395 -0.05358,-0.0992 -0.06888,-0.2067 -0.0454,-0.32305 0.02348,-0.11633 0.07976,-0.21239 0.168316,-0.28798 0.08849,-0.0756 0.190228,-0.10237 0.304736,-0.0798 z m 3.148307,0.61915 c 0.110104,0.0217 0.189714,0.0849 0.239385,0.18961 0.05415,0.10564 0.07079,0.21839 0.04953,0.33768 -0.02126,0.11931 -0.07514,0.21507 -0.161418,0.28804 -0.0819,0.0737 -0.177954,0.0997 -0.288527,0.0774 -0.114999,-0.0232 -0.200193,-0.0855 -0.255141,-0.18658 -0.0549,-0.10094 -0.07174,-0.2105 -0.05006,-0.32923 0.02169,-0.11872 0.07638,-0.21689 0.163559,-0.29432 0.08711,-0.0775 0.188155,-0.10513 0.302664,-0.0826 z m -10.3658655,1.92087 c 0.439918,0.096 0.735861,0.35136 0.889066,0.76733 0.155074,0.41277 0.154668,0.95826 -0.0019,1.63548 -0.156518,0.67721 -0.397846,1.16965 -0.724571,1.47637 -0.326568,0.30127 -0.714382,0.39743 -1.163459,0.28929 -0.444494,-0.10704 -0.747133,-0.36797 -0.906829,-0.78191 -0.15321,-0.41597 -0.146636,-0.95605 0.01909,-1.621 0.165726,-0.66495 0.412205,-1.14773 0.738723,-1.44905 0.331216,-0.30575 0.714402,-0.41147 1.14983,-0.31651 z m 3.2089075,0.69987 c 0.439916,0.0959 0.738756,0.3552 0.897752,0.77889 0.160794,0.42039 0.168632,0.97686 0.02287,1.6684 -0.145762,0.69154 -0.378819,1.19501 -0.69975,1.50944 -0.320844,0.30889 -0.7058,0.40887 -1.154875,0.30072 -0.444495,-0.10704 -0.7499965,-0.37178 -0.9154155,-0.79335 -0.159001,-0.42368 -0.160699,-0.97478 -0.0057,-1.65406 0.15497,-0.67927 0.3932045,-1.17303 0.7140015,-1.48196 0.325424,-0.31347 0.705717,-0.42305 1.141147,-0.32808 z m 9.626203,2.09948 c 0.439919,0.0959 0.747956,0.36688 0.92433,0.81371 0.177962,0.44326 0.210518,1.03266 0.09702,1.76717 -0.113495,0.73452 -0.321725,1.27105 -0.625282,1.60863 -0.303679,0.33175 -0.680577,0.44303 -1.129655,0.33488 -0.444493,-0.10704 -0.758049,-0.38308 -0.940636,-0.82751 -0.176375,-0.44682 -0.2029,-1.03099 -0.0802,-1.75325 0.122703,-0.72225 0.336221,-1.24893 0.639849,-1.58073 0.308049,-0.33661 0.67914,-0.45787 1.114568,-0.3629 z m 3.208908,0.69986 c 0.439916,0.096 0.750852,0.37074 0.933014,0.82528 0.183684,0.45088 0.224483,1.05126 0.121744,1.8001 -0.102739,0.74885 -0.302698,1.2964 -0.600463,1.64168 -0.297954,0.33938 -0.671994,0.45447 -1.121069,0.34632 -0.444493,-0.10704 -0.76091,-0.38689 -0.949219,-0.83894 -0.18217,-0.45454 -0.216966,-1.04973 -0.105018,-1.78631 0.111947,-0.73658 0.317221,-1.27424 0.615129,-1.61366 0.302258,-0.34432 0.670454,-0.46944 1.105882,-0.37447 z m -9.55773,-1.98591 0.390637,0.0854 -0.728486,3.70485 0.80193,0.19082 -0.09115,0.47499 -2.287796,-0.54992 0.09621,-0.46825 0.918668,0.2186 0.58363,-2.9186 c -0.05856,0.0338 -0.12889,0.0674 -0.210943,0.10051 -0.07667,0.0296 -0.16221,0.0569 -0.256991,0.0824 -0.09032,0.0265 -0.185076,0.0498 -0.283569,0.0696 -0.09854,0.0198 -0.193294,0.0337 -0.284639,0.0412 l -0.09058,-0.45409 c 0.248286,-0.0378 0.494364,-0.0998 0.737792,-0.1859 0.244046,-0.0909 0.479001,-0.22116 0.705289,-0.39159 z m 3.210361,0.70179 0.390637,0.0854 -0.671711,3.78047 0.801929,0.19082 -0.08391,0.48464 -2.287796,-0.54992 0.08897,-0.4779 0.918667,0.2186 0.538747,-2.97838 c -0.05787,0.0347 -0.127475,0.0693 -0.20877,0.1034 -0.07599,0.0306 -0.160835,0.0588 -0.254928,0.0851 -0.08963,0.0274 -0.183731,0.0516 -0.281605,0.0723 -0.09792,0.0206 -0.192151,0.0352 -0.283081,0.0432 l -0.097,-0.46264 c 0.246906,-0.0396 0.491261,-0.10393 0.732617,-0.19279 0.241911,-0.0938 0.474184,-0.22758 0.697233,-0.40233 z m -9.8097865,-1.74387 c -0.152982,-0.0338 -0.291453,-0.0195 -0.415792,0.0435 -0.124413,0.0628 -0.236292,0.15996 -0.334969,0.29157 -0.09877,0.13148 -0.185992,0.29257 -0.261364,0.48335 -0.07438,0.18641 -0.138304,0.38895 -0.191864,0.60716 -0.05356,0.21821 -0.09102,0.42906 -0.112017,0.63225 -0.01989,0.199 -0.01562,0.37885 0.01262,0.53949 0.02832,0.16076 0.08493,0.29657 0.169149,0.4073 0.08431,0.11082 0.204246,0.18445 0.359689,0.2215 0.155442,0.037 0.295854,0.0254 0.421483,-0.0359 0.125528,-0.0613 0.237385,-0.15794 0.33594,-0.2897 0.09847,-0.13189 0.184355,-0.29193 0.257416,-0.48012 0.07401,-0.19256 0.136841,-0.39938 0.18863,-0.61995 0.05179,-0.22057 0.08712,-0.43145 0.105696,-0.63219 0.01965,-0.205 0.01506,-0.38808 -0.01348,-0.54912 -0.02844,-0.16092 -0.08403,-0.29595 -0.167134,-0.4052 -0.08302,-0.1091 -0.201017,-0.18015 -0.354,-0.21392 z m 3.2164605,0.70993 c -0.152983,-0.0338 -0.291288,-0.0187 -0.41425,0.0461 -0.123035,0.0646 -0.232533,0.1644 -0.328865,0.29913 -0.09642,0.1346 -0.18089,0.29936 -0.253091,0.49437 -0.07127,0.19055 -0.131889,0.3975 -0.181932,0.62039 -0.05004,0.22289 -0.08416,0.4382 -0.101982,0.64562 -0.01679,0.20312 -0.0098,0.3866 0.02079,0.55036 0.03067,0.16389 0.08861,0.30206 0.174205,0.41462 0.0857,0.11266 0.206837,0.18733 0.362279,0.22437 0.155443,0.037 0.295172,0.0245 0.41942,-0.0386 0.124149,-0.0632 0.234143,-0.16226 0.330356,-0.29714 0.09612,-0.13501 0.179285,-0.29869 0.249243,-0.491 0.07085,-0.19679 0.130322,-0.40807 0.178594,-0.63332 0.04827,-0.22526 0.08029,-0.44055 0.09577,-0.64542 0.01647,-0.20922 0.0091,-0.39598 -0.02175,-0.56014 -0.03079,-0.16405 -0.08823,-0.30156 -0.17272,-0.41264 -0.0844,-0.11094 -0.203078,-0.1829 -0.356061,-0.21666 z m 9.648859,2.12965 c -0.152983,-0.0338 -0.288721,-0.0159 -0.407542,0.0544 -0.1189,0.0702 -0.222813,0.17735 -0.312113,0.32144 -0.08939,0.14397 -0.165581,0.31976 -0.228268,0.52743 -0.06197,0.20295 -0.112641,0.42314 -0.152136,0.66008 -0.03949,0.23695 -0.06357,0.46563 -0.07188,0.68572 -0.0075,0.21552 0.0077,0.40988 0.0453,0.58301 0.0377,0.17325 0.101226,0.31886 0.190961,0.43694 0.08983,0.11816 0.212496,0.19544 0.367938,0.23248 0.155442,0.037 0.293647,0.0219 0.413761,-0.0468 0.120013,-0.0687 0.224421,-0.1752 0.313599,-0.31945 0.08909,-0.14438 0.164083,-0.31894 0.224733,-0.52365 0.06133,-0.20946 0.110766,-0.43412 0.14849,-0.67342 0.03772,-0.2393 0.0598,-0.46783 0.06597,-0.6851 0.007,-0.2219 -0.0087,-0.41968 -0.04657,-0.59321 -0.03782,-0.17341 -0.100848,-0.31836 -0.189471,-0.43495 -0.08854,-0.11644 -0.209786,-0.19125 -0.362769,-0.22502 z m 3.216461,0.70993 c -0.152983,-0.0338 -0.288039,-0.015 -0.40548,0.0572 -0.117524,0.072 -0.219575,0.18166 -0.306529,0.32888 -0.08705,0.1471 -0.16048,0.32655 -0.219996,0.53845 -0.05886,0.20708 -0.106226,0.43168 -0.142204,0.67331 -0.03598,0.24163 -0.05671,0.47477 -0.06184,0.69908 -0.0044,0.21966 0.01352,0.41765 0.05347,0.5939 0.04004,0.17637 0.105433,0.32446 0.196547,0.44437 0.09121,0.12 0.214559,0.19819 0.370001,0.23523 0.155442,0.037 0.292437,0.0208 0.411171,-0.0496 0.118634,-0.0705 0.221704,-0.17939 0.308541,-0.32677 0.08674,-0.1475 0.159012,-0.32568 0.216559,-0.53453 0.05817,-0.21368 0.104248,-0.4428 0.138455,-0.68678 0.03421,-0.24399 0.05297,-0.47693 0.05604,-0.69833 0.0038,-0.22612 -0.01458,-0.42757 -0.05484,-0.60423 -0.04017,-0.17653 -0.105574,-0.32407 -0.195575,-0.4425 -0.08992,-0.11828 -0.211329,-0.19389 -0.364312,-0.22765 z M 7.8899615,22.469764 c 0.113114,0.0257 0.193029,0.0894 0.240386,0.19096 0.05194,0.1027 0.06479,0.21038 0.03815,0.32252 -0.02664,0.11214 -0.08613,0.20044 -0.178256,0.26559 -0.08764,0.0661 -0.188061,0.0862 -0.301646,0.06 -0.118124,-0.0273 -0.203885,-0.0904 -0.256825,-0.18883 -0.05289,-0.0983 -0.06555,-0.20281 -0.03848,-0.31438 0.02707,-0.11157 0.08697,-0.20221 0.180209,-0.27157 0.09317,-0.0694 0.198831,-0.0909 0.316466,-0.0642 z m 3.2343485,0.73375 c 0.113111,0.0257 0.19372,0.0903 0.242457,0.19372 0.05332,0.10453 0.06775,0.21433 0.04291,0.32886 -0.02484,0.11452 -0.08279,0.20488 -0.173607,0.27178 -0.08633,0.0678 -0.186097,0.0889 -0.299679,0.0626 -0.118128,-0.0273 -0.204545,-0.0913 -0.258794,-0.19145 -0.0542,-0.10002 -0.06893,-0.20674 -0.04365,-0.32069 0.02527,-0.11396 0.08411,-0.2066 0.175972,-0.27779 0.09179,-0.0713 0.196758,-0.0937 0.314397,-0.067 z m 9.702521,2.20113 c 0.113115,0.0257 0.19632,0.0932 0.249189,0.20211 0.05745,0.11004 0.07665,0.22619 0.05719,0.34788 -0.01947,0.12169 -0.07277,0.21822 -0.159664,0.29036 -0.0824,0.0731 -0.180715,0.0966 -0.294299,0.0703 -0.118125,-0.0273 -0.205991,-0.0938 -0.264173,-0.19919 -0.05813,-0.10526 -0.07749,-0.21815 -0.0576,-0.33927 0.01989,-0.12112 0.07396,-0.22011 0.161691,-0.29681 0.08766,-0.0768 0.190028,-0.10207 0.307664,-0.0754 z m 3.234349,0.73375 c 0.113113,0.0257 0.197011,0.0941 0.251259,0.20487 0.05883,0.11187 0.07962,0.23013 0.06195,0.35421 -0.01767,0.12408 -0.06943,0.22268 -0.155013,0.29655 -0.08109,0.0748 -0.178748,0.0992 -0.292331,0.0729 -0.118128,-0.0273 -0.206651,-0.0947 -0.26614,-0.2018 -0.05944,-0.107 -0.08035,-0.22196 -0.06225,-0.34547 0.0181,-0.1235 0.07058,-0.2246 0.156932,-0.30314 0.08628,-0.0786 0.187955,-0.10484 0.305593,-0.0782 z"
       style="fill:#8d6f59;fill-opacity:0.5;stroke-width:0.502708;stroke-linecap:square;stroke-miterlimit:4;stroke-dasharray:none"
       id="path2125"
       sodipodi:nodetypes="ccccccscccccscccsccscscscscsscccccccccccccccccccccccccccccccccccccccccccccccccccccccscccccccscccccccccscccccccscccccccccscccccccscccccccscccscccccscccscccscccccccssscscccscssscscccscssscscccscsscccccccccccccccccccccccccccccccccccccccccccccccccccccccscccccccscccccccccscccccccscccccccccscccccccscccccccscccscccccscccscccscscccscssccscccscccccscccsccccccccccccccccccccccccccccccccccccccccccccccccccccccccccccccccccccccccccscccccccccccccccccscccccccscccccccscccscccscscccccssscscccscssccsccccccscscccccssccscccsccccccccccccccccccccccccccccccccccccccccscccccccscccccccccccccccccccccccccccccccccccscccccccccscccccccscccccccccccscccccscccccccccccccscccccscccsccc" />
    <g
       aria-label="W"
       transform="matrix(0.85527327,0.15080775,-0.19994787,1.1339607,50.056843,-259.52817)"
       id="g5"
       style="font-style:italic;font-weight:bold;font-size:19.05px;font-family:Z003;-inkscape-font-specification:'Z003 Bold Italic';fill:#000000;stroke-width:0.511275;stroke-linecap:square;stroke-linejoin:round;fill-opacity:0.2"
       inkscape:transform-center-x="-7.0037449"
       inkscape:transform-center-y="-7.2342127">
      <path
         id="path5"
         style="font-style:normal;font-family:Georgia;-inkscape-font-specification:'Georgia Bold';fill:#000000;fill-opacity:0.2"
         d="M 6.2730657 234.47102 L 5.6867689 239.94148 C 5.8018036 240.28071 5.8759504 240.49569 5.999717 240.86143 C 6.5516207 242.48613 7.345313 244.80512 8.3809076 247.81889 L 10.250378 247.81909 L 13.394607 238.00543 L 16.882731 247.81885 L 18.752201 247.81904 C 19.521146 245.58042 20.259144 243.42249 20.966077 241.3451 C 21.679211 239.26771 22.206364 237.75764 22.547429 236.81506 C 22.646647 236.54221 22.755297 236.30957 22.873119 236.11734 C 22.997142 235.9251 23.201687 235.74851 23.486941 235.58728 C 23.672976 235.48805 23.862319 235.40745 24.054555 235.34546 C 24.246791 235.27724 24.439047 235.23358 24.631283 235.21498 L 24.630731 234.47087 L 19.319719 234.47083 L 19.319685 235.21502 C 19.524324 235.23362 19.763089 235.26166 20.03594 235.29886 C 20.314992 235.32988 20.541671 235.37328 20.715303 235.42908 C 20.919942 235.49729 21.080625 235.57805 21.198447 235.67106 C 21.322471 235.76408 21.384864 235.87561 21.384864 236.00583 C 21.384864 236.22287 21.347283 236.48002 21.272869 236.77767 C 21.198455 237.07533 21.099184 237.44427 20.975161 237.88455 C 20.764321 238.60389 20.504082 239.46905 20.194024 240.47984 C 19.890167 241.49063 19.48069 242.79271 18.965993 244.38641 L 15.478164 234.47087 L 13.506079 234.4711 L 10.501554 244.08891 C 9.8380294 242.08594 9.279932 240.40857 8.8272469 239.05672 C 8.3745619 237.70486 8.073801 236.78711 7.924973 236.30342 C 7.9001684 236.198 7.8754792 236.10499 7.8506745 236.02438 C 7.8320712 235.94376 7.8228008 235.86016 7.8228008 235.77334 C 7.8228008 235.72992 7.8350781 235.6802 7.8598827 235.6244 C 7.8846874 235.56858 7.9530034 235.51598 8.0646244 235.46638 C 8.1824465 235.41677 8.343959 235.37022 8.5485974 235.32682 C 8.7532359 235.2772 9.0631598 235.22722 9.4786379 235.17762 L 9.4783548 234.47084 L 6.2730657 234.47102 z " />
    </g>
    <g
       transform="rotate(12,1256.5368,154.32157)"
       inkscape:transform-center-y="-6.8409086"
       inkscape:transform-center-x="-7.0625265"
       style="font-size:22.5778px;font-family:Georgia;-inkscape-font-specification:Georgia;fill:none;fill-opacity:1;stroke:#000000;stroke-width:1.00542;stroke-linejoin:miter;stroke-miterlimit:4;stroke-dasharray:none;stroke-opacity:1;stop-color:#000000"
       id="text874"
       aria-label="B" />
    <g
       aria-label="W"
       transform="matrix(0.86846724,0,0,1.1514539,0.39539499,-262.59941)"
       id="g171806"
       style="font-style:italic;font-weight:bold;font-size:19.05px;font-family:Z003;-inkscape-font-specification:'Z003 Bold Italic';fill:none;stroke:#400303;stroke-width:0.47625001;stroke-linecap:square;stroke-linejoin:miter;stroke-miterlimit:4;stroke-dasharray:none;stroke-opacity:1">
      <path
         d="m 24.631026,235.21507 q -0.288354,0.0279 -0.576709,0.13022 -0.288354,0.093 -0.567407,0.24185 -0.427881,0.24184 -0.613916,0.5302 -0.176733,0.28835 -0.325561,0.69763 -0.511597,1.41387 -1.581299,4.52996 -1.0604,3.11608 -2.213818,6.47402 h -1.869654 l -3.488159,-9.81336 -3.143994,9.81336 H 8.3808561 q -1.5533935,-4.52066 -2.3812499,-6.95772 -0.8278564,-2.44636 -1.3952636,-4.10207 -0.1767334,-0.5023 -0.3999756,-0.72554 -0.2232422,-0.23254 -0.576709,-0.46509 -0.2511474,-0.16743 -0.5395019,-0.24184 -0.2790527,-0.0837 -0.651123,-0.13023 v -0.72553 h 7.0414304 v 0.70693 q -0.6232178,0.0744 -0.9301758,0.14883 -0.306958,0.0651 -0.4836914,0.13952 -0.1674316,0.0744 -0.2046386,0.15813 -0.037207,0.0837 -0.037207,0.14883 0,0.13023 0.027905,0.25115 0.037207,0.12092 0.074414,0.27905 0.2232422,0.72554 0.9022705,2.75332 0.6790283,2.02779 1.6743168,5.03225 l 3.004467,-9.61801 h 1.971973 l 3.488159,9.91567 q 0.772046,-2.39055 1.227832,-3.90674 0.465088,-1.51618 0.781348,-2.59519 0.186035,-0.66042 0.297656,-1.10691 0.111621,-0.44648 0.111621,-0.77204 0,-0.19534 -0.186035,-0.33487 -0.176734,-0.13952 -0.483692,-0.24184 -0.260449,-0.0837 -0.679028,-0.13023 -0.409277,-0.0558 -0.716235,-0.0837 v -0.74414 h 5.311303 z"
         style="font-style:normal;font-family:Georgia;-inkscape-font-specification:'Georgia Bold';fill:none;stroke:#400303;stroke-width:0.47625001;stroke-linejoin:miter;stroke-miterlimit:4;stroke-dasharray:none;stroke-opacity:1"
         id="path171804" />
    </g>
    <g
       aria-label="W"
       transform="matrix(0.86846724,0,0,1.1514539,0.39539499,-262.59941)"
       id="text41049"
       style="font-style:italic;font-weight:bold;font-size:19.05px;font-family:Z003;-inkscape-font-specification:'Z003 Bold Italic';fill:#e42c00;stroke-width:0.511275;stroke-linecap:square;stroke-linejoin:round">
      <path
         d="m 24.631026,235.21507 q -0.288354,0.0279 -0.576709,0.13022 -0.288354,0.093 -0.567407,0.24185 -0.427881,0.24184 -0.613916,0.5302 -0.176733,0.28835 -0.325561,0.69763 -0.511597,1.41387 -1.581299,4.52996 -1.0604,3.11608 -2.213818,6.47402 h -1.869654 l -3.488159,-9.81336 -3.143994,9.81336 H 8.3808561 q -1.5533935,-4.52066 -2.3812499,-6.95772 -0.8278564,-2.44636 -1.3952636,-4.10207 -0.1767334,-0.5023 -0.3999756,-0.72554 -0.2232422,-0.23254 -0.576709,-0.46509 -0.2511474,-0.16743 -0.5395019,-0.24184 -0.2790527,-0.0837 -0.651123,-0.13023 v -0.72553 h 7.0414304 v 0.70693 q -0.6232178,0.0744 -0.9301758,0.14883 -0.306958,0.0651 -0.4836914,0.13952 -0.1674316,0.0744 -0.2046386,0.15813 -0.037207,0.0837 -0.037207,0.14883 0,0.13023 0.027905,0.25115 0.037207,0.12092 0.074414,0.27905 0.2232422,0.72554 0.9022705,2.75332 0.6790283,2.02779 1.6743168,5.03225 l 3.004467,-9.61801 h 1.971973 l 3.488159,9.91567 q 0.772046,-2.39055 1.227832,-3.90674 0.465088,-1.51618 0.781348,-2.59519 0.186035,-0.66042 0.297656,-1.10691 0.111621,-0.44648 0.111621,-0.77204 0,-0.19534 -0.186035,-0.33487 -0.176734,-0.13952 -0.483692,-0.24184 -0.260449,-0.0837 -0.679028,-0.13023 -0.409277,-0.0558 -0.716235,-0.0837 v -0.74414 h 5.311303 z"
         style="font-style:normal;font-family:Georgia;-inkscape-font-specification:'Georgia Bold';fill:url(#linearGradient172125);fill-opacity:1"
         id="path171698" />
    </g>
  </g>
</svg>
