<?xml version="1.0" encoding="UTF-8" standalone="no"?>
<!-- Created with Inkscape (http://www.inkscape.org/) -->

<svg
   width="128"
   height="128"
   viewBox="0 0 128 128"
   version="1.1"
   id="svg1"
   xml:space="preserve"
   inkscape:version="1.3 (0e150ed6c4, 2023-07-21)"
   sodipodi:docname="inode-fifo.svg"
   xmlns:inkscape="http://www.inkscape.org/namespaces/inkscape"
   xmlns:sodipodi="http://sodipodi.sourceforge.net/DTD/sodipodi-0.dtd"
   xmlns:xlink="http://www.w3.org/1999/xlink"
   xmlns="http://www.w3.org/2000/svg"
   xmlns:svg="http://www.w3.org/2000/svg"><sodipodi:namedview
     id="namedview1"
     pagecolor="#ffffff"
     bordercolor="#999999"
     borderopacity="1"
     inkscape:showpageshadow="2"
     inkscape:pageopacity="0"
     inkscape:pagecheckerboard="0"
     inkscape:deskcolor="#d1d1d1"
     inkscape:document-units="px"
     showgrid="true"
     inkscape:zoom="6.4453125"
     inkscape:cx="67.801212"
     inkscape:cy="47.709091"
     inkscape:window-width="1920"
     inkscape:window-height="1093"
     inkscape:window-x="0"
     inkscape:window-y="0"
     inkscape:window-maximized="1"
     inkscape:current-layer="layer1"><inkscape:grid
       id="grid1"
       units="px"
       originx="0"
       originy="0"
       spacingx="1"
       spacingy="1"
       empcolor="#c83f3f"
       empopacity="0.25098039"
       color="#0099e5"
       opacity="0.14901961"
       empspacing="4"
       dotted="false"
       gridanglex="30"
       gridanglez="30"
       visible="true" /></sodipodi:namedview><defs
     id="defs1"><linearGradient
       id="linearGradient33"
       inkscape:collect="always"><stop
         style="stop-color:#b95451;stop-opacity:1;"
         offset="0"
         id="stop33" /><stop
         style="stop-color:#a01515;stop-opacity:1;"
         offset="1"
         id="stop34" /></linearGradient><linearGradient
       id="linearGradient31"
       inkscape:collect="always"><stop
         style="stop-color:#35332d;stop-opacity:1;"
         offset="0"
         id="stop31" /><stop
         style="stop-color:#59554b;stop-opacity:1;"
         offset="1"
         id="stop32" /></linearGradient><linearGradient
       id="linearGradient26"
       inkscape:collect="always"><stop
         style="stop-color:#5a564c;stop-opacity:1;"
         offset="0"
         id="stop24" /><stop
         style="stop-color:#e5e2dd;stop-opacity:1;"
         offset="0.71428573"
         id="stop25" /><stop
         style="stop-color:#98948a;stop-opacity:1;"
         offset="1"
         id="stop26" /></linearGradient><linearGradient
       id="linearGradient23"
       inkscape:collect="always"><stop
         style="stop-color:#3f3c35;stop-opacity:1;"
         offset="0"
         id="stop21" /><stop
         style="stop-color:#ccc9c5;stop-opacity:1;"
         offset="0.79260653"
         id="stop22" /><stop
         style="stop-color:#807c74;stop-opacity:1;"
         offset="1"
         id="stop23" /></linearGradient><linearGradient
       id="linearGradient11"
       inkscape:collect="always"><stop
         style="stop-color:#a9a599;stop-opacity:1;"
         offset="0"
         id="stop11" /><stop
         style="stop-color:#565248;stop-opacity:1;"
         offset="1"
         id="stop12" /></linearGradient><linearGradient
       id="linearGradient7"
       inkscape:collect="always"><stop
         style="stop-color:#5a564c;stop-opacity:1;"
         offset="0"
         id="stop7" /><stop
         style="stop-color:#e3e0db;stop-opacity:1;"
         offset="0.71428573"
         id="stop9" /><stop
         style="stop-color:#98948a;stop-opacity:1;"
         offset="1"
         id="stop8" /></linearGradient><linearGradient
       inkscape:collect="always"
       xlink:href="#linearGradient26"
       id="linearGradient8"
       x1="52"
       y1="76"
       x2="80"
       y2="48"
       gradientUnits="userSpaceOnUse" /><radialGradient
       inkscape:collect="always"
       xlink:href="#linearGradient11"
       id="radialGradient12"
       cx="168"
       cy="108.00001"
       fx="168"
       fy="108.00001"
       r="15.000006"
       gradientUnits="userSpaceOnUse"
       gradientTransform="matrix(0.79999954,-0.79999993,0.80000001,0.79999966,-110.79993,156.00002)" /><linearGradient
       inkscape:collect="always"
       xlink:href="#linearGradient7"
       id="linearGradient12"
       gradientUnits="userSpaceOnUse"
       x1="52"
       y1="76"
       x2="80"
       y2="48"
       gradientTransform="translate(84.142134,-38.142138)" /><linearGradient
       inkscape:collect="always"
       xlink:href="#linearGradient23"
       id="linearGradient21"
       x1="48"
       y1="72"
       x2="76"
       y2="44"
       gradientUnits="userSpaceOnUse" /><linearGradient
       inkscape:collect="always"
       xlink:href="#linearGradient31"
       id="linearGradient32"
       x1="56"
       y1="88"
       x2="90.263672"
       y2="55.736328"
       gradientUnits="userSpaceOnUse" /><linearGradient
       inkscape:collect="always"
       xlink:href="#linearGradient33"
       id="linearGradient34"
       x1="137"
       y1="98"
       x2="195"
       y2="98"
       gradientUnits="userSpaceOnUse"
       gradientTransform="matrix(0.99651714,-0.05865831,0.05407437,0.69154431,-106.72112,-22.034069)" /></defs><g
     inkscape:label="Layer 1"
     inkscape:groupmode="layer"
     id="layer1"><path
       style="fill:none;stroke:#000000;stroke-width:1.8;stroke-linecap:butt;stroke-linejoin:miter;stroke-opacity:1;stroke-dasharray:none"
       d="m 15.857857,42.142135 c -5.46734,-5.46734 -3.567845,-16.231144 4.24264,-24.04163 7.810486,-7.810486 18.574291,-9.7099813 24.041631,-4.242641 l 72.000012,72 c 5.46734,5.46734 3.56784,16.231146 -4.24264,24.041636 -7.81049,7.81048 -18.574295,9.70998 -24.041635,4.24264 z"
       id="path9"
       sodipodi:nodetypes="csccscc" /><path
       style="fill:url(#linearGradient8);stroke:none;stroke-width:1px;stroke-linecap:butt;stroke-linejoin:miter;stroke-opacity:1"
       d="m 15.857857,42.142135 c -5.46734,-5.46734 -3.567845,-16.231144 4.24264,-24.04163 7.810486,-7.810486 18.574291,-9.7099813 24.041631,-4.242641 l 72.000012,72 c 5.46734,5.46734 3.56784,16.231146 -4.24264,24.041636 -7.81049,7.81048 -18.574295,9.70998 -24.041635,4.24264 z"
       id="path3"
       sodipodi:nodetypes="csccscc" /><path
       id="path5"
       style="opacity:1;fill:#bab5ab;fill-opacity:1;fill-rule:evenodd;stroke:none;stroke-width:1.2;stroke-linejoin:round;paint-order:fill markers stroke"
       transform="rotate(45)"
       d="m 156.83557,-1.4142135 a 14,20 0 0 1 -14,19.9999995 14,20 0 0 1 -14,-19.9999995 14,20 0 0 1 14,-20.0000005 14,20 0 0 1 14,20.0000005 z" /><path
       id="path10"
       style="opacity:1;fill:#565248;fill-opacity:1;fill-rule:evenodd;stroke:none;stroke-width:1.04271;stroke-linejoin:round;paint-order:fill markers stroke"
       d="m 110.60194,108.60194 a 12.164973,17.378533 45 0 1 -20.89042,3.68654 12.164973,17.378533 45 0 1 3.686543,-20.890417 12.164973,17.378533 45 0 1 20.890417,-3.686544 12.164973,17.378533 45 0 1 -3.68654,20.890421 z" /><path
       id="path11"
       style="opacity:1;fill:url(#radialGradient12);fill-rule:evenodd;stroke:none;stroke-width:1.04271;stroke-linejoin:round;paint-order:fill markers stroke"
       d="m 110.60194,108.60194 a 12.164973,17.378533 45 0 1 -20.890419,3.68654 12.164973,17.378533 45 0 1 3.68654,-20.890417 12.164973,17.378533 45 0 1 20.890419,-3.686544 12.164973,17.378533 45 0 1 -3.68654,20.890421 z" /><path
       id="path12"
       style="fill:url(#linearGradient12);stroke:none;stroke-width:1px;stroke-linecap:butt;stroke-linejoin:miter;stroke-opacity:1"
       d="M 64.191406 38.738281 C 59.016685 38.646443 52.981158 41.218061 48.099609 46.099609 C 40.289132 53.910088 38.390087 64.675244 43.857422 70.142578 L 59.857422 86.142578 A 14 20 45 0 1 64.101562 62.101562 A 14 20 45 0 1 88.142578 57.857422 L 72.142578 41.857422 C 70.092328 39.807171 67.296239 38.793384 64.191406 38.738281 z M 88.601562 58.351562 A 14 20 45 0 1 88.869141 58.677734 C 88.781456 58.568259 88.694191 58.457671 88.601562 58.351562 z M 89.011719 58.857422 A 14 20 45 0 1 89.285156 59.238281 C 89.196257 59.109872 89.106762 58.981827 89.011719 58.857422 z M 89.40625 59.412109 A 14 20 45 0 1 89.636719 59.78125 C 89.56189 59.656877 89.486364 59.533194 89.40625 59.412109 z M 89.761719 59.994141 A 14 20 45 0 1 89.988281 60.416016 C 89.915703 60.273654 89.840635 60.132759 89.761719 59.994141 z M 90.060547 60.556641 A 14 20 45 0 1 90.289062 61.056641 C 90.216638 60.887723 90.141223 60.720936 90.060547 60.556641 z M 90.335938 61.166016 A 14 20 45 0 1 90.533203 61.677734 C 90.471191 61.504925 90.406023 61.33455 90.335938 61.166016 z M 90.582031 61.816406 A 14 20 45 0 1 90.75 62.341797 C 90.698309 62.164518 90.641691 61.989721 90.582031 61.816406 z M 90.785156 62.470703 A 14 20 45 0 1 90.929688 63.029297 C 90.886657 62.840965 90.836665 62.655089 90.785156 62.470703 z M 90.955078 63.154297 A 14 20 45 0 1 91.0625 63.693359 C 91.031175 63.51182 90.993889 63.33259 90.955078 63.154297 z M 91.097656 63.916016 A 14 20 45 0 1 91.167969 64.417969 C 91.148372 64.249034 91.12342 64.08249 91.097656 63.916016 z M 91.1875 64.617188 A 14 20 45 0 1 91.234375 65.158203 C 91.223052 64.976458 91.205649 64.796438 91.1875 64.617188 z M 91.244141 65.402344 A 14 20 45 0 1 91.261719 65.865234 C 91.259541 65.709698 91.251128 65.556288 91.244141 65.402344 z M 91.257812 66.283203 A 14 20 45 0 1 91.251953 66.646484 C 91.256419 66.524481 91.256196 66.404372 91.257812 66.283203 z M 90.126953 72.263672 A 14 20 45 0 1 90.083984 72.378906 C 90.097913 72.340432 90.113268 72.302141 90.126953 72.263672 z M 89.474609 73.890625 A 14 20 45 0 1 89.380859 74.091797 C 89.411544 74.024537 89.44466 73.95793 89.474609 73.890625 z M 88.6875 75.494141 A 14 20 45 0 1 88.53125 75.777344 C 88.583507 75.682782 88.636705 75.588912 88.6875 75.494141 z M 87.736328 77.119141 A 14 20 45 0 1 87.566406 77.382812 C 87.623627 77.294928 87.680395 77.207318 87.736328 77.119141 z M 86.632812 78.726562 A 14 20 45 0 1 86.476562 78.935547 C 86.529226 78.865868 86.580986 78.796505 86.632812 78.726562 z M 83.900391 81.900391 A 14 20 45 0 1 82.150391 83.498047 C 82.745639 82.99371 83.333138 82.467643 83.900391 81.900391 z M 81.591797 83.947266 A 14 20 45 0 1 80.236328 84.972656 C 80.694105 84.648801 81.145297 84.306383 81.591797 83.947266 z M 79.648438 85.382812 A 14 20 45 0 1 77.837891 86.496094 C 78.447916 86.156796 79.050528 85.782415 79.648438 85.382812 z M 59.861328 86.146484 C 60.288523 86.573205 60.752382 86.949559 61.240234 87.287109 A 14 20 45 0 1 59.861328 86.146484 z M 77.714844 86.568359 A 14 20 45 0 1 75.695312 87.552734 C 76.371313 87.259234 77.045915 86.935545 77.714844 86.568359 z M 61.308594 87.333984 C 61.812723 87.676687 62.344895 87.974552 62.904297 88.224609 A 14 20 45 0 1 61.308594 87.333984 z M 62.904297 88.224609 C 64.058309 88.740461 65.320678 89.060014 66.654297 89.191406 A 14 20 45 0 1 62.904297 88.224609 z M 75.115234 87.787109 A 14 20 45 0 1 73.628906 88.326172 C 74.124315 88.167023 74.619081 87.986674 75.115234 87.787109 z M 72.988281 88.527344 A 14 20 45 0 1 71.142578 88.96875 C 71.753286 88.85609 72.369343 88.704645 72.988281 88.527344 z M 70.873047 89.015625 A 14 20 45 0 1 68.904297 89.238281 C 69.551028 89.204231 70.208445 89.128079 70.873047 89.015625 z M 66.751953 89.201172 C 67.402016 89.260575 68.067168 89.275169 68.746094 89.246094 A 14 20 45 0 1 66.751953 89.201172 z " /><path
       id="path16"
       style="color:#000000;fill:url(#linearGradient21);fill-rule:evenodd;stroke-linejoin:round;-inkscape-stroke:none;paint-order:fill markers stroke"
       d="M 64.267578 35.746094 C 63.015768 35.719444 61.742675 35.821834 60.478516 36.044922 C 55.421871 36.937271 50.286954 39.672029 45.980469 43.978516 C 41.673982 48.285001 38.939224 53.421871 38.046875 58.478516 C 37.154526 63.53516 38.183779 68.711121 41.736328 72.263672 L 57.736328 88.263672 L 59.857422 86.142578 A 14 20 45 0 1 64.101562 62.099609 A 14 20 45 0 1 88.142578 57.857422 L 90.263672 55.736328 L 74.263672 39.736328 C 71.59926 37.071916 68.023006 35.826039 64.267578 35.746094 z " /><path
       id="path45"
       style="color:#000000;fill:none;fill-rule:evenodd;stroke:#000000;stroke-linejoin:round;stroke-opacity:1;paint-order:fill markers stroke;stroke-width:0.9;stroke-dasharray:none"
       d="m 90.263672,55.736328 -16,-16 c -2.664412,-2.664412 -6.240666,-3.910289 -9.996094,-3.990234 -1.25181,-0.02665 -2.524903,0.07574 -3.789062,0.298828 -5.056645,0.892349 -10.191562,3.627107 -14.498047,7.933594 -4.306487,4.306485 -7.041245,9.443355 -7.933594,14.5 -0.892349,5.056644 0.136904,10.232605 3.689453,13.785156 l 16,16"
       sodipodi:nodetypes="cssssssc" /><path
       id="path19"
       style="color:#000000;fill:url(#linearGradient32);fill-opacity:1;fill-rule:evenodd;stroke-linejoin:round;-inkscape-stroke:none;paint-order:fill markers stroke"
       d="m 80.267578,51.746094 c -7.991266,-0.07345 -15.393068,4.507199 -20.366976,10.521921 -4.382019,5.32005 -7.271623,12.511332 -5.729509,19.444367 1.037997,5.135224 5.384428,9.287755 10.52058,10.204641 1.789226,0.611608 0.584745,-0.359776 -0.08035,-1.020546 -1.869425,-1.943805 -3.905136,-3.738297 -5.642734,-5.80084 -3.172746,-4.262578 -2.565398,-10.14721 -0.528295,-14.75787 3.242439,-7.301377 9.843757,-13.247857 17.668364,-15.14087 4.334227,-1.079116 9.427542,-0.326006 12.518298,3.144894 1.826822,1.826822 3.653644,3.653644 5.480466,5.480466 -0.541084,-5.093382 -4.12507,-9.770673 -9.075084,-11.280591 -1.534687,-0.509801 -3.149737,-0.761388 -4.764758,-0.795572 z" /><path
       id="path46"
       style="color:#000000;fill:none;fill-opacity:1;fill-rule:evenodd;stroke:#000000;stroke-linejoin:round;stroke-opacity:1;paint-order:fill markers stroke;stroke-width:0.9;stroke-dasharray:none"
       d="M 94.107422,63.822257 C 93.566338,58.728875 89.982352,54.051584 85.032338,52.541666 83.497651,52.031865 81.882601,51.780278 80.26758,51.746094 h -2e-6 c -7.991266,-0.07345 -15.393068,4.507199 -20.366976,10.521921 -4.382019,5.32005 -7.271623,12.511332 -5.729509,19.444367 1.037997,5.135224 5.384428,9.287755 10.52058,10.204641"
       sodipodi:nodetypes="ccssccc" /><g
       id="g44"
       transform="translate(-1.3956055,4.3418837)"><path
         style="fill:#a72726;fill-opacity:1;stroke:none;stroke-width:0.83205px;stroke-linecap:butt;stroke-linejoin:miter;stroke-opacity:1"
         d="m 57.912758,34.968855 2.688284,-16.831697 3.986068,-0.234634 5.283854,16.362431 c -3.486858,-1.620343 -7.305381,-2.008279 -11.958206,0.7039 z"
         id="path29"
         sodipodi:nodetypes="ccccc" /><path
         style="fill:#92181b;fill-opacity:1;stroke:none;stroke-width:0.83205px;stroke-linecap:butt;stroke-linejoin:miter;stroke-opacity:1"
         d="m 68.488674,32.820594 19.555397,9.592238 -1.805715,2.512896 -23.166827,-4.566446 c 5.20766,-1.857645 6.303083,-4.507351 5.417145,-7.538688 z"
         id="path30"
         inkscape:transform-center-y="5.267949"
         inkscape:transform-center-x="-11.124355"
         sodipodi:nodetypes="ccccc" /><path
         style="fill:#91181b;fill-opacity:1;stroke:none;stroke-width:0.83205px;stroke-linecap:butt;stroke-linejoin:miter;stroke-opacity:1"
         d="m 65.598596,40.21053 -22.24368,7.23946 -2.180354,-2.278263 17.882975,-11.795985 c -1.278961,4.503026 2.348946,5.850334 6.541059,6.834788 z"
         id="path31"
         inkscape:transform-center-y="5.267949"
         inkscape:transform-center-x="11.124355"
         sodipodi:nodetypes="ccccc" /><path
         style="fill:none;fill-opacity:1;stroke:#000000;stroke-width:0.9;stroke-linecap:butt;stroke-linejoin:miter;stroke-opacity:1;stroke-dasharray:none"
         d="m 65.598596,40.21053 -22.24368,7.23946 -2.180354,-2.278263 17.882975,-11.795985 c -1.278961,4.503026 2.348946,5.850334 6.541059,6.834788 z"
         id="path43"
         inkscape:transform-center-y="5.267949"
         inkscape:transform-center-x="11.124355"
         sodipodi:nodetypes="ccccc" /><path
         style="fill:none;fill-opacity:1;stroke:#000000;stroke-width:0.9;stroke-linecap:butt;stroke-linejoin:miter;stroke-opacity:1;stroke-dasharray:none"
         d="m 68.488674,32.820594 19.555397,9.592238 -1.805715,2.512896 -23.166827,-4.566446 c 5.20766,-1.857645 6.303083,-4.507351 5.417145,-7.538688 z"
         id="path42"
         inkscape:transform-center-y="5.267949"
         inkscape:transform-center-x="-11.124355"
         sodipodi:nodetypes="ccccc" /><path
         style="fill:none;fill-opacity:1;stroke:#000000;stroke-width:0.9;stroke-linecap:butt;stroke-linejoin:miter;stroke-opacity:1;stroke-dasharray:none"
         d="m 57.912758,34.968855 2.688284,-16.831697 3.986068,-0.234634 5.283854,16.362431 c -3.486858,-1.620343 -7.305381,-2.008279 -11.958206,0.7039 z"
         id="path41"
         sodipodi:nodetypes="ccccc" /><g
         id="path28"
         transform="matrix(0.99651714,-0.05865831,0.0781074,0.99889737,0.82626288,-2.6386093)"><path
           style="color:#000000;fill:#9c1414;fill-opacity:1;fill-rule:evenodd;stroke-linejoin:round;-inkscape-stroke:none;paint-order:fill markers stroke"
           d="m 60.085937,35.560547 c -2.12382,0 -4.089728,0.570232 -5.664062,1.660156 -1.574334,1.089924 -2.832031,2.866939 -2.832031,4.988281 0,2.121343 1.257697,3.900311 2.832031,4.990235 1.574334,1.089924 3.540242,1.660156 5.664062,1.660156 2.123821,0 4.089729,-0.570232 5.664063,-1.660156 1.574334,-1.089924 2.832031,-2.868892 2.832031,-4.990235 0,-2.121342 -1.257697,-3.898357 -2.832031,-4.988281 -1.574334,-1.089924 -3.540242,-1.660156 -5.664063,-1.660156 z m 0,4.992187 c 1.189885,0 2.22503,0.358013 2.822266,0.771485 0.597237,0.413471 0.681641,0.712004 0.681641,0.884765 0,0.172761 -0.0844,0.471295 -0.681641,0.884766 -0.597236,0.413471 -1.632381,0.773438 -2.822266,0.773437 -1.189884,0 -2.225029,-0.359966 -2.822265,-0.773437 -0.597237,-0.413471 -0.681641,-0.712005 -0.681641,-0.884766 0,-0.172761 0.0844,-0.471294 0.681641,-0.884765 0.597236,-0.413472 1.632381,-0.771485 2.822265,-0.771485 z"
           id="path35" /><path
           style="color:#000000;fill:#9c1414;fill-opacity:1;fill-rule:evenodd;stroke-linejoin:round;-inkscape-stroke:none;paint-order:fill markers stroke"
           d="m 60.085937,35.560547 c -2.12382,0 -4.089728,0.570232 -5.664062,1.660156 -1.574334,1.089924 -2.832031,2.866939 -2.832031,4.988281 0,2.121343 1.257697,3.900311 2.832031,4.990235 1.574334,1.089924 3.540242,1.660156 5.664062,1.660156 2.123821,0 4.089729,-0.570232 5.664063,-1.660156 1.574334,-1.089924 2.832031,-2.868892 2.832031,-4.990235 0,-2.121342 -1.257697,-3.898357 -2.832031,-4.988281 -1.574334,-1.089924 -3.540242,-1.660156 -5.664063,-1.660156 z m 0,4.992187 c 1.189885,0 2.22503,0.358013 2.822266,0.771485 0.597237,0.413471 0.681641,0.712004 0.681641,0.884765 0,0.172761 -0.0844,0.471295 -0.681641,0.884766 -0.597236,0.413471 -1.632381,0.773438 -2.822266,0.773437 -1.189884,0 -2.225029,-0.359966 -2.822265,-0.773437 -0.597237,-0.413471 -0.681641,-0.712005 -0.681641,-0.884766 0,-0.172761 0.0844,-0.471294 0.681641,-0.884765 0.597236,-0.413472 1.632381,-0.771485 2.822265,-0.771485 z"
           id="path37" /><path
           style="color:#000000;fill:none;fill-opacity:1;fill-rule:evenodd;stroke:#000000;stroke-linejoin:round;stroke-opacity:1;paint-order:fill markers stroke;stroke-width:0.9;stroke-dasharray:none"
           d="m 60.085937,35.560547 c -2.12382,0 -4.089728,0.570232 -5.664062,1.660156 -1.574334,1.089924 -2.832031,2.866939 -2.832031,4.988281 0,2.121343 1.257697,3.900311 2.832031,4.990235 1.574334,1.089924 3.540242,1.660156 5.664062,1.660156 2.123821,0 4.089729,-0.570232 5.664063,-1.660156 1.574334,-1.089924 2.832031,-2.868892 2.832031,-4.990235 0,-2.121342 -1.257697,-3.898357 -2.832031,-4.988281 -1.574334,-1.089924 -3.540242,-1.660156 -5.664063,-1.660156 z m 0,4.992187 c 1.189885,0 2.22503,0.358013 2.822266,0.771485 0.597237,0.413471 0.681641,0.712004 0.681641,0.884765 0,0.172761 -0.0844,0.471295 -0.681641,0.884766 -0.597236,0.413471 -1.632381,0.773438 -2.822266,0.773437 -1.189884,0 -2.225029,-0.359966 -2.822265,-0.773437 -0.597237,-0.413471 -0.681641,-0.712005 -0.681641,-0.884766 0,-0.172761 0.0844,-0.471294 0.681641,-0.884765 0.597236,-0.413472 1.632381,-0.771485 2.822265,-0.771485 z"
           id="path44" /></g><path
         style="color:#000000;fill:url(#linearGradient34);fill-rule:evenodd;stroke-width:0.83205;stroke-linejoin:round;-inkscape-stroke:none;paint-order:fill markers stroke"
         d="M 62.431853,15.945209 C 46.506802,16.88261 34.236866,26.649717 35.101013,37.701084 35.965159,48.752454 49.643114,56.99218 65.568166,56.054778 81.493217,55.117377 93.763153,45.350271 92.899006,34.298903 92.03486,23.247534 78.356905,15.007806 62.431853,15.945209 Z m 0.324446,4.149265 C 75.450004,19.34728 86.231101,25.841912 86.919903,34.650852 87.608707,43.459792 77.937425,51.158319 65.24372,51.905512 52.550015,52.652707 41.768918,46.158074 41.080116,37.349134 40.391312,28.540195 50.062595,20.841668 62.756299,20.094474 Z"
         id="path27" /><path
         id="path36"
         style="fill:#000000;fill-opacity:0.3;stroke:none;stroke-width:1px;stroke-linecap:butt;stroke-linejoin:miter;stroke-opacity:1"
         d="m 69.253694,30.684469 c 1.806191,2.605963 1.741658,5.605057 -1.321664,8.480258 -3.037914,2.851354 -6.993084,2.711109 -9.961297,1.612495 0.249265,0.196421 0.506665,0.377396 0.773622,0.538214 1.65398,0.996373 3.658777,1.452222 5.775197,1.327643 2.116422,-0.124581 4.02971,-0.810961 5.513428,-1.992029 1.483718,-1.181069 2.598725,-3.03183 2.433033,-5.150831 -0.165693,-2.119002 -1.558339,-3.819377 -3.212319,-4.81575 z" /><path
         id="path39"
         style="fill:#000000;fill-opacity:0.3;stroke:none;stroke-width:1px;stroke-linecap:butt;stroke-linejoin:miter;stroke-opacity:1"
         d="m 88.677413,24.980171 c 2.103405,2.832931 4.096516,9.765274 1.539501,14.977913 -3.119063,6.358412 -7.345847,8.599912 -10.552861,10.386817 -10.7968,6.015832 -25.227227,4.842849 -34.898861,1.074822 5.509787,3.29453 12.877341,5.10148 20.802456,4.634981 15.925035,-0.9374 28.195837,-10.703694 27.331691,-21.755051 -0.269248,-3.443355 -1.78436,-6.614583 -4.221926,-9.319482 z" /><path
         style="color:#000000;fill:none;fill-rule:evenodd;stroke:#000000;stroke-width:0.9;stroke-linejoin:round;stroke-opacity:1;paint-order:fill markers stroke;stroke-dasharray:none"
         d="M 62.431853,15.945209 C 46.506802,16.88261 34.236866,26.649717 35.101013,37.701084 35.965159,48.752454 49.643114,56.99218 65.568166,56.054778 81.493217,55.117377 93.763153,45.350271 92.899006,34.298903 92.03486,23.247534 78.356905,15.007806 62.431853,15.945209 Z m 0.324446,4.149265 C 75.450004,19.34728 86.231101,25.841912 86.919903,34.650852 87.608707,43.459792 77.937425,51.158319 65.24372,51.905512 52.550015,52.652707 41.768918,46.158074 41.080116,37.349134 40.391312,28.540195 50.062595,20.841668 62.756299,20.094474 Z"
         id="path40" /></g></g></svg>
