<?xml version="1.0" encoding="UTF-8" standalone="no"?>
<svg
   width="128"
   height="128"
   viewBox="0 0 128 128"
   version="1.1"
   id="svg958"
   inkscape:version="1.3 (0e150ed6c4, 2023-07-21)"
   sodipodi:docname="template-libreoffice-base.svg"
   xmlns:inkscape="http://www.inkscape.org/namespaces/inkscape"
   xmlns:sodipodi="http://sodipodi.sourceforge.net/DTD/sodipodi-0.dtd"
   xmlns:xlink="http://www.w3.org/1999/xlink"
   xmlns="http://www.w3.org/2000/svg"
   xmlns:svg="http://www.w3.org/2000/svg"
   xmlns:rdf="http://www.w3.org/1999/02/22-rdf-syntax-ns#"
   xmlns:cc="http://creativecommons.org/ns#"
   xmlns:dc="http://purl.org/dc/elements/1.1/">
  <defs
     id="defs952">
    <linearGradient
       id="linearGradient21"
       gradientUnits="userSpaceOnUse"
       x1="108.00134"
       x2="20.001341"
       y1="122"
       y2="6"
       gradientTransform="translate(-170.84645,-38.75348)">
      <stop
         offset="0"
         stop-color="#e6e6e6"
         id="stop20" />
      <stop
         offset="1"
         stop-color="#fff"
         id="stop21"
         style="stop-color:#ffffff;stop-opacity:1;" />
    </linearGradient>
    <linearGradient
       id="linearGradient1617"
       inkscape:collect="always">
      <stop
         id="stop1613"
         offset="0"
         style="stop-color:#ffffe8;stop-opacity:1" />
      <stop
         id="stop1615"
         offset="1"
         style="stop-color:#ffe896;stop-opacity:1" />
    </linearGradient>
    <linearGradient
       gradientTransform="matrix(3.7000536,0,0,3.7000536,1.8182381,1.4153997)"
       gradientUnits="userSpaceOnUse"
       y2="30.691668"
       x2="25.4"
       y1="3.175"
       x1="10.583333"
       id="linearGradient1619"
       xlink:href="#linearGradient1617"
       inkscape:collect="always" />
    <inkscape:perspective
       id="perspective1523-9"
       inkscape:persp3d-origin="-68.877233 : 1121.3238 : 1"
       inkscape:vp_z="-51.9439 : 1126.9682 : 1"
       inkscape:vp_y="-35.010567 : 1300.5349 : 1"
       inkscape:vp_x="-255.1439 : 1160.8349 : 1"
       sodipodi:type="inkscape:persp3d" />
    <linearGradient
       id="k"
       gradientTransform="matrix(7.99974,0,0,7.9977797,-1006.4841,-7802.2803)"
       gradientUnits="userSpaceOnUse"
       x1="138.33015"
       x2="130.44659"
       xlink:href="#b-4"
       y1="990.69482"
       y2="976.716" />
    <linearGradient
       id="b-4">
      <stop
         offset="0"
         stop-color="#8e03a3"
         id="stop1" />
      <stop
         offset="1"
         stop-color="#c254d2"
         id="stop2" />
    </linearGradient>
    <linearGradient
       id="f-4"
       gradientUnits="userSpaceOnUse"
       x1="108.00134"
       x2="20.001341"
       y1="122"
       y2="6"
       gradientTransform="translate(-170.84645,-38.75348)">
      <stop
         offset="0"
         stop-color="#e6e6e6"
         id="stop10-30" />
      <stop
         offset="1"
         stop-color="#fff"
         id="stop11-7" />
    </linearGradient>
    <linearGradient
       id="e-8"
       gradientTransform="matrix(1,0,0,1.00001,-1155.5358,1168.4719)"
       gradientUnits="userSpaceOnUse"
       x1="1273.0009"
       x2="1169.0009"
       xlink:href="#b-4"
       y1="-1040.6349"
       y2="-1168.6337" />
    <linearGradient
       id="d-8"
       gradientUnits="userSpaceOnUse"
       x1="38.000729"
       x2="88.000732"
       y1="79.980797"
       y2="79.980797"
       gradientTransform="translate(-170.84645,-38.75348)">
      <stop
         offset="0"
         stop-color="#9207a7"
         id="stop5-4" />
      <stop
         offset=".27254906"
         stop-color="#cd6cc4"
         id="stop6-3" />
      <stop
         offset=".50966245"
         stop-color="#ad3cbe"
         id="stop7-1" />
      <stop
         offset=".83376038"
         stop-color="#bc2ad2"
         id="stop8-4" />
      <stop
         offset="1"
         stop-color="#950ba8"
         id="stop9-92" />
    </linearGradient>
    <linearGradient
       id="h"
       gradientTransform="matrix(-2,0,0,2,860.00054,-2063.5036)"
       gradientUnits="userSpaceOnUse"
       x1="386.63177"
       x2="410.49988"
       y1="1068.9539"
       y2="1068.9539">
      <stop
         offset="0"
         stop-color="#e196fb"
         id="stop12-0" />
      <stop
         offset=".13010512"
         stop-color="#f4c7fa"
         id="stop13-6" />
      <stop
         offset=".31360075"
         stop-color="#e091f3"
         id="stop14" />
      <stop
         offset=".44078669"
         stop-color="#d764e9"
         id="stop15" />
      <stop
         offset=".68364757"
         stop-color="#e7adf0"
         id="stop16" />
      <stop
         offset=".75620717"
         stop-color="#e6a9f8"
         id="stop17" />
      <stop
         offset=".88021636"
         stop-color="#e595f2"
         id="stop18" />
      <stop
         offset="1"
         stop-color="#f2cbf8"
         id="stop19" />
    </linearGradient>
    <radialGradient
       id="c-8"
       cx="518.85358"
       cy="730.48431"
       gradientTransform="matrix(1.0052685,0,1.5e-7,0.28297029,-629.43531,-178.95923)"
       gradientUnits="userSpaceOnUse"
       r="22.889727">
      <stop
         offset="0"
         stop-color="#dc85e9"
         id="stop36" />
      <stop
         offset="1"
         stop-color="#f2cbf8"
         id="stop37" />
    </radialGradient>
    <linearGradient
       id="a-9"
       gradientUnits="userSpaceOnUse"
       x1="117.00146"
       x2="12.00143"
       xlink:href="#b-4"
       y1="127.8783"
       y2="0.0766"
       gradientTransform="translate(1.46371,-0.173411)" />
    <linearGradient
       inkscape:collect="always"
       xlink:href="#h"
       id="linearGradient40"
       gradientUnits="userSpaceOnUse"
       gradientTransform="matrix(-2,0,0,2,861.46425,-2063.677)"
       x1="386.63177"
       y1="1068.9539"
       x2="410.49988"
       y2="1068.9539" />
    <linearGradient
       inkscape:collect="always"
       xlink:href="#h"
       id="linearGradient153"
       gradientUnits="userSpaceOnUse"
       gradientTransform="matrix(-2,0,0,2,861.46425,-2063.677)"
       x1="386.63177"
       y1="1068.9539"
       x2="410.49988"
       y2="1068.9539" />
    <linearGradient
       inkscape:collect="always"
       xlink:href="#h"
       id="linearGradient154"
       gradientUnits="userSpaceOnUse"
       gradientTransform="matrix(-2,0,0,2,861.46425,-2063.677)"
       x1="386.63177"
       y1="1068.9539"
       x2="410.49988"
       y2="1068.9539" />
    <linearGradient
       inkscape:collect="always"
       xlink:href="#linearGradient21"
       id="linearGradient188"
       gradientUnits="userSpaceOnUse"
       gradientTransform="translate(1.46371,-0.173411)"
       x1="98.657448"
       y1="121.25211"
       x2="35.59103"
       y2="9.4523668" />
    <linearGradient
       inkscape:collect="always"
       xlink:href="#b-4"
       id="linearGradient189"
       gradientUnits="userSpaceOnUse"
       gradientTransform="matrix(1,0,0,1.00001,-1155.5358,1168.4719)"
       x1="1273.0009"
       y1="-1040.6349"
       x2="1169.0009"
       y2="-1168.6337" />
    <linearGradient
       inkscape:collect="always"
       xlink:href="#d-8"
       id="linearGradient190"
       gradientUnits="userSpaceOnUse"
       gradientTransform="translate(1.46371,-0.173411)"
       x1="38.000729"
       y1="79.980797"
       x2="88.000732"
       y2="79.980797" />
    <linearGradient
       inkscape:collect="always"
       xlink:href="#h"
       id="linearGradient191"
       gradientUnits="userSpaceOnUse"
       gradientTransform="matrix(-2,0,0,2,861.46425,-2063.677)"
       x1="386.63177"
       y1="1068.9539"
       x2="410.49988"
       y2="1068.9539" />
    <linearGradient
       inkscape:collect="always"
       xlink:href="#h"
       id="linearGradient192"
       gradientUnits="userSpaceOnUse"
       gradientTransform="matrix(-2,0,0,2,861.46425,-2063.677)"
       x1="386.63177"
       y1="1068.9539"
       x2="410.49988"
       y2="1068.9539" />
    <linearGradient
       inkscape:collect="always"
       xlink:href="#h"
       id="linearGradient193"
       gradientUnits="userSpaceOnUse"
       gradientTransform="matrix(-2,0,0,2,861.46425,-2063.677)"
       x1="386.63177"
       y1="1068.9539"
       x2="410.49988"
       y2="1068.9539" />
    <radialGradient
       inkscape:collect="always"
       xlink:href="#c-8"
       id="radialGradient193"
       gradientUnits="userSpaceOnUse"
       gradientTransform="matrix(1.0052685,0,1.5e-7,0.28297029,-457.12515,-140.37916)"
       cx="518.85358"
       cy="730.48431"
       r="22.889727" />
    <linearGradient
       inkscape:collect="always"
       xlink:href="#b-4"
       id="linearGradient194"
       gradientUnits="userSpaceOnUse"
       gradientTransform="translate(1.46371,-0.173411)"
       x1="117.00146"
       y1="127.8783"
       x2="12.00143"
       y2="0.0766" />
    <linearGradient
       inkscape:collect="always"
       xlink:href="#f-4"
       id="linearGradient195"
       gradientUnits="userSpaceOnUse"
       gradientTransform="translate(1.46371,-0.173411)"
       x1="103.23856"
       y1="121.10698"
       x2="26.252501"
       y2="15.525578" />
    <linearGradient
       inkscape:collect="always"
       xlink:href="#d-8"
       id="linearGradient196"
       gradientUnits="userSpaceOnUse"
       gradientTransform="translate(1.46371,-0.173411)"
       x1="38.000729"
       y1="79.980797"
       x2="88.000732"
       y2="79.980797" />
    <radialGradient
       inkscape:collect="always"
       xlink:href="#c-8"
       id="radialGradient196"
       gradientUnits="userSpaceOnUse"
       gradientTransform="matrix(1.0052685,0,1.5e-7,0.28297029,-457.12515,-140.37916)"
       cx="518.85358"
       cy="730.48431"
       r="22.889727" />
  </defs>
  <sodipodi:namedview
     inkscape:bbox-nodes="true"
     inkscape:snap-bbox-edge-midpoints="false"
     inkscape:bbox-paths="false"
     inkscape:snap-bbox="true"
     inkscape:snap-grids="false"
     units="px"
     showgrid="false"
     inkscape:document-rotation="0"
     inkscape:current-layer="layer1"
     inkscape:document-units="mm"
     inkscape:cy="64"
     inkscape:cx="63.92399"
     inkscape:zoom="6.578125"
     inkscape:pageshadow="2"
     inkscape:pageopacity="0.0"
     borderopacity="1.0"
     bordercolor="#666666"
     pagecolor="#ffffff"
     id="base"
     inkscape:pagecheckerboard="0"
     showguides="true"
     inkscape:guide-bbox="true"
     guidetolerance="10000"
     inkscape:snap-tangential="true"
     inkscape:snap-perpendicular="true"
     inkscape:window-width="1920"
     inkscape:window-height="1119"
     inkscape:window-x="0"
     inkscape:window-y="0"
     inkscape:window-maximized="1"
     inkscape:snap-to-guides="false"
     inkscape:snap-intersection-paths="false"
     inkscape:snap-bbox-midpoints="false"
     inkscape:snap-nodes="true"
     inkscape:object-paths="false"
     inkscape:showpageshadow="2"
     inkscape:deskcolor="#d1d1d1">
    <inkscape:grid
       id="grid1521"
       type="xygrid"
       empcolor="#ff2624"
       empopacity="0.2"
       originx="0"
       originy="0"
       spacingy="1"
       spacingx="1"
       units="px"
       visible="false"
       empspacing="4" />
  </sodipodi:namedview>
  <metadata
     id="metadata955">
    <rdf:RDF>
      <cc:Work
         rdf:about="">
        <dc:format>image/svg+xml</dc:format>
        <dc:type
           rdf:resource="http://purl.org/dc/dcmitype/StillImage" />
      </cc:Work>
    </rdf:RDF>
  </metadata>
  <g
     id="layer1"
     inkscape:groupmode="layer"
     inkscape:label="Layer 1">
    <path
       d="M 37.05474,9.278956 13.56591,99.312647 100.12116,121.0787 109.90537,44.759495 83.782698,14.257945 Z"
       fill="url(#f)"
       id="path173"
       style="fill:url(#linearGradient195)"
       sodipodi:nodetypes="cccccc" />
    <g
       inkscape:corner7="-0.053832406 : -0.037633691 : 0.25907482 : 1"
       inkscape:corner0="0.069364932 : 0.12047969 : 0 : 1"
       inkscape:perspectiveID="#perspective1523-9"
       style="fill:#216778;stroke-width:1.2;stroke-linecap:square"
       id="g1525"
       sodipodi:type="inkscape:box3d" />
    <path
       style="fill:#000000;fill-opacity:0.196078;stroke:none;stroke-width:2.74112;stroke-miterlimit:4;stroke-dasharray:none;stroke-opacity:1;paint-order:markers stroke fill"
       d="M 100.12116,121.0787 123.61649,85.835695 100.12116,78.00392 Z"
       id="path1768"
       inkscape:connector-curvature="0"
       sodipodi:nodetypes="cccc" />
    <path
       sodipodi:nodetypes="ccccc"
       id="path1611"
       d="M 37.061249,9.2471797 113.40922,17.43532 100.11814,121.08346 13.565908,99.312647 Z"
       style="fill:url(#linearGradient1619);fill-opacity:1;stroke:none;stroke-width:1.66425;stroke-linecap:butt;stroke-linejoin:miter;stroke-miterlimit:4;stroke-dasharray:none;stroke-opacity:1" />
    <g
       transform="matrix(3.7795276,0,0,3.7795276,-29.848286,-1055.3635)"
       id="g6682" />
    <g
       aria-label="?"
       id="text3832"
       style="font-weight:bold;font-size:25.4px;line-height:0.6;font-family:Arial;-inkscape-font-specification:'Arial Bold';text-align:center;text-anchor:middle;fill:#0a0a96;fill-opacity:1;stroke:none;stroke-width:0.449792;stroke-linecap:square;stroke-miterlimit:4;stroke-dasharray:none"
       transform="scale(3.7795276)" />
    <g
       transform="matrix(3.7795276,0,0,3.7795276,-9.4848633e-7,-4.0000003)"
       id="g886" />
    <g
       transform="matrix(3.7795276,0,0,3.7795276,117.75,-29.25)"
       style="font-weight:600;font-size:14.1111px;line-height:0.8;font-family:'URW Bookman';-inkscape-font-specification:'URW Bookman Semi-Bold';letter-spacing:-0.529167px;fill:#8a6f5e;fill-opacity:1;stroke:none;stroke-width:1.00542;stroke-linecap:square;stroke-miterlimit:4;stroke-dasharray:none;stroke-opacity:1"
       id="text1154"
       aria-label="cpp" />
    <g
       style="font-style:normal;font-variant:normal;font-weight:normal;font-stretch:normal;font-size:16.1802px;line-height:0.8;font-family:'Times New Roman';-inkscape-font-specification:'Times New Roman, ';fill:#191996;fill-opacity:1;stroke:none;stroke-width:1.15283;stroke-linecap:square;stroke-miterlimit:4;stroke-dasharray:none;stroke-opacity:1"
       id="text1180"
       aria-label="?"
       transform="scale(3.7795276)" />
    <g
       style="font-style:normal;font-variant:normal;font-weight:normal;font-stretch:normal;font-size:24.855px;line-height:0.8;font-family:'Times New Roman';-inkscape-font-specification:'Times New Roman, ';fill:#191996;fill-opacity:1;stroke:none;stroke-width:0.983845;stroke-linecap:square;stroke-miterlimit:4;stroke-dasharray:none;stroke-opacity:1"
       id="text1190"
       aria-label="f"
       transform="scale(3.7795276)" />
    <g
       style="font-style:italic;font-variant:normal;font-weight:normal;font-stretch:normal;font-size:29.0422px;line-height:0.8;font-family:'Times New Roman';-inkscape-font-specification:'Times New Roman, Italic';fill:#191996;fill-opacity:1;stroke:none;stroke-width:1.14959;stroke-linecap:square;stroke-miterlimit:4;stroke-dasharray:none;stroke-opacity:1"
       id="text1218"
       aria-label="?"
       transform="scale(3.7795276)" />
    <g
       style="font-style:italic;font-variant:normal;font-weight:normal;font-stretch:normal;font-size:29.1244px;line-height:0.8;font-family:'Times New Roman';-inkscape-font-specification:'Times New Roman,  Italic';fill:#191996;fill-opacity:1;stroke:none;stroke-width:1.15284;stroke-linecap:square;stroke-miterlimit:4;stroke-dasharray:none;stroke-opacity:1"
       id="text1298"
       aria-label="?"
       transform="scale(3.7795276)" />
    <g
       id="g29513"
       transform="matrix(3.7795276,0,0,3.7795276,-0.15289495,5.8448117)">
      <g
         aria-label="js"
         id="g29511"
         style="font-style:italic;font-size:19.05px;font-family:Georgia;-inkscape-font-specification:'Georgia Italic';fill-opacity:0.2;stroke-width:0.502708;stroke-linecap:square;stroke-linejoin:round;stroke-opacity:0.05" />
    </g>
    <path
       d="m 83.782698,14.257945 26.122672,30.501553 3.50687,-27.328931 z"
       fill="url(#k)"
       id="path14"
       style="fill:url(#k)"
       sodipodi:nodetypes="cccc" />
    <path
       d="m 38.77669,43.558529 -0.56012,2.299075 11.42961,1.84756 0.52661,-2.345461 z m 13.05609,2.063539 -0.52161,2.352237 12.75399,2.061643 0.48227,-2.404306 z m 14.44607,2.283228 -0.47677,2.41142 13.311007,2.151683 0.43353,-2.466109 z m 15.07533,2.382683 -0.427486,2.473584 12.961299,2.095154 0.383223,-2.527177 z m -43.51334,-2.888128 -0.75709,3.107626 11.49715,1.94229 0.71198,-3.171072 z m 13.12039,2.152556 -0.70524,3.180342 12.83335,2.168023 0.65223,-3.251597 z m 14.52094,2.382334 -0.64481,3.261335 13.398307,2.263464 0.586491,-3.336214 z m 15.157647,2.486793 -0.578336,3.346453 13.050717,2.204743 0.518591,-3.419872 z M 36.70235,52.072971 35.9338,55.227616 47.49925,57.26732 48.22219,54.047429 Z m 13.19831,2.262142 -0.71612,3.229427 12.91366,2.277478 0.66248,-3.302743 z m 14.61176,2.504404 -0.65498,3.312764 13.486719,2.378543 0.595921,-3.389855 z m 15.257578,2.615093 -0.587658,3.400399 13.14134,2.317632 0.527107,-3.476031 z M 35.54662,56.816886 34.76635,60.019626 46.40084,62.15952 47.135,58.889674 Z m 13.27709,2.374844 -0.72727,3.279657 12.99492,2.390111 0.67299,-3.355104 z m 14.70365,2.630011 -0.66539,3.36542 13.57625,2.497035 0.60558,-3.4448 z m 15.358779,2.74719 -0.597209,3.45566 13.233194,2.433938 0.535835,-3.533583 z m -44.512899,-2.935713 -0.79226,3.251943 11.70429,2.242953 0.74564,-3.320973 z m 13.35674,2.490766 -0.73866,3.331067 13.07713,2.506037 0.68374,-3.408722 z m 14.79665,2.759279 -0.67606,3.419341 13.666928,2.619062 0.615475,-3.501092 z m 15.461266,2.883217 -0.606994,3.51228 13.326303,2.553786 0.544781,-3.592578 z m -44.806086,-3.242841 -0.80452,3.302288 11.77486,2.348979 0.75739,-3.373307 z m 13.43728,2.610017 -0.75034,3.383696 13.16033,2.625367 0.69476,-3.463634 z m 14.89074,2.892334 -0.68697,3.47457 13.758766,2.744749 0.625616,-3.558774 z m 15.565086,3.023316 -0.617021,3.570302 13.42069,2.677306 0.553953,-3.653063 z m -45.103006,-3.559437 -0.81708,3.353813 11.84623,2.458075 0.76941,-3.426889 z m 13.51871,2.732714 -0.76229,3.437582 13.24453,2.748223 0.70604,-3.519884 z m 14.98597,3.029311 -0.69816,3.531146 13.851799,2.87423 0.636009,-3.617895 z m 15.670242,3.16763 -0.627299,3.629774 13.516383,2.804632 0.563358,-3.715088 z m -45.403722,-3.885836 -0.82993,3.406551 11.91837,2.570349 0.78174,-3.481759 z m 13.60104,2.858973 -0.77452,3.492765 13.32974,2.874729 0.7176,-3.577515 z m 15.08235,3.170347 -0.70962,3.589117 13.946036,3.007639 0.646663,-3.6785 z m 15.776767,3.316314 -0.637836,3.690744 13.613406,2.935905 0.573005,-3.778706 z M 29.49496,81.656925 28.65188,85.11747 40.6432,87.803379 41.43755,84.265423 Z m 13.6843,2.988921 -0.78706,3.549289 13.41598,3.005016 0.72945,-3.636574 z m 15.1799,3.315588 -0.72137,3.648525 14.04149,3.145124 0.657592,-3.740641 z m 15.884671,3.469525 -0.648641,3.753264 13.711785,3.071272 0.582902,-3.843971 z M 28.227,86.861473 l -0.64156,2.633373 12.05273,2.784804 0.60464,-2.692997 z m 13.76849,3.122686 -0.59911,2.701728 13.48864,3.116574 0.55542,-2.768994 z m 15.27862,3.465183 -0.54929,2.778208 14.12201,3.262914 0.50088,-2.849239 z m 15.994009,3.62743 -0.494089,2.858975 13.794824,3.187313 0.444149,-2.92896 z"
       fill="url(#e)"
       opacity="0.6"
       id="path21"
       style="fill:url(#linearGradient189)" />
    <path
       id="path20"
       style="fill:url(#linearGradient188)"
       d="M 37.054688 9.2792969 L 13.566406 99.3125 L 100.12109 121.07812 L 109.90625 44.759766 L 83.783203 14.257812 L 37.054688 9.2792969 z " />
    <path
       style="fill:none;stroke:#742080;stroke-width:1.9;stroke-linecap:butt;stroke-linejoin:miter;stroke-miterlimit:4;stroke-dasharray:none;stroke-opacity:1"
       d="M 37.064265,9.2424277 113.41224,17.430567 100.12116,121.0787 13.568925,99.3079 Z"
       id="path1553"
       sodipodi:nodetypes="ccccc" />
    <path
       d="m 64.29242,53.390303 c -5.78874,-0.963558 -11.08022,-1.239242 -15.0415,-0.904987 -1.96865,0.166198 -3.58914,0.460766 -4.86409,0.956436 -1.27331,0.495054 -2.33024,1.244963 -2.60093,2.401273 l -0.0256,-0.0045 -5.13509,21.931594 -0.10032,0.428489 c -0.28088,1.199588 0.33761,2.338545 1.32025,3.338282 0.98807,1.005485 2.44129,1.977824 4.25951,2.931984 3.67752,1.929813 8.91913,3.768825 14.981,5.109677 6.17141,1.365085 11.96336,1.943096 16.402142,1.74773 2.234021,-0.09834 4.125821,-0.380839 5.566864,-0.909108 1.443069,-0.528899 2.571779,-1.362405 2.782874,-2.662984 l 3.92508,-24.182793 -0.02908,-0.0051 C 85.936048,62.318922 85.133535,61.186943 84.000917,60.234528 82.87482,59.287562 81.315533,58.422276 79.361264,57.568601 75.495639,55.880086 70.180288,54.370368 64.292768,53.39037 Z m -0.33526,1.683468 c 5.78279,0.977145 11.009542,2.488014 14.681852,4.105472 1.855581,0.817318 3.306794,1.65559 4.208992,2.419663 0.906335,0.767737 1.121621,1.350799 1.072377,1.648742 -0.04929,0.298222 -0.44082,0.776575 -1.548346,1.194624 -1.106555,0.417711 -2.763223,0.718287 -4.802569,0.859817 -4.05425,0.281558 -9.569166,-0.07913 -15.420726,-1.14772 -5.75362,-1.050703 -10.76622,-2.592058 -14.15811,-4.183709 -1.6788,-0.78768 -2.96345,-1.585648 -3.73849,-2.306435 -0.77168,-0.717513 -0.92697,-1.261338 -0.86253,-1.539367 0.0643,-0.277799 0.44821,-0.725145 1.47361,-1.123053 1.02625,-0.398207 2.54925,-0.694966 4.4238,-0.849992 3.77045,-0.311758 8.98279,-0.03906 14.67014,0.921958 z M 42.83312,58.64604 c 0.0959,0.101476 0.17564,0.216012 0.27988,0.313693 0.96475,0.903521 2.34616,1.73963 4.11552,2.576721 3.57719,1.692331 8.69152,3.270152 14.57334,4.359706 5.98417,1.108515 11.6138,1.499855 15.899647,1.209992 2.156456,-0.14587 3.933563,-0.439873 5.318269,-0.961291 0.150267,-0.05695 0.281926,-0.139417 0.425172,-0.20274 l -0.776576,4.697175 -0.07282,0.440453 c -0.05812,0.351561 -0.487732,0.817498 -1.601932,1.234411 -1.113107,0.416504 -2.770322,0.718672 -4.8268,0.845777 -4.088211,0.252571 -9.647961,-0.161009 -15.551141,-1.307625 -5.80337,-1.127229 -10.84907,-2.75232 -14.2618,-4.410412 -1.6888,-0.820583 -2.96563,-1.651326 -3.74178,-2.39302 -0.77267,-0.738373 -0.96226,-1.289408 -0.88651,-1.616752 l 0.0949,-0.410143 z m -1.7035,7.36149 c 0.0826,0.08752 0.15214,0.176737 0.24106,0.262258 0.97501,0.938729 2.40569,1.838038 4.19384,2.713811 3.61574,1.770803 8.762,3.42838 14.70664,4.598615 6.04947,1.190871 11.72115,1.641089 16.063418,1.38058 2.185096,-0.131104 4.03438,-0.43106 5.441548,-0.956457 0.128736,-0.04783 0.238883,-0.107117 0.362043,-0.160065 l -0.795944,4.814323 -0.07464,0.451483 c -0.05958,0.36037 -0.494997,0.834867 -1.622409,1.252974 -1.126292,0.417692 -2.802341,0.713179 -4.881507,0.825409 -4.132997,0.222978 -9.750987,-0.250861 -15.712967,-1.479944 -5.85997,-1.208051 -10.95193,-2.919966 -14.39362,-4.651034 -1.70292,-0.856593 -2.98967,-1.719926 -3.77105,-2.487483 -0.77783,-0.76408 -0.96749,-1.330892 -0.88995,-1.665957 l 0.0971,-0.419811 z m -1.7436,7.534768 c 0.0831,0.09049 0.15305,0.182614 0.24257,0.271114 0.98153,0.971456 2.4234,1.906546 4.22649,2.82071 3.6464,1.848673 8.83995,3.595037 14.84266,4.848694 6.10986,1.276035 11.84106,1.788649 16.231067,1.559867 2.209291,-0.115148 4.079594,-0.406639 5.503498,-0.933518 0.130267,-0.04796 0.241768,-0.107846 0.36641,-0.16111 l -0.816045,4.935909 -0.07654,0.462932 c -0.06109,0.369515 -0.502475,0.852858 -1.643414,1.272087 -1.139793,0.418808 -2.835106,0.70718 -4.937457,0.80374 -4.178764,0.191813 -9.856174,-0.345179 -15.878084,-1.660483 -5.91761,-1.292522 -11.05661,-3.095028 -14.52767,-4.90213 -1.71724,-0.894103 -3.01402,-1.791359 -3.80065,-2.585807 -0.78303,-0.790808 -0.97271,-1.373996 -0.89333,-1.717058 l 0.0995,-0.429825 z"
       fill="url(#d)"
       id="path22"
       style="fill:url(#linearGradient190)" />
    <path
       d="m 64.29242,53.390303 c -5.78874,-0.963558 -11.08022,-1.239242 -15.0415,-0.904987 -1.96865,0.166198 -3.58914,0.460766 -4.86409,0.956436 -1.27331,0.495054 -2.35597,1.240487 -2.6267,2.396745 -1.71116,7.078041 -3.3868,14.465549 -5.13492,21.931624 l -0.10032,0.428489 c -0.28088,1.199588 0.33761,2.338545 1.32025,3.338282 0.98807,1.005485 2.44129,1.977824 4.25951,2.931984 3.67752,1.929813 8.91913,3.768825 14.981,5.109677 6.17141,1.365085 11.96336,1.943096 16.402142,1.74773 2.234021,-0.09834 4.125821,-0.380839 5.566864,-0.909108 1.443069,-0.528899 2.571779,-1.362405 2.782874,-2.662984 L 85.76261,63.571398 C 85.951755,62.406061 84.913229,61.016418 84.000919,60.234519 82.874822,59.287553 81.315535,58.422267 79.361266,57.568592 75.495641,55.880077 70.18029,54.370359 64.29277,53.390361 Z m -0.33526,1.683468 c 5.78279,0.977145 11.009542,2.488014 14.681852,4.105472 1.855581,0.817318 3.306794,1.65559 4.208992,2.419663 0.906335,0.767737 1.121621,1.350799 1.072377,1.648742 -0.04929,0.298222 -0.44082,0.776575 -1.548346,1.194624 -1.106555,0.417711 -2.763223,0.718287 -4.802569,0.859817 -4.05425,0.281558 -9.569166,-0.07913 -15.420726,-1.14772 -5.75362,-1.050703 -10.76622,-2.592058 -14.15811,-4.183709 -1.6788,-0.78768 -2.96345,-1.585648 -3.73849,-2.306435 -0.77168,-0.717513 -0.92697,-1.261338 -0.86253,-1.539367 0.0643,-0.277799 0.44821,-0.725145 1.47361,-1.123053 1.02625,-0.398207 2.54925,-0.694966 4.4238,-0.849992 3.77045,-0.311758 8.98279,-0.03906 14.67014,0.921958 z M 42.83312,58.64604 c 0.0959,0.101476 0.17564,0.216012 0.27988,0.313693 0.96475,0.903521 2.34616,1.73963 4.11552,2.576721 3.57719,1.692331 8.69152,3.270152 14.57334,4.359706 5.98417,1.108515 11.6138,1.499855 15.899647,1.209992 2.156456,-0.14587 3.933563,-0.439873 5.318269,-0.961291 0.150267,-0.05695 0.281926,-0.139417 0.425172,-0.20274 l -0.776576,4.697175 -0.07282,0.440453 c -0.05812,0.351561 -0.487732,0.817498 -1.601932,1.234411 -1.113107,0.416504 -2.770322,0.718672 -4.8268,0.845777 -4.088211,0.252571 -9.647961,-0.161009 -15.551141,-1.307625 -5.80337,-1.127229 -10.84907,-2.75232 -14.2618,-4.410412 -1.6888,-0.820583 -2.96563,-1.651326 -3.74178,-2.39302 -0.77267,-0.738373 -0.96226,-1.289408 -0.88651,-1.616752 l 0.0949,-0.410143 z m -1.7035,7.36149 c 0.0826,0.08752 0.15214,0.176737 0.24106,0.262258 0.97501,0.938729 2.40569,1.838038 4.19384,2.713811 3.61574,1.770803 8.762,3.42838 14.70664,4.598615 6.04947,1.190871 11.72115,1.641089 16.063418,1.38058 2.185096,-0.131104 4.03438,-0.43106 5.441548,-0.956457 0.128736,-0.04783 0.238883,-0.107117 0.362043,-0.160065 l -0.795944,4.814323 -0.07464,0.451483 c -0.05958,0.36037 -0.494997,0.834867 -1.622409,1.252974 -1.126292,0.417692 -2.802341,0.713179 -4.881507,0.825409 -4.132997,0.222978 -9.750987,-0.250861 -15.712967,-1.479944 -5.85997,-1.208051 -10.95193,-2.919966 -14.39362,-4.651034 -1.70292,-0.856593 -2.98967,-1.719926 -3.77105,-2.487483 -0.77783,-0.76408 -0.96749,-1.330892 -0.88995,-1.665957 l 0.0971,-0.419811 z m -1.7436,7.534768 c 0.0831,0.09049 0.15305,0.182614 0.24257,0.271114 0.98153,0.971456 2.4234,1.906546 4.22649,2.82071 3.6464,1.848673 8.83995,3.595037 14.84266,4.848694 6.10986,1.276035 11.84106,1.788649 16.231067,1.559867 2.209291,-0.115148 4.079594,-0.406639 5.503498,-0.933518 0.130267,-0.04796 0.241768,-0.107846 0.36641,-0.16111 l -0.816045,4.935909 -0.07654,0.462932 c -0.06109,0.369515 -0.502475,0.852858 -1.643414,1.272087 -1.139793,0.418808 -2.835106,0.70718 -4.937457,0.80374 -4.178764,0.191813 -9.856174,-0.345179 -15.878084,-1.660483 -5.91761,-1.292522 -11.05661,-3.095028 -14.52767,-4.90213 -1.71724,-0.894103 -3.01402,-1.791359 -3.80065,-2.585807 -0.78303,-0.790808 -0.97271,-1.373996 -0.89333,-1.717058 l 0.0995,-0.429825 z"
       fill="none"
       opacity="0.5"
       stroke="#ffffff"
       stroke-width="2"
       id="path23" />
    <path
       d="m 39.05459,71.157989 -1.58067,6.790533 -0.0999,0.429156 c -0.7211,3.097833 8.01731,7.681222 19.89254,10.291454 12.30294,2.704246 23.055307,2.229534 23.603847,-1.118887 l 0.07596,-0.463707 1.201115,-7.331906 z"
       fill="url(#h)"
       id="path24"
       style="fill:url(#linearGradient191)" />
    <path
       d="m 40.79396,63.685716 -1.54409,6.633387 -0.0976,0.41917 c -0.70427,3.025561 7.96148,7.416867 19.72217,9.857194 12.17902,2.527131 22.812306,1.971577 23.347222,-1.293685 l 0.07408,-0.452223 1.171541,-7.151381 z"
       fill="url(#h)"
       id="path25"
       style="fill:url(#linearGradient192)" />
    <path
       d="m 84.684278,64.269477 -1.072331,6.545776 -0.07227,0.441161 c -0.521794,3.185163 -11.038565,3.81746 -23.096026,1.459693 -11.6482,-2.277739 -20.24227,-6.484658 -19.55423,-9.440445 l 0.0953,-0.409529 1.41536,-6.080399 z"
       fill="url(#h)"
       id="path26"
       style="fill:url(#linearGradient193)" />
    <path
       id="i"
       d="m 43.08601,59.42964 -0.76469,3.314327 -0.0802,0.347557 c -0.57828,2.506393 7.35133,6.179209 18.01166,8.242888 11.00219,2.12986 21.499834,1.895904 21.946255,-0.792068 l 0.06189,-0.372636 0.585981,-3.528284 C 80.762689,67.774373 72.689549,68.513748 61.303482,66.394788 50.282712,64.34381 44.310372,61.082798 43.086002,59.42964 Z"
       fill="none"
       opacity="0.35"
       stroke="#ffffff" />
    <path
       id="ellipse26"
       d="m 84.355743,63.325019 c -0.471617,2.865612 -10.619638,3.418222 -22.298403,1.277595 -11.29527,-2.070335 -19.67756,-5.878327 -19.0585,-8.545617 0.61387,-2.644904 9.88862,-3.294743 21.04266,-1.417239 11.526725,1.940238 20.781659,5.84518 20.314243,8.685261 z"
       style="fill:url(#radialGradient193)" />
    <path
       d="m 63.95751,55.072011 c -5.68734,-0.961002 -10.89967,-1.233687 -14.6701,-0.921922 -1.87455,0.155029 -3.39754,0.45179 -4.42379,0.849995 -1.0254,0.397908 -1.40931,0.845212 -1.4736,1.12301 -0.0644,0.278028 0.0908,0.821889 0.86252,1.539395 0.77504,0.720783 2.05969,1.518742 3.73849,2.306414 3.39188,1.591635 8.40447,3.13297 14.15807,4.183656 5.85155,1.068572 11.36645,1.429246 15.420689,1.147681 2.03934,-0.141534 3.696005,-0.442111 4.802556,-0.859822 1.107523,-0.418048 1.499058,-0.896442 1.548349,-1.194662 0.04924,-0.297942 -0.166049,-0.880957 -1.072382,-1.648687 -0.902197,-0.764067 -2.353406,-1.60233 -4.208983,-2.41964 -3.672302,-1.617441 -8.899049,-3.12829 -14.681819,-4.105418 z m -0.1581,0.793837 c 5.40103,0.919049 10.280256,2.256464 13.71996,3.662514 1.736282,0.709626 3.107617,1.430429 3.956784,2.077355 0.852811,0.650174 1.059508,1.144771 1.018506,1.389434 -0.04103,0.244852 -0.397778,0.641868 -1.417836,0.965768 -1.018678,0.323228 -2.560078,0.537911 -4.44787,0.616533 -3.753861,0.156723 -8.863784,-0.25049 -14.317574,-1.239735 -5.36862,-0.973795 -10.0581,-2.328727 -13.25438,-3.70818 -1.58343,-0.683155 -2.81072,-1.369565 -3.55177,-1.980924 -0.73836,-0.609316 -0.8951,-1.072507 -0.84242,-1.301845 0.0526,-0.229186 0.40051,-0.602394 1.34643,-0.913143 0.94648,-0.310654 2.3689,-0.526094 4.11294,-0.61894 3.50765,-0.186973 8.35958,0.1463 13.67723,1.051163 z"
       fill="#ffffff"
       opacity="0.25"
       id="path27" />
    <path
       id="use27"
       d="m 43.08601,68.42964 -0.76469,3.314327 -0.0802,0.347557 c -0.57828,2.506393 7.35133,6.179209 18.01166,8.242888 11.00219,2.12986 21.499834,1.895904 21.946255,-0.792068 l 0.06189,-0.372636 0.585981,-3.528284 C 80.762689,76.774373 72.689549,77.513748 61.30348,75.394788 50.28271,73.34381 44.31037,70.082798 43.086,68.42964 Z"
       fill="none"
       opacity="0.35"
       stroke="#ffffff" />
    <path
       id="use28"
       d="m 43.08601,77.42964 -0.76469,3.314327 -0.0802,0.347557 c -0.57828,2.506393 7.35133,6.179209 18.01166,8.242888 11.00219,2.12986 21.499834,1.895904 21.946255,-0.792068 l 0.06189,-0.372636 0.585981,-3.528284 C 80.762689,85.774373 72.689549,86.513748 61.30348,84.394788 50.28271,82.34381 44.31037,79.082798 43.086,77.42964 Z"
       fill="none"
       opacity="0.35"
       stroke="#ffffff" />
    <path
       d="m 64.29242,53.390303 c -5.78874,-0.963558 -11.08022,-1.239242 -15.0415,-0.904987 -1.96865,0.166198 -3.58914,0.460766 -4.86409,0.956436 -1.27331,0.495054 -2.35597,1.240487 -2.6267,2.396745 -1.71116,7.078041 -3.3868,14.465549 -5.13492,21.931624 l -0.10032,0.428489 c -0.28088,1.199588 0.33761,2.338545 1.32025,3.338282 0.98807,1.005485 2.44129,1.977824 4.25951,2.931984 3.67752,1.929813 8.91913,3.768825 14.981,5.109677 6.17141,1.365085 11.96336,1.943096 16.402142,1.74773 2.234021,-0.09834 4.125821,-0.380839 5.566864,-0.909108 1.443069,-0.528899 2.571779,-1.362405 2.782874,-2.662984 L 85.76261,63.571398 C 85.951755,62.406061 84.913229,61.016418 84.000919,60.234519 82.874822,59.287553 81.315535,58.422267 79.361266,57.568592 75.495641,55.880077 70.18029,54.370359 64.29277,53.390361 Z m -0.33526,1.683468 c 5.78279,0.977145 11.009542,2.488014 14.681852,4.105472 1.855581,0.817318 3.306794,1.65559 4.208992,2.419663 0.906335,0.767737 1.121621,1.350799 1.072377,1.648742 -0.04929,0.298222 -0.44082,0.776575 -1.548346,1.194624 -1.106555,0.417711 -2.763223,0.718287 -4.802569,0.859817 -4.05425,0.281558 -9.569166,-0.07913 -15.420726,-1.14772 -5.75362,-1.050703 -10.76622,-2.592058 -14.15811,-4.183709 -1.6788,-0.78768 -2.96345,-1.585648 -3.73849,-2.306435 -0.77168,-0.717513 -0.92697,-1.261338 -0.86253,-1.539367 0.0643,-0.277799 0.44821,-0.725145 1.47361,-1.123053 1.02625,-0.398207 2.54925,-0.694966 4.4238,-0.849992 3.77045,-0.311758 8.98279,-0.03906 14.67014,0.921958 z M 42.83312,58.64604 c 0.0959,0.101476 0.17564,0.216012 0.27988,0.313693 0.96475,0.903521 2.34616,1.73963 4.11552,2.576721 3.57719,1.692331 8.69152,3.270152 14.57334,4.359706 5.98417,1.108515 11.6138,1.499855 15.899647,1.209992 2.156456,-0.14587 3.933563,-0.439873 5.318269,-0.961291 0.150267,-0.05695 0.281926,-0.139417 0.425172,-0.20274 l -0.776576,4.697175 -0.07282,0.440453 c -0.05812,0.351561 -0.487732,0.817498 -1.601932,1.234411 -1.113107,0.416504 -2.770322,0.718672 -4.8268,0.845777 -4.088211,0.252571 -9.647961,-0.161009 -15.551141,-1.307625 -5.80337,-1.127229 -10.84907,-2.75232 -14.2618,-4.410412 -1.6888,-0.820583 -2.96563,-1.651326 -3.74178,-2.39302 -0.77267,-0.738373 -0.96226,-1.289408 -0.88651,-1.616752 l 0.0949,-0.410143 z m -1.7035,7.36149 c 0.0826,0.08752 0.15214,0.176737 0.24106,0.262258 0.97501,0.938729 2.40569,1.838038 4.19384,2.713811 3.61574,1.770803 8.762,3.42838 14.70664,4.598615 6.04947,1.190871 11.72115,1.641089 16.063418,1.38058 2.185096,-0.131104 4.03438,-0.43106 5.441548,-0.956457 0.128736,-0.04783 0.238883,-0.107117 0.362043,-0.160065 l -0.795944,4.814323 -0.07464,0.451483 c -0.05958,0.36037 -0.494997,0.834867 -1.622409,1.252974 -1.126292,0.417692 -2.802341,0.713179 -4.881507,0.825409 -4.132997,0.222978 -9.750987,-0.250861 -15.712967,-1.479944 -5.85997,-1.208051 -10.95193,-2.919966 -14.39362,-4.651034 -1.70292,-0.856593 -2.98967,-1.719926 -3.77105,-2.487483 -0.77783,-0.76408 -0.96749,-1.330892 -0.88995,-1.665957 l 0.0971,-0.419811 z m -1.7436,7.534768 c 0.0831,0.09049 0.15305,0.182614 0.24257,0.271114 0.98153,0.971456 2.4234,1.906546 4.22649,2.82071 3.6464,1.848673 8.83995,3.595037 14.84266,4.848694 6.10986,1.276035 11.84106,1.788649 16.231067,1.559867 2.209291,-0.115148 4.079594,-0.406639 5.503498,-0.933518 0.130267,-0.04796 0.241768,-0.107846 0.36641,-0.16111 l -0.816045,4.935909 -0.07654,0.462932 c -0.06109,0.369515 -0.502475,0.852858 -1.643414,1.272087 -1.139793,0.418808 -2.835106,0.70718 -4.937457,0.80374 -4.178764,0.191813 -9.856174,-0.345179 -15.878084,-1.660483 -5.91761,-1.292522 -11.05661,-3.095028 -14.52767,-4.90213 -1.71724,-0.894103 -3.01402,-1.791359 -3.80065,-2.585807 -0.78303,-0.790808 -0.97271,-1.373996 -0.89333,-1.717058 l 0.0995,-0.429825 z"
       fill="url(#a)"
       id="path28"
       style="fill:url(#linearGradient194)" />
    <path
       id="path174"
       style="fill:url(#e-8)"
       d="M 38.777344 43.558594 L 38.216797 45.857422 L 49.646484 47.705078 L 50.171875 45.359375 L 38.777344 43.558594 z M 51.832031 45.621094 L 51.310547 47.974609 L 64.064453 50.035156 L 64.546875 47.630859 L 51.832031 45.621094 z M 37.841797 47.400391 L 37.083984 50.507812 L 48.580078 52.449219 L 49.292969 49.279297 L 37.841797 47.400391 z M 66.279297 47.90625 L 65.802734 50.316406 L 79.113281 52.46875 L 79.546875 50.001953 L 66.279297 47.90625 z M 50.960938 49.552734 L 50.255859 52.732422 L 63.089844 54.900391 L 63.742188 51.648438 L 50.960938 49.552734 z M 81.353516 50.287109 L 80.925781 52.761719 L 93.888672 54.857422 L 94.271484 52.330078 L 81.353516 50.287109 z M 65.482422 51.935547 L 64.837891 55.195312 L 78.236328 57.458984 L 78.822266 54.123047 L 65.482422 51.935547 z M 36.703125 52.072266 L 35.933594 55.228516 L 47.5 57.267578 L 48.222656 54.046875 L 36.703125 52.072266 z M 49.900391 54.335938 L 49.183594 57.564453 L 62.097656 59.841797 L 62.759766 56.539062 L 49.900391 54.335938 z M 80.640625 54.421875 L 80.060547 57.767578 L 93.111328 59.972656 L 93.630859 56.552734 L 80.640625 54.421875 z M 35.546875 56.816406 L 34.765625 60.019531 L 46.400391 62.160156 L 47.134766 58.890625 L 35.546875 56.816406 z M 64.511719 56.839844 L 63.857422 60.152344 L 77.34375 62.53125 L 77.939453 59.140625 L 64.511719 56.839844 z M 48.824219 59.191406 L 48.095703 62.470703 L 61.091797 64.861328 L 61.763672 61.505859 L 48.824219 59.191406 z M 79.769531 59.455078 L 79.181641 62.855469 L 92.324219 65.171875 L 92.851562 61.697266 L 79.769531 59.455078 z M 34.373047 61.632812 L 33.580078 64.884766 L 45.285156 67.128906 L 46.03125 63.806641 L 34.373047 61.632812 z M 63.527344 61.822266 L 62.861328 65.1875 L 76.4375 67.683594 L 77.042969 64.240234 L 63.527344 61.822266 z M 47.730469 64.123047 L 46.992188 67.455078 L 60.068359 69.960938 L 60.751953 66.552734 L 47.730469 64.123047 z M 78.886719 64.568359 L 78.289062 68.025391 L 91.521484 70.458984 L 92.058594 66.925781 L 78.886719 64.568359 z M 33.181641 66.523438 L 32.376953 69.826172 L 44.152344 72.175781 L 44.910156 68.800781 L 33.181641 66.523438 z M 62.527344 66.882812 L 61.849609 70.302734 L 75.517578 72.921875 L 76.132812 69.419922 L 62.527344 66.882812 z M 46.619141 69.132812 L 45.869141 72.517578 L 59.029297 75.142578 L 59.724609 71.679688 L 46.619141 69.132812 z M 77.988281 69.765625 L 77.380859 73.279297 L 90.707031 75.832031 L 91.251953 72.240234 L 77.988281 69.765625 z M 31.972656 71.490234 L 31.154297 74.84375 L 43.001953 77.300781 L 43.769531 73.875 L 31.972656 71.490234 z M 61.509766 72.025391 L 60.822266 75.5 L 74.582031 78.246094 L 75.207031 74.6875 L 61.509766 72.025391 z M 45.490234 74.222656 L 44.728516 77.660156 L 57.972656 80.408203 L 58.679688 76.888672 L 45.490234 74.222656 z M 77.074219 75.048828 L 76.457031 78.619141 L 89.878906 81.296875 L 90.431641 77.644531 L 77.074219 75.048828 z M 30.742188 76.533203 L 29.914062 79.939453 L 41.832031 82.509766 L 42.613281 79.029297 L 30.742188 76.533203 z M 60.476562 77.251953 L 59.779297 80.783203 L 73.630859 83.658203 L 74.265625 80.039062 L 60.476562 77.251953 z M 44.34375 79.392578 L 43.570312 82.884766 L 56.898438 85.759766 L 57.617188 82.183594 L 44.34375 79.392578 z M 76.146484 80.419922 L 75.519531 84.048828 L 89.035156 86.853516 L 89.599609 83.138672 L 76.146484 80.419922 z M 29.494141 81.65625 L 28.652344 85.117188 L 40.642578 87.802734 L 41.4375 84.265625 L 29.494141 81.65625 z M 59.425781 82.5625 L 58.716797 86.152344 L 72.662109 89.160156 L 73.310547 85.480469 L 59.425781 82.5625 z M 43.179688 84.646484 L 42.392578 88.195312 L 55.808594 91.199219 L 56.537109 87.564453 L 43.179688 84.646484 z M 75.203125 85.878906 L 74.566406 89.570312 L 88.179688 92.505859 L 88.751953 88.726562 L 75.203125 85.878906 z M 28.226562 86.861328 L 27.585938 89.494141 L 39.638672 92.279297 L 40.242188 89.585938 L 28.226562 86.861328 z M 58.359375 87.960938 L 57.638672 91.609375 L 71.679688 94.755859 L 72.335938 91.013672 L 58.359375 87.960938 z M 41.996094 89.984375 L 41.396484 92.685547 L 54.884766 95.802734 L 55.441406 93.033203 L 41.996094 89.984375 z M 74.244141 91.431641 L 73.595703 95.183594 L 87.306641 98.255859 L 87.890625 94.412109 L 74.244141 91.431641 z M 57.273438 93.449219 L 56.724609 96.228516 L 70.847656 99.490234 L 71.347656 96.640625 L 57.273438 93.449219 z M 73.267578 97.076172 L 72.773438 99.935547 L 86.568359 103.12305 L 87.013672 100.19336 L 73.267578 97.076172 z " />
    <path
       d="m 64.29242,53.390303 c -5.78874,-0.963558 -11.08022,-1.239242 -15.0415,-0.904987 -1.96865,0.166198 -3.58914,0.460766 -4.86409,0.956436 -1.27331,0.495054 -2.33024,1.244963 -2.60093,2.401273 l -0.0256,-0.0045 -5.13509,21.931594 -0.10032,0.428489 c -0.28088,1.199588 0.33761,2.338545 1.32025,3.338282 0.98807,1.005485 2.44129,1.977824 4.25951,2.931984 3.67752,1.929813 8.91913,3.768825 14.981,5.109677 6.17141,1.365085 11.96336,1.943096 16.402142,1.74773 2.234021,-0.09834 4.125821,-0.380839 5.566864,-0.909108 1.443069,-0.528899 2.571779,-1.362405 2.782874,-2.662984 l 3.92508,-24.182793 -0.02908,-0.0051 C 85.936048,62.318922 85.133535,61.186943 84.000917,60.234528 82.87482,59.287562 81.315533,58.422276 79.361264,57.568601 75.495639,55.880086 70.180288,54.370368 64.292768,53.39037 Z m -0.33526,1.683468 c 5.78279,0.977145 11.009542,2.488014 14.681852,4.105472 1.855581,0.817318 3.306794,1.65559 4.208992,2.419663 0.906335,0.767737 1.121621,1.350799 1.072377,1.648742 -0.04929,0.298222 -0.44082,0.776575 -1.548346,1.194624 -1.106555,0.417711 -2.763223,0.718287 -4.802569,0.859817 -4.05425,0.281558 -9.569166,-0.07913 -15.420726,-1.14772 -5.75362,-1.050703 -10.76622,-2.592058 -14.15811,-4.183709 -1.6788,-0.78768 -2.96345,-1.585648 -3.73849,-2.306435 -0.77168,-0.717513 -0.92697,-1.261338 -0.86253,-1.539367 0.0643,-0.277799 0.44821,-0.725145 1.47361,-1.123053 1.02625,-0.398207 2.54925,-0.694966 4.4238,-0.849992 3.77045,-0.311758 8.98279,-0.03906 14.67014,0.921958 z M 42.83312,58.64604 c 0.0959,0.101476 0.17564,0.216012 0.27988,0.313693 0.96475,0.903521 2.34616,1.73963 4.11552,2.576721 3.57719,1.692331 8.69152,3.270152 14.57334,4.359706 5.98417,1.108515 11.6138,1.499855 15.899647,1.209992 2.156456,-0.14587 3.933563,-0.439873 5.318269,-0.961291 0.150267,-0.05695 0.281926,-0.139417 0.425172,-0.20274 l -0.776576,4.697175 -0.07282,0.440453 c -0.05812,0.351561 -0.487732,0.817498 -1.601932,1.234411 -1.113107,0.416504 -2.770322,0.718672 -4.8268,0.845777 -4.088211,0.252571 -9.647961,-0.161009 -15.551141,-1.307625 -5.80337,-1.127229 -10.84907,-2.75232 -14.2618,-4.410412 -1.6888,-0.820583 -2.96563,-1.651326 -3.74178,-2.39302 -0.77267,-0.738373 -0.96226,-1.289408 -0.88651,-1.616752 l 0.0949,-0.410143 z m -1.7035,7.36149 c 0.0826,0.08752 0.15214,0.176737 0.24106,0.262258 0.97501,0.938729 2.40569,1.838038 4.19384,2.713811 3.61574,1.770803 8.762,3.42838 14.70664,4.598615 6.04947,1.190871 11.72115,1.641089 16.063418,1.38058 2.185096,-0.131104 4.03438,-0.43106 5.441548,-0.956457 0.128736,-0.04783 0.238883,-0.107117 0.362043,-0.160065 l -0.795944,4.814323 -0.07464,0.451483 c -0.05958,0.36037 -0.494997,0.834867 -1.622409,1.252974 -1.126292,0.417692 -2.802341,0.713179 -4.881507,0.825409 -4.132997,0.222978 -9.750987,-0.250861 -15.712967,-1.479944 -5.85997,-1.208051 -10.95193,-2.919966 -14.39362,-4.651034 -1.70292,-0.856593 -2.98967,-1.719926 -3.77105,-2.487483 -0.77783,-0.76408 -0.96749,-1.330892 -0.88995,-1.665957 l 0.0971,-0.419811 z m -1.7436,7.534768 c 0.0831,0.09049 0.15305,0.182614 0.24257,0.271114 0.98153,0.971456 2.4234,1.906546 4.22649,2.82071 3.6464,1.848673 8.83995,3.595037 14.84266,4.848694 6.10986,1.276035 11.84106,1.788649 16.231067,1.559867 2.209291,-0.115148 4.079594,-0.406639 5.503498,-0.933518 0.130267,-0.04796 0.241768,-0.107846 0.36641,-0.16111 l -0.816045,4.935909 -0.07654,0.462932 c -0.06109,0.369515 -0.502475,0.852858 -1.643414,1.272087 -1.139793,0.418808 -2.835106,0.70718 -4.937457,0.80374 -4.178764,0.191813 -9.856174,-0.345179 -15.878084,-1.660483 -5.91761,-1.292522 -11.05661,-3.095028 -14.52767,-4.90213 -1.71724,-0.894103 -3.01402,-1.791359 -3.80065,-2.585807 -0.78303,-0.790808 -0.97271,-1.373996 -0.89333,-1.717058 l 0.0995,-0.429825 z"
       fill="url(#d)"
       id="path175"
       style="fill:url(#linearGradient196)" />
    <path
       d="m 64.29242,53.390303 c -5.78874,-0.963558 -11.08022,-1.239242 -15.0415,-0.904987 -1.96865,0.166198 -3.58914,0.460766 -4.86409,0.956436 -1.27331,0.495054 -2.35597,1.240487 -2.6267,2.396745 -1.71116,7.078041 -3.3868,14.465549 -5.13492,21.931624 l -0.10032,0.428489 c -0.28088,1.199588 0.33761,2.338545 1.32025,3.338282 0.98807,1.005485 2.44129,1.977824 4.25951,2.931984 3.67752,1.929813 8.91913,3.768825 14.981,5.109677 6.17141,1.365085 11.96336,1.943096 16.402142,1.74773 2.234021,-0.09834 4.125821,-0.380839 5.566864,-0.909108 1.443069,-0.528899 2.571779,-1.362405 2.782874,-2.662984 L 85.76261,63.571398 C 85.951755,62.406061 84.913229,61.016418 84.000919,60.234519 82.874822,59.287553 81.315535,58.422267 79.361266,57.568592 75.495641,55.880077 70.18029,54.370359 64.29277,53.390361 Z m -0.33526,1.683468 c 5.78279,0.977145 11.009542,2.488014 14.681852,4.105472 1.855581,0.817318 3.306794,1.65559 4.208992,2.419663 0.906335,0.767737 1.121621,1.350799 1.072377,1.648742 -0.04929,0.298222 -0.44082,0.776575 -1.548346,1.194624 -1.106555,0.417711 -2.763223,0.718287 -4.802569,0.859817 -4.05425,0.281558 -9.569166,-0.07913 -15.420726,-1.14772 -5.75362,-1.050703 -10.76622,-2.592058 -14.15811,-4.183709 -1.6788,-0.78768 -2.96345,-1.585648 -3.73849,-2.306435 -0.77168,-0.717513 -0.92697,-1.261338 -0.86253,-1.539367 0.0643,-0.277799 0.44821,-0.725145 1.47361,-1.123053 1.02625,-0.398207 2.54925,-0.694966 4.4238,-0.849992 3.77045,-0.311758 8.98279,-0.03906 14.67014,0.921958 z M 42.83312,58.64604 c 0.0959,0.101476 0.17564,0.216012 0.27988,0.313693 0.96475,0.903521 2.34616,1.73963 4.11552,2.576721 3.57719,1.692331 8.69152,3.270152 14.57334,4.359706 5.98417,1.108515 11.6138,1.499855 15.899647,1.209992 2.156456,-0.14587 3.933563,-0.439873 5.318269,-0.961291 0.150267,-0.05695 0.281926,-0.139417 0.425172,-0.20274 l -0.776576,4.697175 -0.07282,0.440453 c -0.05812,0.351561 -0.487732,0.817498 -1.601932,1.234411 -1.113107,0.416504 -2.770322,0.718672 -4.8268,0.845777 -4.088211,0.252571 -9.647961,-0.161009 -15.551141,-1.307625 -5.80337,-1.127229 -10.84907,-2.75232 -14.2618,-4.410412 -1.6888,-0.820583 -2.96563,-1.651326 -3.74178,-2.39302 -0.77267,-0.738373 -0.96226,-1.289408 -0.88651,-1.616752 l 0.0949,-0.410143 z m -1.7035,7.36149 c 0.0826,0.08752 0.15214,0.176737 0.24106,0.262258 0.97501,0.938729 2.40569,1.838038 4.19384,2.713811 3.61574,1.770803 8.762,3.42838 14.70664,4.598615 6.04947,1.190871 11.72115,1.641089 16.063418,1.38058 2.185096,-0.131104 4.03438,-0.43106 5.441548,-0.956457 0.128736,-0.04783 0.238883,-0.107117 0.362043,-0.160065 l -0.795944,4.814323 -0.07464,0.451483 c -0.05958,0.36037 -0.494997,0.834867 -1.622409,1.252974 -1.126292,0.417692 -2.802341,0.713179 -4.881507,0.825409 -4.132997,0.222978 -9.750987,-0.250861 -15.712967,-1.479944 -5.85997,-1.208051 -10.95193,-2.919966 -14.39362,-4.651034 -1.70292,-0.856593 -2.98967,-1.719926 -3.77105,-2.487483 -0.77783,-0.76408 -0.96749,-1.330892 -0.88995,-1.665957 l 0.0971,-0.419811 z m -1.7436,7.534768 c 0.0831,0.09049 0.15305,0.182614 0.24257,0.271114 0.98153,0.971456 2.4234,1.906546 4.22649,2.82071 3.6464,1.848673 8.83995,3.595037 14.84266,4.848694 6.10986,1.276035 11.84106,1.788649 16.231067,1.559867 2.209291,-0.115148 4.079594,-0.406639 5.503498,-0.933518 0.130267,-0.04796 0.241768,-0.107846 0.36641,-0.16111 l -0.816045,4.935909 -0.07654,0.462932 c -0.06109,0.369515 -0.502475,0.852858 -1.643414,1.272087 -1.139793,0.418808 -2.835106,0.70718 -4.937457,0.80374 -4.178764,0.191813 -9.856174,-0.345179 -15.878084,-1.660483 -5.91761,-1.292522 -11.05661,-3.095028 -14.52767,-4.90213 -1.71724,-0.894103 -3.01402,-1.791359 -3.80065,-2.585807 -0.78303,-0.790808 -0.97271,-1.373996 -0.89333,-1.717058 l 0.0995,-0.429825 z"
       fill="none"
       opacity="0.5"
       stroke="#ffffff"
       stroke-width="2"
       id="path176" />
    <path
       d="m 39.05459,71.157989 -1.58067,6.790533 -0.0999,0.429156 c -0.7211,3.097833 8.01731,7.681222 19.89254,10.291454 12.30294,2.704246 23.055307,2.229534 23.603847,-1.118887 l 0.07596,-0.463707 1.201115,-7.331906 z"
       fill="url(#h)"
       id="path177"
       style="fill:url(#linearGradient153)" />
    <path
       d="m 40.79396,63.685716 -1.54409,6.633387 -0.0976,0.41917 c -0.70427,3.025561 7.96148,7.416867 19.72217,9.857194 12.17902,2.527131 22.812306,1.971577 23.347222,-1.293685 l 0.07408,-0.452223 1.171541,-7.151381 z"
       fill="url(#h)"
       id="path178"
       style="fill:url(#linearGradient154)" />
    <path
       d="m 84.684278,64.269477 -1.072331,6.545776 -0.07227,0.441161 c -0.521794,3.185163 -11.038565,3.81746 -23.096026,1.459693 -11.6482,-2.277739 -20.24227,-6.484658 -19.55423,-9.440445 l 0.0953,-0.409529 1.41536,-6.080399 z"
       fill="url(#h)"
       id="path179"
       style="fill:url(#linearGradient40)" />
    <path
       id="path180"
       d="m 43.08601,59.42964 -0.76469,3.314327 -0.0802,0.347557 c -0.57828,2.506393 7.35133,6.179209 18.01166,8.242888 11.00219,2.12986 21.499834,1.895904 21.946255,-0.792068 l 0.06189,-0.372636 0.585981,-3.528284 C 80.762689,67.774373 72.689549,68.513748 61.303482,66.394788 50.282712,64.34381 44.310372,61.082798 43.086002,59.42964 Z"
       fill="none"
       opacity="0.35"
       stroke="#ffffff" />
    <path
       id="ellipse180"
       d="m 84.355743,63.325019 c -0.471617,2.865612 -10.619638,3.418222 -22.298403,1.277595 -11.29527,-2.070335 -19.67756,-5.878327 -19.0585,-8.545617 0.61387,-2.644904 9.88862,-3.294743 21.04266,-1.417239 11.526725,1.940238 20.781659,5.84518 20.314243,8.685261 z"
       style="fill:url(#radialGradient196)" />
    <path
       d="m 63.95751,55.072011 c -5.68734,-0.961002 -10.89967,-1.233687 -14.6701,-0.921922 -1.87455,0.155029 -3.39754,0.45179 -4.42379,0.849995 -1.0254,0.397908 -1.40931,0.845212 -1.4736,1.12301 -0.0644,0.278028 0.0908,0.821889 0.86252,1.539395 0.77504,0.720783 2.05969,1.518742 3.73849,2.306414 3.39188,1.591635 8.40447,3.13297 14.15807,4.183656 5.85155,1.068572 11.36645,1.429246 15.420689,1.147681 2.03934,-0.141534 3.696005,-0.442111 4.802556,-0.859822 1.107523,-0.418048 1.499058,-0.896442 1.548349,-1.194662 0.04924,-0.297942 -0.166049,-0.880957 -1.072382,-1.648687 -0.902197,-0.764067 -2.353406,-1.60233 -4.208983,-2.41964 -3.672302,-1.617441 -8.899049,-3.12829 -14.681819,-4.105418 z m -0.1581,0.793837 c 5.40103,0.919049 10.280256,2.256464 13.71996,3.662514 1.736282,0.709626 3.107617,1.430429 3.956784,2.077355 0.852811,0.650174 1.059508,1.144771 1.018506,1.389434 -0.04103,0.244852 -0.397778,0.641868 -1.417836,0.965768 -1.018678,0.323228 -2.560078,0.537911 -4.44787,0.616533 -3.753861,0.156723 -8.863784,-0.25049 -14.317574,-1.239735 -5.36862,-0.973795 -10.0581,-2.328727 -13.25438,-3.70818 -1.58343,-0.683155 -2.81072,-1.369565 -3.55177,-1.980924 -0.73836,-0.609316 -0.8951,-1.072507 -0.84242,-1.301845 0.0526,-0.229186 0.40051,-0.602394 1.34643,-0.913143 0.94648,-0.310654 2.3689,-0.526094 4.11294,-0.61894 3.50765,-0.186973 8.35958,0.1463 13.67723,1.051163 z"
       fill="#ffffff"
       opacity="0.25"
       id="path181" />
    <path
       id="use181"
       d="m 43.08601,68.42964 -0.76469,3.314327 -0.0802,0.347557 c -0.57828,2.506393 7.35133,6.179209 18.01166,8.242888 11.00219,2.12986 21.499834,1.895904 21.946255,-0.792068 l 0.06189,-0.372636 0.585981,-3.528284 C 80.762689,76.774373 72.689549,77.513748 61.30348,75.394788 50.28271,73.34381 44.31037,70.082798 43.086,68.42964 Z"
       fill="none"
       opacity="0.35"
       stroke="#ffffff" />
    <path
       id="use182"
       d="m 43.08601,77.42964 -0.76469,3.314327 -0.0802,0.347557 c -0.57828,2.506393 7.35133,6.179209 18.01166,8.242888 11.00219,2.12986 21.499834,1.895904 21.946255,-0.792068 l 0.06189,-0.372636 0.585981,-3.528284 C 80.762689,85.774373 72.689549,86.513748 61.30348,84.394788 50.28271,82.34381 44.31037,79.082798 43.086,77.42964 Z"
       fill="none"
       opacity="0.35"
       stroke="#ffffff" />
    <path
       id="path182"
       style="fill:url(#a-9)"
       d="M 52.458984 52.349609 C 51.315405 52.355713 50.240319 52.400811 49.25 52.484375 C 47.281352 52.650573 45.661667 52.945737 44.386719 53.441406 C 43.11341 53.93646 42.030495 54.681634 41.759766 55.837891 C 40.048607 62.915925 38.373118 70.303464 36.625 77.769531 L 36.525391 78.199219 C 36.244511 79.398806 36.863064 80.537373 37.845703 81.537109 C 38.833772 82.542593 40.287251 83.514591 42.105469 84.46875 C 45.782985 86.398561 51.024074 88.237274 57.085938 89.578125 C 63.257341 90.943209 69.049504 91.521538 73.488281 91.326172 C 75.7223 91.227832 77.613646 90.946237 79.054688 90.417969 C 80.497755 89.88907 81.626796 89.054484 81.837891 87.753906 L 85.761719 63.572266 C 85.950864 62.40693 84.912309 61.016273 84 60.234375 C 82.873904 59.28741 81.315595 58.422034 79.361328 57.568359 C 75.495707 55.879846 70.180483 54.370622 64.292969 53.390625 C 59.951418 52.667957 55.889722 52.331298 52.458984 52.349609 z M 52.369141 54.029297 C 55.692361 54.019518 59.691523 54.353456 63.957031 55.074219 C 69.739815 56.051363 74.966366 57.562231 78.638672 59.179688 C 80.494251 59.997005 81.945459 60.835537 82.847656 61.599609 C 83.75399 62.367346 83.969166 62.950104 83.919922 63.248047 C 83.870632 63.546269 83.478619 64.023358 82.371094 64.441406 C 81.26454 64.859117 79.609656 65.161205 77.570312 65.302734 C 73.516067 65.584292 67.999992 65.222886 62.148438 64.154297 C 56.394823 63.103595 51.382121 61.562353 47.990234 59.970703 C 46.311436 59.183024 45.026992 58.384849 44.251953 57.664062 C 43.480274 56.94655 43.324232 56.403029 43.388672 56.125 C 43.452972 55.847201 43.837882 55.399861 44.863281 55.001953 C 45.88953 54.603747 47.412561 54.30737 49.287109 54.152344 C 50.229721 54.074404 51.2614 54.032556 52.369141 54.029297 z M 42.833984 58.646484 C 42.929884 58.74796 43.009041 58.861303 43.113281 58.958984 C 44.07803 59.862504 45.459157 60.700019 47.228516 61.537109 C 50.805702 63.229439 55.92092 64.806931 61.802734 65.896484 C 67.786898 67.004998 73.415329 67.395331 77.701172 67.105469 C 79.857626 66.959599 81.634827 66.665949 83.019531 66.144531 C 83.169798 66.087581 83.302067 66.004729 83.445312 65.941406 L 82.667969 70.638672 L 82.595703 71.080078 C 82.537583 71.431639 82.10834 71.897541 80.994141 72.314453 C 79.881035 72.730957 78.222492 73.033051 76.166016 73.160156 C 72.077809 73.412727 66.518408 72.998177 60.615234 71.851562 C 54.81187 70.724335 49.766242 69.099497 46.353516 67.441406 C 44.664717 66.620824 43.387477 65.790521 42.611328 65.048828 C 41.838659 64.310456 41.650813 63.758984 41.726562 63.431641 L 41.820312 63.021484 L 42.833984 58.646484 z M 41.128906 66.007812 C 41.211506 66.095332 41.282174 66.18401 41.371094 66.269531 C 42.346103 67.208259 43.776305 68.108603 45.564453 68.984375 C 49.18019 70.755176 54.32685 72.411797 60.271484 73.582031 C 66.320948 74.772901 71.991721 75.223399 76.333984 74.962891 C 78.519078 74.831787 80.368224 74.531256 81.775391 74.005859 C 81.904126 73.958029 82.015512 73.898651 82.138672 73.845703 L 81.341797 78.660156 L 81.267578 79.111328 C 81.207998 79.471698 80.771942 79.947128 79.644531 80.365234 C 78.51824 80.782926 76.842836 81.079176 74.763672 81.191406 C 70.630679 81.414384 65.012755 80.940019 59.050781 79.710938 C 53.190817 78.502888 48.097937 76.78966 44.65625 75.058594 C 42.953332 74.202002 41.668098 73.339822 40.886719 72.572266 C 40.10889 71.808186 39.918554 71.241315 39.996094 70.90625 L 40.09375 70.486328 L 41.128906 66.007812 z M 39.386719 73.542969 C 39.469819 73.633459 39.539386 73.724 39.628906 73.8125 C 40.610435 74.783955 42.052381 75.720603 43.855469 76.634766 C 47.501865 78.483437 52.694562 80.228766 58.697266 81.482422 C 64.80712 82.758456 70.539685 83.271751 74.929688 83.042969 C 77.138976 82.927821 79.007738 82.636253 80.431641 82.109375 C 80.561907 82.061415 80.674186 82.00053 80.798828 81.947266 L 79.982422 86.884766 L 79.90625 87.347656 C 79.84516 87.717171 79.40461 88.199912 78.263672 88.619141 C 77.12388 89.037948 75.428521 89.325315 73.326172 89.421875 C 69.147412 89.613688 63.46917 89.077021 57.447266 87.761719 C 51.529662 86.469198 46.390978 84.666475 42.919922 82.859375 C 41.202684 81.965273 39.90577 81.067885 39.119141 80.273438 C 38.336111 79.48263 38.145229 78.899702 38.224609 78.556641 L 38.324219 78.126953 L 39.386719 73.542969 z " />
  </g>
</svg>
