<?xml version="1.0" encoding="UTF-8" standalone="no"?>
<svg
   width="128"
   height="128"
   viewBox="0 0 128 128"
   version="1.1"
   id="svg958"
   inkscape:version="1.3 (0e150ed6c4, 2023-07-21)"
   sodipodi:docname="template-libreoffice-math.svg"
   xmlns:inkscape="http://www.inkscape.org/namespaces/inkscape"
   xmlns:sodipodi="http://sodipodi.sourceforge.net/DTD/sodipodi-0.dtd"
   xmlns:xlink="http://www.w3.org/1999/xlink"
   xmlns="http://www.w3.org/2000/svg"
   xmlns:svg="http://www.w3.org/2000/svg"
   xmlns:rdf="http://www.w3.org/1999/02/22-rdf-syntax-ns#"
   xmlns:cc="http://creativecommons.org/ns#"
   xmlns:dc="http://purl.org/dc/elements/1.1/">
  <defs
     id="defs952">
    <linearGradient
       id="linearGradient25">
      <stop
         offset="0"
         stop-color="#535353"
         id="stop24"
         style="stop-color:#535353;stop-opacity:0.40000001;" />
      <stop
         offset="1"
         stop-color="#7e7e7e"
         id="stop25" />
    </linearGradient>
    <linearGradient
       id="linearGradient1617"
       inkscape:collect="always">
      <stop
         id="stop1613"
         offset="0"
         style="stop-color:#ffffe8;stop-opacity:1" />
      <stop
         id="stop1615"
         offset="1"
         style="stop-color:#ffe896;stop-opacity:1" />
    </linearGradient>
    <linearGradient
       gradientTransform="matrix(3.7000536,0,0,3.7000536,1.8182381,1.4153997)"
       gradientUnits="userSpaceOnUse"
       y2="30.691668"
       x2="25.4"
       y1="3.175"
       x1="10.583333"
       id="linearGradient1619"
       xlink:href="#linearGradient1617"
       inkscape:collect="always" />
    <inkscape:perspective
       id="perspective1523-9"
       inkscape:persp3d-origin="-68.877233 : 1121.3238 : 1"
       inkscape:vp_z="-51.9439 : 1126.9682 : 1"
       inkscape:vp_y="-35.010567 : 1300.5349 : 1"
       inkscape:vp_x="-255.1439 : 1160.8349 : 1"
       sodipodi:type="inkscape:persp3d" />
    <linearGradient
       id="k"
       gradientTransform="matrix(7.99974,0,0,7.9977797,-1006.4841,-7802.2803)"
       gradientUnits="userSpaceOnUse"
       x1="138.33015"
       x2="130.44659"
       xlink:href="#a-6"
       y1="990.69482"
       y2="976.716" />
    <linearGradient
       id="f-4"
       gradientUnits="userSpaceOnUse"
       x1="108.00134"
       x2="20.001341"
       y1="122"
       y2="6"
       gradientTransform="translate(-170.84645,-38.75348)">
      <stop
         offset="0"
         stop-color="#e6e6e6"
         id="stop10-30" />
      <stop
         offset="1"
         stop-color="#fff"
         id="stop11-7" />
    </linearGradient>
    <linearGradient
       inkscape:collect="always"
       xlink:href="#f-4"
       id="linearGradient195"
       gradientUnits="userSpaceOnUse"
       gradientTransform="translate(1.46371,-0.173411)"
       x1="103.23856"
       y1="121.10698"
       x2="26.252501"
       y2="15.525578" />
    <linearGradient
       id="a-6">
      <stop
         offset="0"
         stop-color="#535353"
         id="stop1-7" />
      <stop
         offset="1"
         stop-color="#7e7e7e"
         id="stop2-5" />
    </linearGradient>
    <linearGradient
       inkscape:collect="always"
       xlink:href="#linearGradient25"
       id="linearGradient12"
       gradientUnits="userSpaceOnUse"
       x1="231.92026"
       y1="93.826096"
       x2="168.85384"
       y2="-17.973648"
       gradientTransform="translate(-131.7991,27.252604)" />
    <linearGradient
       inkscape:collect="always"
       xlink:href="#a-6"
       id="linearGradient13"
       gradientUnits="userSpaceOnUse"
       x1="231.92026"
       y1="93.826096"
       x2="168.85384"
       y2="-17.973648"
       gradientTransform="translate(-131.7991,27.252604)" />
    <linearGradient
       id="j"
       gradientUnits="userSpaceOnUse"
       x1="235.57521"
       x2="194.65672"
       y1="108.95737"
       y2="13.071068"
       gradientTransform="translate(-145,10)">
      <stop
         offset="0"
         stop-color="#e6e6e6"
         id="stop13-75" />
      <stop
         offset="1"
         stop-color="#fff"
         id="stop14-3" />
    </linearGradient>
  </defs>
  <sodipodi:namedview
     inkscape:bbox-nodes="true"
     inkscape:snap-bbox-edge-midpoints="false"
     inkscape:bbox-paths="false"
     inkscape:snap-bbox="true"
     inkscape:snap-grids="false"
     units="px"
     showgrid="false"
     inkscape:document-rotation="0"
     inkscape:current-layer="layer1"
     inkscape:document-units="mm"
     inkscape:cy="98.929128"
     inkscape:cx="49.885539"
     inkscape:zoom="2.3754379"
     inkscape:pageshadow="2"
     inkscape:pageopacity="0.0"
     borderopacity="1.0"
     bordercolor="#666666"
     pagecolor="#ffffff"
     id="base"
     inkscape:pagecheckerboard="0"
     showguides="true"
     inkscape:guide-bbox="true"
     guidetolerance="10000"
     inkscape:snap-tangential="true"
     inkscape:snap-perpendicular="true"
     inkscape:window-width="1920"
     inkscape:window-height="1119"
     inkscape:window-x="0"
     inkscape:window-y="0"
     inkscape:window-maximized="1"
     inkscape:snap-to-guides="false"
     inkscape:snap-intersection-paths="false"
     inkscape:snap-bbox-midpoints="false"
     inkscape:snap-nodes="true"
     inkscape:object-paths="false"
     inkscape:showpageshadow="2"
     inkscape:deskcolor="#d1d1d1">
    <inkscape:grid
       id="grid1521"
       type="xygrid"
       empcolor="#ff2624"
       empopacity="0.2"
       originx="0"
       originy="0"
       spacingy="1"
       spacingx="1"
       units="px"
       visible="false"
       empspacing="4" />
  </sodipodi:namedview>
  <metadata
     id="metadata955">
    <rdf:RDF>
      <cc:Work
         rdf:about="">
        <dc:format>image/svg+xml</dc:format>
        <dc:type
           rdf:resource="http://purl.org/dc/dcmitype/StillImage" />
      </cc:Work>
    </rdf:RDF>
  </metadata>
  <g
     id="layer1"
     inkscape:groupmode="layer"
     inkscape:label="Layer 1">
    <path
       d="M 37.05474,9.278956 13.56591,99.312647 100.12116,121.0787 109.90537,44.759495 83.782698,14.257945 Z"
       fill="url(#f)"
       id="path173"
       style="fill:url(#linearGradient195)"
       sodipodi:nodetypes="cccccc" />
    <g
       inkscape:corner7="-0.053832406 : -0.037633691 : 0.25907482 : 1"
       inkscape:corner0="0.069364932 : 0.12047969 : 0 : 1"
       inkscape:perspectiveID="#perspective1523-9"
       style="fill:#216778;stroke-width:1.2;stroke-linecap:square"
       id="g1525"
       sodipodi:type="inkscape:box3d" />
    <path
       style="fill:#000000;fill-opacity:0.196078;stroke:none;stroke-width:2.74112;stroke-miterlimit:4;stroke-dasharray:none;stroke-opacity:1;paint-order:markers stroke fill"
       d="M 100.12116,121.0787 123.61649,85.835695 100.12116,78.00392 Z"
       id="path1768"
       inkscape:connector-curvature="0"
       sodipodi:nodetypes="cccc" />
    <path
       sodipodi:nodetypes="ccccc"
       id="path1611"
       d="M 37.061249,9.2471797 113.40922,17.43532 100.11814,121.08346 13.565908,99.312647 Z"
       style="fill:url(#linearGradient1619);fill-opacity:1;stroke:none;stroke-width:1.66425;stroke-linecap:butt;stroke-linejoin:miter;stroke-miterlimit:4;stroke-dasharray:none;stroke-opacity:1" />
    <path
       d="M 37.061248,9.24718 13.565908,99.312647 100.11814,121.08346 109.90537,44.759495 83.782698,14.257945 Z"
       fill="url(#j)"
       id="path15"
       style="fill:url(#j)"
       sodipodi:nodetypes="cccccc" />
    <g
       transform="matrix(3.7795276,0,0,3.7795276,-29.848286,-1055.3635)"
       id="g6682" />
    <g
       aria-label="?"
       id="text3832"
       style="font-weight:bold;font-size:25.4px;line-height:0.6;font-family:Arial;-inkscape-font-specification:'Arial Bold';text-align:center;text-anchor:middle;fill:#0a0a96;fill-opacity:1;stroke:none;stroke-width:0.449792;stroke-linecap:square;stroke-miterlimit:4;stroke-dasharray:none"
       transform="scale(3.7795276)" />
    <g
       transform="matrix(3.7795276,0,0,3.7795276,-9.4848633e-7,-4.0000003)"
       id="g886" />
    <g
       transform="matrix(3.7795276,0,0,3.7795276,117.75,-29.25)"
       style="font-weight:600;font-size:14.1111px;line-height:0.8;font-family:'URW Bookman';-inkscape-font-specification:'URW Bookman Semi-Bold';letter-spacing:-0.529167px;fill:#8a6f5e;fill-opacity:1;stroke:none;stroke-width:1.00542;stroke-linecap:square;stroke-miterlimit:4;stroke-dasharray:none;stroke-opacity:1"
       id="text1154"
       aria-label="cpp" />
    <g
       style="font-style:normal;font-variant:normal;font-weight:normal;font-stretch:normal;font-size:16.1802px;line-height:0.8;font-family:'Times New Roman';-inkscape-font-specification:'Times New Roman, ';fill:#191996;fill-opacity:1;stroke:none;stroke-width:1.15283;stroke-linecap:square;stroke-miterlimit:4;stroke-dasharray:none;stroke-opacity:1"
       id="text1180"
       aria-label="?"
       transform="scale(3.7795276)" />
    <g
       style="font-style:normal;font-variant:normal;font-weight:normal;font-stretch:normal;font-size:24.855px;line-height:0.8;font-family:'Times New Roman';-inkscape-font-specification:'Times New Roman, ';fill:#191996;fill-opacity:1;stroke:none;stroke-width:0.983845;stroke-linecap:square;stroke-miterlimit:4;stroke-dasharray:none;stroke-opacity:1"
       id="text1190"
       aria-label="f"
       transform="scale(3.7795276)" />
    <g
       style="font-style:italic;font-variant:normal;font-weight:normal;font-stretch:normal;font-size:29.0422px;line-height:0.8;font-family:'Times New Roman';-inkscape-font-specification:'Times New Roman, Italic';fill:#191996;fill-opacity:1;stroke:none;stroke-width:1.14959;stroke-linecap:square;stroke-miterlimit:4;stroke-dasharray:none;stroke-opacity:1"
       id="text1218"
       aria-label="?"
       transform="scale(3.7795276)" />
    <g
       style="font-style:italic;font-variant:normal;font-weight:normal;font-stretch:normal;font-size:29.1244px;line-height:0.8;font-family:'Times New Roman';-inkscape-font-specification:'Times New Roman,  Italic';fill:#191996;fill-opacity:1;stroke:none;stroke-width:1.15284;stroke-linecap:square;stroke-miterlimit:4;stroke-dasharray:none;stroke-opacity:1"
       id="text1298"
       aria-label="?"
       transform="scale(3.7795276)" />
    <g
       id="g29513"
       transform="matrix(3.7795276,0,0,3.7795276,-0.15289495,5.8448117)">
      <g
         aria-label="js"
         id="g29511"
         style="font-style:italic;font-size:19.05px;font-family:Georgia;-inkscape-font-specification:'Georgia Italic';fill-opacity:0.2;stroke-width:0.502708;stroke-linecap:square;stroke-linejoin:round;stroke-opacity:0.05" />
    </g>
    <path
       d="m 83.782698,14.257945 26.122672,30.501553 3.50687,-27.328931 z"
       fill="url(#k)"
       id="path14"
       style="fill:url(#k)"
       sodipodi:nodetypes="cccc" />
    <path
       id="rect3"
       d="m 39.61529,45.285508 52.98158,8.504177 c 0.264167,0.0424 0.447729,0.267513 0.411373,0.504866 L 87.694304,88.98697 c -0.04051,0.264486 -0.296313,0.430338 -0.573321,0.371715 L 31.796186,77.650452 c -0.235515,-0.04984 -0.378292,-0.282706 -0.320318,-0.521992 l 7.636048,-31.517811 c 0.05246,-0.216533 0.276889,-0.361494 0.503374,-0.325141 z"
       style="fill:#fcede4;fill-opacity:1" />
    <path
       id="path3"
       style="fill:url(#linearGradient12)"
       d="M 38.589844 44.324219 L 27.585938 89.496094 L 86.566406 103.12891 L 94.142578 53.175781 L 38.589844 44.324219 z M 40.630859 46.25 L 91.066406 54.40625 C 91.58498 54.49011 91.945454 54.934318 91.873047 55.402344 L 86.925781 87.382812 C 86.845711 87.900384 86.34317 88.227328 85.800781 88.113281 L 33.25 77.0625 C 32.785431 76.96482 32.502017 76.507021 32.615234 76.037109 L 39.638672 46.892578 C 39.741821 46.464455 40.1833 46.177624 40.630859 46.25 z M 31.794922 79.445312 L 86.34375 91.138672 L 84.863281 100.7168 L 29.703125 88.125 L 31.794922 79.445312 z " />
    <path
       id="path9"
       d="M 42.070312 47.287109 L 41.886719 48.066406 L 41.072266 47.931641 L 40.886719 48.710938 L 41.701172 48.845703 L 41.515625 49.626953 L 42.414062 49.775391 L 42.597656 48.994141 L 43.333984 49.115234 L 43.517578 48.333984 L 42.78125 48.212891 L 42.964844 47.433594 L 42.070312 47.287109 z M 44.335938 48.466797 L 44.154297 49.25 L 46.625 49.660156 L 46.804688 48.873047 L 44.335938 48.466797 z M 47.632812 49.007812 L 47.453125 49.796875 L 49.949219 50.208984 L 50.125 49.417969 L 47.632812 49.007812 z M 50.960938 49.554688 L 50.785156 50.347656 L 53.306641 50.763672 L 53.478516 49.96875 L 50.960938 49.554688 z M 54.322266 50.107422 L 54.150391 50.904297 L 56.695312 51.324219 L 56.865234 50.523438 L 54.322266 50.107422 z M 41.330078 50.410156 L 40.771484 52.771484 L 41.671875 52.927734 L 42.228516 50.560547 L 41.330078 50.410156 z M 57.716797 50.664062 L 57.548828 51.464844 L 60.119141 51.890625 L 60.285156 51.085938 L 57.716797 50.664062 z M 63.902344 50.845703 L 63.740234 51.652344 L 61.146484 51.226562 L 60.980469 52.033203 L 63.578125 52.462891 L 63.416016 53.273438 L 64.373047 53.433594 L 64.535156 52.621094 L 67.072266 53.039062 L 67.230469 52.224609 L 64.697266 51.808594 L 64.857422 51 L 63.902344 50.845703 z M 68.109375 52.369141 L 67.951172 53.185547 L 70.601562 53.623047 L 70.755859 52.804688 L 68.109375 52.369141 z M 71.642578 52.949219 L 71.488281 53.769531 L 74.166016 54.212891 L 74.318359 53.388672 L 71.642578 52.949219 z M 75.212891 53.535156 L 75.064453 54.361328 L 77.769531 54.808594 L 77.916016 53.978516 L 75.212891 53.535156 z M 40.583984 53.564453 L 40.017578 55.949219 L 40.923828 56.109375 L 41.486328 53.71875 L 40.583984 53.564453 z M 63.251953 54.087891 L 62.759766 56.542969 L 63.722656 56.707031 L 64.210938 54.248047 L 63.251953 54.087891 z M 78.820312 54.126953 L 78.675781 54.958984 L 81.408203 55.410156 L 81.550781 54.576172 L 78.820312 54.126953 z M 87.210938 54.642578 L 87.074219 55.482422 L 86.148438 55.330078 L 86.009766 56.171875 L 86.9375 56.324219 L 86.800781 57.169922 L 87.824219 57.339844 L 87.960938 56.494141 L 88.800781 56.632812 L 88.935547 55.787109 L 88.095703 55.650391 L 88.232422 54.808594 L 87.210938 54.642578 z M 82.464844 54.726562 L 82.324219 55.5625 L 85.083984 56.017578 L 85.224609 55.177734 L 82.464844 54.726562 z M 39.007812 56.603516 L 38.816406 57.404297 L 39.638672 57.550781 L 39.257812 59.160156 L 40.166016 59.324219 L 40.546875 57.712891 L 41.291016 57.845703 L 41.478516 57.042969 L 39.828125 56.75 L 39.007812 56.603516 z M 42.306641 57.189453 L 42.119141 57.994141 L 44.617188 58.441406 L 44.802734 57.632812 L 42.306641 57.189453 z M 62.595703 57.365234 L 62.097656 59.845703 L 63.064453 60.015625 L 63.558594 57.53125 L 62.595703 57.365234 z M 45.638672 57.78125 L 45.455078 58.591797 L 47.978516 59.042969 L 48.160156 58.230469 L 45.638672 57.78125 z M 86.664062 58.015625 L 86.248047 60.570312 L 87.277344 60.746094 L 87.689453 58.1875 L 86.664062 58.015625 z M 49.003906 58.378906 L 48.824219 59.193359 L 51.373047 59.650391 L 51.550781 58.832031 L 49.003906 58.378906 z M 52.404297 58.984375 L 52.226562 59.802734 L 54.800781 60.263672 L 54.974609 59.441406 L 52.404297 58.984375 z M 55.837891 59.59375 L 55.664062 60.417969 L 58.263672 60.882812 L 58.435547 60.054688 L 55.837891 59.59375 z M 39.066406 59.966797 L 38.490234 62.402344 L 39.402344 62.572266 L 39.976562 60.134766 L 39.066406 59.966797 z M 59.306641 60.210938 L 59.136719 61.039062 L 61.763672 61.509766 L 61.427734 63.183594 L 62.398438 63.359375 L 62.732422 61.683594 L 65.298828 62.142578 L 65.462891 61.304688 L 59.306641 60.210938 z M 86.109375 61.425781 L 85.691406 64.007812 L 86.724609 64.189453 L 87.140625 61.603516 L 86.109375 61.425781 z M 66.349609 61.460938 L 66.1875 62.300781 L 68.871094 62.78125 L 69.029297 61.9375 L 66.349609 61.460938 z M 69.927734 62.097656 L 69.769531 62.941406 L 72.478516 63.427734 L 72.634766 62.578125 L 69.927734 62.097656 z M 73.541016 62.740234 L 73.386719 63.589844 L 76.125 64.080078 L 76.277344 63.224609 L 73.541016 62.740234 z M 38.296875 63.21875 L 37.714844 65.679688 L 38.628906 65.855469 L 39.208984 63.390625 L 38.296875 63.21875 z M 77.193359 63.388672 L 77.042969 64.244141 L 79.810547 64.738281 L 79.957031 63.878906 L 77.193359 63.388672 z M 61.259766 64.023438 L 60.751953 66.556641 L 61.726562 66.738281 L 62.230469 64.201172 L 61.259766 64.023438 z M 80.882812 64.042969 L 80.736328 64.904297 L 83.533203 65.404297 L 83.675781 64.541016 L 80.882812 64.042969 z M 84.611328 64.707031 L 84.470703 65.572266 L 85.410156 65.740234 L 85.126953 67.482422 L 86.166016 67.671875 L 86.445312 65.925781 L 87.296875 66.078125 L 87.435547 65.207031 L 85.550781 64.873047 L 84.611328 64.707031 z M 37.519531 66.503906 L 36.929688 68.990234 L 37.849609 69.169922 L 38.435547 66.679688 L 37.519531 66.503906 z M 60.582031 67.404297 L 60.068359 69.964844 L 61.046875 70.152344 L 61.556641 67.587891 L 60.582031 67.404297 z M 84.984375 68.357422 L 84.556641 70.996094 L 85.599609 71.191406 L 86.023438 68.548828 L 84.984375 68.357422 z M 36.732422 69.822266 L 36.136719 72.333984 L 37.060547 72.521484 L 37.652344 70.003906 L 36.732422 69.822266 z M 59.896484 70.822266 L 59.376953 73.410156 L 60.359375 73.603516 L 60.875 71.011719 L 59.896484 70.822266 z M 84.412109 71.880859 L 83.980469 74.548828 L 85.027344 74.75 L 85.457031 72.076172 L 84.412109 71.880859 z M 35.9375 73.175781 L 35.738281 74.019531 L 34.898438 73.847656 L 34.697266 74.691406 L 35.537109 74.865234 L 35.337891 75.712891 L 36.263672 75.90625 L 36.464844 75.056641 L 37.224609 75.212891 L 37.423828 74.365234 L 36.664062 74.208984 L 36.863281 73.363281 L 35.9375 73.175781 z M 59.203125 74.277344 L 58.677734 76.892578 L 59.666016 77.091797 L 60.1875 74.472656 L 59.203125 74.277344 z M 38.267578 74.537109 L 38.070312 75.386719 L 40.623047 75.914062 L 40.818359 75.060547 L 38.267578 74.537109 z M 41.671875 75.234375 L 41.476562 76.089844 L 44.054688 76.621094 L 44.248047 75.763672 L 41.671875 75.234375 z M 83.833984 75.443359 L 83.396484 78.140625 L 84.449219 78.347656 L 84.884766 75.644531 L 83.833984 75.443359 z M 45.109375 75.939453 L 44.919922 76.800781 L 47.523438 77.337891 L 47.712891 76.472656 L 45.109375 75.939453 z M 48.583984 76.650391 L 48.396484 77.517578 L 51.029297 78.060547 L 51.212891 77.189453 L 48.583984 76.650391 z M 52.09375 77.371094 L 51.910156 78.242188 L 54.570312 78.791016 L 54.751953 77.914062 L 52.09375 77.371094 z M 58.501953 77.767578 L 58.326172 78.646484 L 55.640625 78.097656 L 55.460938 78.974609 L 58.148438 79.529297 L 57.972656 80.412109 L 58.962891 80.617188 L 59.140625 79.732422 L 61.765625 80.273438 L 61.939453 79.386719 L 59.316406 78.849609 L 59.490234 77.96875 L 58.501953 77.767578 z M 83.25 79.042969 L 82.808594 81.771484 L 83.865234 81.984375 L 84.304688 79.251953 L 83.25 79.042969 z M 62.847656 79.574219 L 62.675781 80.460938 L 65.421875 81.027344 L 65.589844 80.134766 L 62.847656 79.574219 z M 66.507812 80.324219 L 66.341797 81.216797 L 69.115234 81.789062 L 69.279297 80.890625 L 66.507812 80.324219 z M 70.208984 81.082031 L 70.044922 81.980469 L 72.849609 82.560547 L 73.009766 81.65625 L 70.208984 81.082031 z M 73.947266 81.847656 L 73.789062 82.753906 L 76.623047 83.337891 L 76.779297 82.427734 L 73.947266 81.847656 z M 77.728516 82.623047 L 77.572266 83.533203 L 80.4375 84.125 L 80.589844 83.208984 L 77.728516 82.623047 z M 82.660156 82.685547 L 82.509766 83.601562 L 81.548828 83.404297 L 81.398438 84.322266 L 82.361328 84.521484 L 82.210938 85.443359 L 83.275391 85.664062 L 83.423828 84.740234 L 84.294922 84.919922 L 84.441406 83.998047 L 83.570312 83.818359 L 83.71875 82.900391 L 82.660156 82.685547 z "
       style="fill:#f09e6f;fill-opacity:1" />
    <path
       id="path10"
       style="fill:url(#linearGradient13)"
       d="M 61.144531 51.220703 L 47.599609 70.232422 L 44.46875 59.351562 L 39.013672 60.246094 L 39.207031 63.369141 L 41.921875 62.611328 L 45.351562 76.882812 L 46.892578 77.199219 L 62.658203 54.824219 L 84.679688 58.546875 L 84.398438 60.246094 L 87.199219 60.726562 L 88.019531 55.630859 L 61.146484 51.220703 L 61.144531 51.220703 z M 62.341797 60.75 L 69.240234 71.476562 L 69.21875 71.595703 L 58.289062 79.556641 L 62.783203 80.484375 L 71.255859 74.572266 L 71.398438 74.601562 L 78.072266 83.636719 L 83.228516 84.699219 L 74.585938 72.458984 L 74.607422 72.337891 L 85.714844 64.902344 L 81.082031 64.080078 L 72.457031 69.322266 L 72.314453 69.294922 L 67.099609 61.595703 L 62.341797 60.75 z M 43.226562 84.652344 C 43.020732 84.665534 42.838062 84.713812 42.677734 84.794922 C 42.357772 84.954579 42.153086 85.2346 42.0625 85.640625 C 41.99096 85.961272 42.025833 86.237356 42.166016 86.464844 C 42.306956 86.689924 42.565535 86.885383 42.945312 87.052734 L 43.193359 87.162109 L 43.220703 87.179688 C 43.806944 87.440743 44.065672 87.732528 43.994141 88.058594 C 43.944371 88.285476 43.821324 88.445343 43.625 88.535156 C 43.429279 88.622366 43.178959 88.63116 42.873047 88.5625 C 42.662536 88.51525 42.445142 88.431336 42.224609 88.3125 C 42.004885 88.191033 41.781749 88.034025 41.554688 87.841797 L 41.392578 88.568359 C 41.637548 88.717025 41.869892 88.836561 42.087891 88.931641 C 42.305582 89.028571 42.518384 89.101522 42.726562 89.148438 C 43.253674 89.267229 43.692029 89.241422 44.041016 89.070312 C 44.390608 88.896668 44.610604 88.597718 44.703125 88.173828 C 44.772705 87.855061 44.742402 87.576035 44.607422 87.337891 C 44.474985 87.100453 44.243028 86.911416 43.914062 86.769531 L 43.648438 86.654297 C 43.210251 86.464263 42.94364 86.310433 42.849609 86.191406 C 42.755899 86.072512 42.729415 85.918025 42.771484 85.728516 C 42.818014 85.518943 42.928999 85.380008 43.103516 85.3125 C 43.280976 85.2434 43.52579 85.242067 43.837891 85.310547 C 44.045389 85.356047 44.242306 85.430797 44.429688 85.533203 C 44.617196 85.635311 44.79616 85.765701 44.96875 85.925781 L 45.119141 85.240234 C 44.936925 85.112902 44.747641 85.006016 44.548828 84.919922 C 44.350825 84.831262 44.138805 84.763916 43.914062 84.714844 C 43.662109 84.659831 43.432393 84.639153 43.226562 84.652344 z M 47.962891 85.65625 C 47.604771 85.656243 47.283866 85.782219 47 86.033203 C 46.621395 86.367956 46.354333 86.887258 46.201172 87.595703 C 46.050453 88.292854 46.079843 88.876079 46.287109 89.341797 C 46.497869 89.806433 46.858376 90.095817 47.369141 90.210938 C 47.626102 90.268857 47.86241 90.263209 48.080078 90.193359 C 48.300995 90.121609 48.492299 89.990843 48.652344 89.802734 L 48.183594 92.009766 L 48.894531 92.171875 L 50.152344 86.203125 L 49.447266 86.048828 L 49.330078 86.595703 C 49.258078 86.358418 49.138815 86.163846 48.966797 86.011719 C 48.797944 85.857775 48.58504 85.752516 48.332031 85.697266 C 48.204384 85.669391 48.082264 85.656252 47.962891 85.65625 z M 48.074219 86.291016 C 48.151865 86.28987 48.232256 86.299903 48.316406 86.318359 C 48.653347 86.392239 48.87728 86.587617 48.990234 86.90625 C 49.106831 87.223376 49.107763 87.653495 48.992188 88.199219 C 48.876441 88.745752 48.70061 89.14114 48.464844 89.384766 C 48.232161 89.626439 47.947651 89.710692 47.609375 89.634766 C 47.271438 89.558916 47.044159 89.36138 46.931641 89.042969 C 46.822295 88.725663 46.825718 88.291242 46.943359 87.744141 C 47.060824 87.197853 47.233998 86.80673 47.462891 86.566406 C 47.636488 86.386666 47.841279 86.294451 48.074219 86.291016 z M 57.753906 86.681641 L 57.507812 87.912109 L 56.34375 87.658203 L 56.230469 88.212891 L 57.398438 88.46875 L 56.925781 90.837891 C 56.820322 91.367802 56.856158 91.768014 57.035156 92.035156 C 57.214473 92.302665 57.576249 92.496791 58.119141 92.619141 L 59.005859 92.820312 L 59.119141 92.238281 L 58.302734 92.054688 C 57.995943 91.985818 57.795 91.874655 57.697266 91.71875 C 57.599626 91.562861 57.582365 91.324013 57.646484 91 L 58.115234 88.626953 L 59.753906 88.986328 L 59.863281 88.427734 L 58.226562 88.068359 L 58.470703 86.835938 L 57.753906 86.681641 z M 52.144531 86.710938 L 51.246094 91.039062 L 51.960938 91.199219 L 52.40625 89.037109 C 52.514791 88.511151 52.716688 88.136592 53.007812 87.910156 C 53.29881 87.683745 53.664549 87.619593 54.107422 87.716797 C 54.295552 87.758087 54.463081 87.823381 54.609375 87.912109 C 54.755851 88.000909 54.893138 88.119207 55.021484 88.271484 L 55.169922 87.546875 C 55.049294 87.423581 54.916592 87.321582 54.773438 87.244141 C 54.630276 87.166721 54.471984 87.110523 54.296875 87.072266 C 53.959746 86.998606 53.649543 87.016573 53.369141 87.126953 C 53.091876 87.235215 52.862731 87.429192 52.681641 87.708984 L 52.855469 86.865234 L 52.144531 86.710938 z M 64.238281 87.328125 C 64.00895 87.328643 63.827647 87.363611 63.697266 87.435547 C 63.439586 87.577381 63.255911 87.936265 63.146484 88.511719 L 62.966797 89.451172 C 62.892037 89.843452 62.770102 90.098321 62.601562 90.216797 C 62.432944 90.335453 62.163268 90.353661 61.791016 90.271484 L 61.544922 90.21875 L 61.4375 90.779297 L 61.683594 90.833984 C 62.053509 90.915954 62.293129 91.046984 62.404297 91.230469 C 62.518355 91.414686 62.536515 91.705938 62.460938 92.103516 L 62.28125 93.050781 C 62.16992 93.635215 62.210303 94.05011 62.396484 94.296875 C 62.585487 94.544602 63.009035 94.743723 63.673828 94.894531 L 63.931641 94.953125 L 64.039062 94.378906 L 63.757812 94.314453 C 63.384138 94.230013 63.151547 94.118455 63.058594 93.978516 C 62.968314 93.83926 62.95965 93.579685 63.03125 93.201172 L 63.216797 92.21875 C 63.294587 91.807519 63.292994 91.494556 63.208984 91.28125 C 63.125024 91.068129 62.942553 90.893671 62.662109 90.757812 C 62.965873 90.756613 63.19308 90.675635 63.347656 90.515625 C 63.504521 90.356159 63.623382 90.071392 63.701172 89.660156 L 63.884766 88.6875 C 63.954836 88.317068 64.055221 88.089899 64.1875 88.001953 C 64.322754 87.912093 64.576481 87.906178 64.947266 87.986328 L 65.226562 88.046875 L 65.330078 87.488281 L 65.074219 87.433594 C 64.744857 87.362586 64.467613 87.327607 64.238281 87.328125 z M 71.601562 88.839844 L 71.501953 89.404297 L 71.777344 89.464844 C 72.158628 89.547464 72.396206 89.659261 72.492188 89.800781 C 72.588527 89.942403 72.602708 90.198721 72.537109 90.572266 L 72.363281 91.558594 C 72.289951 91.97619 72.299532 92.295506 72.388672 92.511719 C 72.480602 92.728728 72.670775 92.902388 72.958984 93.035156 C 72.643886 93.040356 72.407738 93.12454 72.251953 93.287109 C 72.095947 93.449659 71.981541 93.740578 71.908203 94.158203 L 71.732422 95.15625 C 71.665862 95.535296 71.563953 95.76941 71.425781 95.861328 C 71.287629 95.953058 71.026937 95.957964 70.642578 95.871094 L 70.365234 95.808594 L 70.261719 96.388672 L 70.515625 96.445312 C 71.194894 96.599403 71.664966 96.60276 71.929688 96.455078 C 72.194421 96.307442 72.378602 95.936959 72.482422 95.341797 L 72.650391 94.376953 C 72.721011 93.972138 72.843844 93.709096 73.015625 93.585938 C 73.189922 93.463638 73.470075 93.445846 73.855469 93.53125 L 74.117188 93.587891 L 74.216797 93.015625 L 73.955078 92.957031 C 73.569961 92.872021 73.316015 92.737371 73.195312 92.552734 C 73.077704 92.368861 73.053372 92.075204 73.123047 91.675781 L 73.289062 90.71875 C 73.391256 90.132908 73.344557 89.720797 73.150391 89.478516 C 72.956933 89.233945 72.526418 89.039603 71.853516 88.894531 L 71.601562 88.839844 z M 65.955078 89.640625 L 67.171875 92.113281 L 64.972656 94.042969 L 65.830078 94.236328 L 67.476562 92.740234 L 68.476562 94.832031 L 69.341797 95.027344 L 67.982422 92.292969 L 69.986328 90.521484 L 69.150391 90.337891 L 67.669922 91.683594 L 66.771484 89.818359 L 65.955078 89.640625 z " />
    <path
       style="fill:none;stroke:#454545;stroke-width:1.9;stroke-linecap:butt;stroke-linejoin:miter;stroke-miterlimit:4;stroke-dasharray:none;stroke-opacity:1"
       d="M 37.064265,9.2424277 113.41224,17.430567 100.12116,121.0787 13.568925,99.3079 Z"
       id="path1553"
       sodipodi:nodetypes="ccccc" />
  </g>
</svg>
