<?xml version="1.0" encoding="UTF-8" standalone="no"?>
<svg
   width="128"
   height="128"
   viewBox="0 0 128 128"
   version="1.1"
   id="svg958"
   inkscape:version="1.3 (0e150ed6c4, 2023-07-21)"
   sodipodi:docname="libreoffice-oasis-master-document.svg"
   xmlns:inkscape="http://www.inkscape.org/namespaces/inkscape"
   xmlns:sodipodi="http://sodipodi.sourceforge.net/DTD/sodipodi-0.dtd"
   xmlns:xlink="http://www.w3.org/1999/xlink"
   xmlns="http://www.w3.org/2000/svg"
   xmlns:svg="http://www.w3.org/2000/svg"
   xmlns:rdf="http://www.w3.org/1999/02/22-rdf-syntax-ns#"
   xmlns:cc="http://creativecommons.org/ns#"
   xmlns:dc="http://purl.org/dc/elements/1.1/">
  <defs
     id="defs952">
    <linearGradient
       id="linearGradient21"
       gradientUnits="userSpaceOnUse"
       x1="108.00134"
       x2="20.001341"
       y1="122"
       y2="6"
       gradientTransform="translate(-170.84645,-38.75348)">
      <stop
         offset="0"
         stop-color="#e6e6e6"
         id="stop20" />
      <stop
         offset="1"
         stop-color="#fff"
         id="stop21"
         style="stop-color:#ffffff;stop-opacity:1;" />
    </linearGradient>
    <linearGradient
       id="linearGradient1617"
       inkscape:collect="always">
      <stop
         id="stop1613"
         offset="0"
         style="stop-color:#ffffe8;stop-opacity:1" />
      <stop
         id="stop1615"
         offset="1"
         style="stop-color:#ffe896;stop-opacity:1" />
    </linearGradient>
    <linearGradient
       gradientTransform="matrix(3.7000536,0,0,3.7000536,1.8182381,1.4153997)"
       gradientUnits="userSpaceOnUse"
       y2="30.691668"
       x2="25.4"
       y1="3.175"
       x1="10.583333"
       id="linearGradient1619"
       xlink:href="#linearGradient1617"
       inkscape:collect="always" />
    <inkscape:perspective
       id="perspective1523-9"
       inkscape:persp3d-origin="-68.877233 : 1121.3238 : 1"
       inkscape:vp_z="-51.9439 : 1126.9682 : 1"
       inkscape:vp_y="-35.010567 : 1300.5349 : 1"
       inkscape:vp_x="-255.1439 : 1160.8349 : 1"
       sodipodi:type="inkscape:persp3d" />
    <linearGradient
       id="b-4">
      <stop
         offset="0"
         stop-color="#8e03a3"
         id="stop1" />
      <stop
         offset="1"
         stop-color="#c254d2"
         id="stop2" />
    </linearGradient>
    <linearGradient
       id="f-4"
       gradientUnits="userSpaceOnUse"
       x1="108.00134"
       x2="20.001341"
       y1="122"
       y2="6"
       gradientTransform="translate(-170.84645,-38.75348)">
      <stop
         offset="0"
         stop-color="#e6e6e6"
         id="stop10-30" />
      <stop
         offset="1"
         stop-color="#fff"
         id="stop11-7" />
    </linearGradient>
    <linearGradient
       inkscape:collect="always"
       xlink:href="#linearGradient21"
       id="linearGradient188"
       gradientUnits="userSpaceOnUse"
       gradientTransform="translate(1.46371,-0.173411)"
       x1="98.657448"
       y1="121.25211"
       x2="35.59103"
       y2="9.4523668" />
    <linearGradient
       inkscape:collect="always"
       xlink:href="#b-4"
       id="linearGradient189"
       gradientUnits="userSpaceOnUse"
       gradientTransform="matrix(1,0,0,1.00001,-1155.5358,1168.4719)"
       x1="1273.0009"
       y1="-1040.6349"
       x2="1169.0009"
       y2="-1168.6337" />
    <linearGradient
       inkscape:collect="always"
       xlink:href="#f-4"
       id="linearGradient195"
       gradientUnits="userSpaceOnUse"
       gradientTransform="translate(1.46371,-0.173411)"
       x1="103.23856"
       y1="121.10698"
       x2="26.252501"
       y2="15.525578" />
  </defs>
  <sodipodi:namedview
     inkscape:bbox-nodes="true"
     inkscape:snap-bbox-edge-midpoints="false"
     inkscape:bbox-paths="false"
     inkscape:snap-bbox="true"
     inkscape:snap-grids="false"
     units="px"
     showgrid="false"
     inkscape:document-rotation="0"
     inkscape:current-layer="layer1"
     inkscape:document-units="mm"
     inkscape:cy="15.694075"
     inkscape:cx="102.11898"
     inkscape:zoom="2.3257184"
     inkscape:pageshadow="2"
     inkscape:pageopacity="0.0"
     borderopacity="1.0"
     bordercolor="#666666"
     pagecolor="#ffffff"
     id="base"
     inkscape:pagecheckerboard="0"
     showguides="true"
     inkscape:guide-bbox="true"
     guidetolerance="10000"
     inkscape:snap-tangential="true"
     inkscape:snap-perpendicular="true"
     inkscape:window-width="1920"
     inkscape:window-height="1011"
     inkscape:window-x="0"
     inkscape:window-y="0"
     inkscape:window-maximized="1"
     inkscape:snap-to-guides="false"
     inkscape:snap-intersection-paths="false"
     inkscape:snap-bbox-midpoints="false"
     inkscape:snap-nodes="true"
     inkscape:object-paths="false"
     inkscape:showpageshadow="2"
     inkscape:deskcolor="#d1d1d1">
    <inkscape:grid
       id="grid1521"
       type="xygrid"
       empcolor="#ff2624"
       empopacity="0.2"
       originx="0"
       originy="0"
       spacingy="1"
       spacingx="1"
       units="px"
       visible="false"
       empspacing="4" />
  </sodipodi:namedview>
  <metadata
     id="metadata955">
    <rdf:RDF>
      <cc:Work
         rdf:about="">
        <dc:format>image/svg+xml</dc:format>
        <dc:type
           rdf:resource="http://purl.org/dc/dcmitype/StillImage" />
      </cc:Work>
    </rdf:RDF>
  </metadata>
  <g
     id="layer1"
     inkscape:groupmode="layer"
     inkscape:label="Layer 1">
    <path
       d="M 37.05474,9.278956 13.56591,99.312647 100.12116,121.0787 109.90537,44.759495 83.782698,14.257945 Z"
       fill="url(#f)"
       id="path173"
       style="fill:url(#linearGradient195)"
       sodipodi:nodetypes="cccccc" />
    <g
       inkscape:corner7="-0.053832406 : -0.037633691 : 0.25907482 : 1"
       inkscape:corner0="0.069364932 : 0.12047969 : 0 : 1"
       inkscape:perspectiveID="#perspective1523-9"
       style="fill:#216778;stroke-width:1.2;stroke-linecap:square"
       id="g1525"
       sodipodi:type="inkscape:box3d" />
    <path
       style="fill:#000000;fill-opacity:0.196078;stroke:none;stroke-width:2.74112;stroke-miterlimit:4;stroke-dasharray:none;stroke-opacity:1;paint-order:markers stroke fill"
       d="M 100.12116,121.0787 123.61649,85.835695 100.12116,78.00392 Z"
       id="path1768"
       inkscape:connector-curvature="0"
       sodipodi:nodetypes="cccc" />
    <path
       sodipodi:nodetypes="ccccc"
       id="path1611"
       d="M 37.061249,9.2471797 113.40922,17.43532 100.11814,121.08346 13.565908,99.312647 Z"
       style="fill:url(#linearGradient1619);fill-opacity:1;stroke:none;stroke-width:1.66425;stroke-linecap:butt;stroke-linejoin:miter;stroke-miterlimit:4;stroke-dasharray:none;stroke-opacity:1" />
    <g
       transform="matrix(3.7795276,0,0,3.7795276,-29.848286,-1055.3635)"
       id="g6682" />
    <g
       aria-label="?"
       id="text3832"
       style="font-weight:bold;font-size:25.4px;line-height:0.6;font-family:Arial;-inkscape-font-specification:'Arial Bold';text-align:center;text-anchor:middle;fill:#0a0a96;fill-opacity:1;stroke:none;stroke-width:0.449792;stroke-linecap:square;stroke-miterlimit:4;stroke-dasharray:none"
       transform="scale(3.7795276)" />
    <g
       transform="matrix(3.7795276,0,0,3.7795276,-9.4848633e-7,-4.0000003)"
       id="g886" />
    <g
       transform="matrix(3.7795276,0,0,3.7795276,117.75,-29.25)"
       style="font-weight:600;font-size:14.1111px;line-height:0.8;font-family:'URW Bookman';-inkscape-font-specification:'URW Bookman Semi-Bold';letter-spacing:-0.529167px;fill:#8a6f5e;fill-opacity:1;stroke:none;stroke-width:1.00542;stroke-linecap:square;stroke-miterlimit:4;stroke-dasharray:none;stroke-opacity:1"
       id="text1154"
       aria-label="cpp" />
    <g
       style="font-style:normal;font-variant:normal;font-weight:normal;font-stretch:normal;font-size:16.1802px;line-height:0.8;font-family:'Times New Roman';-inkscape-font-specification:'Times New Roman, ';fill:#191996;fill-opacity:1;stroke:none;stroke-width:1.15283;stroke-linecap:square;stroke-miterlimit:4;stroke-dasharray:none;stroke-opacity:1"
       id="text1180"
       aria-label="?"
       transform="scale(3.7795276)" />
    <g
       style="font-style:normal;font-variant:normal;font-weight:normal;font-stretch:normal;font-size:24.855px;line-height:0.8;font-family:'Times New Roman';-inkscape-font-specification:'Times New Roman, ';fill:#191996;fill-opacity:1;stroke:none;stroke-width:0.983845;stroke-linecap:square;stroke-miterlimit:4;stroke-dasharray:none;stroke-opacity:1"
       id="text1190"
       aria-label="f"
       transform="scale(3.7795276)" />
    <g
       style="font-style:italic;font-variant:normal;font-weight:normal;font-stretch:normal;font-size:29.0422px;line-height:0.8;font-family:'Times New Roman';-inkscape-font-specification:'Times New Roman, Italic';fill:#191996;fill-opacity:1;stroke:none;stroke-width:1.14959;stroke-linecap:square;stroke-miterlimit:4;stroke-dasharray:none;stroke-opacity:1"
       id="text1218"
       aria-label="?"
       transform="scale(3.7795276)" />
    <g
       style="font-style:italic;font-variant:normal;font-weight:normal;font-stretch:normal;font-size:29.1244px;line-height:0.8;font-family:'Times New Roman';-inkscape-font-specification:'Times New Roman,  Italic';fill:#191996;fill-opacity:1;stroke:none;stroke-width:1.15284;stroke-linecap:square;stroke-miterlimit:4;stroke-dasharray:none;stroke-opacity:1"
       id="text1298"
       aria-label="?"
       transform="scale(3.7795276)" />
    <g
       id="g29513"
       transform="matrix(3.7795276,0,0,3.7795276,-0.15289495,5.8448117)">
      <g
         aria-label="js"
         id="g29511"
         style="font-style:italic;font-size:19.05px;font-family:Georgia;-inkscape-font-specification:'Georgia Italic';fill-opacity:0.2;stroke-width:0.502708;stroke-linecap:square;stroke-linejoin:round;stroke-opacity:0.05" />
    </g>
    <path
       id="path14"
       style="fill:#6e6e6e;fill-opacity:1"
       d="M 83.783203 14.257812 L 109.90625 44.759766 L 113.41211 17.429688 L 83.783203 14.257812 z " />
    <path
       d="m 38.77669,43.558529 -0.56012,2.299075 11.42961,1.84756 0.52661,-2.345461 z m 13.05609,2.063539 -0.52161,2.352237 12.75399,2.061643 0.48227,-2.404306 z m 14.44607,2.283228 -0.47677,2.41142 13.311007,2.151683 0.43353,-2.466109 z m 15.07533,2.382683 -0.427486,2.473584 12.961299,2.095154 0.383223,-2.527177 z m -43.51334,-2.888128 -0.75709,3.107626 11.49715,1.94229 0.71198,-3.171072 z m 13.12039,2.152556 -0.70524,3.180342 12.83335,2.168023 0.65223,-3.251597 z m 14.52094,2.382334 -0.64481,3.261335 13.398307,2.263464 0.586491,-3.336214 z m 15.157647,2.486793 -0.578336,3.346453 13.050717,2.204743 0.518591,-3.419872 z M 36.70235,52.072971 35.9338,55.227616 47.49925,57.26732 48.22219,54.047429 Z m 13.19831,2.262142 -0.71612,3.229427 12.91366,2.277478 0.66248,-3.302743 z m 14.61176,2.504404 -0.65498,3.312764 13.486719,2.378543 0.595921,-3.389855 z m 15.257578,2.615093 -0.587658,3.400399 13.14134,2.317632 0.527107,-3.476031 z M 35.54662,56.816886 34.76635,60.019626 46.40084,62.15952 47.135,58.889674 Z m 13.27709,2.374844 -0.72727,3.279657 12.99492,2.390111 0.67299,-3.355104 z m 14.70365,2.630011 -0.66539,3.36542 13.57625,2.497035 0.60558,-3.4448 z m 15.358779,2.74719 -0.597209,3.45566 13.233194,2.433938 0.535835,-3.533583 z m -44.512899,-2.935713 -0.79226,3.251943 11.70429,2.242953 0.74564,-3.320973 z m 13.35674,2.490766 -0.73866,3.331067 13.07713,2.506037 0.68374,-3.408722 z m 14.79665,2.759279 -0.67606,3.419341 13.666928,2.619062 0.615475,-3.501092 z m 15.461266,2.883217 -0.606994,3.51228 13.326303,2.553786 0.544781,-3.592578 z m -44.806086,-3.242841 -0.80452,3.302288 11.77486,2.348979 0.75739,-3.373307 z m 13.43728,2.610017 -0.75034,3.383696 13.16033,2.625367 0.69476,-3.463634 z m 14.89074,2.892334 -0.68697,3.47457 13.758766,2.744749 0.625616,-3.558774 z m 15.565086,3.023316 -0.617021,3.570302 13.42069,2.677306 0.553953,-3.653063 z m -45.103006,-3.559437 -0.81708,3.353813 11.84623,2.458075 0.76941,-3.426889 z m 13.51871,2.732714 -0.76229,3.437582 13.24453,2.748223 0.70604,-3.519884 z m 14.98597,3.029311 -0.69816,3.531146 13.851799,2.87423 0.636009,-3.617895 z m 15.670242,3.16763 -0.627299,3.629774 13.516383,2.804632 0.563358,-3.715088 z m -45.403722,-3.885836 -0.82993,3.406551 11.91837,2.570349 0.78174,-3.481759 z m 13.60104,2.858973 -0.77452,3.492765 13.32974,2.874729 0.7176,-3.577515 z m 15.08235,3.170347 -0.70962,3.589117 13.946036,3.007639 0.646663,-3.6785 z m 15.776767,3.316314 -0.637836,3.690744 13.613406,2.935905 0.573005,-3.778706 z M 29.49496,81.656925 28.65188,85.11747 40.6432,87.803379 41.43755,84.265423 Z m 13.6843,2.988921 -0.78706,3.549289 13.41598,3.005016 0.72945,-3.636574 z m 15.1799,3.315588 -0.72137,3.648525 14.04149,3.145124 0.657592,-3.740641 z m 15.884671,3.469525 -0.648641,3.753264 13.711785,3.071272 0.582902,-3.843971 z M 28.227,86.861473 l -0.64156,2.633373 12.05273,2.784804 0.60464,-2.692997 z m 13.76849,3.122686 -0.59911,2.701728 13.48864,3.116574 0.55542,-2.768994 z m 15.27862,3.465183 -0.54929,2.778208 14.12201,3.262914 0.50088,-2.849239 z m 15.994009,3.62743 -0.494089,2.858975 13.794824,3.187313 0.444149,-2.92896 z"
       fill="url(#e)"
       opacity="0.6"
       id="path21"
       style="fill:url(#linearGradient189)" />
    <path
       id="path20"
       style="fill:url(#linearGradient188)"
       d="M 37.054688 9.2792969 L 13.566406 99.3125 L 100.12109 121.07812 L 109.90625 44.759766 L 83.783203 14.257812 L 37.054688 9.2792969 z " />
    <path
       style="fill:none;stroke:#6e6e6e;stroke-width:1.9;stroke-linecap:butt;stroke-linejoin:miter;stroke-miterlimit:4;stroke-dasharray:none;stroke-opacity:1"
       d="M 37.064265,9.2424277 113.41224,17.430567 100.12116,121.0787 13.568925,99.3079 Z"
       id="path1553"
       sodipodi:nodetypes="ccccc" />
  </g>
</svg>
