<?xml version="1.0" encoding="UTF-8" standalone="no"?>
<svg
   width="128"
   height="128"
   viewBox="0 0 33.866666 33.866668"
   version="1.1"
   id="svg958"
   inkscape:version="1.3 (0e150ed6c4, 2023-07-21)"
   sodipodi:docname="text-x-rust1.svg"
   xmlns:inkscape="http://www.inkscape.org/namespaces/inkscape"
   xmlns:sodipodi="http://sodipodi.sourceforge.net/DTD/sodipodi-0.dtd"
   xmlns:xlink="http://www.w3.org/1999/xlink"
   xmlns="http://www.w3.org/2000/svg"
   xmlns:svg="http://www.w3.org/2000/svg"
   xmlns:rdf="http://www.w3.org/1999/02/22-rdf-syntax-ns#"
   xmlns:cc="http://creativecommons.org/ns#"
   xmlns:dc="http://purl.org/dc/elements/1.1/">
  <defs
     id="defs952">
    <inkscape:path-effect
       effect="perspective-envelope"
       up_left_point="-23.297641,1.9998003"
       up_right_point="-3.09724,4.1662455"
       down_left_point="-29.514116,25.829623"
       down_right_point="-6.613837,31.589815"
       id="path-effect247"
       is_visible="true"
       lpeversion="1"
       deform_type="perspective"
       horizontal_mirror="false"
       vertical_mirror="false"
       overflow_perspective="false" />
    <linearGradient
       id="linearGradient1617"
       inkscape:collect="always">
      <stop
         id="stop1613"
         offset="0"
         style="stop-color:#ffffe8;stop-opacity:1" />
      <stop
         id="stop1615"
         offset="1"
         style="stop-color:#ffe896;stop-opacity:1" />
    </linearGradient>
    <linearGradient
       gradientTransform="matrix(0.9789725,0,0,0.9789725,0.48187339,0.37323377)"
       gradientUnits="userSpaceOnUse"
       y2="30.691668"
       x2="25.4"
       y1="3.175"
       x1="10.583333"
       id="linearGradient1619"
       xlink:href="#linearGradient1617"
       inkscape:collect="always" />
    <linearGradient
       inkscape:collect="always"
       id="linearGradient7089">
      <stop
         style="stop-color:#aa8a34;stop-opacity:0.34999999;"
         offset="0"
         id="stop7085" />
      <stop
         style="stop-color:#caa22c;stop-opacity:0.34999999;"
         offset="1"
         id="stop7087" />
    </linearGradient>
    <linearGradient
       inkscape:collect="always"
       xlink:href="#linearGradient7089"
       id="linearGradient16"
       x1="7.8637094"
       y1="15.388992"
       x2="25.874912"
       y2="15.388992"
       gradientUnits="userSpaceOnUse" />
    <mask
       id="holes">
      <rect
         x="-60"
         y="-60"
         width="120"
         height="120"
         fill="#ffffff"
         id="rect35" />
      <circle
         id="hole"
         cy="-40"
         r="3"
         cx="0" />
      <use
         xlink:href="#hole"
         transform="rotate(72)"
         id="use36" />
      <use
         xlink:href="#hole"
         transform="rotate(144)"
         id="use37" />
      <use
         xlink:href="#hole"
         transform="rotate(-144)"
         id="use38" />
      <use
         xlink:href="#hole"
         transform="rotate(-72)"
         id="use39" />
    </mask>
    <mask
       id="mask43">
      <rect
         x="-60"
         y="-60"
         width="120"
         height="120"
         fill="#ffffff"
         id="rect1" />
      <circle
         id="circle2"
         cy="-40"
         r="3"
         cx="0" />
      <use
         xlink:href="#hole"
         transform="rotate(72)"
         id="use40" />
      <use
         xlink:href="#hole"
         transform="rotate(144)"
         id="use41" />
      <use
         xlink:href="#hole"
         transform="rotate(-144)"
         id="use42" />
      <use
         xlink:href="#hole"
         transform="rotate(-72)"
         id="use43" />
    </mask>
    <mask
       maskUnits="userSpaceOnUse"
       id="mask86">
      <g
         id="g90"
         transform="matrix(6.2007705,0,0,6.2007705,228.8594,-87.959065)">
        <rect
           x="-46.584438"
           y="4.508966"
           width="19.352434"
           height="19.352434"
           fill="#ffffff"
           id="rect86"
           style="stroke-width:0.16127" />
        <circle
           id="circle86"
           cy="7.7343717"
           r="0.48381084"
           cx="-36.908218"
           style="stroke-width:0.16127" />
        <use
           xlink:href="#hole"
           transform="matrix(0.04983526,0.15337715,-0.15337715,0.04983526,-36.90822,14.185183)"
           id="use87" />
        <use
           xlink:href="#hole"
           transform="matrix(-0.1304704,0.09479229,-0.09479229,-0.1304704,-36.90822,14.185183)"
           id="use88" />
        <use
           xlink:href="#hole"
           transform="matrix(-0.1304704,-0.09479229,0.09479229,-0.1304704,-36.90822,14.185183)"
           id="use89" />
        <use
           xlink:href="#hole"
           transform="matrix(0.04983526,-0.15337715,0.15337715,0.04983526,-36.90822,14.185183)"
           id="use90" />
      </g>
    </mask>
  </defs>
  <sodipodi:namedview
     inkscape:bbox-nodes="true"
     inkscape:snap-bbox-edge-midpoints="false"
     inkscape:bbox-paths="false"
     inkscape:snap-bbox="true"
     inkscape:snap-grids="false"
     units="px"
     showgrid="false"
     inkscape:document-rotation="0"
     inkscape:current-layer="layer1"
     inkscape:document-units="px"
     inkscape:cy="64.154403"
     inkscape:cx="64"
     inkscape:zoom="6.4765625"
     inkscape:pageshadow="2"
     inkscape:pageopacity="0.0"
     borderopacity="1.0"
     bordercolor="#666666"
     pagecolor="#ffffff"
     id="base"
     inkscape:pagecheckerboard="0"
     showguides="false"
     inkscape:guide-bbox="true"
     guidetolerance="10000"
     inkscape:snap-tangential="true"
     inkscape:snap-perpendicular="true"
     inkscape:window-width="1920"
     inkscape:window-height="1011"
     inkscape:window-x="0"
     inkscape:window-y="0"
     inkscape:window-maximized="1"
     inkscape:snap-to-guides="false"
     inkscape:snap-intersection-paths="false"
     inkscape:snap-bbox-midpoints="false"
     inkscape:snap-nodes="true"
     inkscape:object-paths="false"
     inkscape:showpageshadow="2"
     inkscape:deskcolor="#d1d1d1">
    <inkscape:grid
       id="grid1521"
       type="xygrid"
       empcolor="#ff2624"
       empopacity="0.2"
       originx="0"
       originy="0"
       spacingy="0.26458334"
       spacingx="0.26458334"
       units="px"
       visible="false"
       empspacing="4" />
    <sodipodi:guide
       position="6.5361112,12.172222"
       orientation="0,-1"
       id="guide846"
       inkscape:locked="false" />
    <sodipodi:guide
       position="4.7625,13.798641"
       orientation="1,0"
       id="guide848"
       inkscape:locked="false" />
    <sodipodi:guide
       position="4.7625,29.104928"
       orientation="0,-1"
       id="guide1"
       inkscape:locked="false" />
    <sodipodi:guide
       position="21.695835,30.95625"
       orientation="1,0"
       id="guide2"
       inkscape:locked="false" />
  </sodipodi:namedview>
  <metadata
     id="metadata955">
    <rdf:RDF>
      <cc:Work
         rdf:about="">
        <dc:format>image/svg+xml</dc:format>
        <dc:type
           rdf:resource="http://purl.org/dc/dcmitype/StillImage" />
      </cc:Work>
    </rdf:RDF>
  </metadata>
  <g
     id="layer1"
     inkscape:groupmode="layer"
     inkscape:label="Layer 1">
    <path
       style="fill:#000000;fill-opacity:0.196078;stroke:none;stroke-width:0.725255;stroke-miterlimit:4;stroke-dasharray:none;stroke-opacity:1;paint-order:markers stroke fill"
       d="M 26.49039,32.035407 32.706865,22.710694 26.49039,20.638537 Z"
       id="path1768"
       inkscape:connector-curvature="0"
       sodipodi:nodetypes="cccc" />
    <path
       sodipodi:nodetypes="ccccc"
       id="path1611"
       d="M 9.8065864,2.4453923 30.006987,4.6118375 26.49039,32.035406 3.590111,26.275213 Z"
       style="fill:url(#linearGradient1619);fill-opacity:1;stroke:none;stroke-width:0.440334;stroke-linecap:butt;stroke-linejoin:miter;stroke-miterlimit:4;stroke-dasharray:none;stroke-opacity:1" />
    <path
       style="fill:none;stroke:#4d3e2e;stroke-width:0.238125;stroke-linecap:butt;stroke-linejoin:miter;stroke-miterlimit:4;stroke-dasharray:none;stroke-opacity:1"
       d="M 9.8065869,2.4453923 30.006987,4.6118375 26.49039,32.035407 3.5901115,26.275215 Z"
       id="path1553"
       sodipodi:nodetypes="ccccc" />
    <path
       id="path1"
       style="color:#000000;fill:url(#linearGradient16);-inkscape-stroke:none"
       d="m 12.225614,5.4915095 -0.169255,0.7039461 13.701995,1.7392586 0.116559,-0.7661596 z m -0.420389,1.7484308 -0.173138,0.7200941 13.833739,1.8975163 0.119436,-0.7850751 z m -0.430212,1.7892848 -0.176674,0.7348039 13.967904,2.062726 0.12209,-0.802515 z m -0.439698,1.8287409 -0.180721,0.751631 14.104617,2.235327 0.12511,-0.822362 z m -0.449803,1.870763 -0.184806,0.768622 14.243883,2.415635 0.128172,-0.842496 z m -0.460156,1.913824 -0.1895488,0.78835 14.3859258,2.60427 0.131709,-0.865744 z m -0.47108,1.95926 -0.1940444,0.807046 14.5305984,2.80139 0.135092,-0.887982 z m -0.4821845,2.005443 -0.1988083,0.826859 14.6780678,3.007587 0.138681,-0.911578 z m -0.4939051,2.054189 -0.2035266,0.846483 14.8283742,3.223316 0.14226,-0.9351 z m -0.5062837,2.105674 -0.2081933,0.865891 7.1818276,1.653464 0.179876,-0.909943 z" />
    <path
       id="path247"
       style="fill:#000000;fill-opacity:0.2;stroke-width:0.16204"
       d="m 18.769413,8.5558082 c -0.06846,-0.00916 -0.138786,0.016565 -0.185945,0.068003 l -0.476515,0.5192543 c -0.05357,-0.0029 -0.107086,-0.00565 -0.160486,-0.00721 L 17.578299,8.5857032 C 17.500469,8.4694836 17.318124,8.4798761 17.240095,8.6048122 L 16.8722,9.1943888 c -0.053,0.00728 -0.106052,0.014169 -0.158738,0.022726 L 16.245826,8.7538936 c -0.09881,-0.097826 -0.276354,-0.053698 -0.329203,0.081714 l -0.250249,0.6418605 c -0.05048,0.016963 -0.100956,0.033695 -0.150969,0.051839 L 14.964329,9.1671396 C 14.848043,9.0907636 14.680866,9.1669237 14.6546,9.308191 l -0.124608,0.6715907 c -0.0456,0.02537 -0.09105,0.05092 -0.136072,0.07733 L 13.776418,9.8088547 c -0.129836,-0.05228 -0.281206,0.05332 -0.280291,0.1955593 l 0.004,0.676608 c -0.04036,0.03319 -0.0801,0.06713 -0.119739,0.101249 l -0.660726,-0.124172 c -0.139162,-0.02619 -0.269763,0.105611 -0.241666,0.243994 l 0.132201,0.655783 c -0.03473,0.04103 -0.06842,0.08293 -0.102247,0.12483 l -0.679819,0.0063 c -0.143719,0.0013 -0.248944,0.154921 -0.194776,0.284566 l 0.255491,0.612841 c -0.02706,0.04724 -0.05265,0.09551 -0.07865,0.143517 l -0.67567,0.138306 c -0.14352,0.02928 -0.219654,0.200022 -0.14087,0.316389 l 0.371978,0.550439 c -0.01796,0.0515 -0.03495,0.103591 -0.05177,0.155746 l -0.651707,0.2683 c -0.138387,0.057 -0.182312,0.239533 -0.08113,0.338217 l 0.479037,0.467367 c -0.0084,0.05448 -0.01655,0.10897 -0.02352,0.163368 l -0.60193,0.392784 c -0.128002,0.08367 -0.137375,0.271714 -0.01708,0.348651 l 0.569343,0.364075 c 0.0021,0.05511 0.004,0.110336 0.0074,0.165196 l -0.530841,0.507866 c -0.112978,0.108246 -0.08657,0.295684 0.04927,0.347248 l 0.644941,0.244491 c 0.01255,0.05331 0.0251,0.106665 0.03894,0.159552 l -0.438886,0.610694 c -0.09332,0.12992 -0.03086,0.30996 0.115932,0.333113 l 0.697984,0.109807 c 0.02224,0.04889 0.0448,0.09755 0.06823,0.145861 l -0.325958,0.696076 c -0.0692,0.147666 0.02815,0.313056 0.180396,0.30572 l 0.722967,-0.0346 c 0.03161,0.04379 0.06394,0.08695 0.09665,0.129955 l -0.194085,0.755035 c -0.04117,0.160373 0.08831,0.303837 0.239849,0.265168 l 0.715949,-0.182932 c 0.041,0.03767 0.08301,0.07427 0.125058,0.110907 l -0.04859,0.784331 c -0.01029,0.167148 0.147018,0.282042 0.291462,0.212416 l 0.679553,-0.328228 c 0.04876,0.02894 0.09856,0.05645 0.148255,0.08415 l 0.102992,0.782338 c 0.02206,0.167448 0.201549,0.248159 0.332541,0.149158 l 0.615039,-0.465637 c 0.05435,0.01832 0.109344,0.03545 0.164462,0.05245 l 0.254223,0.752702 c 0.05441,0.161175 0.249415,0.203342 0.36079,0.07772 l 0.522653,-0.58973 c 0.05778,0.0069 0.115614,0.01358 0.17334,0.01888 l 0.39875,0.688235 c 0.08544,0.147741 0.287457,0.148468 0.373599,0.0011 L 17.9734,22.432935 c 0.05851,-0.0053 0.117178,-0.01014 0.175414,-0.01703 l 0.52903,0.59556 c 0.113397,0.127826 0.313565,0.08633 0.369985,-0.07685 l 0.265081,-0.765651 c 0.05611,-0.01725 0.112088,-0.0346 0.167685,-0.0533 l 0.640361,0.477685 c 0.136815,0.102304 0.326176,0.01987 0.349725,-0.152311 l 0.110864,-0.8092 c 0.05064,-0.02779 0.101014,-0.05593 0.150948,-0.085 l 0.725482,0.337718 c 0.154294,0.07187 0.323743,-0.0479 0.313128,-0.221283 l -0.04966,-0.815139 c 0.04424,-0.03744 0.08777,-0.07561 0.131094,-0.114175 l 0.776078,0.181996 c 0.16485,0.0386 0.306816,-0.112857 0.262539,-0.279924 l -0.207492,-0.782 c 0.03675,-0.04649 0.07236,-0.09399 0.107959,-0.141466 l 0.789744,0.01954 c 0.167951,0.0041 0.276244,-0.171815 0.200555,-0.325402 l -0.353509,-0.716891 c 0.02685,-0.05308 0.05197,-0.10727 0.07748,-0.161153 l 0.768202,-0.138953 c 0.16376,-0.02969 0.234221,-0.221946 0.130699,-0.355868 l -0.483258,-0.62479 c 0.01556,-0.05693 0.02992,-0.114413 0.04409,-0.171948 l 0.718553,-0.286797 c 0.153021,-0.06107 0.183458,-0.261413 0.05662,-0.370587 l -0.592244,-0.509451 c 0.0041,-0.0584 0.0079,-0.116778 0.01044,-0.174932 l 0.638083,-0.417948 c 0.13601,-0.08888 0.126087,-0.28831 -0.018,-0.368979 L 24.106629,14.73151 c -0.0076,-0.0569 -0.01475,-0.113893 -0.02374,-0.170347 l 0.536398,-0.527019 c 0.114112,-0.111919 0.06545,-0.3023 -0.08965,-0.352254 l -0.727075,-0.234511 c -0.01835,-0.05288 -0.03676,-0.105598 -0.0564,-0.157855 l 0.41772,-0.612193 c 0.08861,-0.129533 0.0043,-0.303658 -0.155471,-0.322074 l -0.751874,-0.08684 c -0.02741,-0.04636 -0.05509,-0.09242 -0.0836,-0.13801 l 0.28618,-0.670967 c 0.06028,-0.141245 -0.05509,-0.292527 -0.213133,-0.280094 l -0.745126,0.05846 c -0.03549,-0.03947 -0.07162,-0.07828 -0.108056,-0.116845 l 0.147056,-0.699002 c 0.03099,-0.147117 -0.110281,-0.270874 -0.261037,-0.229151 l -0.708654,0.195291 c -0.04301,-0.03206 -0.08676,-0.06311 -0.130617,-0.0941 l 0.0067,-0.6971715 C 21.44775,9.4498237 21.286851,9.3573662 21.148607,9.4253931 l -0.649196,0.3187836 c -0.04847,-0.02293 -0.09792,-0.044398 -0.147098,-0.066141 l -0.12802,-0.6691718 c -0.027,-0.1415402 -0.201335,-0.2004883 -0.322816,-0.1094441 l -0.571034,0.4270703 c -0.05191,-0.012986 -0.104371,-0.024862 -0.15684,-0.0366 L 18.919891,8.6690136 c -0.02501,-0.061229 -0.08192,-0.1040573 -0.150426,-0.1132563 z m -0.242225,1.1768295 c 0.221964,0.03703 0.365247,0.241021 0.32241,0.4603213 -0.10608,0.54144 -0.934796,0.420571 -0.826442,-0.118045 0.04542,-0.2268653 0.273224,-0.3815456 0.504032,-0.3422763 z m -1.062143,0.5300673 0.502318,0.746905 c 0.114316,0.169723 0.352063,0.211855 0.531464,0.0908 l 0.849061,-0.566023 c 1.447523,0.490415 2.607813,1.601648 3.160916,3.058903 l -0.715996,1.067244 c -0.123726,0.18533 -0.07227,0.436272 0.114025,0.559999 l 0.936728,0.613895 c -0.02028,0.320492 -0.06882,0.639616 -0.145201,0.953614 l -0.56785,-0.09932 c -0.05614,-0.0098 -0.08526,0.02331 -0.09446,0.0779 l -0.04371,0.259148 c -0.103446,0.613329 -0.471409,0.686061 -0.779364,0.664694 -0.292758,-0.01871 -0.581689,-0.230433 -0.59064,-0.413215 9.8e-5,-0.97694 -0.241223,-1.224891 -0.614617,-1.645184 0.602294,-0.25053 1.255451,-0.661796 1.373148,-1.333891 0.126156,-0.720404 -0.292913,-1.248846 -0.590863,-1.520623 -0.416583,-0.377481 -0.923623,-0.51745 -1.062992,-0.538799 L 14.344334,11.4142 c 0.901896,-0.702227 1.99543,-1.106464 3.120719,-1.1515 z m -4.550502,2.403484 c 0.214235,0.04124 0.345176,0.250397 0.294839,0.472355 -0.124672,0.548592 -0.92325,0.415254 -0.797895,-0.130686 0.05295,-0.230152 0.28037,-0.384593 0.503056,-0.341669 z m 10.022691,1.638012 c 0.239378,0.0457 0.399608,0.270065 0.360943,0.50684 -0.09563,0.586479 -0.988556,0.437289 -0.890253,-0.145908 0.0413,-0.245389 0.280517,-0.408487 0.52931,-0.360932 z m -9.288235,-1.431992 0.702797,0.113786 -0.723756,3.301882 -1.43521,-0.259711 c -0.028,-0.676144 0.07086,-1.354042 0.289734,-1.997821 l 0.955527,-0.251405 c 0.204683,-0.05433 0.338751,-0.262715 0.297898,-0.466375 z m 2.963018,0.515804 1.73964,0.281999 c 0.0912,0.01478 0.623167,0.209577 0.544221,0.624879 -0.0657,0.34561 -0.515225,0.398513 -0.864047,0.340039 l -1.621314,-0.271784 z m -0.49104,2.395664 1.345538,0.23642 c 0.123451,0.02169 0.657481,0.153125 0.694679,0.891522 0.0124,0.228216 -0.0031,0.966799 0.0355,1.213334 0.0335,0.274854 0.271763,0.860503 0.632507,0.929348 l 2.316277,0.442042 c -0.193956,0.184623 -0.400749,0.354907 -0.618747,0.509489 l -0.910119,-0.392146 c -0.210252,-0.09085 -0.452067,0.01165 -0.540377,0.227901 l -0.421428,1.035757 c -1.574056,0.392179 -3.20573,0.04962 -4.455068,-0.917738 l 0.0096,-1.088377 c 0.0017,-0.226803 -0.170876,-0.405425 -0.386929,-0.398317 l -0.903665,0.02889 c -0.120527,-0.204442 -0.226983,-0.417031 -0.318734,-0.63629 l 4.236569,0.808514 c 0.04856,0.0093 0.08357,0.0069 0.09292,-0.04065 l 0.310467,-1.577623 c 0.0089,-0.04521 -0.02216,-0.06118 -0.07033,-0.06991 l -1.250297,-0.22664 z m -2.695397,3.195908 c 0.225039,0.05127 0.36344,0.283884 0.311616,0.52533 -0.128482,0.597268 -0.968734,0.42734 -0.837945,-0.166553 0.05483,-0.249993 0.292645,-0.412081 0.526329,-0.358777 z m 6.409008,1.278648 c 0.241755,0.055 0.399391,0.298973 0.354968,0.550995 -0.119122,0.609121 -0.997128,0.431514 -0.898947,-0.178783 0.04698,-0.26106 0.292816,-0.429246 0.543979,-0.372212 z" />
    <path
       id="path1-3"
       style="stroke-width:0.16204;fill:#171799;fill-opacity:1"
       d="m 18.401745,8.3106938 c -0.06846,-0.00916 -0.138786,0.016565 -0.185945,0.068003 l -0.476515,0.5192543 c -0.05357,-0.0029 -0.107086,-0.00565 -0.160486,-0.00721 L 17.210631,8.3405888 c -0.07783,-0.1162196 -0.260175,-0.1058271 -0.338204,0.019109 l -0.367895,0.5895766 c -0.053,0.00728 -0.106052,0.014169 -0.158738,0.022726 L 15.878158,8.5087792 c -0.09881,-0.097826 -0.276354,-0.053698 -0.329203,0.081714 l -0.250249,0.6418605 c -0.05048,0.016963 -0.100956,0.033695 -0.150969,0.051839 L 14.596661,8.9220252 c -0.116286,-0.076376 -0.283463,-2.159e-4 -0.309729,0.1410514 l -0.124608,0.6715906 c -0.0456,0.025371 -0.09105,0.050917 -0.136072,0.077329 L 13.40875,9.563739 C 13.278914,9.511461 13.127544,9.61706 13.128459,9.7592985 l 0.004,0.6766105 c -0.04036,0.03319 -0.0801,0.06713 -0.119739,0.101249 l -0.660726,-0.124172 c -0.139162,-0.02619 -0.269763,0.105611 -0.241666,0.243994 l 0.132201,0.655783 c -0.03473,0.04103 -0.06842,0.08293 -0.102247,0.12483 l -0.679819,0.0063 c -0.143719,0.0013 -0.248944,0.154921 -0.194776,0.284566 l 0.255491,0.612841 c -0.02706,0.04724 -0.05265,0.09551 -0.07865,0.143517 l -0.67567,0.138306 c -0.14352,0.02928 -0.219654,0.200022 -0.14087,0.316389 l 0.371978,0.550439 c -0.01796,0.0515 -0.03495,0.103591 -0.05177,0.155746 l -0.651707,0.2683 c -0.138387,0.057 -0.182312,0.239533 -0.08113,0.338217 l 0.479037,0.467367 c -0.0084,0.05448 -0.01655,0.10897 -0.02352,0.163368 l -0.60193,0.392784 c -0.128003,0.08367 -0.137376,0.271714 -0.01708,0.348651 l 0.569343,0.364075 c 0.0021,0.05511 0.004,0.110336 0.0074,0.165196 l -0.530841,0.507866 c -0.112979,0.108246 -0.08657,0.295684 0.04927,0.347248 l 0.644941,0.244491 c 0.01255,0.05331 0.0251,0.106665 0.03894,0.159552 l -0.438886,0.610695 c -0.09332,0.12992 -0.03086,0.30996 0.115932,0.333113 l 0.697984,0.109807 c 0.02224,0.04889 0.0448,0.09755 0.06823,0.145861 l -0.325958,0.696076 c -0.0692,0.147666 0.02815,0.313056 0.180396,0.30572 l 0.722967,-0.0346 c 0.03161,0.04379 0.06394,0.08695 0.09665,0.129955 l -0.194085,0.755035 c -0.04117,0.160373 0.08831,0.303837 0.239849,0.265168 l 0.715949,-0.182932 c 0.041,0.03767 0.08301,0.07427 0.125058,0.110907 l -0.04859,0.784331 c -0.01029,0.167148 0.147018,0.282042 0.291462,0.212416 l 0.679553,-0.328228 c 0.04876,0.02894 0.09856,0.05645 0.148255,0.08415 l 0.102992,0.782338 c 0.02206,0.167448 0.201549,0.248159 0.332541,0.149158 l 0.615039,-0.465637 c 0.05435,0.01832 0.109344,0.03545 0.164462,0.05245 l 0.254223,0.752702 c 0.05441,0.161175 0.249415,0.203342 0.36079,0.07772 l 0.522653,-0.58973 c 0.05778,0.0069 0.115614,0.01358 0.17334,0.01888 l 0.39875,0.688235 c 0.08544,0.147741 0.287457,0.148468 0.373599,0.0011 l 0.403658,-0.689679 c 0.05851,-0.0053 0.117178,-0.01014 0.175414,-0.01703 l 0.52903,0.59556 c 0.113397,0.127826 0.313565,0.08633 0.369985,-0.07685 l 0.265081,-0.765651 c 0.05611,-0.01725 0.112088,-0.0346 0.167685,-0.0533 l 0.640361,0.477685 c 0.136815,0.102304 0.326176,0.01987 0.349725,-0.152311 l 0.110864,-0.8092 c 0.05064,-0.02779 0.101014,-0.05593 0.150948,-0.085 l 0.725482,0.337718 c 0.154294,0.07187 0.323743,-0.0479 0.313128,-0.221283 l -0.04966,-0.815139 c 0.04424,-0.03744 0.08777,-0.07561 0.131094,-0.114175 l 0.776078,0.181996 c 0.16485,0.0386 0.306816,-0.112857 0.262539,-0.279924 l -0.207492,-0.782 c 0.03675,-0.04649 0.07236,-0.09399 0.107959,-0.141466 l 0.789744,0.01954 c 0.167951,0.0041 0.276244,-0.171815 0.200555,-0.325402 L 23.060743,18.4447 c 0.02685,-0.05308 0.05197,-0.10727 0.07748,-0.161153 l 0.768202,-0.138953 c 0.16376,-0.02969 0.234221,-0.221946 0.130699,-0.355868 l -0.483258,-0.62479 c 0.01556,-0.05693 0.02992,-0.114413 0.04409,-0.171948 l 0.718553,-0.286797 c 0.153021,-0.06107 0.183458,-0.261413 0.05662,-0.370587 l -0.592244,-0.509451 c 0.0041,-0.0584 0.0079,-0.116778 0.01044,-0.174932 l 0.638083,-0.417948 c 0.13601,-0.08888 0.126087,-0.28831 -0.018,-0.368979 l -0.672447,-0.376896 c -0.0076,-0.0569 -0.01475,-0.113893 -0.02374,-0.170347 l 0.536398,-0.527019 c 0.114112,-0.111919 0.06545,-0.3023 -0.08965,-0.352254 l -0.727075,-0.234511 c -0.01835,-0.05288 -0.03676,-0.105598 -0.0564,-0.157855 l 0.41772,-0.612193 c 0.08861,-0.129533 0.0043,-0.303658 -0.155471,-0.322074 l -0.751874,-0.08684 c -0.02741,-0.04636 -0.05509,-0.09242 -0.0836,-0.13801 l 0.28618,-0.670967 c 0.06028,-0.141245 -0.05509,-0.292527 -0.213133,-0.280094 l -0.745126,0.05846 c -0.03549,-0.03947 -0.07162,-0.07828 -0.108056,-0.116845 L 22.17219,10.176847 C 22.20318,10.02973 22.061909,9.9059716 21.911153,9.9476956 l -0.708654,0.1952914 c -0.04301,-0.03206 -0.08676,-0.06311 -0.130617,-0.0941 l 0.0067,-0.6971739 c 0.0015,-0.1470038 -0.159399,-0.2394613 -0.297643,-0.1714344 l -0.649196,0.3187839 c -0.04847,-0.022931 -0.09792,-0.044398 -0.147098,-0.066141 L 19.856625,8.7637495 C 19.829625,8.6222093 19.65529,8.5632612 19.533809,8.6543054 l -0.571034,0.4270703 c -0.05191,-0.012986 -0.104371,-0.024862 -0.15684,-0.0366 L 18.552223,8.4238992 C 18.527213,8.3626702 18.470303,8.3198419 18.401797,8.3106429 Z M 18.15952,9.4875233 c 0.221964,0.037028 0.365247,0.2410212 0.32241,0.4603228 -0.10608,0.5414409 -0.934796,0.4205719 -0.826442,-0.1180455 0.04542,-0.2268662 0.273224,-0.3815466 0.504032,-0.3422773 z m -1.062143,0.5300697 0.502318,0.746905 c 0.114316,0.169723 0.352063,0.211855 0.531464,0.0908 l 0.849061,-0.566023 c 1.447523,0.490415 2.607813,1.601648 3.160916,3.058903 l -0.715996,1.067244 c -0.123726,0.18533 -0.07227,0.436272 0.114025,0.559999 l 0.936728,0.613895 c -0.02028,0.320492 -0.06882,0.639616 -0.145201,0.953614 l -0.56785,-0.09932 c -0.05614,-0.0098 -0.08526,0.02331 -0.09446,0.0779 l -0.04371,0.259148 c -0.103446,0.613329 -0.471409,0.686061 -0.779364,0.664694 -0.292758,-0.01871 -0.581689,-0.230433 -0.59064,-0.413215 9.8e-5,-0.97694 -0.241223,-1.224891 -0.614617,-1.645184 0.602294,-0.25053 1.255451,-0.661796 1.373148,-1.333891 0.126156,-0.720404 -0.292913,-1.248846 -0.590863,-1.520623 -0.416583,-0.377481 -0.923623,-0.51745 -1.062992,-0.538799 l -5.382678,-0.824552 c 0.901896,-0.702227 1.99543,-1.106464 3.120719,-1.1515 z m -4.550502,2.403484 c 0.214235,0.04124 0.345176,0.250397 0.294839,0.472355 -0.124672,0.548592 -0.92325,0.415254 -0.797895,-0.130686 0.05295,-0.230152 0.28037,-0.384593 0.503056,-0.341669 z m 10.022691,1.638012 c 0.239378,0.0457 0.399608,0.270065 0.360943,0.50684 -0.09563,0.586479 -0.988556,0.437289 -0.890253,-0.145908 0.0413,-0.245389 0.280517,-0.408487 0.52931,-0.360932 z m -9.288235,-1.431992 0.702797,0.113786 -0.723756,3.301882 -1.43521,-0.259711 c -0.028,-0.676144 0.07086,-1.354042 0.289734,-1.997821 l 0.955527,-0.251405 c 0.204683,-0.05433 0.338751,-0.262715 0.297898,-0.466375 z m 2.963018,0.515804 1.73964,0.281999 c 0.0912,0.01478 0.623167,0.209577 0.544221,0.624879 -0.0657,0.34561 -0.515225,0.398513 -0.864047,0.340039 l -1.621314,-0.271784 z m -0.49104,2.395664 1.345538,0.23642 c 0.123451,0.02169 0.657481,0.153125 0.694679,0.891522 0.0124,0.228216 -0.0031,0.966799 0.0355,1.213334 0.0335,0.274854 0.271763,0.860503 0.632507,0.929348 l 2.316277,0.442042 c -0.193956,0.184623 -0.400749,0.354907 -0.618747,0.509489 l -0.910119,-0.392146 c -0.210252,-0.09085 -0.452067,0.01165 -0.540377,0.227901 l -0.421428,1.035757 c -1.574056,0.392179 -3.20573,0.04962 -4.455068,-0.917738 l 0.0096,-1.088377 c 0.0017,-0.226803 -0.170876,-0.405425 -0.386929,-0.398317 l -0.903665,0.02889 C 12.43055,18.052248 12.324094,17.839659 12.232343,17.6204 l 4.236569,0.808514 c 0.04856,0.0093 0.08357,0.0069 0.09292,-0.04065 l 0.310467,-1.577623 c 0.0089,-0.04521 -0.02216,-0.06118 -0.07033,-0.06991 l -1.250297,-0.22664 z m -2.695397,3.195908 c 0.225039,0.05127 0.36344,0.283884 0.311616,0.52533 -0.128482,0.597268 -0.968734,0.42734 -0.837945,-0.166553 0.05483,-0.249993 0.292645,-0.412081 0.526329,-0.358777 z m 6.409008,1.278648 c 0.241755,0.055 0.399391,0.298973 0.354968,0.550995 -0.119122,0.609121 -0.997128,0.431514 -0.898947,-0.178783 0.04698,-0.26106 0.292816,-0.429246 0.543979,-0.372212 z" />
    <g
       id="path2"
       transform="matrix(0.26458334,0,0,0.26458334,-79.20977,-4.774991)" />
  </g>
</svg>
