<?xml version="1.0" encoding="UTF-8" standalone="no"?>
<svg
   width="128"
   height="128"
   viewBox="0 0 33.866666 33.866668"
   version="1.1"
   id="svg958"
   inkscape:version="1.3 (0e150ed6c4, 2023-07-21)"
   sodipodi:docname="text-x-yaml.svg"
   xmlns:inkscape="http://www.inkscape.org/namespaces/inkscape"
   xmlns:sodipodi="http://sodipodi.sourceforge.net/DTD/sodipodi-0.dtd"
   xmlns:xlink="http://www.w3.org/1999/xlink"
   xmlns="http://www.w3.org/2000/svg"
   xmlns:svg="http://www.w3.org/2000/svg"
   xmlns:rdf="http://www.w3.org/1999/02/22-rdf-syntax-ns#"
   xmlns:cc="http://creativecommons.org/ns#"
   xmlns:dc="http://purl.org/dc/elements/1.1/">
  <defs
     id="defs952">
    <inkscape:path-effect
       effect="perspective-envelope"
       up_left_point="2.5963694,-17.945659"
       up_right_point="78.944336,-9.7575199"
       down_left_point="-20.89897,72.11981"
       down_right_point="65.653261,93.890614"
       id="path-effect1"
       is_visible="true"
       lpeversion="1"
       deform_type="perspective"
       horizontal_mirror="false"
       vertical_mirror="false"
       overflow_perspective="false" />
    <linearGradient
       id="linearGradient1617"
       inkscape:collect="always">
      <stop
         id="stop1613"
         offset="0"
         style="stop-color:#ffffe8;stop-opacity:1" />
      <stop
         id="stop1615"
         offset="1"
         style="stop-color:#ffe896;stop-opacity:1" />
    </linearGradient>
    <linearGradient
       gradientTransform="matrix(0.9789725,0,0,0.9789725,0.40449139,0.15567857)"
       gradientUnits="userSpaceOnUse"
       y2="30.691668"
       x2="25.4"
       y1="3.175"
       x1="10.583333"
       id="linearGradient1619"
       xlink:href="#linearGradient1617"
       inkscape:collect="always" />
    <linearGradient
       inkscape:collect="always"
       id="linearGradient7089">
      <stop
         style="stop-color:#aa8a34;stop-opacity:0.34999999;"
         offset="0"
         id="stop7085" />
      <stop
         style="stop-color:#caa22c;stop-opacity:0.34999999;"
         offset="1"
         id="stop7087" />
    </linearGradient>
    <linearGradient
       inkscape:collect="always"
       xlink:href="#linearGradient7089"
       id="linearGradient16"
       x1="7.8637094"
       y1="15.388992"
       x2="25.874912"
       y2="15.388992"
       gradientUnits="userSpaceOnUse" />
  </defs>
  <sodipodi:namedview
     inkscape:bbox-nodes="true"
     inkscape:snap-bbox-edge-midpoints="false"
     inkscape:bbox-paths="false"
     inkscape:snap-bbox="true"
     inkscape:snap-grids="false"
     units="px"
     showgrid="false"
     inkscape:document-rotation="0"
     inkscape:current-layer="layer1"
     inkscape:document-units="px"
     inkscape:cy="64"
     inkscape:cx="64"
     inkscape:zoom="6.1015625"
     inkscape:pageshadow="2"
     inkscape:pageopacity="0.0"
     borderopacity="1.0"
     bordercolor="#666666"
     pagecolor="#ffffff"
     id="base"
     inkscape:pagecheckerboard="0"
     showguides="false"
     inkscape:guide-bbox="true"
     guidetolerance="10000"
     inkscape:snap-tangential="true"
     inkscape:snap-perpendicular="true"
     inkscape:window-width="1920"
     inkscape:window-height="1011"
     inkscape:window-x="0"
     inkscape:window-y="0"
     inkscape:window-maximized="1"
     inkscape:snap-to-guides="false"
     inkscape:snap-intersection-paths="false"
     inkscape:snap-bbox-midpoints="false"
     inkscape:snap-nodes="true"
     inkscape:object-paths="false"
     inkscape:showpageshadow="2"
     inkscape:deskcolor="#d1d1d1">
    <inkscape:grid
       id="grid1521"
       type="xygrid"
       empcolor="#ff2624"
       empopacity="0.2"
       originx="0"
       originy="0"
       spacingy="0.26458334"
       spacingx="0.26458334"
       units="px"
       visible="false"
       empspacing="4" />
    <sodipodi:guide
       position="6.5361112,12.172222"
       orientation="0,-1"
       id="guide846"
       inkscape:locked="false" />
    <sodipodi:guide
       position="4.7625,13.798641"
       orientation="1,0"
       id="guide848"
       inkscape:locked="false" />
    <sodipodi:guide
       position="4.7625,29.104928"
       orientation="0,-1"
       id="guide1"
       inkscape:locked="false" />
    <sodipodi:guide
       position="21.695835,30.95625"
       orientation="1,0"
       id="guide2"
       inkscape:locked="false" />
  </sodipodi:namedview>
  <metadata
     id="metadata955">
    <rdf:RDF>
      <cc:Work
         rdf:about="">
        <dc:format>image/svg+xml</dc:format>
        <dc:type
           rdf:resource="http://purl.org/dc/dcmitype/StillImage" />
      </cc:Work>
    </rdf:RDF>
  </metadata>
  <g
     id="layer1"
     inkscape:groupmode="layer"
     inkscape:label="Layer 1">
    <path
       style="fill:#000000;fill-opacity:0.196078;stroke:none;stroke-width:0.725255;stroke-miterlimit:4;stroke-dasharray:none;stroke-opacity:1;paint-order:markers stroke fill"
       d="M 26.49039,32.035407 32.706865,22.710694 26.49039,20.638537 Z"
       id="path1768"
       inkscape:connector-curvature="0"
       sodipodi:nodetypes="cccc" />
    <path
       sodipodi:nodetypes="ccccc"
       id="path1611"
       d="M 9.7292044,2.2278371 29.929605,4.3942823 26.413008,31.817851 3.512729,26.057658 Z"
       style="fill:url(#linearGradient1619);fill-opacity:1;stroke:none;stroke-width:0.440334;stroke-linecap:butt;stroke-linejoin:miter;stroke-miterlimit:4;stroke-dasharray:none;stroke-opacity:1" />
    <path
       style="fill:none;stroke:#4d3e2e;stroke-width:0.238125;stroke-linecap:butt;stroke-linejoin:miter;stroke-miterlimit:4;stroke-dasharray:none;stroke-opacity:1"
       d="M 9.8065869,2.4453923 30.006987,4.6118375 26.49039,32.035407 3.5901115,26.275215 Z"
       id="path1553"
       sodipodi:nodetypes="ccccc" />
    <path
       id="path1"
       style="color:#000000;fill:url(#linearGradient16);-inkscape-stroke:none"
       d="m 12.225614,5.4915095 -0.169255,0.7039461 13.701995,1.7392586 0.116559,-0.7661596 z m -0.420389,1.7484308 -0.173138,0.7200941 13.833739,1.8975163 0.119436,-0.7850751 z m -0.430212,1.7892848 -0.176674,0.7348039 13.967904,2.062726 0.12209,-0.802515 z m -0.439698,1.8287409 -0.180721,0.751631 14.104617,2.235327 0.12511,-0.822362 z m -0.449803,1.870763 -0.184806,0.768622 14.243883,2.415635 0.128172,-0.842496 z m -0.460156,1.913824 -0.1895488,0.78835 14.3859258,2.60427 0.131709,-0.865744 z m -0.47108,1.95926 -0.1940444,0.807046 14.5305984,2.80139 0.135092,-0.887982 z m -0.4821845,2.005443 -0.1988083,0.826859 14.6780678,3.007587 0.138681,-0.911578 z m -0.4939051,2.054189 -0.2035266,0.846483 14.8283742,3.223316 0.14226,-0.9351 z m -0.5062837,2.105674 -0.2081933,0.865891 7.1818276,1.653464 0.179876,-0.909943 z" />
    <g
       id="g5"
       transform="matrix(0.01550293,0,0,0.01550293,14.146715,12.485182)"
       style="fill:#000000;fill-opacity:0.2">
      <path
         id="path2"
         d="M -31.234593,-2.8206725 -123.08695,-239.58031 -21.863264,-225.54224 38.122541,-73.41082 161.81744,-200.06873 263.5747,-185.95667 62.524995,11.998133 31.404234,155.86145 -63.365741,139.67051 Z"
         style="fill:#000000;fill-opacity:0.2" />
      <path
         id="path3"
         fill="#cb171e"
         d="M 372.27671,126.63532 193.4356,97.388004 140.45585,175.41228 62.936955,162.16252 301.15538,-179.886 l 79.23428,10.99422 94.43349,401.45509 -87.56526,-14.96691 -14.98297,-90.96137 z M 356.39566,46.159837 327.76614,-97.847841 241.05142,28.048087 Z"
         style="fill:#000000;fill-opacity:0.2" />
      <path
         id="path4"
         d="M 326.9749,251.38982 216.86274,232.16195 85.2093,387.70546 30.845781,199.67952 -72.817392,181.57778 l -85.842248,380.68213 82.032606,17.16197 58.297712,-267.67502 47.692744,195.89066 65.967868,13.26801 128.82341,-170.84042 -54.69864,280.75293 83.2666,17.41952 z"
         style="fill:#000000;fill-opacity:0.2" />
      <path
         id="path5"
         d="m 412.97398,588.54555 54.33856,-312.74422 -87.8512,-15.33996 -72.34862,397.29436 314.94362,65.83755 13.80668,-90.14485 5.8e-4,-0.004 z"
         style="fill:#000000;fill-opacity:0.2" />
    </g>
    <path
       id="path12"
       d="M -27.997283,2.5141544 H -2.5972825 V 32.147487 H -27.997283 Z"
       style="fill:#000000;fill-opacity:0.2;stroke-width:0.502708;stroke-linecap:square;stroke-linejoin:round;stroke-opacity:0.05" />
    <g
       id="g2"
       transform="matrix(0.01550293,0,0,0.01550293,13.617548,11.956015)">
      <path
         id="Y"
         d="M -31.234593,-2.8206725 -123.08695,-239.58031 -21.863264,-225.54224 38.122541,-73.41082 161.81744,-200.06873 263.5747,-185.95667 62.524995,11.998133 31.404234,155.86145 -63.365741,139.67051 Z" />
      <path
         id="A"
         fill="#cb171e"
         d="M 372.27671,126.63532 193.4356,97.388004 140.45585,175.41228 62.936955,162.16252 301.15538,-179.886 l 79.23428,10.99422 94.43349,401.45509 -87.56526,-14.96691 -14.98297,-90.96137 z M 356.39566,46.159837 327.76614,-97.847841 241.05142,28.048087 Z" />
      <path
         id="M"
         d="M 326.9749,251.38982 216.86274,232.16195 85.2093,387.70546 30.845781,199.67952 -72.817392,181.57778 l -85.842248,380.68213 82.032606,17.16197 58.297712,-267.67502 47.692744,195.89066 65.967868,13.26801 128.82341,-170.84042 -54.69864,280.75293 83.2666,17.41952 z" />
      <path
         id="L"
         d="m 412.97398,588.54555 54.33856,-312.74422 -87.8512,-15.33996 -72.34862,397.29436 314.94362,65.83755 13.80668,-90.14485 5.8e-4,-0.004 z" />
    </g>
  </g>
</svg>
