<?xml version="1.0" encoding="UTF-8" standalone="no"?>
<svg
   width="128"
   height="128"
   viewBox="0 0 33.866666 33.866668"
   version="1.1"
   id="svg958"
   inkscape:version="1.3 (0e150ed6c4, 2023-07-21)"
   sodipodi:docname="text-x-tsx.svg"
   xmlns:inkscape="http://www.inkscape.org/namespaces/inkscape"
   xmlns:sodipodi="http://sodipodi.sourceforge.net/DTD/sodipodi-0.dtd"
   xmlns:xlink="http://www.w3.org/1999/xlink"
   xmlns="http://www.w3.org/2000/svg"
   xmlns:svg="http://www.w3.org/2000/svg"
   xmlns:rdf="http://www.w3.org/1999/02/22-rdf-syntax-ns#"
   xmlns:cc="http://creativecommons.org/ns#"
   xmlns:dc="http://purl.org/dc/elements/1.1/">
  <defs
     id="defs952">
    <linearGradient
       id="linearGradient1"
       inkscape:collect="always">
      <stop
         style="stop-color:#398ae5;stop-opacity:1;"
         offset="0"
         id="stop1" />
      <stop
         style="stop-color:#2c6bb2;stop-opacity:1;"
         offset="1"
         id="stop2" />
    </linearGradient>
    <inkscape:path-effect
       effect="perspective-envelope"
       up_left_point="9.8065864,2.4453923"
       up_right_point="30.006987,4.6118375"
       down_left_point="3.5901115,26.275215"
       down_right_point="26.49039,32.035406"
       id="path-effect7"
       is_visible="true"
       lpeversion="1"
       deform_type="perspective"
       horizontal_mirror="false"
       vertical_mirror="false"
       overflow_perspective="false" />
    <inkscape:path-effect
       effect="perspective-envelope"
       up_left_point="-26.199776,1.3702863"
       up_right_point="-0.79977545,1.3702863"
       down_left_point="-26.199776,31.003619"
       down_right_point="-0.79977545,31.003619"
       id="path-effect6"
       is_visible="true"
       lpeversion="1"
       deform_type="perspective"
       horizontal_mirror="false"
       vertical_mirror="false"
       overflow_perspective="false" />
    <linearGradient
       id="linearGradient1617"
       inkscape:collect="always">
      <stop
         id="stop1613"
         offset="0"
         style="stop-color:#ffffe8;stop-opacity:1" />
      <stop
         id="stop1615"
         offset="1"
         style="stop-color:#ffe896;stop-opacity:1" />
    </linearGradient>
    <linearGradient
       gradientTransform="matrix(0.9789725,0,0,0.9789725,0.48187339,0.37323377)"
       gradientUnits="userSpaceOnUse"
       y2="30.691668"
       x2="25.4"
       y1="3.175"
       x1="10.583333"
       id="linearGradient1619"
       xlink:href="#linearGradient1617"
       inkscape:collect="always" />
    <linearGradient
       inkscape:collect="always"
       id="linearGradient7089">
      <stop
         style="stop-color:#aa8a34;stop-opacity:0.35000002;"
         offset="0"
         id="stop7085" />
      <stop
         style="stop-color:#caa22c;stop-opacity:0.34999999;"
         offset="1"
         id="stop7087" />
    </linearGradient>
    <linearGradient
       inkscape:collect="always"
       xlink:href="#linearGradient7089"
       id="linearGradient16"
       x1="7.8637094"
       y1="15.388992"
       x2="25.874912"
       y2="15.388992"
       gradientUnits="userSpaceOnUse" />
    <linearGradient
       inkscape:collect="always"
       xlink:href="#linearGradient1"
       id="linearGradient2"
       x1="6.3500004"
       y1="7.4083338"
       x2="19.050001"
       y2="20.108334"
       gradientUnits="userSpaceOnUse" />
  </defs>
  <sodipodi:namedview
     inkscape:bbox-nodes="true"
     inkscape:snap-bbox-edge-midpoints="false"
     inkscape:bbox-paths="false"
     inkscape:snap-bbox="true"
     inkscape:snap-grids="false"
     units="px"
     showgrid="false"
     inkscape:document-rotation="0"
     inkscape:current-layer="layer1"
     inkscape:document-units="px"
     inkscape:cy="123.03515"
     inkscape:cx="108.45091"
     inkscape:zoom="3.2226563"
     inkscape:pageshadow="2"
     inkscape:pageopacity="0.0"
     borderopacity="1.0"
     bordercolor="#666666"
     pagecolor="#ffffff"
     id="base"
     inkscape:pagecheckerboard="0"
     showguides="false"
     inkscape:guide-bbox="true"
     guidetolerance="10000"
     inkscape:snap-tangential="true"
     inkscape:snap-perpendicular="true"
     inkscape:window-width="1920"
     inkscape:window-height="1093"
     inkscape:window-x="0"
     inkscape:window-y="0"
     inkscape:window-maximized="1"
     inkscape:snap-to-guides="false"
     inkscape:snap-intersection-paths="false"
     inkscape:snap-bbox-midpoints="false"
     inkscape:snap-nodes="true"
     inkscape:object-paths="false"
     inkscape:showpageshadow="2"
     inkscape:deskcolor="#d1d1d1">
    <inkscape:grid
       id="grid1521"
       type="xygrid"
       empcolor="#ff2624"
       empopacity="0.2"
       originx="0"
       originy="0"
       spacingy="0.26458334"
       spacingx="0.26458334"
       units="px"
       visible="false"
       empspacing="4" />
    <sodipodi:guide
       position="6.5361112,12.172222"
       orientation="0,-1"
       id="guide846"
       inkscape:locked="false" />
    <sodipodi:guide
       position="4.7625,13.798641"
       orientation="1,0"
       id="guide848"
       inkscape:locked="false" />
    <sodipodi:guide
       position="4.7625,29.104928"
       orientation="0,-1"
       id="guide1"
       inkscape:locked="false" />
    <sodipodi:guide
       position="21.695835,30.95625"
       orientation="1,0"
       id="guide2"
       inkscape:locked="false" />
  </sodipodi:namedview>
  <metadata
     id="metadata955">
    <rdf:RDF>
      <cc:Work
         rdf:about="">
        <dc:format>image/svg+xml</dc:format>
        <dc:type
           rdf:resource="http://purl.org/dc/dcmitype/StillImage" />
      </cc:Work>
    </rdf:RDF>
  </metadata>
  <g
     id="layer1"
     inkscape:groupmode="layer"
     inkscape:label="Layer 1">
    <path
       style="fill:#000000;fill-opacity:0.196078;stroke:none;stroke-width:0.725255;stroke-miterlimit:4;stroke-dasharray:none;stroke-opacity:1;paint-order:markers stroke fill"
       d="M 26.49039,32.035407 32.706865,22.710694 26.49039,20.638537 Z"
       id="path1768"
       inkscape:connector-curvature="0"
       sodipodi:nodetypes="cccc" />
    <path
       sodipodi:nodetypes="ccccc"
       id="path1611"
       d="M 9.8065864,2.4453923 30.006987,4.6118375 26.49039,32.035406 3.590111,26.275213 Z"
       style="fill:url(#linearGradient1619);fill-opacity:1;stroke:none;stroke-width:0.440334;stroke-linecap:butt;stroke-linejoin:miter;stroke-miterlimit:4;stroke-dasharray:none;stroke-opacity:1" />
    <path
       style="fill:none;stroke:#4d3e2e;stroke-width:0.238125;stroke-linecap:butt;stroke-linejoin:miter;stroke-miterlimit:4;stroke-dasharray:none;stroke-opacity:1"
       d="M 9.8065869,2.4453923 30.006987,4.6118375 26.49039,32.035407 3.5901115,26.275215 Z"
       id="path1553"
       sodipodi:nodetypes="ccccc" />
    <path
       id="path1"
       style="color:#000000;fill:url(#linearGradient16);-inkscape-stroke:none"
       d="m 12.225614,5.4915095 -0.169255,0.7039461 13.701995,1.7392586 0.116559,-0.7661596 z m -0.420389,1.7484308 -0.173138,0.7200941 13.833739,1.8975163 0.119436,-0.7850751 z m -0.430212,1.7892848 -0.176674,0.7348039 13.967904,2.062726 0.12209,-0.802515 z m -0.439698,1.8287409 -0.180721,0.751631 14.104617,2.235327 0.12511,-0.822362 z m -0.449803,1.870763 -0.184806,0.768622 14.243883,2.415635 0.128172,-0.842496 z m -0.460156,1.913824 -0.1895488,0.78835 14.3859258,2.60427 0.131709,-0.865744 z m -0.47108,1.95926 -0.1940444,0.807046 14.5305984,2.80139 0.135092,-0.887982 z m -0.4821845,2.005443 -0.1988083,0.826859 14.6780678,3.007587 0.138681,-0.911578 z m -0.4939051,2.054189 -0.2035266,0.846483 14.8283742,3.223316 0.14226,-0.9351 z m -0.5062837,2.105674 -0.2081933,0.865891 7.1818276,1.653464 0.179876,-0.909943 z" />
    <path
       id="path3"
       style="fill:#000000;stroke-width:0.0310058;fill-opacity:0.2"
       d="M 9.0825464,6.3362883 21.589606,8.5416205 c 0.866114,0.1527192 1.440327,0.9735447 1.287474,1.8404155 l -2.204849,12.504325 c -0.152853,0.866871 -0.973176,1.441802 -1.839289,1.289082 L 6.3258816,21.970111 C 5.4597683,21.817392 4.885555,20.996567 5.0384077,20.129696 L 7.2432575,7.6253716 C 7.3961102,6.7585004 8.2164332,6.1835692 9.0825464,6.3362883 Z"
       sodipodi:nodetypes="ccccccccc"
       inkscape:transform-center-x="-9.1952439"
       inkscape:transform-center-y="-6.438579" />
    <path
       id="rect1-3"
       style="fill:url(#linearGradient2);stroke-width:0.0310058"
       d="M 6.3499993,5.8194451 H 19.050001 c 0.879475,0 1.587499,0.7086443 1.587499,1.5888884 V 20.105557 c 0,0.880244 -0.708024,1.588888 -1.587499,1.588888 H 6.3499993 c -0.8794744,0 -1.587499,-0.708644 -1.587499,-1.588888 V 7.4083335 c 0,-0.8802441 0.7080246,-1.5888884 1.587499,-1.5888884 z"
       sodipodi:nodetypes="ccccccccc" />
    <rect
       fill="#3178c6"
       height="15.875"
       rx="1.5502928"
       width="15.875"
       id="rect1"
       x="4.7625003"
       y="5.8194451"
       style="stroke-width:0.238125;fill:none;stroke:#16385c;stroke-opacity:1;stroke-dasharray:none" />
    <path
       clip-rule="evenodd"
       d="m 14.589466,18.451975 v 1.552185 c 0.252325,0.129356 0.550757,0.226342 0.895294,0.291021 0.344537,0.06468 0.707647,0.09702 1.089391,0.09702 0.372039,0 0.725444,-0.03556 1.060276,-0.106722 0.334832,-0.07113 0.628427,-0.188361 0.880752,-0.351669 0.252326,-0.163277 0.452097,-0.376721 0.599282,-0.640271 0.147184,-0.263549 0.220792,-0.589328 0.220792,-0.977366 0,-0.281348 -0.04204,-0.527906 -0.126163,-0.739707 -0.08412,-0.211801 -0.205413,-0.400162 -0.363946,-0.565082 -0.158502,-0.16492 -0.348568,-0.31288 -0.570167,-0.443849 -0.221599,-0.130968 -0.471506,-0.254651 -0.749722,-0.371047 -0.203801,-0.08409 -0.386581,-0.165726 -0.548338,-0.244946 -0.161758,-0.07925 -0.299238,-0.160083 -0.412471,-0.242528 -0.113234,-0.08248 -0.200577,-0.169788 -0.262031,-0.261937 -0.06145,-0.09218 -0.09221,-0.196453 -0.09221,-0.31288 0,-0.106692 0.0275,-0.202903 0.08251,-0.288603 0.055,-0.0857 0.132643,-0.159246 0.232916,-0.2207 0.100303,-0.06142 0.223211,-0.10914 0.368783,-0.143092 0.145604,-0.03395 0.30733,-0.05091 0.485273,-0.05091 0.129387,0 0.266061,0.0097 0.410021,0.02908 0.143961,0.01941 0.288727,0.04933 0.43433,0.08973 0.145573,0.04043 0.287084,0.09137 0.424595,0.152797 0.13748,0.06145 0.264449,0.132581 0.380907,0.213444 v -1.45033 c -0.236141,-0.09054 -0.494141,-0.157633 -0.773969,-0.20129 -0.279828,-0.04366 -0.600924,-0.06548 -0.963228,-0.06548 -0.368814,0 -0.718188,0.03963 -1.048153,0.118845 -0.329964,0.07922 -0.620303,0.202903 -0.871047,0.371047 -0.250714,0.168176 -0.448841,0.382396 -0.594413,0.642721 -0.145573,0.260294 -0.218375,0.571531 -0.218375,0.93371 0,0.462422 0.133449,0.85694 0.400348,1.183556 0.266867,0.326585 0.672052,0.603064 1.215554,0.829438 0.213506,0.08731 0.41247,0.172981 0.596862,0.257069 0.184392,0.08409 0.343731,0.171401 0.477956,0.261938 0.134255,0.09054 0.240202,0.189166 0.317872,0.295889 0.07764,0.106691 0.116458,0.227955 0.116458,0.363791 0,0.100242 -0.02428,0.193198 -0.0728,0.278898 -0.04852,0.0857 -0.122132,0.160052 -0.220793,0.223118 -0.09866,0.06307 -0.221599,0.112365 -0.368784,0.147929 -0.147215,0.03559 -0.319453,0.05336 -0.516805,0.05336 -0.336445,0 -0.669634,-0.059 -0.999629,-0.177043 C 15.17663,18.8651 14.870912,18.688057 14.589472,18.451978 Z M 11.980044,14.627651 H 13.97124 V 13.353868 H 8.4211914 v 1.273783 h 1.9814606 v 5.671529 h 1.577392 z"
       fill="#ffffff"
       fill-rule="evenodd"
       id="path2"
       style="stroke-width:0.0310058" />
  </g>
</svg>
