<?xml version="1.0" encoding="UTF-8" standalone="no"?>
<svg
   width="128"
   height="128"
   viewBox="0 0 33.866666 33.866668"
   version="1.1"
   id="svg958"
   inkscape:version="1.3 (0e150ed6c4, 2023-07-21)"
   sodipodi:docname="text-x-rpm-spec.svg"
   xmlns:inkscape="http://www.inkscape.org/namespaces/inkscape"
   xmlns:sodipodi="http://sodipodi.sourceforge.net/DTD/sodipodi-0.dtd"
   xmlns:xlink="http://www.w3.org/1999/xlink"
   xmlns="http://www.w3.org/2000/svg"
   xmlns:svg="http://www.w3.org/2000/svg"
   xmlns:rdf="http://www.w3.org/1999/02/22-rdf-syntax-ns#"
   xmlns:cc="http://creativecommons.org/ns#"
   xmlns:dc="http://purl.org/dc/elements/1.1/">
  <defs
     id="defs952">
    <linearGradient
       id="linearGradient1617"
       inkscape:collect="always">
      <stop
         id="stop1613"
         offset="0"
         style="stop-color:#ffffe8;stop-opacity:1" />
      <stop
         id="stop1615"
         offset="1"
         style="stop-color:#ffe896;stop-opacity:1" />
    </linearGradient>
    <linearGradient
       gradientTransform="matrix(0.9789725,0,0,0.9789725,0.40449139,0.15567857)"
       gradientUnits="userSpaceOnUse"
       y2="30.691668"
       x2="25.4"
       y1="3.175"
       x1="10.583333"
       id="linearGradient1619"
       xlink:href="#linearGradient1617"
       inkscape:collect="always" />
    <linearGradient
       inkscape:collect="always"
       id="linearGradient7089">
      <stop
         style="stop-color:#aa8a34;stop-opacity:0.34999999;"
         offset="0"
         id="stop7085" />
      <stop
         style="stop-color:#caa22c;stop-opacity:0.34999999;"
         offset="1"
         id="stop7087" />
    </linearGradient>
    <linearGradient
       inkscape:collect="always"
       xlink:href="#linearGradient7089"
       id="linearGradient16"
       x1="7.8637094"
       y1="15.388992"
       x2="25.874912"
       y2="15.388992"
       gradientUnits="userSpaceOnUse" />
    <radialGradient
       inkscape:collect="always"
       xlink:href="#linearGradient88"
       id="radialGradient89"
       cx="29.314438"
       cy="23.748341"
       fx="29.314438"
       fy="23.748341"
       r="3"
       gradientUnits="userSpaceOnUse"
       gradientTransform="matrix(0.26458334,0,0,0.26458334,-47.890621,9.9430622)" />
    <linearGradient
       id="linearGradient88"
       inkscape:collect="always">
      <stop
         style="stop-color:#ffffff;stop-opacity:1;"
         offset="0"
         id="stop88" />
      <stop
         style="stop-color:#c71932;stop-opacity:0;"
         offset="1"
         id="stop89" />
    </linearGradient>
  </defs>
  <sodipodi:namedview
     inkscape:bbox-nodes="true"
     inkscape:snap-bbox-edge-midpoints="false"
     inkscape:bbox-paths="false"
     inkscape:snap-bbox="true"
     inkscape:snap-grids="false"
     units="px"
     showgrid="false"
     inkscape:document-rotation="0"
     inkscape:current-layer="layer1"
     inkscape:document-units="px"
     inkscape:cy="31.173164"
     inkscape:cx="49.554581"
     inkscape:zoom="4.6514368"
     inkscape:pageshadow="2"
     inkscape:pageopacity="0.0"
     borderopacity="1.0"
     bordercolor="#666666"
     pagecolor="#ffffff"
     id="base"
     inkscape:pagecheckerboard="0"
     showguides="false"
     inkscape:guide-bbox="true"
     guidetolerance="10000"
     inkscape:snap-tangential="true"
     inkscape:snap-perpendicular="true"
     inkscape:window-width="1920"
     inkscape:window-height="1091"
     inkscape:window-x="0"
     inkscape:window-y="0"
     inkscape:window-maximized="1"
     inkscape:snap-to-guides="false"
     inkscape:snap-intersection-paths="false"
     inkscape:snap-bbox-midpoints="false"
     inkscape:snap-nodes="true"
     inkscape:object-paths="false"
     inkscape:showpageshadow="2"
     inkscape:deskcolor="#d1d1d1">
    <inkscape:grid
       id="grid1521"
       type="xygrid"
       empcolor="#ff2624"
       empopacity="0.2"
       originx="0"
       originy="0"
       spacingy="0.26458334"
       spacingx="0.26458334"
       units="px"
       visible="false"
       empspacing="4" />
    <sodipodi:guide
       position="6.5361112,12.172222"
       orientation="0,-1"
       id="guide846"
       inkscape:locked="false" />
    <sodipodi:guide
       position="4.7625,13.798641"
       orientation="1,0"
       id="guide848"
       inkscape:locked="false" />
    <sodipodi:guide
       position="4.7625,29.104928"
       orientation="0,-1"
       id="guide1"
       inkscape:locked="false" />
    <sodipodi:guide
       position="21.695835,30.95625"
       orientation="1,0"
       id="guide2"
       inkscape:locked="false" />
  </sodipodi:namedview>
  <metadata
     id="metadata955">
    <rdf:RDF>
      <cc:Work
         rdf:about="">
        <dc:format>image/svg+xml</dc:format>
        <dc:type
           rdf:resource="http://purl.org/dc/dcmitype/StillImage" />
      </cc:Work>
    </rdf:RDF>
  </metadata>
  <g
     id="layer1"
     inkscape:groupmode="layer"
     inkscape:label="Layer 1">
    <path
       style="fill:#000000;fill-opacity:0.196078;stroke:none;stroke-width:0.725255;stroke-miterlimit:4;stroke-dasharray:none;stroke-opacity:1;paint-order:markers stroke fill"
       d="M 26.49039,32.035407 32.706865,22.710694 26.49039,20.638537 Z"
       id="path1768"
       inkscape:connector-curvature="0"
       sodipodi:nodetypes="cccc" />
    <path
       sodipodi:nodetypes="ccccc"
       id="path1611"
       d="M 9.7292044,2.2278371 29.929605,4.3942823 26.413008,31.817851 3.512729,26.057658 Z"
       style="fill:url(#linearGradient1619);fill-opacity:1;stroke:none;stroke-width:0.440334;stroke-linecap:butt;stroke-linejoin:miter;stroke-miterlimit:4;stroke-dasharray:none;stroke-opacity:1" />
    <path
       style="fill:none;stroke:#4d3e2e;stroke-width:0.238125;stroke-linecap:butt;stroke-linejoin:miter;stroke-miterlimit:4;stroke-dasharray:none;stroke-opacity:1"
       d="M 9.8065869,2.4453923 30.006987,4.6118375 26.49039,32.035407 3.5901115,26.275215 Z"
       id="path1553"
       sodipodi:nodetypes="ccccc" />
    <path
       id="path1"
       style="color:#000000;fill:url(#linearGradient16);-inkscape-stroke:none"
       d="m 12.225614,5.4915095 -0.169255,0.7039461 13.701995,1.7392586 0.116559,-0.7661596 z m -0.420389,1.7484308 -0.173138,0.7200941 13.833739,1.8975163 0.119436,-0.7850751 z m -0.430212,1.7892848 -0.176674,0.7348039 13.967904,2.062726 0.12209,-0.802515 z m -0.439698,1.8287409 -0.180721,0.751631 14.104617,2.235327 0.12511,-0.822362 z m -0.449803,1.870763 -0.184806,0.768622 14.243883,2.415635 0.128172,-0.842496 z m -0.460156,1.913824 -0.1895488,0.78835 14.3859258,2.60427 0.131709,-0.865744 z m -0.47108,1.95926 -0.1940444,0.807046 14.5305984,2.80139 0.135092,-0.887982 z m -0.4821845,2.005443 -0.1988083,0.826859 14.6780678,3.007587 0.138681,-0.911578 z m -0.4939051,2.054189 -0.2035266,0.846483 14.8283742,3.223316 0.14226,-0.9351 z m -0.5062837,2.105674 -0.2081933,0.865891 7.1818276,1.653464 0.179876,-0.909943 z" />
    <path
       id="path12"
       d="M -27.997283,2.5141544 H -2.5972825 V 32.147487 H -27.997283 Z"
       style="fill:#000000;fill-opacity:0.2;stroke-width:0.502708;stroke-linecap:square;stroke-linejoin:round;stroke-opacity:0.05" />
    <g
       id="g3"
       transform="translate(55.034137,-0.001257)">
      <path
         id="path91"
         style="fill:#000000;fill-opacity:0.204167;stroke-width:0.149671;paint-order:stroke fill markers"
         d="m -36.077307,9.7719634 c -0.132562,-0.0124 -0.265406,-0.02151 -0.398407,-0.027409 l -0.50009,2.5649566 c 0.321274,0.06546 0.636666,0.158156 0.94288,0.277317 l 1.215633,-2.531782 c -0.41249,-0.1278454 -0.833738,-0.2223969 -1.260016,-0.2830826 z m -0.926589,-0.063982 c -0.542219,-0.014235 -1.085236,0.025618 -1.621568,0.1186778 l 0.14609,2.3901478 c 0.324699,-0.01856 0.650099,-0.01 0.972911,0.02579 z m 2.693838,0.5235296 -1.229507,2.575066 c 0.29649,0.148256 0.58049,0.322022 0.848936,0.51966 l 1.940273,-2.298796 c -0.492877,-0.321592 -1.015631,-0.58807 -1.559702,-0.79593 z m -4.834028,-0.2926482 c -0.51017,0.1166282 -1.010289,0.2814542 -1.49402,0.4922282 l 0.68077,2.06847 c 0.309668,-0.101337 0.62645,-0.176971 0.947184,-0.22608 z m 6.84112,1.4022722 -1.961307,2.330593 c 0.251661,0.224851 0.484561,0.471751 0.696067,0.738243 l 2.593402,-1.824255 c -0.400472,-0.464557 -0.845828,-0.881467 -1.328162,-1.244581 z m -8.805906,-0.659696 c -0.450715,0.234664 -0.882403,0.509703 -1.289998,0.821896 l 1.073004,1.641908 c 0.277038,-0.175627 0.566953,-0.328299 0.866857,-0.456476 z m 10.487719,2.339533 -2.620049,1.842342 c 0.188652,0.288533 0.353194,0.593936 0.49164,0.913039 l 3.103073,-1.136533 c -0.269459,-0.577387 -0.596468,-1.119878 -0.974664,-1.618848 z m -12.191097,-1.17892 c -0.373811,0.328566 -0.721979,0.689174 -1.04061,1.077973 l 1.350687,1.19845 c 0.227345,-0.240831 0.472731,-0.46274 0.733684,-0.66354 z m 13.390482,3.327826 -3.125202,1.142169 c 0.10939,0.334778 0.19068,0.679613 0.242755,1.030789 l 3.400259,-0.288192 c -0.107417,-0.649339 -0.281341,-1.281147 -0.517812,-1.884766 z m -4.543401,-0.541909 -4.036108,2.151057 c -0.03931,-0.01092 -0.07916,-0.02084 -0.120088,-0.02826 -0.742247,-0.134454 -1.465836,0.373752 -1.622888,1.140368 -0.158482,0.773601 0.317303,1.525236 1.069599,1.673521 0.758549,0.149518 1.499353,-0.372212 1.647656,-1.159824 0.0081,-0.04303 0.01348,-0.08592 0.01775,-0.128619 l 3.428031,-3.111934 z M -44.19411,13.3361 c -0.290594,0.397849 -0.550798,0.819841 -0.77772,1.261694 l 1.552522,0.762358 c 0.164829,-0.291167 0.351861,-0.568443 0.559145,-0.82909 z m 15.370153,4.304835 -3.420089,0.283348 c 0.02009,0.358608 0.0099,0.719326 -0.03056,1.078141 l 3.442662,0.645353 c 0.07265,-0.669773 0.07502,-1.342691 0.008,-2.006842 z m -16.375028,-2.548012 c -0.202234,0.449315 -0.370348,0.915053 -0.502357,1.392558 l 1.687213,0.316281 c 0.08975,-0.325613 0.204822,-0.643418 0.343938,-0.950234 z m -0.641649,1.925973 c -0.09869,0.496446 -0.140381,0.993075 -0.1256,1.483729 l 1.718049,-0.14624 c 0.0094,-0.340052 0.04581,-0.678926 0.108715,-1.013165 z m 13.455509,2.565265 c -0.07306,0.355274 -0.176005,0.70416 -0.307837,1.042712 l 3.2076,1.575334 c 0.253975,-0.631916 0.440354,-1.288971 0.556479,-1.959119 z m -11.851989,-0.66721 -1.687485,0.139469 c 0.05579,0.486654 0.163567,0.965041 0.322718,1.428623 l 1.512202,-0.554589 c -0.07638,-0.332921 -0.125632,-0.671944 -0.147435,-1.013503 z m 11.29934,2.255861 c -0.164906,0.325832 -0.357111,0.636739 -0.574535,0.929145 l 2.706365,2.402058 c 0.421221,-0.536296 0.784044,-1.119063 1.082215,-1.737332 z" />
      <g
         id="g2"
         transform="translate(0.52916665,0.52916595)">
        <path
           id="path49"
           style="fill:#c71932;fill-opacity:1;stroke-width:0.149671;paint-order:stroke fill markers"
           d="m -37.310096,8.5301863 c -0.131024,-0.011801 -0.262335,-0.020405 -0.393823,-0.025808 l -0.506976,2.5326807 c 0.317333,0.06355 0.628706,0.154003 0.930865,0.270584 l 1.214387,-2.5020164 C -36.472847,8.6807484 -36.888893,8.58875 -37.310096,8.5301863 Z m -0.915943,-0.060262 c -0.536132,-0.012365 -1.073335,0.028664 -1.604198,0.1221859 l 0.133076,2.3582898 c 0.321162,-0.01936 0.642879,-0.01192 0.9619,0.02233 z m 2.661009,0.5082524 -1.228332,2.5446733 c 0.292374,0.145308 0.572262,0.315813 0.836646,0.509911 l 1.929564,-2.2741178 C -34.512743,9.4428857 -35.028184,9.1815842 -35.56503,8.9781767 Z M -40.34369,8.704473 c -0.505128,0.1167062 -1.000549,0.2809554 -1.479985,0.4905077 l 0.663635,2.0391613 c 0.306715,-0.100987 0.620339,-0.176635 0.937743,-0.226121 z m 6.757174,1.362256 -1.950477,2.305456 c 0.247629,0.220973 0.476589,0.463746 0.684297,0.725903 l 2.572486,-1.807798 c -0.393386,-0.456982 -0.831415,-0.86685 -1.306306,-1.223561 z m -8.703957,-0.6231761 c -0.446898,0.2330317 -0.87516,0.5058523 -1.27976,0.8152661 l 1.053763,1.616851 c 0.274799,-0.174191 0.562226,-0.325774 0.859418,-0.453217 z m 10.357503,2.2749311 -2.598823,1.825651 c 0.184985,0.283937 0.346046,0.584576 0.481243,0.8988 l 3.072227,-1.13103 c -0.263219,-0.568527 -0.583512,-1.102497 -0.954647,-1.593421 z m -12.047704,-1.124058 c -0.371249,0.325459 -0.717271,0.682453 -1.034198,1.067168 l 1.330571,1.178178 c 0.225945,-0.238361 0.469649,-0.458114 0.728654,-0.657091 z m 13.221595,3.239437 -3.093996,1.136641 c 0.106389,0.329738 0.184953,0.66947 0.234615,1.015538 l 3.360989,-0.295598 c -0.102677,-0.639814 -0.271161,-1.262172 -0.501608,-1.856581 z m -14.595207,-1.760575 c -0.289218,0.393536 -0.548475,0.810785 -0.774889,1.247508 l 1.532199,0.747033 c 0.164328,-0.287799 0.350556,-0.561972 0.556743,-0.819811 z m 15.172731,4.194859 -3.380427,0.29094 c 0.01801,0.353464 0.0061,0.709098 -0.03571,1.062944 l 3.397596,0.624221 c 0.07531,-0.660373 0.08123,-1.323651 0.01854,-1.978105 z m -16.174492,-2.458076 c -0.202011,0.443973 -0.370336,0.904016 -0.502995,1.375529 l 1.667338,0.30633 c 0.09021,-0.321493 0.205438,-0.635378 0.344398,-0.938513 z m -0.643095,1.902196 c -0.09977,0.490037 -0.143168,0.980036 -0.13068,1.463924 l 1.699732,-0.150108 c 0.0108,-0.335411 0.04832,-0.669766 0.112016,-0.999649 z m 13.28928,2.483573 c -0.074,0.350434 -0.177485,0.694664 -0.309456,1.028801 l 3.160328,1.54109 c 0.254174,-0.623538 0.441732,-1.271644 0.559982,-1.932452 z m -11.711771,-0.616961 -1.669421,0.143349 c 0.05306,0.479742 0.15756,0.951121 0.312923,1.407693 l 1.497779,-0.55212 c -0.07405,-0.328021 -0.121239,-0.662165 -0.141281,-0.998922 z m 11.157676,2.184671 c -0.164572,0.321691 -0.356032,0.628762 -0.572312,0.917686 l 2.660984,2.35694 c 0.418798,-0.529831 0.780175,-1.105248 1.077902,-1.71544 z"
           sodipodi:nodetypes="ccccccccccccccccccccccccccccccccccccccccccccccccccccccccccccccccccccccccccccccccc" />
        <path
           style="fill:#000000;fill-opacity:1;stroke:none;stroke-width:0.529167px;stroke-linecap:butt;stroke-linejoin:miter;stroke-opacity:1"
           d="m -35.246145,13.314403 -4.655015,2.483878 -0.09361,0.457616 0.70772,1.091227 0.451563,0.08487 3.966094,-3.58995 z"
           id="path85"
           sodipodi:nodetypes="ccccccc" />
        <path
           id="path84"
           style="fill:#c71932;fill-opacity:1;stroke-width:0.635;stroke-opacity:0.408333;paint-order:stroke fill markers"
           d="m -38.291073,17.049146 c -0.150396,0.777048 -0.885099,1.293969 -1.634147,1.149187 -0.742926,-0.143598 -1.209727,-0.883073 -1.049421,-1.646457 0.15887,-0.756549 0.876637,-1.260192 1.609779,-1.130081 0.739084,0.131165 1.222818,0.857363 1.073789,1.627351 z"
           sodipodi:nodetypes="ccccc" />
        <path
           id="path86"
           style="fill:#000000;fill-opacity:0.2;stroke-width:0.635;stroke-opacity:0.408333;paint-order:stroke fill markers"
           d="m -38.594911,15.864272 c 0.135042,0.267608 0.185939,0.584883 0.122541,0.910113 -0.150831,0.773755 -0.883679,1.289218 -1.630035,1.145958 -0.313919,-0.06025 -0.577985,-0.2281 -0.766194,-0.458771 0.177121,0.370898 0.514014,0.65377 0.943379,0.736761 0.749047,0.144782 1.483751,-0.37214 1.634147,-1.149187 0.08615,-0.445091 -0.03994,-0.875538 -0.303838,-1.184874 z" />
        <path
           id="path88"
           style="fill:url(#radialGradient89);stroke-width:0.635;stroke-opacity:0.408333;paint-order:stroke fill markers"
           d="m -38.291073,17.049146 c -0.150396,0.777048 -0.885099,1.293969 -1.634147,1.149187 -0.742926,-0.143598 -1.209727,-0.883073 -1.049421,-1.646457 0.15887,-0.756549 0.876637,-1.260192 1.609779,-1.130081 0.739084,0.131165 1.222818,0.857363 1.073789,1.627351 z"
           sodipodi:nodetypes="ccccc" />
        <path
           id="path89"
           style="fill:#000000;fill-opacity:0.195833;stroke:none;stroke-width:1.59805;stroke-dasharray:none;stroke-opacity:0.408333;paint-order:stroke fill markers"
           d="m -37.310096,8.5301863 c -0.03792,-0.0027 -0.07585,-0.00513 -0.113806,-0.0073 0.44779,0.085238 0.887737,0.2089656 1.315296,0.3702498 l 0.0428,-0.086684 c -0.01577,-0.00479 -0.03156,-0.00952 -0.04737,-0.01421 -0.08064,-0.024184 -0.161563,-0.047666 -0.242841,-0.069274 -0.02418,-0.00629 -0.04838,-0.012463 -0.07261,-0.018524 -0.08,-0.020466 -0.15998,-0.039851 -0.240536,-0.057822 -0.03097,-0.00673 -0.06198,-0.013269 -0.09302,-0.019626 -0.07689,-0.016204 -0.153998,-0.032401 -0.231328,-0.046326 0,0 -0.0025,-3.51e-4 -0.0025,-3.51e-4 -0.104385,-0.018764 -0.208915,-0.035512 -0.314035,-0.050129 z m 1.745066,0.4479898 -0.05195,0.1079671 c 0.508219,0.2276245 0.993276,0.5089656 1.447583,0.8404451 l 0.142241,-0.167946 c -0.121247,-0.078841 -0.244056,-0.1541459 -0.368871,-0.2261318 0,0 -0.0016,-0.00111 -0.0016,-0.00111 -0.0011,-6.415e-4 -0.0021,-0.00153 -0.0032,-0.00217 -0.11865,-0.068317 -0.239578,-0.1326849 -0.361225,-0.1947248 -0.0054,-0.00306 -0.01079,-0.00611 -0.01619,-0.00915 -0.0051,-0.00262 -0.01049,-0.00477 -0.01562,-0.00735 -0.251257,-0.1267333 -0.508629,-0.2403645 -0.77118,-0.3398432 z m 1.978367,1.0894039 -0.150393,0.177272 c 0.43449,0.366492 0.832669,0.780079 1.187958,1.235086 l 0.268888,-0.189648 c -0.294855,-0.342522 -0.615215,-0.658096 -0.956913,-0.945108 0,0 -0.0015,-0.002 -0.0015,-0.002 -9.99e-4,-8.62e-4 -0.0023,-0.0014 -0.0032,-0.0022 -0.105805,-0.08873 -0.214095,-0.174237 -0.323988,-0.257346 -0.0069,-0.0054 -0.01386,-0.01072 -0.0208,-0.01606 z m 1.653693,1.650904 -0.27723,0.194834 c 0.327973,0.480481 0.608815,0.997462 0.837553,1.543518 l 0.39326,-0.144181 c -0.0069,-0.01489 -0.01374,-0.02976 -0.02067,-0.0446 -0.05368,-0.114298 -0.109162,-0.227249 -0.167427,-0.338648 -0.01137,-0.02163 -0.02283,-0.04321 -0.03437,-0.06473 -0.06819,-0.127769 -0.139208,-0.254358 -0.213309,-0.378036 0,0 -0.0014,-0.0029 -0.0014,-0.0029 -2.2e-4,-3.68e-4 -5.73e-4,-6.46e-4 -8.29e-4,-0.0011 -0.158856,-0.264825 -0.330757,-0.519666 -0.515615,-0.764188 z m 1.173891,2.115379 -0.400345,0.147318 c 0.196859,0.56393 0.338556,1.150763 0.422164,1.751745 l 0.479789,-0.04248 c -0.02576,-0.160509 -0.05537,-0.320039 -0.08936,-0.478204 -0.03391,-0.157792 -0.07165,-0.314497 -0.113617,-0.469612 -0.08364,-0.309119 -0.183692,-0.612289 -0.298633,-0.908765 z m 0.575483,2.434888 -0.48472,0.04118 c 0.04797,0.610854 0.03618,1.228606 -0.03589,1.843707 l 0.504105,0.09262 c 0.03773,-0.33084 0.05818,-0.662459 0.06117,-0.993379 0.0014,-0.152319 -0.0023,-0.30416 -0.0083,-0.456011 -0.0014,-0.03402 -0.003,-0.06803 -0.0047,-0.102009 -0.0058,-0.114919 -0.01414,-0.229858 -0.02408,-0.344314 -0.0024,-0.02728 -0.0049,-0.05455 -0.0076,-0.08179 z m -0.608445,2.472388 c -0.111251,0.616515 -0.282897,1.222184 -0.512795,1.8073 l 0.445846,0.217292 c 0.05862,-0.143793 0.112331,-0.289202 0.163838,-0.435507 0.008,-0.02194 0.01583,-0.0439 0.02362,-0.0659 0.1029,-0.299226 0.191424,-0.602961 0.264215,-0.910437 0.02063,-0.09154 0.03992,-0.183348 0.05785,-0.275387 0.01686,-0.08177 0.03575,-0.163053 0.05046,-0.245224 z m -0.754349,2.360412 c -0.268766,0.576701 -0.593924,1.124296 -0.970569,1.633717 l 0.341674,0.302908 c 0.104835,-0.132624 0.205855,-0.26864 0.303427,-0.406862 0.194264,-0.275196 0.374445,-0.560378 0.538622,-0.855546 0,0 0.0015,-0.0028 0.0015,-0.0028 0.08027,-0.149021 0.156591,-0.300214 0.228873,-0.453402 z" />
        <path
           id="path90"
           style="fill:#000000;fill-opacity:0.195833;stroke:none;stroke-width:0.617225;stroke-dasharray:none;stroke-opacity:0.408333;paint-order:stroke fill markers"
           d="m -38.904018,10.923581 c -0.263981,-0.03905 -0.530633,-0.05948 -0.798064,-0.06121 l 0.0049,0.08803 c 0.03248,-0.002 0.06481,-1.2e-4 0.09729,-0.0015 0.288833,-0.01426 0.57794,-0.0069 0.864955,0.02217 l 0.0033,-0.01599 c -0.05728,-0.01138 -0.114734,-0.02187 -0.17235,-0.03147 z m -1.324918,-0.03828 c -0.33359,0.02633 -0.665172,0.08165 -0.991108,0.165235 l 0.06,0.183609 c 0.01957,-0.0064 0.03966,-0.01043 0.0593,-0.01666 0.287756,-0.09229 0.581427,-0.162325 0.878447,-0.209451 z m -1.497302,0.321668 c -0.325206,0.11667 -0.640887,0.261791 -0.943419,0.433658 l 0.153187,0.235046 c 0.01477,-0.0094 0.03027,-0.01736 0.04511,-0.0266 0.260825,-0.163246 0.532855,-0.306205 0.813666,-0.427587 z m -1.399716,0.711828 c -0.292372,0.204248 -0.567592,0.434211 -0.822332,0.687158 l 0.263363,0.232839 c 0.225943,-0.238357 0.469645,-0.458107 0.728647,-0.657082 z m -1.197182,1.076611 c -0.2363,0.279389 -0.448616,0.579515 -0.634224,0.896722 l 0.358137,0.17442 c 0.164353,-0.288091 0.350647,-0.562542 0.556937,-0.820639 z m -0.896665,1.373945 c -0.162063,0.335728 -0.294748,0.685399 -0.396196,1.044627 l 0.418557,0.0769 c 0.09107,-0.321706 0.207189,-0.635722 0.347069,-0.9389 z m -0.523608,1.577595 c -0.07232,0.368373 -0.111963,0.742267 -0.118173,1.116891 l 0.428805,-0.03735 c 0.0097,-0.335816 0.0462,-0.67067 0.108953,-1.00113 z m 0.320947,1.631772 -0.418277,0.03621 c 0.02462,0.373585 0.08272,0.74353 0.173813,1.10502 l 0.383646,-0.140844 c -0.07341,-0.328563 -0.119896,-0.663199 -0.139182,-1.000384 z" />
      </g>
    </g>
  </g>
</svg>
