<?xml version="1.0" encoding="UTF-8" standalone="no"?>
<svg
   width="128"
   height="128"
   viewBox="0 0 128 128"
   version="1.1"
   id="svg958"
   inkscape:version="1.3 (0e150ed6c4, 2023-07-21)"
   sodipodi:docname="text-x-hex.svg"
   xmlns:inkscape="http://www.inkscape.org/namespaces/inkscape"
   xmlns:sodipodi="http://sodipodi.sourceforge.net/DTD/sodipodi-0.dtd"
   xmlns:xlink="http://www.w3.org/1999/xlink"
   xmlns="http://www.w3.org/2000/svg"
   xmlns:svg="http://www.w3.org/2000/svg"
   xmlns:rdf="http://www.w3.org/1999/02/22-rdf-syntax-ns#"
   xmlns:cc="http://creativecommons.org/ns#"
   xmlns:dc="http://purl.org/dc/elements/1.1/">
  <defs
     id="defs952">
    <inkscape:path-effect
       effect="perspective-envelope"
       up_left_point="37.064262,9.2424258"
       up_right_point="113.40922,17.435318"
       down_left_point="13.565911,99.312639"
       down_right_point="100.11814,121.08345"
       id="path-effect26"
       is_visible="true"
       lpeversion="1"
       deform_type="perspective"
       horizontal_mirror="false"
       vertical_mirror="false"
       overflow_perspective="false" />
    <inkscape:path-effect
       effect="perspective-envelope"
       up_left_point="157.85422,9.2471788"
       up_right_point="234.2052,17.430566"
       down_left_point="134.35888,99.312639"
       down_right_point="220.91111,121.08345"
       id="path-effect24"
       is_visible="true"
       lpeversion="1"
       deform_type="perspective"
       horizontal_mirror="false"
       vertical_mirror="false"
       overflow_perspective="false" />
    <inkscape:path-effect
       effect="fillet_chamfer"
       id="path-effect6"
       is_visible="true"
       lpeversion="1"
       nodesatellites_param="F,0,0,1,0,1.5874999,0,1 @ F,0,0,1,0,0,0,1 @ F,0,0,1,0,0,0,1 @ F,0,0,1,0,1.5874992,0,1"
       radius="0"
       unit="px"
       method="auto"
       mode="F"
       chamfer_steps="1"
       flexible="false"
       use_knot_distance="true"
       apply_no_radius="true"
       apply_with_radius="true"
       only_selected="false"
       hide_knots="false" />
    <inkscape:path-effect
       effect="fillet_chamfer"
       id="path-effect5"
       is_visible="true"
       lpeversion="1"
       nodesatellites_param="F,0,0,1,0,0,0,1 @ F,0,0,1,0,1.0583336,0,1 @ F,0,0,1,0,1.058331,0,1 @ F,0,0,1,0,0,0,1"
       radius="0"
       unit="px"
       method="auto"
       mode="F"
       chamfer_steps="1"
       flexible="false"
       use_knot_distance="true"
       apply_no_radius="true"
       apply_with_radius="true"
       only_selected="false"
       hide_knots="false" />
    <inkscape:path-effect
       effect="fillet_chamfer"
       id="path-effect4"
       is_visible="true"
       lpeversion="1"
       nodesatellites_param="F,0,0,1,0,0,0,1 @ F,0,0,1,0,0,0,1 @ F,0,0,1,0,0,0,1 @ F,0,0,1,0,0,0,1 @ F,0,0,1,0,0,0,1 @ F,0,0,1,0,0,0,1"
       radius="0"
       unit="px"
       method="auto"
       mode="F"
       chamfer_steps="1"
       flexible="false"
       use_knot_distance="true"
       apply_no_radius="true"
       apply_with_radius="true"
       only_selected="false"
       hide_knots="false" />
    <inkscape:path-effect
       effect="fillet_chamfer"
       id="path-effect3"
       is_visible="true"
       lpeversion="1"
       nodesatellites_param="F,0,0,1,0,0,0,1 @ F,0,0,1,0,0,0,1 @ F,0,0,1,0,0,0,1 @ F,0,0,1,0,0,0,1 @ F,0,0,1,0,0,0,1 @ F,0,0,1,0,0,0,1 @ F,0,0,1,0,0,0,1"
       radius="0"
       unit="px"
       method="auto"
       mode="F"
       chamfer_steps="1"
       flexible="false"
       use_knot_distance="true"
       apply_no_radius="true"
       apply_with_radius="true"
       only_selected="false"
       hide_knots="false" />
    <inkscape:path-effect
       effect="fillet_chamfer"
       id="path-effect2"
       is_visible="true"
       lpeversion="1"
       nodesatellites_param="F,0,0,1,0,0,0,1 @ F,0,0,1,0,1.058333,0,1 @ F,0,0,1,0,1.058331,0,1 @ F,0,0,1,0,0,0,1"
       radius="0"
       unit="px"
       method="auto"
       mode="F"
       chamfer_steps="1"
       flexible="false"
       use_knot_distance="true"
       apply_no_radius="true"
       apply_with_radius="true"
       only_selected="false"
       hide_knots="false" />
    <inkscape:path-effect
       effect="fillet_chamfer"
       id="path-effect1"
       is_visible="true"
       lpeversion="1"
       nodesatellites_param="F,0,0,1,0,1.0583331,0,1 @ F,0,0,1,0,5.2916669,0,1 @ F,0,0,1,0,5.2916672,0,1 @ F,0,0,1,0,1.0583337,0,1"
       radius="0"
       unit="px"
       method="auto"
       mode="F"
       chamfer_steps="1"
       flexible="false"
       use_knot_distance="true"
       apply_no_radius="true"
       apply_with_radius="true"
       only_selected="false"
       hide_knots="false" />
    <inkscape:path-effect
       effect="perspective-envelope"
       up_left_point="-30.691667,2.1166667"
       up_right_point="-5.2916667,2.1166667"
       down_left_point="-30.691667,31.749999"
       down_right_point="-5.2916667,31.749999"
       id="path-effect16-5"
       is_visible="true"
       lpeversion="1"
       deform_type="perspective"
       horizontal_mirror="false"
       vertical_mirror="false"
       overflow_perspective="false" />
    <linearGradient
       gradientTransform="matrix(3.7000535,0,0,3.7000535,1.818241,1.4153988)"
       gradientUnits="userSpaceOnUse"
       y2="30.691668"
       x2="25.4"
       y1="3.175"
       x1="10.583333"
       id="linearGradient1619"
       xlink:href="#linearGradient1617"
       inkscape:collect="always" />
    <linearGradient
       id="linearGradient1617"
       inkscape:collect="always">
      <stop
         id="stop1613"
         offset="0"
         style="stop-color:#ffffe8;stop-opacity:1" />
      <stop
         id="stop1615"
         offset="1"
         style="stop-color:#ffe896;stop-opacity:1" />
    </linearGradient>
    <linearGradient
       inkscape:collect="always"
       xlink:href="#linearGradient1617"
       id="linearGradient6"
       gradientUnits="userSpaceOnUse"
       gradientTransform="matrix(3.7000535,0,0,3.7000535,128.87169,-9.7558132)"
       x1="10.583333"
       y1="3.175"
       x2="25.4"
       y2="30.691668" />
  </defs>
  <sodipodi:namedview
     inkscape:bbox-nodes="true"
     inkscape:snap-bbox-edge-midpoints="false"
     inkscape:bbox-paths="false"
     inkscape:snap-bbox="true"
     inkscape:snap-grids="false"
     units="px"
     showgrid="true"
     inkscape:document-rotation="0"
     inkscape:current-layer="layer1"
     inkscape:document-units="px"
     inkscape:cy="56.391766"
     inkscape:cx="87.858018"
     inkscape:zoom="2.8284271"
     inkscape:pageshadow="2"
     inkscape:pageopacity="0.0"
     borderopacity="1.0"
     bordercolor="#666666"
     pagecolor="#ffffff"
     id="base"
     inkscape:pagecheckerboard="0"
     showguides="false"
     inkscape:guide-bbox="true"
     guidetolerance="10000"
     inkscape:snap-tangential="true"
     inkscape:snap-perpendicular="true"
     inkscape:window-width="1920"
     inkscape:window-height="1011"
     inkscape:window-x="0"
     inkscape:window-y="0"
     inkscape:window-maximized="1"
     inkscape:snap-to-guides="false"
     inkscape:snap-intersection-paths="false"
     inkscape:snap-bbox-midpoints="false"
     inkscape:snap-nodes="true"
     inkscape:object-paths="false"
     inkscape:showpageshadow="2"
     inkscape:deskcolor="#d1d1d1">
    <inkscape:grid
       id="grid1521"
       type="xygrid"
       empcolor="#ff2624"
       empopacity="0.2"
       originx="0"
       originy="0"
       spacingy="1"
       spacingx="1"
       units="px"
       visible="true"
       empspacing="4" />
    <sodipodi:guide
       position="6.5361112,12.172222"
       orientation="0,-1"
       id="guide846"
       inkscape:locked="false" />
    <sodipodi:guide
       position="4.7625,13.798641"
       orientation="1,0"
       id="guide848"
       inkscape:locked="false" />
    <sodipodi:guide
       position="4.7625,29.104928"
       orientation="0,-1"
       id="guide1"
       inkscape:locked="false" />
    <sodipodi:guide
       position="21.695835,30.95625"
       orientation="1,0"
       id="guide2"
       inkscape:locked="false" />
  </sodipodi:namedview>
  <metadata
     id="metadata955">
    <rdf:RDF>
      <cc:Work
         rdf:about="">
        <dc:format>image/svg+xml</dc:format>
        <dc:type
           rdf:resource="http://purl.org/dc/dcmitype/StillImage" />
      </cc:Work>
    </rdf:RDF>
  </metadata>
  <g
     id="layer1"
     inkscape:groupmode="layer"
     inkscape:label="Layer 1">
    <path
       style="fill:#000000;fill-opacity:0.196078;stroke:none;stroke-width:2.74112;stroke-miterlimit:4;stroke-dasharray:none;stroke-opacity:1;paint-order:markers stroke fill"
       d="M 100.12116,121.0787 123.6165,85.835689 100.12116,78.003919 Z"
       id="path1768"
       inkscape:connector-curvature="0"
       sodipodi:nodetypes="cccc" />
    <path
       sodipodi:nodetypes="ccccc"
       id="path1611"
       d="M 37.061252,9.2471788 113.40922,17.435318 100.11814,121.08345 13.565911,99.312639 Z"
       style="fill:url(#linearGradient1619);fill-opacity:1;stroke:none;stroke-width:1.66425;stroke-linecap:butt;stroke-linejoin:miter;stroke-miterlimit:4;stroke-dasharray:none;stroke-opacity:1" />
    <path
       style="fill:none;stroke:#4d3e2e;stroke-width:0.9;stroke-linecap:butt;stroke-linejoin:miter;stroke-miterlimit:4;stroke-dasharray:none;stroke-opacity:1"
       d="M 37.064262,9.2424258 113.41223,17.430566 100.12116,121.0787 13.568927,99.307899 Z"
       id="path1553"
       sodipodi:nodetypes="ccccc" />
    <g
       id="text1"
       style="font-weight:500;font-size:21.8108px;line-height:0.85;font-family:'Source Code Pro';-inkscape-font-specification:'Source Code Pro Medium';letter-spacing:-0.991401px;fill-opacity:1;stroke-width:1.90283;stroke-linecap:round;stroke-linejoin:round;fill:#8a6f5e"
       transform="scale(1.00652,0.99352219)"
       aria-label="0x0101&#10;0x1010&#10;0xA1A1&#10;0x0A0A&#10;0xF0F0">
      <path
         id="path26"
         d="m 47.125166,19.364651 c -2.328015,-0.284098 -4.225165,1.353162 -5.058615,4.790631 -0.839115,3.460829 0.161174,5.633549 2.521993,5.960684 2.377603,0.329461 4.340205,-1.45623 5.144451,-4.962904 0.798712,-3.482545 -0.263558,-5.502329 -2.607829,-5.788411 z m 18.620905,2.272392 c -2.458681,-0.300044 -4.392009,1.384483 -5.139733,4.931174 -0.753045,3.571932 0.380304,5.82001 2.876113,6.165851 2.514054,0.348369 4.511834,-1.490712 5.225398,-5.111447 0.708423,-3.594648 -0.485451,-5.683381 -2.961778,-5.985578 z m 19.683074,2.402013 c -2.600664,-0.317371 -4.571278,1.417228 -5.221996,5.080187 -0.65557,3.690271 0.62476,6.018915 3.267476,6.385112 2.662597,0.368953 4.696382,-1.5268 5.307216,-5.269124 0.606223,-3.714079 -0.732833,-5.876461 -3.352696,-6.196175 z M 75.394227,23.019864 c -0.838196,0.308703 -1.717352,0.458069 -3.129318,0.472257 l -0.199987,1.03881 2.514281,0.314492 -1.426034,7.575429 -3.218733,-0.438386 -0.270273,1.395624 7.933773,1.096942 0.255036,-1.414074 -2.918674,-0.397519 1.757103,-9.484895 z m 20.253425,2.47756 c -0.871221,0.316561 -1.791842,0.468272 -3.279156,0.478603 l -0.170042,1.073255 2.662031,0.332974 -1.205569,7.830902 -3.408582,-0.464244 -0.230356,1.443065 8.406983,1.162369 0.213074,-1.46277 -3.093609,-0.421345 1.478648,-9.804801 z M 46.830663,20.612885 c 1.34449,0.166646 2.06573,1.435238 1.39122,4.343507 -0.681082,2.936601 -1.9662,4.039179 -3.325213,3.853601 -1.353514,-0.184827 -2.045493,-1.548464 -1.346568,-4.461628 0.692228,-2.885254 1.941437,-3.901462 3.280561,-3.73548 z m 18.652717,2.31196 c 1.420333,0.176047 2.226886,1.488164 1.627191,4.489892 -0.605702,3.031794 -1.916265,4.166969 -3.353035,3.970773 -1.430795,-0.19538 -2.209766,-1.606459 -1.583861,-4.613306 0.619742,-2.977238 1.895198,-4.022684 3.309705,-3.847359 z m 19.71905,2.44413 c 1.502778,0.186266 2.403392,1.544887 1.888382,4.64617 -0.520319,3.13325 -1.857158,4.303004 -3.378555,4.095252 -1.514887,-0.206863 -2.38989,-1.668669 -1.846681,-4.775311 0.537708,-3.075178 1.840416,-4.151591 3.336854,-3.966111 z m -33.320294,-2.761742 1.968199,4.219949 -4.014219,3.809436 1.770658,0.244816 1.605777,-1.57178 c 0.432712,-0.456743 0.862512,-0.897394 1.274017,-1.339146 l 0.06786,0.0091 c 0.253684,0.513857 0.508853,1.09898 0.729817,1.611047 l 0.953288,1.931086 1.85662,0.256701 -2.231381,-4.514934 3.767886,-3.680138 -1.784118,-0.224747 -1.456268,1.489799 c -0.368254,0.41042 -0.797703,0.864233 -1.183404,1.273022 l -0.06773,-0.0088 C 54.933103,25.626975 54.701453,25.105097 54.513291,24.624071 L 53.6858,22.834442 Z m -5.720951,0.843194 c -0.590764,-0.0758 -1.182693,0.282399 -1.348417,0.979332 -0.166109,0.698548 0.226645,1.1859 0.819143,1.263963 0.593549,0.0782 1.188454,-0.280439 1.352576,-0.981585 0.16374,-0.69952 -0.231494,-1.185779 -0.823302,-1.26171 z m 18.724919,2.402465 c -0.624204,-0.08009 -1.233297,0.288019 -1.381414,1.007285 -0.148471,0.720981 0.282944,1.225609 0.90911,1.308108 0.627307,0.08265 1.239609,-0.285962 1.385831,-1.009708 0.145873,-0.722019 -0.28819,-1.225452 -0.913527,-1.305685 z M 84.68685,28.39339 c -0.660564,-0.08475 -1.287845,0.293827 -1.416031,1.03688 -0.128501,0.744875 0.345441,1.267989 1.008228,1.355313 0.66403,0.08749 1.294776,-0.291664 1.420729,-1.039488 0.125644,-0.745988 -0.351127,-1.267794 -1.012926,-1.352705 z m -40.840473,4.868208 c -2.370358,-0.33998 -4.314442,1.347411 -5.187137,4.946738 -0.87886,3.624758 0.126088,5.926943 2.530361,6.313841 2.421772,0.389714 4.434213,-1.452264 5.277009,-5.127022 0.836767,-3.648473 -0.232938,-5.791147 -2.620233,-6.133557 z m 28.869889,4.140806 c -2.579204,-0.369935 -4.580824,1.393915 -5.315985,5.174933 -0.740732,3.80967 0.477277,6.239494 3.09754,6.66115 2.640173,0.424859 4.708653,-1.503728 5.405694,-5.36855 0.691695,-3.83518 -0.588819,-6.094841 -3.187249,-6.467533 z m 20.673561,2.965206 c -2.734153,-0.392159 -4.775637,1.426623 -5.403388,5.339084 -0.632738,3.943543 0.746699,6.466239 3.527537,6.913735 2.80261,0.450999 4.909572,-1.539981 5.492607,-5.542559 0.578349,-3.970397 -0.861614,-6.31509 -3.616756,-6.71026 z M 62.760239,36.187692 c -0.840978,0.306106 -1.720076,0.444885 -3.124473,0.437073 l -0.223957,1.071808 2.494246,0.365784 -1.600966,7.818012 -3.190513,-0.505416 -0.302561,1.440327 7.864489,1.263012 0.287705,-1.459862 -2.893482,-0.458362 1.975688,-9.787501 z m 20.086998,2.88731 c -0.874343,0.313788 -1.793631,0.454522 -3.273624,0.441466 l -0.194709,1.108296 2.640658,0.387254 -1.385644,8.088683 -3.382315,-0.5358 -0.263611,1.490577 8.340108,1.339394 0.246708,-1.511475 -3.068706,-0.48612 1.703681,-10.126422 z M 43.537995,34.568654 c 1.369153,0.199148 2.095983,1.545936 1.389393,4.592519 -0.713636,3.076965 -2.031095,4.213834 -3.415271,3.99404 -1.378443,-0.218883 -2.074474,-1.665859 -1.342382,-4.717263 0.724914,-3.021488 2.004699,-4.06763 3.36826,-3.869296 z m 28.920949,4.20664 c 1.490419,0.216786 2.353885,1.637496 1.767473,4.839702 -0.592518,3.235545 -1.950495,4.425211 -3.459102,4.185659 -1.502089,-0.238517 -2.33746,-1.765989 -1.722588,-4.973341 0.608585,-3.174548 1.930145,-4.267883 3.414217,-4.05202 z m 20.713409,3.012828 c 1.580441,0.22988 2.547174,1.704336 2.054658,5.01923 -0.497798,3.35045 -1.883921,4.578117 -3.485045,4.323874 -1.593996,-0.253111 -2.534857,-1.839163 -2.011629,-5.159438 0.517717,-3.285307 1.868506,-4.412538 3.442016,-4.183666 z m -44.498297,-5.032228 1.980142,4.474518 -4.117658,3.934659 1.80417,0.289744 1.647717,-1.625169 c 0.444208,-0.472853 0.88499,-0.927245 1.307462,-1.384694 l 0.06915,0.01075 c 0.255525,0.54534 0.512481,1.164164 0.734675,1.707095 l 0.960464,2.049951 1.892623,0.303949 -2.248866,-4.790971 3.865702,-3.8045 -1.818358,-0.268376 -1.494044,1.539669 c -0.378112,0.42519 -0.818912,0.894945 -1.214821,1.318121 l -0.06902,-0.01052 c -0.207088,-0.514598 -0.440065,-1.067814 -0.628936,-1.57724 l -0.832885,-1.895782 z m -5.8372,0.784496 c -0.601596,-0.09028 -1.206901,0.27429 -1.380479,1.004247 -0.173989,0.73169 0.222676,1.252857 0.826065,1.345604 0.604484,0.09291 1.21363,-0.275181 1.385564,-1.009703 0.171526,-0.732779 -0.228466,-1.249709 -0.83115,-1.340148 z m 29.036862,4.357266 c -0.655072,-0.0983 -1.287815,0.281946 -1.433127,1.049079 -0.145672,0.769032 0.312952,1.31978 0.970195,1.420805 0.658485,0.101215 1.295334,-0.282816 1.438517,-1.054972 0.142829,-0.770242 -0.319279,-1.316427 -0.975585,-1.414912 z m 20.803928,3.121832 c -0.694784,-0.104259 -1.347242,0.287214 -1.470467,1.081258 -0.12354,0.79607 0.38178,1.368368 1.079032,1.475542 0.69861,0.107383 1.355368,-0.288061 1.476078,-1.087474 0.120402,-0.797371 -0.388512,-1.364864 -1.084643,-1.469326 z m -33.944531,5.730784 -6.386607,11.363922 1.837387,0.338564 1.739636,-3.322727 4.135892,0.739945 0.317996,3.724024 1.955336,0.360297 -1.518186,-12.8587 z m 20.431198,3.389649 -6.298654,11.755208 1.95066,0.359435 1.707386,-3.438991 4.390968,0.785581 0.47936,3.865444 2.077386,0.382787 -2.099081,-13.34314 z M 40.411754,47.819035 c -2.414137,-0.400912 -4.407523,1.339576 -5.322296,5.112449 -0.921494,3.800595 0.08662,6.245609 2.535844,6.697754 2.467483,0.455515 4.533108,-1.449471 5.417289,-5.304674 0.877604,-3.826529 -0.199037,-6.101683 -2.630837,-6.505529 z m 29.376317,5.106673 c -0.877411,0.310837 -1.795692,0.443407 -3.267768,0.406008 l -0.220343,1.144546 2.617876,0.443684 -1.572869,8.355456 -3.352509,-0.609979 -0.298184,1.539752 8.266939,1.523297 0.281698,-1.561904 -3.042116,-0.553504 1.938219,-10.462563 z m 21.121413,3.514546 c -0.913717,0.31869 -1.877496,0.452349 -3.432148,0.407464 l -0.187887,1.185897 2.779726,0.471115 -1.333613,8.662628 -3.560771,-0.647872 -0.254897,1.5968 8.786296,1.618995 0.236062,-1.620581 -3.234146,-0.588444 1.635866,-10.847307 z m -31.50556,-4.076733 0.07195,0.0121 c 0.06674,1.409092 0.191867,2.817195 0.306934,4.192206 l 0.153055,1.753578 -3.276195,-0.578831 0.827921,-1.574469 c 0.64627,-1.239383 1.298777,-2.512064 1.91633,-3.80458 z m 20.529825,3.451106 0.07634,0.01283 c 0.124693,1.460923 0.310953,2.921298 0.485355,4.347553 l 0.230828,1.819588 -3.479485,-0.614747 0.81431,-1.628792 c 0.633851,-1.282274 1.271244,-2.599211 1.87265,-3.936435 z M 40.088117,49.190751 c 1.394666,0.234602 2.12717,1.664115 1.386161,4.859102 -0.748577,3.227622 -2.100039,4.400847 -3.510247,4.143702 -1.404226,-0.256054 -2.103898,-1.792909 -1.336226,-4.992615 0.759966,-3.167589 2.071477,-4.243811 3.460312,-4.010189 z m 5.223414,2.394963 1.990576,4.750734 -4.226913,4.069377 1.838885,0.338839 1.691892,-1.681973 c 0.456327,-0.490018 0.909396,-0.962288 1.343428,-1.436457 l 0.07049,0.0126 c 0.257245,0.579323 0.515133,1.237802 0.738412,1.814054 l 0.967199,2.178343 1.929964,0.355622 -2.26503,-5.090738 3.969046,-3.938406 -1.853853,-0.316041 -1.534527,1.595951 c -0.388508,0.440934 -0.841268,0.927665 -1.247936,1.366163 l -0.07036,-0.01235 C 48.4448,55.045526 48.21064,54.458498 48.021212,53.918441 L 47.1841,51.904946 Z m -5.958136,0.719111 c -0.612798,-0.10607 -1.232859,0.268275 -1.414862,1.033665 -0.182445,0.76725 0.218823,1.321735 0.833476,1.430504 0.615795,0.108971 1.239122,-0.265849 1.419441,-1.036193 0.179881,-0.768471 -0.224123,-1.321709 -0.838055,-1.427976 z m 26.408415,16.165474 -6.551438,12.078194 1.93259,0.404646 1.782157,-3.53618 4.351201,0.886306 0.384258,4.014534 2.058675,0.431046 -1.768985,-13.862976 z m 21.504968,4.083615 -6.449535,12.518631 2.056875,0.430669 1.745168,-3.667319 4.631143,0.943329 0.564997,4.177363 2.190959,0.458744 -2.412409,-14.419502 z M 36.809136,63.08851 c -2.459428,-0.467456 -4.504674,1.329366 -5.464649,5.288669 -0.967312,3.989565 0.04388,6.58547 2.539607,7.108937 2.514794,0.527467 4.635675,-1.441144 5.56437,-5.490439 0.92151,-4.017968 -0.161466,-6.436206 -2.639328,-6.907167 z m 19.717036,3.747563 c -2.608008,-0.495697 -4.695535,1.358076 -5.560278,5.459826 -0.871674,4.134622 0.289667,6.833805 2.939208,7.389534 2.670404,0.560105 4.832734,-1.473421 5.660196,-5.672091 0.820751,-4.164615 -0.410985,-6.677745 -3.039126,-7.177269 z m 20.929122,3.977941 c -2.770471,-0.526576 -4.901701,1.38786 -5.657506,5.642359 -0.762159,4.290273 0.566362,7.100763 3.384391,7.691832 2.840917,0.595869 5.045796,-1.506972 5.757303,-5.866084 0.705454,-4.322023 -0.69167,-6.937341 -3.484188,-7.468107 z m -10.968402,-0.594223 0.07566,0.01454 c 0.08897,1.515816 0.239565,3.030383 0.378854,4.511252 l 0.183969,1.890973 -3.446394,-0.693851 0.848266,-1.676682 c 0.661655,-1.318374 1.328996,-2.670473 1.959643,-4.046236 z m 21.613795,4.154705 0.08047,0.01547 c 0.153147,1.575178 0.371359,3.14963 0.576352,4.68928 l 0.270078,1.966813 -3.669383,-0.738744 0.832451,-1.737961 c 0.647435,-1.366716 1.297709,-2.768655 1.910031,-4.194856 z M 36.469885,64.526404 c 1.421064,0.273328 2.15815,1.795518 1.38014,5.150041 -0.786153,3.389638 -2.173415,4.60148 -3.610569,4.303492 -1.430907,-0.296692 -2.133735,-1.930664 -1.32782,-5.28977 0.797629,-3.324565 2.143271,-4.435921 3.558249,-4.163763 z m 19.752446,3.799198 c 1.50738,0.28993 2.340897,1.872174 1.646306,5.348892 -0.702082,3.514218 -2.11915,4.765451 -3.644941,4.449085 -1.518959,-0.314949 -2.320048,-2.014177 -1.595343,-5.495657 0.71703,-3.444613 2.093247,-4.590972 3.593978,-4.30232 z m 20.9696,4.033306 c 1.601805,0.308093 2.542462,1.955023 1.943328,5.562883 -0.605799,3.647994 -2.053743,4.941255 -3.676632,4.604756 -1.615396,-0.334945 -2.525817,-2.104515 -1.894102,-5.717324 0.624819,-3.573375 2.032884,-4.757006 3.627406,-4.450315 z m -35.40957,-5.208421 2.000379,5.045816 -4.342073,4.212807 1.874852,0.392557 1.738479,-1.742503 c 0.469116,-0.508327 0.934397,-0.996248 1.380633,-1.488262 l 0.07188,0.01463 c 0.258817,0.616079 0.518171,1.31399 0.742364,1.926266 l 0.973396,2.317243 1.968703,0.412208 -2.279978,-5.415021 4.077277,-4.077676 -1.890672,-0.368201 -1.576495,1.652578 c -0.399482,0.457737 -0.864863,0.962575 -1.282882,1.417416 l -0.07175,-0.01436 C 44.957717,70.856248 44.722545,70.232682 44.53274,69.659539 l -0.841495,-2.137307 z m -6.084063,0.646238 c -0.624389,-0.123329 -1.259143,0.257963 -1.4502,1.061428 -0.191531,0.805463 0.213513,1.399343 0.839822,1.525623 0.627502,0.12652 1.266482,-0.258645 1.455813,-1.067492 0.18886,-0.806832 -0.21986,-1.395996 -0.845435,-1.519559 z m 19.832831,3.917379 c -0.662455,-0.130848 -1.317055,0.261733 -1.488518,1.094368 -0.171904,0.834769 0.276929,1.452891 0.941581,1.586902 0.665956,0.134274 1.324982,-0.262372 1.494367,-1.100769 0.168951,-0.836245 -0.28368,-1.449397 -0.94743,-1.580501 z m 21.061545,4.160074 c -0.704111,-0.139076 -1.379836,0.265481 -1.528876,1.129416 -0.149434,0.866217 0.34793,1.510495 1.054556,1.652969 0.708055,0.142762 1.388427,-0.266071 1.534977,-1.136186 0.146162,-0.867812 -0.355128,-1.506843 -1.060657,-1.646199 z m -26.667942,6.764296 -2.784936,13.318793 1.885365,0.445115 1.204062,-5.840302 4.97439,1.129242 0.347171,-1.749959 -4.96402,-1.113536 0.84639,-4.105415 5.830993,1.270957 0.335281,-1.702049 z m 21.168534,4.558919 -2.433692,13.840477 2.00832,0.47414 1.048998,-6.071988 5.297568,1.202607 0.299459,-1.819324 -5.285644,-1.185685 0.736918,-4.265551 6.206601,1.352827 0.288513,-1.768624 z M 33.026707,79.120098 c -2.506281,-0.540221 -4.606142,1.316457 -5.614746,5.476326 -1.01663,4.19297 -0.0042,6.955706 2.539652,7.557272 2.563786,0.60628 4.743784,-1.433696 5.720437,-5.692099 0.968788,-4.224109 -0.119803,-6.797127 -2.645343,-7.341499 z m 30.632816,6.602805 c -2.744805,-0.591633 -4.912232,1.357762 -5.767422,5.756104 -0.862504,4.435956 0.39153,7.374606 3.182614,8.034638 2.814,0.665455 5.060228,-1.480767 5.873443,-5.98973 0.806179,-4.469948 -0.521756,-7.20462 -3.288635,-7.801012 z m 22.058693,4.754681 c -2.923248,-0.630096 -5.137674,1.386404 -5.871333,5.958934 -0.740247,4.613592 0.698785,7.681592 3.675271,8.385462 3.001727,0.70985 5.293597,-1.51352 5.977113,-6.205901 0.677306,-4.649751 -0.833535,-7.503167 -3.781051,-8.138495 z M 32.669842,80.632649 c 1.448392,0.3157 2.190419,1.934683 1.372573,5.460968 -0.82663,3.564157 -2.251629,4.817071 -3.716675,4.474365 -1.458517,-0.341179 -2.163927,-2.080249 -1.31684,-5.610961 0.838154,-3.493479 2.218909,-4.638686 3.660942,-4.324372 z M 63.3598,87.322014 c 1.587018,0.345916 2.4841,2.067184 1.800836,5.798268 -0.690952,3.773061 -2.163652,5.090206 -3.771189,4.714169 -1.600036,-0.374283 -2.463527,-2.224541 -1.747358,-5.960287 0.708266,-3.694515 2.137983,-4.896477 3.717711,-4.55215 z m 22.103921,4.817901 c 1.690796,0.368536 2.706268,2.16496 2.129665,6.045806 -0.583303,3.925929 -2.089277,5.289669 -3.803678,4.888629 -1.706141,-0.3991 -2.690571,-2.33113 -2.078245,-6.2168 0.605351,-3.841406 2.069478,-5.084424 3.752258,-4.717635 z m -47.389067,-8.637248 2.0078,5.368793 -4.463653,4.365816 1.912136,0.451436 1.78769,-1.807131 c 0.482638,-0.527906 0.961208,-1.03431 1.420342,-1.545391 l 0.07333,0.01686 c 0.260214,0.655892 0.520443,1.398306 0.745345,2.049621 l 0.978946,2.467826 2.008916,0.474285 L 42.252051,89.57823 46.444369,85.348357 44.51549,84.923 42.893899,86.639592 c -0.411085,0.475707 -0.889802,0.999887 -1.319819,1.472204 l -0.07319,-0.01656 C 41.291583,87.478859 41.055599,86.815744 40.865623,86.206791 L 40.02118,83.931915 Z m -6.215255,0.564994 c -0.636384,-0.142212 -1.287385,0.249803 -1.488187,1.094253 -0.201316,0.846607 0.208225,1.479647 0.846597,1.625091 0.639618,0.145728 1.294219,-0.246794 1.493257,-1.097106 0.198528,-0.848138 -0.214044,-1.479749 -0.851667,-1.622238 z m 30.819492,6.887215 c -0.697531,-0.155877 -1.380271,0.254262 -1.549485,1.147582 -0.169667,0.895709 0.310225,1.570166 1.010204,1.729646 0.701408,0.159806 1.388219,-0.250951 1.55508,-1.150793 0.166414,-0.897433 -0.31685,-1.570241 -1.015799,-1.726435 z m 22.206521,4.962479 c -0.743325,-0.166111 -1.448998,0.257071 -1.593174,1.186116 -0.144573,0.931608 0.388868,1.636562 1.135009,1.806559 0.747714,0.170356 1.457816,-0.25353 1.599161,-1.189598 0.140954,-0.933481 -0.39611,-1.636618 -1.140996,-1.803077 z"
         sodipodi:nodetypes="cccccccccccccccccccccccccccccccccccccccccccccccccccccccccccccccccccccccccccccccccccccccccccccccccccccccccccccccccccccccccccccccccccccccccccccccccccccccccccccccccccccccccccccccccccccccccccccccccccccccccccccccccccccccccccccccccccccccccccccccccccccccccccccccccccccccccccccccccccccccccccccccccccccccccccccccccccccccccccccccccccccccccccccccccccccccccccccccccccccccccccccccccccccccccccccccccccccccccccccccccccccccccccccccccccccccccccccccccccccccccccccccc"
         style="fill:#8a6f5e;fill-opacity:1" />
    </g>
    <path
       sodipodi:nodetypes="ccccc"
       id="path4"
       d="M 164.1147,-1.9240332 240.46267,6.264106 227.17159,109.91224 140.61936,88.141427 Z"
       style="fill:url(#linearGradient6);fill-opacity:1;stroke:none;stroke-width:1.66425;stroke-linecap:butt;stroke-linejoin:miter;stroke-miterlimit:4;stroke-dasharray:none;stroke-opacity:1" />
    <path
       id="path5"
       d="m 173.54437,5.507548 c -2.53125,-0.293373 -4.60795,1.491224 -5.54357,5.22263 -0.94303,3.76098 0.12779,6.116075 2.69802,6.460016 2.59009,0.346598 4.7434,-1.604866 5.64495,-5.419785 0.89432,-3.784327 -0.24898,-5.967266 -2.7994,-6.262861 z M 194.303,7.913481 c -2.68942,-0.311706 -4.81093,1.529954 -5.6419,5.392695 -0.83789,3.894871 0.39633,6.34071 3.1305,6.706588 2.75597,0.368794 4.95146,-1.647677 5.74171,-5.60037 0.78359,-3.919431 -0.51987,-6.184773 -3.23031,-6.498913 z m 10.86605,1.259377 c -2.77413,-0.321522 -4.91628,1.550336 -5.68929,5.482227 -0.77959,3.965404 0.54099,6.458877 3.36306,6.836518 2.84492,0.380698 5.0619,-1.669921 5.79043,-5.695229 0.72225,-3.990601 -0.66808,-6.299444 -3.4642,-6.623516 z m 11.21168,1.299438 c -2.8629,-0.33181 -5.02757,1.571056 -5.73847,5.574568 -0.71711,4.038485 0.69643,6.581629 3.61072,6.97161 2.93826,0.393189 5.17696,-1.692752 5.83931,-5.793347 0.65651,-4.064361 -0.82561,-6.418348 -3.71156,-6.752831 z m 11.51984,1.565658 c -0.96042,0.350802 -1.97779,0.521871 -3.61942,0.541043 l -0.18296,1.174516 2.94115,0.350577 -1.29464,8.586732 -3.76891,-0.494654 -0.24869,1.582972 9.30654,1.242283 0.22737,-1.606609 -3.42495,-0.44951 1.5832,-10.750852 z m -54.68608,-5.17606 c 1.46276,0.172561 2.23972,1.543448 1.48398,4.703373 -0.76382,3.193763 -2.17386,4.400251 -3.6539,4.205431 -1.47354,-0.193965 -2.21608,-1.67325 -1.43102,-4.839437 0.7768,-3.132894 2.14451,-4.241182 3.60094,-4.069367 z m 20.79753,2.453476 c 1.55467,0.183404 2.43388,1.606122 1.76981,4.878643 -0.6714,3.308667 -2.11041,4.555098 -3.68492,4.347843 -1.56737,-0.206316 -2.41583,-1.742633 -1.72006,-5.021754 0.68823,-3.243577 2.08743,-4.387318 3.63517,-4.204732 z m 10.88757,1.284402 c 1.60391,0.189213 2.54093,1.639581 1.92766,4.971423 -0.62015,3.36923 -2.07638,4.636323 -3.70155,4.4224 -1.61768,-0.212939 -2.52363,-1.779389 -1.87735,-5.117996 0.63917,-3.301852 2.0546,-4.464182 3.65124,-4.275827 z m 11.23474,1.325358 c 1.65552,0.195301 2.65199,1.674177 2.09315,5.067485 -0.56521,3.432004 -2.03738,4.72067 -3.71568,4.499752 -1.67046,-0.219885 -2.63719,-1.817629 -2.04397,-5.217884 0.58659,-3.362224 2.01861,-4.543755 3.6665,-4.349353 z m -37.21042,-2.903537 2.12517,4.575598 -4.40856,4.163572 1.93403,0.258164 1.76297,-1.719118 c 0.47537,-0.499323 0.94594,-0.97964 1.39798,-1.462464 l 0.0753,0.0097 c 0.27441,0.557902 0.55065,1.191945 0.78944,1.748349 l 1.03267,2.098795 2.02948,0.270904 -2.41687,-4.903767 4.13514,-4.023529 -1.94983,-0.23429 -1.59633,1.62724 c -0.40437,0.448196 -0.87658,0.9435 -1.30006,1.390088 l -0.0752,-0.0094 c -0.22245,-0.526861 -0.47171,-1.09273 -0.67457,-1.614496 L 180.89024,9.25792 Z m -6.45982,0.921151 c -0.6428,-0.07886 -1.28978,0.312589 -1.47574,1.06972 -0.18643,0.759059 0.237,1.286967 0.88186,1.368492 0.6461,0.08168 1.29703,-0.312076 1.4811,-1.074189 0.1836,-0.76017 -0.24319,-1.28501 -0.88722,-1.364023 z m 20.88585,2.562366 c -0.68334,-0.08384 -1.35101,0.319689 -1.51543,1.103721 -0.16486,0.786091 0.30559,1.334706 0.9913,1.421395 0.68707,0.08686 1.35894,-0.319117 1.52108,-1.10848 0.16172,-0.787287 -0.31226,-1.332635 -0.99695,-1.416636 z m 10.93649,1.341735 c -0.70507,-0.0865 -1.38358,0.323346 -1.53607,1.121544 -0.1529,0.800329 0.34299,1.35989 1.05059,1.449347 0.70903,0.08964 1.39189,-0.322739 1.54188,-1.126457 0.14959,-0.801572 -0.34992,-1.35776 -1.0564,-1.444434 z m 11.28715,1.384756 c -0.72784,-0.08929 -1.41756,0.327073 -1.55726,1.139952 -0.14008,0.815083 0.38265,1.386017 1.11321,1.478376 0.73205,0.09255 1.42626,-0.326432 1.56323,-1.145028 0.13659,-0.816375 -0.38986,-1.383823 -1.11918,-1.4733 z m -45.62061,5.020749 c -2.58038,-0.357482 -4.71277,1.487598 -5.69573,5.407787 -0.99105,3.952506 0.084,6.458739 2.70481,6.871714 2.64154,0.416246 4.85394,-1.602089 5.802,-5.613809 0.94015,-3.978263 -0.21066,-6.305436 -2.81108,-6.665692 z m 21.17986,2.934218 c -2.74584,-0.380404 -4.92546,1.525621 -5.79983,5.59005 -0.88193,4.099612 0.36358,6.707365 3.15597,7.147382 2.81524,0.443617 5.07236,-1.644311 5.9047,-5.807577 0.82505,-4.126812 -0.493,-6.546404 -3.26084,-6.929855 z m 11.09955,1.53771 c -2.83459,-0.392699 -5.03608,1.545668 -5.8501,5.686202 -0.82124,4.17727 0.51458,6.838411 3.39917,7.292955 2.90856,0.458323 5.18846,-1.666223 5.95646,-5.909535 0.76109,-4.205232 -0.64787,-6.673726 -3.50553,-7.069622 z m 11.462,1.587925 c -2.92771,-0.4056 -5.15299,1.565988 -5.90224,5.785457 -0.75606,4.257851 0.6771,6.974773 3.65852,7.444576 3.00662,0.473774 5.30958,-1.688692 6.00842,-6.015122 0.6924,-4.286626 -0.81276,-6.805955 -3.7647,-7.214911 z m 11.3967,1.578878 c -1.94699,-0.269732 -3.38905,0.281402 -4.84179,1.319198 l 1.00652,1.267399 c 0.94853,-0.684134 2.11111,-1.214766 3.32042,-1.044537 1.85361,0.260924 2.6356,1.337422 2.42808,2.754833 -0.3071,2.097526 -3.20384,3.989284 -8.22696,7.028108 l -0.18911,1.197297 9.86856,1.551577 0.24953,-1.759566 -4.24265,-0.656571 c -0.77791,-0.120385 -1.71465,-0.203067 -2.54142,-0.26761 3.89574,-2.464718 6.8009,-4.508627 7.14285,-6.899451 0.33354,-2.332045 -1.22629,-4.110009 -3.97403,-4.490677 z m -55.48505,-6.214327 c 1.49142,0.209899 2.27437,1.671616 1.47999,4.993157 -0.80311,3.358015 -2.25107,4.603604 -3.7604,4.369275 -1.50254,-0.233274 -2.24949,-1.808206 -1.42438,-5.13595 0.81622,-3.291876 2.21998,-4.43545 3.70479,-4.226482 z m 21.22029,2.9865 c 1.5876,0.223435 2.47732,1.743287 1.77819,5.188605 -0.70705,3.484372 -2.18574,4.772623 -3.79398,4.522938 -1.60076,-0.248524 -2.45822,-1.887301 -1.7258,-5.33915 0.72428,-3.413466 2.16126,-4.594806 3.74159,-4.372393 z m 11.122,1.565286 c 1.6392,0.230699 2.58938,1.781664 1.94319,5.292333 -0.65362,3.551116 -2.1505,4.861427 -3.81188,4.603493 -1.65352,-0.256716 -2.57109,-1.929307 -1.89021,-5.446663 0.67319,-3.477619 2.12732,-4.678788 3.7589,-4.449163 z m 11.4861,1.61653 c 1.69337,0.238322 2.70583,1.8214 2.1165,5.399883 -0.59624,3.620399 -2.11001,4.953799 -3.8272,4.6872 -1.70894,-0.265319 -2.69016,-1.973083 -2.06464,-5.558428 0.61833,-3.544176 2.08997,-4.76585 3.77534,-4.528655 z m -38.01637,-3.781534 2.13775,4.872592 -4.53163,4.313481 1.97327,0.310246 1.81272,-1.782334 c 0.48901,-0.518372 0.97299,-1.016746 1.43804,-1.518118 l 0.0769,0.01165 c 0.27641,0.594706 0.55418,1.26994 0.79426,1.862466 l 1.04052,2.237987 2.07176,0.325731 -2.4357,-5.228612 4.25103,-4.170633 -1.99,-0.284691 -1.64143,1.687988 c -0.41606,0.465623 -0.90174,0.97971 -1.33733,1.443288 l -0.0767,-0.01138 c -0.22354,-0.560755 -0.47417,-1.163182 -0.67771,-1.718102 l -0.89979,-2.064597 z m -6.6002,0.84917 c -0.65539,-0.09552 -1.31852,0.305339 -1.51395,1.101042 -0.19595,0.797782 0.23222,1.363253 0.88974,1.461695 0.65882,0.09864 1.3261,-0.304642 1.5196,-1.105775 0.19299,-0.799038 -0.23872,-1.361256 -0.89539,-1.456962 z m 21.31197,3.106089 c -0.69781,-0.101702 -1.3827,0.311827 -1.55577,1.13709 -0.17353,0.827488 0.30374,1.416319 1.00401,1.521162 0.7017,0.105056 1.39101,-0.31105 1.56173,-1.142138 0.17025,-0.828847 -0.31074,-1.414207 -1.00997,-1.516114 z m 11.17294,1.628385 c -0.72059,-0.10502 -1.41689,0.315149 -1.57754,1.156013 -0.16108,0.843167 0.34281,1.444378 1.06604,1.552657 0.72473,0.108504 1.42561,-0.314327 1.58366,-1.16123 0.15762,-0.844582 -0.35009,-1.442203 -1.07216,-1.54744 z m 11.54078,1.681998 c -0.74449,-0.108505 -1.4526,0.318522 -1.5999,1.175575 -0.1477,0.859439 0.38432,1.473531 1.13165,1.585419 0.74891,0.112124 1.46175,-0.317651 1.6062,-1.18097 0.14405,-0.860912 -0.3919,-1.471292 -1.13795,-1.580024 z m -14.86112,9.469094 -7.01126,12.727278 2.08394,0.380305 1.90815,-3.726257 4.69754,0.829719 0.43483,4.181383 2.2251,0.406065 -1.97904,-14.415305 z m 23.76101,3.859235 -6.882,13.227851 2.23262,0.407437 1.86188,-3.875414 5.02698,0.887906 0.65136,4.363545 2.3823,0.434753 -2.74839,-15.03601 z m -55.56582,-8.90505 c -2.6313,-0.427846 -4.82205,1.480089 -5.85602,5.603738 -1.04284,4.159021 0.0351,6.830715 2.70828,7.319555 2.6949,0.492813 4.97009,-1.59844 5.96835,-5.82257 0.98959,-4.187477 -0.16837,-6.669471 -2.82061,-7.100723 z m 21.61738,3.514961 c -2.80454,-0.456014 -5.04519,1.517074 -5.96643,5.799389 -0.92954,4.320909 0.32634,7.10632 3.17935,7.628046 2.87698,0.526111 5.1996,-1.639852 6.0775,-6.030956 0.86989,-4.351075 -0.46281,-6.936713 -3.29042,-7.396479 z m 23.06621,3.750539 c -2.99546,-0.487057 -5.28452,1.556335 -6.0753,6.009696 -0.79827,4.495564 0.65424,7.403624 3.70585,7.961669 3.07813,0.562894 5.44943,-1.683281 6.18784,-6.254704 0.73134,-4.52761 -0.79747,-7.225463 -3.81839,-7.716661 z m -12.08855,-0.416186 0.0813,0.0134 c 0.103,1.576051 0.2722,3.151706 0.42941,4.691581 l 0.20713,1.966313 -3.72062,-0.648087 0.9084,-1.764808 c 0.70744,-1.387885 1.42103,-2.812218 2.0944,-4.258397 z m 23.89059,3.937573 0.0869,0.01433 c 0.17983,1.642205 0.43001,3.284645 0.6659,4.89008 l 0.30989,2.050847 -3.98226,-0.693662 0.88467,-1.835072 c 0.68966,-1.442739 1.38414,-2.923253 2.03485,-4.426525 z m -56.8506,-9.28849 c 1.52113,0.250894 2.30967,1.811096 1.4736,5.306959 -0.8455,3.535253 -2.33386,4.824052 -3.87356,4.546299 -1.53259,-0.276469 -2.28303,-1.956718 -1.41472,-5.458689 0.85872,-3.463258 2.30047,-4.644322 3.81468,-4.394569 z m 21.65939,3.572484 c 1.62187,0.26751 2.52201,1.892951 1.78496,5.525105 -0.74562,3.674436 -2.26657,5.008946 -3.90993,4.712493 -1.63553,-0.295038 -2.50139,-2.046871 -1.72935,-5.685443 0.76323,-3.597044 2.24008,-4.818407 3.85432,-4.552155 z m 23.11478,3.812535 c 1.73294,0.28583 2.76167,1.982488 2.13928,5.761708 -0.62989,3.824722 -2.18798,5.207663 -3.94583,4.890557 -1.74917,-0.31554 -2.74472,-2.144973 -2.0842,-5.930922 0.65272,-3.741288 2.16623,-5.005785 3.89075,-4.721343 z m -38.8568,-4.748706 2.14875,5.194797 -4.66173,4.473614 2.01402,0.367544 1.86534,-1.84992 c 0.50345,-0.538765 1.00161,-1.056459 1.48044,-1.577689 l 0.0785,0.01385 c 0.27824,0.634671 0.55731,1.354625 0.79847,1.986371 l 1.04776,2.389213 2.11573,0.386107 -2.45315,-5.58152 4.37356,-4.327862 -2.03174,-0.340137 -1.68915,1.752956 c -0.42843,0.484288 -0.92836,1.018475 -1.37676,1.500235 l -0.0783,-0.01355 c -0.22443,-0.597531 -0.47624,-1.239627 -0.68025,-1.830506 l -0.9045,-2.200823 z m -6.74666,0.768401 c -0.66843,-0.113812 -1.34855,0.296915 -1.5542,1.134215 -0.2062,0.839543 0.22663,1.445811 0.89728,1.562836 0.672,0.117263 1.35649,-0.296006 1.56015,-1.139234 0.20312,-0.840967 -0.23345,-1.443776 -0.90323,-1.557817 z m 21.75466,3.704096 c -0.71287,-0.121379 -1.41589,0.302661 -1.59831,1.172497 -0.18292,0.872242 0.30123,1.504864 1.01667,1.629706 0.71693,0.125102 1.42462,-0.301648 1.6046,-1.177861 0.17949,-0.873786 -0.3086,-1.502711 -1.02296,-1.624342 z m 23.225,3.954446 c -0.7619,-0.129726 -1.48941,0.308518 -1.64493,1.213447 -0.15597,0.907518 0.38559,1.568733 1.15046,1.7022 0.76652,0.133755 1.49903,-0.307385 1.65159,-1.219192 0.15213,-0.909197 -0.39358,-1.566451 -1.15712,-1.696455 z m -47.75925,3.753321 c -2.68407,-0.505198 -4.93644,1.469731 -6.02551,5.8131 -1.09879,4.382156 -0.0192,7.233625 2.70831,7.805976 2.75025,0.577129 5.09188,-1.592078 6.14442,-6.045946 1.04305,-4.413638 -0.12121,-7.063803 -2.82722,-7.57313 z m 22.07206,4.154424 c -2.86565,-0.539376 -5.17084,1.505343 -6.14282,6.023544 -0.98111,4.56062 0.28442,7.539579 3.20056,8.15152 2.94133,0.617226 5.33336,-1.63235 6.26065,-6.270518 0.91848,-4.594128 -0.42852,-7.360612 -3.31839,-7.904546 z m 23.59298,4.440691 c -3.0663,-0.577141 -5.4229,1.54312 -6.25876,6.250371 -0.84412,4.753755 0.62765,7.870648 3.75271,8.52643 3.153,0.661644 5.59682,-1.67444 6.37826,-6.51227 0.77364,-4.789501 -0.77912,-7.682346 -3.87221,-8.264531 z M 195.80159,58.65838 c -0.9918,0.345241 -2.02779,0.481028 -3.68651,0.409764 l -0.25823,1.327825 2.9482,0.566623 -1.8443,9.720095 -3.77876,-0.781209 -0.35082,1.792257 9.33165,1.95446 0.32973,-1.821885 -3.43679,-0.710509 2.26879,-12.170183 z m 24.42263,4.606229 c -1.03893,0.355031 -2.13593,0.490906 -3.90203,0.407778 l -0.21562,1.384208 3.15903,0.607143 -1.52898,10.141019 -4.05129,-0.837549 -0.29387,1.87054 10.01213,2.096985 0.26929,-1.902737 -3.68662,-0.762157 1.86987,-12.697444 z m -58.40489,-9.618875 c 1.55194,0.295979 2.34558,1.963184 1.46444,5.64746 -0.89133,3.726905 -2.4224,5.061818 -3.9936,4.73626 -1.56376,-0.324015 -2.317,-2.118721 -1.402,-5.80897 0.90462,-3.64838 2.38647,-4.869348 3.93116,-4.57475 z m 22.11573,4.217821 c 1.65757,0.316124 2.56794,2.056592 1.78981,5.8912 -0.78743,3.880487 -2.35312,5.264479 -4.03309,4.916383 -1.67174,-0.346388 -2.54564,-2.221422 -1.73068,-6.062291 0.80541,-3.795837 2.3244,-5.05989 3.97396,-4.745292 z m 23.64369,4.509228 c 1.77434,0.338395 2.81958,2.15914 2.16127,6.156472 -0.66647,4.046844 -2.27153,5.482899 -4.07196,5.109845 -1.79128,-0.371159 -2.80122,-2.333564 -2.10268,-6.337438 0.69006,-3.955311 2.24789,-5.265585 4.01337,-4.928879 z m -39.73355,-5.817746 2.15786,5.545043 -4.79945,4.644996 2.05634,0.430689 1.92107,-1.92232 c 0.51877,-0.560637 1.03195,-1.099043 1.52539,-1.641577 l 0.0801,0.01627 c 0.27986,0.678156 0.55998,1.44676 0.80199,2.121177 l 1.05424,2.553848 2.16148,0.45271 -2.4689,-5.965698 4.5033,-4.496236 -2.07516,-0.401236 -1.73968,1.822572 c -0.44156,0.504318 -0.95659,1.060056 -1.41856,1.561312 l -0.08,-0.01594 c -0.2251,-0.637513 -0.47785,-1.322737 -0.68209,-1.952696 l -0.90842,-2.348895 z m -6.89956,0.677728 c -0.68196,-0.133934 -1.37996,0.287159 -1.59665,1.169405 -0.21728,0.884672 0.22012,1.53533 0.90437,1.672803 0.68568,0.137759 1.38828,-0.286006 1.60293,-1.174736 0.21406,-0.886283 -0.22728,-1.53326 -0.91065,-1.667472 z m 22.21476,4.362915 c -0.72856,-0.143087 -1.4507,0.292011 -1.64325,1.210129 -0.19309,0.920729 0.298,1.601129 1.02924,1.748041 0.7328,0.147227 1.45987,-0.290725 1.64989,-1.215839 0.18949,-0.922481 -0.30576,-1.598938 -1.03588,-1.742331 z m 23.7588,4.666159 c -0.78011,-0.153211 -1.52812,0.296855 -1.69258,1.253786 -0.16495,0.959746 0.38639,1.672525 1.16961,1.829881 0.78496,0.157705 1.53825,-0.295415 1.69963,-1.259915 0.1609,-0.961659 -0.39483,-1.670203 -1.17666,-1.823752 z m -27.52282,7.471137 -7.57847,13.744276 2.10592,0.501737 2.07256,-4.031935 4.74957,1.099784 0.29628,4.62812 2.24917,0.53587 -1.50959,-15.964132 z m 9.36553,2.016927 -2.93239,15.065635 2.15092,0.51246 1.26591,-6.617007 5.68005,1.296246 0.36193,-1.98345 -5.66634,-1.276276 0.88766,-4.639852 6.65114,1.451458 0.34829,-1.925455 z m 14.68765,3.16308 -7.4596,14.323295 2.26049,0.53857 2.03073,-4.20454 5.09652,1.18012 0.51744,4.84578 2.41853,0.57622 -2.30459,-16.708236 z m 10.04555,2.163375 -2.45547,15.74554 2.31417,0.55136 1.0548,-6.91998 6.10432,1.39307 0.2968,-2.07417 -6.08827,-1.371307 0.73902,-4.848271 7.14124,1.55841 0.28456,-2.012203 z M 158.01537,69.263266 c -2.73879,-0.590377 -5.05634,1.45609 -6.20502,6.037218 -1.15937,4.623745 -0.08,7.672738 2.70383,8.337191 2.8077,0.670154 5.22017,-1.584368 6.33157,-6.287243 1.10093,-4.658627 -0.0686,-7.491834 -2.83038,-8.087166 z m 22.11964,6.485599 0.0839,0.0183 c 0.0496,1.739534 0.16486,3.48125 0.27088,5.183859 l 0.14363,2.175322 -3.76184,-0.860597 0.98595,-1.90862 c 0.76819,-1.501028 1.54212,-3.042125 2.2775,-4.608256 z m 24.18918,5.275356 0.0881,0.01922 c 0.12856,1.818459 0.32888,3.640403 0.5159,5.421404 l 0.2477,2.276101 -4.03911,-0.924031 0.96521,-1.98972 c 0.75133,-1.564629 1.50872,-3.170512 2.22215,-4.802979 z M 157.60987,70.928048 c 1.5839,0.345649 2.38203,2.129342 1.45208,6.017682 -0.941,3.934577 -2.51728,5.318805 -4.12117,4.940522 -1.59608,-0.376441 -2.3513,-2.2958 -1.38575,-6.189931 0.9543,-3.848749 2.47853,-5.112266 4.05484,-4.768273 z m 6.13756,3.208528 2.16473,5.926565 -4.94549,4.828783 2.10031,0.500405 1.98021,-2.00003 c 0.53503,-0.584145 1.06416,-1.1448 1.57311,-1.710238 l 0.0819,0.01895 c 0.28123,0.725574 0.56207,1.547217 0.80465,2.268159 l 1.05981,2.733465 2.20909,0.52632 -2.48258,-6.38482 4.64091,-4.676908 -2.12033,-0.468687 -1.7933,1.897317 c -0.4555,0.525855 -0.98657,1.10475 -1.46295,1.626955 l -0.0817,-0.01858 c -0.2255,-0.681076 -0.47891,-1.413289 -0.68309,-2.085808 l -0.91141,-2.510173 z m -7.05932,0.575865 c -0.69599,-0.156109 -1.41284,0.275885 -1.64148,1.206797 -0.22928,0.933542 0.21254,1.632598 0.91091,1.79261 0.69986,0.160354 1.42156,-0.274453 1.64811,-1.212471 0.22592,-0.935365 -0.22008,-1.630496 -0.91754,-1.786936 z"
       style="font-weight:500;font-size:24px;line-height:0.83;font-family:'Source Code Pro';-inkscape-font-specification:'Source Code Pro Medium';letter-spacing:-0.8px;fill:#000000;fill-opacity:0.2;stroke-width:1.9;stroke-linecap:round;stroke-linejoin:round" />
    <path
       id="path6"
       d="m 172.56102,4.85198 c -2.53125,-0.293373 -4.60795,1.491224 -5.54357,5.22263 -0.94303,3.76098 0.12779,6.116075 2.69802,6.460016 2.59009,0.346598 4.7434,-1.604866 5.64495,-5.419785 0.89432,-3.784327 -0.24898,-5.967266 -2.7994,-6.262861 z m 20.75863,2.405933 c -2.68942,-0.311706 -4.81093,1.529954 -5.6419,5.392695 -0.83789,3.894871 0.39633,6.34071 3.1305,6.706588 2.75597,0.368794 4.95146,-1.647677 5.74171,-5.60037 0.78359,-3.919431 -0.51987,-6.184773 -3.23031,-6.498913 z M 204.1857,8.51729 c -2.77413,-0.321522 -4.91628,1.550336 -5.68929,5.482227 -0.77959,3.965404 0.54099,6.458877 3.36306,6.836518 2.84492,0.380698 5.0619,-1.669921 5.79043,-5.695229 0.72225,-3.990601 -0.66808,-6.299444 -3.4642,-6.623516 z m 11.21168,1.299438 c -2.8629,-0.33181 -5.02757,1.571056 -5.73847,5.574568 -0.71711,4.038485 0.69643,6.581629 3.61072,6.97161 2.93826,0.393189 5.17696,-1.692752 5.83931,-5.793347 0.65651,-4.064361 -0.82561,-6.418348 -3.71156,-6.752831 z m 11.51985,1.565658 c -0.96043,0.350802 -1.9778,0.521871 -3.61943,0.541043 l -0.18296,1.174516 2.94115,0.350577 -1.29464,8.586732 -3.76891,-0.494654 -0.24869,1.582972 9.30655,1.242283 0.22737,-1.606609 -3.42495,-0.44951 1.5832,-10.750852 z m -54.68609,-5.17606 c 1.46276,0.172561 2.23972,1.543448 1.48398,4.703373 -0.76382,3.193763 -2.17386,4.400251 -3.6539,4.205431 -1.47354,-0.193965 -2.21608,-1.67325 -1.43102,-4.839437 0.7768,-3.132894 2.14451,-4.241182 3.60094,-4.069367 z m 20.79753,2.453476 c 1.55467,0.183404 2.43388,1.606122 1.76981,4.878643 -0.6714,3.308667 -2.11041,4.555098 -3.68492,4.347843 -1.56737,-0.206316 -2.41583,-1.742633 -1.72006,-5.021754 0.68823,-3.243577 2.08743,-4.387318 3.63517,-4.204732 z m 10.88757,1.284402 c 1.60391,0.189213 2.54093,1.639581 1.92766,4.971423 -0.62015,3.36923 -2.07638,4.636323 -3.70155,4.4224 -1.61768,-0.212939 -2.52363,-1.779389 -1.87735,-5.117996 0.63917,-3.301852 2.0546,-4.464182 3.65124,-4.275827 z m 11.23474,1.325358 c 1.65552,0.195301 2.65199,1.674177 2.09315,5.067485 -0.56521,3.432004 -2.03738,4.72067 -3.71568,4.499752 -1.67046,-0.219885 -2.63719,-1.817629 -2.04397,-5.217884 0.58659,-3.362224 2.01861,-4.543755 3.6665,-4.349353 z m -37.21042,-2.903537 2.12517,4.575598 -4.40856,4.163572 1.93403,0.258164 1.76297,-1.719118 c 0.47537,-0.499323 0.94594,-0.97964 1.39798,-1.462464 l 0.0753,0.0097 c 0.27441,0.557902 0.55065,1.191945 0.78944,1.748349 l 1.03267,2.098795 2.02948,0.270904 -2.41687,-4.903767 4.13514,-4.023529 -1.94983,-0.23429 -1.59633,1.62724 c -0.40437,0.448196 -0.87658,0.9435 -1.30006,1.390088 l -0.0752,-0.0094 c -0.22245,-0.526861 -0.47171,-1.09273 -0.67457,-1.614496 l -0.89443,-1.939019 z m -6.45982,0.921151 c -0.6428,-0.07886 -1.28978,0.312589 -1.47574,1.06972 -0.18643,0.759059 0.237,1.286967 0.88186,1.368492 0.6461,0.08168 1.29703,-0.312076 1.4811,-1.074189 0.1836,-0.76017 -0.24319,-1.28501 -0.88722,-1.364023 z m 20.88585,2.562366 c -0.68334,-0.08384 -1.35101,0.319689 -1.51543,1.103721 -0.16486,0.786091 0.30559,1.334706 0.9913,1.421395 0.68707,0.08686 1.35894,-0.319117 1.52108,-1.10848 0.16172,-0.787287 -0.31226,-1.332635 -0.99695,-1.416636 z m 10.93649,1.341735 c -0.70507,-0.0865 -1.38358,0.323346 -1.53607,1.121544 -0.1529,0.800329 0.34299,1.35989 1.05059,1.449347 0.70903,0.08964 1.39189,-0.322739 1.54188,-1.126457 0.14959,-0.801572 -0.34992,-1.35776 -1.0564,-1.444434 z m 11.28715,1.384756 c -0.72784,-0.08929 -1.41756,0.327073 -1.55726,1.139952 -0.14008,0.815083 0.38265,1.386017 1.11321,1.478376 0.73205,0.09255 1.42626,-0.326432 1.56323,-1.145028 0.13659,-0.816375 -0.38986,-1.383823 -1.11918,-1.4733 z m -45.62061,5.020749 c -2.58038,-0.357482 -4.71277,1.487598 -5.69573,5.407787 -0.99105,3.952506 0.084,6.458739 2.70481,6.871714 2.64154,0.416246 4.85394,-1.602089 5.802,-5.613809 0.94015,-3.978263 -0.21066,-6.305436 -2.81108,-6.665692 z M 190.14948,22.531 c -2.74584,-0.380404 -4.92546,1.525621 -5.79983,5.59005 -0.88193,4.099612 0.36358,6.707365 3.15597,7.147382 2.81524,0.443617 5.07236,-1.644311 5.9047,-5.807577 0.82505,-4.126812 -0.493,-6.546404 -3.26084,-6.929855 z m 11.09955,1.53771 c -2.83459,-0.392699 -5.03608,1.545668 -5.8501,5.686202 -0.82124,4.17727 0.51458,6.838411 3.39917,7.292955 2.90856,0.458323 5.18846,-1.666223 5.95646,-5.909535 0.76109,-4.205232 -0.64787,-6.673726 -3.50553,-7.069622 z m 11.462,1.587925 c -2.92771,-0.4056 -5.15299,1.565988 -5.90224,5.785457 -0.75606,4.257851 0.6771,6.974773 3.65852,7.444576 3.00662,0.473774 5.30958,-1.688692 6.00842,-6.015122 0.6924,-4.286626 -0.81276,-6.805955 -3.7647,-7.214911 z m 11.3967,1.578878 c -1.94699,-0.269732 -3.38905,0.281402 -4.84179,1.319198 l 1.00652,1.267399 c 0.94853,-0.684134 2.11111,-1.214766 3.32042,-1.044537 1.85361,0.260924 2.6356,1.337422 2.42808,2.754833 -0.3071,2.097526 -3.20384,3.989284 -8.22696,7.028108 l -0.18911,1.197297 9.86857,1.551577 0.24953,-1.759566 -4.24266,-0.656571 c -0.77791,-0.120385 -1.71465,-0.203067 -2.54142,-0.26761 3.89574,-2.464718 6.80091,-4.508627 7.14286,-6.899451 0.33354,-2.332045 -1.22629,-4.110009 -3.97404,-4.490677 z m -55.48505,-6.214327 c 1.49142,0.209899 2.27437,1.671616 1.47999,4.993157 -0.80311,3.358015 -2.25107,4.603604 -3.7604,4.369275 -1.50254,-0.233274 -2.24949,-1.808206 -1.42438,-5.13595 0.81622,-3.291876 2.21998,-4.43545 3.70479,-4.226482 z m 21.22029,2.9865 c 1.5876,0.223435 2.47732,1.743287 1.77819,5.188605 -0.70705,3.484372 -2.18574,4.772623 -3.79398,4.522938 -1.60076,-0.248524 -2.45822,-1.887301 -1.7258,-5.33915 0.72428,-3.413466 2.16126,-4.594806 3.74159,-4.372393 z m 11.122,1.565286 c 1.6392,0.230699 2.58938,1.781664 1.94319,5.292333 -0.65362,3.551116 -2.1505,4.861427 -3.81188,4.603493 -1.65352,-0.256716 -2.57109,-1.929307 -1.89021,-5.446663 0.67319,-3.477619 2.12732,-4.678788 3.7589,-4.449163 z m 11.4861,1.61653 c 1.69337,0.238322 2.70583,1.8214 2.1165,5.399883 -0.59624,3.620399 -2.11001,4.953799 -3.8272,4.6872 -1.70894,-0.265319 -2.69016,-1.973083 -2.06464,-5.558428 0.61833,-3.544176 2.08997,-4.76585 3.77534,-4.528655 z m -38.01637,-3.781534 2.13775,4.872592 -4.53163,4.313481 1.97327,0.310246 1.81272,-1.782334 c 0.48901,-0.518372 0.97299,-1.016746 1.43804,-1.518118 l 0.0769,0.01165 c 0.27641,0.594706 0.55418,1.26994 0.79426,1.862466 l 1.04052,2.237987 2.07176,0.325731 -2.4357,-5.228612 4.25103,-4.170633 -1.99,-0.284691 -1.64143,1.687988 c -0.41606,0.465623 -0.90174,0.97971 -1.33733,1.443288 l -0.0767,-0.01138 c -0.22354,-0.560755 -0.47417,-1.163182 -0.67771,-1.718102 l -0.89979,-2.064597 z m -6.6002,0.84917 c -0.65539,-0.09552 -1.31852,0.305339 -1.51395,1.101042 -0.19595,0.797782 0.23222,1.363253 0.88974,1.461695 0.65882,0.09864 1.3261,-0.304642 1.5196,-1.105775 0.19299,-0.799038 -0.23872,-1.361256 -0.89539,-1.456962 z m 21.31197,3.106089 c -0.69781,-0.101702 -1.3827,0.311827 -1.55577,1.13709 -0.17353,0.827488 0.30374,1.416319 1.00401,1.521162 0.7017,0.105056 1.39101,-0.31105 1.56173,-1.142138 0.17025,-0.828847 -0.31074,-1.414207 -1.00997,-1.516114 z m 11.17294,1.628385 c -0.72059,-0.10502 -1.41689,0.315149 -1.57754,1.156013 -0.16108,0.843167 0.34281,1.444378 1.06604,1.552657 0.72473,0.108504 1.42561,-0.314327 1.58366,-1.16123 0.15762,-0.844582 -0.35009,-1.442203 -1.07216,-1.54744 z m 11.54078,1.681998 c -0.74449,-0.108505 -1.4526,0.318522 -1.5999,1.175575 -0.1477,0.859439 0.38432,1.473531 1.13165,1.585419 0.74891,0.112124 1.46175,-0.317651 1.6062,-1.18097 0.14405,-0.860912 -0.3919,-1.471292 -1.13795,-1.580024 z m -14.86112,9.469094 -7.01126,12.727278 2.08394,0.380305 1.90815,-3.726257 4.69754,0.829719 0.43483,4.181383 2.2251,0.406065 -1.97904,-14.415305 z m 23.76101,3.859235 -6.882,13.227851 2.23262,0.407437 1.86188,-3.875414 5.02698,0.887906 0.65136,4.363545 2.3823,0.434753 -2.74839,-15.03601 z m -55.56582,-8.90505 c -2.6313,-0.427846 -4.82205,1.480089 -5.85602,5.603738 -1.04284,4.159021 0.0351,6.830715 2.70828,7.319555 2.6949,0.492813 4.97009,-1.59844 5.96835,-5.82257 0.98959,-4.187477 -0.16837,-6.669471 -2.82061,-7.100723 z m 21.61738,3.514961 c -2.80454,-0.456014 -5.04519,1.517074 -5.96643,5.799389 -0.92954,4.320909 0.32634,7.10632 3.17935,7.628046 2.87698,0.526111 5.1996,-1.639852 6.0775,-6.030956 0.86989,-4.351075 -0.46281,-6.936713 -3.29042,-7.396479 z m 23.06621,3.750539 c -2.99546,-0.487057 -5.28452,1.556335 -6.0753,6.009696 -0.79827,4.495564 0.65424,7.403624 3.70585,7.961669 3.07813,0.562894 5.44943,-1.683281 6.18784,-6.254704 0.73134,-4.52761 -0.79747,-7.225463 -3.81839,-7.716661 z m -12.08855,-0.416186 0.0813,0.0134 c 0.103,1.576051 0.2722,3.151706 0.42941,4.691581 l 0.20713,1.966313 -3.72062,-0.648087 0.9084,-1.764808 c 0.70744,-1.387885 1.42103,-2.812218 2.0944,-4.258397 z m 23.89059,3.937573 0.0869,0.01433 c 0.17983,1.642205 0.43001,3.284645 0.6659,4.89008 l 0.30989,2.050847 -3.98226,-0.693662 0.88467,-1.835072 c 0.68966,-1.442739 1.38414,-2.923253 2.03485,-4.426525 z m -56.8506,-9.28849 c 1.52113,0.250894 2.30967,1.811096 1.4736,5.306959 -0.8455,3.535253 -2.33386,4.824052 -3.87356,4.546299 -1.53259,-0.276469 -2.28303,-1.956718 -1.41472,-5.458689 0.85872,-3.463258 2.30047,-4.644322 3.81468,-4.394569 z m 21.65939,3.572484 c 1.62187,0.26751 2.52201,1.892951 1.78496,5.525105 -0.74562,3.674436 -2.26657,5.008946 -3.90993,4.712493 -1.63553,-0.295038 -2.50139,-2.046871 -1.72935,-5.685443 0.76323,-3.597044 2.24008,-4.818407 3.85432,-4.552155 z m 23.11478,3.812535 c 1.73294,0.28583 2.76167,1.982488 2.13928,5.761708 -0.62989,3.824722 -2.18798,5.207663 -3.94583,4.890557 -1.74917,-0.31554 -2.74472,-2.144973 -2.0842,-5.930922 0.65272,-3.741288 2.16623,-5.005785 3.89075,-4.721343 z m -38.8568,-4.748706 2.14875,5.194797 -4.66173,4.473614 2.01402,0.367544 1.86534,-1.84992 c 0.50345,-0.538765 1.00161,-1.056459 1.48044,-1.577689 l 0.0785,0.01385 c 0.27824,0.634671 0.55731,1.354625 0.79847,1.986371 l 1.04776,2.389213 2.11573,0.386107 -2.45315,-5.58152 4.37356,-4.327862 -2.03174,-0.340137 -1.68915,1.752956 c -0.42843,0.484288 -0.92836,1.018475 -1.37676,1.500235 l -0.0783,-0.01355 c -0.22443,-0.597531 -0.47624,-1.239627 -0.68025,-1.830506 l -0.9045,-2.200823 z M 164,40 c -0.66843,-0.113812 -1.34855,0.296915 -1.5542,1.134215 -0.2062,0.839543 0.22663,1.445811 0.89728,1.562836 0.672,0.117263 1.35649,-0.296006 1.56015,-1.139234 C 165.10635,40.71685 164.66978,40.114041 164,40 Z m 21.75466,3.704096 c -0.71287,-0.121379 -1.41589,0.302661 -1.59831,1.172497 -0.18292,0.872242 0.30123,1.504864 1.01667,1.629706 0.71693,0.125102 1.42462,-0.301648 1.6046,-1.177861 0.17949,-0.873786 -0.3086,-1.502711 -1.02296,-1.624342 z m 23.225,3.954446 c -0.7619,-0.129726 -1.48941,0.308518 -1.64493,1.213447 -0.15597,0.907518 0.38559,1.568733 1.15046,1.7022 0.76652,0.133755 1.49903,-0.307385 1.65159,-1.219192 0.15213,-0.909197 -0.39358,-1.566451 -1.15712,-1.696455 z m -47.75925,3.753321 c -2.68407,-0.505198 -4.93644,1.469731 -6.02551,5.8131 -1.09879,4.382156 -0.0192,7.233625 2.70831,7.805976 2.75025,0.577129 5.09188,-1.592078 6.14442,-6.045946 1.04305,-4.413638 -0.12121,-7.063803 -2.82722,-7.57313 z m 22.07206,4.154424 c -2.86565,-0.539376 -5.17084,1.505343 -6.14282,6.023544 -0.98111,4.56062 0.28442,7.539579 3.20056,8.15152 2.94133,0.617226 5.33336,-1.63235 6.26065,-6.270518 0.91848,-4.594128 -0.42852,-7.360612 -3.31839,-7.904546 z m 23.59298,4.440691 c -3.0663,-0.577141 -5.4229,1.54312 -6.25876,6.250371 -0.84412,4.753755 0.62765,7.870648 3.75271,8.52643 3.153,0.661644 5.59682,-1.67444 6.37826,-6.51227 0.77364,-4.789501 -0.77912,-7.682346 -3.87221,-8.264531 z m -12.06721,-2.004166 c -0.9918,0.345241 -2.02779,0.481028 -3.68651,0.409764 l -0.25823,1.327825 2.9482,0.566623 -1.8443,9.720095 -3.77876,-0.781209 -0.35082,1.792257 9.33165,1.95446 0.32973,-1.821885 -3.43679,-0.710509 2.26879,-12.170183 z m 24.42263,4.606229 c -1.03893,0.355031 -2.13593,0.490906 -3.90203,0.407778 l -0.21562,1.384208 3.15903,0.607143 -1.52898,10.141019 -4.05129,-0.837549 -0.29387,1.87054 10.01213,2.096985 0.26929,-1.902737 -3.68662,-0.762157 1.86987,-12.697444 z m -58.40489,-9.618875 c 1.55194,0.295979 2.34558,1.963184 1.46444,5.64746 -0.89133,3.726905 -2.4224,5.061818 -3.9936,4.73626 -1.56376,-0.324015 -2.317,-2.118721 -1.402,-5.80897 0.90462,-3.64838 2.38647,-4.869348 3.93116,-4.57475 z m 22.11573,4.217821 c 1.65757,0.316124 2.56794,2.056592 1.78981,5.8912 -0.78743,3.880487 -2.35312,5.264479 -4.03309,4.916383 -1.67174,-0.346388 -2.54564,-2.221422 -1.73068,-6.062291 0.80541,-3.795837 2.3244,-5.05989 3.97396,-4.745292 z m 23.64369,4.509228 c 1.77434,0.338395 2.81958,2.15914 2.16127,6.156472 -0.66647,4.046844 -2.27153,5.482899 -4.07196,5.109845 -1.79128,-0.371159 -2.80122,-2.333564 -2.10268,-6.337438 0.69006,-3.955311 2.24789,-5.265585 4.01337,-4.928879 z m -39.73355,-5.817746 2.15786,5.545043 -4.79945,4.644996 2.05634,0.430689 1.92107,-1.92232 c 0.51877,-0.560637 1.03195,-1.099043 1.52539,-1.641577 l 0.0801,0.01627 c 0.27986,0.678156 0.55998,1.44676 0.80199,2.121177 l 1.05424,2.553848 2.16148,0.45271 -2.4689,-5.965698 4.5033,-4.496236 -2.07516,-0.401236 -1.73968,1.822572 c -0.44156,0.504318 -0.95659,1.060056 -1.41856,1.561312 l -0.08,-0.01594 c -0.2251,-0.637513 -0.47785,-1.322737 -0.68209,-1.952696 l -0.90842,-2.348895 z m -6.89956,0.677728 c -0.68196,-0.133934 -1.37996,0.287159 -1.59665,1.169405 -0.21728,0.884672 0.22012,1.53533 0.90437,1.672803 0.68568,0.137759 1.38828,-0.286006 1.60293,-1.174736 0.21406,-0.886283 -0.22728,-1.53326 -0.91065,-1.667472 z m 22.21476,4.362915 c -0.72856,-0.143087 -1.4507,0.292011 -1.64325,1.210129 -0.19309,0.920729 0.298,1.601129 1.02924,1.748041 0.7328,0.147227 1.45987,-0.290725 1.64989,-1.215839 0.18949,-0.922481 -0.30576,-1.598938 -1.03588,-1.742331 z m 23.7588,4.666159 c -0.78011,-0.153211 -1.52812,0.296855 -1.69258,1.253786 -0.16495,0.959746 0.38639,1.672525 1.16961,1.829881 0.78496,0.157705 1.53825,-0.295415 1.69963,-1.259915 0.1609,-0.961659 -0.39483,-1.670203 -1.17666,-1.823752 z m -27.52282,7.471137 -7.57847,13.744276 2.10592,0.501737 2.07256,-4.031935 4.74957,1.099784 0.29628,4.628128 2.24917,0.53587 -1.50959,-15.96414 z m 9.36553,2.016927 -2.93239,15.065643 2.15092,0.51246 1.26591,-6.617015 5.68005,1.296246 0.36193,-1.98345 -5.66634,-1.276276 0.88766,-4.639852 6.65114,1.451458 0.34829,-1.925455 z m 14.68765,3.16308 -7.4596,14.323303 2.26049,0.53857 2.03073,-4.20454 5.09652,1.18012 0.51744,4.84578 2.41853,0.57622 -2.30459,-16.708244 z m 10.04555,2.163375 -2.45547,15.745548 2.31417,0.55136 1.0548,-6.91998 6.10432,1.39307 0.2968,-2.07417 -6.08827,-1.371315 0.73902,-4.848271 7.14124,1.55841 0.28456,-2.012203 z M 157.03202,68.607698 c -2.73879,-0.590377 -5.05634,1.45609 -6.20502,6.037218 -1.15937,4.623745 -0.08,7.672738 2.70383,8.337191 2.8077,0.670154 5.22017,-1.584368 6.33157,-6.287243 1.10093,-4.658627 -0.0686,-7.491834 -2.83038,-8.087166 z m 22.11964,6.485599 0.0839,0.0183 c 0.0496,1.739534 0.16486,3.48125 0.27088,5.183859 l 0.14363,2.175322 -3.76184,-0.860597 0.98595,-1.90862 c 0.76819,-1.501028 1.54212,-3.042125 2.2775,-4.608256 z m 24.18918,5.275356 0.0881,0.01922 c 0.12856,1.818459 0.32888,3.640403 0.5159,5.421404 l 0.2477,2.276101 -4.03911,-0.924031 0.96521,-1.98972 c 0.75133,-1.564629 1.50872,-3.170512 2.22215,-4.802979 z M 156.62652,70.27248 c 1.5839,0.345649 2.38203,2.129342 1.45208,6.017682 -0.941,3.934577 -2.51728,5.318805 -4.12117,4.940522 -1.59608,-0.376441 -2.3513,-2.2958 -1.38575,-6.189931 0.9543,-3.848749 2.47853,-5.112266 4.05484,-4.768273 z m 6.13756,3.208528 2.16473,5.926565 -4.94549,4.828783 2.10031,0.500405 1.98021,-2.00003 c 0.53503,-0.584145 1.06416,-1.1448 1.57311,-1.710238 l 0.0819,0.01895 c 0.28123,0.725574 0.56207,1.547217 0.80465,2.268159 l 1.05981,2.733465 2.20909,0.52632 -2.48258,-6.38482 4.64091,-4.676908 -2.12033,-0.468687 -1.7933,1.897317 c -0.4555,0.525855 -0.98657,1.10475 -1.46295,1.626955 l -0.0817,-0.01858 c -0.2255,-0.681076 -0.47891,-1.413289 -0.68309,-2.085808 l -0.91141,-2.510173 z m -7.05932,0.575865 c -0.69599,-0.156109 -1.41284,0.275885 -1.64148,1.206797 -0.22928,0.933542 0.21254,1.632598 0.91091,1.79261 0.69986,0.160354 1.42156,-0.274453 1.64811,-1.212471 0.22592,-0.935365 -0.22008,-1.630496 -0.91754,-1.786936 z"
       style="font-weight:500;font-size:24px;line-height:0.83;font-family:'Source Code Pro';-inkscape-font-specification:'Source Code Pro Medium';letter-spacing:-0.8px;fill:#8a6f5e;fill-opacity:1;stroke-width:1.9;stroke-linecap:round;stroke-linejoin:round" />
    <path
       id="path18"
       d="m -112,-103.99999 h 96 V 8 h -96 z"
       style="fill:#000000;fill-opacity:0.2;stroke-width:1.9;stroke-linecap:square;stroke-linejoin:round;stroke-opacity:0.05" />
    <text
       xml:space="preserve"
       style="font-weight:500;font-size:21.8108px;line-height:0.85;font-family:'Source Code Pro';-inkscape-font-specification:'Source Code Pro Medium';letter-spacing:-0.991401px;fill:#000000;fill-opacity:0.2;stroke-width:1.90283;stroke-linecap:round;stroke-linejoin:round"
       x="-100.81355"
       y="-78.444611"
       id="text22"
       transform="scale(1.00652,0.99352221)"><tspan
         sodipodi:role="line"
         id="tspan18"
         x="-100.81355"
         y="-78.444611"
         style="font-size:21.8108px;line-height:0.85;letter-spacing:-0.991401px;stroke-width:1.90283">0x0101</tspan><tspan
         sodipodi:role="line"
         x="-100.81355"
         y="-59.905426"
         style="font-size:21.8108px;line-height:0.85;letter-spacing:-0.991401px;stroke-width:1.90283"
         id="tspan19">0x1010</tspan><tspan
         sodipodi:role="line"
         x="-100.81355"
         y="-41.366245"
         id="tspan20"
         style="font-size:21.8108px;line-height:0.85;letter-spacing:-0.991401px;stroke-width:1.90283">0xA1A1</tspan><tspan
         sodipodi:role="line"
         x="-100.81355"
         y="-22.827063"
         id="tspan21"
         style="font-size:21.8108px;line-height:0.85;letter-spacing:-0.991401px;stroke-width:1.90283">0x0A0A</tspan><tspan
         sodipodi:role="line"
         x="-100.81355"
         y="-4.2878857"
         id="tspan22"
         style="font-size:21.8108px;line-height:0.85;letter-spacing:-0.991401px;stroke-width:1.90283">0xF0F0</tspan></text>
  </g>
</svg>
