<?xml version="1.0" encoding="UTF-8" standalone="no"?>
<svg
   width="128"
   height="128"
   viewBox="0 0 33.866666 33.866668"
   version="1.1"
   id="svg958"
   inkscape:version="1.3 (0e150ed6c4, 2023-07-21)"
   sodipodi:docname="javascript.svg"
   xmlns:inkscape="http://www.inkscape.org/namespaces/inkscape"
   xmlns:sodipodi="http://sodipodi.sourceforge.net/DTD/sodipodi-0.dtd"
   xmlns:xlink="http://www.w3.org/1999/xlink"
   xmlns="http://www.w3.org/2000/svg"
   xmlns:svg="http://www.w3.org/2000/svg"
   xmlns:rdf="http://www.w3.org/1999/02/22-rdf-syntax-ns#"
   xmlns:cc="http://creativecommons.org/ns#"
   xmlns:dc="http://purl.org/dc/elements/1.1/">
  <defs
     id="defs952">
    <linearGradient
       id="linearGradient24"
       inkscape:collect="always">
      <stop
         style="stop-color:#f7df1e;stop-opacity:1;"
         offset="0"
         id="stop23" />
      <stop
         style="stop-color:#e0a71b;stop-opacity:1;"
         offset="1"
         id="stop24" />
    </linearGradient>
    <inkscape:path-effect
       effect="perspective-envelope"
       up_left_point="9.8057889,2.4466498"
       up_right_point="30.006189,4.613095"
       down_left_point="3.5901115,26.275215"
       down_right_point="26.489592,32.036664"
       id="path-effect18"
       is_visible="true"
       lpeversion="1"
       deform_type="perspective"
       horizontal_mirror="false"
       vertical_mirror="false"
       overflow_perspective="false" />
    <linearGradient
       id="linearGradient1617"
       inkscape:collect="always">
      <stop
         id="stop1613"
         offset="0"
         style="stop-color:#ffffe8;stop-opacity:1" />
      <stop
         id="stop1615"
         offset="1"
         style="stop-color:#ffe896;stop-opacity:1" />
    </linearGradient>
    <linearGradient
       inkscape:collect="always"
       id="linearGradient7089">
      <stop
         style="stop-color:#aa8a34;stop-opacity:0.34999999;"
         offset="0"
         id="stop7085" />
      <stop
         style="stop-color:#caa22c;stop-opacity:0.35051546;"
         offset="1"
         id="stop7087" />
    </linearGradient>
    <linearGradient
       inkscape:collect="always"
       xlink:href="#linearGradient7089"
       id="linearGradient17"
       gradientUnits="userSpaceOnUse"
       gradientTransform="translate(0.077382,0.2175565)"
       x1="7.8637094"
       y1="15.388992"
       x2="25.874912"
       y2="15.388992" />
    <linearGradient
       inkscape:collect="always"
       xlink:href="#linearGradient1617"
       id="linearGradient18"
       gradientUnits="userSpaceOnUse"
       gradientTransform="matrix(0.9789725,0,0,0.9789725,0.481874,0.3732345)"
       x1="10.583333"
       y1="3.175"
       x2="25.4"
       y2="30.691668" />
    <linearGradient
       inkscape:collect="always"
       xlink:href="#linearGradient24"
       id="linearGradient22"
       x1="69.420647"
       y1="6.9161458"
       x2="84.237312"
       y2="21.732813"
       gradientUnits="userSpaceOnUse"
       gradientTransform="translate(-64.128981,-0.5661455)" />
  </defs>
  <sodipodi:namedview
     inkscape:bbox-nodes="true"
     inkscape:snap-bbox-edge-midpoints="false"
     inkscape:bbox-paths="false"
     inkscape:snap-bbox="true"
     inkscape:snap-grids="false"
     units="px"
     showgrid="false"
     inkscape:document-rotation="0"
     inkscape:current-layer="layer1"
     inkscape:document-units="px"
     inkscape:cy="53.65682"
     inkscape:cx="124.81295"
     inkscape:zoom="4.3144562"
     inkscape:pageshadow="2"
     inkscape:pageopacity="0.0"
     borderopacity="1.0"
     bordercolor="#666666"
     pagecolor="#ffffff"
     id="base"
     inkscape:pagecheckerboard="0"
     showguides="false"
     inkscape:guide-bbox="true"
     guidetolerance="10000"
     inkscape:snap-tangential="true"
     inkscape:snap-perpendicular="true"
     inkscape:window-width="1920"
     inkscape:window-height="1011"
     inkscape:window-x="0"
     inkscape:window-y="0"
     inkscape:window-maximized="1"
     inkscape:snap-to-guides="false"
     inkscape:snap-intersection-paths="false"
     inkscape:snap-bbox-midpoints="false"
     inkscape:snap-nodes="true"
     inkscape:object-paths="false"
     inkscape:showpageshadow="2"
     inkscape:deskcolor="#d1d1d1">
    <inkscape:grid
       id="grid1521"
       type="xygrid"
       empcolor="#ff2624"
       empopacity="0.2"
       originx="0"
       originy="0"
       spacingy="0.26458334"
       spacingx="0.26458334"
       units="px"
       visible="false"
       empspacing="4" />
    <sodipodi:guide
       position="3.9687504,12.170833"
       orientation="0,-1"
       id="guide846"
       inkscape:locked="false" />
    <sodipodi:guide
       position="4.7625004,13.758333"
       orientation="1,0"
       id="guide848"
       inkscape:locked="false" />
    <sodipodi:guide
       position="3.9687504,28.045833"
       orientation="0,-1"
       id="guide1"
       inkscape:locked="false" />
    <sodipodi:guide
       position="20.637502,23.547917"
       orientation="1,0"
       id="guide2"
       inkscape:locked="false" />
  </sodipodi:namedview>
  <metadata
     id="metadata955">
    <rdf:RDF>
      <cc:Work
         rdf:about="">
        <dc:format>image/svg+xml</dc:format>
        <dc:type
           rdf:resource="http://purl.org/dc/dcmitype/StillImage" />
      </cc:Work>
    </rdf:RDF>
  </metadata>
  <g
     id="layer1"
     inkscape:groupmode="layer"
     inkscape:label="Layer 1">
    <g
       id="text8"
       style="font-size:1.05833px;line-height:1.15;font-family:Georgia;-inkscape-font-specification:Georgia;stroke-width:0.264583"
       aria-label="&lt;?xml version=&quot;1.0&quot; encoding=&quot;UTF-8&quot;?&gt;&#10;&#10;&lt;mesage&gt;&#10;  &lt;sender&gt;Ronald&lt;/sender&gt;&#10;  &lt;title&gt;Hello&lt;/title&gt;&#10;  &lt;body&gt;&#10;    Don't forget the presentation!&#10;  &lt;/body&gt;&#10;&lt;/mesage&gt;&#10;&#10;&lt;mesage&gt;&#10;  &lt;sender&gt;Edward&lt;/sender&gt;&#10;  &lt;title&gt;Good morning&lt;/title&gt;&#10;  &lt;body&gt;&#10;    The meeting is at 10!&#10;  &lt;/body&gt;&#10;&lt;/mesage&gt;" />
    <path
       style="fill:#000000;fill-opacity:0.196078;stroke:none;stroke-width:0.725255;stroke-miterlimit:4;stroke-dasharray:none;stroke-opacity:1;paint-order:markers stroke fill"
       d="M 26.49039,32.035407 32.706865,22.710694 26.49039,20.638537 Z"
       id="path1768"
       inkscape:connector-curvature="0"
       sodipodi:nodetypes="cccc" />
    <path
       style="fill:none;stroke:#4d3e2e;stroke-width:0.238125;stroke-linecap:butt;stroke-linejoin:miter;stroke-miterlimit:4;stroke-dasharray:none;stroke-opacity:1"
       d="M 9.8065869,2.4453923 30.006987,4.6118375 26.49039,32.035407 3.5901115,26.275215 Z"
       id="path1553"
       sodipodi:nodetypes="ccccc" />
    <g
       id="text1"
       style="font-weight:bold;font-size:7.39186px;line-height:0.83;font-family:'Liberation Mono';-inkscape-font-specification:'Liberation Mono Bold';letter-spacing:0.659987px;stroke-width:0.263994"
       transform="scale(1.005984,0.99405155)"
       aria-label="0101&#10;1010&#10;1100&#10;0011" />
    <path
       sodipodi:nodetypes="ccccc"
       id="path14"
       d="m 9.806587,2.4453925 20.2004,2.166445 L 26.49039,32.035406 3.590112,26.275213 Z"
       style="fill:url(#linearGradient18);fill-opacity:1;stroke:none;stroke-width:0.440334;stroke-linecap:butt;stroke-linejoin:miter;stroke-miterlimit:4;stroke-dasharray:none;stroke-opacity:1" />
    <path
       id="path15"
       style="color:#000000;fill:url(#linearGradient17);-inkscape-stroke:none"
       d="m 12.302996,5.7090645 -0.169255,0.703947 13.701995,1.739258 0.116559,-0.766159 z m -0.420389,1.748431 -0.173138,0.720094 13.833739,1.8975185 0.119436,-0.7850765 z m -0.430212,1.789285 -0.176674,0.734804 13.967904,2.0627275 0.12209,-0.802515 z m -0.439698,1.8287425 -0.180721,0.751631 14.104617,2.235327 0.12511,-0.822363 z m -0.449803,1.870763 -0.184806,0.768622 14.243883,2.415634 0.128172,-0.842495 z m -0.460156,1.913824 -0.189549,0.78835 14.385926,2.604268 0.131709,-0.865744 z m -0.47108,1.959258 -0.194044,0.807046 14.530598,2.80139 0.135092,-0.887982 z m -0.482184,2.005444 -0.198809,0.826857 14.678068,3.007588 0.138681,-0.911578 z m -0.493906,2.054187 -0.203526,0.846484 14.828374,3.223316 0.14226,-0.935101 z m -0.506283,2.105674 -0.208194,0.865891 7.181828,1.653466 0.179876,-0.909943 z" />
    <path
       id="rect15"
       style="fill-opacity:0.2;stroke-width:0.0251984"
       inkscape:transform-center-x="-9.195243"
       inkscape:transform-center-y="-6.438579"
       d="m 8.562216,6.2445325 13.549317,2.38911 c 0.577408,0.101813 0.960288,0.648622 0.858476,1.22603 l -2.38911,13.5493155 c -0.101813,0.577409 -0.648623,0.960288 -1.22603,0.858476 L 5.805552,21.878353 C 5.228144,21.776541 4.845264,21.229732 4.947077,20.652324 L 7.336187,7.1030085 C 7.438,6.5256005 7.984809,6.1427205 8.562216,6.2445325 Z"
       sodipodi:nodetypes="ccccccccc" />
    <path
       id="rect16"
       style="fill:url(#linearGradient22);stroke-width:0.0251984"
       d="m 5.821627,5.8195785 h 13.758338 c 0.586315,0 1.05833,0.472016 1.05833,1.058331 V 20.636245 c 0,0.586316 -0.472015,1.058331 -1.05833,1.058331 H 5.821627 c -0.586315,0 -1.05833,-0.472015 -1.05833,-1.058331 V 6.8779095 c 0,-0.586315 0.472015,-1.058331 1.05833,-1.058331 z"
       sodipodi:nodetypes="ccccccccc" />
    <path
       d="m 15.427266,18.221983 c 0.319767,0.522111 0.735793,0.905883 1.471587,0.905883 0.618117,0 1.012976,-0.308933 1.012976,-0.735794 0,-0.511527 -0.405695,-0.692703 -1.086052,-0.990296 l -0.372936,-0.16001 c -1.076476,-0.458611 -1.791607,-1.033135 -1.791607,-2.247697 0,-1.11881 0.852462,-1.970516 2.184702,-1.970516 0.948468,0 1.630337,0.330099 2.121706,1.194405 l -1.161647,0.745872 c -0.255763,-0.45861 -0.531686,-0.639284 -0.960059,-0.639284 -0.43694,0 -0.713871,0.277184 -0.713871,0.639284 0,0.447524 0.277183,0.628701 0.917222,0.905884 l 0.372937,0.159755 c 1.26748,0.543531 1.983114,1.097644 1.983114,2.343454 0,1.343074 -1.055057,2.078868 -2.471964,2.078868 -1.385408,0 -2.280456,-0.660199 -2.718404,-1.525512 z m -5.269744,0.129268 c 0.234345,0.415774 0.447524,0.767292 0.960059,0.767292 0.49011,0 0.799294,-0.191759 0.799294,-0.93738 v -5.072439 h 1.491746 v 5.092597 c 0,1.544662 -0.905631,2.247699 -2.22754,2.247699 -1.194404,0 -1.8861,-0.618118 -2.23787,-1.362605 z"
       id="path16"
       style="stroke-width:0.0251984" />
    <path
       id="rect17"
       style="fill:none;stroke:#000000;stroke-width:0.238125"
       d="m 5.821627,5.8195785 h 13.758338 c 0.586315,0 1.05833,0.472016 1.05833,1.058331 V 20.636245 c 0,0.586316 -0.472015,1.058331 -1.05833,1.058331 H 5.821627 c -0.586315,0 -1.05833,-0.472015 -1.05833,-1.058331 V 6.8779095 c 0,-0.586315 0.472015,-1.058331 1.05833,-1.058331 z"
       sodipodi:nodetypes="ccccccccc" />
  </g>
</svg>
