<?xml version="1.0" encoding="UTF-8" standalone="no"?>
<svg
   viewBox="0 0 24 24"
   width="24"
   height="24"
   version="1.1"
   id="svg1"
   sodipodi:docname="video-display-brightness-symbolic.svg"
   inkscape:version="1.3.2 (091e20ef0f, 2023-11-25)"
   xmlns:inkscape="http://www.inkscape.org/namespaces/inkscape"
   xmlns:sodipodi="http://sodipodi.sourceforge.net/DTD/sodipodi-0.dtd"
   xmlns="http://www.w3.org/2000/svg"
   xmlns:svg="http://www.w3.org/2000/svg">
  <sodipodi:namedview
     id="namedview1"
     pagecolor="#999999"
     bordercolor="#000000"
     borderopacity="0.25"
     inkscape:showpageshadow="2"
     inkscape:pageopacity="0.0"
     inkscape:pagecheckerboard="true"
     inkscape:deskcolor="#999999"
     inkscape:zoom="48.790368"
     inkscape:cx="12.850897"
     inkscape:cy="11.580155"
     inkscape:window-width="1920"
     inkscape:window-height="1094"
     inkscape:window-x="0"
     inkscape:window-y="0"
     inkscape:window-maximized="1"
     inkscape:current-layer="svg1" />
  <defs
     id="defs3051">
    <style
       type="text/css"
       id="current-color-scheme">.ColorScheme-Text { color: #fcfcfc; } </style>
  </defs>
  <g
     id="g1"
     inkscape:label="22-22-video-display-brightness">
    <path
       id="path3"
       style="fill:#fcfcfc;fill-opacity:1;stroke:none"
       d="m 12,8.375 c -1.44975,0 -2.625,1.175249 -2.625,2.625 0,1.449745 1.175249,2.625 2.625,2.625 1.449751,0 2.625,-1.175255 2.625,-2.625 0,-1.449751 -1.175249,-2.625 -2.625,-2.625 z m 0,0.75 v 3.75 c -1.035536,0 -1.875,-0.839464 -1.875,-1.875 0,-1.035536 0.839464,-1.875 1.875,-1.875 z" />
    <path
       id="path1"
       style="fill:#fcfcfc;fill-opacity:1;stroke:none"
       d="M 3 5 L 3 17 L 4 17 L 11 17 L 11 18 L 8 18 L 8 19 L 16 19 L 16 18 L 13 18 L 13 17 L 20 17 L 21 17 L 21 5 L 20 5 L 4 5 L 3 5 z M 4 6 L 20 6 L 20 16 L 4 16 L 4 6 z " />
  </g>
</svg>
