<?xml version="1.0" encoding="UTF-8" standalone="no"?>
<!-- Created with Inkscape (http://www.inkscape.org/) -->

<svg
   width="128"
   height="128"
   viewBox="0 0 33.866666 33.866666"
   version="1.1"
   id="svg5"
   xml:space="preserve"
   inkscape:version="1.3 (0e150ed6c4, 2023-07-21)"
   sodipodi:docname="certificate-server.svg"
   xmlns:inkscape="http://www.inkscape.org/namespaces/inkscape"
   xmlns:sodipodi="http://sodipodi.sourceforge.net/DTD/sodipodi-0.dtd"
   xmlns:xlink="http://www.w3.org/1999/xlink"
   xmlns="http://www.w3.org/2000/svg"
   xmlns:svg="http://www.w3.org/2000/svg"><sodipodi:namedview
     id="namedview7"
     pagecolor="#ffffff"
     bordercolor="#000000"
     borderopacity="0.10196078"
     inkscape:showpageshadow="true"
     inkscape:pageopacity="0"
     inkscape:pagecheckerboard="false"
     inkscape:deskcolor="#dbdbdb"
     inkscape:document-units="px"
     showgrid="false"
     borderlayer="true"
     inkscape:zoom="12.890625"
     inkscape:cx="52.014545"
     inkscape:cy="60.237576"
     inkscape:window-width="1920"
     inkscape:window-height="1093"
     inkscape:window-x="0"
     inkscape:window-y="0"
     inkscape:window-maximized="1"
     inkscape:current-layer="layer1"
     showguides="false"><inkscape:grid
       type="xygrid"
       id="grid16"
       originx="0"
       originy="0"
       spacingy="0.26458333"
       spacingx="0.26458333"
       units="px"
       visible="false"
       empcolor="#cc3d3d"
       empopacity="0.30196078"
       empspacing="4" /><sodipodi:guide
       position="6.8791663,18.785417"
       orientation="1,0"
       id="guide182"
       inkscape:locked="false" /><sodipodi:guide
       position="19.579166,18.785417"
       orientation="1,0"
       id="guide184"
       inkscape:locked="false" /><sodipodi:guide
       position="14.287499,4.7625009"
       orientation="0,-1"
       id="guide186"
       inkscape:locked="false" /><sodipodi:guide
       position="10.847916,17.4625"
       orientation="0,-1"
       id="guide188"
       inkscape:locked="false" /></sodipodi:namedview><defs
     id="defs2"><inkscape:path-effect
       effect="perspective-envelope"
       up_left_point="1.9896238,6.1765724"
       up_right_point="27.218606,7.5797374"
       down_left_point="2.0831681,31.10885"
       down_right_point="28.574999,31.576572"
       id="path-effect2835"
       is_visible="true"
       lpeversion="1"
       deform_type="perspective"
       horizontal_mirror="false"
       vertical_mirror="false"
       overflow_perspective="false" /><inkscape:path-effect
       effect="perspective-envelope"
       up_left_point="4.8239449,3.6495202"
       up_right_point="32.914643,2.1060387"
       down_left_point="5.2916666,31.56785"
       down_right_point="31.605022,31.56785"
       id="path-effect2833"
       is_visible="true"
       lpeversion="1"
       deform_type="perspective"
       horizontal_mirror="false"
       vertical_mirror="false"
       overflow_perspective="false" /><inkscape:path-effect
       effect="perspective-envelope"
       up_left_point="6.333243,3.4019982"
       up_right_point="31.732065,3.4019982"
       down_left_point="5.4567911,31.749999"
       down_right_point="31.732065,31.749999"
       id="path-effect13169"
       is_visible="true"
       lpeversion="1"
       deform_type="perspective"
       horizontal_mirror="false"
       vertical_mirror="false"
       overflow_perspective="false" /><inkscape:path-effect
       effect="perspective-envelope"
       up_left_point="5.4567911,3.4019982"
       up_right_point="31.732065,3.4019982"
       down_left_point="5.4567911,31.749999"
       down_right_point="31.732065,31.749999"
       id="path-effect13167"
       is_visible="true"
       lpeversion="1"
       deform_type="perspective"
       horizontal_mirror="false"
       vertical_mirror="false"
       overflow_perspective="false" /><inkscape:path-effect
       effect="perspective-envelope"
       up_left_point="5.539493,3.4019982"
       up_right_point="31.732065,3.6087959"
       down_left_point="4.7624999,31.749999"
       down_right_point="31.732065,31.749999"
       id="path-effect13165"
       is_visible="true"
       lpeversion="1"
       deform_type="perspective"
       horizontal_mirror="false"
       vertical_mirror="false"
       overflow_perspective="false" /><inkscape:path-effect
       effect="perspective-envelope"
       up_left_point="5.539493,3.4019982"
       up_right_point="31.732065,3.6087959"
       down_left_point="4.7624999,31.749999"
       down_right_point="31.732065,31.749999"
       id="path-effect13163"
       is_visible="true"
       lpeversion="1"
       deform_type="perspective"
       horizontal_mirror="false"
       vertical_mirror="false"
       overflow_perspective="false" /><inkscape:path-effect
       effect="perspective-envelope"
       up_left_point="2.1166666,6.3499999"
       up_right_point="28.574999,5.2916666"
       down_left_point="3.0219846,31.749999"
       down_right_point="29.08424,31.749999"
       id="path-effect12133"
       is_visible="true"
       lpeversion="1"
       deform_type="perspective"
       horizontal_mirror="false"
       vertical_mirror="false"
       overflow_perspective="false" /><inkscape:path-effect
       effect="perspective-envelope"
       up_left_point="4.7624999,3.4395833"
       up_right_point="31.749999,3.9687499"
       down_left_point="4.7624999,31.749999"
       down_right_point="31.608553,31.749999"
       id="path-effect12131"
       is_visible="true"
       lpeversion="1"
       deform_type="perspective"
       horizontal_mirror="false"
       vertical_mirror="false"
       overflow_perspective="false" /><inkscape:path-effect
       effect="perspective-envelope"
       up_left_point="2.1166666,6.3499999"
       up_right_point="28.574999,8.4666665"
       down_left_point="1.0583333,31.749999"
       down_right_point="28.574999,31.749999"
       id="path-effect12129"
       is_visible="true"
       lpeversion="1"
       deform_type="perspective"
       horizontal_mirror="false"
       vertical_mirror="false"
       overflow_perspective="false" /><inkscape:path-effect
       effect="perspective-envelope"
       up_left_point="3.1749999,3.1749999"
       up_right_point="31.749999,4.2333332"
       down_left_point="3.1749999,31.749999"
       down_right_point="30.516433,31.749999"
       id="path-effect12105"
       is_visible="true"
       lpeversion="1"
       deform_type="perspective"
       horizontal_mirror="false"
       vertical_mirror="false"
       overflow_perspective="false" /><inkscape:path-effect
       effect="perspective-envelope"
       up_left_point="1.0583333,8.4666665"
       up_right_point="28.574999,7.4083333"
       down_left_point="1.0583338,31.749999"
       down_right_point="28.574999,31.749999"
       id="path-effect12103"
       is_visible="true"
       lpeversion="1"
       deform_type="perspective"
       horizontal_mirror="false"
       vertical_mirror="false"
       overflow_perspective="false" /><inkscape:path-effect
       effect="perspective-envelope"
       up_left_point="1.0583333,7.4083332"
       up_right_point="26.458333,11.641666"
       down_left_point="3.1749999,27.516666"
       down_right_point="28.574999,31.749999"
       id="path-effect12101"
       is_visible="true"
       lpeversion="1"
       deform_type="perspective"
       horizontal_mirror="false"
       vertical_mirror="false"
       overflow_perspective="false" /><inkscape:path-effect
       effect="perspective-envelope"
       up_left_point="5.2916666,3.1749999"
       up_right_point="30.691666,5.2916666"
       down_left_point="3.1749999,27.516666"
       down_right_point="28.574999,31.749999"
       id="path-effect12099"
       is_visible="true"
       lpeversion="1"
       deform_type="perspective"
       horizontal_mirror="false"
       vertical_mirror="false"
       overflow_perspective="false" /><inkscape:path-effect
       effect="perspective-envelope"
       up_left_point="4.2333332,8.4666665"
       up_right_point="27.516666,8.4666665"
       down_left_point="2.6458333,32.279166"
       down_right_point="27.516666,31.75"
       id="path-effect12087"
       is_visible="true"
       lpeversion="1"
       deform_type="perspective"
       horizontal_mirror="false"
       vertical_mirror="false"
       overflow_perspective="false" /><inkscape:path-effect
       effect="perspective-envelope"
       up_left_point="6.8791665,5.5562499"
       up_right_point="30.691666,5.2916666"
       down_left_point="6.8791665,31.749999"
       down_right_point="29.633333,31.749999"
       id="path-effect12085"
       is_visible="true"
       lpeversion="1"
       deform_type="perspective"
       horizontal_mirror="false"
       vertical_mirror="false"
       overflow_perspective="false" /><linearGradient
       inkscape:collect="always"
       id="linearGradient935"><stop
         style="stop-color:#000000;stop-opacity:1;"
         offset="0"
         id="stop931" /><stop
         style="stop-color:#000000;stop-opacity:0;"
         offset="1"
         id="stop933" /></linearGradient><linearGradient
       id="linearGradient4381"
       inkscape:collect="always"><stop
         id="stop4377"
         offset="0"
         style="stop-color:#fafafa;stop-opacity:0" /><stop
         id="stop4379"
         offset="1"
         style="stop-color:#252525;stop-opacity:0.65022421" /></linearGradient><linearGradient
       inkscape:collect="always"
       id="linearGradient4365"><stop
         style="stop-color:#e1bf8d;stop-opacity:1"
         offset="0"
         id="stop4361" /><stop
         style="stop-color:#6a4504;stop-opacity:1"
         offset="1"
         id="stop4363" /></linearGradient><linearGradient
       inkscape:collect="always"
       id="linearGradient4406"><stop
         style="stop-color:#cccccc;stop-opacity:1;"
         offset="0"
         id="stop4402" /><stop
         style="stop-color:#949494;stop-opacity:1;"
         offset="0.31521663"
         id="stop2" /><stop
         style="stop-color:#666666;stop-opacity:1;"
         offset="0.70005435"
         id="stop3" /><stop
         style="stop-color:#4d4d4d;stop-opacity:1;"
         offset="1"
         id="stop4404" /></linearGradient><linearGradient
       inkscape:collect="always"
       xlink:href="#linearGradient4381"
       id="linearGradient4385"
       gradientUnits="userSpaceOnUse"
       gradientTransform="matrix(4,0,0,4,-32.918811,-875.69414)"
       x1="13.6755"
       y1="290.15854"
       x2="13.042861"
       y2="291.61517" /><linearGradient
       inkscape:collect="always"
       xlink:href="#linearGradient4406"
       id="linearGradient1113"
       gradientUnits="userSpaceOnUse"
       x1="6.0194192"
       y1="273.93912"
       x2="27.019419"
       y2="296.93912"
       gradientTransform="translate(-0.99434467,-262.96315)" /><linearGradient
       inkscape:collect="always"
       xlink:href="#linearGradient4365"
       id="linearGradient1121"
       x1="26.882687"
       y1="269.4577"
       x2="27.600334"
       y2="288.55664"
       gradientUnits="userSpaceOnUse"
       gradientTransform="translate(-0.99434467,-262.96315)" /><linearGradient
       id="linearGradient4537"
       inkscape:collect="always"><stop
         id="stop4533"
         offset="0"
         style="stop-color:#ffffff;stop-opacity:1;" /><stop
         style="stop-color:#ffffff;stop-opacity:1"
         offset="0.58333331"
         id="stop4541" /><stop
         id="stop4543"
         offset="0.83333331"
         style="stop-color:#bababa;stop-opacity:1;" /><stop
         id="stop4535"
         offset="1"
         style="stop-color:#757575;stop-opacity:1" /></linearGradient><linearGradient
       gradientTransform="matrix(4,0,0,4,5.2916666,-893.11669)"
       gradientUnits="userSpaceOnUse"
       y2="295.41251"
       x2="5.0270834"
       y1="292.50208"
       x1="0.79374999"
       id="linearGradient4539"
       xlink:href="#linearGradient4537"
       inkscape:collect="always" /><linearGradient
       id="linearGradient4454"><stop
         id="stop1334"
         offset="0"
         style="stop-color:#d21e1e;stop-opacity:1" /><stop
         id="stop1336"
         offset="1"
         style="stop-color:#e05e4c;stop-opacity:1" /></linearGradient><linearGradient
       gradientTransform="translate(-384.57001,-499.79999)"
       gradientUnits="userSpaceOnUse"
       y2="525.725"
       x2="391.89"
       y1="544.092"
       x1="403.421"
       id="linearGradient4213"
       xlink:href="#linearGradient4454" /><linearGradient
       id="linearGradient4472"><stop
         id="stop1340"
         offset="0"
         style="stop-color:#ffa92d;stop-opacity:1" /><stop
         id="stop1342"
         offset="1"
         style="stop-color:#ffc169;stop-opacity:1" /></linearGradient><linearGradient
       gradientTransform="translate(-384.57001,-499.79999)"
       gradientUnits="userSpaceOnUse"
       y2="505.319"
       x2="391.154"
       y1="523.203"
       x1="401.296"
       id="linearGradient4235"
       xlink:href="#linearGradient4472" /><linearGradient
       id="linearGradient4422-8"><stop
         id="stop1346"
         offset="0"
         style="stop-color:#377d50;stop-opacity:1" /><stop
         id="stop1348"
         offset="1"
         style="stop-color:#54d883;stop-opacity:1" /></linearGradient><linearGradient
       gradientTransform="translate(-384.57001,-499.79999)"
       gradientUnits="userSpaceOnUse"
       y2="503.798"
       x2="413.779"
       y1="523.798"
       x1="424.602"
       id="linearGradient4257"
       xlink:href="#linearGradient4422-8" /><linearGradient
       id="linearGradient4438"><stop
         id="stop1352"
         offset="0"
         style="stop-color:#375a7d;stop-opacity:1" /><stop
         id="stop1354"
         offset="1"
         style="stop-color:#54a3d8;stop-opacity:1" /></linearGradient><linearGradient
       gradientTransform="translate(-384.57001,-499.79999)"
       gradientUnits="userSpaceOnUse"
       y2="525.748"
       x2="412.118"
       y1="543.488"
       x1="420.884"
       id="linearGradient4279"
       xlink:href="#linearGradient4438" /><linearGradient
       gradientTransform="translate(0.00142264,-0.00198746)"
       gradientUnits="userSpaceOnUse"
       y2="44"
       x2="44"
       y1="4"
       x1="4"
       id="linearGradient4220"
       xlink:href="#linearGradient935" /><linearGradient
       gradientTransform="matrix(1.2,0,0,1.2,-5.4785113,-319.30619)"
       gradientUnits="userSpaceOnUse"
       y2="287.50333"
       x2="20.971888"
       y1="279.86346"
       x1="14.361602"
       id="linearGradient1200"
       xlink:href="#linearGradient1198"
       inkscape:collect="always" /><linearGradient
       id="linearGradient1198"
       inkscape:collect="always"><stop
         id="stop1194"
         offset="0"
         style="stop-color:#216778;stop-opacity:1" /><stop
         id="stop1196"
         offset="1"
         style="stop-color:#2a7fff;stop-opacity:1" /></linearGradient><linearGradient
       gradientTransform="matrix(1.2,0,0,1.2,-5.4785113,-319.30619)"
       gradientUnits="userSpaceOnUse"
       y2="287.67612"
       x2="19.187016"
       y1="280.17957"
       x1="11.690488"
       id="linearGradient1208"
       xlink:href="#linearGradient1206"
       inkscape:collect="always" /><linearGradient
       id="linearGradient1206"
       inkscape:collect="always"><stop
         id="stop1202"
         offset="0"
         style="stop-color:#dc6700;stop-opacity:1" /><stop
         id="stop1204"
         offset="1"
         style="stop-color:#ff8519;stop-opacity:1" /></linearGradient><linearGradient
       gradientTransform="matrix(1.2,0,0,1.2,-5.4785113,-319.30619)"
       gradientUnits="userSpaceOnUse"
       y2="286.79416"
       x2="18.305071"
       y1="280.84103"
       x1="12.351946"
       id="linearGradient1216"
       xlink:href="#linearGradient1214"
       inkscape:collect="always" /><linearGradient
       id="linearGradient1214"
       inkscape:collect="always"><stop
         id="stop1210"
         offset="0"
         style="stop-color:#ff8519;stop-opacity:1" /><stop
         id="stop1212"
         offset="1"
         style="stop-color:#ffa555;stop-opacity:1" /></linearGradient><linearGradient
       gradientTransform="matrix(1.2,0,0,1.2,-5.4785113,-319.30619)"
       gradientUnits="userSpaceOnUse"
       y2="286.35318"
       x2="17.864098"
       y1="281.5025"
       x1="13.013404"
       id="linearGradient1224"
       xlink:href="#linearGradient1222"
       inkscape:collect="always" /><linearGradient
       id="linearGradient1222"
       inkscape:collect="always"><stop
         id="stop1218"
         offset="0"
         style="stop-color:#ffa655;stop-opacity:1" /><stop
         id="stop1220"
         offset="1"
         style="stop-color:#ffbe91;stop-opacity:1" /></linearGradient><linearGradient
       gradientTransform="matrix(1.2,0,0,1.2,-5.4785113,-319.30619)"
       gradientUnits="userSpaceOnUse"
       y2="285.9122"
       x2="17.643612"
       y1="281.94345"
       x1="13.454376"
       id="linearGradient1240"
       xlink:href="#linearGradient1238"
       inkscape:collect="always" /><linearGradient
       id="linearGradient1238"
       inkscape:collect="always"><stop
         id="stop1234"
         offset="0"
         style="stop-color:#ffc591;stop-opacity:1" /><stop
         id="stop1236"
         offset="1"
         style="stop-color:#ffe5cd;stop-opacity:1" /></linearGradient><radialGradient
       gradientTransform="matrix(0.70998201,0,0,0.800015,1.7032186,-206.00388)"
       gradientUnits="userSpaceOnUse"
       r="1.3229033"
       fy="283.26639"
       fx="14.488308"
       cy="283.26639"
       cx="14.488308"
       id="radialGradient1260"
       xlink:href="#linearGradient1250"
       inkscape:collect="always" /><linearGradient
       inkscape:collect="always"
       id="linearGradient1250"><stop
         style="stop-color:#fffbf8;stop-opacity:1"
         offset="0"
         id="stop1246" /><stop
         style="stop-color:#ffcba9;stop-opacity:0"
         offset="1"
         id="stop1248" /></linearGradient></defs><g
     inkscape:label="Layer 1"
     inkscape:groupmode="layer"
     id="layer1"><path
       style="fill:#000000;fill-opacity:0.196078;stroke:none;stroke-width:0.725255;stroke-miterlimit:4;stroke-dasharray:none;stroke-opacity:1;paint-order:markers stroke fill"
       d="m 27.463296,31.543821 6.216476,-9.324713 -6.216476,-2.072156 z"
       id="path1768"
       inkscape:connector-curvature="0"
       sodipodi:nodetypes="cccc" /><g
       inkscape:label="Layer 1"
       id="layer1-3"
       transform="translate(35.012833,-262.23265)" /><path
       id="rect835"
       style="fill:url(#linearGradient1121);fill-opacity:1;stroke:none;stroke-width:0.538209;stroke-linecap:round;paint-order:markers fill stroke;stop-color:#000000"
       d="M 4.7758649,3.574564 20.551928,5.1924669 21.825899,2.9483279 28.342403,3.5832176 28.89191,6.0545623 31.749998,6.3499997 27.463296,31.543821 4.4418767,23.818372 Z"
       sodipodi:nodetypes="ccccccccc" /><path
       style="fill:none;stroke:#000000;stroke-width:0.238125;stroke-linecap:butt;stroke-linejoin:miter;stroke-dasharray:none;stroke-opacity:1"
       d="M 4.4418767,23.818372 4.7758649,3.574564 20.551928,5.1924669 l 1.273971,-2.244139 6.516504,0.6348897 0.549507,2.4713447 2.858088,0.2954374 -4.286702,25.1938213 z"
       id="path1549"
       sodipodi:nodetypes="ccccccccc" /><path
       id="rect833"
       style="fill:url(#linearGradient1113);fill-opacity:1;stroke:none;stroke-width:0.517406;stroke-linecap:round;paint-order:markers fill stroke;stop-color:#000000"
       d="m 1.0146981,6.152543 14.2906539,3.2254836 0.927245,1.1847164 5.434145,1.220232 0.606984,-0.832144 2.297295,0.518513 2.892275,20.074477 -23.0214193,-7.725449 z"
       sodipodi:nodetypes="ccccccccc" /><path
       style="fill:none;stroke:#ffffff;stroke-width:0.47625;stroke-linecap:butt;stroke-linejoin:miter;stroke-dasharray:none;stroke-opacity:0.39"
       d="m 1.0613268,6.3928965 14.1844882,3.0942807 0.917322,1.1747938 5.568103,1.254962 0.602023,-0.842067 2.130537,0.487127 2.84854,19.802512"
       id="path2"
       sodipodi:nodetypes="ccccccc" /><path
       style="fill:none;stroke:#000000;stroke-width:0.238125;stroke-linecap:butt;stroke-linejoin:miter;stroke-dasharray:none;stroke-opacity:1"
       d="M 27.463296,31.543821 4.4418767,23.818372 1.0146981,6.152543 15.305352,9.3780266 l 0.927245,1.1847164 5.434145,1.220232 0.606984,-0.832144 2.297295,0.518513 2.892275,20.074477"
       id="path1553"
       sodipodi:nodetypes="ccccccccc" /><path
       sodipodi:nodetypes="cccccc"
       inkscape:connector-curvature="0"
       id="path1132"
       d="m 10.45719,21.940886 4.975601,0.900715 -1.437229,8.385538 -2.357527,-1.837351 -2.8242984,0.662127 z"
       style="fill:url(#linearGradient1200);fill-opacity:1;stroke-width:0.60325;stroke-linecap:square;stroke-miterlimit:4;stroke-dasharray:none" /><path
       sodipodi:nodetypes="cccccc"
       inkscape:connector-curvature="0"
       id="path4"
       d="m 10.45719,21.940886 4.975601,0.900715 -1.437229,8.385538 -2.357527,-1.837351 -2.8242984,0.662127 z"
       style="fill:none;fill-opacity:1;stroke:#000000;stroke-width:0.238125;stroke-linecap:square;stroke-miterlimit:4;stroke-dasharray:none;stroke-opacity:1" /><path
       sodipodi:nodetypes="cccccccscccccccccccccccccccc"
       inkscape:connector-curvature="0"
       id="path1120"
       d="m 12.996371,16.374904 c 0.426396,0.04229 0.410087,0.43377 0.975422,0.517634 0.646097,0.09585 0.720162,-0.41133 1.311472,-0.14664 0.592427,0.266165 0.258155,0.6587 0.759888,1.081525 0.503663,0.425394 0.80862,0.0065 1.186831,0.559445 0.38044,0.555434 -0.09276,0.728151 0.13637,1.372917 0.231067,0.647342 0.692914,0.441102 0.757499,1.13441 0.0657,0.694791 -0.427048,0.590529 -0.536697,1.278102 -0.10965,0.687572 0.392504,0.757615 0.115981,1.392457 -0.277638,0.633352 -0.659283,0.279346 -1.089339,0.810841 -0.431988,0.528959 -0.02463,0.855923 -0.579157,1.247567 -0.556758,0.388671 -0.717652,-0.111432 -1.359099,0.113417 -0.643365,0.222216 -0.448596,0.707429 -1.133364,0.749855 -0.685881,0.04091 -0.574743,-0.459751 -1.250891,-0.595568 -0.676149,-0.135808 -0.752636,0.368151 -1.373978,0.06351 C 10.297081,25.651225 10.650916,25.284719 10.132228,24.839339 9.6154693,24.396528 9.2885073,24.785709 8.9080661,24.230227 8.5298578,23.67775 9.0250733,23.534326 8.8090282,22.906978 8.5949169,22.282197 8.1135045,22.4624 8.0767227,21.806082 8.0410527,21.151246 8.5362205,21.258717 8.6759231,20.611124 8.8156242,19.96353 8.3158882,19.896703 8.6224471,19.301817 c 0.3054417,-0.59637 0.6675212,-0.268385 1.1145352,-0.777351 0.4450807,-0.511525 0.05973,-0.809236 0.6164887,-1.197899 0.554528,-0.391636 0.693412,0.07923 1.321766,-0.163077 0.62641,-0.244761 0.451207,-0.703961 1.10817,-0.783353 0.08205,-0.01013 0.152054,-0.01126 0.212964,-0.0049 l 5e-6,-2.4e-5 z"
       style="fill:url(#linearGradient1208);fill-opacity:1;stroke-width:0.60325;stroke-linecap:square;stroke-miterlimit:4;stroke-dasharray:none" /><path
       sodipodi:nodetypes="cccccccccccccccccccccccccccc"
       inkscape:connector-curvature="0"
       id="path1116"
       d="m 13.018468,17.321553 c 0.347012,0.03637 0.334396,0.354159 0.794336,0.424778 0.525644,0.08069 0.586091,-0.329946 1.067355,-0.112461 0.481996,0.218448 0.20927,0.534298 0.616968,0.878526 0.408964,0.345929 0.657757,0.0097 0.964264,0.45732 0.307973,0.449689 -0.07675,0.587523 0.107826,1.108462 0.185847,0.522633 0.561481,0.357077 0.611643,0.91584 0.05089,0.559728 -0.348574,0.475257 -0.439713,1.029119 -0.09114,0.553879 0.315491,0.610652 0.08918,1.121813 -0.227037,0.510181 -0.534604,0.225432 -0.88426,0.654237 -0.350921,0.427111 -0.0229,0.689306 -0.472239,1.006314 -0.450803,0.315039 -0.579621,-0.0874 -1.098165,0.09595 -0.519816,0.18171 -0.363079,0.572803 -0.915592,0.609996 -0.553244,0.03629 -0.463255,-0.369269 -1.008612,-0.476213 -0.545356,-0.106952 -0.6074,0.301592 -1.108363,0.05784 -0.500231,-0.242736 -0.214654,-0.541484 -0.633475,-0.900513 -0.417554,-0.35736 -0.680781,-0.04018 -0.9887497,-0.489903 -0.306508,-0.447753 0.09254,-0.565885 -0.08344,-1.075393 -0.174725,-0.507832 -0.563111,-0.359863 -0.595036,-0.894348 -0.031197,-0.533496 0.369872,-0.446902 0.480724,-0.974541 0.11085,-0.527631 -0.294185,-0.582273 -0.04818,-1.067219 0.245271,-0.48591 0.5399057,-0.217768 0.9006857,-0.631755 0.359511,-0.415681 0.046,-0.65917 0.496806,-0.974226 0.449339,-0.316983 0.563728,0.06627 1.073682,-0.128525 0.508694,-0.196511 0.364807,-0.570503 0.899082,-0.631966 0.06673,-0.0081 0.123693,-0.0087 0.17327,-0.0032 l -1e-6,1.6e-5 z"
       style="fill:url(#linearGradient1216);fill-opacity:1;stroke-width:0.60325;stroke-linecap:square;stroke-miterlimit:4;stroke-dasharray:none" /><path
       sodipodi:nodetypes="cccccccccccccccccccccccccccc"
       inkscape:connector-curvature="0"
       id="path1040"
       d="m 13.037391,18.091612 c 0.282144,0.03095 0.272101,0.288216 0.645974,0.347184 0.427285,0.0674 0.476337,-0.265055 0.867667,-0.08681 0.391813,0.178818 0.169988,0.433333 0.50107,0.713302 0.331912,0.281095 0.534676,0.01013 0.783051,0.372971 0.249334,0.364116 -0.06342,0.474414 0.08541,0.895506 0.149666,0.422218 0.454873,0.289504 0.494088,0.740255 0.0397,0.451374 -0.283948,0.382749 -0.359298,0.829368 -0.07535,0.446643 0.253866,0.492423 0.06904,0.904457 -0.185309,0.411387 -0.433352,0.181718 -0.717433,0.527923 -0.28491,0.345078 -0.02042,0.556528 -0.384501,0.813157 -0.365036,0.255342 -0.4684,-0.06918 -0.887748,0.0802 -0.420191,0.148317 -0.294303,0.463769 -0.740425,0.495745 -0.446605,0.03127 -0.373555,-0.296909 -0.813768,-0.381526 -0.440213,-0.08458 -0.490313,0.246438 -0.894563,0.05104 -0.403775,-0.194752 -0.173524,-0.438039 -0.511903,-0.727738 -0.337546,-0.288589 -0.549781,-0.03022 -0.799114,-0.394358 -0.248373,-0.362853 0.07385,-0.460529 -0.06935,-0.874111 -0.14237,-0.412505 -0.4560027,-0.291011 -0.4832567,-0.725826 -0.02677,-0.434168 0.2979157,-0.364141 0.3861957,-0.793561 0.08828,-0.429404 -0.2398917,-0.473798 -0.04214,-0.868618 0.197269,-0.39546 0.436889,-0.177019 0.728266,-0.513494 0.290543,-0.337577 0.03552,-0.536429 0.400564,-0.791763 0.364076,-0.256621 0.457973,0.05533 0.871685,-0.101564 0.412895,-0.15803 0.295433,-0.462262 0.729594,-0.510165 0.05424,-0.0057 0.100579,-0.0057 0.1409,-0.0016 l -2e-6,8e-6 z"
       style="fill:url(#linearGradient1224);fill-opacity:1;stroke-width:0.60325;stroke-linecap:square;stroke-miterlimit:4;stroke-dasharray:none" /><path
       sodipodi:nodetypes="cccccccccccccccccccccccccccc"
       inkscape:connector-curvature="0"
       id="path1138"
       d="m 13.053028,18.717202 c 0.229236,0.02592 0.221213,0.234627 0.524924,0.28355 0.347098,0.0559 0.386552,-0.2129 0.70453,-0.06724 0.318296,0.146064 0.138511,0.350976 0.407258,0.578482 0.26929,0.228243 0.433908,0.0098 0.635165,0.303843 0.201897,0.294819 -0.05195,0.382903 0.06819,0.723397 0.120676,0.34123 0.368495,0.235072 0.399348,0.598937 0.03117,0.36427 -0.231102,0.308283 -0.293123,0.668705 -0.06202,0.360446 0.204615,0.397639 0.05391,0.730039 -0.151016,0.332003 -0.351321,0.146818 -0.581985,0.426496 -0.231207,0.278924 -0.0178,0.448862 -0.312778,0.656618 -0.295607,0.206937 -0.378309,-0.05476 -0.717549,0.06675 -0.339796,0.120878 -0.238942,0.375475 -0.599386,0.402597 -0.36076,0.02673 -0.301212,-0.239066 -0.656797,-0.306281 -0.355583,-0.06716 -0.395806,0.201193 -0.722264,0.04423 -0.326144,-0.156515 -0.140753,-0.354565 -0.414289,-0.588438 -0.272988,-0.233169 -0.443813,-0.02301 -0.645696,-0.317883 -0.201265,-0.293984 0.05877,-0.373789 -0.05766,-0.709357 -0.115888,-0.334863 -0.369324,-0.235574 -0.392325,-0.588989 -0.02269,-0.352985 0.240357,-0.29656 0.310866,-0.645706 0.07051,-0.349137 -0.195536,-0.384928 -0.03636,-0.706059 0.158867,-0.321537 0.353737,-0.144202 0.589188,-0.417495 0.234904,-0.273999 0.02772,-0.435699 0.323314,-0.64262 0.294977,-0.207763 0.371475,0.04561 0.707015,-0.08085 0.335007,-0.127254 0.23958,-0.374008 0.592174,-0.411598 0.04405,-0.0049 0.08158,-0.0049 0.114329,-8.1e-4 l -8e-6,4.9e-5 z"
       style="fill:url(#linearGradient1240);fill-opacity:1;stroke-width:0.60325;stroke-linecap:square;stroke-miterlimit:4;stroke-dasharray:none" /><circle
       r="1.2860515"
       cy="20.544127"
       cx="12.085464"
       id="path1252"
       style="fill:url(#radialGradient1260);fill-opacity:1;stroke:none;stroke-width:0.754055;stroke-linecap:square;stroke-linejoin:miter;stroke-miterlimit:4;stroke-dasharray:none;stroke-dashoffset:0;stroke-opacity:1" /><path
       sodipodi:nodetypes="ccccccccccccccccccccccccccccccccccccccsccccccccccccccccccccccccccccccccccccccccccccccccscccccccccccccccc"
       inkscape:connector-curvature="0"
       id="path1124"
       d="m 13.156481,16.135011 c 0.238586,0.03062 0.405533,0.14596 0.513442,0.247241 0.144036,0.135298 0.204926,0.226639 0.470003,0.265573 0.265077,0.03897 0.357879,-0.03022 0.543561,-0.117872 0.185507,-0.08798 0.479699,-0.170231 0.825534,-0.01564 0.346218,0.15509 0.479689,0.430546 0.536728,0.628135 0.05721,0.197806 0.06709,0.312698 0.273262,0.486484 0.206489,0.174249 0.318863,0.159634 0.518517,0.178219 0.199632,0.01855 0.486744,0.101305 0.708378,0.425069 0.222402,0.324753 0.208123,0.642992 0.163325,0.850512 -0.04482,0.207496 -0.09064,0.314383 0.0039,0.579778 0.09484,0.265833 0.196669,0.314076 0.359875,0.438194 0.163373,0.124345 0.373509,0.353188 0.411839,0.75973 0.03871,0.407061 -0.126049,0.67837 -0.263795,0.836076 -0.137938,0.157446 -0.22859,0.227198 -0.273311,0.510083 -0.04472,0.282886 0.0199,0.379857 0.10282,0.576003 0.0831,0.196414 0.158215,0.50767 -0.0034,0.879628 -0.161978,0.371456 -0.436234,0.515406 -0.633391,0.576586 -0.197326,0.06092 -0.311379,0.07137 -0.48811,0.28961 -0.177058,0.217817 -0.166998,0.336556 -0.189832,0.5479 -0.02281,0.211376 -0.111232,0.516095 -0.436082,0.74497 -0.325616,0.227846 -0.63728,0.203664 -0.841254,0.151492 -0.203952,-0.05209 -0.310631,-0.102577 -0.574519,-0.01077 -0.26421,0.09138 -0.313796,0.195839 -0.439355,0.361621 -0.12573,0.165565 -0.355227,0.374859 -0.756568,0.398968 -0.401721,0.02366 -0.666236,-0.156005 -0.819272,-0.303349 -0.152849,-0.147077 -0.220101,-0.242153 -0.49817,-0.298391 -0.278067,-0.05622 -0.372621,0.0057 -0.567127,0.08185 -0.194707,0.07575 -0.504202,0.137007 -0.868145,-0.04172 -0.36356,-0.178186 -0.501886,-0.457037 -0.559617,-0.655549 -0.05757,-0.198277 -0.06644,-0.311815 -0.279424,-0.494683 C 9.8836263,24.828344 9.7665503,24.833594 9.5584293,24.803749 9.3502713,24.773939 9.0523843,24.678685 8.829989,24.353868 8.6083549,24.030111 8.6334702,23.726932 8.6867785,23.530729 8.7400595,23.334519 8.7908659,23.232379 8.7025275,22.97519 8.6145095,22.718447 8.5116658,22.668851 8.348818,22.545203 8.1861391,22.421781 7.9808994,22.198909 7.959914,21.815447 7.939313,21.432496 8.1185646,21.183489 8.2655178,21.038024 c 0.1467585,-0.145716 0.2415084,-0.210015 0.2992246,-0.475605 0.057713,-0.265589 -0.00284,-0.357084 -0.076905,-0.541492 -0.073899,-0.184156 -0.1328207,-0.476868 0.04689,-0.824717 0.1793223,-0.34836 0.4575109,-0.486542 0.6553619,-0.546782 0.197682,-0.06044 0.310717,-0.07226 0.494272,-0.28142 0.183224,-0.209594 0.178392,-0.319503 0.209693,-0.519578 0.03132,-0.200051 0.1307697,-0.490713 0.4563777,-0.718568 0.324858,-0.228907 0.625505,-0.221211 0.820967,-0.180365 0.195486,0.04083 0.29654,0.08691 0.554262,-0.01321 0.257388,-0.100454 0.307991,-0.203566 0.433194,-0.369819 0.125038,-0.16648 0.350596,-0.384086 0.734591,-0.431275 0.09594,-0.01183 0.183513,-0.01053 0.263038,-2.51e-4 l -1e-6,8e-6 z m -0.06942,0.463826 c -0.04235,-8.1e-4 -0.09496,8.1e-4 -0.163059,0.0097 -0.272567,0.03265 -0.289744,0.08623 -0.397686,0.230568 -0.108069,0.144193 -0.281309,0.394576 -0.650868,0.538186 -0.370226,0.142679 -0.655211,0.06999 -0.824775,0.03402 -0.169546,-0.03589 -0.212486,-0.06481 -0.442706,0.09723 -0.230604,0.161521 -0.219429,0.214414 -0.246107,0.388063 -0.02667,0.173674 -0.06136,0.467237 -0.323616,0.768634 -0.2629237,0.300521 -0.5532597,0.37933 -0.7245507,0.431283 -0.171417,0.05185 -0.226561,0.04796 -0.353059,0.295377 -0.1266994,0.247249 -0.0904,0.28496 -0.026288,0.444537 0.064259,0.159764 0.183626,0.426779 0.101775,0.808977 -0.081854,0.382215 -0.3037669,0.58745 -0.4305879,0.71374 -0.1269708,0.126095 -0.1772695,0.150585 -0.1620684,0.422696 0.0154,0.272362 0.069265,0.287074 0.2097877,0.393524 0.1406481,0.106619 0.3835816,0.278875 0.5101996,0.647633 0.127292,0.369658 0.04009,0.654528 -0.0057,0.824864 -0.04571,0.170303 -0.07822,0.215038 0.07888,0.444504 0.157487,0.229961 0.211401,0.216537 0.39107,0.241837 0.179654,0.02528 0.4860787,0.05817 0.7905507,0.319058 0.305143,0.26183 0.37728,0.554729 0.427338,0.72662 0.05018,0.17207 0.04628,0.227911 0.303329,0.353399 0.257217,0.125827 0.29768,0.08749 0.465953,0.02179 0.168136,-0.06594 0.44624,-0.187267 0.844167,-0.107851 0.397926,0.07939 0.614108,0.300627 0.746206,0.427637 0.132244,0.127173 0.155872,0.17894 0.439874,0.16136 0.283798,-0.01766 0.298964,-0.07226 0.407982,-0.215168 0.108892,-0.143099 0.284311,-0.392235 0.662923,-0.523774 0.377948,-0.132471 0.673995,-0.04683 0.850053,-0.0016 0.176076,0.04456 0.221199,0.07818 0.451796,-0.08331 0.230223,-0.162049 0.216463,-0.21776 0.23662,-0.400078 0.02017,-0.182317 0.04386,-0.491151 0.298399,-0.80282 0.253869,-0.31256 0.544285,-0.391822 0.714753,-0.444877 0.170341,-0.05314 0.225979,-0.04804 0.34127,-0.31047 0.11509,-0.262706 0.07725,-0.304913 0.0055,-0.474609 -0.07158,-0.169509 -0.203283,-0.449948 -0.138198,-0.854465 0.06508,-0.404525 0.276357,-0.626927 0.395861,-0.762963 0.119361,-0.136213 0.167388,-0.161302 0.140574,-0.448879 -0.02663,-0.287292 -0.0798,-0.301704 -0.221396,-0.409572 -0.141472,-0.107713 -0.385296,-0.280577 -0.520967,-0.661406 -0.135002,-0.379921 -0.059,-0.679074 -0.0198,-0.858054 0.03918,-0.178988 0.0693,-0.227538 -0.08818,-0.457507 -0.157093,-0.229482 -0.208292,-0.21422 -0.381433,-0.230835 -0.173161,-0.01661 -0.468266,-0.03257 -0.765033,-0.283226 -0.296093,-0.249776 -0.369737,-0.543039 -0.418974,-0.713853 -0.04911,-0.170635 -0.04432,-0.226971 -0.29013,-0.337504 -0.245607,-0.11037 -0.284266,-0.06902 -0.44494,0.0065 -0.160818,0.07575 -0.429374,0.211944 -0.810528,0.154846 -0.381156,-0.05703 -0.583925,-0.262665 -0.708705,-0.379929 -0.09349,-0.08788 -0.128834,-0.137632 -0.255619,-0.143084 l -6e-6,3.3e-5 z"
       style="fill:#800033;fill-opacity:1;stroke-width:0.60325;stroke-linecap:square;stroke-miterlimit:4;stroke-dasharray:none" /><path
       sodipodi:nodetypes="ccccccccccccccccccccccccccccccccccccccsccccccccccccc"
       inkscape:connector-curvature="0"
       id="path5"
       d="m 13.156481,16.135011 c 0.238586,0.03062 0.405533,0.14596 0.513442,0.247241 0.144036,0.135298 0.204926,0.226639 0.470003,0.265573 0.265077,0.03897 0.357879,-0.03022 0.543561,-0.117872 0.185507,-0.08798 0.479699,-0.170231 0.825534,-0.01564 0.346218,0.15509 0.479689,0.430546 0.536728,0.628135 0.05721,0.197806 0.06709,0.312698 0.273262,0.486484 0.206489,0.174249 0.318863,0.159634 0.518517,0.178219 0.199632,0.01855 0.486744,0.101305 0.708378,0.425069 0.222402,0.324753 0.208123,0.642992 0.163325,0.850512 -0.04482,0.207496 -0.09064,0.314383 0.0039,0.579778 0.09484,0.265833 0.196669,0.314076 0.359875,0.438194 0.163373,0.124345 0.373509,0.353188 0.411839,0.75973 0.03871,0.407061 -0.126049,0.67837 -0.263795,0.836076 -0.137938,0.157446 -0.22859,0.227198 -0.273311,0.510083 -0.04472,0.282886 0.0199,0.379857 0.10282,0.576003 0.0831,0.196414 0.158215,0.50767 -0.0034,0.879628 -0.161978,0.371456 -0.436234,0.515406 -0.633391,0.576586 -0.197326,0.06092 -0.311379,0.07137 -0.48811,0.28961 -0.177058,0.217817 -0.166998,0.336556 -0.189832,0.5479 -0.02281,0.211376 -0.111232,0.516095 -0.436082,0.74497 -0.325616,0.227846 -0.63728,0.203664 -0.841254,0.151492 -0.203952,-0.05209 -0.310631,-0.102577 -0.574519,-0.01077 -0.26421,0.09138 -0.313796,0.195839 -0.439355,0.361621 -0.12573,0.165565 -0.355227,0.374859 -0.756568,0.398968 -0.401721,0.02366 -0.666236,-0.156005 -0.819272,-0.303349 -0.152849,-0.147077 -0.220101,-0.242153 -0.49817,-0.298391 -0.278067,-0.05622 -0.372621,0.0057 -0.567127,0.08185 -0.194707,0.07575 -0.504202,0.137007 -0.868145,-0.04172 -0.36356,-0.178186 -0.501886,-0.457037 -0.559617,-0.655549 -0.05757,-0.198277 -0.06644,-0.311815 -0.279424,-0.494683 C 9.8836263,24.828344 9.7665503,24.833594 9.5584293,24.803749 9.3502713,24.773939 9.0523843,24.678685 8.829989,24.353868 8.6083549,24.030111 8.6334702,23.726932 8.6867785,23.530729 8.7400595,23.334519 8.7908659,23.232379 8.7025275,22.97519 8.6145095,22.718447 8.5116658,22.668851 8.348818,22.545203 8.1861391,22.421781 7.9808994,22.198909 7.959914,21.815447 7.939313,21.432496 8.1185646,21.183489 8.2655178,21.038024 c 0.1467585,-0.145716 0.2415084,-0.210015 0.2992246,-0.475605 0.057713,-0.265589 -0.00284,-0.357084 -0.076905,-0.541492 -0.073899,-0.184156 -0.1328207,-0.476868 0.04689,-0.824717 0.1793223,-0.34836 0.4575109,-0.486542 0.6553619,-0.546782 0.197682,-0.06044 0.310717,-0.07226 0.494272,-0.28142 0.183224,-0.209594 0.178392,-0.319503 0.209693,-0.519578 0.03132,-0.200051 0.1307697,-0.490713 0.4563777,-0.718568 0.324858,-0.228907 0.625505,-0.221211 0.820967,-0.180365 0.195486,0.04083 0.29654,0.08691 0.554262,-0.01321 0.257388,-0.100454 0.307991,-0.203566 0.433194,-0.369819 0.125038,-0.16648 0.350596,-0.384086 0.734591,-0.431275 0.09594,-0.01183 0.183513,-0.01053 0.263038,-2.51e-4 l -1e-6,8e-6 z"
       style="fill:none;fill-opacity:1;stroke:#000000;stroke-width:0.238125;stroke-linecap:square;stroke-miterlimit:4;stroke-dasharray:none;stroke-opacity:1" /></g></svg>
