<?xml version="1.0" encoding="UTF-8" standalone="no"?>
<!-- Created with Inkscape (http://www.inkscape.org/) -->

<svg
   width="128"
   height="128"
   viewBox="0 0 33.866666 33.866666"
   version="1.1"
   id="svg5"
   xml:space="preserve"
   inkscape:version="1.3 (0e150ed6c4, 2023-07-21)"
   sodipodi:docname="folder-qt-project.svg"
   xmlns:inkscape="http://www.inkscape.org/namespaces/inkscape"
   xmlns:sodipodi="http://sodipodi.sourceforge.net/DTD/sodipodi-0.dtd"
   xmlns:xlink="http://www.w3.org/1999/xlink"
   xmlns="http://www.w3.org/2000/svg"
   xmlns:svg="http://www.w3.org/2000/svg"><sodipodi:namedview
     id="namedview7"
     pagecolor="#ffffff"
     bordercolor="#000000"
     borderopacity="0.10196078"
     inkscape:showpageshadow="true"
     inkscape:pageopacity="0"
     inkscape:pagecheckerboard="false"
     inkscape:deskcolor="#dbdbdb"
     inkscape:document-units="px"
     showgrid="false"
     borderlayer="true"
     inkscape:zoom="6.4453125"
     inkscape:cx="64"
     inkscape:cy="64"
     inkscape:window-width="1920"
     inkscape:window-height="1093"
     inkscape:window-x="0"
     inkscape:window-y="0"
     inkscape:window-maximized="1"
     inkscape:current-layer="layer1"
     showguides="false"><inkscape:grid
       type="xygrid"
       id="grid16"
       originx="0"
       originy="0"
       spacingy="0.26458333"
       spacingx="0.26458333"
       units="px"
       visible="false"
       empcolor="#cc3d3d"
       empopacity="0.30196078"
       empspacing="4" /><sodipodi:guide
       position="6.8791663,2.6458343"
       orientation="1,0"
       id="guide182"
       inkscape:locked="false" /><sodipodi:guide
       position="19.579166,1.8520843"
       orientation="1,0"
       id="guide184"
       inkscape:locked="false" /><sodipodi:guide
       position="14.287499,4.7625009"
       orientation="0,-1"
       id="guide186"
       inkscape:locked="false" /><sodipodi:guide
       position="10.847916,17.4625"
       orientation="0,-1"
       id="guide188"
       inkscape:locked="false" /></sodipodi:namedview><defs
     id="defs2"><inkscape:path-effect
       effect="perspective-envelope"
       up_left_point="1.9896238,6.1765724"
       up_right_point="27.218606,7.5797374"
       down_left_point="2.0831681,31.10885"
       down_right_point="28.574999,31.576572"
       id="path-effect2835"
       is_visible="true"
       lpeversion="1"
       deform_type="perspective"
       horizontal_mirror="false"
       vertical_mirror="false"
       overflow_perspective="false" /><inkscape:path-effect
       effect="perspective-envelope"
       up_left_point="4.8239449,3.6495202"
       up_right_point="32.914643,2.1060387"
       down_left_point="5.2916666,31.56785"
       down_right_point="31.605022,31.56785"
       id="path-effect2833"
       is_visible="true"
       lpeversion="1"
       deform_type="perspective"
       horizontal_mirror="false"
       vertical_mirror="false"
       overflow_perspective="false" /><inkscape:path-effect
       effect="perspective-envelope"
       up_left_point="6.333243,3.4019982"
       up_right_point="31.732065,3.4019982"
       down_left_point="5.4567911,31.749999"
       down_right_point="31.732065,31.749999"
       id="path-effect13169"
       is_visible="true"
       lpeversion="1"
       deform_type="perspective"
       horizontal_mirror="false"
       vertical_mirror="false"
       overflow_perspective="false" /><inkscape:path-effect
       effect="perspective-envelope"
       up_left_point="5.4567911,3.4019982"
       up_right_point="31.732065,3.4019982"
       down_left_point="5.4567911,31.749999"
       down_right_point="31.732065,31.749999"
       id="path-effect13167"
       is_visible="true"
       lpeversion="1"
       deform_type="perspective"
       horizontal_mirror="false"
       vertical_mirror="false"
       overflow_perspective="false" /><inkscape:path-effect
       effect="perspective-envelope"
       up_left_point="5.539493,3.4019982"
       up_right_point="31.732065,3.6087959"
       down_left_point="4.7624999,31.749999"
       down_right_point="31.732065,31.749999"
       id="path-effect13165"
       is_visible="true"
       lpeversion="1"
       deform_type="perspective"
       horizontal_mirror="false"
       vertical_mirror="false"
       overflow_perspective="false" /><inkscape:path-effect
       effect="perspective-envelope"
       up_left_point="5.539493,3.4019982"
       up_right_point="31.732065,3.6087959"
       down_left_point="4.7624999,31.749999"
       down_right_point="31.732065,31.749999"
       id="path-effect13163"
       is_visible="true"
       lpeversion="1"
       deform_type="perspective"
       horizontal_mirror="false"
       vertical_mirror="false"
       overflow_perspective="false" /><inkscape:path-effect
       effect="perspective-envelope"
       up_left_point="2.1166666,6.3499999"
       up_right_point="28.574999,5.2916666"
       down_left_point="3.0219846,31.749999"
       down_right_point="29.08424,31.749999"
       id="path-effect12133"
       is_visible="true"
       lpeversion="1"
       deform_type="perspective"
       horizontal_mirror="false"
       vertical_mirror="false"
       overflow_perspective="false" /><inkscape:path-effect
       effect="perspective-envelope"
       up_left_point="4.7624999,3.4395833"
       up_right_point="31.749999,3.9687499"
       down_left_point="4.7624999,31.749999"
       down_right_point="31.608553,31.749999"
       id="path-effect12131"
       is_visible="true"
       lpeversion="1"
       deform_type="perspective"
       horizontal_mirror="false"
       vertical_mirror="false"
       overflow_perspective="false" /><inkscape:path-effect
       effect="perspective-envelope"
       up_left_point="2.1166666,6.3499999"
       up_right_point="28.574999,8.4666665"
       down_left_point="1.0583333,31.749999"
       down_right_point="28.574999,31.749999"
       id="path-effect12129"
       is_visible="true"
       lpeversion="1"
       deform_type="perspective"
       horizontal_mirror="false"
       vertical_mirror="false"
       overflow_perspective="false" /><inkscape:path-effect
       effect="perspective-envelope"
       up_left_point="3.1749999,3.1749999"
       up_right_point="31.749999,4.2333332"
       down_left_point="3.1749999,31.749999"
       down_right_point="30.516433,31.749999"
       id="path-effect12105"
       is_visible="true"
       lpeversion="1"
       deform_type="perspective"
       horizontal_mirror="false"
       vertical_mirror="false"
       overflow_perspective="false" /><inkscape:path-effect
       effect="perspective-envelope"
       up_left_point="1.0583333,8.4666665"
       up_right_point="28.574999,7.4083333"
       down_left_point="1.0583338,31.749999"
       down_right_point="28.574999,31.749999"
       id="path-effect12103"
       is_visible="true"
       lpeversion="1"
       deform_type="perspective"
       horizontal_mirror="false"
       vertical_mirror="false"
       overflow_perspective="false" /><inkscape:path-effect
       effect="perspective-envelope"
       up_left_point="1.0583333,7.4083332"
       up_right_point="26.458333,11.641666"
       down_left_point="3.1749999,27.516666"
       down_right_point="28.574999,31.749999"
       id="path-effect12101"
       is_visible="true"
       lpeversion="1"
       deform_type="perspective"
       horizontal_mirror="false"
       vertical_mirror="false"
       overflow_perspective="false" /><inkscape:path-effect
       effect="perspective-envelope"
       up_left_point="5.2916666,3.1749999"
       up_right_point="30.691666,5.2916666"
       down_left_point="3.1749999,27.516666"
       down_right_point="28.574999,31.749999"
       id="path-effect12099"
       is_visible="true"
       lpeversion="1"
       deform_type="perspective"
       horizontal_mirror="false"
       vertical_mirror="false"
       overflow_perspective="false" /><inkscape:path-effect
       effect="perspective-envelope"
       up_left_point="4.2333332,8.4666665"
       up_right_point="27.516666,8.4666665"
       down_left_point="2.6458333,32.279166"
       down_right_point="27.516666,31.75"
       id="path-effect12087"
       is_visible="true"
       lpeversion="1"
       deform_type="perspective"
       horizontal_mirror="false"
       vertical_mirror="false"
       overflow_perspective="false" /><inkscape:path-effect
       effect="perspective-envelope"
       up_left_point="6.8791665,5.5562499"
       up_right_point="30.691666,5.2916666"
       down_left_point="6.8791665,31.749999"
       down_right_point="29.633333,31.749999"
       id="path-effect12085"
       is_visible="true"
       lpeversion="1"
       deform_type="perspective"
       horizontal_mirror="false"
       vertical_mirror="false"
       overflow_perspective="false" /><linearGradient
       inkscape:collect="always"
       id="linearGradient935"><stop
         style="stop-color:#000000;stop-opacity:1;"
         offset="0"
         id="stop931" /><stop
         style="stop-color:#000000;stop-opacity:0;"
         offset="1"
         id="stop933" /></linearGradient><linearGradient
       id="linearGradient4381"
       inkscape:collect="always"><stop
         id="stop4377"
         offset="0"
         style="stop-color:#fafafa;stop-opacity:0" /><stop
         id="stop4379"
         offset="1"
         style="stop-color:#252525;stop-opacity:0.65022421" /></linearGradient><linearGradient
       inkscape:collect="always"
       id="linearGradient4365"><stop
         style="stop-color:#e1bf8d;stop-opacity:1"
         offset="0"
         id="stop4361" /><stop
         style="stop-color:#6a4504;stop-opacity:1"
         offset="1"
         id="stop4363" /></linearGradient><linearGradient
       inkscape:collect="always"
       id="linearGradient4406"><stop
         style="stop-color:#cccccc;stop-opacity:1;"
         offset="0"
         id="stop4402" /><stop
         style="stop-color:#949494;stop-opacity:1;"
         offset="0.31521663"
         id="stop2" /><stop
         style="stop-color:#666666;stop-opacity:1;"
         offset="0.70005435"
         id="stop3" /><stop
         style="stop-color:#4d4d4d;stop-opacity:1;"
         offset="1"
         id="stop4404" /></linearGradient><linearGradient
       inkscape:collect="always"
       xlink:href="#linearGradient4381"
       id="linearGradient4385"
       gradientUnits="userSpaceOnUse"
       gradientTransform="matrix(4,0,0,4,-32.918811,-875.69414)"
       x1="13.6755"
       y1="290.15854"
       x2="13.042861"
       y2="291.61517" /><linearGradient
       inkscape:collect="always"
       xlink:href="#linearGradient4406"
       id="linearGradient1113"
       gradientUnits="userSpaceOnUse"
       x1="6.0194192"
       y1="273.93912"
       x2="27.019419"
       y2="296.93912"
       gradientTransform="translate(-0.99434467,-262.96315)" /><linearGradient
       inkscape:collect="always"
       xlink:href="#linearGradient4365"
       id="linearGradient1121"
       x1="26.882687"
       y1="269.4577"
       x2="27.600334"
       y2="288.55664"
       gradientUnits="userSpaceOnUse"
       gradientTransform="translate(-0.99434467,-262.96315)" /><linearGradient
       id="linearGradient4537"
       inkscape:collect="always"><stop
         id="stop4533"
         offset="0"
         style="stop-color:#ffffff;stop-opacity:1;" /><stop
         style="stop-color:#ffffff;stop-opacity:1"
         offset="0.58333331"
         id="stop4541" /><stop
         id="stop4543"
         offset="0.83333331"
         style="stop-color:#bababa;stop-opacity:1;" /><stop
         id="stop4535"
         offset="1"
         style="stop-color:#757575;stop-opacity:1" /></linearGradient><linearGradient
       gradientTransform="matrix(4,0,0,4,5.2916666,-893.11669)"
       gradientUnits="userSpaceOnUse"
       y2="295.41251"
       x2="5.0270834"
       y1="292.50208"
       x1="0.79374999"
       id="linearGradient4539"
       xlink:href="#linearGradient4537"
       inkscape:collect="always" /><linearGradient
       id="linearGradient4454"><stop
         id="stop1334"
         offset="0"
         style="stop-color:#d21e1e;stop-opacity:1" /><stop
         id="stop1336"
         offset="1"
         style="stop-color:#e05e4c;stop-opacity:1" /></linearGradient><linearGradient
       gradientTransform="translate(-384.57001,-499.79999)"
       gradientUnits="userSpaceOnUse"
       y2="525.725"
       x2="391.89"
       y1="544.092"
       x1="403.421"
       id="linearGradient4213"
       xlink:href="#linearGradient4454" /><linearGradient
       id="linearGradient4472"><stop
         id="stop1340"
         offset="0"
         style="stop-color:#ffa92d;stop-opacity:1" /><stop
         id="stop1342"
         offset="1"
         style="stop-color:#ffc169;stop-opacity:1" /></linearGradient><linearGradient
       gradientTransform="translate(-384.57001,-499.79999)"
       gradientUnits="userSpaceOnUse"
       y2="505.319"
       x2="391.154"
       y1="523.203"
       x1="401.296"
       id="linearGradient4235"
       xlink:href="#linearGradient4472" /><linearGradient
       id="linearGradient4422-8"><stop
         id="stop1346"
         offset="0"
         style="stop-color:#377d50;stop-opacity:1" /><stop
         id="stop1348"
         offset="1"
         style="stop-color:#54d883;stop-opacity:1" /></linearGradient><linearGradient
       gradientTransform="translate(-384.57001,-499.79999)"
       gradientUnits="userSpaceOnUse"
       y2="503.798"
       x2="413.779"
       y1="523.798"
       x1="424.602"
       id="linearGradient4257"
       xlink:href="#linearGradient4422-8" /><linearGradient
       id="linearGradient4438"><stop
         id="stop1352"
         offset="0"
         style="stop-color:#375a7d;stop-opacity:1" /><stop
         id="stop1354"
         offset="1"
         style="stop-color:#54a3d8;stop-opacity:1" /></linearGradient><linearGradient
       gradientTransform="translate(-384.57001,-499.79999)"
       gradientUnits="userSpaceOnUse"
       y2="525.748"
       x2="412.118"
       y1="543.488"
       x1="420.884"
       id="linearGradient4279"
       xlink:href="#linearGradient4438" /><linearGradient
       gradientTransform="translate(0.00142264,-0.00198746)"
       gradientUnits="userSpaceOnUse"
       y2="44"
       x2="44"
       y1="4"
       x1="4"
       id="linearGradient4220"
       xlink:href="#linearGradient935" /><linearGradient
       y2="63.237892"
       x2="25.795057"
       y1="45.090885"
       x1="4.0000091"
       gradientTransform="matrix(0.52916694,0,0,0.52916694,5.2916605,-5.8689402)"
       gradientUnits="userSpaceOnUse"
       id="linearGradient1337"
       xlink:href="#linearGradient908"
       inkscape:collect="always" /><linearGradient
       id="linearGradient908"
       inkscape:collect="always"><stop
         id="stop904"
         offset="0"
         style="stop-color:#00ff66;stop-opacity:1" /><stop
         id="stop906"
         offset="1"
         style="stop-color:#008034;stop-opacity:0.99590164" /></linearGradient></defs><g
     inkscape:label="Layer 1"
     inkscape:groupmode="layer"
     id="layer1"><g
       id="g1"><path
         style="fill:#000000;fill-opacity:0.196078;stroke:none;stroke-width:0.725255;stroke-miterlimit:4;stroke-dasharray:none;stroke-opacity:1;paint-order:markers stroke fill"
         d="m 27.463296,31.543821 6.216476,-9.324713 -6.216476,-2.072156 z"
         id="path1768"
         inkscape:connector-curvature="0"
         sodipodi:nodetypes="cccc" /></g><g
       inkscape:label="Layer 1"
       id="layer1-3"
       transform="translate(34.037907,-262.25668)" /><path
       id="rect835"
       style="fill:url(#linearGradient1121);fill-opacity:1;stroke:none;stroke-width:0.538209;stroke-linecap:round;paint-order:markers fill stroke;stop-color:#000000"
       d="M 4.7758649,3.574564 20.551928,5.1924669 21.825899,2.9483279 28.342403,3.5832176 28.89191,6.0545623 31.749998,6.3499997 27.463296,31.543821 4.4418767,23.818372 Z"
       sodipodi:nodetypes="ccccccccc" /><path
       style="fill:none;stroke:#000000;stroke-width:0.238125;stroke-linecap:butt;stroke-linejoin:miter;stroke-dasharray:none;stroke-opacity:1"
       d="M 4.4418767,23.818372 4.7758649,3.574564 20.551928,5.1924669 l 1.273971,-2.244139 6.516504,0.6348897 0.549507,2.4713447 2.858088,0.2954374 -4.286702,25.1938213 z"
       id="path1549"
       sodipodi:nodetypes="ccccccccc" /><path
       id="rect833"
       style="fill:url(#linearGradient1113);fill-opacity:1;stroke:none;stroke-width:0.517406;stroke-linecap:round;paint-order:markers fill stroke;stop-color:#000000"
       d="m 1.0146981,6.152543 14.2906539,3.2254836 0.927245,1.1847164 5.434145,1.220232 0.606984,-0.832144 2.297295,0.518513 2.892275,20.074477 -23.0214193,-7.725449 z"
       sodipodi:nodetypes="ccccccccc" /><path
       style="fill:none;stroke:#ffffff;stroke-width:0.47625;stroke-linecap:butt;stroke-linejoin:miter;stroke-dasharray:none;stroke-opacity:0.39"
       d="m 1.0613268,6.3928965 14.1844882,3.0942807 0.917322,1.1747938 5.568103,1.254962 0.602023,-0.842067 2.130537,0.487127 2.84854,19.802512"
       id="path2"
       sodipodi:nodetypes="ccccccc" /><path
       style="fill:none;stroke:#000000;stroke-width:0.238125;stroke-linecap:butt;stroke-linejoin:miter;stroke-dasharray:none;stroke-opacity:1"
       d="M 27.463296,31.543821 4.4418767,23.818372 1.0146981,6.152543 15.305352,9.3780266 l 0.927245,1.1847164 5.434145,1.220232 0.606984,-0.832144 2.297295,0.518513 2.892275,20.074477"
       id="path1553"
       sodipodi:nodetypes="ccccccccc" /><path
       sodipodi:nodetypes="sscsscs"
       inkscape:connector-curvature="0"
       style="fill:url(#linearGradient1337);fill-opacity:1;stroke:none;stroke-width:1.48167;stroke-linecap:square;stroke-linejoin:miter;stroke-miterlimit:4;stroke-dasharray:none;stroke-opacity:1;paint-order:fill markers stroke"
       d="m 9.1882577,17.197915 c -1.2752744,0 -2.3090894,1.03383 -2.3090894,2.3091 l -2e-6,8.8034 H 17.270074 c 1.275275,0 2.30909,-1.03381 2.30909,-2.30908 l 2e-6,-8.80342 z"
       id="path1325" /><path
       id="path1344"
       style="font-style:normal;font-variant:normal;font-weight:bold;font-stretch:normal;font-size:3.88056px;line-height:1.25;font-family:Ubuntu;-inkscape-font-specification:'Ubuntu Bold';letter-spacing:0px;word-spacing:0px;fill:#000000;fill-opacity:0.196078;stroke:none;stroke-width:0.529167"
       d="m 9.9818684,22.596945 q 0,0.43178 0.1016006,0.77893 0.110066,0.34712 0.3048,0.60113 0.203201,0.24552 0.491067,0.38099 0.287867,0.13549 0.660401,0.13549 0.364067,0 0.651934,-0.13549 0.296333,-0.13549 0.491067,-0.38099 0.203199,-0.25401 0.3048,-0.60113 0.110066,-0.34715 0.110066,-0.77893 0,-0.43181 -0.110066,-0.77896 -0.101601,-0.35559 -0.3048,-0.60113 -0.194734,-0.25399 -0.491067,-0.38946 -0.287867,-0.13549 -0.651934,-0.13549 -0.372534,0 -0.660401,0.144 -0.287867,0.13549 -0.491067,0.38946 -0.194734,0.24554 -0.3048,0.60113 -0.1016006,0.34715 -0.1016006,0.77049 z m 4.4788706,0 q 0,0.61806 -0.1524,1.11759 -0.1524,0.49106 -0.4318,0.86361 -0.270934,0.37252 -0.651934,0.61806 -0.381001,0.24552 -0.838201,0.35559 0.04233,0.16931 0.186266,0.27094 0.143935,0.10997 0.364067,0.17782 0.220134,0.0676 0.508001,0.10167 0.296333,0.0338 0.635,0.0593 l -0.270934,0.96519 q -0.6604,-0.0253 -1.134534,-0.13549 -0.465667,-0.10167 -0.795867,-0.28787 -0.321734,-0.18633 -0.516468,-0.4572 -0.186266,-0.27094 -0.287866,-0.62653 -0.524934,-0.0676 -0.973668,-0.28787 -0.4487333,-0.22861 -0.7789323,-0.6096 -0.3302,-0.38101 -0.5164664,-0.9144 -0.186267,-0.53341 -0.186267,-1.21073 0,-0.75354 0.237067,-1.32081 0.2370664,-0.57574 0.6349994,-0.96521 0.4064,-0.38946 0.9313333,-0.58419 0.533401,-0.19483 1.117601,-0.19483 0.601134,0 1.134535,0.19483 0.5334,0.19462 0.931334,0.58419 0.397934,0.38947 0.626534,0.96521 0.2286,0.56727 0.2286,1.32081 z" /><path
       id="path1346"
       style="font-style:normal;font-variant:normal;font-weight:bold;font-stretch:normal;font-size:3.88056px;line-height:1.25;font-family:Ubuntu;-inkscape-font-specification:'Ubuntu Bold';letter-spacing:0px;word-spacing:0px;fill:#000000;fill-opacity:0.196078;stroke:none;stroke-width:0.529167"
       d="m 15.434398,20.019035 1.261535,-0.20313 v 1.31232 h 1.515535 v 1.04987 h -1.515535 v 1.56635 q 0,0.39792 0.135467,0.635 0.143932,0.23705 0.567267,0.23705 0.2032,0 0.414867,-0.0338 0.220134,-0.0423 0.397934,-0.11018 l 0.177801,0.98215 q -0.228601,0.0932 -0.508001,0.1608 -0.2794,0.0676 -0.6858,0.0676 -0.516468,0 -0.855134,-0.13549 -0.338667,-0.144 -0.541868,-0.38945 -0.203199,-0.25401 -0.287867,-0.6096 -0.0762,-0.35559 -0.0762,-0.7874 z" /><path
       id="path1339"
       style="font-style:normal;font-variant:normal;font-weight:bold;font-stretch:normal;font-size:3.88056px;line-height:1.25;font-family:Ubuntu;-inkscape-font-specification:'Ubuntu Bold';letter-spacing:0px;word-spacing:0px;fill:#fffffb;fill-opacity:1;stroke:none;stroke-width:0.529167"
       d="m 9.6824917,22.280865 q 0,0.4318 0.1016,0.77893 0.110067,0.34712 0.3048003,0.60113 0.203199,0.24554 0.491067,0.38099 0.287867,0.13549 0.6604,0.13549 0.364068,0 0.651934,-0.13549 0.296334,-0.13549 0.491068,-0.38099 0.203199,-0.25401 0.3048,-0.60113 0.110066,-0.34713 0.110066,-0.77893 0,-0.43181 -0.110066,-0.77893 -0.101601,-0.35562 -0.3048,-0.60114 -0.194734,-0.25401 -0.491068,-0.38948 -0.287866,-0.13549 -0.651934,-0.13549 -0.372533,0 -0.6604,0.144 -0.287867,0.13549 -0.491067,0.38948 -0.1947333,0.24552 -0.3048003,0.60113 -0.1016,0.34713 -0.1016,0.77047 z m 4.4788703,0 q 0,0.61806 -0.1524,1.11759 -0.1524,0.49106 -0.431801,0.86361 -0.270933,0.37252 -0.651934,0.61806 -0.381,0.24554 -0.8382,0.35559 0.04233,0.16931 0.186266,0.27094 0.143932,0.11018 0.364067,0.17782 0.220133,0.0676 0.508,0.10167 0.296334,0.0338 0.635001,0.0593 l -0.270934,0.96521 q -0.6604,-0.0253 -1.134534,-0.13549 -0.465667,-0.10167 -0.795868,-0.28787 -0.321733,-0.18632 -0.516467,-0.4572 -0.186266,-0.27094 -0.287867,-0.62653 -0.524934,-0.0678 -0.9736663,-0.28787 -0.448733,-0.22861 -0.778932,-0.6096 -0.3302014,-0.38101 -0.5164684,-0.9144 -0.186266,-0.53341 -0.186266,-1.21073 0,-0.75354 0.237067,-1.32081 0.237067,-0.57574 0.6350004,-0.96519 0.406399,-0.38948 0.9313323,-0.5842 0.533401,-0.19462 1.117601,-0.19462 0.601134,0 1.134535,0.19462 0.5334,0.19461 0.931334,0.5842 0.397934,0.38945 0.626534,0.96519 0.2286,0.56727 0.2286,1.32081 z" /><path
       id="path1341"
       style="font-style:normal;font-variant:normal;font-weight:bold;font-stretch:normal;font-size:3.88056px;line-height:1.25;font-family:Ubuntu;-inkscape-font-specification:'Ubuntu Bold';letter-spacing:0px;word-spacing:0px;fill:#fffffb;fill-opacity:1;stroke:none;stroke-width:0.529167"
       d="m 15.135021,19.656175 1.261535,-0.20312 v 1.31234 h 1.515534 v 1.04987 h -1.515534 v 1.56632 q 0,0.39795 0.135467,0.635 0.143932,0.23708 0.567267,0.23708 0.203199,0 0.414867,-0.0338 0.220133,-0.0423 0.397933,-0.11018 l 0.177801,0.98212 q -0.2286,0.0932 -0.508,0.1608 -0.279401,0.0676 -0.685801,0.0676 -0.516467,0 -0.855134,-0.1355 -0.338667,-0.144 -0.541867,-0.38947 -0.203202,-0.25399 -0.287867,-0.6096 -0.0762,-0.35559 -0.0762,-0.7874 z" /><path
       sodipodi:nodetypes="sscsscs"
       inkscape:connector-curvature="0"
       style="fill:none;fill-opacity:1;stroke:#000000;stroke-width:0.238125;stroke-linecap:square;stroke-linejoin:miter;stroke-miterlimit:4;stroke-dasharray:none;stroke-opacity:1;paint-order:fill markers stroke"
       d="m 9.1882577,17.197915 c -1.2752744,0 -2.3090894,1.03383 -2.3090894,2.3091 l -2e-6,8.8034 H 17.270074 c 1.275275,0 2.30909,-1.03381 2.30909,-2.30908 l 2e-6,-8.80342 z"
       id="path1393" /></g></svg>
