<?xml version="1.0" encoding="UTF-8" standalone="no"?>
<!-- Created with Inkscape (http://www.inkscape.org/) -->

<svg
   width="128"
   height="128"
   viewBox="0 0 33.866666 33.866666"
   version="1.1"
   id="svg5"
   xml:space="preserve"
   inkscape:version="1.3 (0e150ed6c4, 2023-07-21)"
   sodipodi:docname="folder-rust1.svg"
   xmlns:inkscape="http://www.inkscape.org/namespaces/inkscape"
   xmlns:sodipodi="http://sodipodi.sourceforge.net/DTD/sodipodi-0.dtd"
   xmlns:xlink="http://www.w3.org/1999/xlink"
   xmlns="http://www.w3.org/2000/svg"
   xmlns:svg="http://www.w3.org/2000/svg"><sodipodi:namedview
     id="namedview7"
     pagecolor="#ffffff"
     bordercolor="#000000"
     borderopacity="0.10196078"
     inkscape:showpageshadow="true"
     inkscape:pageopacity="0"
     inkscape:pagecheckerboard="false"
     inkscape:deskcolor="#dbdbdb"
     inkscape:document-units="px"
     showgrid="false"
     borderlayer="true"
     inkscape:zoom="6.4453125"
     inkscape:cx="64"
     inkscape:cy="64"
     inkscape:window-width="1920"
     inkscape:window-height="1093"
     inkscape:window-x="0"
     inkscape:window-y="0"
     inkscape:window-maximized="1"
     inkscape:current-layer="layer1"
     showguides="true"><inkscape:grid
       type="xygrid"
       id="grid16"
       originx="0"
       originy="0"
       spacingy="0.26458333"
       spacingx="0.26458333"
       units="px"
       visible="false"
       empcolor="#cc3d3d"
       empopacity="0.30196078"
       empspacing="4" /><sodipodi:guide
       position="6.8791663,2.1166677"
       orientation="1,0"
       id="guide182"
       inkscape:locked="false" /><sodipodi:guide
       position="19.579166,1.0583344"
       orientation="1,0"
       id="guide184"
       inkscape:locked="false" /><sodipodi:guide
       position="14.287499,4.7625009"
       orientation="0,-1"
       id="guide186"
       inkscape:locked="false" /><sodipodi:guide
       position="10.847916,17.4625"
       orientation="0,-1"
       id="guide188"
       inkscape:locked="false" /></sodipodi:namedview><defs
     id="defs2"><inkscape:path-effect
       effect="perspective-envelope"
       up_left_point="1.9896238,6.1765724"
       up_right_point="27.218606,7.5797374"
       down_left_point="2.0831681,31.10885"
       down_right_point="28.574999,31.576572"
       id="path-effect2835"
       is_visible="true"
       lpeversion="1"
       deform_type="perspective"
       horizontal_mirror="false"
       vertical_mirror="false"
       overflow_perspective="false" /><inkscape:path-effect
       effect="perspective-envelope"
       up_left_point="4.8239449,3.6495202"
       up_right_point="32.914643,2.1060387"
       down_left_point="5.2916666,31.56785"
       down_right_point="31.605022,31.56785"
       id="path-effect2833"
       is_visible="true"
       lpeversion="1"
       deform_type="perspective"
       horizontal_mirror="false"
       vertical_mirror="false"
       overflow_perspective="false" /><inkscape:path-effect
       effect="perspective-envelope"
       up_left_point="6.333243,3.4019982"
       up_right_point="31.732065,3.4019982"
       down_left_point="5.4567911,31.749999"
       down_right_point="31.732065,31.749999"
       id="path-effect13169"
       is_visible="true"
       lpeversion="1"
       deform_type="perspective"
       horizontal_mirror="false"
       vertical_mirror="false"
       overflow_perspective="false" /><inkscape:path-effect
       effect="perspective-envelope"
       up_left_point="5.4567911,3.4019982"
       up_right_point="31.732065,3.4019982"
       down_left_point="5.4567911,31.749999"
       down_right_point="31.732065,31.749999"
       id="path-effect13167"
       is_visible="true"
       lpeversion="1"
       deform_type="perspective"
       horizontal_mirror="false"
       vertical_mirror="false"
       overflow_perspective="false" /><inkscape:path-effect
       effect="perspective-envelope"
       up_left_point="5.539493,3.4019982"
       up_right_point="31.732065,3.6087959"
       down_left_point="4.7624999,31.749999"
       down_right_point="31.732065,31.749999"
       id="path-effect13165"
       is_visible="true"
       lpeversion="1"
       deform_type="perspective"
       horizontal_mirror="false"
       vertical_mirror="false"
       overflow_perspective="false" /><inkscape:path-effect
       effect="perspective-envelope"
       up_left_point="5.539493,3.4019982"
       up_right_point="31.732065,3.6087959"
       down_left_point="4.7624999,31.749999"
       down_right_point="31.732065,31.749999"
       id="path-effect13163"
       is_visible="true"
       lpeversion="1"
       deform_type="perspective"
       horizontal_mirror="false"
       vertical_mirror="false"
       overflow_perspective="false" /><inkscape:path-effect
       effect="perspective-envelope"
       up_left_point="2.1166666,6.3499999"
       up_right_point="28.574999,5.2916666"
       down_left_point="3.0219846,31.749999"
       down_right_point="29.08424,31.749999"
       id="path-effect12133"
       is_visible="true"
       lpeversion="1"
       deform_type="perspective"
       horizontal_mirror="false"
       vertical_mirror="false"
       overflow_perspective="false" /><inkscape:path-effect
       effect="perspective-envelope"
       up_left_point="4.7624999,3.4395833"
       up_right_point="31.749999,3.9687499"
       down_left_point="4.7624999,31.749999"
       down_right_point="31.608553,31.749999"
       id="path-effect12131"
       is_visible="true"
       lpeversion="1"
       deform_type="perspective"
       horizontal_mirror="false"
       vertical_mirror="false"
       overflow_perspective="false" /><inkscape:path-effect
       effect="perspective-envelope"
       up_left_point="2.1166666,6.3499999"
       up_right_point="28.574999,8.4666665"
       down_left_point="1.0583333,31.749999"
       down_right_point="28.574999,31.749999"
       id="path-effect12129"
       is_visible="true"
       lpeversion="1"
       deform_type="perspective"
       horizontal_mirror="false"
       vertical_mirror="false"
       overflow_perspective="false" /><inkscape:path-effect
       effect="perspective-envelope"
       up_left_point="3.1749999,3.1749999"
       up_right_point="31.749999,4.2333332"
       down_left_point="3.1749999,31.749999"
       down_right_point="30.516433,31.749999"
       id="path-effect12105"
       is_visible="true"
       lpeversion="1"
       deform_type="perspective"
       horizontal_mirror="false"
       vertical_mirror="false"
       overflow_perspective="false" /><inkscape:path-effect
       effect="perspective-envelope"
       up_left_point="1.0583333,8.4666665"
       up_right_point="28.574999,7.4083333"
       down_left_point="1.0583338,31.749999"
       down_right_point="28.574999,31.749999"
       id="path-effect12103"
       is_visible="true"
       lpeversion="1"
       deform_type="perspective"
       horizontal_mirror="false"
       vertical_mirror="false"
       overflow_perspective="false" /><inkscape:path-effect
       effect="perspective-envelope"
       up_left_point="1.0583333,7.4083332"
       up_right_point="26.458333,11.641666"
       down_left_point="3.1749999,27.516666"
       down_right_point="28.574999,31.749999"
       id="path-effect12101"
       is_visible="true"
       lpeversion="1"
       deform_type="perspective"
       horizontal_mirror="false"
       vertical_mirror="false"
       overflow_perspective="false" /><inkscape:path-effect
       effect="perspective-envelope"
       up_left_point="5.2916666,3.1749999"
       up_right_point="30.691666,5.2916666"
       down_left_point="3.1749999,27.516666"
       down_right_point="28.574999,31.749999"
       id="path-effect12099"
       is_visible="true"
       lpeversion="1"
       deform_type="perspective"
       horizontal_mirror="false"
       vertical_mirror="false"
       overflow_perspective="false" /><inkscape:path-effect
       effect="perspective-envelope"
       up_left_point="4.2333332,8.4666665"
       up_right_point="27.516666,8.4666665"
       down_left_point="2.6458333,32.279166"
       down_right_point="27.516666,31.75"
       id="path-effect12087"
       is_visible="true"
       lpeversion="1"
       deform_type="perspective"
       horizontal_mirror="false"
       vertical_mirror="false"
       overflow_perspective="false" /><inkscape:path-effect
       effect="perspective-envelope"
       up_left_point="6.8791665,5.5562499"
       up_right_point="30.691666,5.2916666"
       down_left_point="6.8791665,31.749999"
       down_right_point="29.633333,31.749999"
       id="path-effect12085"
       is_visible="true"
       lpeversion="1"
       deform_type="perspective"
       horizontal_mirror="false"
       vertical_mirror="false"
       overflow_perspective="false" /><linearGradient
       inkscape:collect="always"
       id="linearGradient935"><stop
         style="stop-color:#000000;stop-opacity:1;"
         offset="0"
         id="stop931" /><stop
         style="stop-color:#000000;stop-opacity:0;"
         offset="1"
         id="stop933" /></linearGradient><linearGradient
       id="linearGradient4381"
       inkscape:collect="always"><stop
         id="stop4377"
         offset="0"
         style="stop-color:#fafafa;stop-opacity:0" /><stop
         id="stop4379"
         offset="1"
         style="stop-color:#252525;stop-opacity:0.65022421" /></linearGradient><linearGradient
       inkscape:collect="always"
       id="linearGradient4365"><stop
         style="stop-color:#e1bf8d;stop-opacity:1"
         offset="0"
         id="stop4361" /><stop
         style="stop-color:#6a4504;stop-opacity:1"
         offset="1"
         id="stop4363" /></linearGradient><linearGradient
       inkscape:collect="always"
       id="linearGradient4406"><stop
         style="stop-color:#cccccc;stop-opacity:1;"
         offset="0"
         id="stop4402" /><stop
         style="stop-color:#949494;stop-opacity:1;"
         offset="0.31521663"
         id="stop2" /><stop
         style="stop-color:#666666;stop-opacity:1;"
         offset="0.70005435"
         id="stop3" /><stop
         style="stop-color:#4d4d4d;stop-opacity:1;"
         offset="1"
         id="stop4404" /></linearGradient><linearGradient
       inkscape:collect="always"
       xlink:href="#linearGradient4381"
       id="linearGradient4385"
       gradientUnits="userSpaceOnUse"
       gradientTransform="matrix(4,0,0,4,-32.918811,-875.69414)"
       x1="13.6755"
       y1="290.15854"
       x2="13.042861"
       y2="291.61517" /><linearGradient
       inkscape:collect="always"
       xlink:href="#linearGradient4406"
       id="linearGradient1113"
       gradientUnits="userSpaceOnUse"
       x1="6.0194192"
       y1="273.93912"
       x2="27.019419"
       y2="296.93912"
       gradientTransform="translate(-0.99434467,-262.96315)" /><linearGradient
       inkscape:collect="always"
       xlink:href="#linearGradient4365"
       id="linearGradient1121"
       x1="26.882687"
       y1="269.4577"
       x2="27.600334"
       y2="288.55664"
       gradientUnits="userSpaceOnUse"
       gradientTransform="translate(-0.99434467,-262.96315)" /><linearGradient
       id="linearGradient4537"
       inkscape:collect="always"><stop
         id="stop4533"
         offset="0"
         style="stop-color:#ffffff;stop-opacity:1;" /><stop
         style="stop-color:#ffffff;stop-opacity:1"
         offset="0.58333331"
         id="stop4541" /><stop
         id="stop4543"
         offset="0.83333331"
         style="stop-color:#bababa;stop-opacity:1;" /><stop
         id="stop4535"
         offset="1"
         style="stop-color:#757575;stop-opacity:1" /></linearGradient><linearGradient
       gradientTransform="matrix(4,0,0,4,5.2916666,-893.11669)"
       gradientUnits="userSpaceOnUse"
       y2="295.41251"
       x2="5.0270834"
       y1="292.50208"
       x1="0.79374999"
       id="linearGradient4539"
       xlink:href="#linearGradient4537"
       inkscape:collect="always" /><linearGradient
       id="linearGradient4454"><stop
         id="stop1334"
         offset="0"
         style="stop-color:#d21e1e;stop-opacity:1" /><stop
         id="stop1336"
         offset="1"
         style="stop-color:#e05e4c;stop-opacity:1" /></linearGradient><linearGradient
       gradientTransform="translate(-384.57001,-499.79999)"
       gradientUnits="userSpaceOnUse"
       y2="525.725"
       x2="391.89"
       y1="544.092"
       x1="403.421"
       id="linearGradient4213"
       xlink:href="#linearGradient4454" /><linearGradient
       id="linearGradient4472"><stop
         id="stop1340"
         offset="0"
         style="stop-color:#ffa92d;stop-opacity:1" /><stop
         id="stop1342"
         offset="1"
         style="stop-color:#ffc169;stop-opacity:1" /></linearGradient><linearGradient
       gradientTransform="translate(-384.57001,-499.79999)"
       gradientUnits="userSpaceOnUse"
       y2="505.319"
       x2="391.154"
       y1="523.203"
       x1="401.296"
       id="linearGradient4235"
       xlink:href="#linearGradient4472" /><linearGradient
       id="linearGradient4422-8"><stop
         id="stop1346"
         offset="0"
         style="stop-color:#377d50;stop-opacity:1" /><stop
         id="stop1348"
         offset="1"
         style="stop-color:#54d883;stop-opacity:1" /></linearGradient><linearGradient
       gradientTransform="translate(-384.57001,-499.79999)"
       gradientUnits="userSpaceOnUse"
       y2="503.798"
       x2="413.779"
       y1="523.798"
       x1="424.602"
       id="linearGradient4257"
       xlink:href="#linearGradient4422-8" /><linearGradient
       id="linearGradient4438"><stop
         id="stop1352"
         offset="0"
         style="stop-color:#375a7d;stop-opacity:1" /><stop
         id="stop1354"
         offset="1"
         style="stop-color:#54a3d8;stop-opacity:1" /></linearGradient><linearGradient
       gradientTransform="translate(-384.57001,-499.79999)"
       gradientUnits="userSpaceOnUse"
       y2="525.748"
       x2="412.118"
       y1="543.488"
       x1="420.884"
       id="linearGradient4279"
       xlink:href="#linearGradient4438" /><linearGradient
       gradientTransform="translate(0.00142264,-0.00198746)"
       gradientUnits="userSpaceOnUse"
       y2="44"
       x2="44"
       y1="4"
       x1="4"
       id="linearGradient4220"
       xlink:href="#linearGradient935" /><linearGradient
       id="prefix___Linear2"
       gradientTransform="scale(1,-1)"
       gradientUnits="userSpaceOnUse"
       x1="0"
       x2="1"
       y1="0"
       y2="0"><stop
         offset="0"
         stop-color="#cc3a00"
         id="stop4" /><stop
         offset=".15"
         stop-color="#cc3a00"
         id="stop5" /><stop
         offset=".74"
         stop-color="#f74c00"
         id="stop6" /><stop
         offset="1"
         stop-color="#f74c00"
         id="stop7" /></linearGradient><linearGradient
       id="prefix___Linear1"
       gradientTransform="matrix(-17.412118,-199.02142,199.02142,-17.412118,163.56149,210.79065)"
       gradientUnits="userSpaceOnUse"
       x1="0.97047704"
       x2="1.0316277"
       y1="-0.65673846"
       y2="-0.65670621"><stop
         offset="0"
         stop-color="#f74c00"
         id="stop9" /><stop
         offset=".33"
         stop-color="#f74c00"
         id="stop10" /><stop
         offset="1"
         stop-color="#f49600"
         id="stop11" /></linearGradient><linearGradient
       inkscape:collect="always"
       xlink:href="#prefix___Linear2"
       id="linearGradient7"
       gradientUnits="userSpaceOnUse"
       gradientTransform="matrix(0,-70.699571,70.699571,0,213.24496,202.17583)"
       x1="0"
       y1="0"
       x2="1"
       y2="0" /></defs><g
     inkscape:label="Layer 1"
     inkscape:groupmode="layer"
     id="layer1"><g
       id="g1"><path
         style="fill:#000000;fill-opacity:0.196078;stroke:none;stroke-width:0.725255;stroke-miterlimit:4;stroke-dasharray:none;stroke-opacity:1;paint-order:markers stroke fill"
         d="m 27.463296,31.543821 6.216476,-9.324713 -6.216476,-2.072156 z"
         id="path1768"
         inkscape:connector-curvature="0"
         sodipodi:nodetypes="cccc" /></g><g
       inkscape:label="Layer 1"
       id="layer1-3"
       transform="translate(34.037907,-262.25668)" /><path
       id="rect835"
       style="fill:url(#linearGradient1121);fill-opacity:1;stroke:none;stroke-width:0.538209;stroke-linecap:round;paint-order:markers fill stroke;stop-color:#000000"
       d="M 4.7758649,3.574564 20.551928,5.1924669 21.825899,2.9483279 28.342403,3.5832176 28.89191,6.0545623 31.749998,6.3499997 27.463296,31.543821 4.4418767,23.818372 Z"
       sodipodi:nodetypes="ccccccccc" /><path
       style="fill:none;stroke:#000000;stroke-width:0.238125;stroke-linecap:butt;stroke-linejoin:miter;stroke-dasharray:none;stroke-opacity:1"
       d="M 4.4418767,23.818372 4.7758649,3.574564 20.551928,5.1924669 l 1.273971,-2.244139 6.516504,0.6348897 0.549507,2.4713447 2.858088,0.2954374 -4.286702,25.1938213 z"
       id="path1549"
       sodipodi:nodetypes="ccccccccc" /><path
       id="rect833"
       style="fill:url(#linearGradient1113);fill-opacity:1;stroke:none;stroke-width:0.517406;stroke-linecap:round;paint-order:markers fill stroke;stop-color:#000000"
       d="m 1.0146981,6.152543 14.2906539,3.2254836 0.927245,1.1847164 5.434145,1.220232 0.606984,-0.832144 2.297295,0.518513 2.892275,20.074477 -23.0214193,-7.725449 z"
       sodipodi:nodetypes="ccccccccc" /><path
       style="fill:none;stroke:#ffffff;stroke-width:0.47625;stroke-linecap:butt;stroke-linejoin:miter;stroke-dasharray:none;stroke-opacity:0.39"
       d="m 1.0613268,6.3928965 14.1844882,3.0942807 0.917322,1.1747938 5.568103,1.254962 0.602023,-0.842067 2.130537,0.487127 2.84854,19.802512"
       id="path2"
       sodipodi:nodetypes="ccccccc" /><path
       style="fill:none;stroke:#000000;stroke-width:0.238125;stroke-linecap:butt;stroke-linejoin:miter;stroke-dasharray:none;stroke-opacity:1"
       d="M 27.463296,31.543821 4.4418767,23.818372 1.0146981,6.152543 15.305352,9.3780266 l 0.927245,1.1847164 5.434145,1.220232 0.606984,-0.832144 2.297295,0.518513 2.892275,20.074477"
       id="path1553"
       sodipodi:nodetypes="ccccccccc" /><path
       id="path8"
       style="fill:url(#prefix___Linear1);stroke-width:199.782"
       d="m 13.316708,17.972805 c -0.07799,-0.0043 -0.151412,0.0464 -0.189653,0.116272 l -0.406176,0.678511 -0.197921,0.01757 -0.528133,-0.58601 a 0.19883793,0.19883793 0 0 0 -0.205672,-0.0708 0.24302413,0.24302413 0 0 0 -0.164848,0.147795 l -0.266651,0.754992 A 0.93895687,0.93895687 0 0 0 11.17472,19.0916 l -0.629419,-0.476974 c -0.05887,-0.0392 -0.148805,-0.05363 -0.212907,-0.02584 a 0.25407068,0.25407068 0 0 0 -0.140043,0.178284 l -0.129708,0.798917 -0.1689817,0.0925 -0.694014,-0.327628 a 0.19883793,0.19883793 0 0 0 -0.220142,0.01912 c -0.06314,0.03879 -0.1006382,0.119926 -0.1049032,0.197921 l 0.026355,0.807185 -0.1441773,0.123507 -0.7477579,-0.1788 c -0.07992,-0.02627 -0.1547944,0.0028 -0.2160075,0.06356 a 0.24302413,0.24302413 0 0 0 -0.058911,0.21549 l 0.1793172,0.782898 a 1.7011689,1.7011689 0 0 0 -0.1193726,0.154513 l -0.7792806,-0.03152 a 0.19883793,0.19883793 0 0 0 -0.1901692,0.10542 c -0.038242,0.06988 -0.052672,0.15995 -0.012919,0.234094 l 0.3188435,0.726054 -0.095601,0.174667 -0.7534423,0.132291 a 0.22093103,0.22093103 0 0 0 -0.1767334,0.13746 0.28721033,0.28721033 0 0 0 0.020154,0.230993 l 0.4557861,0.648023 -0.00775,0.03359 -1.2789917,1.353923 c 0,0 -0.1863956,0.149687 0.0894,0.513664 0.2489732,0.310879 1.5339524,1.562258 2.2127848,2.223636 A 2.9494292,2.9494292 0 0 0 8.096355,28.519965 C 8.126484,28.484065 7.9624947,27.877742 7.4018238,27.17276 6.968942,26.53422 6.406137,25.552192 6.5295256,25.4416 c 0,0 0.1499006,-0.190698 0.4594035,-0.328663 0,0 0.3632621,0.165338 0.9808187,0.376722 1.1978965,1.907672 2.0737752,1.937866 2.0737752,1.937866 1.993169,2.55615 2.937288,0.503328 2.937288,0.503328 C 11.861839,27.804969 11.06775,27.060622 11.06775,27.060622 12.410515,26.88928 13.187,26.875104 13.187,26.875104 13.05112,26.69587 12.91751,26.545138 12.785991,26.414667 c 0.381104,0.01774 0.773798,0.02018 1.174088,0.0083 -0.118661,0.135853 -0.239437,0.291113 -0.363285,0.470772 0,0 0.566534,-0.328745 2.087211,0.0739 0,0 -0.699537,1.071295 -2.106848,1.036112 0,0 1.348722,1.622272 3.40496,-0.719336 0,0 1.73738,-0.673244 2.230355,-2.104781 0.01476,-0.0071 0.02969,-0.01293 0.04444,-0.02015 0.676501,-0.125719 1.085205,0.237712 1.085205,0.237712 0.140719,0.08749 -0.225629,1.095679 -0.521932,1.76475 -0.410614,0.756691 -0.469537,1.349271 -0.434599,1.368392 a 2.7064051,2.7064051 0 0 0 0.381889,-0.576709 c 0.524509,-0.722301 1.50142,-2.104806 1.682584,-2.442228 0.210328,-0.38433 5.17e-4,-0.499195 5.17e-4,-0.499195 l -1.362707,-1.000972 -0.03462,-0.141077 0.442351,-0.648539 c 0.05021,-0.05984 0.05355,-0.148653 0.0248,-0.223759 a 0.22093103,0.22093103 0 0 0 -0.167431,-0.14056 l -0.765845,-0.132808 -0.08113,-0.170016 0.312126,-0.737422 a 0.22093103,0.22093103 0 0 0 -0.02015,-0.230994 c -0.03879,-0.06314 -0.108487,-0.101309 -0.185519,-0.09457 l -0.774112,0.02325 -0.124541,-0.155547 0.1757,-0.780314 a 0.25407068,0.25407068 0 0 0 -0.05219,-0.217041 0.22093103,0.22093103 0 0 0 -0.217041,-0.06976 l -0.748792,0.187586 a 1.7011689,1.7011689 0 0 1 -0.144177,-0.131775 l 0.0186,-0.799951 a 0.25407068,0.25407068 0 0 0 -0.0956,-0.202572 0.19883793,0.19883793 0 0 0 -0.222725,-0.01344 l -0.692464,0.326595 -0.174667,-0.0956 -0.124023,-0.787549 a 0.22093103,0.22093103 0 0 0 -0.137459,-0.176217 0.19883793,0.19883793 0 0 0 -0.220142,0.01912 l -0.624768,0.465087 -0.181901,-0.05064 -0.2651,-0.753443 a 0.23197758,0.23197758 0 0 0 -0.168982,-0.151412 0.23197758,0.23197758 0 0 0 -0.214974,0.07441 l -0.525033,0.589112 -0.191202,-0.02739 -0.40256,-0.674377 a 0.22093103,0.22093103 0 0 0 -0.187585,-0.116789 z m 4.792989,7.6755 c -0.240044,0.262668 -0.566825,0.556135 -1.010274,0.854212 l -0.394808,0.09405 c 0,0 -0.122478,-0.22197 -0.343649,-0.452169 0.578869,-0.120443 1.163785,-0.281799 1.748731,-0.496094 z m -9.0113357,0.181901 c 0.403781,0.108229 0.846194,0.214204 1.3368687,0.306442 -0.318492,0.243306 -0.5038447,0.514697 -0.5038447,0.514697 -0.289536,-0.105792 -0.584894,-0.449247 -0.833024,-0.821139 z" /><path
       d="m 14.519441,23.479258 c 0,0 0.636185,-0.69659 1.272398,0 0,0 0.499895,0.928865 0,1.393239 0,0 -0.817972,0.6502 -1.272398,0 0,0 -0.54532,-0.510881 0,-1.393239"
       fill-rule="nonzero"
       id="path11"
       style="stroke-width:0.264583" /><path
       d="m 15.255985,23.737676 c 0,0.271248 -0.159902,0.491146 -0.35708,0.491146 -0.197164,0 -0.357051,-0.219898 -0.357051,-0.491146 0,-0.271248 0.159887,-0.491176 0.357051,-0.491176 0.197178,0 0.35708,0.219928 0.35708,0.491176"
       fill="#ffffff"
       fill-rule="nonzero"
       id="path12"
       style="stroke-width:0.264583" /><path
       d="m 11.679945,23.289044 c 0,0 1.091313,-0.483188 1.389172,0.595294 0,0 0.312007,1.257066 -0.896196,1.32802 0,0 -1.540647,-0.296733 -0.492976,-1.923314"
       fill-rule="nonzero"
       id="path13"
       style="stroke-width:0.264583" /><path
       d="m 12.22806,23.75548 c 0,0.279704 -0.164877,0.506581 -0.368272,0.506581 -0.203323,0 -0.368243,-0.226877 -0.368243,-0.506581 0,-0.279777 0.16492,-0.50658 0.368243,-0.50658 0.203395,0 0.368272,0.226803 0.368272,0.50658"
       fill="#ffffff"
       fill-rule="nonzero"
       id="path14"
       style="stroke-width:0.264583" /><path
       d="m 16.704607,26.596607 c 0,0 -1.286126,-2.345519 -3.107813,0.2971"
       fill="url(#prefix___Linear2)"
       fill-rule="nonzero"
       id="path5"
       style="fill:url(#linearGradient7);stroke:#000000;stroke-width:0.238125;stroke-dasharray:none;stroke-opacity:1"
       sodipodi:nodetypes="cc" /><path
       d="M 13.186897,26.875139 C 11.389546,24.504315 9.9313853,26.651345 9.9313853,26.651345"
       fill="url(#prefix___Linear2)"
       fill-rule="nonzero"
       id="path6"
       style="fill:none;stroke:#000000;stroke-width:0.238125;stroke-dasharray:none;stroke-opacity:1"
       sodipodi:nodetypes="cc" /><path
       id="path7"
       style="fill:none;stroke:#000000;stroke-width:0.238125;stroke-dasharray:none;stroke-opacity:1"
       d="m 13.316708,17.972805 c -0.07799,-0.0043 -0.151412,0.0464 -0.189653,0.116272 l -0.406176,0.678511 -0.197921,0.01757 -0.528133,-0.58601 a 0.19883793,0.19883793 0 0 0 -0.205672,-0.0708 0.24302413,0.24302413 0 0 0 -0.164848,0.147795 l -0.266651,0.754992 A 0.93895687,0.93895687 0 0 0 11.17472,19.0916 l -0.629419,-0.476974 c -0.05887,-0.0392 -0.148805,-0.05363 -0.212907,-0.02584 a 0.25407068,0.25407068 0 0 0 -0.140043,0.178284 l -0.129708,0.798917 -0.1689817,0.0925 -0.694014,-0.327628 a 0.19883793,0.19883793 0 0 0 -0.220142,0.01912 c -0.06314,0.03879 -0.1006382,0.119926 -0.1049032,0.197921 l 0.026355,0.807185 -0.1441773,0.123507 -0.7477579,-0.1788 c -0.07992,-0.02627 -0.1547944,0.0028 -0.2160075,0.06356 a 0.24302413,0.24302413 0 0 0 -0.058911,0.21549 l 0.1793172,0.782898 a 1.7011689,1.7011689 0 0 0 -0.1193726,0.154513 l -0.7792806,-0.03152 a 0.19883793,0.19883793 0 0 0 -0.1901692,0.10542 c -0.038242,0.06988 -0.052672,0.15995 -0.012919,0.234094 l 0.3188435,0.726054 -0.095601,0.174667 -0.7534423,0.132291 a 0.22093103,0.22093103 0 0 0 -0.1767334,0.13746 0.28721033,0.28721033 0 0 0 0.020154,0.230993 l 0.4557861,0.648023 -0.00775,0.03359 -1.2789917,1.353923 c 0,0 -0.1863956,0.149687 0.0894,0.513664 0.2489732,0.310879 1.5339524,1.562258 2.2127848,2.223636 A 2.9494292,2.9494292 0 0 0 8.096355,28.519965 C 8.126484,28.484065 7.9624947,27.877742 7.4018238,27.17276 6.968942,26.53422 6.406137,25.552192 6.5295256,25.4416 c 0,0 0.1499006,-0.190698 0.4594035,-0.328663 0,0 0.3632621,0.165338 0.9808187,0.376722 1.1978965,1.907672 2.0737752,1.937866 2.0737752,1.937866 1.993169,2.55615 2.937288,0.503328 2.937288,0.503328 C 11.861839,27.804969 11.06775,27.060622 11.06775,27.060622 12.410515,26.88928 13.187,26.875104 13.187,26.875104 13.05112,26.69587 12.91751,26.545138 12.785991,26.414667 c 0.381104,0.01774 0.773798,0.02018 1.174088,0.0083 -0.118661,0.135853 -0.239437,0.291113 -0.363285,0.470772 0,0 0.566534,-0.328745 2.087211,0.0739 0,0 -0.699537,1.071295 -2.106848,1.036112 0,0 1.348722,1.622272 3.40496,-0.719336 0,0 1.73738,-0.673244 2.230355,-2.104781 0.01476,-0.0071 0.02969,-0.01293 0.04444,-0.02015 0.676501,-0.125719 1.085205,0.237712 1.085205,0.237712 0.140719,0.08749 -0.225629,1.095679 -0.521932,1.76475 -0.410614,0.756691 -0.469537,1.349271 -0.434599,1.368392 a 2.7064051,2.7064051 0 0 0 0.381889,-0.576709 c 0.524509,-0.722301 1.50142,-2.104806 1.682584,-2.442228 0.210328,-0.38433 5.17e-4,-0.499195 5.17e-4,-0.499195 l -1.362707,-1.000972 -0.03462,-0.141077 0.442351,-0.648539 c 0.05021,-0.05984 0.05355,-0.148653 0.0248,-0.223759 a 0.22093103,0.22093103 0 0 0 -0.167431,-0.14056 l -0.765845,-0.132808 -0.08113,-0.170016 0.312126,-0.737422 a 0.22093103,0.22093103 0 0 0 -0.02015,-0.230994 c -0.03879,-0.06314 -0.108487,-0.101309 -0.185519,-0.09457 l -0.774112,0.02325 -0.124541,-0.155547 0.1757,-0.780314 a 0.25407068,0.25407068 0 0 0 -0.05219,-0.217041 0.22093103,0.22093103 0 0 0 -0.217041,-0.06976 l -0.748792,0.187586 a 1.7011689,1.7011689 0 0 1 -0.144177,-0.131775 l 0.0186,-0.799951 a 0.25407068,0.25407068 0 0 0 -0.0956,-0.202572 0.19883793,0.19883793 0 0 0 -0.222725,-0.01344 l -0.692464,0.326595 -0.174667,-0.0956 -0.124023,-0.787549 a 0.22093103,0.22093103 0 0 0 -0.137459,-0.176217 0.19883793,0.19883793 0 0 0 -0.220142,0.01912 l -0.624768,0.465087 -0.181901,-0.05064 -0.2651,-0.753443 a 0.23197758,0.23197758 0 0 0 -0.168982,-0.151412 0.23197758,0.23197758 0 0 0 -0.214974,0.07441 l -0.525033,0.589112 -0.191202,-0.02739 -0.40256,-0.674377 a 0.22093103,0.22093103 0 0 0 -0.187585,-0.116789 z m 4.792989,7.6755 c -0.240044,0.262668 -0.566825,0.556135 -1.010274,0.854212 l -0.394808,0.09405 c 0,0 -0.122478,-0.22197 -0.343649,-0.452169 0.578869,-0.120443 1.163785,-0.281799 1.748731,-0.496094 z m -9.0113357,0.181901 c 0.403781,0.108229 0.846194,0.214204 1.3368687,0.306442 -0.318492,0.243306 -0.5038447,0.514697 -0.5038447,0.514697 -0.289536,-0.105792 -0.584894,-0.449247 -0.833024,-0.821139 z" /></g></svg>
