<?xml version="1.0" encoding="UTF-8" standalone="no"?>
<!-- Created with Inkscape (http://www.inkscape.org/) -->

<svg
   width="128"
   height="128"
   viewBox="0 0 33.866666 33.866666"
   version="1.1"
   id="svg5"
   xml:space="preserve"
   inkscape:version="1.3 (0e150ed6c4, 2023-07-21)"
   sodipodi:docname="folder-drawing.svg"
   xmlns:inkscape="http://www.inkscape.org/namespaces/inkscape"
   xmlns:sodipodi="http://sodipodi.sourceforge.net/DTD/sodipodi-0.dtd"
   xmlns:xlink="http://www.w3.org/1999/xlink"
   xmlns="http://www.w3.org/2000/svg"
   xmlns:svg="http://www.w3.org/2000/svg"><sodipodi:namedview
     id="namedview7"
     pagecolor="#ffffff"
     bordercolor="#000000"
     borderopacity="0.10196078"
     inkscape:showpageshadow="true"
     inkscape:pageopacity="0"
     inkscape:pagecheckerboard="false"
     inkscape:deskcolor="#dbdbdb"
     inkscape:document-units="px"
     showgrid="false"
     borderlayer="true"
     inkscape:zoom="6.4453125"
     inkscape:cx="64"
     inkscape:cy="64"
     inkscape:window-width="1920"
     inkscape:window-height="1093"
     inkscape:window-x="0"
     inkscape:window-y="0"
     inkscape:window-maximized="1"
     inkscape:current-layer="layer1"
     showguides="false"><inkscape:grid
       type="xygrid"
       id="grid16"
       originx="0"
       originy="0"
       spacingy="0.26458333"
       spacingx="0.26458333"
       units="px"
       visible="false"
       empcolor="#cc3d3d"
       empopacity="0.30196078"
       empspacing="4" /><sodipodi:guide
       position="6.8791663,19.579167"
       orientation="1,0"
       id="guide182"
       inkscape:locked="false" /><sodipodi:guide
       position="19.579166,18.520833"
       orientation="1,0"
       id="guide184"
       inkscape:locked="false" /><sodipodi:guide
       position="14.287499,4.7625009"
       orientation="0,-1"
       id="guide186"
       inkscape:locked="false" /><sodipodi:guide
       position="10.847916,17.4625"
       orientation="0,-1"
       id="guide188"
       inkscape:locked="false" /></sodipodi:namedview><defs
     id="defs2"><linearGradient
       inkscape:collect="always"
       id="linearGradient4365"><stop
         style="stop-color:#e1bf8d;stop-opacity:1"
         offset="0"
         id="stop4361" /><stop
         style="stop-color:#6a4504;stop-opacity:1"
         offset="1"
         id="stop4363" /></linearGradient><linearGradient
       inkscape:collect="always"
       id="linearGradient4406"><stop
         style="stop-color:#cccccc;stop-opacity:1;"
         offset="0"
         id="stop4402" /><stop
         style="stop-color:#949494;stop-opacity:1;"
         offset="0.31521663"
         id="stop2" /><stop
         style="stop-color:#666666;stop-opacity:1;"
         offset="0.70005435"
         id="stop3" /><stop
         style="stop-color:#4d4d4d;stop-opacity:1;"
         offset="1"
         id="stop4404" /></linearGradient><linearGradient
       inkscape:collect="always"
       xlink:href="#linearGradient4406"
       id="linearGradient1113"
       gradientUnits="userSpaceOnUse"
       x1="6.0194192"
       y1="273.93912"
       x2="27.019419"
       y2="296.93912"
       gradientTransform="translate(-0.99434467,-262.96315)" /><linearGradient
       inkscape:collect="always"
       xlink:href="#linearGradient4365"
       id="linearGradient1121"
       x1="26.882687"
       y1="269.4577"
       x2="27.600334"
       y2="288.55664"
       gradientUnits="userSpaceOnUse"
       gradientTransform="translate(-0.99434467,-262.96315)" /><linearGradient
       inkscape:collect="always"
       id="linearGradient1617"><stop
         style="stop-color:#ffffe8;stop-opacity:1"
         offset="0"
         id="stop1613" /><stop
         style="stop-color:#ffe896;stop-opacity:1"
         offset="1"
         id="stop1615" /></linearGradient><linearGradient
       inkscape:collect="always"
       xlink:href="#linearGradient1617"
       id="linearGradient8"
       x1="9.5249996"
       y1="17.991665"
       x2="11.641666"
       y2="25.399998"
       gradientUnits="userSpaceOnUse"
       gradientTransform="translate(-1.0583355)" /><linearGradient
       inkscape:collect="always"
       id="linearGradient9993"><stop
         style="stop-color:#03649b;stop-opacity:1"
         offset="0"
         id="stop9989" /><stop
         style="stop-color:#4cb2ed;stop-opacity:1"
         offset="1"
         id="stop9991" /></linearGradient><linearGradient
       id="linearGradient10009"
       inkscape:collect="always"><stop
         id="stop10005"
         offset="0"
         style="stop-color:#ff3030;stop-opacity:1;" /><stop
         id="stop10007"
         offset="1"
         style="stop-color:#ffd4d4;stop-opacity:1" /></linearGradient><linearGradient
       inkscape:collect="always"
       id="linearGradient10015"><stop
         style="stop-color:#d49715;stop-opacity:1"
         offset="0"
         id="stop10011" /><stop
         style="stop-color:#f6db85;stop-opacity:1"
         offset="1"
         id="stop10013" /></linearGradient><linearGradient
       inkscape:collect="always"
       xlink:href="#linearGradient9993"
       id="linearGradient29"
       x1="9.7895832"
       y1="26.987499"
       x2="13.594269"
       y2="24.669737"
       gradientUnits="userSpaceOnUse"
       gradientTransform="translate(-1.0583355)" /><linearGradient
       inkscape:collect="always"
       xlink:href="#linearGradient10009"
       id="linearGradient4"
       gradientUnits="userSpaceOnUse"
       x1="10.054166"
       y1="19.049999"
       x2="14.816666"
       y2="23.812498"
       gradientTransform="translate(-0.97492567,-0.02402943)" /><linearGradient
       inkscape:collect="always"
       xlink:href="#linearGradient10015"
       id="linearGradient10"
       gradientUnits="userSpaceOnUse"
       x1="14.287499"
       y1="25.929165"
       x2="19.049999"
       y2="21.166666"
       gradientTransform="translate(-1.0583355)" /><linearGradient
       inkscape:collect="always"
       xlink:href="#linearGradient10009"
       id="linearGradient12"
       gradientUnits="userSpaceOnUse"
       x1="9.7895832"
       y1="23.547915"
       x2="14.745298"
       y2="18.882687"
       gradientTransform="translate(-1.0583355)" /></defs><g
     inkscape:label="Layer 1"
     inkscape:groupmode="layer"
     id="layer1"><g
       id="g2"><path
         style="fill:#000000;fill-opacity:0.196078;stroke:none;stroke-width:0.725255;stroke-miterlimit:4;stroke-dasharray:none;stroke-opacity:1;paint-order:markers stroke fill"
         d="m 27.463296,31.543821 6.216476,-9.324713 -6.216476,-2.072156 z"
         id="path1768"
         inkscape:connector-curvature="0"
         sodipodi:nodetypes="cccc" /></g><g
       inkscape:label="Layer 1"
       id="layer1-3"
       transform="translate(34.037907,-262.25668)" /><path
       id="rect835"
       style="fill:url(#linearGradient1121);fill-opacity:1;stroke:none;stroke-width:0.538209;stroke-linecap:round;paint-order:markers fill stroke;stop-color:#000000"
       d="M 4.7758649,3.574564 20.551928,5.1924669 21.825899,2.9483279 28.342403,3.5832176 28.89191,6.0545623 31.749998,6.3499997 27.463296,31.543821 4.4418767,23.818372 Z"
       sodipodi:nodetypes="ccccccccc" /><path
       style="fill:none;stroke:#000000;stroke-width:0.238125;stroke-linecap:butt;stroke-linejoin:miter;stroke-dasharray:none;stroke-opacity:1"
       d="M 4.4418767,23.818372 4.7758649,3.574564 20.551928,5.1924669 l 1.273971,-2.244139 6.516504,0.6348897 0.549507,2.4713447 2.858088,0.2954374 -4.286702,25.1938213 z"
       id="path1549"
       sodipodi:nodetypes="ccccccccc" /><path
       id="rect833"
       style="fill:url(#linearGradient1113);fill-opacity:1;stroke:none;stroke-width:0.517406;stroke-linecap:round;paint-order:markers fill stroke;stop-color:#000000"
       d="m 1.0146981,6.152543 14.2906539,3.2254836 0.927245,1.1847164 5.434145,1.220232 0.606984,-0.832144 2.297295,0.518513 2.892275,20.074477 -23.0214193,-7.725449 z"
       sodipodi:nodetypes="ccccccccc" /><path
       style="fill:none;stroke:#ffffff;stroke-width:0.47625;stroke-linecap:butt;stroke-linejoin:miter;stroke-dasharray:none;stroke-opacity:0.39"
       d="m 1.0613268,6.3928965 14.1844882,3.0942807 0.917322,1.1747938 5.568103,1.254962 0.602023,-0.842067 2.130537,0.487127 2.84854,19.802512"
       id="path2"
       sodipodi:nodetypes="ccccccc" /><path
       style="fill:none;stroke:#000000;stroke-width:0.238125;stroke-linecap:butt;stroke-linejoin:miter;stroke-dasharray:none;stroke-opacity:1"
       d="M 27.463296,31.543821 4.4418767,23.818372 1.0146981,6.152543 15.305352,9.3780266 l 0.927245,1.1847164 5.434145,1.220232 0.606984,-0.832144 2.297295,0.518513 2.892275,20.074477"
       id="path1553"
       sodipodi:nodetypes="ccccccccc" /><path
       id="rect2"
       style="fill:url(#linearGradient8);fill-rule:evenodd;stroke-width:0.238125;stroke-linecap:round;stroke-linejoin:round;paint-order:stroke fill markers"
       d="M 7.9374996,16.404166 H 18.520829 c 0.586317,0 1.058335,0.472017 1.058335,1.058334 v 10.583332 c 0,0.586317 -0.472018,1.058334 -1.058335,1.058334 H 7.9374996 c -0.5863177,0 -1.0583351,-0.472017 -1.0583351,-1.058334 V 17.4625 c 0,-0.586317 0.4720174,-1.058334 1.0583351,-1.058334 z" /><rect
       style="fill:none;fill-rule:evenodd;stroke:#000000;stroke-width:0.238125;stroke-linecap:round;stroke-linejoin:round;stroke-opacity:1;paint-order:stroke fill markers"
       id="rect1"
       width="12.7"
       height="12.7"
       x="6.8791647"
       y="16.404167"
       ry="1.0583338"
       rx="1.0583351" /><path
       id="ellipse24"
       style="opacity:1;mix-blend-mode:normal;fill:url(#linearGradient12);fill-rule:evenodd;stroke:none;stroke-width:0.238125;stroke-linecap:round;stroke-linejoin:round;paint-order:stroke fill markers"
       d="M 14.816663,21.431251 A 3.4395828,3.439584 0 0 1 11.37708,24.870835 3.4395828,3.439584 0 0 1 7.9374977,21.431251 3.4395828,3.439584 0 0 1 11.37708,17.991667 3.4395828,3.439584 0 0 1 14.816663,21.431251 Z" /><path
       id="path23"
       style="fill:none;fill-opacity:0.2;fill-rule:evenodd;stroke:#000000;stroke-width:0.238125;stroke-linecap:round;stroke-linejoin:round;paint-order:stroke fill markers"
       d="M 14.816663,21.431251 A 3.4395828,3.439584 0 0 1 11.37708,24.870835 3.4395828,3.439584 0 0 1 7.9374979,21.431251 3.4395828,3.439584 0 0 1 11.37708,17.991667 3.4395828,3.439584 0 0 1 14.816663,21.431251 Z" /><path
       id="path31"
       style="fill:#000000;fill-opacity:0.2;fill-rule:evenodd;stroke:none;stroke-width:0.238125;stroke-linecap:round;stroke-linejoin:round;paint-order:stroke fill markers"
       d="m 13.529921,18.749244 a 3.4395828,3.439584 0 0 1 0.757576,2.15284 3.4395828,3.439584 0 0 1 -3.439583,3.439583 3.4395828,3.439584 0 0 1 -2.148189,-0.762227 3.4395828,3.439584 0 0 0 2.677355,1.291394 3.4395828,3.439584 0 0 0 3.439584,-3.439583 3.4395828,3.439584 0 0 0 -1.286743,-2.682007 z" /><path
       id="rect25"
       style="opacity:1;fill:url(#linearGradient10);fill-rule:evenodd;stroke:none;stroke-width:0.238125;stroke-linecap:round;stroke-linejoin:round;paint-order:stroke fill markers"
       d="m 12.699996,20.6375 h 5.820833 c 0,0 0,0 0,0 v 5.820832 c 0,1e-6 0,1e-6 0,1e-6 h -5.820833 c 0,0 0,0 0,-1e-6 z" /><path
       id="rect22"
       style="fill:none;fill-opacity:0.2;fill-rule:evenodd;stroke:#000000;stroke-width:0.238125;stroke-linecap:round;stroke-linejoin:round;paint-order:stroke fill markers"
       d="m 12.699996,20.6375 h 5.820833 c 0,0 0,0 0,0 v 5.820832 c 0,1e-6 0,1e-6 0,1e-6 h -5.820833 c 0,0 0,0 0,-1e-6 z" /><path
       style="fill:#000000;fill-opacity:0.2;stroke:none;stroke-width:0.264583px;stroke-linecap:butt;stroke-linejoin:miter;stroke-opacity:1"
       d="m 18.520829,20.6375 1e-6,5.820833 h -5.820833 l 5.291666,-0.529166 z"
       id="path29" /><path
       style="fill:url(#linearGradient29);stroke:none;stroke-width:0.264583px;stroke-linecap:butt;stroke-linejoin:miter;stroke-opacity:1"
       d="M 11.568484,21.21936 7.9374974,27.516666 H 15.199474 Z"
       id="path27"
       sodipodi:nodetypes="cccc" /><path
       style="fill:none;stroke:#000000;stroke-width:0.264583px;stroke-linecap:butt;stroke-linejoin:miter;stroke-opacity:1"
       d="M 11.568484,21.21936 7.9374974,27.516666 H 15.199474 Z"
       id="path22"
       sodipodi:nodetypes="cccc" /><path
       style="fill:#000000;fill-opacity:0.2;stroke:none;stroke-width:0.264583px;stroke-linecap:butt;stroke-linejoin:miter;stroke-opacity:1"
       d="m 11.568484,21.21936 3.63099,6.297307 H 7.9374975 l 6.3499995,-0.529166 z"
       id="path30" /><path
       style="fill:#000000;fill-opacity:0.2;stroke:none;stroke-width:0.264583px;stroke-linecap:butt;stroke-linejoin:miter;stroke-opacity:1"
       d="M 19.579163,17.4625 V 28.045834 C 19.43388,28.817927 19.1097,29.11478 18.52083,29.104167 H 7.9374975 l 10.5833325,-0.79375 0.264583,-0.264583 z"
       id="path32"
       sodipodi:nodetypes="ccccccc" /><path
       id="path4"
       style="fill:url(#linearGradient4);fill-opacity:0.2;fill-rule:evenodd;stroke:none;stroke-width:0.238125;stroke-linecap:round;stroke-linejoin:round;paint-order:stroke fill markers"
       d="m 42.152155,15.057221 a 3.4395828,3.439584 0 0 1 -3.439583,3.439584 3.4395828,3.439584 0 0 1 -3.439583,-3.439584 3.4395828,3.439584 0 0 1 3.439583,-3.439584 3.4395828,3.439584 0 0 1 3.439583,3.439584 z" /></g></svg>
