<?xml version="1.0" encoding="UTF-8" standalone="no"?>
<!-- Created with Inkscape (http://www.inkscape.org/) -->

<svg
   width="128"
   height="128"
   viewBox="0 0 33.866666 33.866666"
   version="1.1"
   id="svg5"
   xml:space="preserve"
   inkscape:version="1.3 (0e150ed6c4, 2023-07-21)"
   sodipodi:docname="folder-godot.svg"
   xmlns:inkscape="http://www.inkscape.org/namespaces/inkscape"
   xmlns:sodipodi="http://sodipodi.sourceforge.net/DTD/sodipodi-0.dtd"
   xmlns:xlink="http://www.w3.org/1999/xlink"
   xmlns="http://www.w3.org/2000/svg"
   xmlns:svg="http://www.w3.org/2000/svg"><sodipodi:namedview
     id="namedview7"
     pagecolor="#ffffff"
     bordercolor="#000000"
     borderopacity="0.10196078"
     inkscape:showpageshadow="true"
     inkscape:pageopacity="0"
     inkscape:pagecheckerboard="false"
     inkscape:deskcolor="#dbdbdb"
     inkscape:document-units="px"
     showgrid="false"
     borderlayer="true"
     inkscape:zoom="6.4453125"
     inkscape:cx="64"
     inkscape:cy="64"
     inkscape:window-width="1920"
     inkscape:window-height="1093"
     inkscape:window-x="0"
     inkscape:window-y="0"
     inkscape:window-maximized="1"
     inkscape:current-layer="layer1"
     showguides="true"><inkscape:grid
       type="xygrid"
       id="grid16"
       originx="0"
       originy="0"
       spacingy="0.26458333"
       spacingx="0.26458333"
       units="px"
       visible="false"
       empcolor="#cc3d3d"
       empopacity="0.30196078"
       empspacing="4" /><sodipodi:guide
       position="6.8791663,3.7041676"
       orientation="1,0"
       id="guide182"
       inkscape:locked="false" /><sodipodi:guide
       position="19.579166,3.4395843"
       orientation="1,0"
       id="guide184"
       inkscape:locked="false" /><sodipodi:guide
       position="14.287499,4.7625009"
       orientation="0,-1"
       id="guide186"
       inkscape:locked="false" /><sodipodi:guide
       position="10.847916,17.4625"
       orientation="0,-1"
       id="guide188"
       inkscape:locked="false" /></sodipodi:namedview><defs
     id="defs2"><linearGradient
       id="linearGradient17"
       inkscape:collect="always"><stop
         style="stop-color:#ffffff;stop-opacity:1;"
         offset="0"
         id="stop18" /><stop
         style="stop-color:#0012b2;stop-opacity:0;"
         offset="1"
         id="stop19" /></linearGradient><linearGradient
       inkscape:collect="always"
       id="linearGradient4365"><stop
         style="stop-color:#e1bf8d;stop-opacity:1"
         offset="0"
         id="stop4361" /><stop
         style="stop-color:#6a4504;stop-opacity:1"
         offset="1"
         id="stop4363" /></linearGradient><linearGradient
       inkscape:collect="always"
       id="linearGradient4406"><stop
         style="stop-color:#cccccc;stop-opacity:1;"
         offset="0"
         id="stop4402" /><stop
         style="stop-color:#949494;stop-opacity:1;"
         offset="0.31521663"
         id="stop2" /><stop
         style="stop-color:#666666;stop-opacity:1;"
         offset="0.70005435"
         id="stop3" /><stop
         style="stop-color:#4d4d4d;stop-opacity:1;"
         offset="1"
         id="stop4404" /></linearGradient><linearGradient
       inkscape:collect="always"
       xlink:href="#linearGradient4406"
       id="linearGradient1113"
       gradientUnits="userSpaceOnUse"
       x1="6.0194192"
       y1="273.93912"
       x2="27.019419"
       y2="296.93912"
       gradientTransform="translate(-0.99434467,-262.96315)" /><linearGradient
       inkscape:collect="always"
       xlink:href="#linearGradient4365"
       id="linearGradient1121"
       x1="26.882687"
       y1="269.4577"
       x2="27.600334"
       y2="288.55664"
       gradientUnits="userSpaceOnUse"
       gradientTransform="translate(-0.99434467,-262.96315)" /><linearGradient
       id="linearGradient4472"><stop
         id="stop1340"
         offset="0"
         style="stop-color:#ffa92d;stop-opacity:1" /><stop
         id="stop1342"
         offset="1"
         style="stop-color:#ffc169;stop-opacity:1" /></linearGradient><linearGradient
       inkscape:collect="always"
       xlink:href="#linearGradient1617"
       id="linearGradient8"
       x1="8.8967505"
       y1="16.243484"
       x2="14.809306"
       y2="33.846531"
       gradientUnits="userSpaceOnUse"
       gradientTransform="translate(-1.0583335)" /><linearGradient
       id="linearGradient1617"
       inkscape:collect="always"><stop
         id="stop1613"
         offset="0"
         style="stop-color:#00cbff;stop-opacity:1;" /><stop
         id="stop15"
         offset="0.43724558"
         style="stop-color:#668dcc;stop-opacity:1;" /><stop
         id="stop1615"
         offset="1"
         style="stop-color:#4e6a9a;stop-opacity:1;" /></linearGradient><radialGradient
       inkscape:collect="always"
       xlink:href="#linearGradient17"
       id="radialGradient19"
       cx="11.112499"
       cy="22.754154"
       fx="11.112499"
       fy="22.754154"
       r="0.953001"
       gradientTransform="matrix(0.55526354,-8.5864275e-7,9.3393822e-7,0.60269619,3.8837789,9.0403333)"
       gradientUnits="userSpaceOnUse" /><radialGradient
       inkscape:collect="always"
       xlink:href="#linearGradient17"
       id="radialGradient22"
       gradientUnits="userSpaceOnUse"
       gradientTransform="matrix(0.55526354,-8.5864275e-7,9.3393822e-7,0.60269619,3.8837789,9.0403333)"
       cx="21.50119"
       cy="22.754169"
       fx="21.50119"
       fy="22.754169"
       r="0.953001" /></defs><g
     inkscape:label="Layer 1"
     inkscape:groupmode="layer"
     id="layer1"><g
       id="g1"><path
         style="fill:#000000;fill-opacity:0.196078;stroke:none;stroke-width:0.725255;stroke-miterlimit:4;stroke-dasharray:none;stroke-opacity:1;paint-order:markers stroke fill"
         d="m 27.463296,31.543821 6.216476,-9.324713 -6.216476,-2.072156 z"
         id="path1768"
         inkscape:connector-curvature="0"
         sodipodi:nodetypes="cccc" /></g><g
       inkscape:label="Layer 1"
       id="layer1-3"
       transform="translate(34.037907,-262.25668)" /><path
       id="rect835"
       style="fill:url(#linearGradient1121);fill-opacity:1;stroke:none;stroke-width:0.538209;stroke-linecap:round;paint-order:markers fill stroke;stop-color:#000000"
       d="M 4.7758649,3.574564 20.551928,5.1924669 21.825899,2.9483279 28.342403,3.5832176 28.89191,6.0545623 31.749998,6.3499997 27.463296,31.543821 4.4418767,23.818372 Z"
       sodipodi:nodetypes="ccccccccc" /><path
       style="fill:none;stroke:#000000;stroke-width:0.238125;stroke-linecap:butt;stroke-linejoin:miter;stroke-dasharray:none;stroke-opacity:1"
       d="M 4.4418767,23.818372 4.7758649,3.574564 20.551928,5.1924669 l 1.273971,-2.244139 6.516504,0.6348897 0.549507,2.4713447 2.858088,0.2954374 -4.286702,25.1938213 z"
       id="path1549"
       sodipodi:nodetypes="ccccccccc" /><path
       id="rect833"
       style="fill:url(#linearGradient1113);fill-opacity:1;stroke:none;stroke-width:0.517406;stroke-linecap:round;paint-order:markers fill stroke;stop-color:#000000"
       d="m 1.0146981,6.152543 14.2906539,3.2254836 0.927245,1.1847164 5.434145,1.220232 0.606984,-0.832144 2.297295,0.518513 2.892275,20.074477 -23.0214193,-7.725449 z"
       sodipodi:nodetypes="ccccccccc" /><path
       style="fill:none;stroke:#ffffff;stroke-width:0.47625;stroke-linecap:butt;stroke-linejoin:miter;stroke-dasharray:none;stroke-opacity:0.39"
       d="m 1.0613268,6.3928965 14.1844882,3.0942807 0.917322,1.1747938 5.568103,1.254962 0.602023,-0.842067 2.130537,0.487127 2.84854,19.802512"
       id="path2"
       sodipodi:nodetypes="ccccccc" /><path
       style="fill:none;stroke:#000000;stroke-width:0.238125;stroke-linecap:butt;stroke-linejoin:miter;stroke-dasharray:none;stroke-opacity:1"
       d="M 27.463296,31.543821 4.4418767,23.818372 1.0146981,6.152543 15.305352,9.3780266 l 0.927245,1.1847164 5.434145,1.220232 0.606984,-0.832144 2.297295,0.518513 2.892275,20.074477"
       id="path1553"
       sodipodi:nodetypes="ccccccccc" /><path
       id="path21"
       style="color:#232629;fill:#ffffff;fill-opacity:1;fill-rule:evenodd;stroke:none;stroke-width:0.264584"
       class="ColorScheme-Text"
       d="m 11.955342,16.404166 -1.906344,0.635104 v 1.588533 l -0.9529125,0.952914 -1.0800377,-0.82579 -1.1435994,1.46141 0.6356201,1.270723 v 3.811654 0.63562 0.317293 c 0,2.096599 2.6048655,2.859257 5.7179965,2.859257 3.113131,0 5.717997,-0.952827 5.717997,-3.049426 v -0.127124 -0.63562 -3.811654 l 0.635104,-1.270723 -1.1436,-1.46141 -1.080037,0.82579 -0.952914,-0.952914 V 17.03927 c 0,0 -1.334543,-0.508037 -1.906343,-0.635104 -0.254135,0.3812 -0.444504,0.825989 -0.635104,1.270724 h -1.270723 c -0.190589,-0.444735 -0.635103,-1.270724 -0.635103,-1.270724 z" /><path
       id="path5"
       style="color:#232629;fill:url(#linearGradient8);fill-opacity:1;fill-rule:evenodd;stroke:none;stroke-width:0.264584"
       class="ColorScheme-Text"
       d="m 11.955342,16.404166 -1.906344,0.635104 v 1.588533 l -0.9529125,0.952914 -1.0800377,-0.82579 -1.1435994,1.46141 0.6356201,1.270723 v 4.764567 c 0,2.096599 2.6048655,2.859257 5.7179965,2.859257 3.113131,0 5.717997,-0.952827 5.717997,-3.049426 V 21.48706 l 0.635104,-1.270723 -1.1436,-1.46141 -1.080037,0.82579 -0.952914,-0.952914 V 17.03927 c 0,0 -1.334543,-0.508037 -1.906343,-0.635104 -0.254135,0.3812 -0.444504,0.825989 -0.635104,1.270724 h -1.270723 c -0.190589,-0.444735 -0.635103,-1.270724 -0.635103,-1.270724 z" /><path
       style="fill:none;stroke:#e7e7e7;stroke-width:0.47625;stroke-linecap:butt;stroke-linejoin:miter;stroke-dasharray:none;stroke-opacity:1"
       d="m 7.5080685,25.664582 h 2.281514 V 26.9875 h 2.3812495 v -1.322918 h 2.116667 V 26.9875 h 2.38125 v -1.322918 h 2.275313"
       id="path23"
       sodipodi:nodetypes="cccccccccc" /><path
       id="path19"
       style="color:#232629;fill:none;fill-opacity:1;fill-rule:evenodd;stroke:#000000;stroke-width:0.264584;stroke-opacity:1"
       class="ColorScheme-Text"
       d="m 11.955342,16.404166 -1.906344,0.635104 v 1.588533 l -0.9529125,0.952914 -1.0800377,-0.82579 -1.1435994,1.46141 0.6356201,1.270723 v 4.764567 c 0,2.096599 2.6048655,2.859257 5.7179965,2.859257 3.113131,0 5.717997,-0.952827 5.717997,-3.049426 V 21.48706 l 0.635104,-1.270723 -1.1436,-1.46141 -1.080037,0.82579 -0.952914,-0.952914 V 17.03927 c 0,0 -1.334543,-0.508037 -1.906343,-0.635104 -0.254135,0.3812 -0.444504,0.825989 -0.635104,1.270724 h -1.270723 c -0.190589,-0.444735 -0.635103,-1.270724 -0.635103,-1.270724 z"
       sodipodi:nodetypes="ccccccccsscccccccccc" /><path
       style="color:#232629;fill:#ffffff;fill-opacity:1;fill-rule:evenodd;stroke:none;stroke-width:0.264584"
       d="m 16.08483,21.486833 c 0.877212,0 1.588333,0.71112 1.588334,1.588332 0,0.877213 -0.711121,1.588334 -1.588334,1.588334 -0.877212,-1e-6 -1.588332,-0.711122 -1.588332,-1.588334 10e-7,-0.877211 0.711121,-1.588331 1.588332,-1.588332 z"
       id="path4" /><path
       style="color:#232629;opacity:1;fill:#ffffff;fill-opacity:1;fill-rule:evenodd;stroke:none;stroke-width:0.264584"
       d="m 10.36683,21.486833 c 0.877211,1e-6 1.588331,0.711121 1.588332,1.588332 0,0.877212 -0.71112,1.588333 -1.588332,1.588334 -0.8772115,0 -1.5883329,-0.711122 -1.5883328,-1.588334 10e-7,-0.877212 0.7111213,-1.588332 1.5883328,-1.588332 z"
       id="path3" /><path
       style="color:#232629;fill:#0012b2;fill-opacity:1;fill-rule:evenodd;stroke:none;stroke-width:0.264584"
       d="m 16.08483,22.122165 c -0.526327,0 -0.953,0.426673 -0.953,0.953 0,0.526328 0.426672,0.953001 0.953,0.953001 0.526328,0 0.953001,-0.426673 0.953001,-0.953001 0,-0.526328 -0.426673,-0.953 -0.953001,-0.953 z"
       id="path14" /><path
       style="color:#232629;fill:#0012b2;fill-opacity:1;fill-rule:evenodd;stroke:none;stroke-width:0.264584"
       d="m 10.36683,22.122165 c -0.5263275,-10e-7 -0.9530015,0.426672 -0.9530015,0.953 0,0.526328 0.426674,0.953002 0.9530015,0.953001 0.526328,0 0.953,-0.426673 0.953,-0.953001 0,-0.526327 -0.426673,-0.953 -0.953,-0.953 z"
       id="path13" /><path
       style="color:#232629;fill:#ffffff;fill-opacity:1;fill-rule:evenodd;stroke:none;stroke-width:0.264584"
       d="m 13.225831,22.122165 c 0.317667,0 0.635332,0.317669 0.635332,0.635332 v 1.270669 c 0,0.317667 -0.317665,0.635333 -0.635332,0.635333 -0.317669,0 -0.635334,-0.317666 -0.635334,-0.635333 v -1.270669 c 0,-0.317663 0.283358,-0.635332 0.635334,-0.635332 z"
       class="ColorScheme-Text"
       id="path15"
       sodipodi:nodetypes="sssssss" /><path
       style="color:#232629;fill:url(#radialGradient19);fill-opacity:1;fill-rule:evenodd;stroke:none;stroke-width:0.264584"
       d="m 10.36683,22.122165 c -0.5263275,-10e-7 -0.9530015,0.426672 -0.9530015,0.953 0,0.526328 0.426674,0.953002 0.9530015,0.953001 0.526328,0 0.953,-0.426673 0.953,-0.953001 0,-0.526327 -0.426673,-0.953 -0.953,-0.953 z"
       id="path17" /><path
       style="color:#232629;fill:url(#radialGradient22);fill-opacity:1;fill-rule:evenodd;stroke:none;stroke-width:0.264584"
       d="m 16.084831,22.122165 c -0.526328,-10e-7 -0.953002,0.426672 -0.953002,0.953 0,0.526328 0.426674,0.953002 0.953002,0.953001 0.526328,0 0.953,-0.426673 0.953,-0.953001 0,-0.526327 -0.426673,-0.953 -0.953,-0.953 z"
       id="path22" /></g></svg>
