<?xml version="1.0" encoding="UTF-8" standalone="no"?>
<!-- Created with Inkscape (http://www.inkscape.org/) -->

<svg
   width="128"
   height="128"
   viewBox="0 0 33.866666 33.866666"
   version="1.1"
   id="svg5"
   xml:space="preserve"
   inkscape:version="1.3 (0e150ed6c4, 2023-07-21)"
   sodipodi:docname="folder-rust.svg"
   xmlns:inkscape="http://www.inkscape.org/namespaces/inkscape"
   xmlns:sodipodi="http://sodipodi.sourceforge.net/DTD/sodipodi-0.dtd"
   xmlns:xlink="http://www.w3.org/1999/xlink"
   xmlns="http://www.w3.org/2000/svg"
   xmlns:svg="http://www.w3.org/2000/svg"><sodipodi:namedview
     id="namedview7"
     pagecolor="#ffffff"
     bordercolor="#000000"
     borderopacity="0.10196078"
     inkscape:showpageshadow="true"
     inkscape:pageopacity="0"
     inkscape:pagecheckerboard="false"
     inkscape:deskcolor="#dbdbdb"
     inkscape:document-units="px"
     showgrid="false"
     borderlayer="true"
     inkscape:zoom="6.4453125"
     inkscape:cx="63.922424"
     inkscape:cy="64"
     inkscape:window-width="1920"
     inkscape:window-height="1093"
     inkscape:window-x="0"
     inkscape:window-y="0"
     inkscape:window-maximized="1"
     inkscape:current-layer="layer1"
     showguides="true"><inkscape:grid
       type="xygrid"
       id="grid16"
       originx="0"
       originy="0"
       spacingy="0.26458333"
       spacingx="0.26458333"
       units="px"
       visible="false"
       empcolor="#cc3d3d"
       empopacity="0.30196078"
       empspacing="4" /><sodipodi:guide
       position="6.8791663,3.7041676"
       orientation="1,0"
       id="guide182"
       inkscape:locked="false" /><sodipodi:guide
       position="19.579166,2.6458343"
       orientation="1,0"
       id="guide184"
       inkscape:locked="false" /><sodipodi:guide
       position="14.287499,4.7625009"
       orientation="0,-1"
       id="guide186"
       inkscape:locked="false" /><sodipodi:guide
       position="10.847916,17.4625"
       orientation="0,-1"
       id="guide188"
       inkscape:locked="false" /></sodipodi:namedview><defs
     id="defs2"><inkscape:path-effect
       effect="perspective-envelope"
       up_left_point="1.9896238,6.1765724"
       up_right_point="27.218606,7.5797374"
       down_left_point="2.0831681,31.10885"
       down_right_point="28.574999,31.576572"
       id="path-effect2835"
       is_visible="true"
       lpeversion="1"
       deform_type="perspective"
       horizontal_mirror="false"
       vertical_mirror="false"
       overflow_perspective="false" /><inkscape:path-effect
       effect="perspective-envelope"
       up_left_point="4.8239449,3.6495202"
       up_right_point="32.914643,2.1060387"
       down_left_point="5.2916666,31.56785"
       down_right_point="31.605022,31.56785"
       id="path-effect2833"
       is_visible="true"
       lpeversion="1"
       deform_type="perspective"
       horizontal_mirror="false"
       vertical_mirror="false"
       overflow_perspective="false" /><inkscape:path-effect
       effect="perspective-envelope"
       up_left_point="6.333243,3.4019982"
       up_right_point="31.732065,3.4019982"
       down_left_point="5.4567911,31.749999"
       down_right_point="31.732065,31.749999"
       id="path-effect13169"
       is_visible="true"
       lpeversion="1"
       deform_type="perspective"
       horizontal_mirror="false"
       vertical_mirror="false"
       overflow_perspective="false" /><inkscape:path-effect
       effect="perspective-envelope"
       up_left_point="5.4567911,3.4019982"
       up_right_point="31.732065,3.4019982"
       down_left_point="5.4567911,31.749999"
       down_right_point="31.732065,31.749999"
       id="path-effect13167"
       is_visible="true"
       lpeversion="1"
       deform_type="perspective"
       horizontal_mirror="false"
       vertical_mirror="false"
       overflow_perspective="false" /><inkscape:path-effect
       effect="perspective-envelope"
       up_left_point="5.539493,3.4019982"
       up_right_point="31.732065,3.6087959"
       down_left_point="4.7624999,31.749999"
       down_right_point="31.732065,31.749999"
       id="path-effect13165"
       is_visible="true"
       lpeversion="1"
       deform_type="perspective"
       horizontal_mirror="false"
       vertical_mirror="false"
       overflow_perspective="false" /><inkscape:path-effect
       effect="perspective-envelope"
       up_left_point="5.539493,3.4019982"
       up_right_point="31.732065,3.6087959"
       down_left_point="4.7624999,31.749999"
       down_right_point="31.732065,31.749999"
       id="path-effect13163"
       is_visible="true"
       lpeversion="1"
       deform_type="perspective"
       horizontal_mirror="false"
       vertical_mirror="false"
       overflow_perspective="false" /><inkscape:path-effect
       effect="perspective-envelope"
       up_left_point="2.1166666,6.3499999"
       up_right_point="28.574999,5.2916666"
       down_left_point="3.0219846,31.749999"
       down_right_point="29.08424,31.749999"
       id="path-effect12133"
       is_visible="true"
       lpeversion="1"
       deform_type="perspective"
       horizontal_mirror="false"
       vertical_mirror="false"
       overflow_perspective="false" /><inkscape:path-effect
       effect="perspective-envelope"
       up_left_point="4.7624999,3.4395833"
       up_right_point="31.749999,3.9687499"
       down_left_point="4.7624999,31.749999"
       down_right_point="31.608553,31.749999"
       id="path-effect12131"
       is_visible="true"
       lpeversion="1"
       deform_type="perspective"
       horizontal_mirror="false"
       vertical_mirror="false"
       overflow_perspective="false" /><inkscape:path-effect
       effect="perspective-envelope"
       up_left_point="2.1166666,6.3499999"
       up_right_point="28.574999,8.4666665"
       down_left_point="1.0583333,31.749999"
       down_right_point="28.574999,31.749999"
       id="path-effect12129"
       is_visible="true"
       lpeversion="1"
       deform_type="perspective"
       horizontal_mirror="false"
       vertical_mirror="false"
       overflow_perspective="false" /><inkscape:path-effect
       effect="perspective-envelope"
       up_left_point="3.1749999,3.1749999"
       up_right_point="31.749999,4.2333332"
       down_left_point="3.1749999,31.749999"
       down_right_point="30.516433,31.749999"
       id="path-effect12105"
       is_visible="true"
       lpeversion="1"
       deform_type="perspective"
       horizontal_mirror="false"
       vertical_mirror="false"
       overflow_perspective="false" /><inkscape:path-effect
       effect="perspective-envelope"
       up_left_point="1.0583333,8.4666665"
       up_right_point="28.574999,7.4083333"
       down_left_point="1.0583338,31.749999"
       down_right_point="28.574999,31.749999"
       id="path-effect12103"
       is_visible="true"
       lpeversion="1"
       deform_type="perspective"
       horizontal_mirror="false"
       vertical_mirror="false"
       overflow_perspective="false" /><inkscape:path-effect
       effect="perspective-envelope"
       up_left_point="1.0583333,7.4083332"
       up_right_point="26.458333,11.641666"
       down_left_point="3.1749999,27.516666"
       down_right_point="28.574999,31.749999"
       id="path-effect12101"
       is_visible="true"
       lpeversion="1"
       deform_type="perspective"
       horizontal_mirror="false"
       vertical_mirror="false"
       overflow_perspective="false" /><inkscape:path-effect
       effect="perspective-envelope"
       up_left_point="5.2916666,3.1749999"
       up_right_point="30.691666,5.2916666"
       down_left_point="3.1749999,27.516666"
       down_right_point="28.574999,31.749999"
       id="path-effect12099"
       is_visible="true"
       lpeversion="1"
       deform_type="perspective"
       horizontal_mirror="false"
       vertical_mirror="false"
       overflow_perspective="false" /><inkscape:path-effect
       effect="perspective-envelope"
       up_left_point="4.2333332,8.4666665"
       up_right_point="27.516666,8.4666665"
       down_left_point="2.6458333,32.279166"
       down_right_point="27.516666,31.75"
       id="path-effect12087"
       is_visible="true"
       lpeversion="1"
       deform_type="perspective"
       horizontal_mirror="false"
       vertical_mirror="false"
       overflow_perspective="false" /><inkscape:path-effect
       effect="perspective-envelope"
       up_left_point="6.8791665,5.5562499"
       up_right_point="30.691666,5.2916666"
       down_left_point="6.8791665,31.749999"
       down_right_point="29.633333,31.749999"
       id="path-effect12085"
       is_visible="true"
       lpeversion="1"
       deform_type="perspective"
       horizontal_mirror="false"
       vertical_mirror="false"
       overflow_perspective="false" /><linearGradient
       inkscape:collect="always"
       id="linearGradient935"><stop
         style="stop-color:#000000;stop-opacity:1;"
         offset="0"
         id="stop931" /><stop
         style="stop-color:#000000;stop-opacity:0;"
         offset="1"
         id="stop933" /></linearGradient><linearGradient
       id="linearGradient4381"
       inkscape:collect="always"><stop
         id="stop4377"
         offset="0"
         style="stop-color:#fafafa;stop-opacity:0" /><stop
         id="stop4379"
         offset="1"
         style="stop-color:#252525;stop-opacity:0.65022421" /></linearGradient><linearGradient
       inkscape:collect="always"
       id="linearGradient4365"><stop
         style="stop-color:#e1bf8d;stop-opacity:1"
         offset="0"
         id="stop4361" /><stop
         style="stop-color:#6a4504;stop-opacity:1"
         offset="1"
         id="stop4363" /></linearGradient><linearGradient
       inkscape:collect="always"
       id="linearGradient4406"><stop
         style="stop-color:#cccccc;stop-opacity:1;"
         offset="0"
         id="stop4402" /><stop
         style="stop-color:#949494;stop-opacity:1;"
         offset="0.31521663"
         id="stop2" /><stop
         style="stop-color:#666666;stop-opacity:1;"
         offset="0.70005435"
         id="stop3" /><stop
         style="stop-color:#4d4d4d;stop-opacity:1;"
         offset="1"
         id="stop4404" /></linearGradient><linearGradient
       inkscape:collect="always"
       xlink:href="#linearGradient4381"
       id="linearGradient4385"
       gradientUnits="userSpaceOnUse"
       gradientTransform="matrix(4,0,0,4,-32.918811,-875.69414)"
       x1="13.6755"
       y1="290.15854"
       x2="13.042861"
       y2="291.61517" /><linearGradient
       inkscape:collect="always"
       xlink:href="#linearGradient4406"
       id="linearGradient1113"
       gradientUnits="userSpaceOnUse"
       x1="6.0194192"
       y1="273.93912"
       x2="27.019419"
       y2="296.93912"
       gradientTransform="translate(0.02997433,-263.02144)" /><linearGradient
       inkscape:collect="always"
       xlink:href="#linearGradient4365"
       id="linearGradient1121"
       x1="26.882687"
       y1="269.4577"
       x2="27.600334"
       y2="288.55664"
       gradientUnits="userSpaceOnUse"
       gradientTransform="translate(0.02997433,-263.02144)" /><linearGradient
       id="linearGradient4537"
       inkscape:collect="always"><stop
         id="stop4533"
         offset="0"
         style="stop-color:#ffffff;stop-opacity:1;" /><stop
         style="stop-color:#ffffff;stop-opacity:1"
         offset="0.58333331"
         id="stop4541" /><stop
         id="stop4543"
         offset="0.83333331"
         style="stop-color:#bababa;stop-opacity:1;" /><stop
         id="stop4535"
         offset="1"
         style="stop-color:#757575;stop-opacity:1" /></linearGradient><linearGradient
       gradientTransform="matrix(4,0,0,4,5.2916666,-893.11669)"
       gradientUnits="userSpaceOnUse"
       y2="295.41251"
       x2="5.0270834"
       y1="292.50208"
       x1="0.79374999"
       id="linearGradient4539"
       xlink:href="#linearGradient4537"
       inkscape:collect="always" /><linearGradient
       id="linearGradient4454"><stop
         id="stop1334"
         offset="0"
         style="stop-color:#d21e1e;stop-opacity:1" /><stop
         id="stop1336"
         offset="1"
         style="stop-color:#e05e4c;stop-opacity:1" /></linearGradient><linearGradient
       gradientTransform="translate(-384.57001,-499.79999)"
       gradientUnits="userSpaceOnUse"
       y2="525.725"
       x2="391.89"
       y1="544.092"
       x1="403.421"
       id="linearGradient4213"
       xlink:href="#linearGradient4454" /><linearGradient
       id="linearGradient4472"><stop
         id="stop1340"
         offset="0"
         style="stop-color:#ffa92d;stop-opacity:1" /><stop
         id="stop1342"
         offset="1"
         style="stop-color:#ffc169;stop-opacity:1" /></linearGradient><linearGradient
       gradientTransform="translate(-384.57001,-499.79999)"
       gradientUnits="userSpaceOnUse"
       y2="505.319"
       x2="391.154"
       y1="523.203"
       x1="401.296"
       id="linearGradient4235"
       xlink:href="#linearGradient4472" /><linearGradient
       id="linearGradient4422-8"><stop
         id="stop1346"
         offset="0"
         style="stop-color:#377d50;stop-opacity:1" /><stop
         id="stop1348"
         offset="1"
         style="stop-color:#54d883;stop-opacity:1" /></linearGradient><linearGradient
       gradientTransform="translate(-384.57001,-499.79999)"
       gradientUnits="userSpaceOnUse"
       y2="503.798"
       x2="413.779"
       y1="523.798"
       x1="424.602"
       id="linearGradient4257"
       xlink:href="#linearGradient4422-8" /><linearGradient
       id="linearGradient4438"><stop
         id="stop1352"
         offset="0"
         style="stop-color:#375a7d;stop-opacity:1" /><stop
         id="stop1354"
         offset="1"
         style="stop-color:#54a3d8;stop-opacity:1" /></linearGradient><linearGradient
       gradientTransform="translate(-384.57001,-499.79999)"
       gradientUnits="userSpaceOnUse"
       y2="525.748"
       x2="412.118"
       y1="543.488"
       x1="420.884"
       id="linearGradient4279"
       xlink:href="#linearGradient4438" /><linearGradient
       gradientTransform="translate(0.00142264,-0.00198746)"
       gradientUnits="userSpaceOnUse"
       y2="44"
       x2="44"
       y1="4"
       x1="4"
       id="linearGradient4220"
       xlink:href="#linearGradient935" /></defs><g
     inkscape:label="Layer 1"
     inkscape:groupmode="layer"
     id="layer1"><g
       id="g1"><path
         style="fill:#000000;fill-opacity:0.196078;stroke:none;stroke-width:0.725255;stroke-miterlimit:4;stroke-dasharray:none;stroke-opacity:1;paint-order:markers stroke fill"
         d="m 27.463296,31.543821 6.216476,-9.324713 -6.216476,-2.072156 z"
         id="path1768"
         inkscape:connector-curvature="0"
         sodipodi:nodetypes="cccc" /></g><g
       inkscape:label="Layer 1"
       id="layer1-3"
       transform="translate(35.062227,-262.31497)" /><path
       id="rect835"
       style="fill:url(#linearGradient1121);fill-opacity:1;stroke:none;stroke-width:0.538209;stroke-linecap:round;paint-order:markers fill stroke;stop-color:#000000"
       d="M 4.7758643,3.574564 20.551928,5.1924669 21.825899,2.9483279 28.342403,3.5832176 28.89191,6.0545623 31.749998,6.3499997 27.463296,31.543821 4.4418761,23.818372 Z"
       sodipodi:nodetypes="ccccccccc" /><path
       style="fill:none;stroke:#000000;stroke-width:0.238125;stroke-linecap:butt;stroke-linejoin:miter;stroke-dasharray:none;stroke-opacity:1"
       d="M 4.4418761,23.818372 4.7758643,3.574564 20.551928,5.1924669 l 1.273971,-2.244139 6.516504,0.6348897 0.549507,2.4713447 2.858088,0.2954374 -4.286702,25.1938213 z"
       id="path1549"
       sodipodi:nodetypes="ccccccccc" /><path
       id="rect833"
       style="fill:url(#linearGradient1113);fill-opacity:1;stroke:none;stroke-width:0.517406;stroke-linecap:round;paint-order:markers fill stroke;stop-color:#000000"
       d="m 1.0146975,6.152543 14.2906545,3.2254836 0.927245,1.1847164 5.434145,1.220232 0.606984,-0.832144 2.297295,0.518513 2.892275,20.074477 -23.0214199,-7.725449 z"
       sodipodi:nodetypes="ccccccccc" /><path
       style="fill:none;stroke:#ffffff;stroke-width:0.47625;stroke-linecap:butt;stroke-linejoin:miter;stroke-dasharray:none;stroke-opacity:0.39"
       d="m 1.0613262,6.3928965 14.1844888,3.0942807 0.917322,1.1747938 5.568103,1.254962 0.602023,-0.842067 2.130537,0.487127 2.84854,19.802512"
       id="path2"
       sodipodi:nodetypes="ccccccc" /><path
       style="fill:none;stroke:#000000;stroke-width:0.238125;stroke-linecap:butt;stroke-linejoin:miter;stroke-dasharray:none;stroke-opacity:1"
       d="M 27.463296,31.543821 4.4418761,23.818372 1.0146975,6.152543 15.305352,9.3780266 l 0.927245,1.1847164 5.434145,1.220232 0.606984,-0.832144 2.297295,0.518513 2.892275,20.074477"
       id="path1553"
       sodipodi:nodetypes="ccccccccc" /><path
       d="m 19.48803,22.593939 -0.533072,-0.33 c -0.0045,-0.05182 -0.0095,-0.103596 -0.01516,-0.15531 l 0.458124,-0.42732 c 0.04655,-0.04326 0.0673,-0.107592 0.0548,-0.1699 -0.01223,-0.06238 -0.056,-0.113923 -0.115567,-0.13611 l -0.585649,-0.219 c -0.01471,-0.0506 -0.03,-0.101026 -0.04588,-0.15127 l 0.365318,-0.50736 c 0.07983,-0.110619 0.01527,-0.266568 -0.119386,-0.2884 l -0.617544,-0.1004 c -0.02401,-0.0469 -0.04901,-0.0929 -0.0742,-0.1386 l 0.259468,-0.56958 c 0.02662,-0.0578 0.02124,-0.125294 -0.0142,-0.17815 -0.03517,-0.05298 -0.09539,-0.08382 -0.158933,-0.0814 l -0.626769,0.0219 c -0.03237,-0.04057 -0.06537,-0.08064 -0.099,-0.12017 l 0.144036,-0.61049 c 0.01468,-0.06194 -0.0038,-0.127064 -0.04892,-0.17201 -0.04491,-0.04501 -0.109921,-0.06355 -0.171814,-0.049 l -0.61035,0.14398 c -0.03962,-0.03363 -0.07973,-0.06666 -0.120328,-0.0991 l 0.02192,-0.62672 c 0.0024,-0.06353 -0.02842,-0.12373 -0.08134,-0.15896 -0.05301,-0.03506 -0.120409,-0.04013 -0.178072,-0.0134 l -0.569431,0.25963 c -0.04593,-0.02538 -0.09216,-0.05022 -0.138679,-0.0745 l -0.100689,-0.61764 c -0.02197,-0.134486 -0.17766,-0.198976 -0.288287,-0.11941 l -0.507725,0.36532 c -0.04995,-0.0154 -0.100189,-0.0313 -0.150888,-0.0457 l -0.218993,-0.58576 c -0.02218,-0.05963 -0.07374,-0.103462 -0.136166,-0.11576 -0.06229,-0.01225 -0.126497,0.0085 -0.169836,0.0549 l -0.427319,0.45849 c -0.05168,-0.0059 -0.10344,-0.011 -0.155266,-0.0154 l -0.329998,-0.53321 c -0.07171,-0.115851 -0.240226,-0.115851 -0.311935,0 l -0.330016,0.53321 c -0.0519,0.0044 -0.10374,0.0095 -0.155496,0.0154 l -0.427423,-0.45849 c -0.09295,-0.09986 -0.258514,-0.0668 -0.305983,0.0611 l -0.218943,0.58576 c -0.05068,0.0154 -0.100977,0.0299 -0.151081,0.0457 l -0.507629,-0.36532 c -0.05159,-0.03727 -0.118847,-0.04503 -0.177573,-0.0205 -0.05861,0.02438 -0.100494,0.07729 -0.110768,0.13994 l -0.100784,0.61765 c -0.04665,0.0242 -0.09272,0.049 -0.138603,0.0745 l -0.5694623,-0.25966 c -0.057961,-0.02617 -0.1253528,-0.02033 -0.177957,0.0154 -0.052938,0.03521 -0.083767,0.09541 -0.0814,0.15895 l 0.02188,0.62671 c -0.04056,0.0325 -0.080686,0.06553 -0.120366,0.0991 l -0.610351,-0.14379 c -0.061916,-0.01455 -0.1269579,0.0039 -0.1720078,0.0488 -0.04509,0.04494 -0.063623,0.110063 -0.04895,0.17201 l 0.1437861,0.6105 c -0.0334,0.0395 -0.06642,0.0795 -0.09867,0.11998 l -0.626766,-0.0219 c -0.063458,-0.002 -0.1234949,0.02873 -0.158952,0.0814 -0.035696,0.05269 -0.04151,0.120126 -0.01536,0.17815 l 0.259622,0.56963 c -0.02515,0.0457 -0.0503,0.0918 -0.07448,0.13861 l -0.617494,0.1004 c -0.1345535,0.02194 -0.1990638,0.177733 -0.119406,0.28837 l 0.365321,0.50743 c -0.01536,0.0501 -0.03129,0.1004 -0.04588,0.15108 l -0.585703,0.21899 c -0.1274935,0.04795 -0.1602306,0.213149 -0.06066,0.3061 l 0.458159,0.42728 c -0.0058,0.0516 -0.01152,0.10346 -0.01536,0.1553 l -0.533161,0.33 c -0.054021,0.03346 -0.086856,0.09251 -0.08677,0.15606 0,0.0638 0.03283,0.12268 0.08677,0.15589 l 0.533123,0.33 c 0.0038,0.0518 0.0096,0.10366 0.01536,0.1553 l -0.458215,0.42742 c -0.099744,0.09291 -0.066846,0.258308 0.06086,0.30598 l 0.585704,0.21901 c 0.01536,0.0507 0.02994,0.10097 0.04588,0.15108 l -0.365321,0.50748 c -0.079833,0.110655 -0.015123,0.266628 0.119598,0.28827 l 0.617398,0.1004 c 0.02419,0.0469 0.04896,0.0929 0.07448,0.1388 l -0.259659,0.56943 c -0.026199,0.05802 -0.020383,0.125475 0.01536,0.17815 0.035214,0.05294 0.095415,0.08377 0.158952,0.0814 l 0.626459,-0.0219 c 0.03264,0.0407 0.06566,0.0806 0.09906,0.12036 l -0.1437861,0.61059 c -0.014647,0.06183 0.00389,0.126823 0.04895,0.17162 0.044934,0.04509 0.110103,0.06355 0.1720078,0.0487 l 0.610352,-0.14379 c 0.03974,0.0338 0.07986,0.0664 0.120365,0.0987 l -0.02188,0.62693 c -0.00487,0.13623 0.1354238,0.229885 0.259373,0.17315 l 0.5694603,-0.25946 c 0.04583,0.02546 0.09203,0.05023 0.138603,0.0743 l 0.100786,0.61731 c 0.01009,0.06277 0.05202,0.115822 0.110767,0.14014 0.05877,0.02431 0.125931,0.01652 0.177572,-0.0206 l 0.507379,-0.36556 c 0.0501,0.0154 0.100402,0.0313 0.151083,0.0461 l 0.218999,0.58549 c 0.02219,0.05957 0.07373,0.103335 0.136108,0.11557 0.06233,0.01256 0.126705,-0.0082 0.169895,-0.0549 l 0.427423,-0.45821 c 0.05164,0.006 0.103472,0.0115 0.155496,0.0154 l 0.329998,0.53313 c 0.03347,0.05393 0.09241,0.08675 0.15588,0.0868 0.06354,7e-6 0.122563,-0.03282 0.156073,-0.0868 l 0.330017,-0.53313 c 0.05193,-0.004 0.10376,-0.01 0.155305,-0.0154 l 0.427319,0.45821 c 0.0432,0.04662 0.107528,0.06741 0.169837,0.0549 0.06236,-0.01228 0.11388,-0.05603 0.136107,-0.11557 l 0.218993,-0.58549 c 0.0507,-0.0154 0.101092,-0.0302 0.151196,-0.0461 l 0.507478,0.36556 c 0.11069,0.07958 0.266435,0.01496 0.288284,-0.1196 l 0.100689,-0.6173 c 0.04657,-0.0242 0.09267,-0.0491 0.138641,-0.0743 l 0.569478,0.2595 c 0.123973,0.05692 0.264428,-0.03683 0.259419,-0.17315 l -0.02183,-0.62688 c 0.04058,-0.03226 0.08065,-0.06517 0.120193,-0.0987 l 0.610403,0.14379 c 0.062,0.0154 0.126989,-0.004 0.171775,-0.0487 0.04505,-0.0448 0.06358,-0.109799 0.04892,-0.17162 l -0.143747,-0.61058 c 0.03348,-0.0398 0.06646,-0.0797 0.09871,-0.12037 l 0.626768,0.0219 c 0.06354,0.0024 0.123742,-0.02844 0.158933,-0.0814 0.03549,-0.05283 0.04094,-0.120309 0.0144,-0.17815 l -0.259516,-0.56933 c 0.02534,-0.0461 0.05024,-0.0922 0.07425,-0.1388 l 0.617544,-0.10039 c 0.0628,-0.01009 0.115829,-0.05212 0.139985,-0.11096 0.02435,-0.0587 0.01656,-0.125824 -0.02058,-0.17739 l -0.365319,-0.50743 c 0.01574,-0.0501 0.0312,-0.10041 0.04588,-0.15109 l 0.5856,-0.21899 c 0.0596,-0.02216 0.10339,-0.07371 0.115625,-0.13611 0.01257,-0.06233 -0.0082,-0.126703 -0.05487,-0.1699 l -0.458073,-0.42742 c 0.0055,-0.0516 0.01056,-0.10347 0.01516,-0.15531 l 0.533121,-0.33005 c 0.05403,-0.03337 0.0869,-0.09237 0.08685,-0.15588 0,-0.0635 -0.03273,-0.12267 -0.08675,-0.15607 z m -3.567961,4.42232 c -0.203566,-0.0439 -0.333028,-0.24456 -0.28933,-0.44876 0.04356,-0.20396 0.244042,-0.33377 0.447558,-0.28987 0.203568,0.0436 0.333227,0.24459 0.289578,0.4484 -0.04365,0.20386 -0.244341,0.33382 -0.447806,0.29023 z m -0.181145,-1.22512 c -0.185785,-0.03984 -0.368648,0.07863 -0.408222,0.26447 l -0.189283,0.88326 c -0.584062,0.26507 -1.232605,0.41234 -1.915669,0.41234 -0.698697,0 -1.361381,-0.15454 -1.9558,-0.43094 l -0.18909,-0.88322 c -0.03974,-0.18583 -0.222513,-0.30426 -0.40813,-0.26436 l -0.7797473,0.16739 C 9.7480696,25.790926 9.6133778,25.632173 9.4898237,25.464899 h 3.7940553 c 0.043,0 0.0716,-0.008 0.0716,-0.0469 v -1.34209 c 0,-0.039 -0.0286,-0.0469 -0.0716,-0.0469 h -1.109534 v -0.85066 h 1.200107 c 0.109615,0 0.585754,0.0313 0.737983,0.63995 0.04773,0.18718 0.152367,0.79613 0.224001,0.99105 0.07133,0.21864 0.361746,0.65539 0.671262,0.65539 h 1.890574 c 0.02148,0 0.0444,-0.002 0.06855,-0.008 -0.131173,0.17815 -0.274869,0.34673 -0.429999,0.50446 l -0.797697,-0.17142 z m -5.247377,1.20665 c -0.203623,0.0439 -0.404061,-0.0858 -0.447869,-0.28982 -0.04358,-0.20432 0.086,-0.40485 0.289473,-0.44875 0.203624,-0.0436 0.404157,0.0862 0.447811,0.29018 0.04358,0.20385 -0.086,0.40476 -0.289473,0.44839 z m -1.4393013,-5.83615 c 0.08447,0.19063 -0.0015,0.41393 -0.1917797,0.49826 -0.1902431,0.0847 -0.4130831,-0.002 -0.4975121,-0.19222 -0.08447,-0.19082 0.0014,-0.41368 0.191779,-0.49824 0.1904389,-0.08447 0.413287,0.0016 0.4975128,0.19214 z m -0.4423598,1.04859 0.8122878,-0.36095 c 0.1736718,-0.07721 0.2519474,-0.280524 0.174886,-0.45426 l -0.167207,-0.37826 h 0.6579223 v 2.96559 H 8.7603719 c -0.1176396,-0.414224 -0.1771437,-0.842786 -0.176805,-1.27339 0,-0.16855 0.0096,-0.3351 0.02649,-0.49879 z m 3.5644971,-0.28804 v -0.87414 h 1.566733 c 0.08093,0 0.571409,0.0935 0.571409,0.46031 0,0.3045 -0.376181,0.41368 -0.685555,0.41368 h -1.452587 z m 5.693901,0.78677 c 0,0.11596 -0.0042,0.23075 -0.01267,0.34465 h -0.476325 c -0.04767,0 -0.06686,0.0313 -0.06686,0.0779 v 0.21875 c 0,0.51487 -0.29032,0.62687 -0.544728,0.65539 -0.242256,0.0272 -0.510897,-0.10136 -0.543984,-0.24969 -0.14296,-0.80386 -0.381091,-0.97552 -0.757172,-1.2722 0.466754,-0.29637 0.952357,-0.73362 0.952357,-1.31891 0,-0.63194 -0.433223,-1.02999 -0.728553,-1.22516 -0.414275,-0.27312 -0.872992,-0.32787 -0.99675,-0.32787 H 9.7675347 c 0.6679813,-0.74552 1.5733173,-1.27363 2.5972513,-1.46579 l 0.580635,0.6091 c 0.130949,0.13761 0.348742,0.142763 0.486052,0.0115 l 0.649693,-0.62141 c 1.361323,0.25348 2.513921,1.10088 3.17814,2.26349 l -0.444781,1.00459 c -0.07679,0.17392 0.0015,0.37716 0.174943,0.4542 l 0.856327,0.38035 c 0.01478,0.15204 0.02257,0.3056 0.02257,0.46129 z m -4.922695,-5.081 c 0.150504,-0.14418 0.389085,-0.13842 0.533121,0.0115 0.143787,0.15108 0.13822,0.38997 -0.01344,0.53397 -0.150505,0.14417 -0.389068,0.1386 -0.533122,-0.0115 -0.143453,-0.151212 -0.137441,-0.390009 0.01344,-0.53381 z m 4.41373,3.55198 c 0.08418,-0.19054 0.307025,-0.276582 0.497408,-0.19205 0.190378,0.0845 0.276283,0.30767 0.191817,0.49824 -0.08413,0.190639 -0.307049,0.276767 -0.497506,0.19222 -0.190128,-0.0845 -0.276034,-0.30754 -0.191702,-0.49841 z"
       id="path2576"
       style="fill:none;fill-opacity:1;stroke:#000000;stroke-width:0.47625;stroke-dasharray:none;stroke-opacity:1"
       sodipodi:nodetypes="cccccccccccccccccccccccccccccccccccccccccccccccccccccccscccccccccccccccccccccccccccccccccccccccccccccccccccccccccccccccccccccccccccccccccccccccccccccccccccccccscccccssssccsccssccccccccccccccccccccccccccccsssccccssscccscsccccccccccccccccccccccc" /><path
       d="m 19.48803,22.593939 -0.533072,-0.33 c -0.0045,-0.05182 -0.0095,-0.103596 -0.01516,-0.15531 l 0.458124,-0.42732 c 0.04655,-0.04326 0.0673,-0.107592 0.0548,-0.1699 -0.01223,-0.06238 -0.056,-0.113923 -0.115567,-0.13611 l -0.585649,-0.219 c -0.01471,-0.0506 -0.03,-0.101026 -0.04588,-0.15127 l 0.365318,-0.50736 c 0.07983,-0.110619 0.01527,-0.266568 -0.119386,-0.2884 l -0.617544,-0.1004 c -0.02401,-0.0469 -0.04901,-0.0929 -0.0742,-0.1386 l 0.259468,-0.56958 c 0.02662,-0.0578 0.02124,-0.125294 -0.0142,-0.17815 -0.03517,-0.05298 -0.09539,-0.08382 -0.158933,-0.0814 l -0.626769,0.0219 c -0.03237,-0.04057 -0.06537,-0.08064 -0.099,-0.12017 l 0.144036,-0.61049 c 0.01468,-0.06194 -0.0038,-0.127064 -0.04892,-0.17201 -0.04491,-0.04501 -0.109921,-0.06355 -0.171814,-0.049 l -0.61035,0.14398 c -0.03962,-0.03363 -0.07973,-0.06666 -0.120328,-0.0991 l 0.02192,-0.62672 c 0.0024,-0.06353 -0.02842,-0.12373 -0.08134,-0.15896 -0.05301,-0.03506 -0.120409,-0.04013 -0.178072,-0.0134 l -0.569431,0.25963 c -0.04593,-0.02538 -0.09216,-0.05022 -0.138679,-0.0745 l -0.100689,-0.61764 c -0.02197,-0.134486 -0.17766,-0.198976 -0.288287,-0.11941 l -0.507725,0.36532 c -0.04995,-0.0154 -0.100189,-0.0313 -0.150888,-0.0457 l -0.218993,-0.58576 c -0.02218,-0.05963 -0.07374,-0.103462 -0.136166,-0.11576 -0.06229,-0.01225 -0.126497,0.0085 -0.169836,0.0549 l -0.427319,0.45849 c -0.05168,-0.0059 -0.10344,-0.011 -0.155266,-0.0154 l -0.329998,-0.53321 c -0.07171,-0.115851 -0.240226,-0.115851 -0.311935,0 l -0.330016,0.53321 c -0.0519,0.0044 -0.10374,0.0095 -0.155496,0.0154 l -0.427423,-0.45849 c -0.09295,-0.09986 -0.258514,-0.0668 -0.305983,0.0611 l -0.218943,0.58576 c -0.05068,0.0154 -0.100977,0.0299 -0.151081,0.0457 l -0.507629,-0.36532 c -0.05159,-0.03727 -0.118847,-0.04503 -0.177573,-0.0205 -0.05861,0.02438 -0.100494,0.07729 -0.110768,0.13994 l -0.100784,0.61765 c -0.04665,0.0242 -0.09272,0.049 -0.138603,0.0745 l -0.5694623,-0.25966 c -0.057961,-0.02617 -0.1253528,-0.02033 -0.177957,0.0154 -0.052938,0.03521 -0.083767,0.09541 -0.0814,0.15895 l 0.02188,0.62671 c -0.04056,0.0325 -0.080686,0.06553 -0.120366,0.0991 l -0.610351,-0.14379 c -0.061916,-0.01455 -0.1269579,0.0039 -0.1720078,0.0488 -0.04509,0.04494 -0.063623,0.110063 -0.04895,0.17201 l 0.1437861,0.6105 c -0.0334,0.0395 -0.06642,0.0795 -0.09867,0.11998 l -0.626766,-0.0219 c -0.063458,-0.002 -0.1234949,0.02873 -0.158952,0.0814 -0.035696,0.05269 -0.04151,0.120126 -0.01536,0.17815 l 0.259622,0.56963 c -0.02515,0.0457 -0.0503,0.0918 -0.07448,0.13861 l -0.617494,0.1004 c -0.1345535,0.02194 -0.1990638,0.177733 -0.119406,0.28837 l 0.365321,0.50743 c -0.01536,0.0501 -0.03129,0.1004 -0.04588,0.15108 l -0.585703,0.21899 c -0.1274935,0.04795 -0.1602306,0.213149 -0.06066,0.3061 l 0.458159,0.42728 c -0.0058,0.0516 -0.01152,0.10346 -0.01536,0.1553 l -0.533161,0.33 c -0.054021,0.03346 -0.086856,0.09251 -0.08677,0.15606 0,0.0638 0.03283,0.12268 0.08677,0.15589 l 0.533123,0.33 c 0.0038,0.0518 0.0096,0.10366 0.01536,0.1553 l -0.458215,0.42742 c -0.099744,0.09291 -0.066846,0.258308 0.06086,0.30598 l 0.585704,0.21901 c 0.01536,0.0507 0.02994,0.10097 0.04588,0.15108 l -0.365321,0.50748 c -0.079833,0.110655 -0.015123,0.266628 0.119598,0.28827 l 0.617398,0.1004 c 0.02419,0.0469 0.04896,0.0929 0.07448,0.1388 l -0.259659,0.56943 c -0.026199,0.05802 -0.020383,0.125475 0.01536,0.17815 0.035214,0.05294 0.095415,0.08377 0.158952,0.0814 l 0.626459,-0.0219 c 0.03264,0.0407 0.06566,0.0806 0.09906,0.12036 l -0.1437861,0.61059 c -0.014647,0.06183 0.00389,0.126823 0.04895,0.17162 0.044934,0.04509 0.110103,0.06355 0.1720078,0.0487 l 0.610352,-0.14379 c 0.03974,0.0338 0.07986,0.0664 0.120365,0.0987 l -0.02188,0.62693 c -0.00487,0.13623 0.1354238,0.229885 0.259373,0.17315 l 0.5694603,-0.25946 c 0.04583,0.02546 0.09203,0.05023 0.138603,0.0743 l 0.100786,0.61731 c 0.01009,0.06277 0.05202,0.115822 0.110767,0.14014 0.05877,0.02431 0.125931,0.01652 0.177572,-0.0206 l 0.507379,-0.36556 c 0.0501,0.0154 0.100402,0.0313 0.151083,0.0461 l 0.218999,0.58549 c 0.02219,0.05957 0.07373,0.103335 0.136108,0.11557 0.06233,0.01256 0.126705,-0.0082 0.169895,-0.0549 l 0.427423,-0.45821 c 0.05164,0.006 0.103472,0.0115 0.155496,0.0154 l 0.329998,0.53313 c 0.03347,0.05393 0.09241,0.08675 0.15588,0.0868 0.06354,7e-6 0.122563,-0.03282 0.156073,-0.0868 l 0.330017,-0.53313 c 0.05193,-0.004 0.10376,-0.01 0.155305,-0.0154 l 0.427319,0.45821 c 0.0432,0.04662 0.107528,0.06741 0.169837,0.0549 0.06236,-0.01228 0.11388,-0.05603 0.136107,-0.11557 l 0.218993,-0.58549 c 0.0507,-0.0154 0.101092,-0.0302 0.151196,-0.0461 l 0.507478,0.36556 c 0.11069,0.07958 0.266435,0.01496 0.288284,-0.1196 l 0.100689,-0.6173 c 0.04657,-0.0242 0.09267,-0.0491 0.138641,-0.0743 l 0.569478,0.2595 c 0.123973,0.05692 0.264428,-0.03683 0.259419,-0.17315 l -0.02183,-0.62688 c 0.04058,-0.03226 0.08065,-0.06517 0.120193,-0.0987 l 0.610403,0.14379 c 0.062,0.0154 0.126989,-0.004 0.171775,-0.0487 0.04505,-0.0448 0.06358,-0.109799 0.04892,-0.17162 l -0.143747,-0.61058 c 0.03348,-0.0398 0.06646,-0.0797 0.09871,-0.12037 l 0.626768,0.0219 c 0.06354,0.0024 0.123742,-0.02844 0.158933,-0.0814 0.03549,-0.05283 0.04094,-0.120309 0.0144,-0.17815 l -0.259516,-0.56933 c 0.02534,-0.0461 0.05024,-0.0922 0.07425,-0.1388 l 0.617544,-0.10039 c 0.0628,-0.01009 0.115829,-0.05212 0.139985,-0.11096 0.02435,-0.0587 0.01656,-0.125824 -0.02058,-0.17739 l -0.365319,-0.50743 c 0.01574,-0.0501 0.0312,-0.10041 0.04588,-0.15109 l 0.5856,-0.21899 c 0.0596,-0.02216 0.10339,-0.07371 0.115625,-0.13611 0.01257,-0.06233 -0.0082,-0.126703 -0.05487,-0.1699 l -0.458073,-0.42742 c 0.0055,-0.0516 0.01056,-0.10347 0.01516,-0.15531 l 0.533121,-0.33005 c 0.05403,-0.03337 0.0869,-0.09237 0.08685,-0.15588 0,-0.0635 -0.03273,-0.12267 -0.08675,-0.15607 z m -3.567961,4.42232 c -0.203566,-0.0439 -0.333028,-0.24456 -0.28933,-0.44876 0.04356,-0.20396 0.244042,-0.33377 0.447558,-0.28987 0.203568,0.0436 0.333227,0.24459 0.289578,0.4484 -0.04365,0.20386 -0.244341,0.33382 -0.447806,0.29023 z m -0.181145,-1.22512 c -0.185785,-0.03984 -0.368648,0.07863 -0.408222,0.26447 l -0.189283,0.88326 c -0.584062,0.26507 -1.232605,0.41234 -1.915669,0.41234 -0.698697,0 -1.361381,-0.15454 -1.9558,-0.43094 l -0.18909,-0.88322 c -0.03974,-0.18583 -0.222513,-0.30426 -0.40813,-0.26436 l -0.7797473,0.16739 C 9.7480696,25.790926 9.6133778,25.632173 9.4898237,25.464899 h 3.7940553 c 0.043,0 0.0716,-0.008 0.0716,-0.0469 v -1.34209 c 0,-0.039 -0.0286,-0.0469 -0.0716,-0.0469 h -1.109534 v -0.85066 h 1.200107 c 0.109615,0 0.585754,0.0313 0.737983,0.63995 0.04773,0.18718 0.152367,0.79613 0.224001,0.99105 0.07133,0.21864 0.361746,0.65539 0.671262,0.65539 h 1.890574 c 0.02148,0 0.0444,-0.002 0.06855,-0.008 -0.131173,0.17815 -0.274869,0.34673 -0.429999,0.50446 l -0.797697,-0.17142 z m -5.247377,1.20665 c -0.203623,0.0439 -0.404061,-0.0858 -0.447869,-0.28982 -0.04358,-0.20432 0.086,-0.40485 0.289473,-0.44875 0.203624,-0.0436 0.404157,0.0862 0.447811,0.29018 0.04358,0.20385 -0.086,0.40476 -0.289473,0.44839 z m -1.4393013,-5.83615 c 0.08447,0.19063 -0.0015,0.41393 -0.1917797,0.49826 -0.1902431,0.0847 -0.4130831,-0.002 -0.4975121,-0.19222 -0.08447,-0.19082 0.0014,-0.41368 0.191779,-0.49824 0.1904389,-0.08447 0.413287,0.0016 0.4975128,0.19214 z m -0.4423598,1.04859 0.8122878,-0.36095 c 0.1736718,-0.07721 0.2519474,-0.280524 0.174886,-0.45426 l -0.167207,-0.37826 h 0.6579223 v 2.96559 H 8.7603719 c -0.1176396,-0.414224 -0.1771437,-0.842786 -0.176805,-1.27339 0,-0.16855 0.0096,-0.3351 0.02649,-0.49879 z m 3.5644971,-0.28804 v -0.87414 h 1.566733 c 0.08093,0 0.571409,0.0935 0.571409,0.46031 0,0.3045 -0.376181,0.41368 -0.685555,0.41368 h -1.452587 z m 5.693901,0.78677 c 0,0.11596 -0.0042,0.23075 -0.01267,0.34465 h -0.476325 c -0.04767,0 -0.06686,0.0313 -0.06686,0.0779 v 0.21875 c 0,0.51487 -0.29032,0.62687 -0.544728,0.65539 -0.242256,0.0272 -0.510897,-0.10136 -0.543984,-0.24969 -0.14296,-0.80386 -0.381091,-0.97552 -0.757172,-1.2722 0.466754,-0.29637 0.952357,-0.73362 0.952357,-1.31891 0,-0.63194 -0.433223,-1.02999 -0.728553,-1.22516 -0.414275,-0.27312 -0.872992,-0.32787 -0.99675,-0.32787 H 9.7675347 c 0.6679813,-0.74552 1.5733173,-1.27363 2.5972513,-1.46579 l 0.580635,0.6091 c 0.130949,0.13761 0.348742,0.142763 0.486052,0.0115 l 0.649693,-0.62141 c 1.361323,0.25348 2.513921,1.10088 3.17814,2.26349 l -0.444781,1.00459 c -0.07679,0.17392 0.0015,0.37716 0.174943,0.4542 l 0.856327,0.38035 c 0.01478,0.15204 0.02257,0.3056 0.02257,0.46129 z m -4.922695,-5.081 c 0.150504,-0.14418 0.389085,-0.13842 0.533121,0.0115 0.143787,0.15108 0.13822,0.38997 -0.01344,0.53397 -0.150505,0.14417 -0.389068,0.1386 -0.533122,-0.0115 -0.143453,-0.151212 -0.137441,-0.390009 0.01344,-0.53381 z m 4.41373,3.55198 c 0.08418,-0.19054 0.307025,-0.276582 0.497408,-0.19205 0.190378,0.0845 0.276283,0.30767 0.191817,0.49824 -0.08413,0.190639 -0.307049,0.276767 -0.497506,0.19222 -0.190128,-0.0845 -0.276034,-0.30754 -0.191702,-0.49841 z"
       id="path1164"
       style="fill:#ffffff;fill-opacity:1;stroke-width:0.0661413"
       sodipodi:nodetypes="cccccccccccccccccccccccccccccccccccccccccccccccccccccccscccccccccccccccccccccccccccccccccccccccccccccccccccccccccccccccccccccccccccccccccccccccccccccccccccccccscccccssssccsccssccccccccccccccccccccccccccccsssccccssscccscsccccccccccccccccccccccc" /></g></svg>
