<?xml version="1.0" encoding="UTF-8" standalone="no"?>
<!-- Created with Inkscape (http://www.inkscape.org/) -->

<svg
   width="128"
   height="128"
   viewBox="0 0 33.866666 33.866666"
   version="1.1"
   id="svg5"
   xml:space="preserve"
   inkscape:version="1.3 (0e150ed6c4, 2023-07-21)"
   sodipodi:docname="folder-appimage.svg"
   xmlns:inkscape="http://www.inkscape.org/namespaces/inkscape"
   xmlns:sodipodi="http://sodipodi.sourceforge.net/DTD/sodipodi-0.dtd"
   xmlns:xlink="http://www.w3.org/1999/xlink"
   xmlns="http://www.w3.org/2000/svg"
   xmlns:svg="http://www.w3.org/2000/svg"><sodipodi:namedview
     id="namedview7"
     pagecolor="#ffffff"
     bordercolor="#000000"
     borderopacity="0.10196078"
     inkscape:showpageshadow="true"
     inkscape:pageopacity="0"
     inkscape:pagecheckerboard="false"
     inkscape:deskcolor="#dbdbdb"
     inkscape:document-units="px"
     showgrid="true"
     borderlayer="true"
     inkscape:zoom="12.890625"
     inkscape:cx="58.530909"
     inkscape:cy="69.469091"
     inkscape:window-width="1920"
     inkscape:window-height="1093"
     inkscape:window-x="0"
     inkscape:window-y="0"
     inkscape:window-maximized="1"
     inkscape:current-layer="layer1"
     showguides="true"><inkscape:grid
       type="xygrid"
       id="grid16"
       originx="0"
       originy="0"
       spacingy="0.26458333"
       spacingx="0.26458333"
       units="px"
       visible="true"
       empcolor="#cc3d3d"
       empopacity="0.30196078"
       empspacing="4" /><sodipodi:guide
       position="6.8791663,19.314583"
       orientation="1,0"
       id="guide182"
       inkscape:locked="false" /><sodipodi:guide
       position="19.579166,18.785417"
       orientation="1,0"
       id="guide184"
       inkscape:locked="false" /><sodipodi:guide
       position="6.3499997,4.7625009"
       orientation="0,-1"
       id="guide186"
       inkscape:locked="false" /><sodipodi:guide
       position="5.5562497,17.4625"
       orientation="0,-1"
       id="guide188"
       inkscape:locked="false" /></sodipodi:namedview><defs
     id="defs2"><linearGradient
       id="linearGradient12"
       inkscape:collect="always"><stop
         style="stop-color:#ffffe8;stop-opacity:1;"
         offset="0"
         id="stop12" /><stop
         style="stop-color:#ffe896;stop-opacity:1;"
         offset="1"
         id="stop13" /></linearGradient><inkscape:path-effect
       effect="perspective-envelope"
       up_left_point="1.9896238,6.1765724"
       up_right_point="27.218606,7.5797374"
       down_left_point="2.0831681,31.10885"
       down_right_point="28.574999,31.576572"
       id="path-effect2835"
       is_visible="true"
       lpeversion="1"
       deform_type="perspective"
       horizontal_mirror="false"
       vertical_mirror="false"
       overflow_perspective="false" /><inkscape:path-effect
       effect="perspective-envelope"
       up_left_point="4.8239449,3.6495202"
       up_right_point="32.914643,2.1060387"
       down_left_point="5.2916666,31.56785"
       down_right_point="31.605022,31.56785"
       id="path-effect2833"
       is_visible="true"
       lpeversion="1"
       deform_type="perspective"
       horizontal_mirror="false"
       vertical_mirror="false"
       overflow_perspective="false" /><inkscape:path-effect
       effect="perspective-envelope"
       up_left_point="6.333243,3.4019982"
       up_right_point="31.732065,3.4019982"
       down_left_point="5.4567911,31.749999"
       down_right_point="31.732065,31.749999"
       id="path-effect13169"
       is_visible="true"
       lpeversion="1"
       deform_type="perspective"
       horizontal_mirror="false"
       vertical_mirror="false"
       overflow_perspective="false" /><inkscape:path-effect
       effect="perspective-envelope"
       up_left_point="5.4567911,3.4019982"
       up_right_point="31.732065,3.4019982"
       down_left_point="5.4567911,31.749999"
       down_right_point="31.732065,31.749999"
       id="path-effect13167"
       is_visible="true"
       lpeversion="1"
       deform_type="perspective"
       horizontal_mirror="false"
       vertical_mirror="false"
       overflow_perspective="false" /><inkscape:path-effect
       effect="perspective-envelope"
       up_left_point="5.539493,3.4019982"
       up_right_point="31.732065,3.6087959"
       down_left_point="4.7624999,31.749999"
       down_right_point="31.732065,31.749999"
       id="path-effect13165"
       is_visible="true"
       lpeversion="1"
       deform_type="perspective"
       horizontal_mirror="false"
       vertical_mirror="false"
       overflow_perspective="false" /><inkscape:path-effect
       effect="perspective-envelope"
       up_left_point="5.539493,3.4019982"
       up_right_point="31.732065,3.6087959"
       down_left_point="4.7624999,31.749999"
       down_right_point="31.732065,31.749999"
       id="path-effect13163"
       is_visible="true"
       lpeversion="1"
       deform_type="perspective"
       horizontal_mirror="false"
       vertical_mirror="false"
       overflow_perspective="false" /><inkscape:path-effect
       effect="perspective-envelope"
       up_left_point="2.1166666,6.3499999"
       up_right_point="28.574999,5.2916666"
       down_left_point="3.0219846,31.749999"
       down_right_point="29.08424,31.749999"
       id="path-effect12133"
       is_visible="true"
       lpeversion="1"
       deform_type="perspective"
       horizontal_mirror="false"
       vertical_mirror="false"
       overflow_perspective="false" /><inkscape:path-effect
       effect="perspective-envelope"
       up_left_point="4.7624999,3.4395833"
       up_right_point="31.749999,3.9687499"
       down_left_point="4.7624999,31.749999"
       down_right_point="31.608553,31.749999"
       id="path-effect12131"
       is_visible="true"
       lpeversion="1"
       deform_type="perspective"
       horizontal_mirror="false"
       vertical_mirror="false"
       overflow_perspective="false" /><inkscape:path-effect
       effect="perspective-envelope"
       up_left_point="2.1166666,6.3499999"
       up_right_point="28.574999,8.4666665"
       down_left_point="1.0583333,31.749999"
       down_right_point="28.574999,31.749999"
       id="path-effect12129"
       is_visible="true"
       lpeversion="1"
       deform_type="perspective"
       horizontal_mirror="false"
       vertical_mirror="false"
       overflow_perspective="false" /><inkscape:path-effect
       effect="perspective-envelope"
       up_left_point="3.1749999,3.1749999"
       up_right_point="31.749999,4.2333332"
       down_left_point="3.1749999,31.749999"
       down_right_point="30.516433,31.749999"
       id="path-effect12105"
       is_visible="true"
       lpeversion="1"
       deform_type="perspective"
       horizontal_mirror="false"
       vertical_mirror="false"
       overflow_perspective="false" /><inkscape:path-effect
       effect="perspective-envelope"
       up_left_point="1.0583333,8.4666665"
       up_right_point="28.574999,7.4083333"
       down_left_point="1.0583338,31.749999"
       down_right_point="28.574999,31.749999"
       id="path-effect12103"
       is_visible="true"
       lpeversion="1"
       deform_type="perspective"
       horizontal_mirror="false"
       vertical_mirror="false"
       overflow_perspective="false" /><inkscape:path-effect
       effect="perspective-envelope"
       up_left_point="1.0583333,7.4083332"
       up_right_point="26.458333,11.641666"
       down_left_point="3.1749999,27.516666"
       down_right_point="28.574999,31.749999"
       id="path-effect12101"
       is_visible="true"
       lpeversion="1"
       deform_type="perspective"
       horizontal_mirror="false"
       vertical_mirror="false"
       overflow_perspective="false" /><inkscape:path-effect
       effect="perspective-envelope"
       up_left_point="5.2916666,3.1749999"
       up_right_point="30.691666,5.2916666"
       down_left_point="3.1749999,27.516666"
       down_right_point="28.574999,31.749999"
       id="path-effect12099"
       is_visible="true"
       lpeversion="1"
       deform_type="perspective"
       horizontal_mirror="false"
       vertical_mirror="false"
       overflow_perspective="false" /><inkscape:path-effect
       effect="perspective-envelope"
       up_left_point="4.2333332,8.4666665"
       up_right_point="27.516666,8.4666665"
       down_left_point="2.6458333,32.279166"
       down_right_point="27.516666,31.75"
       id="path-effect12087"
       is_visible="true"
       lpeversion="1"
       deform_type="perspective"
       horizontal_mirror="false"
       vertical_mirror="false"
       overflow_perspective="false" /><inkscape:path-effect
       effect="perspective-envelope"
       up_left_point="6.8791665,5.5562499"
       up_right_point="30.691666,5.2916666"
       down_left_point="6.8791665,31.749999"
       down_right_point="29.633333,31.749999"
       id="path-effect12085"
       is_visible="true"
       lpeversion="1"
       deform_type="perspective"
       horizontal_mirror="false"
       vertical_mirror="false"
       overflow_perspective="false" /><linearGradient
       inkscape:collect="always"
       id="linearGradient935"><stop
         style="stop-color:#000000;stop-opacity:1;"
         offset="0"
         id="stop931" /><stop
         style="stop-color:#000000;stop-opacity:0;"
         offset="1"
         id="stop933" /></linearGradient><linearGradient
       id="linearGradient4381"
       inkscape:collect="always"><stop
         id="stop4377"
         offset="0"
         style="stop-color:#fafafa;stop-opacity:0" /><stop
         id="stop4379"
         offset="1"
         style="stop-color:#252525;stop-opacity:0.65022421" /></linearGradient><linearGradient
       inkscape:collect="always"
       id="linearGradient4365"><stop
         style="stop-color:#e1bf8d;stop-opacity:1"
         offset="0"
         id="stop4361" /><stop
         style="stop-color:#6a4504;stop-opacity:1"
         offset="1"
         id="stop4363" /></linearGradient><linearGradient
       inkscape:collect="always"
       id="linearGradient4406"><stop
         style="stop-color:#cccccc;stop-opacity:1;"
         offset="0"
         id="stop4402" /><stop
         style="stop-color:#949494;stop-opacity:1;"
         offset="0.31521663"
         id="stop2" /><stop
         style="stop-color:#666666;stop-opacity:1;"
         offset="0.70005435"
         id="stop3" /><stop
         style="stop-color:#4d4d4d;stop-opacity:1;"
         offset="1"
         id="stop4404" /></linearGradient><linearGradient
       inkscape:collect="always"
       xlink:href="#linearGradient4381"
       id="linearGradient4385"
       gradientUnits="userSpaceOnUse"
       gradientTransform="matrix(4,0,0,4,-32.918811,-875.69414)"
       x1="13.6755"
       y1="290.15854"
       x2="13.042861"
       y2="291.61517" /><linearGradient
       inkscape:collect="always"
       xlink:href="#linearGradient4406"
       id="linearGradient1113"
       gradientUnits="userSpaceOnUse"
       x1="6.0194192"
       y1="273.93912"
       x2="27.019419"
       y2="296.93912"
       gradientTransform="translate(-0.99434506,-262.96315)" /><linearGradient
       inkscape:collect="always"
       xlink:href="#linearGradient4365"
       id="linearGradient1121"
       x1="26.882687"
       y1="269.4577"
       x2="27.600334"
       y2="288.55664"
       gradientUnits="userSpaceOnUse"
       gradientTransform="translate(-0.99434506,-262.96315)" /><linearGradient
       id="linearGradient4537"
       inkscape:collect="always"><stop
         id="stop4533"
         offset="0"
         style="stop-color:#ffffff;stop-opacity:1;" /><stop
         style="stop-color:#ffffff;stop-opacity:1"
         offset="0.58333331"
         id="stop4541" /><stop
         id="stop4543"
         offset="0.83333331"
         style="stop-color:#bababa;stop-opacity:1;" /><stop
         id="stop4535"
         offset="1"
         style="stop-color:#757575;stop-opacity:1" /></linearGradient><linearGradient
       gradientTransform="matrix(4,0,0,4,5.2916666,-893.11669)"
       gradientUnits="userSpaceOnUse"
       y2="295.41251"
       x2="5.0270834"
       y1="292.50208"
       x1="0.79374999"
       id="linearGradient4539"
       xlink:href="#linearGradient4537"
       inkscape:collect="always" /><linearGradient
       id="linearGradient4454"><stop
         id="stop1334"
         offset="0"
         style="stop-color:#d21e1e;stop-opacity:1" /><stop
         id="stop1336"
         offset="1"
         style="stop-color:#e05e4c;stop-opacity:1" /></linearGradient><linearGradient
       gradientTransform="translate(-384.57001,-499.79999)"
       gradientUnits="userSpaceOnUse"
       y2="525.725"
       x2="391.89"
       y1="544.092"
       x1="403.421"
       id="linearGradient4213"
       xlink:href="#linearGradient4454" /><linearGradient
       id="linearGradient4472"><stop
         id="stop1340"
         offset="0"
         style="stop-color:#ffa92d;stop-opacity:1" /><stop
         id="stop1342"
         offset="1"
         style="stop-color:#ffc169;stop-opacity:1" /></linearGradient><linearGradient
       gradientTransform="translate(-384.57001,-499.79999)"
       gradientUnits="userSpaceOnUse"
       y2="505.319"
       x2="391.154"
       y1="523.203"
       x1="401.296"
       id="linearGradient4235"
       xlink:href="#linearGradient4472" /><linearGradient
       id="linearGradient4422-8"><stop
         id="stop1346"
         offset="0"
         style="stop-color:#377d50;stop-opacity:1" /><stop
         id="stop1348"
         offset="1"
         style="stop-color:#54d883;stop-opacity:1" /></linearGradient><linearGradient
       gradientTransform="translate(-384.57001,-499.79999)"
       gradientUnits="userSpaceOnUse"
       y2="503.798"
       x2="413.779"
       y1="523.798"
       x1="424.602"
       id="linearGradient4257"
       xlink:href="#linearGradient4422-8" /><linearGradient
       id="linearGradient4438"><stop
         id="stop1352"
         offset="0"
         style="stop-color:#375a7d;stop-opacity:1" /><stop
         id="stop1354"
         offset="1"
         style="stop-color:#54a3d8;stop-opacity:1" /></linearGradient><linearGradient
       gradientTransform="translate(-384.57001,-499.79999)"
       gradientUnits="userSpaceOnUse"
       y2="525.748"
       x2="412.118"
       y1="543.488"
       x1="420.884"
       id="linearGradient4279"
       xlink:href="#linearGradient4438" /><linearGradient
       gradientTransform="translate(0.00142264,-0.00198746)"
       gradientUnits="userSpaceOnUse"
       y2="44"
       x2="44"
       y1="4"
       x1="4"
       id="linearGradient4220"
       xlink:href="#linearGradient935" /><linearGradient
       inkscape:collect="always"
       xlink:href="#linearGradient4438"
       id="linearGradient4"
       x1="14.022916"
       y1="12.699999"
       x2="14"
       y2="29"
       gradientUnits="userSpaceOnUse"
       gradientTransform="translate(-0.97492606,-0.02402948)" /><linearGradient
       inkscape:collect="always"
       xlink:href="#linearGradient12"
       id="linearGradient13"
       x1="11.641666"
       y1="18.785416"
       x2="16.933332"
       y2="27.516665"
       gradientUnits="userSpaceOnUse"
       gradientTransform="translate(-0.97492606,-0.02402948)" /></defs><g
     inkscape:label="Layer 1"
     inkscape:groupmode="layer"
     id="layer1"><path
       style="fill:#000000;fill-opacity:0.196078;stroke:none;stroke-width:0.725255;stroke-miterlimit:4;stroke-dasharray:none;stroke-opacity:1;paint-order:markers stroke fill"
       d="m 27.463296,31.54382 6.216476,-9.324713 -6.216476,-2.072156 z"
       id="path1768"
       inkscape:connector-curvature="0"
       sodipodi:nodetypes="cccc" /><g
       inkscape:label="Layer 1"
       id="layer1-3"
       transform="translate(34.037907,-262.25668)" /><path
       id="rect835"
       style="fill:url(#linearGradient1121);fill-opacity:1;stroke:none;stroke-width:0.538209;stroke-linecap:round;paint-order:markers fill stroke;stop-color:#000000"
       d="M 4.7758645,3.574564 20.551928,5.1924669 21.825899,2.9483279 28.342403,3.5832176 28.89191,6.0545623 31.749998,6.3499997 27.463296,31.54382 4.4418763,23.818371 Z"
       sodipodi:nodetypes="ccccccccc" /><path
       style="fill:none;stroke:#000000;stroke-width:0.238125;stroke-linecap:butt;stroke-linejoin:miter;stroke-dasharray:none;stroke-opacity:1"
       d="M 4.4418763,23.818371 4.7758645,3.574564 20.551928,5.1924669 21.825899,2.9483279 28.342403,3.5832176 28.89191,6.0545623 31.749998,6.3499997 27.463296,31.54382 Z"
       id="path1549"
       sodipodi:nodetypes="ccccccccc" /><path
       id="rect833"
       style="fill:url(#linearGradient1113);fill-opacity:1;stroke:none;stroke-width:0.517406;stroke-linecap:round;paint-order:markers fill stroke;stop-color:#000000"
       d="m 1.0146977,6.152543 14.2906543,3.2254836 0.927245,1.1847154 5.434145,1.220232 0.606984,-0.832144 2.297295,0.518513 2.892275,20.074477 -23.0214197,-7.725449 z"
       sodipodi:nodetypes="ccccccccc" /><path
       style="fill:none;stroke:#ffffff;stroke-width:0.47625;stroke-linecap:butt;stroke-linejoin:miter;stroke-dasharray:none;stroke-opacity:0.39"
       d="m 1.0613264,6.3928965 14.1844886,3.0942807 0.917322,1.1747928 5.568103,1.254962 0.602023,-0.842067 2.130537,0.487127 2.84854,19.802512"
       id="path2"
       sodipodi:nodetypes="ccccccc" /><path
       style="fill:none;stroke:#000000;stroke-width:0.238125;stroke-linecap:butt;stroke-linejoin:miter;stroke-dasharray:none;stroke-opacity:1"
       d="M 27.463296,31.54382 4.4418763,23.818371 1.0146977,6.152543 15.305352,9.3780266 l 0.927245,1.1847154 5.434145,1.220232 0.606984,-0.832144 2.297295,0.518513 2.892275,20.074477"
       id="path1553"
       sodipodi:nodetypes="ccccccccc" /><rect
       style="opacity:1;fill:url(#linearGradient4);fill-opacity:1;fill-rule:evenodd;stroke:none;stroke-width:0.47625;stroke-linecap:round;stroke-dasharray:none;stroke-opacity:0.3;paint-order:stroke fill markers"
       id="rect1"
       width="12.170833"
       height="12.170833"
       x="7.2271562"
       y="16.64472"
       ry="1.3229169" /><rect
       style="fill:none;fill-opacity:1;fill-rule:evenodd;stroke:#000000;stroke-width:0.238125;stroke-linecap:round;stroke-dasharray:none;stroke-opacity:1;paint-order:stroke fill markers"
       id="rect4"
       width="12.170833"
       height="12.170833"
       x="7.2271562"
       y="16.64472"
       ry="1.3229169" /><path
       id="path11"
       style="fill:#000000;fill-opacity:0.2;stroke:none;stroke-width:0.264583;stroke-linecap:butt;stroke-linejoin:miter;stroke-dasharray:none;stroke-opacity:1"
       d="m 12.783406,18.232219 v 2.116666 h -1.058333 l 1.852083,1.852084 1.852084,-1.852084 h -1.058334 v -2.116666 z m 0.577226,4.7625 c -0.119928,0 -0.216524,0.0966 -0.216524,0.216524 v 0.491443 c -0.155796,0.0404 -0.305201,0.102316 -0.443901,0.183968 l -0.347265,-0.347266 c -0.0848,-0.0848 -0.22164,-0.0848 -0.306442,0 l -0.305924,0.305925 c -0.0848,0.0848 -0.0848,0.221641 0,0.306441 l 0.347266,0.347265 c -0.08165,0.138699 -0.14357,0.288104 -0.183968,0.443901 h -0.491443 c -0.119928,0 -0.216525,0.0966 -0.216525,0.216524 v 0.433049 c 0,0.119928 0.0966,0.216524 0.216525,0.216524 h 0.491443 c 0.0404,0.155797 0.102316,0.305202 0.183968,0.443901 l -0.347266,0.347265 c -0.0848,0.0848 -0.0848,0.221638 0,0.306441 l 0.305924,0.305925 c 0.0848,0.0848 0.22164,0.0848 0.306442,0 l 0.347265,-0.347266 c 0.1387,0.08165 0.288105,0.143571 0.443901,0.183968 v 0.491443 c 0,0.119928 0.0966,0.216524 0.216524,0.216524 h 0.433049 c 0.119929,0 0.216524,-0.0966 0.216524,-0.216524 v -0.491443 c 0.155797,-0.0404 0.305201,-0.102316 0.4439,-0.183968 l 0.347266,0.347266 c 0.0848,0.0848 0.221641,0.0848 0.306441,0 l 0.305925,-0.305925 c 0.0848,-0.0848 0.0848,-0.221639 0,-0.306441 l -0.347266,-0.347265 c 0.08165,-0.138699 0.143571,-0.288104 0.183968,-0.443901 h 0.491443 c 0.119928,0 0.216524,-0.0966 0.216524,-0.216524 v -0.433049 c 0,-0.119926 -0.0966,-0.216524 -0.216524,-0.216524 H 15.25354 c -0.04033,-0.156716 -0.102432,-0.307006 -0.184485,-0.446484 l 0.344682,-0.344682 c 0.0848,-0.0848 0.0848,-0.22164 0,-0.306441 l -0.305925,-0.305925 c -0.0848,-0.0848 -0.221641,-0.0848 -0.306441,0 l -0.344682,0.344682 c -0.139478,-0.08205 -0.289767,-0.144152 -0.446484,-0.184485 v -0.488342 c 0,-0.119928 -0.0966,-0.216524 -0.216524,-0.216524 z m 0.216524,1.515153 c 0.478375,-1.04e-4 0.8662,0.387721 0.866097,0.866096 1.04e-4,0.478375 -0.387722,0.866201 -0.866097,0.866097 -0.478375,1.04e-4 -0.8662,-0.387722 -0.866097,-0.866097 -1.03e-4,-0.478375 0.387723,-0.8662 0.866097,-0.866096 z"
       sodipodi:nodetypes="ccccccccssccscssccssssccscscccssssccssscccssssccssssccsssccccc" /><path
       id="path5"
       style="fill:url(#linearGradient13);fill-opacity:1;stroke:none;stroke-width:0.264583;stroke-linecap:butt;stroke-linejoin:miter;stroke-dasharray:none;stroke-opacity:1"
       d="m 12.518823,17.967636 v 2.116667 H 11.46049 l 1.852083,1.852083 1.852083,-1.852083 h -1.058333 v -2.116667 z m 0.577226,4.7625 c -0.119928,0 -0.216524,0.0966 -0.216524,0.216524 v 0.491443 c -0.155797,0.0404 -0.305202,0.102316 -0.443901,0.183968 l -0.347266,-0.347265 c -0.0848,-0.0848 -0.22164,-0.0848 -0.306441,0 l -0.305924,0.305924 c -0.0848,0.0848 -0.0848,0.221641 0,0.306442 l 0.347265,0.347265 c -0.08165,0.138699 -0.143571,0.288104 -0.183968,0.443901 h -0.491443 c -0.119928,0 -0.216524,0.0966 -0.216524,0.216524 v 0.433048 c 0,0.119928 0.0966,0.216525 0.216524,0.216525 h 0.491443 c 0.0404,0.155796 0.102316,0.305201 0.183968,0.4439 l -0.347265,0.347266 c -0.0848,0.0848 -0.0848,0.221638 0,0.306441 l 0.305924,0.305925 c 0.0848,0.0848 0.221639,0.0848 0.306441,0 l 0.347266,-0.347266 c 0.138699,0.08165 0.288104,0.14357 0.443901,0.183968 v 0.491443 c 0,0.119928 0.0966,0.216524 0.216524,0.216524 h 0.433048 c 0.119929,0 0.216525,-0.0966 0.216525,-0.216524 v -0.491443 c 0.155796,-0.0404 0.305201,-0.102316 0.4439,-0.183968 l 0.347266,0.347266 c 0.0848,0.0848 0.221639,0.0848 0.306441,0 l 0.305924,-0.305925 c 0.0848,-0.0848 0.0848,-0.22164 0,-0.306441 l -0.347265,-0.347266 c 0.08165,-0.138699 0.14357,-0.288104 0.183968,-0.4439 h 0.491443 c 0.119928,0 0.216524,-0.0966 0.216524,-0.216525 v -0.433048 c 0,-0.119926 -0.0966,-0.216524 -0.216524,-0.216524 h -0.488343 c -0.04033,-0.156717 -0.102431,-0.307007 -0.184484,-0.446485 l 0.344681,-0.344681 c 0.0848,-0.0848 0.0848,-0.221641 0,-0.306442 l -0.305924,-0.305924 c -0.0848,-0.0848 -0.221641,-0.0848 -0.306441,0 l -0.344682,0.344682 c -0.139478,-0.08205 -0.289768,-0.144152 -0.446484,-0.184485 V 22.94666 c 0,-0.119927 -0.0966,-0.216524 -0.216525,-0.216524 z m 0.216524,1.515153 c 0.478375,-1.04e-4 0.866201,0.387721 0.866097,0.866097 1.04e-4,0.478375 -0.387722,0.866201 -0.866097,0.866097 -0.478375,1.04e-4 -0.866201,-0.387722 -0.866097,-0.866097 -1.04e-4,-0.478376 0.387722,-0.866201 0.866097,-0.866097 z"
       sodipodi:nodetypes="ccccccccssccssssccssssccscscccssssccscssccssssccssssccsssccccc" /><path
       style="fill:#000000;fill-opacity:0.195918;stroke:none;stroke-width:0.264583px;stroke-linecap:butt;stroke-linejoin:miter;stroke-opacity:1"
       d="m 8.5500735,28.815553 h 9.5249995 c 0.752137,-0.05151 1.220889,-0.457713 1.322917,-1.322917 v -9.525 l -0.79375,9.524999 c -0.0569,0.264584 -0.233867,0.445678 -0.529167,0.529167 z"
       id="path1"
       sodipodi:nodetypes="ccccccc" /></g></svg>
