<?xml version="1.0" encoding="UTF-8" standalone="no"?>
<!-- Created with Inkscape (http://www.inkscape.org/) -->

<svg
   width="128"
   height="128"
   viewBox="0 0 33.866666 33.866666"
   version="1.1"
   id="svg5"
   xml:space="preserve"
   inkscape:version="1.3 (0e150ed6c4, 2023-07-21)"
   sodipodi:docname="folder-deb.svg"
   xmlns:inkscape="http://www.inkscape.org/namespaces/inkscape"
   xmlns:sodipodi="http://sodipodi.sourceforge.net/DTD/sodipodi-0.dtd"
   xmlns:xlink="http://www.w3.org/1999/xlink"
   xmlns="http://www.w3.org/2000/svg"
   xmlns:svg="http://www.w3.org/2000/svg"><sodipodi:namedview
     id="namedview7"
     pagecolor="#ffffff"
     bordercolor="#000000"
     borderopacity="0.10196078"
     inkscape:showpageshadow="true"
     inkscape:pageopacity="0"
     inkscape:pagecheckerboard="false"
     inkscape:deskcolor="#dbdbdb"
     inkscape:document-units="px"
     showgrid="false"
     borderlayer="true"
     inkscape:zoom="6.4453125"
     inkscape:cx="64"
     inkscape:cy="64"
     inkscape:window-width="1920"
     inkscape:window-height="1093"
     inkscape:window-x="0"
     inkscape:window-y="0"
     inkscape:window-maximized="1"
     inkscape:current-layer="layer1"
     showguides="false"><inkscape:grid
       type="xygrid"
       id="grid16"
       originx="0"
       originy="0"
       spacingy="0.26458333"
       spacingx="0.26458333"
       units="px"
       visible="false"
       empcolor="#cc3d3d"
       empopacity="0.30196078"
       empspacing="4" /><sodipodi:guide
       position="6.8791663,18.520833"
       orientation="1,0"
       id="guide182"
       inkscape:locked="false" /><sodipodi:guide
       position="19.579166,19.314583"
       orientation="1,0"
       id="guide184"
       inkscape:locked="false" /><sodipodi:guide
       position="14.287499,4.7625009"
       orientation="0,-1"
       id="guide186"
       inkscape:locked="false" /><sodipodi:guide
       position="10.847916,17.4625"
       orientation="0,-1"
       id="guide188"
       inkscape:locked="false" /></sodipodi:namedview><defs
     id="defs2"><inkscape:path-effect
       effect="perspective-envelope"
       up_left_point="1.9896238,6.1765724"
       up_right_point="27.218606,7.5797374"
       down_left_point="2.0831681,31.10885"
       down_right_point="28.574999,31.576572"
       id="path-effect2835"
       is_visible="true"
       lpeversion="1"
       deform_type="perspective"
       horizontal_mirror="false"
       vertical_mirror="false"
       overflow_perspective="false" /><inkscape:path-effect
       effect="perspective-envelope"
       up_left_point="4.8239449,3.6495202"
       up_right_point="32.914643,2.1060387"
       down_left_point="5.2916666,31.56785"
       down_right_point="31.605022,31.56785"
       id="path-effect2833"
       is_visible="true"
       lpeversion="1"
       deform_type="perspective"
       horizontal_mirror="false"
       vertical_mirror="false"
       overflow_perspective="false" /><inkscape:path-effect
       effect="perspective-envelope"
       up_left_point="6.333243,3.4019982"
       up_right_point="31.732065,3.4019982"
       down_left_point="5.4567911,31.749999"
       down_right_point="31.732065,31.749999"
       id="path-effect13169"
       is_visible="true"
       lpeversion="1"
       deform_type="perspective"
       horizontal_mirror="false"
       vertical_mirror="false"
       overflow_perspective="false" /><inkscape:path-effect
       effect="perspective-envelope"
       up_left_point="5.4567911,3.4019982"
       up_right_point="31.732065,3.4019982"
       down_left_point="5.4567911,31.749999"
       down_right_point="31.732065,31.749999"
       id="path-effect13167"
       is_visible="true"
       lpeversion="1"
       deform_type="perspective"
       horizontal_mirror="false"
       vertical_mirror="false"
       overflow_perspective="false" /><inkscape:path-effect
       effect="perspective-envelope"
       up_left_point="5.539493,3.4019982"
       up_right_point="31.732065,3.6087959"
       down_left_point="4.7624999,31.749999"
       down_right_point="31.732065,31.749999"
       id="path-effect13165"
       is_visible="true"
       lpeversion="1"
       deform_type="perspective"
       horizontal_mirror="false"
       vertical_mirror="false"
       overflow_perspective="false" /><inkscape:path-effect
       effect="perspective-envelope"
       up_left_point="5.539493,3.4019982"
       up_right_point="31.732065,3.6087959"
       down_left_point="4.7624999,31.749999"
       down_right_point="31.732065,31.749999"
       id="path-effect13163"
       is_visible="true"
       lpeversion="1"
       deform_type="perspective"
       horizontal_mirror="false"
       vertical_mirror="false"
       overflow_perspective="false" /><inkscape:path-effect
       effect="perspective-envelope"
       up_left_point="2.1166666,6.3499999"
       up_right_point="28.574999,5.2916666"
       down_left_point="3.0219846,31.749999"
       down_right_point="29.08424,31.749999"
       id="path-effect12133"
       is_visible="true"
       lpeversion="1"
       deform_type="perspective"
       horizontal_mirror="false"
       vertical_mirror="false"
       overflow_perspective="false" /><inkscape:path-effect
       effect="perspective-envelope"
       up_left_point="4.7624999,3.4395833"
       up_right_point="31.749999,3.9687499"
       down_left_point="4.7624999,31.749999"
       down_right_point="31.608553,31.749999"
       id="path-effect12131"
       is_visible="true"
       lpeversion="1"
       deform_type="perspective"
       horizontal_mirror="false"
       vertical_mirror="false"
       overflow_perspective="false" /><inkscape:path-effect
       effect="perspective-envelope"
       up_left_point="2.1166666,6.3499999"
       up_right_point="28.574999,8.4666665"
       down_left_point="1.0583333,31.749999"
       down_right_point="28.574999,31.749999"
       id="path-effect12129"
       is_visible="true"
       lpeversion="1"
       deform_type="perspective"
       horizontal_mirror="false"
       vertical_mirror="false"
       overflow_perspective="false" /><inkscape:path-effect
       effect="perspective-envelope"
       up_left_point="3.1749999,3.1749999"
       up_right_point="31.749999,4.2333332"
       down_left_point="3.1749999,31.749999"
       down_right_point="30.516433,31.749999"
       id="path-effect12105"
       is_visible="true"
       lpeversion="1"
       deform_type="perspective"
       horizontal_mirror="false"
       vertical_mirror="false"
       overflow_perspective="false" /><inkscape:path-effect
       effect="perspective-envelope"
       up_left_point="1.0583333,8.4666665"
       up_right_point="28.574999,7.4083333"
       down_left_point="1.0583338,31.749999"
       down_right_point="28.574999,31.749999"
       id="path-effect12103"
       is_visible="true"
       lpeversion="1"
       deform_type="perspective"
       horizontal_mirror="false"
       vertical_mirror="false"
       overflow_perspective="false" /><inkscape:path-effect
       effect="perspective-envelope"
       up_left_point="1.0583333,7.4083332"
       up_right_point="26.458333,11.641666"
       down_left_point="3.1749999,27.516666"
       down_right_point="28.574999,31.749999"
       id="path-effect12101"
       is_visible="true"
       lpeversion="1"
       deform_type="perspective"
       horizontal_mirror="false"
       vertical_mirror="false"
       overflow_perspective="false" /><inkscape:path-effect
       effect="perspective-envelope"
       up_left_point="5.2916666,3.1749999"
       up_right_point="30.691666,5.2916666"
       down_left_point="3.1749999,27.516666"
       down_right_point="28.574999,31.749999"
       id="path-effect12099"
       is_visible="true"
       lpeversion="1"
       deform_type="perspective"
       horizontal_mirror="false"
       vertical_mirror="false"
       overflow_perspective="false" /><inkscape:path-effect
       effect="perspective-envelope"
       up_left_point="4.2333332,8.4666665"
       up_right_point="27.516666,8.4666665"
       down_left_point="2.6458333,32.279166"
       down_right_point="27.516666,31.75"
       id="path-effect12087"
       is_visible="true"
       lpeversion="1"
       deform_type="perspective"
       horizontal_mirror="false"
       vertical_mirror="false"
       overflow_perspective="false" /><inkscape:path-effect
       effect="perspective-envelope"
       up_left_point="6.8791665,5.5562499"
       up_right_point="30.691666,5.2916666"
       down_left_point="6.8791665,31.749999"
       down_right_point="29.633333,31.749999"
       id="path-effect12085"
       is_visible="true"
       lpeversion="1"
       deform_type="perspective"
       horizontal_mirror="false"
       vertical_mirror="false"
       overflow_perspective="false" /><linearGradient
       inkscape:collect="always"
       id="linearGradient935"><stop
         style="stop-color:#000000;stop-opacity:1;"
         offset="0"
         id="stop931" /><stop
         style="stop-color:#000000;stop-opacity:0;"
         offset="1"
         id="stop933" /></linearGradient><linearGradient
       id="linearGradient4381"
       inkscape:collect="always"><stop
         id="stop4377"
         offset="0"
         style="stop-color:#fafafa;stop-opacity:0" /><stop
         id="stop4379"
         offset="1"
         style="stop-color:#252525;stop-opacity:0.65022421" /></linearGradient><linearGradient
       inkscape:collect="always"
       id="linearGradient4365"><stop
         style="stop-color:#e1bf8d;stop-opacity:1"
         offset="0"
         id="stop4361" /><stop
         style="stop-color:#6a4504;stop-opacity:1"
         offset="1"
         id="stop4363" /></linearGradient><linearGradient
       inkscape:collect="always"
       id="linearGradient4406"><stop
         style="stop-color:#cccccc;stop-opacity:1;"
         offset="0"
         id="stop4402" /><stop
         style="stop-color:#949494;stop-opacity:1;"
         offset="0.31521663"
         id="stop2" /><stop
         style="stop-color:#666666;stop-opacity:1;"
         offset="0.70005435"
         id="stop3" /><stop
         style="stop-color:#4d4d4d;stop-opacity:1;"
         offset="1"
         id="stop4404" /></linearGradient><linearGradient
       inkscape:collect="always"
       xlink:href="#linearGradient4381"
       id="linearGradient4385"
       gradientUnits="userSpaceOnUse"
       gradientTransform="matrix(4,0,0,4,-32.918811,-875.69414)"
       x1="13.6755"
       y1="290.15854"
       x2="13.042861"
       y2="291.61517" /><linearGradient
       inkscape:collect="always"
       xlink:href="#linearGradient4406"
       id="linearGradient1113"
       gradientUnits="userSpaceOnUse"
       x1="6.0194192"
       y1="273.93912"
       x2="27.019419"
       y2="296.93912"
       gradientTransform="translate(-0.99434467,-262.96315)" /><linearGradient
       inkscape:collect="always"
       xlink:href="#linearGradient4365"
       id="linearGradient1121"
       x1="26.882687"
       y1="269.4577"
       x2="27.600334"
       y2="288.55664"
       gradientUnits="userSpaceOnUse"
       gradientTransform="translate(-0.99434467,-262.96315)" /><linearGradient
       id="linearGradient4537"
       inkscape:collect="always"><stop
         id="stop4533"
         offset="0"
         style="stop-color:#ffffff;stop-opacity:1;" /><stop
         style="stop-color:#ffffff;stop-opacity:1"
         offset="0.58333331"
         id="stop4541" /><stop
         id="stop4543"
         offset="0.83333331"
         style="stop-color:#bababa;stop-opacity:1;" /><stop
         id="stop4535"
         offset="1"
         style="stop-color:#757575;stop-opacity:1" /></linearGradient><linearGradient
       gradientTransform="matrix(4,0,0,4,5.2916666,-893.11669)"
       gradientUnits="userSpaceOnUse"
       y2="295.41251"
       x2="5.0270834"
       y1="292.50208"
       x1="0.79374999"
       id="linearGradient4539"
       xlink:href="#linearGradient4537"
       inkscape:collect="always" /><linearGradient
       id="linearGradient4454"><stop
         id="stop1334"
         offset="0"
         style="stop-color:#d21e1e;stop-opacity:1" /><stop
         id="stop1336"
         offset="1"
         style="stop-color:#e05e4c;stop-opacity:1" /></linearGradient><linearGradient
       gradientTransform="translate(-384.57001,-499.79999)"
       gradientUnits="userSpaceOnUse"
       y2="525.725"
       x2="391.89"
       y1="544.092"
       x1="403.421"
       id="linearGradient4213"
       xlink:href="#linearGradient4454" /><linearGradient
       id="linearGradient4472"><stop
         id="stop1340"
         offset="0"
         style="stop-color:#ffa92d;stop-opacity:1" /><stop
         id="stop1342"
         offset="1"
         style="stop-color:#ffc169;stop-opacity:1" /></linearGradient><linearGradient
       gradientTransform="translate(-384.57001,-499.79999)"
       gradientUnits="userSpaceOnUse"
       y2="505.319"
       x2="391.154"
       y1="523.203"
       x1="401.296"
       id="linearGradient4235"
       xlink:href="#linearGradient4472" /><linearGradient
       id="linearGradient4422-8"><stop
         id="stop1346"
         offset="0"
         style="stop-color:#377d50;stop-opacity:1" /><stop
         id="stop1348"
         offset="1"
         style="stop-color:#54d883;stop-opacity:1" /></linearGradient><linearGradient
       gradientTransform="translate(-384.57001,-499.79999)"
       gradientUnits="userSpaceOnUse"
       y2="503.798"
       x2="413.779"
       y1="523.798"
       x1="424.602"
       id="linearGradient4257"
       xlink:href="#linearGradient4422-8" /><linearGradient
       id="linearGradient4438"><stop
         id="stop1352"
         offset="0"
         style="stop-color:#375a7d;stop-opacity:1" /><stop
         id="stop1354"
         offset="1"
         style="stop-color:#54a3d8;stop-opacity:1" /></linearGradient><linearGradient
       gradientTransform="translate(-384.57001,-499.79999)"
       gradientUnits="userSpaceOnUse"
       y2="525.748"
       x2="412.118"
       y1="543.488"
       x1="420.884"
       id="linearGradient4279"
       xlink:href="#linearGradient4438" /><linearGradient
       gradientTransform="translate(0.00142264,-0.00198746)"
       gradientUnits="userSpaceOnUse"
       y2="44"
       x2="44"
       y1="4"
       x1="4"
       id="linearGradient4220"
       xlink:href="#linearGradient935" /></defs><g
     inkscape:label="Layer 1"
     inkscape:groupmode="layer"
     id="layer1"><g
       id="g1"><path
         style="fill:#000000;fill-opacity:0.196078;stroke:none;stroke-width:0.725255;stroke-miterlimit:4;stroke-dasharray:none;stroke-opacity:1;paint-order:markers stroke fill"
         d="m 27.463296,31.543821 6.216476,-9.324713 -6.216476,-2.072156 z"
         id="path1768"
         inkscape:connector-curvature="0"
         sodipodi:nodetypes="cccc" /></g><g
       inkscape:label="Layer 1"
       id="layer1-3"
       transform="translate(34.037907,-262.25668)" /><path
       id="rect835"
       style="fill:url(#linearGradient1121);fill-opacity:1;stroke:none;stroke-width:0.538209;stroke-linecap:round;paint-order:markers fill stroke;stop-color:#000000"
       d="M 4.7758649,3.574564 20.551928,5.1924669 21.825899,2.9483279 28.342403,3.5832176 28.89191,6.0545623 31.749998,6.3499997 27.463296,31.543821 4.4418767,23.818372 Z"
       sodipodi:nodetypes="ccccccccc" /><path
       style="fill:none;stroke:#000000;stroke-width:0.238125;stroke-linecap:butt;stroke-linejoin:miter;stroke-dasharray:none;stroke-opacity:1"
       d="M 4.4418767,23.818372 4.7758649,3.574564 20.551928,5.1924669 l 1.273971,-2.244139 6.516504,0.6348897 0.549507,2.4713447 2.858088,0.2954374 -4.286702,25.1938213 z"
       id="path1549"
       sodipodi:nodetypes="ccccccccc" /><path
       id="rect833"
       style="fill:url(#linearGradient1113);fill-opacity:1;stroke:none;stroke-width:0.517406;stroke-linecap:round;paint-order:markers fill stroke;stop-color:#000000"
       d="m 1.0146981,6.152543 14.2906539,3.2254836 0.927245,1.1847164 5.434145,1.220232 0.606984,-0.832144 2.297295,0.518513 2.892275,20.074477 -23.0214193,-7.725449 z"
       sodipodi:nodetypes="ccccccccc" /><path
       style="fill:none;stroke:#ffffff;stroke-width:0.47625;stroke-linecap:butt;stroke-linejoin:miter;stroke-dasharray:none;stroke-opacity:0.39"
       d="m 1.0613268,6.3928965 14.1844882,3.0942807 0.917322,1.1747938 5.568103,1.254962 0.602023,-0.842067 2.130537,0.487127 2.84854,19.802512"
       id="path2"
       sodipodi:nodetypes="ccccccc" /><path
       style="fill:none;stroke:#000000;stroke-width:0.238125;stroke-linecap:butt;stroke-linejoin:miter;stroke-dasharray:none;stroke-opacity:1"
       d="M 27.463296,31.543821 4.4418767,23.818372 1.0146981,6.152543 15.305352,9.3780266 l 0.927245,1.1847164 5.434145,1.220232 0.606984,-0.832144 2.297295,0.518513 2.892275,20.074477"
       id="path1553"
       sodipodi:nodetypes="ccccccccc" /><path
       style="color:#232629;fill:none;fill-opacity:1;fill-rule:evenodd;stroke:#000000;stroke-width:0.47625;stroke-dasharray:none;stroke-opacity:1"
       d="M 14.182493,29.012912 C 13.490281,28.897536 12.509651,28.493753 11.932807,28.118803 10.60607,27.253539 9.7376733,26.291053 9.2009623,25.089785 9.0278993,24.685993 8.9252249,24.397574 8.6241179,23.359257 c -0.05769,-0.25958 -0.155535,-0.550459 -0.191639,-0.641104 -0.06092,-0.152896 -0.06358,-0.20448 -0.03704,-0.714455 0.0252,-0.461473 0.115376,-1.153683 0.173042,-1.209057 0.0085,-0.01326 0.0286,-0.01656 0.04465,-0.0071 0.05422,0.03218 0.104366,-0.116646 0.153638,-0.456083 0.02699,-0.185971 0.0694,-0.381 0.09425,-0.433396 0.02486,-0.05237 0.06693,-0.168028 0.09353,-0.256963 0.0612,-0.204698 0.1446564,-0.362046 0.4026764,-0.75915 0.113479,-0.174656 0.231424,-0.364867 0.262112,-0.422709 0.03611,-0.06806 0.07557,-0.101404 0.111799,-0.09448 0.0349,0.0066 0.0925,-0.03749 0.152811,-0.117105 0.2623247,-0.346234 1.4978707,-1.367731 1.6122067,-1.332903 0.0312,0.0096 0.161594,-0.03341 0.289729,-0.09533 0.231781,-0.112016 0.333912,-0.13792 0.333912,-0.08473 0,0.01526 -0.03352,0.0502 -0.07446,0.07744 -0.07186,0.04781 -0.07042,0.04862 0.04135,0.02267 0.0637,-0.01483 0.170971,-0.03588 0.23838,-0.04684 0.0833,-0.01354 0.117159,-0.0335 0.10568,-0.06224 -0.01002,-0.0252 0.01395,-0.0502 0.05941,-0.0619 0.113897,-0.02924 0.29139,-0.02447 0.29139,0.0079 0,0.03883 -0.101485,0.07802 -0.18198,0.07038 -0.05492,-0.0053 -0.05771,-5.77e-4 -0.01656,0.02636 0.04095,0.02699 0.04147,0.03277 0.0029,0.03317 -0.02579,2.64e-4 -0.03838,0.0085 -0.02803,0.01853 0.01043,0.01002 0.07936,-0.01151 0.153311,-0.04777 0.07395,-0.03624 0.209408,-0.08126 0.300996,-0.100114 0.112761,-0.02321 0.166525,-0.05013 0.166525,-0.08335 0,-0.04274 0.05237,-0.04638 0.405316,-0.02815 0.222933,0.0115 0.559336,0.04504 0.747567,0.07452 0.342216,0.05359 0.342244,0.05359 0.46978,-0.01679 0.15296,-0.08448 0.399007,-0.09549 0.463661,-0.02071 0.02364,0.02733 0.08875,0.07242 0.144676,0.100186 0.09122,0.04527 0.09726,0.04534 0.0587,5.75e-4 -0.07324,-0.08474 -5.05e-4,-0.08262 0.282301,0.0083 0.91174,0.293043 1.655018,0.814934 2.206555,1.549332 0.130792,0.174155 0.138703,0.252506 0.01483,0.146487 l -0.0709,-0.06067 0.05416,0.101619 c 0.02977,0.05591 0.05415,0.118715 0.05415,0.139575 0,0.02093 0.08769,0.175201 0.194843,0.342927 0.241512,0.378024 0.309072,0.505384 0.29287,0.552042 -0.0071,0.02007 -0.113938,-0.113152 -0.237769,-0.295879 -0.123819,-0.182722 -0.307054,-0.428932 -0.407182,-0.547114 -0.149539,-0.176487 -0.188696,-0.206682 -0.219201,-0.168943 -0.02049,0.02528 -0.07031,0.05048 -0.110892,0.05612 l -0.07374,0.01028 0.07295,0.137222 c 0.04009,0.07548 0.07827,0.12191 0.08477,0.103188 0.03485,-0.100237 0.196957,0.03156 0.270684,0.220006 0.02388,0.06113 0.08747,0.186994 0.141255,0.279726 0.05377,0.09273 0.09101,0.175091 0.08273,0.183028 -0.0083,0.0081 -0.05733,-0.01745 -0.10897,-0.05646 l -0.0939,-0.0709 0.06406,0.105518 c 0.03525,0.05803 0.0942,0.129045 0.131074,0.157781 0.04598,0.03588 0.06798,0.09251 0.07003,0.180564 0.0038,0.162576 0.10083,0.354647 0.153616,0.303999 0.08222,-0.07891 0.09913,-0.02959 0.07844,0.228808 -0.01526,0.190373 -0.0072,0.315854 0.02903,0.449064 0.05492,0.202235 0.04309,0.252152 -0.03721,0.157627 -0.05106,-0.0601 -0.05156,-0.06006 -0.02874,0.0025 0.04902,0.133714 0.08564,0.333772 0.07546,0.412289 -0.01897,0.14651 -0.07634,0.08559 -0.09605,-0.10209 l -0.01918,-0.183179 -0.0058,0.194954 c -0.0029,0.107224 -0.0293,0.314417 -0.0583,0.460427 -0.0293,0.14749 -0.0442,0.326188 -0.03346,0.402066 0.02007,0.142762 0.0058,0.148276 -0.118433,0.04602 -0.05058,-0.04164 -0.05932,-0.03322 -0.09408,0.09065 -0.02924,0.104232 -0.02903,0.163579 0.0011,0.25086 0.02157,0.0629 0.03421,0.148186 0.02792,0.189545 -0.01439,0.09545 -0.09413,0.125214 -0.09413,0.0352 0,-0.113193 -0.04488,-0.07291 -0.181982,0.163384 -0.370264,0.63808 -0.956129,1.131891 -1.619208,1.364811 -0.390922,0.137332 -0.65312,0.188239 -1.093971,0.212461 l -0.397051,0.0218 0.196173,0.05808 c 0.158195,0.04682 0.251082,0.05382 0.479765,0.03611 0.299599,-0.02325 0.651376,-0.08562 0.810885,-0.143828 0.06365,-0.02325 0.106655,-0.02429 0.128652,-0.0034 0.05187,0.04977 -0.408925,0.245513 -0.682456,0.28986 -0.465434,0.07546 -1.088457,-0.0061 -1.638424,-0.214486 -0.373141,-0.141387 -0.926865,-0.509601 -0.842012,-0.559926 0.01614,-0.0096 0.12141,0.0386 0.2341,0.10698 0.144023,0.0874 0.204873,0.110405 0.204873,0.07748 0,-0.06218 0.02137,-0.05919 0.135739,0.01897 0.103338,0.07062 0.421181,0.201733 0.650102,0.268195 0.24954,0.07242 0.152788,-0.01525 -0.18198,-0.165151 -1.058491,-0.473569 -1.497906,-0.947238 -1.716905,-1.850708 -0.08029,-0.331305 0.0057,-1.057613 0.152199,-1.285078 0.03716,-0.05762 0.06749,-0.128517 0.06749,-0.157519 0,-0.125836 0.218653,-0.458305 0.443016,-0.673625 0.395351,-0.379408 0.806394,-0.536922 1.339977,-0.513484 0.257942,0.01136 0.368106,0.03311 0.582773,0.115143 0.243486,0.09306 0.55007,0.287867 0.456179,0.289869 -0.02208,4.65e-4 -0.118865,-0.03063 -0.215077,-0.06912 -0.146248,-0.0585 -0.240031,-0.07019 -0.571984,-0.07144 -0.466142,-0.0018 -0.693977,0.06173 -1.025719,0.285726 -0.470322,0.317579 -0.731859,0.683374 -0.824482,1.153148 -0.06216,0.31522 -0.06406,0.402563 -0.01549,0.715239 0.02793,0.180172 0.04777,0.233041 0.08272,0.220178 0.02936,-0.01069 0.04598,0.0053 0.04598,0.04374 0,0.111664 0.253187,0.564643 0.428778,0.767132 0.422634,0.487411 1.106286,0.798442 1.754964,0.798442 0.336679,0 0.608834,-0.06202 0.859351,-0.195826 0.100595,-0.05377 0.227581,-0.119433 0.282173,-0.145984 0.19262,-0.0937 0.312131,-0.200731 0.451847,-0.40467 0.07769,-0.113369 0.162119,-0.206137 0.187649,-0.206137 0.03771,0 0.03611,0.01634 -0.0087,0.08732 -0.147686,0.233911 0.198921,-0.1914 0.378409,-0.464327 l 0.201037,-0.305698 -0.02192,-0.200817 c -0.02115,-0.19297 -0.0181,-0.204742 0.07819,-0.301658 0.09265,-0.09333 0.100973,-0.120964 0.111649,-0.370445 0.0097,-0.223298 0.0029,-0.269656 -0.03806,-0.269909 -0.0382,-2.2e-4 -0.05457,-0.05905 -0.07102,-0.254332 -0.0218,-0.258471 -0.241045,-1.128216 -0.292101,-1.158502 -0.01549,-0.0093 -0.05816,-0.09277 -0.09503,-0.185839 -0.12436,-0.314115 -0.342507,-0.616158 -0.68263,-0.945209 -0.489404,-0.473451 -1.105893,-0.839051 -1.688228,-1.001167 -0.495346,-0.137898 -1.336493,-0.08784 -1.935624,0.115183 -0.292408,0.09909 -0.580511,0.230289 -0.629128,0.286502 -0.02204,0.02548 -0.05406,0.03813 -0.07108,0.02803 -0.01788,-0.01069 -0.01286,-0.03911 0.01178,-0.06771 0.110364,-0.127625 -0.25589,0.105951 -0.491679,0.31358 -0.142542,0.125512 -0.264378,0.232038 -0.27073,0.236704 -0.0063,0.0046 0.02137,2.2e-4 0.06167,-0.0097 0.06699,-0.01679 0.06984,-0.01246 0.03351,0.05284 -0.02331,0.04178 -0.14459,0.116863 -0.293271,0.181588 -0.249813,0.108753 -0.411387,0.228258 -0.539759,0.399264 -0.05124,0.06827 -0.05421,0.08297 -0.01375,0.06805 0.02843,-0.01043 0.05174,-0.0042 0.05174,0.01461 0,0.09067 -0.08586,0.191922 -0.213027,0.25123 -0.281769,0.131374 -0.7767527,0.83311 -1.0418997,1.477121 -0.118166,0.286985 -0.116291,0.277015 -0.05204,0.277015 0.06772,0 0.06301,0.0738 -0.03,0.470259 -0.135498,0.577491 -0.135651,0.559014 0.01178,1.371451 0.179779,0.989885 0.284817,1.320553 0.484518,1.525449 0.04685,0.04806 0.09237,0.150304 0.112671,0.253025 0.02422,0.122655 0.06492,0.203587 0.1410807,0.280626 0.06942,0.07023 0.09256,0.113302 0.06591,0.122642 -0.05232,0.01831 0.111488,0.252713 0.260952,0.373405 0.07519,0.06071 0.130926,0.08112 0.191268,0.07005 0.132294,-0.02428 0.266997,0.04886 0.473975,0.257299 0.215097,0.216623 0.236643,0.274849 0.0943,0.254805 -0.0918,-0.01286 -0.0939,-0.01043 -0.04874,0.05566 0.026,0.03806 0.121857,0.129573 0.213026,0.203347 0.128071,0.10365 0.161052,0.148471 0.144984,0.19709 -0.02314,0.0699 0.04281,0.135122 0.191987,0.189851 0.09251,0.03393 0.122303,0.107129 0.05267,0.129397 -0.02115,0.0068 0.1092,0.135434 0.28951,0.285978 0.203129,0.16962 0.339779,0.262582 0.359252,0.244424 0.05146,-0.04794 0.117377,-0.03335 0.118555,0.02624 0.0011,0.06502 0.0597,0.133336 0.269773,0.315558 0.132754,0.115142 0.16589,0.12964 0.247275,0.108144 0.07451,-0.01962 0.12137,-0.0071 0.226323,0.06102 0.209387,0.135825 0.336334,0.190047 0.445042,0.190047 0.106967,0 0.122195,0.02947 0.06666,0.129112 -0.02942,0.05272 -0.02314,0.06142 0.04448,0.06142 0.04325,0 0.16526,0.02856 0.271041,0.06352 0.240533,0.07942 0.340867,0.08482 0.280583,0.01503 -0.08906,-0.102973 0.0053,-0.07481 0.323567,0.09638 0.444592,0.239267 0.669496,0.266597 1.554818,0.188958 0.131074,-0.01151 0.173717,-0.0046 0.173717,0.02734 0,0.02758 -0.113749,0.06898 -0.322605,0.117471 -0.274572,0.06374 -0.421123,0.07606 -0.984355,0.08283 -0.443816,0.0053 -0.746975,-0.0063 -0.920537,-0.0352 z m -0.452602,-4.760147 c 0,-0.0068 -0.04095,-0.03617 -0.09098,-0.06538 l -0.09101,-0.05317 0.07812,0.06538 c 0.07623,0.06381 0.103866,0.07795 0.103866,0.05317 z m 4.555602,-3.327857 c -0.01043,-0.02534 -0.01831,-0.01788 -0.02007,0.01918 -0.0018,0.03347 0.0063,0.05221 0.01744,0.04164 0.01097,-0.01043 0.01219,-0.03796 0.0025,-0.06085 z m -7.508627,-3.330273 c 0.04119,-0.05037 0.03999,-0.05152 -0.01246,-0.01205 -0.03182,0.02401 -0.05791,0.04896 -0.05791,0.05555 0,0.02614 0.02717,0.0094 0.0704,-0.04356 z m 0.376286,-0.293723 c 0.03294,-0.03495 0.05244,-0.06352 0.04332,-0.06352 -0.0093,0 -0.04349,0.02856 -0.07641,0.06352 -0.03294,0.03495 -0.05243,0.06352 -0.04332,0.06352 0.0093,0 0.04349,-0.02856 0.07644,-0.06352 z m 0.416492,-0.223215 c 0.109079,-0.03543 0.171037,-0.04171 0.194038,-0.01963 0.02302,0.02208 0.108362,0.0089 0.267198,-0.04102 0.128368,-0.04039 0.2275,-0.0791 0.220291,-0.08601 -0.0072,-0.0071 -0.112909,0.0194 -0.234878,0.05849 -0.167528,0.0537 -0.227807,0.06168 -0.246492,0.03264 -0.03155,-0.04903 -0.332642,0.0476 -0.46205,0.14832 l -0.08843,0.06881 0.09503,-0.05474 c 0.05226,-0.0301 0.167156,-0.07819 0.255288,-0.106831 z m 0.9539,-0.0806 c 0.09608,-0.0274 0.168965,-0.05532 0.161966,-0.06201 -0.01549,-0.01483 -0.357751,0.07923 -0.357751,0.09833 0,0.01918 0.0029,0.01875 0.195781,-0.03628 z m 0.548688,-0.173107 0.132361,-0.02321 -0.115806,-0.0029 c -0.0637,-0.0018 -0.153027,0.01918 -0.198529,0.04587 -0.05352,0.03156 -0.05938,0.04073 -0.01656,0.026 0.03638,-0.01245 0.125729,-0.03311 0.198528,-0.04584 z m 0.262798,-0.05994 c 0.01028,-0.0157 -0.01136,-0.02137 -0.0477,-0.01219 -0.07727,0.0194 -0.08703,0.04096 -0.01853,0.04096 0.02624,0 0.05601,-0.01313 0.06621,-0.02878 z m 1.06829,0.0097 c -0.0111,-0.01043 -0.0395,-0.01151 -0.06342,-0.0025 -0.02642,0.01029 -0.01853,0.01767 0.02007,0.01918 0.03491,0.0011 0.05439,-0.0061 0.04342,-0.01656 z M 14.205489,16.7393 c -0.03183,-0.0081 -0.08396,-0.0081 -0.115806,0 -0.03183,0.0081 -0.0057,0.01461 0.0579,0.01461 0.06368,0 0.08976,-0.0066 0.0579,-0.01461 z m -0.33,-0.03295 c -0.06776,-0.0068 -0.186885,-0.0071 -0.264702,-2.07e-4 -0.07783,0.0068 -0.02239,0.01219 0.123197,0.01246 0.145594,1.13e-4 0.209256,-0.0053 0.141495,-0.01219 z M 13.443786,16.6785 c -0.0111,-0.01043 -0.0395,-0.01178 -0.06342,-0.0025 -0.02642,0.01028 -0.01853,0.01765 0.02007,0.01918 0.03489,0.0011 0.05439,-0.0061 0.04342,-0.01656 z m -0.22397,7.632178 c -0.337032,-0.231751 -0.461908,-0.351616 -0.461908,-0.443402 0,-0.04868 0.01151,-0.08855 0.02549,-0.08855 0.04769,0 0.611154,0.564421 0.598832,0.599892 -0.0072,0.02049 -0.07513,-0.0079 -0.162422,-0.06796 z m -0.173435,-0.588479 c -0.175026,-0.16975 -0.231121,-0.261048 -0.160375,-0.261048 0.04253,0 0.36821,0.357878 0.36821,0.404587 0,0.02199 -0.0042,0.03999 -0.0094,0.03999 -0.0053,0 -0.09444,-0.08256 -0.198528,-0.183507 z m 1.936663,-0.694872 c -0.09241,-0.03575 -0.03474,-0.102099 0.115807,-0.133079 0.08645,-0.01788 0.223809,-0.061 0.305259,-0.09601 0.08146,-0.03502 0.153966,-0.05799 0.16116,-0.0511 0.0072,0.0071 -0.02971,0.07745 -0.08191,0.156821 -0.0944,0.143415 -0.0961,0.144286 -0.276968,0.141844 -0.100093,-0.0011 -0.200599,-0.0096 -0.223344,-0.01853 z m 0.992626,-0.71029 c -0.0893,-0.03445 -0.09302,-0.09308 -0.01853,-0.292737 0.06406,-0.171493 0.130479,-0.20533 0.09353,-0.04764 -0.01327,0.05677 -0.03103,0.138924 -0.03946,0.182593 l -0.01525,0.07938 0.06613,-0.07227 c 0.03911,-0.04274 0.07534,-0.14313 0.08869,-0.245733 0.01246,-0.09541 0.03575,-0.165628 0.05191,-0.156057 0.04095,0.02428 0.03657,0.275341 -0.0076,0.444131 -0.03871,0.147446 -0.07349,0.164627 -0.219414,0.108334 z M 8.1457179,21.918458 c -0.01111,-0.02763 -0.02006,-0.135979 -0.02006,-0.240801 0,-0.138289 0.01134,-0.186974 0.04136,-0.177447 0.04914,0.01548 0.07796,0.468473 0.02983,0.468473 -0.01701,0 -0.04003,-0.02261 -0.0511,-0.05024 z m 7.9599381,-0.742736 c -0.05139,-0.06674 -0.06726,-0.119433 -0.05267,-0.175179 0.02992,-0.114506 0.108266,-0.09822 0.166065,0.03449 0.08991,0.206485 0.01178,0.303268 -0.113397,0.140646 z M 8.1389139,20.671591 c -0.0024,-0.180062 -1.7e-5,-0.185621 0.08304,-0.182591 0.07042,0.0025 0.08743,0.02028 0.09556,0.100094 0.0091,0.08991 -0.0927,0.268214 -0.153224,0.268214 -0.01243,0 -0.02394,-0.08356 -0.02538,-0.185709 z m 8.5766751,-3.903543 c 0.0046,-0.28417 0.0545,-0.380435 0.09337,-0.181479 0.02711,0.138639 -0.0075,0.383435 -0.05987,0.425251 -0.02856,0.02274 -0.03709,-0.03923 -0.03352,-0.243776 z m -4.347636,-0.170294 c 0.01327,-0.0383 0.469735,-0.217692 0.55393,-0.217692 0.09891,0 -0.07852,0.116306 -0.283182,0.185642 -0.228188,0.0773 -0.288952,0.08448 -0.270748,0.03207 z"
       class="ColorScheme-Text"
       id="path1" /><path
       style="color:#232629;fill:#ff0046;fill-opacity:1;fill-rule:evenodd;stroke:none;stroke-width:0.264582"
       d="M 14.182493,29.012912 C 13.490281,28.897536 12.509651,28.493753 11.932807,28.118803 10.60607,27.253539 9.7376733,26.291053 9.2009623,25.089785 9.0278993,24.685993 8.9252249,24.397574 8.6241179,23.359257 c -0.05769,-0.25958 -0.155535,-0.550459 -0.191639,-0.641104 -0.06092,-0.152896 -0.06358,-0.20448 -0.03704,-0.714455 0.0252,-0.461473 0.115376,-1.153683 0.173042,-1.209057 0.0085,-0.01326 0.0286,-0.01656 0.04465,-0.0071 0.05422,0.03218 0.104366,-0.116646 0.153638,-0.456083 0.02699,-0.185971 0.0694,-0.381 0.09425,-0.433396 0.02486,-0.05237 0.06693,-0.168028 0.09353,-0.256963 0.0612,-0.204698 0.1446564,-0.362046 0.4026764,-0.75915 0.113479,-0.174656 0.231424,-0.364867 0.262112,-0.422709 0.03611,-0.06806 0.07557,-0.101404 0.111799,-0.09448 0.0349,0.0066 0.0925,-0.03749 0.152811,-0.117105 0.2623247,-0.346234 1.4978707,-1.367731 1.6122067,-1.332903 0.0312,0.0096 0.161594,-0.03341 0.289729,-0.09533 0.231781,-0.112016 0.333912,-0.13792 0.333912,-0.08473 0,0.01526 -0.03352,0.0502 -0.07446,0.07744 -0.07186,0.04781 -0.07042,0.04862 0.04135,0.02267 0.0637,-0.01483 0.170971,-0.03588 0.23838,-0.04684 0.0833,-0.01354 0.117159,-0.0335 0.10568,-0.06224 -0.01002,-0.0252 0.01395,-0.0502 0.05941,-0.0619 0.113897,-0.02924 0.29139,-0.02447 0.29139,0.0079 0,0.03883 -0.101485,0.07802 -0.18198,0.07038 -0.05492,-0.0053 -0.05771,-5.77e-4 -0.01656,0.02636 0.04095,0.02699 0.04147,0.03277 0.0029,0.03317 -0.02579,2.64e-4 -0.03838,0.0085 -0.02803,0.01853 0.01043,0.01002 0.07936,-0.01151 0.153311,-0.04777 0.07395,-0.03624 0.209408,-0.08126 0.300996,-0.100114 0.112761,-0.02321 0.166525,-0.05013 0.166525,-0.08335 0,-0.04274 0.05237,-0.04638 0.405316,-0.02815 0.222933,0.0115 0.559336,0.04504 0.747567,0.07452 0.342216,0.05359 0.342244,0.05359 0.46978,-0.01679 0.15296,-0.08448 0.399007,-0.09549 0.463661,-0.02071 0.02364,0.02733 0.08875,0.07242 0.144676,0.100186 0.09122,0.04527 0.09726,0.04534 0.0587,5.75e-4 -0.07324,-0.08474 -5.05e-4,-0.08262 0.282301,0.0083 0.91174,0.293043 1.655018,0.814934 2.206555,1.549332 0.130792,0.174155 0.138703,0.252506 0.01483,0.146487 l -0.0709,-0.06067 0.05416,0.101619 c 0.02977,0.05591 0.05415,0.118715 0.05415,0.139575 0,0.02093 0.08769,0.175201 0.194843,0.342927 0.241512,0.378024 0.309072,0.505384 0.29287,0.552042 -0.0071,0.02007 -0.113938,-0.113152 -0.237769,-0.295879 -0.123819,-0.182722 -0.307054,-0.428932 -0.407182,-0.547114 -0.149539,-0.176487 -0.188696,-0.206682 -0.219201,-0.168943 -0.02049,0.02528 -0.07031,0.05048 -0.110892,0.05612 l -0.07374,0.01028 0.07295,0.137222 c 0.04009,0.07548 0.07827,0.12191 0.08477,0.103188 0.03485,-0.100237 0.196957,0.03156 0.270684,0.220006 0.02388,0.06113 0.08747,0.186994 0.141255,0.279726 0.05377,0.09273 0.09101,0.175091 0.08273,0.183028 -0.0083,0.0081 -0.05733,-0.01745 -0.10897,-0.05646 l -0.0939,-0.0709 0.06406,0.105518 c 0.03525,0.05803 0.0942,0.129045 0.131074,0.157781 0.04598,0.03588 0.06798,0.09251 0.07003,0.180564 0.0038,0.162576 0.10083,0.354647 0.153616,0.303999 0.08222,-0.07891 0.09913,-0.02959 0.07844,0.228808 -0.01526,0.190373 -0.0072,0.315854 0.02903,0.449064 0.05492,0.202235 0.04309,0.252152 -0.03721,0.157627 -0.05106,-0.0601 -0.05156,-0.06006 -0.02874,0.0025 0.04902,0.133714 0.08564,0.333772 0.07546,0.412289 -0.01897,0.14651 -0.07634,0.08559 -0.09605,-0.10209 l -0.01918,-0.183179 -0.0058,0.194954 c -0.0029,0.107224 -0.0293,0.314417 -0.0583,0.460427 -0.0293,0.14749 -0.0442,0.326188 -0.03346,0.402066 0.02007,0.142762 0.0058,0.148276 -0.118433,0.04602 -0.05058,-0.04164 -0.05932,-0.03322 -0.09408,0.09065 -0.02924,0.104232 -0.02903,0.163579 0.0011,0.25086 0.02157,0.0629 0.03421,0.148186 0.02792,0.189545 -0.01439,0.09545 -0.09413,0.125214 -0.09413,0.0352 0,-0.113193 -0.04488,-0.07291 -0.181982,0.163384 -0.370264,0.63808 -0.956129,1.131891 -1.619208,1.364811 -0.390922,0.137332 -0.65312,0.188239 -1.093971,0.212461 l -0.397051,0.0218 0.196173,0.05808 c 0.158195,0.04682 0.251082,0.05382 0.479765,0.03611 0.299599,-0.02325 0.651376,-0.08562 0.810885,-0.143828 0.06365,-0.02325 0.106655,-0.02429 0.128652,-0.0034 0.05187,0.04977 -0.408925,0.245513 -0.682456,0.28986 -0.465434,0.07546 -1.088457,-0.0061 -1.638424,-0.214486 -0.373141,-0.141387 -0.926865,-0.509601 -0.842012,-0.559926 0.01614,-0.0096 0.12141,0.0386 0.2341,0.10698 0.144023,0.0874 0.204873,0.110405 0.204873,0.07748 0,-0.06218 0.02137,-0.05919 0.135739,0.01897 0.103338,0.07062 0.421181,0.201733 0.650102,0.268195 0.24954,0.07242 0.152788,-0.01525 -0.18198,-0.165151 -1.058491,-0.473569 -1.497906,-0.947238 -1.716905,-1.850708 -0.08029,-0.331305 0.0057,-1.057613 0.152199,-1.285078 0.03716,-0.05762 0.06749,-0.128517 0.06749,-0.157519 0,-0.125836 0.218653,-0.458305 0.443016,-0.673625 0.395351,-0.379408 0.806394,-0.536922 1.339977,-0.513484 0.257942,0.01136 0.368106,0.03311 0.582773,0.115143 0.243486,0.09306 0.55007,0.287867 0.456179,0.289869 -0.02208,4.65e-4 -0.118865,-0.03063 -0.215077,-0.06912 -0.146248,-0.0585 -0.240031,-0.07019 -0.571984,-0.07144 -0.466142,-0.0018 -0.693977,0.06173 -1.025719,0.285726 -0.470322,0.317579 -0.731859,0.683374 -0.824482,1.153148 -0.06216,0.31522 -0.06406,0.402563 -0.01549,0.715239 0.02793,0.180172 0.04777,0.233041 0.08272,0.220178 0.02936,-0.01069 0.04598,0.0053 0.04598,0.04374 0,0.111664 0.253187,0.564643 0.428778,0.767132 0.422634,0.487411 1.106286,0.798442 1.754964,0.798442 0.336679,0 0.608834,-0.06202 0.859351,-0.195826 0.100595,-0.05377 0.227581,-0.119433 0.282173,-0.145984 0.19262,-0.0937 0.312131,-0.200731 0.451847,-0.40467 0.07769,-0.113369 0.162119,-0.206137 0.187649,-0.206137 0.03771,0 0.03611,0.01634 -0.0087,0.08732 -0.147686,0.233911 0.198921,-0.1914 0.378409,-0.464327 l 0.201037,-0.305698 -0.02192,-0.200817 c -0.02115,-0.19297 -0.0181,-0.204742 0.07819,-0.301658 0.09265,-0.09333 0.100973,-0.120964 0.111649,-0.370445 0.0097,-0.223298 0.0029,-0.269656 -0.03806,-0.269909 -0.0382,-2.2e-4 -0.05457,-0.05905 -0.07102,-0.254332 -0.0218,-0.258471 -0.241045,-1.128216 -0.292101,-1.158502 -0.01549,-0.0093 -0.05816,-0.09277 -0.09503,-0.185839 -0.12436,-0.314115 -0.342507,-0.616158 -0.68263,-0.945209 -0.489404,-0.473451 -1.105893,-0.839051 -1.688228,-1.001167 -0.495346,-0.137898 -1.336493,-0.08784 -1.935624,0.115183 -0.292408,0.09909 -0.580511,0.230289 -0.629128,0.286502 -0.02204,0.02548 -0.05406,0.03813 -0.07108,0.02803 -0.01788,-0.01069 -0.01286,-0.03911 0.01178,-0.06771 0.110364,-0.127625 -0.25589,0.105951 -0.491679,0.31358 -0.142542,0.125512 -0.264378,0.232038 -0.27073,0.236704 -0.0063,0.0046 0.02137,2.2e-4 0.06167,-0.0097 0.06699,-0.01679 0.06984,-0.01246 0.03351,0.05284 -0.02331,0.04178 -0.14459,0.116863 -0.293271,0.181588 -0.249813,0.108753 -0.411387,0.228258 -0.539759,0.399264 -0.05124,0.06827 -0.05421,0.08297 -0.01375,0.06805 0.02843,-0.01043 0.05174,-0.0042 0.05174,0.01461 0,0.09067 -0.08586,0.191922 -0.213027,0.25123 -0.281769,0.131374 -0.7767527,0.83311 -1.0418997,1.477121 -0.118166,0.286985 -0.116291,0.277015 -0.05204,0.277015 0.06772,0 0.06301,0.0738 -0.03,0.470259 -0.135498,0.577491 -0.135651,0.559014 0.01178,1.371451 0.179779,0.989885 0.284817,1.320553 0.484518,1.525449 0.04685,0.04806 0.09237,0.150304 0.112671,0.253025 0.02422,0.122655 0.06492,0.203587 0.1410807,0.280626 0.06942,0.07023 0.09256,0.113302 0.06591,0.122642 -0.05232,0.01831 0.111488,0.252713 0.260952,0.373405 0.07519,0.06071 0.130926,0.08112 0.191268,0.07005 0.132294,-0.02428 0.266997,0.04886 0.473975,0.257299 0.215097,0.216623 0.236643,0.274849 0.0943,0.254805 -0.0918,-0.01286 -0.0939,-0.01043 -0.04874,0.05566 0.026,0.03806 0.121857,0.129573 0.213026,0.203347 0.128071,0.10365 0.161052,0.148471 0.144984,0.19709 -0.02314,0.0699 0.04281,0.135122 0.191987,0.189851 0.09251,0.03393 0.122303,0.107129 0.05267,0.129397 -0.02115,0.0068 0.1092,0.135434 0.28951,0.285978 0.203129,0.16962 0.339779,0.262582 0.359252,0.244424 0.05146,-0.04794 0.117377,-0.03335 0.118555,0.02624 0.0011,0.06502 0.0597,0.133336 0.269773,0.315558 0.132754,0.115142 0.16589,0.12964 0.247275,0.108144 0.07451,-0.01962 0.12137,-0.0071 0.226323,0.06102 0.209387,0.135825 0.336334,0.190047 0.445042,0.190047 0.106967,0 0.122195,0.02947 0.06666,0.129112 -0.02942,0.05272 -0.02314,0.06142 0.04448,0.06142 0.04325,0 0.16526,0.02856 0.271041,0.06352 0.240533,0.07942 0.340867,0.08482 0.280583,0.01503 -0.08906,-0.102973 0.0053,-0.07481 0.323567,0.09638 0.444592,0.239267 0.669496,0.266597 1.554818,0.188958 0.131074,-0.01151 0.173717,-0.0046 0.173717,0.02734 0,0.02758 -0.113749,0.06898 -0.322605,0.117471 -0.274572,0.06374 -0.421123,0.07606 -0.984355,0.08283 -0.443816,0.0053 -0.746975,-0.0063 -0.920537,-0.0352 z m -0.452602,-4.760147 c 0,-0.0068 -0.04095,-0.03617 -0.09098,-0.06538 l -0.09101,-0.05317 0.07812,0.06538 c 0.07623,0.06381 0.103866,0.07795 0.103866,0.05317 z m 4.555602,-3.327857 c -0.01043,-0.02534 -0.01831,-0.01788 -0.02007,0.01918 -0.0018,0.03347 0.0063,0.05221 0.01744,0.04164 0.01097,-0.01043 0.01219,-0.03796 0.0025,-0.06085 z m -7.508627,-3.330273 c 0.04119,-0.05037 0.03999,-0.05152 -0.01246,-0.01205 -0.03182,0.02401 -0.05791,0.04896 -0.05791,0.05555 0,0.02614 0.02717,0.0094 0.0704,-0.04356 z m 0.376286,-0.293723 c 0.03294,-0.03495 0.05244,-0.06352 0.04332,-0.06352 -0.0093,0 -0.04349,0.02856 -0.07641,0.06352 -0.03294,0.03495 -0.05243,0.06352 -0.04332,0.06352 0.0093,0 0.04349,-0.02856 0.07644,-0.06352 z m 0.416492,-0.223215 c 0.109079,-0.03543 0.171037,-0.04171 0.194038,-0.01963 0.02302,0.02208 0.108362,0.0089 0.267198,-0.04102 0.128368,-0.04039 0.2275,-0.0791 0.220291,-0.08601 -0.0072,-0.0071 -0.112909,0.0194 -0.234878,0.05849 -0.167528,0.0537 -0.227807,0.06168 -0.246492,0.03264 -0.03155,-0.04903 -0.332642,0.0476 -0.46205,0.14832 l -0.08843,0.06881 0.09503,-0.05474 c 0.05226,-0.0301 0.167156,-0.07819 0.255288,-0.106831 z m 0.9539,-0.0806 c 0.09608,-0.0274 0.168965,-0.05532 0.161966,-0.06201 -0.01549,-0.01483 -0.357751,0.07923 -0.357751,0.09833 0,0.01918 0.0029,0.01875 0.195781,-0.03628 z m 0.548688,-0.173107 0.132361,-0.02321 -0.115806,-0.0029 c -0.0637,-0.0018 -0.153027,0.01918 -0.198529,0.04587 -0.05352,0.03156 -0.05938,0.04073 -0.01656,0.026 0.03638,-0.01245 0.125729,-0.03311 0.198528,-0.04584 z m 0.262798,-0.05994 c 0.01028,-0.0157 -0.01136,-0.02137 -0.0477,-0.01219 -0.07727,0.0194 -0.08703,0.04096 -0.01853,0.04096 0.02624,0 0.05601,-0.01313 0.06621,-0.02878 z m 1.06829,0.0097 c -0.0111,-0.01043 -0.0395,-0.01151 -0.06342,-0.0025 -0.02642,0.01029 -0.01853,0.01767 0.02007,0.01918 0.03491,0.0011 0.05439,-0.0061 0.04342,-0.01656 z M 14.205489,16.7393 c -0.03183,-0.0081 -0.08396,-0.0081 -0.115806,0 -0.03183,0.0081 -0.0057,0.01461 0.0579,0.01461 0.06368,0 0.08976,-0.0066 0.0579,-0.01461 z m -0.33,-0.03295 c -0.06776,-0.0068 -0.186885,-0.0071 -0.264702,-2.07e-4 -0.07783,0.0068 -0.02239,0.01219 0.123197,0.01246 0.145594,1.13e-4 0.209256,-0.0053 0.141495,-0.01219 z M 13.443786,16.6785 c -0.0111,-0.01043 -0.0395,-0.01178 -0.06342,-0.0025 -0.02642,0.01028 -0.01853,0.01765 0.02007,0.01918 0.03489,0.0011 0.05439,-0.0061 0.04342,-0.01656 z m -0.22397,7.632178 c -0.337032,-0.231751 -0.461908,-0.351616 -0.461908,-0.443402 0,-0.04868 0.01151,-0.08855 0.02549,-0.08855 0.04769,0 0.611154,0.564421 0.598832,0.599892 -0.0072,0.02049 -0.07513,-0.0079 -0.162422,-0.06796 z m -0.173435,-0.588479 c -0.175026,-0.16975 -0.231121,-0.261048 -0.160375,-0.261048 0.04253,0 0.36821,0.357878 0.36821,0.404587 0,0.02199 -0.0042,0.03999 -0.0094,0.03999 -0.0053,0 -0.09444,-0.08256 -0.198528,-0.183507 z m 1.936663,-0.694872 c -0.09241,-0.03575 -0.03474,-0.102099 0.115807,-0.133079 0.08645,-0.01788 0.223809,-0.061 0.305259,-0.09601 0.08146,-0.03502 0.153966,-0.05799 0.16116,-0.0511 0.0072,0.0071 -0.02971,0.07745 -0.08191,0.156821 -0.0944,0.143415 -0.0961,0.144286 -0.276968,0.141844 -0.100093,-0.0011 -0.200599,-0.0096 -0.223344,-0.01853 z m 0.992626,-0.71029 c -0.0893,-0.03445 -0.09302,-0.09308 -0.01853,-0.292737 0.06406,-0.171493 0.130479,-0.20533 0.09353,-0.04764 -0.01327,0.05677 -0.03103,0.138924 -0.03946,0.182593 l -0.01525,0.07938 0.06613,-0.07227 c 0.03911,-0.04274 0.07534,-0.14313 0.08869,-0.245733 0.01246,-0.09541 0.03575,-0.165628 0.05191,-0.156057 0.04095,0.02428 0.03657,0.275341 -0.0076,0.444131 -0.03871,0.147446 -0.07349,0.164627 -0.219414,0.108334 z M 8.1457179,21.918458 c -0.01111,-0.02763 -0.02006,-0.135979 -0.02006,-0.240801 0,-0.138289 0.01134,-0.186974 0.04136,-0.177447 0.04914,0.01548 0.07796,0.468473 0.02983,0.468473 -0.01701,0 -0.04003,-0.02261 -0.0511,-0.05024 z m 7.9599381,-0.742736 c -0.05139,-0.06674 -0.06726,-0.119433 -0.05267,-0.175179 0.02992,-0.114506 0.108266,-0.09822 0.166065,0.03449 0.08991,0.206485 0.01178,0.303268 -0.113397,0.140646 z M 8.1389139,20.671591 c -0.0024,-0.180062 -1.7e-5,-0.185621 0.08304,-0.182591 0.07042,0.0025 0.08743,0.02028 0.09556,0.100094 0.0091,0.08991 -0.0927,0.268214 -0.153224,0.268214 -0.01243,0 -0.02394,-0.08356 -0.02538,-0.185709 z m 8.5766751,-3.903543 c 0.0046,-0.28417 0.0545,-0.380435 0.09337,-0.181479 0.02711,0.138639 -0.0075,0.383435 -0.05987,0.425251 -0.02856,0.02274 -0.03709,-0.03923 -0.03352,-0.243776 z m -4.347636,-0.170294 c 0.01327,-0.0383 0.469735,-0.217692 0.55393,-0.217692 0.09891,0 -0.07852,0.116306 -0.283182,0.185642 -0.228188,0.0773 -0.288952,0.08448 -0.270748,0.03207 z"
       class="ColorScheme-Text"
       id="path1642" /></g></svg>
