<?xml version="1.0" encoding="UTF-8" standalone="no"?>
<!-- Created with Inkscape (http://www.inkscape.org/) -->

<svg
   width="128"
   height="128"
   viewBox="0 0 33.866666 33.866666"
   version="1.1"
   id="svg5"
   xml:space="preserve"
   inkscape:version="1.3 (0e150ed6c4, 2023-07-21)"
   sodipodi:docname="folder-extension.svg"
   xmlns:inkscape="http://www.inkscape.org/namespaces/inkscape"
   xmlns:sodipodi="http://sodipodi.sourceforge.net/DTD/sodipodi-0.dtd"
   xmlns:xlink="http://www.w3.org/1999/xlink"
   xmlns="http://www.w3.org/2000/svg"
   xmlns:svg="http://www.w3.org/2000/svg"><sodipodi:namedview
     id="namedview7"
     pagecolor="#ffffff"
     bordercolor="#000000"
     borderopacity="0.10196078"
     inkscape:showpageshadow="true"
     inkscape:pageopacity="0"
     inkscape:pagecheckerboard="false"
     inkscape:deskcolor="#dbdbdb"
     inkscape:document-units="px"
     showgrid="false"
     borderlayer="true"
     inkscape:zoom="6.4453125"
     inkscape:cx="64"
     inkscape:cy="64"
     inkscape:window-width="1920"
     inkscape:window-height="1093"
     inkscape:window-x="0"
     inkscape:window-y="0"
     inkscape:window-maximized="1"
     inkscape:current-layer="layer1"
     showguides="true"><inkscape:grid
       type="xygrid"
       id="grid16"
       originx="0"
       originy="0"
       spacingy="0.26458333"
       spacingx="0.26458333"
       units="px"
       visible="false"
       empcolor="#cc3d3d"
       empopacity="0.30196078"
       empspacing="4" /><sodipodi:guide
       position="6.8791663,19.05"
       orientation="1,0"
       id="guide182"
       inkscape:locked="false" /><sodipodi:guide
       position="19.579166,16.139584"
       orientation="1,0"
       id="guide184"
       inkscape:locked="false" /><sodipodi:guide
       position="14.287499,4.7625009"
       orientation="0,-1"
       id="guide186"
       inkscape:locked="false" /><sodipodi:guide
       position="10.847916,17.4625"
       orientation="0,-1"
       id="guide188"
       inkscape:locked="false" /></sodipodi:namedview><defs
     id="defs2"><linearGradient
       inkscape:collect="always"
       id="linearGradient4365"><stop
         style="stop-color:#e1bf8d;stop-opacity:1"
         offset="0"
         id="stop4361" /><stop
         style="stop-color:#6a4504;stop-opacity:1"
         offset="1"
         id="stop4363" /></linearGradient><linearGradient
       inkscape:collect="always"
       id="linearGradient4406"><stop
         style="stop-color:#cccccc;stop-opacity:1;"
         offset="0"
         id="stop4402" /><stop
         style="stop-color:#949494;stop-opacity:1;"
         offset="0.31521663"
         id="stop2" /><stop
         style="stop-color:#666666;stop-opacity:1;"
         offset="0.70005435"
         id="stop3" /><stop
         style="stop-color:#4d4d4d;stop-opacity:1;"
         offset="1"
         id="stop4404" /></linearGradient><linearGradient
       inkscape:collect="always"
       xlink:href="#linearGradient4406"
       id="linearGradient1113"
       gradientUnits="userSpaceOnUse"
       x1="6.0194192"
       y1="273.93912"
       x2="27.019419"
       y2="296.93912"
       gradientTransform="translate(-0.99434434,-262.96315)" /><linearGradient
       inkscape:collect="always"
       xlink:href="#linearGradient4365"
       id="linearGradient1121"
       x1="26.882687"
       y1="269.4577"
       x2="27.600334"
       y2="288.55664"
       gradientUnits="userSpaceOnUse"
       gradientTransform="translate(-0.99434434,-262.96315)" /><linearGradient
       id="linearGradient4472"><stop
         id="stop1340"
         offset="0"
         style="stop-color:#ffa92d;stop-opacity:1" /><stop
         id="stop1342"
         offset="1"
         style="stop-color:#ffc169;stop-opacity:1" /></linearGradient><linearGradient
       id="linearGradient1617"
       inkscape:collect="always"><stop
         id="stop1613"
         offset="0"
         style="stop-color:#ffffe8;stop-opacity:1;" /><stop
         id="stop1615"
         offset="1"
         style="stop-color:#ffe896;stop-opacity:1" /></linearGradient><linearGradient
       inkscape:collect="always"
       xlink:href="#linearGradient1617"
       id="linearGradient8"
       x1="9.5249996"
       y1="21.166666"
       x2="11.641666"
       y2="27.516665"
       gradientUnits="userSpaceOnUse"
       gradientTransform="translate(-1.0583327)" /></defs><g
     inkscape:label="Layer 1"
     inkscape:groupmode="layer"
     id="layer1"><g
       id="g2"><path
         style="fill:#000000;fill-opacity:0.196078;stroke:none;stroke-width:0.725255;stroke-miterlimit:4;stroke-dasharray:none;stroke-opacity:1;paint-order:markers stroke fill"
         d="m 27.463296,31.543821 6.216476,-9.324713 -6.216476,-2.072156 z"
         id="path1768"
         inkscape:connector-curvature="0"
         sodipodi:nodetypes="cccc" /></g><g
       inkscape:label="Layer 1"
       id="layer1-3"
       transform="translate(34.037907,-262.25668)" /><path
       id="rect835"
       style="fill:url(#linearGradient1121);fill-opacity:1;stroke:none;stroke-width:0.538209;stroke-linecap:round;paint-order:markers fill stroke;stop-color:#000000"
       d="M 4.7758652,3.574564 20.551928,5.1924669 21.825899,2.9483279 28.342403,3.5832176 28.89191,6.0545623 31.749998,6.3499997 27.463296,31.543821 4.441877,23.818372 Z"
       sodipodi:nodetypes="ccccccccc" /><path
       style="fill:none;stroke:#000000;stroke-width:0.238125;stroke-linecap:butt;stroke-linejoin:miter;stroke-dasharray:none;stroke-opacity:1"
       d="M 4.441877,23.818372 4.7758652,3.574564 20.551928,5.1924669 l 1.273971,-2.244139 6.516504,0.6348897 0.549507,2.4713447 2.858088,0.2954374 -4.286702,25.1938213 z"
       id="path1549"
       sodipodi:nodetypes="ccccccccc" /><path
       id="rect833"
       style="fill:url(#linearGradient1113);fill-opacity:1;stroke:none;stroke-width:0.517406;stroke-linecap:round;paint-order:markers fill stroke;stop-color:#000000"
       d="m 1.0146984,6.152543 14.2906536,3.2254836 0.927245,1.1847164 5.434145,1.220232 0.606984,-0.832144 2.297295,0.518513 2.892275,20.074477 -23.021419,-7.725449 z"
       sodipodi:nodetypes="ccccccccc" /><path
       style="fill:none;stroke:#ffffff;stroke-width:0.47625;stroke-linecap:butt;stroke-linejoin:miter;stroke-dasharray:none;stroke-opacity:0.39"
       d="m 1.0613271,6.3928965 14.1844879,3.0942807 0.917322,1.1747938 5.568103,1.254962 0.602023,-0.842067 2.130537,0.487127 2.84854,19.802512"
       id="path2"
       sodipodi:nodetypes="ccccccc" /><path
       style="fill:none;stroke:#000000;stroke-width:0.238125;stroke-linecap:butt;stroke-linejoin:miter;stroke-dasharray:none;stroke-opacity:1"
       d="M 27.463296,31.543821 4.441877,23.818372 1.0146984,6.152543 15.305352,9.3780266 l 0.927245,1.1847164 5.434145,1.220232 0.606984,-0.832144 2.297295,0.518513 2.892275,20.074477"
       id="path1553"
       sodipodi:nodetypes="ccccccccc" /><path
       id="rect7"
       style="fill:url(#linearGradient8);fill-rule:evenodd;stroke:none;stroke-width:0.47625;stroke-linecap:round;stroke-opacity:0.2;paint-order:stroke fill markers"
       d="m 9.5250003,17.991665 c -0.439737,0 -0.7937502,0.354013 -0.7937502,0.79375 l -3e-7,0.793751 -1.058333,1e-6 c -0.439737,0 -0.79375,0.354012 -0.79375,0.79375 l 3e-7,7.937499 c 0,0.439738 0.354013,0.79375 0.79375,0.79375 H 18.785417 c 0.439737,0 0.79375,-0.354012 0.79375,-0.79375 v -7.937499 c 0,-0.439738 -0.354013,-0.79375 -0.79375,-0.79375 l -1.058334,-1e-6 v -0.793751 c 0,-0.439737 -0.354013,-0.79375 -0.79375,-0.79375 h -2.116667 c -0.439737,0 -0.79375,0.354013 -0.79375,0.79375 v 0.793751 h -1.5875 v -0.793751 c 0,-0.439737 -0.354013,-0.79375 -0.79375,-0.79375 z"
       sodipodi:nodetypes="sscsssssssscssssccsss" /><path
       style="fill:#000000;fill-opacity:0.2;stroke:none;stroke-width:0.264583px;stroke-linecap:butt;stroke-linejoin:miter;stroke-opacity:1"
       d="m 7.672953,29.104165 10.583297,-10e-7 c 1.185122,0.0887 1.322916,-0.264582 1.322916,-1.322916 v -6.879166 l -0.529167,7.408333 -0.264583,0.264583 z"
       id="path17"
       sodipodi:nodetypes="ccccccc" /><path
       id="rect1"
       style="fill:none;fill-rule:evenodd;stroke:#000000;stroke-width:0.238125;stroke-linecap:round;stroke-opacity:1;paint-order:stroke fill markers"
       d="m 9.5250003,17.991666 c -0.439738,0 -0.7937502,0.354014 -0.7937502,0.79375 l -3e-7,0.793751 H 7.6413942 c -0.439737,0 -0.79375,0.354014 -0.79375,0.79375 l 3e-7,7.937499 c 0,0.439736 0.354013,0.79375 0.79375,0.79375 H 18.785417 c 0.439737,0 0.79375,-0.354014 0.79375,-0.79375 v -7.937499 c 0,-0.439736 -0.354013,-0.79375 -0.79375,-0.79375 l -1.058334,-1e-6 v -0.793751 c 0,-0.439736 -0.354013,-0.79375 -0.79375,-0.79375 h -2.116667 c -0.439737,0 -0.79375,0.354014 -0.79375,0.79375 v 0.793751 h -1.5875 v -0.793751 c 0,-0.439736 -0.354013,-0.79375 -0.79375,-0.79375 z"
       sodipodi:nodetypes="sscsssssssscssssccsss" /><path
       style="fill:#000000;fill-opacity:0.2;stroke:none;stroke-width:0.264583px;stroke-linecap:butt;stroke-linejoin:miter;stroke-opacity:1"
       d="m 7.6729169,19.579167 c -0.2645834,0.121782 -0.5291667,0.264582 -0.5291667,0.793749 l -0.2645833,7.9375 v -7.9375 c 0,-0.529167 0.2645833,-0.79375 0.79375,-0.793749 z"
       id="path7"
       sodipodi:nodetypes="ccccc" /><path
       style="fill:none;stroke:#cc1429;stroke-width:0.47625;stroke-linecap:butt;stroke-linejoin:miter;stroke-dasharray:none;stroke-opacity:1"
       d="M 8.4666669,22.224999 H 17.991666"
       id="path10" /><path
       style="fill:none;stroke:#cc1429;stroke-width:0.47625;stroke-linecap:butt;stroke-linejoin:miter;stroke-dasharray:none;stroke-opacity:1"
       d="M 8.4666669,24.341666 H 17.991666"
       id="path11" /><path
       style="fill:none;stroke:#cc1429;stroke-width:0.47625;stroke-linecap:butt;stroke-linejoin:miter;stroke-dasharray:none;stroke-opacity:1"
       d="M 8.4666669,26.458332 H 17.991666"
       id="path12" /><path
       style="fill:#000000;fill-opacity:0.2;stroke:none;stroke-width:0.264583px;stroke-linecap:butt;stroke-linejoin:miter;stroke-opacity:1"
       d="m 8.7312502,19.579166 0.2645831,-0.79375 0.529167,-0.529167 2.1166657,-0.264583 -2.1168257,-10e-7 c -0.6290489,0.09132 -0.7505947,0.423868 -0.7935901,0.793751 z"
       id="path13"
       sodipodi:nodetypes="ccccccc" /><path
       style="fill:#000000;fill-opacity:0.2;stroke:none;stroke-width:0.264583px;stroke-linecap:butt;stroke-linejoin:miter;stroke-opacity:1"
       d="m 14.022916,19.579166 0.264583,-0.79375 0.529167,-0.529167 2.116666,-0.264583 -2.116826,-10e-7 c -0.629049,0.09132 -0.750594,0.423868 -0.79359,0.793751 z"
       id="path14"
       sodipodi:nodetypes="ccccccc" /></g></svg>
