<?xml version="1.0" encoding="UTF-8" standalone="no"?>
<svg
   xmlns:dc="http://purl.org/dc/elements/1.1/"
   xmlns:cc="http://creativecommons.org/ns#"
   xmlns:rdf="http://www.w3.org/1999/02/22-rdf-syntax-ns#"
   xmlns:svg="http://www.w3.org/2000/svg"
   xmlns="http://www.w3.org/2000/svg"
   xmlns:xlink="http://www.w3.org/1999/xlink"
   xmlns:sodipodi="http://sodipodi.sourceforge.net/DTD/sodipodi-0.dtd"
   xmlns:inkscape="http://www.inkscape.org/namespaces/inkscape"
   width="128"
   height="128"
   viewBox="0 0 33.866666 33.866668"
   version="1.1"
   id="svg8"
   inkscape:version="0.92.3 (2405546, 2018-03-11)"
   sodipodi:docname="accessories-character-map.svg">
  <defs
     id="defs2">
    <linearGradient
       id="linearGradient950"
       inkscape:collect="always">
      <stop
         id="stop946"
         offset="0"
         style="stop-color:#d9d9d9;stop-opacity:1;" />
      <stop
         style="stop-color:#fdfdfd;stop-opacity:1"
         offset="0.50311315"
         id="stop956" />
      <stop
         id="stop948"
         offset="1"
         style="stop-color:#d9d9d9;stop-opacity:1" />
    </linearGradient>
    <linearGradient
       id="linearGradient912"
       inkscape:collect="always">
      <stop
         id="stop908"
         offset="0"
         style="stop-color:#f2f2f2;stop-opacity:1" />
      <stop
         id="stop910"
         offset="1"
         style="stop-color:#999999;stop-opacity:1" />
    </linearGradient>
    <linearGradient
       id="linearGradient900"
       inkscape:collect="always">
      <stop
         id="stop896"
         offset="0"
         style="stop-color:#d9d9d9;stop-opacity:1" />
      <stop
         style="stop-color:#d9d9d9;stop-opacity:1"
         offset="0.48076922"
         id="stop904" />
      <stop
         id="stop906"
         offset="0.5192309"
         style="stop-color:#666666;stop-opacity:0.99215686" />
      <stop
         id="stop898"
         offset="1"
         style="stop-color:#666666;stop-opacity:0.9921568" />
    </linearGradient>
    <inkscape:path-effect
       effect="perspective-envelope"
       up_left_point="16.497784,271.59999"
       up_right_point="28.641986,278.34686"
       down_left_point="4.3535819,278.34686"
       down_right_point="16.497784,285.35832"
       id="path-effect937"
       is_visible="true"
       lpeversion="1"
       deform_type="envelope_deformation"
       horizontal_mirror="false"
       vertical_mirror="false"
       overflow_perspective="false" />
    <linearGradient
       inkscape:collect="always"
       id="linearGradient4667">
      <stop
         style="stop-color:#000000;stop-opacity:0.35714287"
         offset="0"
         id="stop4663" />
      <stop
         style="stop-color:#000000;stop-opacity:0.83469385"
         offset="1"
         id="stop4665" />
    </linearGradient>
    <linearGradient
       inkscape:collect="always"
       xlink:href="#linearGradient4667"
       id="linearGradient4669"
       x1="211.4236"
       y1="191.14877"
       x2="216.79825"
       y2="191.14877"
       gradientUnits="userSpaceOnUse" />
    <linearGradient
       inkscape:collect="always"
       xlink:href="#linearGradient4667"
       id="linearGradient4675"
       gradientUnits="userSpaceOnUse"
       x1="211.4236"
       y1="191.14877"
       x2="216.79825"
       y2="191.14877"
       gradientTransform="translate(-0.19318921,-0.13397157)" />
    <linearGradient
       gradientUnits="userSpaceOnUse"
       y2="269.48331"
       x2="6.3499999"
       y1="290.64999"
       x1="27.516666"
       id="linearGradient894"
       xlink:href="#linearGradient912"
       inkscape:collect="always" />
    <linearGradient
       y2="293.82498"
       x2="30.691668"
       y1="266.30832"
       x1="3.175"
       gradientUnits="userSpaceOnUse"
       id="linearGradient902"
       xlink:href="#linearGradient900"
       inkscape:collect="always" />
    <linearGradient
       y2="19"
       x2="23"
       y1="23"
       x1="19"
       gradientUnits="userSpaceOnUse"
       id="linearGradient954"
       xlink:href="#linearGradient950"
       inkscape:collect="always" />
  </defs>
  <sodipodi:namedview
     inkscape:snap-page="true"
     inkscape:snap-nodes="true"
     id="base"
     pagecolor="#ffffff"
     bordercolor="#666666"
     borderopacity="1.0"
     inkscape:pageopacity="0.0"
     inkscape:pageshadow="2"
     inkscape:zoom="1"
     inkscape:cx="75.782374"
     inkscape:cy="43.912316"
     inkscape:document-units="px"
     inkscape:current-layer="layer1"
     inkscape:document-rotation="0"
     showgrid="false"
     units="px"
     inkscape:snap-bbox="true"
     inkscape:bbox-nodes="true"
     inkscape:window-width="1600"
     inkscape:window-height="837"
     inkscape:window-x="-8"
     inkscape:window-y="-8"
     inkscape:window-maximized="1"
     inkscape:snap-grids="true">
    <inkscape:grid
       id="grid872"
       type="xygrid" />
  </sodipodi:namedview>
  <metadata
     id="metadata5">
    <rdf:RDF>
      <cc:Work
         rdf:about="">
        <dc:format>image/svg+xml</dc:format>
        <dc:type
           rdf:resource="http://purl.org/dc/dcmitype/StillImage" />
        <dc:title />
      </cc:Work>
    </rdf:RDF>
  </metadata>
  <g
     inkscape:label="Layer 1"
     inkscape:groupmode="layer"
     id="layer1"
     transform="translate(0,-263.13332)">
    <path
       d="M 5.2916665,265.25 H 28.575 c 1.75895,0 3.175,1.41604 3.175,3.17499 v 23.28336 c 0,1.75894 -1.41605,3.17498 -3.175,3.17498 H 5.2916665 c -1.7589498,0 -3.1749997,-1.41604 -3.1749997,-3.17498 v -23.28336 c 0,-1.75895 1.4160499,-3.17499 3.1749997,-3.17499 z"
       style="fill:url(#linearGradient902);fill-opacity:1;fill-rule:evenodd;stroke-width:0.79374999;stroke-linecap:round;stroke-linejoin:round;stroke-opacity:0.19844402;paint-order:markers fill stroke"
       id="rect874"
       inkscape:connector-curvature="0" />
    <path
       d="M 6.3500009,268.42499 H 27.516668 c 0.586317,0 1.058334,0.47201 1.058334,1.05833 v 21.16667 c 0,0.58632 -0.472017,1.05833 -1.058334,1.05833 H 6.3500009 c -0.586317,0 -1.0583339,-0.47201 -1.0583339,-1.05833 v -21.16667 c 0,-0.58632 0.4720169,-1.05833 1.0583339,-1.05833 z"
       style="fill:url(#linearGradient894);fill-opacity:1;fill-rule:evenodd;stroke-width:0.79374999;stroke-linecap:round;stroke-linejoin:round;stroke-opacity:0.19844402;paint-order:markers fill stroke"
       id="rect876"
       inkscape:connector-curvature="0" />
    <path
       transform="matrix(0.26458334,0,0,0.26458334,0,263.13332)"
       d="M 20,8 C 13.352001,8 8,13.352 8,20 l 12,4 c 0,-2.216013 1.783999,-4 4,-4 z"
       style="fill:url(#linearGradient954);fill-opacity:1;fill-rule:evenodd;stroke-width:3;stroke-linecap:round;stroke-linejoin:round;stroke-opacity:0.19844402;paint-order:markers fill stroke"
       id="path934"
       inkscape:connector-curvature="0" />
    <g
       style="font-style:normal;font-variant:normal;font-weight:normal;font-stretch:normal;font-size:22.57780075px;line-height:0.75;font-family:Arial;-inkscape-font-specification:Arial;fill:none;fill-opacity:0.1;fill-rule:evenodd;stroke:#000000;stroke-width:1.58749998;stroke-linecap:round;stroke-linejoin:round;stroke-miterlimit:4;stroke-dasharray:none;stroke-opacity:0.05;paint-order:markers fill stroke"
       id="text986"
       aria-label="Q" />
    <g
       transform="translate(0,-0.52916667)"
       aria-label="Q"
       id="g1007"
       style="font-style:normal;font-variant:normal;font-weight:normal;font-stretch:normal;font-size:22.57780075px;line-height:0.75;font-family:Arial;-inkscape-font-specification:Arial;fill:#000000;fill-opacity:1;fill-rule:evenodd;stroke:none;stroke-width:0.79374999;stroke-linecap:round;stroke-linejoin:round;stroke-opacity:0.19844402;paint-order:markers fill stroke">
      <path
         d="m 22.070667,287.23246 q 1.488282,1.02527 2.745055,1.49931 l -0.628387,1.48828 q -1.741842,-0.62838 -3.472659,-1.98437 -1.796964,1.00321 -3.968754,1.00321 -2.193839,0 -3.979779,-1.05833 -1.785939,-1.05834 -2.756079,-2.97657 -0.9591155,-1.91823 -0.9591155,-4.32153 0,-2.39228 0.9701395,-4.35461 0.97014,-1.96233 2.75608,-2.98759 1.796963,-1.02526 4.012851,-1.02526 2.237936,0 4.0349,1.06936 1.796963,1.05834 2.73403,2.97657 0.948092,1.9072 0.948092,4.3105 0,1.99541 -0.606338,3.59393 -0.606337,1.5875 -1.830036,2.7671 z m -4.707384,-2.73403 q 1.852086,0.51815 3.053736,1.54341 1.885158,-1.71979 1.885158,-5.17041 0,-1.96232 -0.672483,-3.42856 -0.661459,-1.46623 -1.951304,-2.27101 -1.278821,-0.8158 -2.877347,-0.8158 -2.392277,0 -3.968754,1.64263 -1.576477,1.63159 -1.576477,4.88377 0,3.15295 1.554429,4.83967 1.565453,1.68672 3.990802,1.68672 1.146529,0 2.160766,-0.42994 -1.003213,-0.65044 -2.116669,-0.92605 z"
         style="fill:#000000;fill-opacity:1;stroke-width:0.79374999"
         id="path1005"
         inkscape:connector-curvature="0" />
      <path
         inkscape:connector-curvature="0"
         id="path912"
         style="fill:#000000;fill-opacity:0.2;stroke-width:0.79374999"
         d="m 22.599834,287.76163 q 1.488282,1.02527 2.745055,1.49931 l -0.628387,1.48828 q -1.741842,-0.62838 -3.472659,-1.98437 -1.796964,1.00321 -3.968754,1.00321 -2.193839,0 -3.979779,-1.05833 -1.785939,-1.05834 -2.756079,-2.97657 -0.9591158,-1.91823 -0.9591158,-4.32153 0,-2.39228 0.9701398,-4.35461 0.97014,-1.96233 2.75608,-2.98759 1.796963,-1.02526 4.012851,-1.02526 2.237936,0 4.0349,1.06936 1.796963,1.05834 2.73403,2.97657 0.948092,1.9072 0.948092,4.3105 0,1.99541 -0.606338,3.59393 -0.606337,1.5875 -1.830036,2.7671 z M 17.89245,285.0276 q 1.852086,0.51815 3.053736,1.54341 1.885158,-1.71979 1.885158,-5.17041 0,-1.96232 -0.672483,-3.42856 -0.661459,-1.46623 -1.951304,-2.27101 -1.278821,-0.8158 -2.877347,-0.8158 -2.392277,0 -3.968754,1.64263 -1.576477,1.63159 -1.576477,4.88377 0,3.15295 1.554429,4.83967 1.565453,1.68672 3.990802,1.68672 1.146529,0 2.160766,-0.42994 -1.003213,-0.65044 -2.116669,-0.92605 z" />
    </g>
    <g
       aria-label="Q"
       id="g1011"
       style="font-style:normal;font-variant:normal;font-weight:normal;font-stretch:normal;font-size:22.57780075px;line-height:0.75;font-family:Arial;-inkscape-font-specification:Arial;fill:none;fill-opacity:0.1;fill-rule:evenodd;stroke:#000000;stroke-width:1.0583334;stroke-linecap:round;stroke-linejoin:round;stroke-miterlimit:4;stroke-dasharray:none;stroke-opacity:0.05;paint-order:markers fill stroke" />
    <g
       style="font-style:normal;font-variant:normal;font-weight:normal;font-stretch:normal;font-size:22.57780075px;line-height:0.75;font-family:Arial;-inkscape-font-specification:Arial;fill:none;fill-opacity:0.1;fill-rule:evenodd;stroke:#000000;stroke-width:0.5291667;stroke-linecap:round;stroke-linejoin:round;stroke-miterlimit:4;stroke-dasharray:none;stroke-opacity:0.05;paint-order:markers fill stroke"
       id="g1015"
       aria-label="Q">
      <g
         id="g1046">
        <g
           style="font-style:normal;font-variant:normal;font-weight:normal;font-stretch:normal;font-size:22.57780075px;line-height:0.75;font-family:Arial;-inkscape-font-specification:Arial;fill:none;fill-opacity:0.1;fill-rule:evenodd;stroke:#000000;stroke-width:2.11666679;stroke-linecap:round;stroke-linejoin:round;stroke-miterlimit:4;stroke-dasharray:none;stroke-opacity:0.05;paint-order:markers fill stroke"
           id="g1019"
           aria-label="Q" />
      </g>
    </g>
  </g>
</svg>
