<?xml version="1.0" encoding="UTF-8" standalone="no"?>
<svg
   xmlns:dc="http://purl.org/dc/elements/1.1/"
   xmlns:cc="http://creativecommons.org/ns#"
   xmlns:rdf="http://www.w3.org/1999/02/22-rdf-syntax-ns#"
   xmlns:svg="http://www.w3.org/2000/svg"
   xmlns="http://www.w3.org/2000/svg"
   xmlns:sodipodi="http://sodipodi.sourceforge.net/DTD/sodipodi-0.dtd"
   xmlns:inkscape="http://www.inkscape.org/namespaces/inkscape"
   width="128"
   height="128"
   viewBox="0 0 128 128"
   version="1.1"
   id="svg40"
   sodipodi:docname="application-x-clementine.svg"
   inkscape:version="1.0.2 (e86c870879, 2021-01-15)">
  <metadata
     id="metadata44">
    <rdf:RDF>
      <cc:Work
         rdf:about="">
        <dc:format>image/svg+xml</dc:format>
        <dc:type
           rdf:resource="http://purl.org/dc/dcmitype/StillImage" />
        <dc:title></dc:title>
      </cc:Work>
    </rdf:RDF>
  </metadata>
  <sodipodi:namedview
     pagecolor="#ffffff"
     bordercolor="#666666"
     borderopacity="1"
     objecttolerance="10"
     gridtolerance="10"
     guidetolerance="10"
     inkscape:pageopacity="0"
     inkscape:pageshadow="2"
     inkscape:window-width="640"
     inkscape:window-height="480"
     id="namedview42"
     showgrid="false"
     inkscape:snap-page="true"
     inkscape:snap-bbox="true"
     inkscape:snap-nodes="false"
     inkscape:bbox-nodes="true"
     inkscape:zoom="1"
     inkscape:cx="64"
     inkscape:cy="64"
     inkscape:current-layer="svg40" />
  <defs
     id="defs22">
    <linearGradient
       id="a"
       y1="542.79999"
       y2="503.79999"
       x2="0"
       gradientUnits="userSpaceOnUse"
       gradientTransform="translate(-384.57,504.56)">
      <stop
         stop-color="#f39c12"
         id="stop2" />
      <stop
         offset="1"
         stop-color="#f5ab35"
         id="stop4" />
    </linearGradient>
    <linearGradient
       id="b"
       y1="505.79999"
       y2="541.79999"
       x2="0"
       gradientUnits="userSpaceOnUse"
       gradientTransform="translate(-384.57,504.56)">
      <stop
         stop-color="#fffcde"
         id="stop7" />
      <stop
         offset="1"
         stop-color="#fafac5"
         id="stop9" />
    </linearGradient>
    <radialGradient
       cx="24"
       cy="1028.36"
       id="c"
       r="16"
       gradientUnits="userSpaceOnUse"
       gradientTransform="matrix(1.23105,0.00334,-0.00334,1.23128,-2.11,-237.92)">
      <stop
         stop-color="#f47750"
         id="stop12" />
      <stop
         offset="1"
         stop-color="#fdbc4b"
         id="stop14" />
    </radialGradient>
    <linearGradient
       id="d"
       y1="23.23"
       x1="23.701"
       y2="37.955002"
       x2="37.995998"
       gradientUnits="userSpaceOnUse">
      <stop
         id="stop17" />
      <stop
         offset="1"
         stop-opacity="0"
         id="stop19" />
    </linearGradient>
  </defs>
  <g
     stroke-linejoin="round"
     transform="matrix(2.79982,0,0,2.7998462,-3.1992518,-2815.253)"
     id="g38">
    <g
       stroke-width="0.5"
       id="g28">
      <path
         id="circle24"
         style="fill:url(#a)"
         d="m 44,1028.36 c 0,11.0457 -8.954305,20 -20,20 -11.045695,0 -20,-8.9543 -20,-20 0,-11.0457 8.954305,-20 20,-20 11.045695,0 20,8.9543 20,20 z"
         sodipodi:nodetypes="ccccc" />
      <path
         fill="#b97d1b"
         d="m 43.978506,1027.7802 a 20.00001,20.00001 0 0 1 -19.978516,19.582 20.00001,20.00001 0 0 1 -19.978516,-19.418 20.00001,20.00001 0 0 0 -0.021484,0.418 20.00001,20.00001 0 0 0 20,20 20.00001,20.00001 0 0 0 20,-20 20.00001,20.00001 0 0 0 -0.02148,-0.582"
         id="path26" />
    </g>
    <g
       stroke-width="2"
       id="g36">
      <path
         id="circle32"
         style="fill:url(#b);stroke-linecap:round"
         d="m 42,1028.36 c 0,9.9411 -8.058875,18 -18,18 -9.941125,0 -18,-8.0589 -18,-18 0,-9.9411 8.058875,-18 18,-18 9.941125,0 18,8.0589 18,18 z"
         sodipodi:nodetypes="ccccc" />
      <path
         fill="url(#c)"
         d="m 24,1012.36 c -3,0 -5,2 -5,2 0,0 1.193,4.052 2,6 0.856,2.066 3,6 3,6 0,0 2.144,-3.934 3,-6 0.807,-1.948 2,-6 2,-6 0,0 -2,-2 -5,-2 m -6.363,2.564 c 0,0 -2.83,0 -4.951,2.121 -2.121,2.121 -2.121,4.951 -2.121,4.951 0,0 3.71,2.02 5.658,2.828 2.066,0.856 6.363,2.121 6.363,2.121 0,0 -1.265,-4.297 -2.121,-6.363 -0.807,-1.948 -2.828,-5.658 -2.828,-5.658 m 12.727,0 c 0,0 -2.02,3.71 -2.828,5.658 -0.856,2.066 -2.121,6.363 -2.121,6.363 0,0 4.297,-1.265 6.363,-2.121 1.948,-0.807 5.658,-2.828 5.658,-2.828 0,0 0,-2.83 -2.121,-4.951 -2.121,-2.121 -4.951,-2.121 -4.951,-2.121 m -20.363,8.436 c 0,0 -2,2 -2,5 0,3 2,5 2,5 0,0 4.052,-1.193 6,-2 2.066,-0.856 6,-3 6,-3 0,0 -3.934,-2.144 -6,-3 -1.948,-0.807 -6,-2 -6,-2 m 28,0 c 0,0 -4.052,1.193 -6,2 -2.066,0.856 -6,3 -6,3 0,0 3.934,2.144 6,3 1.948,0.807 6,2 6,2 0,0 2,-2 2,-5 0,-3 -2,-5 -2,-5 m -15.414,6.414 c 0,0 -4.297,1.265 -6.363,2.121 -1.948,0.807 -5.658,2.828 -5.658,2.828 0,0 0,2.83 2.121,4.951 2.121,2.121 4.951,2.121 4.951,2.121 0,0 2.02,-3.71 2.828,-5.658 0.856,-2.066 2.121,-6.363 2.121,-6.363 m 2.828,0 c 0,0 1.265,4.297 2.121,6.363 0.807,1.948 2.828,5.658 2.828,5.658 0,0 2.83,0 4.951,-2.121 2.121,-2.121 2.121,-4.951 2.121,-4.951 0,0 -3.71,-2.02 -5.658,-2.828 -2.066,-0.856 -6.363,-2.121 -6.363,-2.121 m -1.414,0.586 c 0,0 -2.144,3.934 -3,6 -0.807,1.948 -2,6 -2,6 0,0 2,2 5,2 3,0 5,-2 5,-2 0,0 -1.193,-4.052 -2,-6 -0.856,-2.066 -3,-6 -3,-6"
         id="path34"
         style="fill:url(#c)" />
    </g>
  </g>
</svg>
