<?xml version="1.0" encoding="UTF-8" standalone="no"?>
<svg
   xmlns:dc="http://purl.org/dc/elements/1.1/"
   xmlns:cc="http://creativecommons.org/ns#"
   xmlns:rdf="http://www.w3.org/1999/02/22-rdf-syntax-ns#"
   xmlns:svg="http://www.w3.org/2000/svg"
   xmlns="http://www.w3.org/2000/svg"
   xmlns:sodipodi="http://sodipodi.sourceforge.net/DTD/sodipodi-0.dtd"
   xmlns:inkscape="http://www.inkscape.org/namespaces/inkscape"
   inkscape:version="1.0 (4035a4fb49, 2020-05-01)"
   sodipodi:docname="ardour.svg"
   id="svg23"
   version="1.1"
   height="128"
   width="128">
  <metadata
     id="metadata27">
    <rdf:RDF>
      <cc:Work
         rdf:about="">
        <dc:format>image/svg+xml</dc:format>
        <dc:type
           rdf:resource="http://purl.org/dc/dcmitype/StillImage" />
        <dc:title></dc:title>
      </cc:Work>
    </rdf:RDF>
  </metadata>
  <sodipodi:namedview
     inkscape:current-layer="svg23"
     inkscape:cy="64.388699"
     inkscape:cx="64"
     inkscape:zoom="1"
     inkscape:snap-nodes="false"
     inkscape:snap-page="true"
     inkscape:bbox-nodes="true"
     inkscape:snap-bbox="true"
     showgrid="false"
     id="namedview25"
     inkscape:window-height="480"
     inkscape:window-width="640"
     inkscape:pageshadow="2"
     inkscape:pageopacity="0"
     guidetolerance="10"
     gridtolerance="10"
     objecttolerance="10"
     borderopacity="1"
     bordercolor="#666666"
     pagecolor="#ffffff">
    <inkscape:grid
       id="grid909"
       type="xygrid" />
  </sodipodi:namedview>
  <defs
     id="defs13">
    <linearGradient
       gradientTransform="matrix(1.0886727,0,0,1.0886727,-2.4650498,-0.62594505)"
       x2="11.786"
       gradientUnits="userSpaceOnUse"
       y2="11.998"
       x1="34.5"
       y1="32.998001"
       id="a">
      <stop
         style="stop-color:#cb2829;stop-opacity:1"
         id="stop2"
         stop-color="#dd1627" />
      <stop
         style="stop-color:#ff3333;stop-opacity:1"
         id="stop4"
         stop-color="#df3e52"
         offset="1" />
    </linearGradient>
  </defs>
  <g
     transform="matrix(2.9227491,0,0,2.9227491,-6.360573,-5.9210542)"
     id="g21"
     color="#000000">
    <path
       sodipodi:nodetypes="ccccccccccccccccsccccccccccccccccccccc"
       id="path17"
       d="M 23.743025,4.8403019 44.590647,43.343365 c 0,0 0.120842,0.299386 -0.424583,0.144794 -0.512764,-0.145882 -0.951499,-0.575907 -1.482771,-0.530183 -0.447445,0.0381 -0.71417,0.685863 -1.15726,0.615099 -0.633607,-0.101252 -0.958031,-1.308584 -1.599259,-1.290076 -0.565021,0.01633 -0.425671,1.099558 -1.269392,1.167056 -0.747919,0.06315 -0.625988,-1.989005 -1.379349,-2.052148 -0.510587,-0.04246 -0.624899,2.114203 -1.258506,2.113115 -0.670622,0 0.02722,-3.102718 -0.939524,-3.153886 -0.756627,-0.04028 -0.340755,2.722771 -1.020086,2.726037 -0.937347,0.0043 -0.141528,-4.525613 -1.297698,-4.506017 -0.821948,0.01307 0.06206,4.192479 -1.008111,4.179415 -0.985249,-0.01198 -0.03593,-6.467804 -1.142018,-6.389419 -0.912307,0.06423 0.112134,5.774319 -0.891623,5.798269 -1.216047,0.0283 -0.0055,-7.953842 -1.212781,-7.963639 -1.067987,-0.0098 -0.111044,7.061131 -1.088673,7.061131 -1.191007,0 0.0033,-9.123078 -1.128953,-9.182955 -1.232378,-0.06532 0.301562,9.164447 -1.041859,9.154649 -1.29661,-0.0098 0.370148,-11.582389 -1.13222,-11.693433 -1.230201,-0.09036 0.336399,10.833382 -0.926461,10.881282 -1.326003,0.05008 0.400631,-12.724405 -1.168145,-12.72767 -1.14855,-0.0033 0.08056,12.238857 -1.109358,12.410867 -1.099559,-0.242774 0.219912,-13.513693 -1.064721,-13.518048 -1.326004,-0.0043 0.224266,13.194712 -1.14855,13.225196 -1.150727,0.01524 0.488813,-13.244792 -1.022264,-13.194713 -1.389146,0.04137 0.05335,13.140278 -1.088672,13.118505 -1.232378,-0.01415 0.315715,-12.116926 -1.065811,-12.040719 -1.052747,0.544336 -0.04028,9.361496 -1.050569,12.161561 -1.10718,-1.099559 0.07947,-8.66801 -1.151816,-10.000546 -1.010288,1.454467 -0.219911,10.184532 -1.04186,10.217193 -1.009199,0.04899 -0.04899,-6.84884 -1.13113,-6.91416 -0.647761,-0.0392 -0.991781,7.813403 -1.7854234,7.843886 C 8.4390948,41.096341 8.5403414,36.587063 7.9023797,36.601216 7.163171,36.695934 7.3569547,41.53508 6.3869473,41.547056 5.829547,41.679873 5.6945516,39.639702 5.1959395,39.687603 4.748495,39.730066 4.6646673,41.833376 3.9254586,42.212235 3.2493929,42.303685 3.578172,41.567741 4.1040009,40.419191"
       fill="url(#a)"
       style="fill:url(#a);stroke-width:1.08867" />
  </g>
</svg>
