<?xml version="1.0" encoding="UTF-8" standalone="no"?>
<svg
   xmlns:dc="http://purl.org/dc/elements/1.1/"
   xmlns:cc="http://creativecommons.org/ns#"
   xmlns:rdf="http://www.w3.org/1999/02/22-rdf-syntax-ns#"
   xmlns:svg="http://www.w3.org/2000/svg"
   xmlns="http://www.w3.org/2000/svg"
   xmlns:xlink="http://www.w3.org/1999/xlink"
   xmlns:sodipodi="http://sodipodi.sourceforge.net/DTD/sodipodi-0.dtd"
   xmlns:inkscape="http://www.inkscape.org/namespaces/inkscape"
   sodipodi:docname="artikulate.svg"
   inkscape:version="0.92.4 (unknown)"
   id="svg8"
   version="1.1"
   viewBox="0 0 33.866666 33.866668"
   height="128"
   width="128">
  <defs
     id="defs2">
    <linearGradient
       id="linearGradient4392"
       inkscape:collect="always">
      <stop
         id="stop4388"
         offset="0"
         style="stop-color:#000000;stop-opacity:0" />
      <stop
         style="stop-color:#000000;stop-opacity:0.05714286"
         offset="0.37027565"
         id="stop4400" />
      <stop
         style="stop-color:#000000;stop-opacity:0.11764706"
         offset="0.50654376"
         id="stop4396" />
      <stop
         id="stop4398"
         offset="0.58691204"
         style="stop-color:#000000;stop-opacity:0.19607843" />
      <stop
         style="stop-color:#000000;stop-opacity:0"
         offset="0.73090941"
         id="stop4404" />
      <stop
         id="stop4390"
         offset="1"
         style="stop-color:#000000;stop-opacity:0" />
    </linearGradient>
    <linearGradient
       inkscape:collect="always"
       xlink:href="#linearGradient4392"
       id="linearGradient879"
       x1="-4"
       y1="72"
       x2="96"
       y2="64"
       gradientUnits="userSpaceOnUse"
       gradientTransform="matrix(0.26458334,0,0,0.26458334,-2.1250003e-7,263.13332)" />
  </defs>
  <sodipodi:namedview
     inkscape:window-maximized="1"
     inkscape:window-y="0"
     inkscape:window-x="0"
     inkscape:window-height="728"
     inkscape:window-width="1600"
     inkscape:snap-to-guides="false"
     inkscape:snap-grids="true"
     inkscape:snap-page="false"
     units="px"
     showgrid="false"
     inkscape:document-rotation="0"
     inkscape:current-layer="layer1"
     inkscape:document-units="px"
     inkscape:cy="62.355191"
     inkscape:cx="36.670335"
     inkscape:zoom="2"
     inkscape:pageshadow="2"
     inkscape:pageopacity="0.0"
     borderopacity="1.0"
     bordercolor="#666666"
     pagecolor="#ffffff"
     id="base">
    <inkscape:grid
       type="xygrid"
       id="grid839" />
  </sodipodi:namedview>
  <metadata
     id="metadata5">
    <rdf:RDF>
      <cc:Work
         rdf:about="">
        <dc:format>image/svg+xml</dc:format>
        <dc:type
           rdf:resource="http://purl.org/dc/dcmitype/StillImage" />
        <dc:title></dc:title>
      </cc:Work>
    </rdf:RDF>
  </metadata>
  <g
     transform="translate(0,-263.13332)"
     id="layer1"
     inkscape:groupmode="layer"
     inkscape:label="Layer 1">
    <g
       id="g938"
       transform="translate(3.1750002,-9.7499999e-6)"
       style="opacity:0.99100001">
      <path
         style="fill:#0a0101;fill-opacity:1;stroke:none;stroke-width:0.77018142;paint-order:markers stroke fill"
         d="m 22.225001,275.83332 c 4.233334,0 7.408334,-3.175 7.408334,-3.175 v 6.34999 c 0,0 -3.175,3.175 -7.408334,3.175 -4.233334,0 -6.350001,-3.175 -9.524999,-3.175 -3.1750008,0 -6.3500012,3.175 -6.3500012,3.175 v -6.34999 c 0,0 3.1750004,-3.175 6.3500012,-3.175 3.174998,0 5.291665,3.175 9.524999,3.175 z"
         id="path4337"
         inkscape:connector-curvature="0"
         sodipodi:nodetypes="ccccccccc" />
      <path
         sodipodi:nodetypes="ccccccccc"
         inkscape:connector-curvature="0"
         id="path862"
         d="m 22.225,282.18332 c 4.233334,0 7.408334,-3.175 7.408334,-3.175 v 6.34999 c 0,0 -3.175,3.175 -7.408334,3.175 -4.233334,0 -6.350001,-3.175 -9.524999,-3.175 -3.1750012,0 -6.3500016,3.175 -6.3500016,3.175 v -6.34999 c 0,0 3.1750004,-3.175 6.3500016,-3.175 3.174998,0 5.291665,3.175 9.524999,3.175 z"
         style="fill:#ff0101;fill-opacity:1;stroke:none;stroke-width:0.77018142;paint-order:markers stroke fill" />
      <path
         style="fill:#ffff01;fill-opacity:1;stroke:none;stroke-width:0.77018142;paint-order:markers stroke fill"
         d="m 22.225,288.53333 c 4.233334,0 7.408334,-3.175 7.408334,-3.175 v 6.34999 c 0,0 -3.175,3.175 -7.408334,3.175 -4.233334,0 -6.350001,-3.175 -9.524999,-3.175 -3.1750016,0 -6.350002,3.175 -6.350002,3.175 v -6.34999 c 0,0 3.1750004,-3.175 6.350002,-3.175 3.174998,0 5.291665,3.175 9.524999,3.175 z"
         id="path864"
         inkscape:connector-curvature="0"
         sodipodi:nodetypes="ccccccccc" />
    </g>
    <g
       transform="translate(-4.2333348,-7.4083329)"
       id="g964">
      <path
         sodipodi:nodetypes="ccccccccc"
         inkscape:connector-curvature="0"
         id="path958"
         d="m 22.225001,275.83332 c 4.233334,0 7.408334,-3.175 7.408334,-3.175 v 6.34999 c 0,0 -3.175,3.175 -7.408334,3.175 -4.233334,0 -6.350001,-3.175 -9.524999,-3.175 -3.1750008,0 -6.3500012,3.175 -6.3500012,3.175 v -6.34999 c 0,0 3.1750004,-3.175 6.3500012,-3.175 3.174998,0 5.291665,3.175 9.524999,3.175 z"
         style="fill:#ff0101;fill-opacity:1;stroke:none;stroke-width:0.77018142;paint-order:markers stroke fill" />
      <path
         style="fill:#fffffa;fill-opacity:1;stroke:none;stroke-width:0.77018142;paint-order:markers stroke fill"
         d="m 22.225,282.18332 c 4.233334,0 7.408334,-3.175 7.408334,-3.175 v 6.34999 c 0,0 -3.175,3.175 -7.408334,3.175 -4.233334,0 -6.350001,-3.175 -9.524999,-3.175 -3.1750012,0 -6.3500016,3.175 -6.3500016,3.175 v -6.34999 c 0,0 3.1750004,-3.175 6.3500016,-3.175 3.174998,0 5.291665,3.175 9.524999,3.175 z"
         id="path960"
         inkscape:connector-curvature="0"
         sodipodi:nodetypes="ccccccccc" />
      <path
         sodipodi:nodetypes="ccccccccc"
         inkscape:connector-curvature="0"
         id="path962"
         d="m 22.225,288.53333 c 4.233334,0 7.408334,-3.175 7.408334,-3.175 v 6.34999 c 0,0 -3.175,3.175 -7.408334,3.175 -4.233334,0 -6.350001,-3.175 -9.524999,-3.175 -3.1750016,0 -6.350002,3.175 -6.350002,3.175 v -6.34999 c 0,0 3.1750004,-3.175 6.350002,-3.175 3.174998,0 5.291665,3.175 9.524999,3.175 z"
         style="fill:#00c701;fill-opacity:1;stroke:none;stroke-width:0.77018142;paint-order:markers stroke fill" />
    </g>
    <path
       sodipodi:nodetypes="sccssccss"
       inkscape:connector-curvature="0"
       style="fill:url(#linearGradient879);fill-opacity:1;stroke:none;stroke-width:0.77018142;paint-order:markers stroke fill"
       d="m 8.4666667,265.24999 c -3.175001,0 -6.35,3.175 -6.35,3.175 v 19.05 c 0,0 3.174998,-3.175 6.35,-3.175 3.1749983,0 5.2916663,3.175 9.5250003,3.175 4.233334,0 7.408333,-3.175 7.408333,-3.175 v -19.05 c 0,0 -3.174999,3.175 -7.408333,3.175 -4.233334,0 -6.350002,-3.175 -9.5250003,-3.175 z"
       id="path866" />
  </g>
</svg>
