<?xml version="1.0" encoding="UTF-8" standalone="no"?>
<svg
   xmlns:dc="http://purl.org/dc/elements/1.1/"
   xmlns:cc="http://creativecommons.org/ns#"
   xmlns:rdf="http://www.w3.org/1999/02/22-rdf-syntax-ns#"
   xmlns:svg="http://www.w3.org/2000/svg"
   xmlns="http://www.w3.org/2000/svg"
   xmlns:xlink="http://www.w3.org/1999/xlink"
   xmlns:sodipodi="http://sodipodi.sourceforge.net/DTD/sodipodi-0.dtd"
   xmlns:inkscape="http://www.inkscape.org/namespaces/inkscape"
   width="128"
   height="128"
   viewBox="0 0 33.866666 33.866668"
   version="1.1"
   id="svg8"
   inkscape:version="1.0 (4035a4fb49, 2020-05-01)"
   sodipodi:docname="baloo.svg">
  <defs
     id="defs2">
    <linearGradient
       inkscape:collect="always"
       id="linearGradient1023">
      <stop
         style="stop-color:#35b1d4;stop-opacity:0.31517509"
         offset="0"
         id="stop1019" />
      <stop
         style="stop-color:#6144e5;stop-opacity:0.30000001"
         offset="1"
         id="stop1021" />
    </linearGradient>
    <linearGradient
       inkscape:collect="always"
       id="linearGradient2430">
      <stop
         style="stop-color:#06b2bc;stop-opacity:1"
         offset="0"
         id="stop2426" />
      <stop
         style="stop-color:#0afefc;stop-opacity:1"
         offset="1"
         id="stop2428" />
    </linearGradient>
    <linearGradient
       id="linearGradient2358"
       inkscape:collect="always">
      <stop
         id="stop2354"
         offset="0"
         style="stop-color:#2e8bba;stop-opacity:1;" />
      <stop
         id="stop2356"
         offset="1"
         style="stop-color:#0216bc;stop-opacity:1" />
    </linearGradient>
    <linearGradient
       inkscape:collect="always"
       id="linearGradient2236">
      <stop
         style="stop-color:#525254;stop-opacity:1"
         offset="0"
         id="stop2232" />
      <stop
         style="stop-color:#8e8e8c;stop-opacity:1"
         offset="1"
         id="stop2234" />
    </linearGradient>
    <linearGradient
       inkscape:collect="always"
       xlink:href="#linearGradient2236"
       id="linearGradient2238"
       x1="13.758333"
       y1="294.88333"
       x2="14.816667"
       y2="293.82498"
       gradientUnits="userSpaceOnUse"
       gradientTransform="matrix(2.0000001,0,0,1.9999999,0,-296.99995)" />
    <linearGradient
       inkscape:collect="always"
       xlink:href="#linearGradient2358"
       id="linearGradient2346"
       x1="12.303124"
       y1="276.89169"
       x2="16.271875"
       y2="280.86044"
       gradientUnits="userSpaceOnUse"
       gradientTransform="translate(0.13229219,-4.1858828e-5)" />
    <linearGradient
       inkscape:collect="always"
       xlink:href="#linearGradient2358"
       id="linearGradient2348"
       x1="14.041224"
       y1="274.92975"
       x2="15.610415"
       y2="276.49475"
       gradientUnits="userSpaceOnUse"
       gradientTransform="translate(1.0053317e-6,0.13230329)" />
    <linearGradient
       inkscape:collect="always"
       xlink:href="#linearGradient2358"
       id="linearGradient2350"
       x1="16.404165"
       y1="275.70102"
       x2="17.991667"
       y2="277.28851"
       gradientUnits="userSpaceOnUse"
       gradientTransform="translate(6.2386195e-7,0.13229109)" />
    <linearGradient
       inkscape:collect="always"
       xlink:href="#linearGradient2358"
       id="linearGradient2362"
       gradientUnits="userSpaceOnUse"
       x1="16.933332"
       y1="277.81769"
       x2="18.520834"
       y2="279.40518"
       gradientTransform="translate(1.1523564e-7,0.13228905)" />
    <linearGradient
       inkscape:collect="always"
       xlink:href="#linearGradient2358"
       id="linearGradient2380"
       gradientUnits="userSpaceOnUse"
       gradientTransform="translate(0.13229219,-4.1858828e-5)"
       x1="12.303124"
       y1="276.89169"
       x2="16.271875"
       y2="280.86044" />
    <linearGradient
       inkscape:collect="always"
       xlink:href="#linearGradient2358"
       id="linearGradient2382"
       gradientUnits="userSpaceOnUse"
       gradientTransform="translate(1.0053317e-6,0.13230329)"
       x1="14.041224"
       y1="274.92975"
       x2="15.610415"
       y2="276.49475" />
    <linearGradient
       inkscape:collect="always"
       xlink:href="#linearGradient2358"
       id="linearGradient2384"
       gradientUnits="userSpaceOnUse"
       gradientTransform="translate(6.2386195e-7,0.13229109)"
       x1="16.404165"
       y1="275.70102"
       x2="17.991667"
       y2="277.28851" />
    <linearGradient
       inkscape:collect="always"
       xlink:href="#linearGradient2358"
       id="linearGradient2386"
       gradientUnits="userSpaceOnUse"
       gradientTransform="translate(1.1523564e-7,0.13228905)"
       x1="16.933332"
       y1="277.81769"
       x2="18.520834"
       y2="279.40518" />
    <linearGradient
       inkscape:collect="always"
       xlink:href="#linearGradient2358"
       id="linearGradient2398"
       gradientUnits="userSpaceOnUse"
       gradientTransform="translate(0.13229219,-4.1858828e-5)"
       x1="12.303124"
       y1="276.89169"
       x2="16.271875"
       y2="280.86044" />
    <linearGradient
       inkscape:collect="always"
       xlink:href="#linearGradient2358"
       id="linearGradient2400"
       gradientUnits="userSpaceOnUse"
       gradientTransform="translate(1.0053317e-6,0.13230329)"
       x1="14.041224"
       y1="274.92975"
       x2="15.610415"
       y2="276.49475" />
    <linearGradient
       inkscape:collect="always"
       xlink:href="#linearGradient2358"
       id="linearGradient2402"
       gradientUnits="userSpaceOnUse"
       gradientTransform="translate(6.2386195e-7,0.13229109)"
       x1="16.404165"
       y1="275.70102"
       x2="17.991667"
       y2="277.28851" />
    <linearGradient
       inkscape:collect="always"
       xlink:href="#linearGradient2358"
       id="linearGradient2404"
       gradientUnits="userSpaceOnUse"
       gradientTransform="translate(1.1523564e-7,0.13228905)"
       x1="16.933332"
       y1="277.81769"
       x2="18.520834"
       y2="279.40518" />
    <linearGradient
       inkscape:collect="always"
       xlink:href="#linearGradient2358"
       id="linearGradient2416"
       gradientUnits="userSpaceOnUse"
       gradientTransform="translate(0.13229219,-4.1858828e-5)"
       x1="12.303124"
       y1="276.89169"
       x2="16.271875"
       y2="280.86044" />
    <linearGradient
       inkscape:collect="always"
       xlink:href="#linearGradient2358"
       id="linearGradient2418"
       gradientUnits="userSpaceOnUse"
       gradientTransform="translate(1.0053317e-6,0.13230329)"
       x1="14.041224"
       y1="274.92975"
       x2="15.610415"
       y2="276.49475" />
    <linearGradient
       inkscape:collect="always"
       xlink:href="#linearGradient2358"
       id="linearGradient2420"
       gradientUnits="userSpaceOnUse"
       gradientTransform="translate(6.2386195e-7,0.13229109)"
       x1="16.404165"
       y1="275.70102"
       x2="17.991667"
       y2="277.28851" />
    <linearGradient
       inkscape:collect="always"
       xlink:href="#linearGradient2358"
       id="linearGradient2422"
       gradientUnits="userSpaceOnUse"
       gradientTransform="translate(1.1523564e-7,0.13228905)"
       x1="16.933332"
       y1="277.81769"
       x2="18.520834"
       y2="279.40518" />
    <linearGradient
       inkscape:collect="always"
       xlink:href="#linearGradient2430"
       id="linearGradient2432"
       x1="10.583333"
       y1="291.70831"
       x2="11.641666"
       y2="290.64999"
       gradientUnits="userSpaceOnUse"
       gradientTransform="matrix(2.0000001,0,0,1.9999999,0,-296.99995)" />
    <linearGradient
       gradientUnits="userSpaceOnUse"
       y2="272.65833"
       x2="22.225"
       y1="285.35831"
       x1="10.583333"
       id="linearGradient1009"
       xlink:href="#linearGradient2236"
       inkscape:collect="always" />
    <linearGradient
       gradientUnits="userSpaceOnUse"
       y2="285.35831"
       x2="22.225"
       y1="274.77499"
       x1="11.641666"
       id="linearGradient1017"
       xlink:href="#linearGradient1023"
       inkscape:collect="always" />
  </defs>
  <sodipodi:namedview
     id="base"
     pagecolor="#ffffff"
     bordercolor="#666666"
     borderopacity="1.0"
     inkscape:pageopacity="0.0"
     inkscape:pageshadow="2"
     inkscape:zoom="7.0234375"
     inkscape:cx="64"
     inkscape:cy="64"
     inkscape:document-units="mm"
     inkscape:current-layer="layer1"
     showgrid="false"
     units="px"
     inkscape:snap-bbox="true"
     inkscape:bbox-paths="false"
     inkscape:bbox-nodes="true"
     inkscape:snap-bbox-edge-midpoints="false"
     inkscape:snap-bbox-midpoints="false"
     inkscape:snap-nodes="false"
     inkscape:snap-page="false"
     inkscape:snap-grids="true"
     inkscape:window-width="1920"
     inkscape:window-height="1143"
     inkscape:window-x="0"
     inkscape:window-y="0"
     inkscape:window-maximized="1"
     inkscape:document-rotation="0"
     inkscape:snap-to-guides="false">
    <inkscape:grid
       type="xygrid"
       id="grid815" />
  </sodipodi:namedview>
  <metadata
     id="metadata5">
    <rdf:RDF>
      <cc:Work
         rdf:about="">
        <dc:format>image/svg+xml</dc:format>
        <dc:type
           rdf:resource="http://purl.org/dc/dcmitype/StillImage" />
        <dc:title />
      </cc:Work>
    </rdf:RDF>
  </metadata>
  <g
     inkscape:label="Layer 1"
     inkscape:groupmode="layer"
     id="layer1"
     transform="translate(0,-263.13332)">
    <g
       id="g994"
       transform="translate(0.697394,0.6979)">
      <path
         style="fill:url(#linearGradient2238);fill-opacity:1;stroke:none;stroke-width:1.48167;stroke-linecap:square;stroke-linejoin:miter;stroke-miterlimit:4;stroke-dasharray:none;stroke-opacity:1;paint-order:markers fill stroke"
         d="m 20.902083,286.15207 8.033854,8.03335 h 1.058335 l 1.058334,-1.05834 v -1.05832 l -8.033857,-8.03335 z"
         id="path2230"
         inkscape:connector-curvature="0"
         sodipodi:nodetypes="ccccccc" />
      <path
         inkscape:connector-curvature="0"
         id="path2424"
         d="m 20.637501,285.88748 2.116666,-2.11666 1.5875,1.5875 -2.116666,2.11666 z"
         style="fill:url(#linearGradient2432);fill-opacity:1;stroke:none;stroke-width:1.48167;stroke-linecap:square;stroke-linejoin:miter;stroke-miterlimit:4;stroke-dasharray:none;stroke-opacity:1;paint-order:markers fill stroke" />
      <path
         style="color:#000000;font-style:normal;font-variant:normal;font-weight:normal;font-stretch:normal;font-size:medium;line-height:normal;font-family:sans-serif;font-variant-ligatures:normal;font-variant-position:normal;font-variant-caps:normal;font-variant-numeric:normal;font-variant-alternates:normal;font-variant-east-asian:normal;font-feature-settings:normal;font-variation-settings:normal;text-indent:0;text-align:start;text-decoration:none;text-decoration-line:none;text-decoration-style:solid;text-decoration-color:#000000;letter-spacing:normal;word-spacing:normal;text-transform:none;writing-mode:lr-tb;direction:ltr;text-orientation:mixed;dominant-baseline:auto;baseline-shift:baseline;text-anchor:start;white-space:normal;shape-padding:0;shape-margin:0;inline-size:0;clip-rule:nonzero;display:inline;overflow:visible;visibility:visible;opacity:1;isolation:auto;mix-blend-mode:normal;color-interpolation:sRGB;color-interpolation-filters:linearRGB;solid-color:#000000;solid-opacity:1;vector-effect:none;fill:url(#linearGradient1009);fill-opacity:1;fill-rule:nonzero;stroke:none;stroke-width:1.39451;stroke-linecap:square;stroke-linejoin:miter;stroke-miterlimit:4;stroke-dasharray:none;stroke-dashoffset:0;stroke-opacity:1;paint-order:markers fill stroke;color-rendering:auto;image-rendering:auto;shape-rendering:auto;text-rendering:auto;enable-background:accumulate;stop-color:#000000;stop-opacity:1"
         d="m 15.875,269.84375 c -5.052831,0 -9.1640552,4.11123 -9.1640625,9.16406 -3.9e-6,5.05284 4.1112235,9.16407 9.1640625,9.16407 5.05284,0 9.164067,-4.11123 9.164062,-9.16407 -7e-6,-5.05283 -4.111231,-9.16406 -9.164062,-9.16406 z m 0,1.39453 c 4.299183,0 7.769525,3.47035 7.769531,7.76953 4e-6,4.29919 -3.470341,7.76953 -7.769531,7.76953 -4.299189,0 -7.7695346,-3.47034 -7.7695312,-7.76953 6.2e-6,-4.29918 3.4703482,-7.76953 7.7695312,-7.76953 z"
         id="path1001" />
      <path
         sodipodi:nodetypes="ssscs"
         d="m 15.875002,287.47499 c -4.676015,0 -8.4666717,-3.79066 -8.4666687,-8.46667 7e-6,-4.67601 3.7906617,-8.46666 8.4666687,-8.46666 4.676006,0 8.46666,3.79065 8.466667,8.46666 4e-6,4.67601 -3.790653,8.46667 -8.466667,8.46667 z"
         style="fill:url(#linearGradient1017);fill-opacity:1;stroke:none;stroke-width:1.39451;stroke-linecap:square;stroke-linejoin:miter;stroke-miterlimit:4;stroke-dasharray:none;stroke-opacity:1;paint-order:markers fill stroke"
         id="path2434" />
    </g>
    <path
       d=""
       style="fill:#525254;fill-opacity:1;stroke:none;stroke-width:1.62308;stroke-linecap:square;stroke-linejoin:miter;stroke-miterlimit:4;stroke-dasharray:none;stroke-opacity:1;paint-order:markers fill stroke"
       id="path2242"
       ry="0.79374999"
       rx="0.79374939"
       cy="295.28018"
       cx="25.53229" />
    <path
       d=""
       style="fill:#525254;fill-opacity:1;stroke:none;stroke-width:1.48167;stroke-linecap:square;stroke-linejoin:miter;stroke-miterlimit:4;stroke-dasharray:none;stroke-opacity:1;paint-order:markers fill stroke"
       id="path2244"
       r="0.79374999"
       cy="296.07394"
       cx="27.648956" />
    <path
       d=""
       style="fill:#525254;fill-opacity:1;stroke:none;stroke-width:1.62308;stroke-linecap:square;stroke-linejoin:miter;stroke-miterlimit:4;stroke-dasharray:none;stroke-opacity:1;paint-order:markers fill stroke"
       id="path2246"
       ry="0.79374999"
       rx="0.79374975"
       cy="298.19061"
       cx="28.178123" />
    <g
       id="g2368"
       transform="matrix(2.0869567,0,0,2.1818126,-15.368841,-327.42646)">
      <path
         id="path2240"
         style="opacity:1;fill:url(#linearGradient2346);fill-opacity:1;stroke:none;stroke-width:0.740833;stroke-linecap:square;stroke-linejoin:miter;stroke-miterlimit:4;stroke-dasharray:none;stroke-opacity:1;paint-order:markers fill stroke"
         d="m 14.419791,280.86041 c -1.095938,0 -1.984372,-0.88843 -1.984375,-1.98437 -3e-6,-1.09594 0.888433,-1.98438 1.984375,-1.98438 1.095942,0 1.984378,0.88844 1.984375,1.98438 -3e-6,1.09594 -0.888437,1.98437 -1.984375,1.98437 z"
         sodipodi:nodetypes="ssscs" />
      <path
         id="path2294"
         style="opacity:1;fill:url(#linearGradient2348);fill-opacity:1;stroke:none;stroke-width:0.811539;stroke-linecap:square;stroke-linejoin:miter;stroke-miterlimit:4;stroke-dasharray:none;stroke-opacity:1;paint-order:markers fill stroke"
         d="m 14.816667,276.62706 c -0.438378,0 -0.793753,-0.35537 -0.79375,-0.79375 2e-6,-0.43837 0.355376,-0.79374 0.79375,-0.79374 0.438374,0 0.793748,0.35537 0.79375,0.79374 3e-6,0.43838 -0.355372,0.79375 -0.79375,0.79375 z"
         sodipodi:nodetypes="ssscs" />
      <path
         id="ellipse2296"
         style="opacity:1;fill:url(#linearGradient2350);fill-opacity:1;stroke:none;stroke-width:0.811539;stroke-linecap:square;stroke-linejoin:miter;stroke-miterlimit:4;stroke-dasharray:none;stroke-opacity:1;paint-order:markers fill stroke"
         d="m 17.197916,277.42082 c -0.438374,0 -0.793748,-0.35537 -0.79375,-0.79374 -3e-6,-0.43838 0.355372,-0.79375 0.79375,-0.79375 0.438378,0 0.793753,0.35537 0.79375,0.79375 -2e-6,0.43837 -0.355376,0.79374 -0.79375,0.79374 z"
         sodipodi:nodetypes="ssscs" />
      <path
         id="ellipse2298"
         style="opacity:1;fill:url(#linearGradient2362);fill-opacity:1;stroke:none;stroke-width:0.811539;stroke-linecap:square;stroke-linejoin:miter;stroke-miterlimit:4;stroke-dasharray:none;stroke-opacity:1;paint-order:markers fill stroke"
         d="m 17.727083,279.53749 c -0.438378,0 -0.793753,-0.35537 -0.79375,-0.79375 2e-6,-0.43837 0.355376,-0.79374 0.79375,-0.79374 0.438374,0 0.793748,0.35537 0.79375,0.79374 3e-6,0.43838 -0.355372,0.79375 -0.79375,0.79375 z"
         sodipodi:nodetypes="ssscs" />
    </g>
    <g
       transform="matrix(1.3913042,0,0,1.4545419,-15.18478,-113.63991)"
       id="g2378">
      <path
         id="circle2370"
         style="opacity:1;fill:url(#linearGradient2380);fill-opacity:1;stroke:none;stroke-width:0.740833;stroke-linecap:square;stroke-linejoin:miter;stroke-miterlimit:4;stroke-dasharray:none;stroke-opacity:1;paint-order:markers fill stroke"
         d="m 14.419791,280.86041 c -1.095938,0 -1.984372,-0.88843 -1.984375,-1.98437 -3e-6,-1.09594 0.888433,-1.98438 1.984375,-1.98438 1.095942,0 1.984378,0.88844 1.984375,1.98438 -3e-6,1.09594 -0.888437,1.98437 -1.984375,1.98437 z"
         sodipodi:nodetypes="ssscs" />
      <path
         id="ellipse2372"
         style="opacity:1;fill:url(#linearGradient2382);fill-opacity:1;stroke:none;stroke-width:0.811539;stroke-linecap:square;stroke-linejoin:miter;stroke-miterlimit:4;stroke-dasharray:none;stroke-opacity:1;paint-order:markers fill stroke"
         d="m 14.816667,276.62706 c -0.438378,0 -0.793753,-0.35537 -0.79375,-0.79375 2e-6,-0.43837 0.355376,-0.79374 0.79375,-0.79374 0.438374,0 0.793748,0.35537 0.79375,0.79374 3e-6,0.43838 -0.355372,0.79375 -0.79375,0.79375 z"
         sodipodi:nodetypes="ssscs" />
      <path
         id="ellipse2374"
         style="opacity:1;fill:url(#linearGradient2384);fill-opacity:1;stroke:none;stroke-width:0.811539;stroke-linecap:square;stroke-linejoin:miter;stroke-miterlimit:4;stroke-dasharray:none;stroke-opacity:1;paint-order:markers fill stroke"
         d="m 17.197916,277.42082 c -0.438374,0 -0.793748,-0.35537 -0.79375,-0.79374 -3e-6,-0.43838 0.355372,-0.79375 0.79375,-0.79375 0.438378,0 0.793753,0.35537 0.79375,0.79375 -2e-6,0.43837 -0.355376,0.79374 -0.79375,0.79374 z"
         sodipodi:nodetypes="ssscs" />
      <path
         id="ellipse2376"
         style="opacity:1;fill:url(#linearGradient2386);fill-opacity:1;stroke:none;stroke-width:0.811539;stroke-linecap:square;stroke-linejoin:miter;stroke-miterlimit:4;stroke-dasharray:none;stroke-opacity:1;paint-order:markers fill stroke"
         d="m 17.727083,279.53749 c -0.438378,0 -0.793753,-0.35537 -0.79375,-0.79375 2e-6,-0.43837 0.355376,-0.79374 0.79375,-0.79374 0.438374,0 0.793748,0.35537 0.79375,0.79374 3e-6,0.43838 -0.355372,0.79375 -0.79375,0.79375 z"
         sodipodi:nodetypes="ssscs" />
    </g>
    <g
       id="g2396"
       transform="matrix(1.3913043,0,0,1.4545438,-6.1889478,-89.034193)">
      <path
         id="circle2388"
         style="opacity:1;fill:url(#linearGradient2398);fill-opacity:1;stroke:none;stroke-width:0.740833;stroke-linecap:square;stroke-linejoin:miter;stroke-miterlimit:4;stroke-dasharray:none;stroke-opacity:1;paint-order:markers fill stroke"
         d="m 14.419791,280.86041 c -1.095938,0 -1.984372,-0.88843 -1.984375,-1.98437 -3e-6,-1.09594 0.888433,-1.98438 1.984375,-1.98438 1.095942,0 1.984378,0.88844 1.984375,1.98438 -3e-6,1.09594 -0.888437,1.98437 -1.984375,1.98437 z"
         sodipodi:nodetypes="ssscs" />
      <path
         id="ellipse2390"
         style="opacity:1;fill:url(#linearGradient2400);fill-opacity:1;stroke:none;stroke-width:0.811539;stroke-linecap:square;stroke-linejoin:miter;stroke-miterlimit:4;stroke-dasharray:none;stroke-opacity:1;paint-order:markers fill stroke"
         d="m 14.816667,276.62706 c -0.438378,0 -0.793753,-0.35537 -0.79375,-0.79375 2e-6,-0.43837 0.355376,-0.79374 0.79375,-0.79374 0.438374,0 0.793748,0.35537 0.79375,0.79374 3e-6,0.43838 -0.355372,0.79375 -0.79375,0.79375 z"
         sodipodi:nodetypes="ssscs" />
      <path
         id="ellipse2392"
         style="opacity:1;fill:url(#linearGradient2402);fill-opacity:1;stroke:none;stroke-width:0.811539;stroke-linecap:square;stroke-linejoin:miter;stroke-miterlimit:4;stroke-dasharray:none;stroke-opacity:1;paint-order:markers fill stroke"
         d="m 17.197916,277.42082 c -0.438374,0 -0.793748,-0.35537 -0.79375,-0.79374 -3e-6,-0.43838 0.355372,-0.79375 0.79375,-0.79375 0.438378,0 0.793753,0.35537 0.79375,0.79375 -2e-6,0.43837 -0.355376,0.79374 -0.79375,0.79374 z"
         sodipodi:nodetypes="ssscs" />
      <path
         id="ellipse2394"
         style="opacity:1;fill:url(#linearGradient2404);fill-opacity:1;stroke:none;stroke-width:0.811539;stroke-linecap:square;stroke-linejoin:miter;stroke-miterlimit:4;stroke-dasharray:none;stroke-opacity:1;paint-order:markers fill stroke"
         d="m 17.727083,279.53749 c -0.438378,0 -0.793753,-0.35537 -0.79375,-0.79375 2e-6,-0.43837 0.355376,-0.79374 0.79375,-0.79374 0.438374,0 0.793748,0.35537 0.79375,0.79374 3e-6,0.43838 -0.355372,0.79375 -0.79375,0.79375 z"
         sodipodi:nodetypes="ssscs" />
    </g>
    <g
       transform="matrix(1.3913043,0,0,1.4545437,5.9818856,-134.80709)"
       id="g2414">
      <path
         id="circle2406"
         style="opacity:1;fill:url(#linearGradient2416);fill-opacity:1;stroke:none;stroke-width:0.740833;stroke-linecap:square;stroke-linejoin:miter;stroke-miterlimit:4;stroke-dasharray:none;stroke-opacity:1;paint-order:markers fill stroke"
         d="m 14.419791,280.86041 c -1.095938,0 -1.984372,-0.88843 -1.984375,-1.98437 -3e-6,-1.09594 0.888433,-1.98438 1.984375,-1.98438 1.095942,0 1.984378,0.88844 1.984375,1.98438 -3e-6,1.09594 -0.888437,1.98437 -1.984375,1.98437 z"
         sodipodi:nodetypes="ssscs" />
      <path
         id="ellipse2408"
         style="opacity:1;fill:url(#linearGradient2418);fill-opacity:1;stroke:none;stroke-width:0.811539;stroke-linecap:square;stroke-linejoin:miter;stroke-miterlimit:4;stroke-dasharray:none;stroke-opacity:1;paint-order:markers fill stroke"
         d="m 14.816667,276.62706 c -0.438378,0 -0.793753,-0.35537 -0.79375,-0.79375 2e-6,-0.43837 0.355376,-0.79374 0.79375,-0.79374 0.438374,0 0.793748,0.35537 0.79375,0.79374 3e-6,0.43838 -0.355372,0.79375 -0.79375,0.79375 z"
         sodipodi:nodetypes="ssscs" />
      <path
         id="ellipse2410"
         style="opacity:1;fill:url(#linearGradient2420);fill-opacity:1;stroke:none;stroke-width:0.811539;stroke-linecap:square;stroke-linejoin:miter;stroke-miterlimit:4;stroke-dasharray:none;stroke-opacity:1;paint-order:markers fill stroke"
         d="m 17.197916,277.42082 c -0.438374,0 -0.793748,-0.35537 -0.79375,-0.79374 -3e-6,-0.43838 0.355372,-0.79375 0.79375,-0.79375 0.438378,0 0.793753,0.35537 0.79375,0.79375 -2e-6,0.43837 -0.355376,0.79374 -0.79375,0.79374 z"
         sodipodi:nodetypes="ssscs" />
      <path
         id="ellipse2412"
         style="opacity:1;fill:url(#linearGradient2422);fill-opacity:1;stroke:none;stroke-width:0.811539;stroke-linecap:square;stroke-linejoin:miter;stroke-miterlimit:4;stroke-dasharray:none;stroke-opacity:1;paint-order:markers fill stroke"
         d="m 17.727083,279.53749 c -0.438378,0 -0.793753,-0.35537 -0.79375,-0.79375 2e-6,-0.43837 0.355376,-0.79374 0.79375,-0.79374 0.438374,0 0.793748,0.35537 0.79375,0.79374 3e-6,0.43838 -0.355372,0.79375 -0.79375,0.79375 z"
         sodipodi:nodetypes="ssscs" />
    </g>
  </g>
</svg>
