<?xml version="1.0" encoding="UTF-8" standalone="no"?>
<svg
   xmlns:dc="http://purl.org/dc/elements/1.1/"
   xmlns:cc="http://creativecommons.org/ns#"
   xmlns:rdf="http://www.w3.org/1999/02/22-rdf-syntax-ns#"
   xmlns:svg="http://www.w3.org/2000/svg"
   xmlns="http://www.w3.org/2000/svg"
   xmlns:xlink="http://www.w3.org/1999/xlink"
   xmlns:sodipodi="http://sodipodi.sourceforge.net/DTD/sodipodi-0.dtd"
   xmlns:inkscape="http://www.inkscape.org/namespaces/inkscape"
   width="128"
   height="128"
   viewBox="0 0 33.866666 33.866668"
   version="1.1"
   id="svg8"
   inkscape:version="0.92.3 (2405546, 2018-03-11)"
   sodipodi:docname="bleachbit.svg">
  <defs
     id="defs2">
    <linearGradient
       inkscape:collect="always"
       id="linearGradient1527">
      <stop
         style="stop-color:#598080;stop-opacity:1"
         offset="0"
         id="stop1523" />
      <stop
         id="stop1535"
         offset="0.25000083"
         style="stop-color:#7db2b2;stop-opacity:1" />
      <stop
         id="stop1533"
         offset="0.5"
         style="stop-color:#97d9d9;stop-opacity:1" />
      <stop
         style="stop-color:#7db2b2;stop-opacity:1"
         offset="0.74999964"
         id="stop1537" />
      <stop
         style="stop-color:#598080;stop-opacity:1"
         offset="1"
         id="stop1525" />
    </linearGradient>
    <linearGradient
       inkscape:collect="always"
       id="linearGradient1091">
      <stop
         style="stop-color:#333333;stop-opacity:1"
         offset="0"
         id="stop1086" />
      <stop
         style="stop-color:#a5a5a5;stop-opacity:1"
         offset="1"
         id="stop1089" />
    </linearGradient>
    <linearGradient
       inkscape:collect="always"
       id="linearGradient1068">
      <stop
         style="stop-color:#c2e7e7;stop-opacity:1"
         offset="0"
         id="stop1064" />
      <stop
         style="stop-color:#318080;stop-opacity:1"
         offset="1"
         id="stop1066" />
    </linearGradient>
    <linearGradient
       id="linearGradient1198"
       inkscape:collect="always">
      <stop
         id="stop1194"
         offset="0"
         style="stop-color:#ffaaa2;stop-opacity:1" />
      <stop
         id="stop1196"
         offset="1"
         style="stop-color:#970033;stop-opacity:1" />
    </linearGradient>
    <linearGradient
       inkscape:collect="always"
       id="linearGradient4541">
      <stop
         style="stop-color:#ffeeca;stop-opacity:1"
         offset="0"
         id="stop4537" />
      <stop
         style="stop-color:#da9f33;stop-opacity:1"
         offset="1"
         id="stop4539" />
    </linearGradient>
    <linearGradient
       inkscape:collect="always"
       xlink:href="#linearGradient4541"
       id="linearGradient4549"
       gradientUnits="userSpaceOnUse"
       x1="2.6458335"
       y1="290.12082"
       x2="6.8791666"
       y2="294.35416"
       gradientTransform="matrix(2,0,0,1.9999994,33.866668,-296.99983)" />
    <linearGradient
       inkscape:collect="always"
       xlink:href="#linearGradient4541"
       id="linearGradient4623"
       x1="2.778125"
       y1="290.25311"
       x2="6.7468753"
       y2="294.22186"
       gradientUnits="userSpaceOnUse"
       gradientTransform="matrix(2,0,0,1.9999994,33.866668,-296.99983)" />
    <linearGradient
       inkscape:collect="always"
       xlink:href="#linearGradient1198"
       id="linearGradient4723"
       gradientUnits="userSpaceOnUse"
       x1="2.778125"
       y1="290.25311"
       x2="5.4901042"
       y2="292.96512"
       gradientTransform="matrix(4,0,0,3.9999988,34.131252,-891.79343)" />
    <linearGradient
       gradientUnits="userSpaceOnUse"
       x2="0"
       y2="7"
       y1="41"
       id="a">
      <stop
         id="stop1078"
         stop-color="#728790"
         style="stop-color:#667f98;stop-opacity:1" />
      <stop
         id="stop1080"
         stop-color="#85969e"
         offset="1"
         style="stop-color:#98cce8;stop-opacity:1" />
    </linearGradient>
    <linearGradient
       gradientUnits="userSpaceOnUse"
       x2="0"
       y2="12"
       y1="36"
       id="b">
      <stop
         id="stop1083"
         stop-color="#06a370" />
      <stop
         id="stop1085"
         stop-color="#22d1b0"
         offset="1" />
    </linearGradient>
    <linearGradient
       gradientUnits="userSpaceOnUse"
       x2="0"
       y2="4"
       y1="44"
       id="c">
      <stop
         id="stop1088"
         stop-color="#2a2c2f" />
      <stop
         id="stop1090"
         stop-color="#424649"
         offset="1" />
    </linearGradient>
    <linearGradient
       gradientUnits="userSpaceOnUse"
       x2="44"
       y2="44"
       x1="15"
       y1="15"
       id="d">
      <stop
         id="stop1093"
         stop-color="#020303" />
      <stop
         id="stop1095"
         stop-opacity="0"
         stop-color="#424649"
         offset="1" />
    </linearGradient>
    <linearGradient
       inkscape:collect="always"
       xlink:href="#linearGradient4541"
       id="linearGradient1200"
       x1="7.9375005"
       y1="282.71249"
       x2="12.170834"
       y2="285.88748"
       gradientUnits="userSpaceOnUse"
       gradientTransform="matrix(2,0,0,1.9999994,33.866668,-296.99983)" />
    <linearGradient
       inkscape:collect="always"
       xlink:href="#b"
       id="linearGradient1210"
       x1="10.054167"
       y1="285.88748"
       x2="13.758334"
       y2="289.0625"
       gradientUnits="userSpaceOnUse"
       gradientTransform="matrix(2,0,0,1.9999994,33.866668,-296.99983)" />
    <linearGradient
       inkscape:collect="always"
       xlink:href="#a"
       id="linearGradient1040"
       x1="24"
       y1="112"
       x2="88"
       y2="112"
       gradientUnits="userSpaceOnUse" />
    <linearGradient
       inkscape:collect="always"
       xlink:href="#linearGradient1068"
       id="linearGradient1070"
       x1="5.291667"
       y1="288.53333"
       x2="10.583334"
       y2="293.82498"
       gradientUnits="userSpaceOnUse"
       gradientTransform="translate(3.1764024,0.0512895)" />
    <linearGradient
       inkscape:collect="always"
       xlink:href="#linearGradient1091"
       id="linearGradient1078"
       x1="6.3500004"
       y1="267.36667"
       x2="27.516666"
       y2="292.76666"
       gradientUnits="userSpaceOnUse"
       gradientTransform="translate(3.1764024,0.0512895)" />
    <linearGradient
       inkscape:collect="always"
       xlink:href="#linearGradient1527"
       id="linearGradient1531"
       gradientUnits="userSpaceOnUse"
       x1="50.102463"
       y1="274.07742"
       x2="56.26004"
       y2="280.23502" />
    <radialGradient
       gradientUnits="userSpaceOnUse"
       gradientTransform="matrix(1,0,0,0.651032,0,9.455693)"
       r="23.555494"
       fy="27.096155"
       fx="23.201941"
       cy="27.096155"
       cx="23.201941"
       id="radialGradient4270"
       xlink:href="#linearGradient4264"
       inkscape:collect="always" />
    <linearGradient
       id="linearGradient4184">
      <stop
         id="stop4186"
         offset="0.0000000"
         style="stop-color:#838383;stop-opacity:1.0000000;" />
      <stop
         id="stop4188"
         offset="1.0000000"
         style="stop-color:#bbbbbb;stop-opacity:0.0000000;" />
    </linearGradient>
    <linearGradient
       id="linearGradient4228">
      <stop
         id="stop4230"
         offset="0.0000000"
         style="stop-color:#bbbbbb;stop-opacity:1.0000000;" />
      <stop
         id="stop4232"
         offset="1.0000000"
         style="stop-color:#9f9f9f;stop-opacity:1.0000000;" />
    </linearGradient>
    <linearGradient
       id="linearGradient4244">
      <stop
         id="stop4246"
         offset="0.0000000"
         style="stop-color:#e4e4e4;stop-opacity:1.0000000;" />
      <stop
         id="stop4248"
         offset="1.0000000"
         style="stop-color:#d3d3d3;stop-opacity:1.0000000;" />
    </linearGradient>
    <linearGradient
       id="linearGradient4264"
       inkscape:collect="always">
      <stop
         id="stop4266"
         offset="0"
         style="stop-color:#000000;stop-opacity:1;" />
      <stop
         id="stop4268"
         offset="1"
         style="stop-color:#000000;stop-opacity:0;" />
    </linearGradient>
    <linearGradient
       id="linearGradient4274">
      <stop
         style="stop-color:#ffffff;stop-opacity:0.25490198;"
         offset="0.0000000"
         id="stop4276" />
      <stop
         style="stop-color:#ffffff;stop-opacity:1.0000000;"
         offset="1.0000000"
         id="stop4278" />
    </linearGradient>
    <linearGradient
       id="linearGradient2555">
      <stop
         id="stop2557"
         offset="0"
         style="stop-color:#ffffff;stop-opacity:1;" />
      <stop
         style="stop-color:#e6e6e6;stop-opacity:1.0000000;"
         offset="0.50000000"
         id="stop2561" />
      <stop
         id="stop2563"
         offset="0.75000000"
         style="stop-color:#ffffff;stop-opacity:1.0000000;" />
      <stop
         style="stop-color:#e1e1e1;stop-opacity:1.0000000;"
         offset="0.84166664"
         id="stop2565" />
      <stop
         id="stop2559"
         offset="1.0000000"
         style="stop-color:#ffffff;stop-opacity:1.0000000;" />
    </linearGradient>
    <linearGradient
       id="linearGradient5048">
      <stop
         style="stop-color:black;stop-opacity:0;"
         offset="0"
         id="stop5050" />
      <stop
         id="stop5056"
         offset="0.5"
         style="stop-color:black;stop-opacity:1;" />
      <stop
         style="stop-color:black;stop-opacity:0;"
         offset="1"
         id="stop5052" />
    </linearGradient>
    <inkscape:perspective
       sodipodi:type="inkscape:persp3d"
       inkscape:vp_x="0 : 24 : 1"
       inkscape:vp_y="0 : 1000 : 0"
       inkscape:vp_z="48 : 24 : 1"
       inkscape:persp3d-origin="24 : 16 : 1"
       id="perspective79" />
    <radialGradient
       inkscape:collect="always"
       xlink:href="#linearGradient9320"
       id="radialGradient9318"
       cx="20.764477"
       cy="19.540945"
       fx="20.764477"
       fy="19.540945"
       r="14.799585"
       gradientTransform="matrix(0.61887075,-0.29813343,0.77726326,1.6134462,-65.043669,245.03886)"
       gradientUnits="userSpaceOnUse" />
    <linearGradient
       inkscape:collect="always"
       xlink:href="#linearGradient8576"
       id="linearGradient8582"
       x1="11.996646"
       y1="19.591736"
       x2="17.774033"
       y2="16.234594"
       gradientUnits="userSpaceOnUse"
       gradientTransform="matrix(1.3976172,0,0,1.3852631,-63.528036,241.33954)" />
    <linearGradient
       inkscape:collect="always"
       xlink:href="#linearGradient15303"
       id="linearGradient15309"
       x1="9.5811329"
       y1="29.063927"
       x2="2.0069747"
       y2="27.234833"
       gradientUnits="userSpaceOnUse"
       gradientTransform="matrix(1.6204463,0,0,1.6204496,-176.51646,170.32914)" />
    <linearGradient
       inkscape:collect="always"
       xlink:href="#linearGradient11647"
       id="linearGradient11653"
       x1="7.3827677"
       y1="14.600443"
       x2="17.471506"
       y2="12.922292"
       gradientUnits="userSpaceOnUse"
       gradientTransform="matrix(5.027478,1.3641957,-1.3471082,5.0912424,-222.98848,-112.55592)" />
    <linearGradient
       inkscape:collect="always"
       xlink:href="#linearGradient5739"
       id="linearGradient7996"
       gradientUnits="userSpaceOnUse"
       gradientTransform="matrix(4.5075159,-2.6024137,4.4838912,7.7663311,-331.43929,-154.04417)"
       x1="14.119801"
       y1="36.700962"
       x2="13.868892"
       y2="29.960438" />
    <linearGradient
       inkscape:collect="always"
       xlink:href="#linearGradient5739"
       id="linearGradient7994"
       gradientUnits="userSpaceOnUse"
       gradientTransform="matrix(4.5075159,-2.6024137,4.1706542,7.22378,-305.09657,-139.6461)"
       x1="14.045431"
       y1="37.57589"
       x2="14.045431"
       y2="29" />
    <linearGradient
       inkscape:collect="always"
       xlink:href="#linearGradient5739"
       id="linearGradient7992"
       gradientUnits="userSpaceOnUse"
       gradientTransform="matrix(4.5075159,-2.6024137,4.3901627,7.6039823,-341.12558,-139.59235)"
       x1="15.096997"
       y1="36.96777"
       x2="14.275211"
       y2="29.880215" />
    <linearGradient
       inkscape:collect="always"
       xlink:href="#linearGradient5739"
       id="linearGradient7990"
       gradientUnits="userSpaceOnUse"
       gradientTransform="matrix(4.5075159,-2.6024137,4.1532495,7.1936439,-320.24803,-129.92836)"
       x1="19.616243"
       y1="39.252983"
       x2="18.485983"
       y2="29.909071" />
    <linearGradient
       inkscape:collect="always"
       xlink:href="#linearGradient5739"
       id="linearGradient7988"
       gradientUnits="userSpaceOnUse"
       gradientTransform="matrix(4.5075159,-2.6024137,4.150803,7.1893968,-320.09058,-129.65563)"
       x1="9.1053896"
       y1="38.828144"
       x2="10.146956"
       y2="30.140831" />
    <linearGradient
       inkscape:collect="always"
       id="linearGradient5739">
      <stop
         style="stop-color:#c4a000;stop-opacity:1;"
         offset="0"
         id="stop5741" />
      <stop
         style="stop-color:#c4a000;stop-opacity:0;"
         offset="1"
         id="stop5743" />
    </linearGradient>
    <linearGradient
       id="linearGradient11647">
      <stop
         style="stop-color:#c17d10;stop-opacity:1;"
         offset="0"
         id="stop11649" />
      <stop
         style="stop-color:#9b650c;stop-opacity:1.0000000;"
         offset="1.0000000"
         id="stop11651" />
    </linearGradient>
    <linearGradient
       id="linearGradient15303">
      <stop
         style="stop-color:#b30000;stop-opacity:1;"
         offset="0"
         id="stop15305" />
      <stop
         id="stop15311"
         offset="0.5"
         style="stop-color:#ff5c5c;stop-opacity:1;" />
      <stop
         style="stop-color:#c30000;stop-opacity:1;"
         offset="1"
         id="stop15307" />
    </linearGradient>
    <linearGradient
       id="linearGradient8576">
      <stop
         style="stop-color:#dac203;stop-opacity:1.0000000;"
         offset="0.0000000"
         id="stop8578" />
      <stop
         id="stop8584"
         offset="0.50000000"
         style="stop-color:#fdec69;stop-opacity:1.0000000;" />
      <stop
         style="stop-color:#fdef7e;stop-opacity:1.0000000;"
         offset="1.0000000"
         id="stop8580" />
    </linearGradient>
    <linearGradient
       id="linearGradient9320">
      <stop
         id="stop9322"
         offset="0.0000000"
         style="stop-color:#fef088;stop-opacity:1.0000000;" />
      <stop
         style="stop-color:#fde63a;stop-opacity:1.0000000;"
         offset="0.50000000"
         id="stop9324" />
      <stop
         id="stop9326"
         offset="1.0000000"
         style="stop-color:#dac203;stop-opacity:1.0000000;" />
    </linearGradient>
    <inkscape:perspective
       sodipodi:type="inkscape:persp3d"
       inkscape:vp_x="0 : 24 : 1"
       inkscape:vp_y="0 : 1000 : 0"
       inkscape:vp_z="48 : 24 : 1"
       inkscape:persp3d-origin="24 : 16 : 1"
       id="perspective62" />
  </defs>
  <sodipodi:namedview
     id="base"
     pagecolor="#ffffff"
     bordercolor="#666666"
     borderopacity="1.0"
     inkscape:pageopacity="0.0"
     inkscape:pageshadow="2"
     inkscape:zoom="1"
     inkscape:cx="64"
     inkscape:cy="64"
     inkscape:document-units="px"
     inkscape:current-layer="layer1"
     inkscape:document-rotation="0"
     showgrid="false"
     units="px"
     inkscape:snap-grids="true"
     inkscape:snap-to-guides="false"
     inkscape:snap-global="true"
     inkscape:snap-intersection-paths="true"
     inkscape:object-nodes="true"
     inkscape:snap-others="true"
     inkscape:snap-bbox="true"
     inkscape:bbox-nodes="true"
     inkscape:window-width="1600"
     inkscape:window-height="837"
     inkscape:window-x="-8"
     inkscape:window-y="-8"
     inkscape:window-maximized="1"
     inkscape:snap-nodes="false"
     inkscape:snap-center="true"
     inkscape:snap-tangential="true"
     inkscape:snap-smooth-nodes="true"
     inkscape:object-paths="true"
     inkscape:snap-object-midpoints="true"
     inkscape:snap-bbox-edge-midpoints="false">
    <inkscape:grid
       type="xygrid"
       id="grid4267"
       spacingx="0.26458334"
       spacingy="0.26458334" />
  </sodipodi:namedview>
  <metadata
     id="metadata5">
    <rdf:RDF>
      <cc:Work
         rdf:about="">
        <dc:format>image/svg+xml</dc:format>
        <dc:type
           rdf:resource="http://purl.org/dc/dcmitype/StillImage" />
        <dc:title></dc:title>
      </cc:Work>
    </rdf:RDF>
  </metadata>
  <g
     inkscape:label="Layer 1"
     inkscape:groupmode="layer"
     id="layer1"
     transform="translate(0,-263.13333)">
    <circle
       r="0"
       cy="287.47495"
       cx="43.391666"
       id="ellipse4551"
       style="fill:#ffeeca;fill-opacity:1;stroke:none;stroke-width:0.37041599;stroke-linecap:round;paint-order:markers stroke fill" />
    <circle
       r="0"
       cy="287.47495"
       cx="43.391666"
       id="ellipse4553"
       style="fill:url(#linearGradient4549);fill-opacity:1;stroke:#000000;stroke-width:0.37041599;stroke-linecap:round;paint-order:markers stroke fill" />
    <path
       cx="4.7624998"
       cy="292.23749"
       r="2.1166666"
       style="fill:url(#linearGradient4623);fill-opacity:1;stroke:none;stroke-width:0.37041599;stroke-linecap:round;paint-order:markers stroke fill"
       id="path4625"
       d=""
       inkscape:connector-curvature="0" />
    <g
       id="g1828"
       transform="translate(-5.2930691,-0.05126716)">
      <path
         inkscape:connector-curvature="0"
         d="m 7.409736,264.24293 h 25.399999 v 31.75001 H 7.409736 Z"
         style="fill:url(#linearGradient1078);fill-opacity:1;stroke-width:0.50270802;stroke-linecap:round;stroke-linejoin:round;stroke-dasharray:1.00542, 1.00542;paint-order:markers fill stroke"
         id="rect982" />
      <path
         inkscape:connector-curvature="0"
         d="M 32.280569,277.47211 A 11.641667,11.641667 0 0 1 20.638902,289.11378 11.641667,11.641667 0 0 1 8.9972353,277.47211 11.641667,11.641667 0 0 1 20.638902,265.83044 11.641667,11.641667 0 0 1 32.280569,277.47211 Z"
         style="fill:#000000;fill-opacity:0.2;stroke:none;stroke-width:0.0264583;stroke-linecap:round;stroke-linejoin:round;stroke-miterlimit:4;stroke-dasharray:none;stroke-opacity:0.5;paint-order:markers fill stroke"
         id="path1094" />
      <g
         transform="matrix(1.375,0,0,1.375,-53.014485,-104.14686)"
         id="g1015">
        <path
           inkscape:connector-curvature="0"
           style="fill:url(#linearGradient4723);fill-opacity:1;stroke:none;stroke-width:0.740834;stroke-linecap:round;paint-order:markers stroke fill"
           d="m 49.399572,269.59286 a 8.4666664,8.4666639 0 0 0 -4.684986,7.56336 8.4666664,8.4666639 0 0 0 4.681885,7.5706 l 2.36678,-4.7346 a 3.1750002,3.1749992 0 0 1 -1.756998,-2.836 3.1750002,3.1749992 0 0 1 1.755965,-2.8391 z"
           id="circle4557" />
        <path
           style="fill:url(#linearGradient1200);fill-opacity:1;stroke:none;stroke-width:0.740834;stroke-linecap:round;paint-order:markers stroke fill"
           d="m 53.181252,268.68956 c -1.438656,0.001 -2.853275,0.36902 -4.110344,1.06866 l 2.570386,4.62608 c 0.470762,-0.26294 1.000738,-0.40166 1.539958,-0.40308 0.841802,6.8e-4 1.648882,0.33562 2.24379,0.9312 l 3.739308,-3.7393 c -1.58628,-1.58826 -3.73836,-2.48158 -5.983098,-2.48356 z"
           id="circle4629"
           inkscape:connector-curvature="0"
           sodipodi:nodetypes="ccccccc" />
        <path
           inkscape:connector-curvature="0"
           style="fill:url(#linearGradient1210);fill-opacity:1;stroke:none;stroke-width:0.740834;stroke-linecap:round;stroke-opacity:1;paint-order:markers stroke fill"
           d="m 59.16435,271.17312 -3.739306,3.7393 a 3.1750002,3.1749992 0 0 1 0.93121,2.2438 3.1750002,3.1749992 0 0 1 -3.175001,3.175 3.1750002,3.1749992 0 0 1 -1.418002,-0.339 l -2.363679,4.72736 a 8.4666664,8.4666639 0 0 0 3.781681,0.9033 8.4666664,8.4666639 0 0 0 8.466667,-8.46666 8.4666664,8.4666639 0 0 0 -2.48357,-5.9831 z"
           id="circle1147" />
        <path
           inkscape:connector-curvature="0"
           style="fill:#ffffff;fill-opacity:0.23766803;stroke:none;stroke-width:0.3175;stroke-linecap:round;stroke-miterlimit:4;stroke-dasharray:none;stroke-opacity:1;paint-order:markers stroke fill"
           d="m 45.786387,273.05024 a 8.466666,8.4666635 0 0 0 -1.060459,3.9634 l 5.285866,0.0892 a 3.1749998,3.1749988 0 0 1 0.395132,-1.48602 z m 10.564323,4.15928 a 3.1749998,3.1749988 0 0 1 -0.396922,1.48706 l 4.62233,2.56562 a 8.466666,8.4666635 0 0 0 1.060482,-3.96336 z"
           id="path4595" />
        <path
           inkscape:connector-curvature="0"
           style="fill:#ffffff;fill-opacity:0.23766803;stroke:none;stroke-width:0.3175;stroke-linecap:round;stroke-miterlimit:4;stroke-dasharray:none;stroke-opacity:1;paint-order:markers stroke fill"
           d="m 45.483724,273.65462 a 8.466666,8.4666635 0 0 0 -0.724144,2.68558 l 5.263902,0.51012 a 3.1749998,3.1749988 0 0 1 0.271132,-1.00626 z m 10.8553,3.8075 a 3.1749998,3.1749988 0 0 1 -0.271132,1.00626 l 4.81089,2.18944 a 8.466666,8.4666635 0 0 0 0.724142,-2.68558 z"
           id="path4593" />
        <path
           inkscape:connector-curvature="0"
           style="fill:#ffffff;fill-opacity:0.23766803;stroke:none;stroke-width:0.3175;stroke-linecap:round;stroke-miterlimit:4;stroke-dasharray:none;stroke-opacity:1;paint-order:markers stroke fill"
           d="m 45.221201,274.29546 a 8.466666,8.4666635 0 0 0 -0.372375,1.35596 l 5.207354,0.94132 a 3.1749998,3.1749988 0 0 1 0.140812,-0.50848 z m 11.085145,3.42428 a 3.1749998,3.1749988 0 0 1 -0.14082,0.50848 l 4.975768,1.78876 a 8.466666,8.4666635 0 0 0 0.3724,-1.35592 z"
           id="path4597" />
        <path
           inkscape:connector-curvature="0"
           d="m 56.356252,277.15625 a 3.1750002,3.1749992 0 0 1 -3.175,3.175 3.1750002,3.1749992 0 0 1 -3.175001,-3.175 3.1750002,3.1749992 0 0 1 3.175001,-3.175 3.1750002,3.1749992 0 0 1 3.175,3.175"
           style="fill:none;fill-opacity:1;stroke:#000000;stroke-width:0.740834;stroke-linecap:butt;stroke-linejoin:miter;stroke-miterlimit:4;stroke-dasharray:none;stroke-opacity:0.5;paint-order:markers fill stroke"
           id="circle1165" />
        <path
           inkscape:connector-curvature="0"
           id="path1081"
           style="fill:url(#linearGradient1531);fill-opacity:1;stroke:none;stroke-width:0.740834;stroke-linecap:butt;stroke-linejoin:miter;stroke-miterlimit:4;stroke-dasharray:none;stroke-opacity:1;paint-order:markers fill stroke"
           d="m 56.356252,277.15625 a 3.1750002,3.1749992 0 0 1 -3.175,3.175 3.1750002,3.1749992 0 0 1 -3.175001,-3.175 3.1750002,3.1749992 0 0 1 3.175001,-3.175 3.1750002,3.1749992 0 0 1 3.175,3.175" />
      </g>
      <path
         inkscape:connector-curvature="0"
         sodipodi:nodetypes="cccccc"
         id="path1062"
         d="m 7.4097358,287.52628 h 3.1750002 l 7.408333,5.29166 v 3.175 H 7.4097358 Z"
         style="fill:url(#linearGradient1070);fill-opacity:1;stroke:none;stroke-width:0.26458299px;stroke-linecap:butt;stroke-linejoin:miter;stroke-opacity:1" />
      <path
         inkscape:connector-curvature="0"
         d="m 21.16807,276.94294 a 1.0583334,1.0583334 0 0 1 -1.058334,1.05834 1.0583334,1.0583334 0 0 1 -1.058333,-1.05834 1.0583334,1.0583334 0 0 1 1.058333,-1.05833 1.0583334,1.0583334 0 0 1 1.058334,1.05833 z"
         style="fill:#000000;fill-opacity:1;stroke:none;stroke-width:0.0264583;stroke-linecap:round;stroke-linejoin:round;stroke-miterlimit:4;stroke-dasharray:none;stroke-opacity:0.5;paint-order:markers fill stroke"
         id="path1083" />
      <path
         inkscape:connector-curvature="0"
         id="path1100"
         style="fill:#000000;fill-opacity:0.2;stroke-width:0.50270802;stroke-linecap:round;stroke-linejoin:round;stroke-dasharray:1.00542, 1.00542;paint-order:markers fill stroke"
         d="m 11.082305,290.47417 c -1.002003,0.60213 -1.3261649,1.90253 -0.724036,2.90453 0.602128,1.00201 1.902533,1.32617 2.904535,0.72404 0.06728,-0.0406 0.132253,-0.0849 0.194615,-0.13263 l 11.282757,-8.62072 c 0.213978,-0.16356 0.270963,-0.46174 0.13238,-0.69268 -0.138745,-0.23108 -0.429,-0.32094 -0.674042,-0.2087 l -12.893221,5.90964 c -0.07657,0.0344 -0.151035,0.0733 -0.222988,0.11652 z"
         sodipodi:nodetypes="csccccccc" />
      <g
         inkscape:transform-center-y="-2.885802"
         transform="rotate(-31.002709,8.23939,286.5368)"
         inkscape:transform-center-x="-5.3292424"
         id="g1047">
        <path
           inkscape:connector-curvature="0"
           id="path1017"
           style="fill:url(#linearGradient1040);fill-opacity:1;stroke-width:1.89999998;stroke-linecap:round;stroke-linejoin:round;stroke-dasharray:3.80001, 3.80001;paint-order:markers fill stroke"
           d="m 32,104 c -4.418278,0 -8,3.58172 -8,8 0,4.41828 3.581722,8 8,8 0.296937,-4.2e-4 0.59362,-0.0174 0.888672,-0.0508 l 53.333984,-5.96289 C 87.234265,113.87301 87.99937,113.01794 88,112 c 3.63e-4,-1.01868 -0.764995,-1.87487 -1.777344,-1.98828 L 32.949219,104.05664 C 32.634216,104.01896 32.31725,104.00004 32,104 Z"
           transform="matrix(0.26458334,0,0,0.26458334,0,263.13333)"
           sodipodi:nodetypes="csccccccc" />
        <path
           inkscape:connector-curvature="0"
           id="path1030"
           style="fill:#f7f7f7;fill-opacity:1;stroke:none;stroke-width:0.0264583;stroke-linecap:round;stroke-linejoin:round;stroke-miterlimit:4;stroke-dasharray:none;stroke-opacity:1;paint-order:markers fill stroke"
           d="m 8.9958339,292.76666 a 0.5291667,0.5291667 0 0 1 -0.5291667,0.52917 0.5291667,0.5291667 0 0 1 -0.5291667,-0.52917 0.5291667,0.5291667 0 0 1 0.5291667,-0.52916 0.5291667,0.5291667 0 0 1 0.5291667,0.52916 z" />
        <path
           inkscape:connector-curvature="0"
           id="path1032"
           style="fill:#cc003f;fill-opacity:1;stroke:none;stroke-width:0.0264583;stroke-linecap:round;stroke-linejoin:round;stroke-miterlimit:4;stroke-dasharray:none;stroke-opacity:1;paint-order:markers fill stroke"
           d="m 23.018751,292.76666 a 0.26458335,0.26458335 0 0 1 -0.264583,0.26459 0.26458335,0.26458335 0 0 1 -0.264584,-0.26459 0.26458335,0.26458335 0 0 1 0.264584,-0.26458 0.26458335,0.26458335 0 0 1 0.264583,0.26458 z" />
      </g>
    </g>
    <g
       id="g1808"
       transform="matrix(-0.48801121,0,0,0.50533882,5.6249079,144.31564)">
      <path
         inkscape:connector-curvature="0"
         id="path7966"
         transform="matrix(0.26458334,0,0,0.26458334,0,263.13333)"
         d="m -195.15625,-74.185547 c -2.50732,0.0861 -4.97381,0.656287 -7.22461,1.798828 -8.82509,4.479723 -10.16155,19.072761 -5.55078,27.160157 l 30.80273,43.4882808 c 4.61078,8.0874707 13.3489,11.6598065 19.5918,8.0097656 6.24291,-3.6500409 7.55804,-13.0981895 2.94727,-21.1855464 l -21.70508,-49.367188 c -3.45808,-6.065008 -11.33936,-10.162599 -18.86133,-9.904297 z m 1.19336,9.326172 a 6.7498144,6.7498144 0 0 1 1.80859,0.230469 6.7498144,6.7498144 0 0 1 4.77149,8.265625 6.7498144,6.7498144 0 0 1 -8.26563,4.773437 6.7498144,6.7498144 0 0 1 -4.77344,-8.267578 6.7498144,6.7498144 0 0 1 6.45899,-5.001953 z"
         style="fill:url(#linearGradient11653);fill-opacity:1;fill-rule:evenodd;stroke:none;stroke-width:5.23772717;stroke-linecap:round;stroke-linejoin:miter;stroke-miterlimit:4;stroke-dashoffset:0;stroke-opacity:1" />
      <path
         sodipodi:nodetypes="ccccc"
         id="path7968"
         d="m -42.716388,272.92185 c -1.095484,5.90345 0.873042,19.21414 8.619657,27.12081 5.985961,0.19458 19.265902,-4.70652 28.2735881,-14.04244 C -18.542379,279.78021 -27.218662,264.34794 -33.964821,267.7085 Z"
         style="fill:url(#radialGradient9318);fill-opacity:1;fill-rule:evenodd;stroke:none;stroke-width:1.37711132;stroke-linecap:butt;stroke-linejoin:miter;stroke-miterlimit:4;stroke-dasharray:none;stroke-opacity:1"
         inkscape:connector-curvature="0" />
      <path
         inkscape:connector-curvature="0"
         id="path7972"
         transform="matrix(0.26458334,0,0,0.26458334,0,263.13333)"
         d="m -153.28516,42.546875 a 2.6026737,2.6026737 0 0 0 -2.49414,3.550781 c 11.46732,30.609917 14.6683,65.740504 36.63672,92.773434 1.885,-0.26497 3.86832,-0.61498 5.92969,-1.04101 -22.41589,-25.78681 -25.53558,-61.117344 -37.6875,-93.554689 a 2.6026737,2.6026737 0 0 0 -2.38477,-1.728516 z"
         style="color:#000000;font-style:normal;font-variant:normal;font-weight:normal;font-stretch:normal;font-size:medium;line-height:normal;font-family:sans-serif;font-variant-ligatures:normal;font-variant-position:normal;font-variant-caps:normal;font-variant-numeric:normal;font-variant-alternates:normal;font-feature-settings:normal;text-indent:0;text-align:start;text-decoration:none;text-decoration-line:none;text-decoration-style:solid;text-decoration-color:#000000;letter-spacing:normal;word-spacing:normal;text-transform:none;writing-mode:lr-tb;direction:ltr;text-orientation:mixed;dominant-baseline:auto;baseline-shift:baseline;text-anchor:start;white-space:normal;shape-padding:0;clip-rule:nonzero;display:inline;overflow:visible;visibility:visible;opacity:1;isolation:auto;mix-blend-mode:normal;color-interpolation:sRGB;color-interpolation-filters:linearRGB;solid-color:#000000;solid-opacity:1;vector-effect:none;fill:url(#linearGradient7988);fill-opacity:1;fill-rule:nonzero;stroke:none;stroke-width:5.20482683;stroke-linecap:round;stroke-linejoin:miter;stroke-miterlimit:4;stroke-dasharray:none;stroke-dashoffset:0;stroke-opacity:1;color-rendering:auto;image-rendering:auto;shape-rendering:auto;text-rendering:auto;enable-background:accumulate" />
      <path
         sodipodi:nodetypes="ccccc"
         id="path7970"
         d="m -41.149329,273.77643 c -1.256053,0.69971 -0.22086,17.24172 7.690135,24.78849 10.17132,-0.25737 21.377874,-8.80825 25.3291292,-12.17069 -13.0817462,-8.24079 -20.5531042,-20.32859 -25.4500922,-17.31521 z"
         style="opacity:0.46153846;fill:none;stroke:none;stroke-width:1.37711024;stroke-linecap:butt;stroke-linejoin:miter;stroke-miterlimit:4;stroke-dasharray:none;stroke-opacity:1"
         inkscape:connector-curvature="0" />
      <path
         inkscape:connector-curvature="0"
         id="path7974"
         transform="matrix(0.26458334,0,0,0.26458334,0,263.13333)"
         d="m -113.51367,31.423828 c -0.82275,0.02982 -1.74488,0.290471 -2.44141,0.892578 a 2.6026733,2.6026733 0 0 0 2.67188,4.398438 c 0.11981,0.04158 0.20386,0.05554 0.53906,0.24414 0.97378,0.548032 2.56891,1.761765 4.51758,3.46875 3.89733,3.413934 9.341504,8.812568 16.152341,15.369141 13.03296,12.546443 31.146761,29.359179 53.935547,45.250005 1.404743,-1.121428 2.793927,-2.269092 4.169922,-3.437505 -22.992569,-15.88395 -41.295696,-32.854894 -54.496094,-45.5625 -6.778972,-6.525921 -12.203976,-11.919598 -16.335936,-15.539063 -2.06598,-1.809751 -3.77809,-3.175624 -5.38867,-4.082031 -0.8053,-0.453203 -1.58536,-0.811205 -2.54688,-0.958984 -0.24038,-0.03694 -0.50309,-0.05291 -0.77734,-0.04297 z"
         style="color:#000000;font-style:normal;font-variant:normal;font-weight:normal;font-stretch:normal;font-size:medium;line-height:normal;font-family:sans-serif;font-variant-ligatures:normal;font-variant-position:normal;font-variant-caps:normal;font-variant-numeric:normal;font-variant-alternates:normal;font-feature-settings:normal;text-indent:0;text-align:start;text-decoration:none;text-decoration-line:none;text-decoration-style:solid;text-decoration-color:#000000;letter-spacing:normal;word-spacing:normal;text-transform:none;writing-mode:lr-tb;direction:ltr;text-orientation:mixed;dominant-baseline:auto;baseline-shift:baseline;text-anchor:start;white-space:normal;shape-padding:0;clip-rule:nonzero;display:inline;overflow:visible;visibility:visible;opacity:1;isolation:auto;mix-blend-mode:normal;color-interpolation:sRGB;color-interpolation-filters:linearRGB;solid-color:#000000;solid-opacity:1;vector-effect:none;fill:url(#linearGradient7990);fill-opacity:1;fill-rule:nonzero;stroke:none;stroke-width:5.20482588;stroke-linecap:round;stroke-linejoin:miter;stroke-miterlimit:4;stroke-dasharray:none;stroke-dashoffset:0;stroke-opacity:1;color-rendering:auto;image-rendering:auto;shape-rendering:auto;text-rendering:auto;enable-background:accumulate" />
      <path
         inkscape:connector-curvature="0"
         id="path7976"
         transform="matrix(0.26458334,0,0,0.26458334,0,263.13333)"
         d="m -144.70703,34.730469 a 2.6026746,2.6026746 0 0 0 -2.06055,4.11914 c 9.31829,13.422766 14.07687,30.335647 20.28711,47.796875 5.80306,16.316406 12.95334,33.122346 26.701173,47.609376 1.798499,-0.57388 3.623787,-1.18524 5.484375,-1.85156 -14.108688,-14.07194 -21.312328,-30.70629 -27.285158,-47.500003 -6.13068,-17.237556 -10.90065,-34.613422 -20.9043,-49.023438 a 2.6026746,2.6026746 0 0 0 -2.22265,-1.15039 z"
         style="color:#000000;font-style:normal;font-variant:normal;font-weight:normal;font-stretch:normal;font-size:medium;line-height:normal;font-family:sans-serif;font-variant-ligatures:normal;font-variant-position:normal;font-variant-caps:normal;font-variant-numeric:normal;font-variant-alternates:normal;font-feature-settings:normal;text-indent:0;text-align:start;text-decoration:none;text-decoration-line:none;text-decoration-style:solid;text-decoration-color:#000000;letter-spacing:normal;word-spacing:normal;text-transform:none;writing-mode:lr-tb;direction:ltr;text-orientation:mixed;dominant-baseline:auto;baseline-shift:baseline;text-anchor:start;white-space:normal;shape-padding:0;clip-rule:nonzero;display:inline;overflow:visible;visibility:visible;opacity:1;isolation:auto;mix-blend-mode:normal;color-interpolation:sRGB;color-interpolation-filters:linearRGB;solid-color:#000000;solid-opacity:1;vector-effect:none;fill:url(#linearGradient7992);fill-opacity:1;fill-rule:nonzero;stroke:none;stroke-width:5.20482874;stroke-linecap:round;stroke-linejoin:miter;stroke-miterlimit:4;stroke-dasharray:none;stroke-dashoffset:0;stroke-opacity:1;color-rendering:auto;image-rendering:auto;shape-rendering:auto;text-rendering:auto;enable-background:accumulate" />
      <path
         inkscape:connector-curvature="0"
         id="path7978"
         transform="matrix(0.26458334,0,0,0.26458334,0,263.13333)"
         d="m -118.75195,34.271484 a 2.6027603,2.6027603 0 0 0 -2.18555,4.046875 c 0,0 11.5432,17.774707 25.054688,36.886719 6.755742,9.556006 14.005737,19.452043 20.580078,27.660152 4.843606,6.04729 9.209883,11.13015 12.990234,14.6211 1.577953,-0.91129 3.153365,-1.84253 4.726562,-2.8086 -3.416939,-2.97849 -8.340013,-8.43099 -13.65625,-15.068355 -6.465267,-8.071937 -13.668668,-17.902767 -20.388671,-27.408203 -13.440001,-19.01091 -24.937501,-36.71875 -24.937501,-36.71875 a 2.6027603,2.6027603 0 0 0 -2.18359,-1.210938 z"
         style="color:#000000;font-style:normal;font-variant:normal;font-weight:normal;font-stretch:normal;font-size:medium;line-height:normal;font-family:sans-serif;font-variant-ligatures:normal;font-variant-position:normal;font-variant-caps:normal;font-variant-numeric:normal;font-variant-alternates:normal;font-feature-settings:normal;text-indent:0;text-align:start;text-decoration:none;text-decoration-line:none;text-decoration-style:solid;text-decoration-color:#000000;letter-spacing:normal;word-spacing:normal;text-transform:none;writing-mode:lr-tb;direction:ltr;text-orientation:mixed;dominant-baseline:auto;baseline-shift:baseline;text-anchor:start;white-space:normal;shape-padding:0;clip-rule:nonzero;display:inline;overflow:visible;visibility:visible;opacity:1;isolation:auto;mix-blend-mode:normal;color-interpolation:sRGB;color-interpolation-filters:linearRGB;solid-color:#000000;solid-opacity:1;vector-effect:none;fill:url(#linearGradient7994);fill-opacity:1;fill-rule:nonzero;stroke:none;stroke-width:5.20499992;stroke-linecap:round;stroke-linejoin:miter;stroke-miterlimit:4;stroke-dasharray:none;stroke-dashoffset:0;stroke-opacity:1;color-rendering:auto;image-rendering:auto;shape-rendering:auto;text-rendering:auto;enable-background:accumulate" />
      <path
         inkscape:connector-curvature="0"
         id="path7980"
         transform="matrix(0.26458334,0,0,0.26458334,0,263.13333)"
         d="m -137.9082,31.283203 a 2.6026742,2.6026742 0 0 0 -1.69727,4.613281 c 8.17538,6.917632 20.66537,26.56132 32.33203,46.38086 10.076691,17.118498 19.653056,34.345336 26.681643,44.580076 1.591102,-0.7161 3.188792,-1.45506 4.796875,-2.23047 -6.624505,-9.55103 -16.636927,-27.397905 -26.990238,-44.986325 -11.71265,-19.897701 -23.68865,-39.452898 -33.45507,-47.716797 a 2.6026742,2.6026742 0 0 0 -1.66797,-0.640625 z"
         style="color:#000000;font-style:normal;font-variant:normal;font-weight:normal;font-stretch:normal;font-size:medium;line-height:normal;font-family:sans-serif;font-variant-ligatures:normal;font-variant-position:normal;font-variant-caps:normal;font-variant-numeric:normal;font-variant-alternates:normal;font-feature-settings:normal;text-indent:0;text-align:start;text-decoration:none;text-decoration-line:none;text-decoration-style:solid;text-decoration-color:#000000;letter-spacing:normal;word-spacing:normal;text-transform:none;writing-mode:lr-tb;direction:ltr;text-orientation:mixed;dominant-baseline:auto;baseline-shift:baseline;text-anchor:start;white-space:normal;shape-padding:0;clip-rule:nonzero;display:inline;overflow:visible;visibility:visible;opacity:1;isolation:auto;mix-blend-mode:normal;color-interpolation:sRGB;color-interpolation-filters:linearRGB;solid-color:#000000;solid-opacity:1;vector-effect:none;fill:url(#linearGradient7996);fill-opacity:1;fill-rule:nonzero;stroke:none;stroke-width:5.20482779;stroke-linecap:round;stroke-linejoin:miter;stroke-miterlimit:4;stroke-dasharray:none;stroke-dashoffset:0;stroke-opacity:1;color-rendering:auto;image-rendering:auto;shape-rendering:auto;text-rendering:auto;enable-background:accumulate" />
      <path
         sodipodi:nodetypes="ccccc"
         id="path7982"
         d="m -51.353491,266.40578 15.783988,-9.03234 c 0.824407,3.28106 -0.470752,4.46264 2.473222,9.84319 l -9.707108,6.23368 c -2.001531,-4.78879 -6.095481,-4.69635 -8.550102,-7.04453 z"
         style="fill:url(#linearGradient8582);fill-opacity:1;fill-rule:evenodd;stroke:none;stroke-width:1.39142621;stroke-linecap:round;stroke-linejoin:round;stroke-miterlimit:4;stroke-dasharray:none;stroke-dashoffset:0;stroke-opacity:1"
         inkscape:connector-curvature="0" />
      <rect
         transform="matrix(0.86602487,-0.50000093,0.49999974,0.86602556,0,0)"
         ry="1.3771086"
         rx="1.3771071"
         y="211.05617"
         x="-174.96573"
         height="4.5843697"
         width="13.969729"
         id="rect7984"
         style="fill:url(#linearGradient15309);fill-opacity:1;fill-rule:evenodd;stroke:none;stroke-width:1.37710834;stroke-linecap:round;stroke-linejoin:miter;stroke-miterlimit:4;stroke-dasharray:none;stroke-dashoffset:0;stroke-opacity:1" />
      <path
         sodipodi:nodetypes="cccc"
         id="path3558"
         d="m -24.71259,298.10044 c 0,0 2.074733,-0.68945 2.996728,-1.2969 -1.704088,-2.67785 -4.686777,-8.11898 -7.440703,-12.22312 1.643228,9.00731 4.443975,13.52002 4.443975,13.52002 z"
         style="opacity:0.31730772;fill:#ffffff;fill-opacity:1;fill-rule:evenodd;stroke:none;stroke-width:1.3771106"
         inkscape:connector-curvature="0" />
      <path
         sodipodi:nodetypes="cccc"
         id="path3560"
         d="m -20.020814,296.03895 2.790023,-1.4944 c -2.677852,-2.55613 -10.284946,-13.93071 -10.284946,-13.93071 z"
         style="opacity:0.31730772;fill:#ffffff;fill-opacity:1;fill-rule:evenodd;stroke:none;stroke-width:1.3771106"
         inkscape:connector-curvature="0" />
      <path
         sodipodi:nodetypes="cccc"
         id="path3562"
         d="m -13.800795,292.36143 3.355151,-2.40134 c -4.381939,-1.82581 -15.955946,-13.60647 -15.955946,-13.60647 3.281565,4.14771 9.31923,11.86009 12.600795,16.00781 z"
         style="opacity:0.31730772;fill:#ffffff;fill-opacity:1;fill-rule:evenodd;stroke:none;stroke-width:1.3771106"
         inkscape:connector-curvature="0" />
      <path
         sodipodi:nodetypes="cccc"
         id="path3565"
         d="m -8.9875653,288.95914 2.3305033,-1.94105 c -4.56452,-2.06925 -17.207929,-13.64995 -17.207929,-13.64995 0,0 8.365378,12.6697 14.8774257,15.591 z"
         style="opacity:0.31730772;fill:#ffffff;fill-opacity:1;fill-rule:evenodd;stroke:none;stroke-width:1.3771106"
         inkscape:connector-curvature="0" />
      <path
         style="opacity:0.31730766;fill:#ffffff;fill-opacity:1;fill-rule:evenodd;stroke:none;stroke-width:1.3771106"
         d="m -29.337971,299.50023 c 0,0 1.519418,-0.33539 2.684854,-0.57768 -2.008389,-1.70409 -5.105227,-6.16036 -6.885387,-11.90772 0.730324,9.4942 4.200533,12.4854 4.200533,12.4854 z"
         id="path2265"
         sodipodi:nodetypes="cccc"
         inkscape:connector-curvature="0" />
      <path
         sodipodi:nodetypes="ccccc"
         id="path2267"
         d="m -33.47647,300.04797 1.718662,-0.0188 c -3.164734,-3.46905 -4.747818,-7.20221 -6.52798,-12.767 -0.182579,6.45119 4.809318,12.78582 4.809318,12.78582 z"
         style="opacity:0.31730766;fill:#ffffff;fill-opacity:1;fill-rule:evenodd;stroke:none;stroke-width:1.3771106"
         inkscape:connector-curvature="0" />
    </g>
  </g>
</svg>
