<?xml version="1.0" encoding="UTF-8" standalone="no"?>
<svg
   xmlns:dc="http://purl.org/dc/elements/1.1/"
   xmlns:cc="http://creativecommons.org/ns#"
   xmlns:rdf="http://www.w3.org/1999/02/22-rdf-syntax-ns#"
   xmlns:svg="http://www.w3.org/2000/svg"
   xmlns="http://www.w3.org/2000/svg"
   xmlns:xlink="http://www.w3.org/1999/xlink"
   xmlns:sodipodi="http://sodipodi.sourceforge.net/DTD/sodipodi-0.dtd"
   xmlns:inkscape="http://www.inkscape.org/namespaces/inkscape"
   width="128"
   height="128"
   viewBox="0 0 33.866666 33.866668"
   version="1.1"
   id="svg8"
   inkscape:version="1.0 (4035a4fb49, 2020-05-01)"
   sodipodi:docname="bluefish.svg">
  <defs
     id="defs2">
    <linearGradient
       id="linearGradient1003"
       inkscape:collect="always">
      <stop
         id="stop999"
         offset="0"
         style="stop-color:#c8ab37;stop-opacity:1;" />
      <stop
         id="stop1001"
         offset="1"
         style="stop-color:#ffe680;stop-opacity:1" />
    </linearGradient>
    <linearGradient
       id="linearGradient4381"
       inkscape:collect="always">
      <stop
         id="stop4377"
         offset="0"
         style="stop-color:#fafafa;stop-opacity:0" />
      <stop
         id="stop4379"
         offset="1"
         style="stop-color:#252525;stop-opacity:0.65022421" />
    </linearGradient>
    <linearGradient
       inkscape:collect="always"
       xlink:href="#linearGradient4381"
       id="linearGradient4385"
       gradientUnits="userSpaceOnUse"
       gradientTransform="matrix(4,0,0,4,-32.918811,-875.69414)"
       x1="13.6755"
       y1="290.15854"
       x2="13.042861"
       y2="291.61517" />
    <linearGradient
       id="linearGradient4537"
       inkscape:collect="always">
      <stop
         id="stop4533"
         offset="0"
         style="stop-color:#ffffff;stop-opacity:1;" />
      <stop
         style="stop-color:#ffffff;stop-opacity:1"
         offset="0.58333331"
         id="stop4541" />
      <stop
         id="stop4543"
         offset="0.83333331"
         style="stop-color:#bababa;stop-opacity:1;" />
      <stop
         id="stop4535"
         offset="1"
         style="stop-color:#757575;stop-opacity:1" />
    </linearGradient>
    <linearGradient
       gradientTransform="matrix(4,0,0,4,5.2916666,-893.11669)"
       gradientUnits="userSpaceOnUse"
       y2="295.41251"
       x2="5.0270834"
       y1="292.50208"
       x1="0.79374999"
       id="linearGradient4539"
       xlink:href="#linearGradient4537"
       inkscape:collect="always" />
    <inkscape:path-effect
       effect="envelope"
       id="path-effect5466"
       is_visible="true"
       yy="true"
       xx="true"
       bendpath1="M 6.3499996,10.583333 H 27.516667"
       bendpath2="M 27.516667,10.583333 V 32.279167"
       bendpath3="M 6.3499996,32.279167 H 27.516667"
       bendpath4="M 6.3499996,10.583333 V 32.279167" />
    <inkscape:path-effect
       effect="bounding_box"
       id="path-effect1760"
       is_visible="true"
       linkedpath=""
       visualbounds="false" />
    <inkscape:path-effect
       effect="lattice2"
       gridpoint0="6.3499996,10.583333"
       gridpoint1="27.516667,10.583333"
       gridpoint2="6.3499996,32.279167"
       gridpoint3="27.516667,32.279167"
       gridpoint4="11.641666,10.583333"
       gridpoint5="22.225,10.583333"
       gridpoint6="11.641666,32.279167"
       gridpoint7="22.225,32.279167"
       gridpoint8x9="16.933333,10.583333"
       gridpoint10x11="16.933333,32.279167"
       gridpoint12="6.4026146,16.232186"
       gridpoint13="27.464052,16.232186"
       gridpoint14="6.4026146,26.630314"
       gridpoint15="27.464052,26.630314"
       gridpoint16="11.641666,16.007292"
       gridpoint17="22.225,16.007292"
       gridpoint18="11.641666,26.855208"
       gridpoint19="22.225,26.855208"
       gridpoint20x21="16.933333,16.007292"
       gridpoint22x23="16.933333,26.855208"
       gridpoint24x26="6.3499996,21.43125"
       gridpoint25x27="27.516667,21.43125"
       gridpoint28x30="11.641666,21.43125"
       gridpoint29x31="22.225,21.43125"
       gridpoint32x33x34x35="16.933333,21.43125"
       id="path-effect1758"
       is_visible="true"
       horizontal_mirror="true"
       vertical_mirror="false"
       live_update="true" />
    <linearGradient
       id="linearGradient944"
       inkscape:collect="always">
      <stop
         id="stop940"
         offset="0"
         style="stop-color:#000000;stop-opacity:0" />
      <stop
         style="stop-opacity:0.18775511;stop-color:#000000"
         offset="0.52532852"
         id="stop948" />
      <stop
         id="stop942"
         offset="1"
         style="stop-color:#000000;stop-opacity:0" />
    </linearGradient>
    <linearGradient
       inkscape:collect="always"
       id="linearGradient915">
      <stop
         style="stop-color:#ececb9;stop-opacity:1"
         offset="0"
         id="stop911" />
      <stop
         style="stop-color:#e8e8a6;stop-opacity:1"
         offset="1"
         id="stop913" />
    </linearGradient>
    <linearGradient
       gradientTransform="translate(-4.2333336,-2.1166739)"
       gradientUnits="userSpaceOnUse"
       y2="295.76529"
       x2="27.435257"
       y1="276.00974"
       x1="27.435257"
       id="linearGradient1080"
       xlink:href="#linearGradient915"
       inkscape:collect="always" />
    <radialGradient
       r="9.8558626"
       fy="283.69327"
       fx="23.153114"
       cy="283.69327"
       cx="23.153114"
       gradientTransform="matrix(1.1172666,-0.00434428,0.00672311,1.767692,-16.833927,-219.11462)"
       gradientUnits="userSpaceOnUse"
       id="radialGradient960"
       xlink:href="#linearGradient944"
       inkscape:collect="always" />
    <linearGradient
       y2="295.76529"
       x2="27.435257"
       y1="276.00974"
       x1="27.435257"
       gradientTransform="matrix(0.86666667,0,0,0.85714318,-2.6105552,39.253457)"
       gradientUnits="userSpaceOnUse"
       id="linearGradient965"
       xlink:href="#linearGradient915"
       inkscape:collect="always" />
    <linearGradient
       gradientUnits="userSpaceOnUse"
       y2="289.7182"
       x2="-1.3459373"
       y1="269.83994"
       x1="-17.497013"
       id="linearGradient1005"
       xlink:href="#linearGradient1003"
       inkscape:collect="always" />
    <linearGradient
       id="linearGradient604">
      <stop
         id="stop605"
         style="stop-color:#000000;stop-opacity:0.239216"
         offset="0" />
      <stop
         id="stop606"
         style="stop-color:#000000;stop-opacity:0"
         offset="1" />
    </linearGradient>
    <linearGradient
       id="linearGradient641">
      <stop
         id="stop642"
         style="stop-color:#000000;stop-opacity:0.41568601"
         offset="0" />
      <stop
         id="stop643"
         style="stop-color:#000000;stop-opacity:0"
         offset="1" />
    </linearGradient>
    <linearGradient
       id="linearGradient635">
      <stop
         id="stop636"
         style="stop-color:#ffffff;stop-opacity:1"
         offset="0" />
      <stop
         id="stop637"
         style="stop-color:#ffffff;stop-opacity:0.17647099"
         offset="1" />
    </linearGradient>
    <linearGradient
       id="linearGradient564">
      <stop
         id="stop565"
         style="stop-color:#3278c6;stop-opacity:1"
         offset="0" />
      <stop
         id="stop566"
         style="stop-color:#264980;stop-opacity:1"
         offset="1" />
    </linearGradient>
    <linearGradient
       id="linearGradient561">
      <stop
         id="stop562"
         style="stop-color:#72a6db;stop-opacity:1"
         offset="0" />
      <stop
         id="stop563"
         style="stop-color:#4974aa;stop-opacity:1"
         offset="1" />
    </linearGradient>
    <linearGradient
       id="linearGradient556">
      <stop
         id="stop557"
         style="stop-color:#ffffff;stop-opacity:1"
         offset="0" />
      <stop
         id="stop558"
         style="stop-color:#8f8f8f;stop-opacity:1"
         offset="1" />
    </linearGradient>
    <radialGradient
       cx="24.218475"
       cy="13.491528"
       r="10.214344"
       fx="24.218475"
       fy="13.491528"
       id="radialGradient3416"
       xlink:href="#linearGradient556"
       gradientUnits="userSpaceOnUse"
       gradientTransform="matrix(0.67335767,0,0,0.85464362,-13.312512,-26.98315)"
       spreadMethod="pad" />
    <radialGradient
       cx="31.637579"
       cy="4.2911568"
       r="6.1138387"
       fx="31.637579"
       fy="4.2911568"
       id="radialGradient3418"
       xlink:href="#linearGradient561"
       gradientUnits="userSpaceOnUse"
       gradientTransform="matrix(0.80511889,0,0,0.7147767,-20.766035,-19.660047)"
       spreadMethod="pad" />
    <linearGradient
       x1="66.896873"
       y1="9.7092857"
       x2="68.416641"
       y2="18.198601"
       id="linearGradient3420"
       xlink:href="#linearGradient561"
       gradientUnits="userSpaceOnUse"
       gradientTransform="matrix(0.43840653,0,0,1.3126639,-2.452128,-26.817972)"
       spreadMethod="pad" />
    <linearGradient
       x1="42.007587"
       y1="5.4559503"
       x2="56.888985"
       y2="14.642175"
       id="linearGradient3422"
       xlink:href="#linearGradient635"
       gradientUnits="userSpaceOnUse"
       gradientTransform="matrix(0.4954642,0,0,1.1614975,-2.452128,-26.817972)"
       spreadMethod="pad" />
    <radialGradient
       cx="15.485512"
       cy="16.134611"
       r="27.532124"
       fx="15.485512"
       fy="16.134611"
       id="radialGradient3424"
       xlink:href="#linearGradient564"
       gradientUnits="userSpaceOnUse"
       gradientTransform="matrix(0.75316891,0,0,0.76407916,-2.452128,-26.817972)"
       spreadMethod="pad" />
    <linearGradient
       x1="40.970566"
       y1="41.885136"
       x2="23.98053"
       y2="21.709469"
       id="linearGradient3426"
       xlink:href="#linearGradient604"
       gradientUnits="userSpaceOnUse"
       gradientTransform="matrix(0.75316891,0,0,0.76407916,-2.452128,-26.817972)"
       spreadMethod="pad" />
    <radialGradient
       cx="56.924801"
       cy="25.590885"
       r="5.3430753"
       fx="56.924801"
       fy="25.590885"
       id="radialGradient3428"
       xlink:href="#linearGradient561"
       gradientUnits="userSpaceOnUse"
       gradientTransform="matrix(0.81070007,0,0,0.77523138,-31.370512,-30.605493)"
       spreadMethod="pad" />
    <linearGradient
       x1="25.033354"
       y1="15.336463"
       x2="25.337631"
       y2="24.686901"
       id="linearGradient3430"
       xlink:href="#linearGradient635"
       gradientUnits="userSpaceOnUse"
       gradientTransform="matrix(0.728248,0,0,0.73699398,-2.5448522,-25.908845)"
       spreadMethod="pad" />
    <linearGradient
       x1="27.607258"
       y1="16.387062"
       x2="28.115267"
       y2="24.093016"
       id="linearGradient3432"
       xlink:href="#linearGradient556"
       gradientUnits="userSpaceOnUse"
       gradientTransform="matrix(0.69516436,0,0,0.90552824,-3.5782609,-28.222414)"
       spreadMethod="pad" />
    <radialGradient
       cx="32.368511"
       cy="3.355541"
       r="6.0570164"
       fx="32.368511"
       fy="3.355541"
       id="radialGradient3434"
       xlink:href="#linearGradient561"
       gradientUnits="userSpaceOnUse"
       gradientTransform="matrix(0.78925041,0,0,0.72914846,-10.844545,-19.474606)"
       spreadMethod="pad" />
    <linearGradient
       x1="36.829525"
       y1="47.90868"
       x2="37.259823"
       y2="54.864002"
       id="linearGradient3436"
       xlink:href="#linearGradient561"
       gradientUnits="userSpaceOnUse"
       gradientTransform="matrix(1.1511631,0,0,0.4999119,-33.700172,-25.148921)"
       spreadMethod="pad" />
    <linearGradient
       x1="29.954319"
       y1="68.697281"
       x2="30.472109"
       y2="63.224438"
       id="linearGradient3438"
       xlink:href="#linearGradient641"
       gradientUnits="userSpaceOnUse"
       gradientTransform="matrix(1.4012613,0,0,0.41068789,-34.051145,-26.526675)"
       spreadMethod="pad" />
    <linearGradient
       x1="29.048765"
       y1="63.281857"
       x2="29.396217"
       y2="68.898041"
       id="linearGradient3440"
       xlink:href="#linearGradient561"
       gradientUnits="userSpaceOnUse"
       gradientTransform="matrix(1.4608223,0,0,0.39394246,-33.978336,-26.817972)"
       spreadMethod="pad" />
  </defs>
  <sodipodi:namedview
     inkscape:snap-nodes="true"
     id="base"
     pagecolor="#ffffff"
     bordercolor="#666666"
     borderopacity="1.0"
     inkscape:pageopacity="0.0"
     inkscape:pageshadow="2"
     inkscape:zoom="1"
     inkscape:cx="55.579456"
     inkscape:cy="-0.76107097"
     inkscape:document-units="px"
     inkscape:current-layer="layer2"
     inkscape:document-rotation="0"
     showgrid="false"
     units="px"
     inkscape:snap-grids="true"
     inkscape:window-width="1600"
     inkscape:window-height="837"
     inkscape:window-x="-8"
     inkscape:window-y="-8"
     inkscape:window-maximized="1"
     inkscape:snap-smooth-nodes="true"
     inkscape:object-paths="true"
     showguides="false"
     inkscape:snap-intersection-paths="true"
     inkscape:snap-to-guides="false"
     inkscape:snap-others="false"
     inkscape:snap-global="true"
     inkscape:snap-bbox="true"
     inkscape:bbox-nodes="true"
     inkscape:bbox-paths="false"
     inkscape:snap-bbox-edge-midpoints="false"
     inkscape:snap-bbox-midpoints="false">
    <inkscape:grid
       type="xygrid"
       id="grid4267"
       spacingx="0.26458334"
       spacingy="0.26458334" />
  </sodipodi:namedview>
  <metadata
     id="metadata5">
    <rdf:RDF>
      <cc:Work
         rdf:about="">
        <dc:format>image/svg+xml</dc:format>
        <dc:type
           rdf:resource="http://purl.org/dc/dcmitype/StillImage" />
        <dc:title></dc:title>
      </cc:Work>
    </rdf:RDF>
  </metadata>
  <g
     inkscape:groupmode="layer"
     id="layer2"
     inkscape:label="Layer 2"
     transform="translate(0,25.4)"
     style="display:inline">
    <path
       transform="matrix(0.26458334,0,0,0.26458334,0,-25.4)"
       d="M 122.5625 9.8300781 C 121.84941 9.7722478 118.90184 11.238922 118.57422 11.037109 C 96.814855 16.173449 92.259398 41.754082 91.019531 61.058594 C 91.907746 66.86517 93.417031 72.779954 95.158203 78.548828 C 88.314045 86.431267 78.789615 96.244466 67.097656 101.67773 C 41.83133 102.37882 30.363798 117.81955 53.527344 118.16992 C 70.46947 118.40486 88.470216 103.78388 98.712891 88.976562 C 105.58807 94.890917 114.92876 100.20585 124 95.818359 C 109.68675 87.012778 105.96624 67.754845 113.76562 53.505859 C 117.47513 39.501047 112.60387 23.012615 122.35156 10.513672 C 122.79038 10.03722 122.8002 9.8493549 122.5625 9.8300781 z "
       style="opacity:0.090909;stroke-width:2.71302"
       id="path4864" />
    <g
       transform="matrix(4,0,0,4,11.859532,-28.702453)"
       id="g950">
      <g
         id="g932"
         transform="translate(6.070344,1.3718307)" />
    </g>
    <g
       transform="matrix(1.9999999,0,0,1.9922418,-25.400001,-581.25203)"
       id="path5741" />
    <g
       transform="matrix(1.9999999,0,0,1.9922418,2.1156331,-584.0451)"
       id="rect4775" />
    <g
       transform="matrix(1.9999999,0,0,1.9922418,2.1176999,-582.99189)"
       id="rect4835-9" />
    <g
       transform="matrix(1.9999999,0,0,1.9922418,2.1187335,-585.10036)"
       id="rect4839" />
    <g
       id="g5149"
       transform="matrix(1.9999999,0,0,1.9922418,21.167699,-577.72068)" />
    <g
       transform="matrix(1.9999999,0,0,1.9922418,1.4355303,-582.30624)"
       id="path5988" />
    <g
       id="g4657"
       transform="matrix(1.2158661,0,0,1.2158661,-25.025345,-376.00853)" />
    <g
       transform="matrix(1.2158661,0,0,1.2158661,-25.025346,-371.50477)"
       id="g4669" />
    <g
       transform="translate(-33.848105,-293.80163)"
       id="g1959" />
    <path
       d="m 9.6478036,-11.619949 a 4.2947352,5.450993 0 1 1 -8.5894703,0 4.2947352,5.450993 0 1 1 8.5894703,0 z"
       id="path617"
       style="fill:url(#radialGradient3416);stroke-width:0.758604" />
    <path
       d="m 10.312163,-11.66284 c 0,2.5334346 -5.1660954,-4.454677 -9.1792639,-2.098103 0,-2.533442 2.2918953,-5.514107 5.57119,-5.514107 4.1972059,0.131149 3.6080739,5.07876 3.6080739,7.61221 z"
       id="path618"
       style="fill:url(#radialGradient3418);stroke-width:0.758604" />
    <path
       d="m 23.881531,-8.9498819 c -0.06183,-2.9671291 0.618111,-6.2125141 2.039887,-9.4578231 0.989068,-1.761775 2.256317,-3.245332 4.91439,-3.894364 -2.039962,3.554433 -1.205422,6.552513 -1.576303,10.014101 -0.618187,1.452651 -1.143596,2.4418709 -1.390901,4.7289871 0.09278,4.2962037 1.483602,5.3471742 3.338086,7.0470547 -2.44172,0.6800129 -4.1416,-1.0508946 -5.563376,-2.039887 -0.74184,-2.5653722 -1.02002,-3.8326207 -1.761783,-6.3980687 z"
       id="path619"
       style="fill:url(#linearGradient3420);stroke-width:0.758604" />
    <path
       style="stroke-width:0.545121"
       id="path596"
       d="m 3.9952913,-11.59037 a 1.1307507,1.1778527 0 1 1 -2.2615015,0 1.1307508,1.1778527 0 1 1 2.2615015,0 z" />
    <path
       style="fill:#808080;stroke-width:0.545121"
       id="path597"
       d="m 3.7126039,-11.947752 a 0.42403112,0.56538664 0 1 1 -0.8480622,0 0.42403112,0.56538664 0 1 1 0.8480622,0 z" />
    <path
       d="m 24.623294,-11.731532 c 0.958118,-4.512634 1.174547,-5.130745 1.761783,-6.583396 0.648986,-1.20546 1.019943,-2.225366 3.894371,-3.616206 -1.545429,1.298124 -2.349018,2.781665 -2.967129,4.728927 -0.309131,1.607179 -0.896367,3.214434 -0.55636,8.5305811 -0.494535,-0.8035895 -1.638131,-2.2563171 -2.132665,-3.0599061 z"
       id="path630"
       style="fill:url(#linearGradient3422);fill-opacity:0.471831;stroke-width:0.758604" />
    <path
       d="M 27.40502,-7.2808007 C 27.219618,-2.7624776 19.903258,5.8860667 13.21821,5.7933652 7.0895212,5.7006638 1.8131778,-0.2588558 1.8131778,-7.3735022 c 0,-7.1144948 4.6272815,-12.6103628 11.3123302,-12.7958568 7.148708,0.09272 14.37229,10.039316 14.279512,12.8885583 z"
       id="path615"
       style="fill:url(#radialGradient3424);stroke-width:0.758604" />
    <path
       d="M 27.40502,-7.2808007 C 27.219618,-2.7624776 19.903258,5.8860667 13.21821,5.7933652 7.0895212,5.7006638 1.8131778,-0.2588558 1.8131778,-7.3735022 c 0,-7.1144948 4.6272815,-12.6103628 11.3123302,-12.7958568 7.148708,0.09272 14.37229,10.039316 14.279512,12.8885583 z"
       id="path599"
       style="fill:url(#linearGradient3426);stroke-width:0.758604" />
    <path
       d="m 20.728847,-11.267873 c 1.576304,2.3767829 1.046647,4.3702433 0.190713,5.7463515 -0.855933,1.37626 -3.246143,2.1236369 -4.548743,2.0424663 -4.557543,-0.2781802 -3.894371,-2.2936402 -3.894371,-6.4907702 0,-4.1970546 2.767616,-8.2524016 5.377974,-8.2524016 1.961295,0.463659 2.874427,2.7573 2.874427,6.954354 z"
       id="path632"
       style="fill-opacity:0.197183;stroke-width:0.758604" />
    <path
       d="m 20.914283,-8.7895156 a 4.7250628,4.5183362 0 1 1 -9.450125,0 4.7250628,4.5183362 0 1 1 9.450125,0 z"
       id="path624"
       style="fill:url(#radialGradient3428);stroke-width:0.792767" />
    <path
       d="m 20.265264,-10.195583 a 4.3580308,4.4103657 0 1 1 -8.716061,0 4.3580308,4.4103657 0 1 1 8.716061,0 z"
       id="path633"
       style="fill:url(#linearGradient3430);stroke-width:0.732608" />
    <path
       d="m 20.125624,-11.944503 a 4.4338202,5.7755397 0 1 1 -8.86764,0 4.4338202,5.7755397 0 1 1 8.86764,0 z"
       id="path552"
       style="fill:url(#linearGradient3432);stroke-width:0.793404" />
    <path
       d="m 20.174406,-11.477399 c -0.740853,-0.66692 -2.999294,-4.365776 -8.9422,-2.121544 0,-2.533442 1.001358,-6.139698 4.280652,-6.139698 4.197206,0.13115 4.661548,5.727792 4.661548,8.261242 z"
       id="path600"
       style="fill:url(#radialGradient3434);stroke-width:0.758604" />
    <g
       id="use2998"
       transform="matrix(0.54512244,0,0,0.54512016,-16.502519,-22.731746)">
      <path
         id="path1679"
         transform="translate(0,-0.122253)"
         d="m 64.476341,21.172836 a 2.074306,2.1607211 0 1 1 -4.148612,0 2.074306,2.1607211 0 1 1 4.148612,0 z" />
      <path
         style="fill:#808080"
         id="path1681"
         d="m 63.957765,20.394981 a 0.777864,1.037178 0 1 1 -1.555728,0 0.777864,1.037178 0 1 1 1.555728,0 z" />
    </g>
    <path
       d="M 2.5548935,-1.1609424 C 2.709497,-0.51188054 7.3147562,1.435305 14.60904,-1.3464211 c 0.29358,-0.030951 1.743652,-1.6008827 1.737811,-1.2915997 -0.01419,0.8423542 -0.671213,1.96304033 -1.52654,2.89756498 C 12.996627,2.4848341 9.8492532,3.8460736 6.2638617,3.4752678 4.5330301,3.3207401 3.1973555,2.424525 2.3937659,1.0644234 1.7071531,-0.21814896 2.1531366,-0.44997843 2.5548935,-1.1609424 Z"
       id="path623"
       style="fill:url(#linearGradient3436);stroke-width:0.758604" />
    <path
       d="m 2.4821007,-2.5386964 c 0.1546035,0.6490619 4.4816825,2.8744276 11.7759663,0.092701 0.977993,-0.5021961 1.649054,-0.06615 0.649062,1.48352654 C 13.08352,0.89201574 7.5510188,1.6338549 5.8201872,1.3556747 4.0893556,1.201147 1.9876424,0.58296034 1.6476359,-0.4988094 1.3903932,-1.4293893 1.7094622,-2.0132112 2.4821007,-2.5386964 Z"
       id="path631"
       style="fill:url(#linearGradient3438);stroke-width:0.758604" />
    <path
       d="m 2.5549097,-2.8299934 c 0.1546035,0.6490619 4.2446187,3.76336013 12.0130303,0.744646 0.518582,-0.2214366 1.464182,-0.6528549 1.658916,-0.6203866 0.285766,0.056213 -0.361703,0.7363772 -1.128348,1.5112915 C 13.274899,0.65996574 7.6238278,1.3425579 5.8929962,1.0643777 4.1621646,0.90985 2.0604514,0.29166334 1.7204449,-0.7901064 1.4632022,-1.7206863 1.7822712,-2.3045082 2.5549097,-2.8299934 Z"
       id="path621"
       style="fill:url(#linearGradient3440);stroke-width:0.758604" />
  </g>
</svg>
