<?xml version="1.0" encoding="UTF-8" standalone="no"?>
<svg
   xmlns:dc="http://purl.org/dc/elements/1.1/"
   xmlns:cc="http://creativecommons.org/ns#"
   xmlns:rdf="http://www.w3.org/1999/02/22-rdf-syntax-ns#"
   xmlns:svg="http://www.w3.org/2000/svg"
   xmlns="http://www.w3.org/2000/svg"
   xmlns:sodipodi="http://sodipodi.sourceforge.net/DTD/sodipodi-0.dtd"
   xmlns:inkscape="http://www.inkscape.org/namespaces/inkscape"
   inkscape:version="1.0 (4035a4fb49, 2020-05-01)"
   sodipodi:docname="bomi.svg"
   id="svg28"
   version="1.1"
   height="128"
   width="128">
  <metadata
     id="metadata32">
    <rdf:RDF>
      <cc:Work
         rdf:about="">
        <dc:format>image/svg+xml</dc:format>
        <dc:type
           rdf:resource="http://purl.org/dc/dcmitype/StillImage" />
        <dc:title></dc:title>
      </cc:Work>
    </rdf:RDF>
  </metadata>
  <sodipodi:namedview
     inkscape:current-layer="svg28"
     inkscape:cy="37.70452"
     inkscape:cx="-96.324667"
     inkscape:zoom="2.4831601"
     showgrid="false"
     id="namedview30"
     inkscape:window-height="480"
     inkscape:window-width="640"
     inkscape:pageshadow="2"
     inkscape:pageopacity="0"
     guidetolerance="10"
     gridtolerance="10"
     objecttolerance="10"
     borderopacity="1"
     bordercolor="#666666"
     pagecolor="#ffffff">
    <inkscape:grid
       id="grid857"
       type="xygrid" />
  </sodipodi:namedview>
  <defs
     id="defs12">
    <linearGradient
       gradientUnits="userSpaceOnUse"
       x2="407.14145"
       y2="503.79999"
       x1="407.14145"
       y1="543.79999"
       id="a">
      <stop
         style="stop-color:#da3737;stop-opacity:1"
         id="stop2"
         stop-color="#da4453" />
      <stop
         style="stop-color:#e05a5a;stop-opacity:1"
         id="stop4"
         stop-color="#e06571"
         offset="1" />
    </linearGradient>
    <linearGradient
       gradientUnits="userSpaceOnUse"
       x2="44"
       y2="44"
       x1="19"
       y1="13.1"
       id="b">
      <stop
         id="stop7"
         stop-color="#292c2f" />
      <stop
         id="stop9"
         stop-opacity="0"
         stop-color="#292c2f"
         offset="1" />
    </linearGradient>
  </defs>
  <g
     id="g26"
     transform="matrix(2.8000002,0,0,2.7999997,-1079.9961,-1402.6398)">
    <path
       d="m 391.42715,503.79999 h 34.28571 c 1.58286,0 2.85715,1.27428 2.85715,2.85714 v 34.28572 c 0,1.58285 -1.27429,2.85714 -2.85715,2.85714 h -34.28571 c -1.58286,0 -2.85714,-1.27429 -2.85714,-2.85714 v -34.28572 c 0,-1.58286 1.27428,-2.85714 2.85714,-2.85714 z"
       style="fill:url(#a)"
       id="rect14" />
    <g
       id="g18"
       font-size="12.666px">
      <text
         id="text16"
         font-family="'Droid Sans'"
         y="132.19"
         x="730.88" />
    </g>
    <path
       sodipodi:nodetypes="cssssccsscccccccccc"
       style="fill:#ffffff;fill-opacity:1"
       id="path22"
       d="m 406.57143,511.96792 v 16.83 c 0,0.554 -0.446,1 -1,1 h -1 c -0.554,0 -1,-0.446 -1,-1 v -15.893 c -4.26004,1.95258 -6.9937,6.20638 -7,10.89258 0,6.62742 5.37258,12 12,12 6.62742,0 12,-5.37258 12,-12 0,-6.62742 -5.37258,-12 -12,-11.99975 -0.67024,9.4e-4 -1.33925,0.0578 -2,0.17017 z m 1.74219,5.89798 9,5.455 c 0.34228,0.20799 0.34228,0.74513 0,0.95312 l -9,5.455 c -0.33303,0.20107 -0.74168,-0.0613 -0.74219,-0.47656 v -10.91 c 2.9e-4,-0.3027 0.22644,-0.54726 0.50391,-0.54494 0.0834,7.4e-4 0.16533,0.0243 0.23828,0.0684 z"
       stroke-width="4"
       stroke-linejoin="round"
       fill="#ffffff" />
  </g>
</svg>
