<?xml version="1.0" encoding="UTF-8" standalone="no"?>
<svg
   xmlns:dc="http://purl.org/dc/elements/1.1/"
   xmlns:cc="http://creativecommons.org/ns#"
   xmlns:rdf="http://www.w3.org/1999/02/22-rdf-syntax-ns#"
   xmlns:svg="http://www.w3.org/2000/svg"
   xmlns="http://www.w3.org/2000/svg"
   xmlns:xlink="http://www.w3.org/1999/xlink"
   xmlns:sodipodi="http://sodipodi.sourceforge.net/DTD/sodipodi-0.dtd"
   xmlns:inkscape="http://www.inkscape.org/namespaces/inkscape"
   width="128"
   height="128"
   version="1.1"
   viewBox="0 0 33.866667 33.866667"
   id="svg129"
   sodipodi:docname="calindori.svg"
   inkscape:version="1.0 (4035a4fb49, 2020-05-01)">
  <sodipodi:namedview
     inkscape:document-rotation="0"
     pagecolor="#ffffff"
     bordercolor="#666666"
     borderopacity="1"
     objecttolerance="10"
     gridtolerance="10"
     guidetolerance="10"
     inkscape:pageopacity="0"
     inkscape:pageshadow="2"
     inkscape:window-width="640"
     inkscape:window-height="480"
     id="namedview131"
     showgrid="true"
     inkscape:snap-bbox="true"
     inkscape:bbox-nodes="true"
     inkscape:zoom="1"
     inkscape:cx="47.986455"
     inkscape:cy="35.823083"
     inkscape:current-layer="svg129">
    <inkscape:grid
       type="xygrid"
       id="grid1067" />
  </sodipodi:namedview>
  <defs
     id="defs53">
    <linearGradient
       id="linearGradient1617"
       inkscape:collect="always">
      <stop
         id="stop1613"
         offset="0"
         style="stop-color:#ffffe8;stop-opacity:1" />
      <stop
         id="stop1615"
         offset="1"
         style="stop-color:#ffe896;stop-opacity:1" />
    </linearGradient>
    <linearGradient
       inkscape:collect="always"
       xlink:href="#linearGradient1617"
       id="linearGradient4881"
       x1="4.2333336"
       y1="9.5249996"
       x2="29.633333"
       y2="29.633333"
       gradientUnits="userSpaceOnUse" />
  </defs>
  <metadata
     id="metadata55">
    <rdf:RDF>
      <cc:Work
         rdf:about="">
        <dc:format>image/svg+xml</dc:format>
        <dc:type
           rdf:resource="http://purl.org/dc/dcmitype/StillImage" />
        <dc:title />
      </cc:Work>
    </rdf:RDF>
  </metadata>
  <flowRoot
     fill="#000000"
     font-family="sans-serif"
     font-size="28.2221px"
     letter-spacing="0px"
     stroke-width="0.705555"
     word-spacing="0px"
     style="line-height:1.25"
     xml:space="preserve"
     id="flowRoot69"><flowRegion
       id="flowRegion65"
       style="stroke-width:0.705555"><rect
         x="-574.73639"
         y="-284.09399"
         width="506.88556"
         height="444.0238"
         stroke-width="0.497808"
         id="rect63" /></flowRegion><flowPara
       id="flowPara67"
       style="stroke-width:0.705555" /></flowRoot>
  <style
     id="style934" />
  <rect
     style="opacity:0.99;fill:#a98a5e;fill-opacity:1;fill-rule:evenodd;stroke:none;stroke-width:0.502708;stroke-linejoin:round;paint-order:markers fill stroke;stop-color:#000000"
     id="rect4871"
     width="29.633333"
     height="29.633333"
     x="2.1166668"
     y="2.1166668"
     rx="4.0282813e-14" />
  <rect
     style="opacity:0.99;fill:url(#linearGradient4881);fill-opacity:1;fill-rule:evenodd;stroke:none;stroke-width:0.502708;stroke-linejoin:round;paint-order:markers fill stroke;stop-color:#000000"
     id="rect4873"
     width="27.516666"
     height="22.225"
     x="3.1750002"
     y="8.4666672"
     rx="4.0282813e-14" />
  <path
     sodipodi:nodetypes="ccccc"
     d="m 17.727084,21.960417 h 5.291667 v 0.79375 h -5.291667 z"
     style="opacity:0.99;fill:#000000;fill-opacity:0.198444;fill-rule:evenodd;stroke:none;stroke-width:0.562044;stroke-linejoin:round;paint-order:markers fill stroke;stop-color:#000000"
     id="rect5136" />
  <g
     id="g5132"
     transform="translate(0.26458319,0.26458317)"
     style="fill:#000000;fill-opacity:0.202335">
    <path
       transform="scale(0.26458334)"
       d="M 20,40 V 56 H 36 V 40 Z m 24,0 V 56 H 60 V 40 Z m 24,0 V 56 H 84 V 40 Z m 24,0 v 16 h 16 V 40 Z M 20,64 V 80 H 36 V 64 Z m 24,0 V 80 H 60 V 64 Z m 24,0 V 80 H 84 V 64 Z m 24,0 v 16 h 16 V 64 Z M 20,88 v 16 H 36 V 88 Z m 24,0 v 16 H 60 V 88 Z m 24,0 v 16 H 84 V 88 Z m 24,0 v 16 h 16 V 88 Z"
       style="opacity:0.99;fill:#000000;fill-opacity:0.202335;fill-rule:evenodd;stroke:none;stroke-width:1.9;stroke-linejoin:round;paint-order:markers fill stroke;stop-color:#000000"
       id="path5130" />
  </g>
  <g
     id="g5097">
    <path
       id="rect4903"
       style="opacity:0.99;fill:#a98a5e;fill-opacity:0.99215686;fill-rule:evenodd;stroke:none;stroke-width:1.9;stroke-linejoin:round;paint-order:markers fill stroke;stop-color:#000000"
       d="M 20 40 L 20 56 L 36 56 L 36 40 L 20 40 z M 44 40 L 44 56 L 60 56 L 60 40 L 44 40 z M 68 40 L 68 56 L 84 56 L 84 40 L 68 40 z M 92 40 L 92 56 L 108 56 L 108 40 L 92 40 z M 20 64 L 20 80 L 36 80 L 36 64 L 20 64 z M 44 64 L 44 80 L 60 80 L 60 64 L 44 64 z M 68 64 L 68 80 L 84 80 L 84 64 L 68 64 z M 92 64 L 92 80 L 108 80 L 108 64 L 92 64 z M 20 88 L 20 104 L 36 104 L 36 88 L 20 88 z M 44 88 L 44 104 L 60 104 L 60 88 L 44 88 z M 68 88 L 68 104 L 84 104 L 84 88 L 68 88 z M 92 88 L 92 104 L 108 104 L 108 88 L 92 88 z "
       transform="scale(0.26458334)" />
  </g>
  <path
     sodipodi:nodetypes="ccccc"
     d="M 5.0270848,15.610417 H 10.31875 v 0.79375 H 5.0270844 Z"
     style="opacity:0.99;fill:#000000;fill-opacity:0.198444;fill-rule:evenodd;stroke:none;stroke-width:0.562044;stroke-linejoin:round;paint-order:markers fill stroke;stop-color:#000000"
     id="rect5134" />
  <path
     sodipodi:nodetypes="ccccc"
     d="m 4.7624996,15.345833 h 5.2916674 v 0.79375 H 4.7624994 Z"
     style="opacity:0.99;fill:#1da389;fill-opacity:1;fill-rule:evenodd;stroke:none;stroke-width:0.562044;stroke-linejoin:round;paint-order:markers fill stroke;stop-color:#000000"
     id="rect5099" />
  <path
     sodipodi:nodetypes="ccccc"
     d="m 17.462501,21.695833 h 5.291667 v 0.793751 h -5.291667 z"
     style="opacity:0.99;fill:#1da389;fill-opacity:1;fill-rule:evenodd;stroke:none;stroke-width:0.688361;stroke-linejoin:round;paint-order:markers fill stroke;stop-color:#000000"
     id="rect5109" />
  <path
     sodipodi:nodetypes="ccccc"
     d="m 24.077083,15.610417 h 5.291667 v 0.793751 h -5.291667 z"
     style="opacity:0.99;fill:#000000;fill-opacity:0.198444;fill-rule:evenodd;stroke:none;stroke-width:0.562044;stroke-linejoin:round;paint-order:markers fill stroke;stop-color:#000000"
     id="rect5138" />
  <path
     sodipodi:nodetypes="ccccc"
     d="m 23.8125,15.345833 h 5.291667 v 0.793749 H 23.8125 Z"
     style="opacity:0.99;fill:#d80201;fill-opacity:1;fill-rule:evenodd;stroke:none;stroke-width:0.562044;stroke-linejoin:round;paint-order:markers fill stroke;stop-color:#000000"
     id="rect5111" />
  <path
     sodipodi:nodetypes="ccccc"
     d="m 11.377083,28.310417 h 5.291667 l 1e-6,0.793751 h -5.291667 z"
     style="opacity:0.99;fill:#000000;fill-opacity:0.198444;fill-rule:evenodd;stroke:none;stroke-width:0.562044;stroke-linejoin:round;paint-order:markers fill stroke;stop-color:#000000"
     id="rect5140" />
  <path
     sodipodi:nodetypes="ccccc"
     d="m 11.1125,28.045834 h 5.291667 l 0,0.79375 H 11.1125 Z"
     style="opacity:0.99;fill:#d80000;fill-opacity:1;fill-rule:evenodd;stroke:none;stroke-width:0.671435;stroke-linejoin:round;paint-order:markers fill stroke;stop-color:#000000"
     id="rect5113" />
  <path
     style="fill:#000000;fill-opacity:0.198444;stroke:none;stroke-width:0.264583px;stroke-linecap:butt;stroke-linejoin:miter;stroke-opacity:1"
     d="m 3.1750001,30.691667 0.5291666,0 10e-8,-21.6958334 26.9875002,-2e-7 0,-0.5291665 H 3.1750001 Z"
     id="path5223"
     sodipodi:nodetypes="ccccccc" />
</svg>
