<?xml version="1.0" encoding="UTF-8" standalone="no"?>
<svg
   xmlns:dc="http://purl.org/dc/elements/1.1/"
   xmlns:cc="http://creativecommons.org/ns#"
   xmlns:rdf="http://www.w3.org/1999/02/22-rdf-syntax-ns#"
   xmlns:svg="http://www.w3.org/2000/svg"
   xmlns="http://www.w3.org/2000/svg"
   xmlns:sodipodi="http://sodipodi.sourceforge.net/DTD/sodipodi-0.dtd"
   xmlns:inkscape="http://www.inkscape.org/namespaces/inkscape"
   inkscape:version="1.0 (4035a4fb49, 2020-05-01)"
   sodipodi:docname="chromium-browser.svg"
   id="svg29"
   version="1.1"
   width="128"
   viewBox="0 0 128 128"
   height="128">
  <metadata
     id="metadata35">
    <rdf:RDF>
      <cc:Work
         rdf:about="">
        <dc:format>image/svg+xml</dc:format>
        <dc:type
           rdf:resource="http://purl.org/dc/dcmitype/StillImage" />
        <dc:title></dc:title>
      </cc:Work>
    </rdf:RDF>
  </metadata>
  <defs
     id="defs33" />
  <sodipodi:namedview
     inkscape:current-layer="svg29"
     inkscape:cy="68.266663"
     inkscape:cx="68.266663"
     inkscape:zoom="5.3247073"
     inkscape:bbox-nodes="true"
     inkscape:snap-bbox="true"
     inkscape:snap-nodes="false"
     showgrid="false"
     id="namedview31"
     inkscape:window-height="480"
     inkscape:window-width="640"
     inkscape:pageshadow="2"
     inkscape:pageopacity="0"
     guidetolerance="10"
     gridtolerance="10"
     objecttolerance="10"
     borderopacity="1"
     bordercolor="#666666"
     pagecolor="#ffffff">
    <inkscape:grid
       id="grid888"
       type="xygrid" />
  </sodipodi:namedview>
  <linearGradient
     gradientTransform="translate(0,-8.5333252)"
     y2="51.877785"
     y1="-10.603566"
     x2="67.129555"
     x1="65.280846"
     gradientUnits="userSpaceOnUse"
     id="a">
    <stop
       id="stop2"
       stop-color="#3d9ade"
       offset="0" />
    <stop
       id="stop4"
       stop-color="#2281c7"
       offset="1" />
  </linearGradient>
  <linearGradient
     gradientTransform="translate(0,-8.5333252)"
     y2="116.67326"
     y1="42.621288"
     x2="42.541985"
     x1="35.4865"
     gradientUnits="userSpaceOnUse"
     id="b">
    <stop
       id="stop7"
       stop-color="#60ace4"
       offset="0" />
    <stop
       id="stop9"
       stop-color="#3897dd"
       offset="1" />
  </linearGradient>
  <linearGradient
     gradientTransform="translate(0,-8.5333252)"
     y2="116.67326"
     y1="42.621288"
     x2="42.541985"
     x1="35.4865"
     gradientUnits="userSpaceOnUse"
     id="c">
    <stop
       id="stop12"
       stop-color="#75b5e4"
       offset="0" />
    <stop
       id="stop14"
       stop-color="#61aae0"
       offset="1" />
  </linearGradient>
  <g
     transform="matrix(0.90594491,0,0,0.87470584,-0.46779465,11.664079)"
     id="g886">
    <circle
       cx="68.953224"
       cy="59.832596"
       fill="url(#a)"
       r="64.021523"
       id="circle17"
       style="fill:url(#a)" />
    <path
       d="M 16.183594,23.591675 A 64.021523,64.021523 0 0 0 4.9316406,59.831909 64.021523,64.021523 0 0 0 68.953125,123.85339 64.021523,64.021523 0 0 0 132.97461,59.831909 64.021523,64.021523 0 0 0 126.79297,32.542847 H 66.53125 l -22.5625,38.18164 c 0,0 -17.678433,-30.06484 -27.785156,-47.132812 z"
       fill="url(#b)"
       id="path19"
       style="fill:url(#b)" />
    <path
       d="M 66.53125,32.542847 92.564453,73.038941 63.662109,123.61901 c 1.746668,0.14305 3.50746,0.23438 5.291016,0.23438 35.358085,-2e-5 64.021465,-28.663395 64.021485,-64.021481 -0.0233,-9.440873 -2.13422,-18.759761 -6.18164,-27.289062 z"
       fill="url(#c)"
       id="path21"
       style="fill:url(#c)" />
    <g
       stroke="#eeeeee"
       id="g27"
       transform="translate(0,-8.5333252)">
      <path
         id="circle23"
         style="fill:#2a89e2;stroke-width:4"
         d="m 68.953224,93.765852 c -14.027995,0 -25.399931,-11.371936 -25.399931,-25.399931 0,-14.027995 11.371936,-25.399931 25.399931,-25.399931 14.027995,0 25.399931,11.371936 25.399931,25.399931 0,14.027995 -11.371936,25.399931 -25.399931,25.399931 z"
         sodipodi:nodetypes="ssscs" />
    </g>
  </g>
</svg>
