<?xml version="1.0" encoding="UTF-8" standalone="no"?>
<svg
   xmlns:dc="http://purl.org/dc/elements/1.1/"
   xmlns:cc="http://creativecommons.org/ns#"
   xmlns:rdf="http://www.w3.org/1999/02/22-rdf-syntax-ns#"
   xmlns:svg="http://www.w3.org/2000/svg"
   xmlns="http://www.w3.org/2000/svg"
   xmlns:xlink="http://www.w3.org/1999/xlink"
   xmlns:sodipodi="http://sodipodi.sourceforge.net/DTD/sodipodi-0.dtd"
   xmlns:inkscape="http://www.inkscape.org/namespaces/inkscape"
   inkscape:version="1.0 (4035a4fb49, 2020-05-01)"
   sodipodi:docname="kdevelop.svg"
   id="svg54"
   version="1.1"
   height="128"
   width="128">
  <metadata
     id="metadata58">
    <rdf:RDF>
      <cc:Work
         rdf:about="">
        <dc:format>image/svg+xml</dc:format>
        <dc:type
           rdf:resource="http://purl.org/dc/dcmitype/StillImage" />
        <dc:title></dc:title>
      </cc:Work>
    </rdf:RDF>
  </metadata>
  <sodipodi:namedview
     inkscape:current-layer="svg54"
     inkscape:cy="63.992315"
     inkscape:cx="64.00603"
     inkscape:zoom="1"
     inkscape:bbox-nodes="true"
     inkscape:snap-nodes="true"
     inkscape:snap-page="true"
     inkscape:snap-bbox="true"
     showgrid="false"
     id="namedview56"
     inkscape:window-height="480"
     inkscape:window-width="640"
     inkscape:pageshadow="2"
     inkscape:pageopacity="0"
     guidetolerance="10"
     gridtolerance="10"
     objecttolerance="10"
     borderopacity="1"
     bordercolor="#666666"
     pagecolor="#ffffff">
    <inkscape:grid
       id="grid938"
       type="xygrid" />
  </sodipodi:namedview>
  <defs
     id="defs28">
    <linearGradient
       id="linearGradient1017"
       x1="-44.389999"
       x2="-14.394"
       gradientUnits="userSpaceOnUse"
       gradientTransform="translate(58.788,33.941)">
      <stop
         style="stop-color:#959ea6;stop-opacity:1"
         stop-color="#b0b8b8"
         id="stop1013" />
      <stop
         style="stop-color:#d9e5f1;stop-opacity:1"
         offset="1"
         stop-color="#eff1f1"
         id="stop1015" />
    </linearGradient>
    <linearGradient
       gradientTransform="matrix(2.6666782,0,0,2.6666782,-142.37395,-109.25647)"
       gradientUnits="userSpaceOnUse"
       x2="34.764"
       y2="29.398001"
       x1="17.030001"
       y1="13.444"
       id="a">
      <stop
         id="stop2"
         stop-color="#375a7d" />
      <stop
         id="stop4"
         stop-color="#377d50"
         offset="1" />
    </linearGradient>
    <linearGradient
       gradientTransform="translate(58.788,33.941)"
       gradientUnits="userSpaceOnUse"
       x2="-14.394"
       x1="-44.389999"
       id="b">
      <stop
         style="stop-color:#9ea7b0;stop-opacity:1"
         id="stop7"
         stop-color="#b0b8b8" />
      <stop
         style="stop-color:#d9e6f1;stop-opacity:1"
         id="stop9"
         stop-color="#eff1f1"
         offset="1" />
    </linearGradient>
    <linearGradient
       gradientTransform="scale(2.6666782)"
       gradientUnits="userSpaceOnUse"
       x2="-18.900078"
       y2="-10.911908"
       x1="-39.887417"
       y1="-23.028822"
       id="c">
      <stop
         style="stop-color:#2c6e62;stop-opacity:1"
         id="stop12"
         stop-color="#338173" />
      <stop
         style="stop-color:#63ffb6;stop-opacity:1"
         id="stop14"
         stop-color="#54d883"
         offset="1" />
    </linearGradient>
    <linearGradient
       gradientTransform="scale(2.6666667)"
       gradientUnits="userSpaceOnUse"
       x2="27.049999"
       x1="13.864"
       id="d">
      <stop
         id="stop17"
         stop-color="#7ceca4" />
      <stop
         id="stop19"
         stop-color="#e5fbf7"
         offset="1" />
    </linearGradient>
    <linearGradient
       gradientTransform="scale(2.6666667)"
       gradientUnits="userSpaceOnUse"
       x2="40"
       y2="39"
       x1="24"
       y1="23"
       id="e">
      <stop
         id="stop22"
         stop-color="#292c2f" />
      <stop
         id="stop24"
         stop-opacity="0"
         offset="1" />
    </linearGradient>
    <linearGradient
       gradientTransform="matrix(-2.5758134,-0.69018668,0.69018668,-2.5758134,109.256,142.37334)"
       gradientUnits="userSpaceOnUse"
       x2="43.237709"
       y2="35.103344"
       x1="4.7609181"
       y1="12.889004"
       id="f"
       xlink:href="#b" />
    <linearGradient
       y2="-11.651281"
       y1="-24.038794"
       x2="-16.141691"
       x1="-41.636791"
       gradientTransform="matrix(2.6666667,0,0,2.6666667,156.768,90.509333)"
       gradientUnits="userSpaceOnUse"
       id="linearGradient887"
       xlink:href="#linearGradient1017"
       inkscape:collect="always" />
  </defs>
  <g
     transform="matrix(1.0504078,0,0,1.0504181,-3.2261917,-3.2264086)"
     id="g986">
    <g
       id="g976">
      <g
         id="g967">
        <circle
           fill="url(#b)"
           cx="78.383995"
           cy="45.256001"
           r="40"
           stroke-linecap="round"
           transform="rotate(15)"
           id="circle30"
           style="color:#000000;fill:url(#linearGradient887);stroke-width:8;stroke-linejoin:round" />
        <path
           fill="url(#f)"
           d="m 58.538361,117.02336 a 53.333334,53.333334 0 0 0 10.925491,0.0157 l 1.266666,-8.26666 a 45.333334,45.333334 0 0 0 9.832918,-2.62793 l 5.216,6.50933 a 53.333334,53.333334 0 0 0 9.46392,-5.47675 l -3.026667,-7.762668 a 45.333334,45.333334 0 0 0 7.226184,-7.187123 l 7.714667,3.005334 a 53.333334,53.333334 0 0 0 5.46688,-9.475651 l -6.45866,-5.176 a 45.333334,45.333334 0 0 0 1.62291,-4.849363 45.333334,45.333334 0 0 0 0.98497,-5.004123 l 8.25067,-1.266666 a 53.333334,53.333334 0 0 0 0.0157,-10.925491 l -8.26667,-1.266667 a 45.333334,45.333334 0 0 0 -2.62793,-9.832917 l 6.50934,-5.216 A 53.333334,53.333334 0 0 0 107.178,32.755794 l -7.762671,3.026667 a 45.333334,45.333334 0 0 0 -7.186363,-7.225653 l 3.005672,-7.714171 a 53.333334,53.333334 0 0 0 -9.47608,-5.46692 l -5.17192,6.45892 A 45.333334,45.333334 0 0 0 75.733132,20.211363 45.333334,45.333334 0 0 0 70.729009,19.226387 L 69.466668,10.976 A 53.333334,53.333334 0 0 0 58.541179,10.96024 l -1.271845,8.266427 a 45.333334,45.333334 0 0 0 -9.832101,2.628653 l -5.215899,-6.508653 a 53.333334,53.333334 0 0 0 -9.46392,5.476757 l 3.026666,7.762667 a 45.333334,45.333334 0 0 0 -7.226184,7.187123 l -7.715229,-3.00788 a 53.333334,53.333334 0 0 0 -5.466883,9.475651 l 6.458667,5.176 a 45.333334,45.333334 0 0 0 -1.622909,4.849362 45.333334,45.333334 0 0 0 -0.984976,5.004123 l -8.250667,1.266667 a 53.333334,53.333334 0 0 0 -0.01576,10.925488 l 8.266667,1.266667 a 45.333334,45.333334 0 0 0 2.627933,9.832917 l -6.509333,5.216 a 53.333334,53.333334 0 0 0 5.476757,9.46392 l 7.762667,-3.026667 a 45.333334,45.333334 0 0 0 7.187122,7.226185 l -3.005333,7.714663 a 53.333334,53.333334 0 0 0 9.475651,5.46689 l 5.176,-6.45867 a 45.333334,45.333334 0 0 0 4.849363,1.62291 45.333334,45.333334 0 0 0 5.004122,0.98497 z M 54.337422,100.06123 A 37.333334,37.333334 0 0 1 27.938768,54.337419 37.333334,37.333334 0 0 1 73.662582,27.938766 37.333334,37.333334 0 0 1 100.06124,73.66258 37.333334,37.333334 0 0 1 54.337422,100.06123"
           id="path32"
           style="color:#000000;fill:url(#f);stroke-width:8;stroke-linejoin:round" />
        <circle
           style="color:#000000;fill:url(#c);stroke-width:8.00003;stroke-linecap:round;stroke-linejoin:round"
           id="circle42"
           transform="rotate(-165.00001)"
           r="32.000137"
           cy="-45.256195"
           cx="-78.384338"
           fill="url(#c)" />
        <path
           sodipodi:nodetypes="ccscc"
           fill="url(#d)"
           d="m 67.146668,91.072001 c -6.138667,4.709334 -18.573334,0.768 -26.194667,-9.165333 -7.621334,-9.930667 -7.541334,-22.090667 -1.402667,-26.800001 6.138667,-4.709333 17.290667,-0.477333 24.908,9.454667 7.617334,9.929334 8.82,21.798667 2.689334,26.510667 z"
           id="path46"
           style="color:#000000;fill:url(#d);stroke-width:8;stroke-linejoin:round" />
        <path
           fill="#334545"
           fill-rule="evenodd"
           d="m 40,74.666668 10.666667,10.666666 5.333334,-16 z"
           id="path52"
           style="stroke-width:2.66667" />
      </g>
    </g>
  </g>
</svg>
