<?xml version="1.0" encoding="UTF-8" standalone="no"?>
<svg
   xmlns:dc="http://purl.org/dc/elements/1.1/"
   xmlns:cc="http://creativecommons.org/ns#"
   xmlns:rdf="http://www.w3.org/1999/02/22-rdf-syntax-ns#"
   xmlns:svg="http://www.w3.org/2000/svg"
   xmlns="http://www.w3.org/2000/svg"
   xmlns:sodipodi="http://sodipodi.sourceforge.net/DTD/sodipodi-0.dtd"
   xmlns:inkscape="http://www.inkscape.org/namespaces/inkscape"
   inkscape:version="1.0 (4035a4fb49, 2020-05-01)"
   sodipodi:docname="elisa.svg"
   id="svg58"
   viewBox="0 0 33.866667 33.866667"
   version="1.1"
   height="128"
   width="128">
  <metadata
     id="metadata62">
    <rdf:RDF>
      <cc:Work
         rdf:about="">
        <dc:format>image/svg+xml</dc:format>
        <dc:type
           rdf:resource="http://purl.org/dc/dcmitype/StillImage" />
        <dc:title></dc:title>
      </cc:Work>
    </rdf:RDF>
  </metadata>
  <sodipodi:namedview
     inkscape:current-layer="svg58"
     inkscape:cy="69.695217"
     inkscape:cx="64"
     inkscape:zoom="1"
     inkscape:snap-others="false"
     inkscape:snap-nodes="false"
     inkscape:bbox-nodes="true"
     inkscape:snap-bbox="true"
     showgrid="false"
     id="namedview60"
     inkscape:window-height="480"
     inkscape:window-width="640"
     inkscape:pageshadow="2"
     inkscape:pageopacity="0"
     guidetolerance="10"
     gridtolerance="10"
     objecttolerance="10"
     borderopacity="1"
     bordercolor="#666666"
     pagecolor="#ffffff">
    <inkscape:grid
       id="grid904"
       type="xygrid" />
  </sodipodi:namedview>
  <defs
     id="defs32">
    <linearGradient
       gradientUnits="userSpaceOnUse"
       gradientTransform="matrix(2.3622,0,0,2.5197,-79.898,-346.48)"
       y2="153.38"
       y1="140.14999"
       x2="43.455002"
       x1="43.455002"
       id="linearGradient882">
      <stop
         id="stop2"
         offset="0"
         stop-color="#333" />
      <stop
         id="stop4"
         offset="1" />
    </linearGradient>
    <linearGradient
       gradientUnits="userSpaceOnUse"
       gradientTransform="matrix(0.8,0,0,0.8,7.368,28.666)"
       y2="153.38"
       y1="140.14999"
       x2="39.486"
       x1="39.486"
       id="linearGradient890">
      <stop
         id="stop7"
         offset="0"
         stop-color="#333" />
      <stop
         id="stop9"
         offset="1" />
    </linearGradient>
    <linearGradient
       gradientUnits="userSpaceOnUse"
       gradientTransform="matrix(0.8,0,0,0.8,5.9922,28.666)"
       y2="153.38"
       y1="140.14999"
       x2="48.745998"
       x1="48.745998"
       id="linearGradient898">
      <stop
         id="stop12"
         offset="0"
         stop-color="#333" />
      <stop
         id="stop14"
         offset="1" />
    </linearGradient>
    <linearGradient
       gradientUnits="userSpaceOnUse"
       gradientTransform="matrix(1,0,0,0.77778,-1.3181e-7,33.203)"
       y2="151.78999"
       y1="149.41"
       x2="42.924999"
       x1="42.924999"
       id="linearGradient899">
      <stop
         id="stop17"
         offset="0"
         stop-color="#4d4d4d" />
      <stop
         id="stop19"
         offset="1"
         stop-color="#1a1a1a" />
    </linearGradient>
    <linearGradient
       gradientUnits="userSpaceOnUse"
       gradientTransform="translate(-2.3584e-6,-0.26456)"
       y2="147.56"
       y1="146.5"
       x2="41.073002"
       x1="41.073002"
       id="linearGradient986">
      <stop
         id="stop22"
         offset="0"
         stop-color="#520" />
      <stop
         id="stop24"
         offset="1"
         stop-color="#2b1100" />
    </linearGradient>
    <linearGradient
       gradientUnits="userSpaceOnUse"
       gradientTransform="matrix(0.16659,0,0,0.18676,36.659,144.08)"
       y2="3.2514"
       y1="33.043999"
       x2="31.836"
       x1="31.836"
       id="linearGradient1024">
      <stop
         id="stop27"
         offset="0"
         stop-color="#2ca0b9" />
      <stop
         id="stop29"
         offset="1"
         stop-color="#87deaa" />
    </linearGradient>
  </defs>
  <g
     id="g56"
     transform="matrix(2.799995,0,0,2.799995,-100.29405,-394.75038)">
    <path
       id="path34"
       style="fill:url(#linearGradient882);paint-order:markers fill stroke"
       fill="url(#linearGradient882)"
       d="M 7,8 C 5.2006,8 4,9.2025 4,11 v 26 c 0,1.7975 1.2084,3 3,3 h 34 c 1.0883,0 3,-1.1998 3,-3 V 11 C 44,9.1998 42.7954,8 41,8 Z m 8,12 c 1.6569,0 3,1.3431 3,3 0,1.6569 -1.3431,3 -3,3 -1.6569,0 -3,-1.3431 -3,-3 0,-1.6569 1.3431,-3 3,-3 z m 18,0 c 1.6569,0 3,1.3431 3,3 0,1.6569 -1.3431,3 -3,3 -1.6569,0 -3,-1.3431 -3,-3 0,-1.6569 1.3431,-3 3,-3 z"
       transform="matrix(0.26458,0,0,0.26458,35.517,140.68)" />
    <g
       id="g38"
       transform="translate(-0.1233,-1.0943)">
      <path
         id="path36"
         style="fill:url(#linearGradient1024);paint-order:markers fill stroke"
         fill="url(#linearGradient1024)"
         d="m 37.492,145.22 3e-6,4.4979 c 0,0.26444 0.26461,0.52916 0.52916,0.52916 h 7.9375 c 0.26469,0 0.52917,-0.26341 0.52917,-0.52916 V 145.22 c 0,-0.26424 -0.26338,-0.52917 -0.52917,-0.52917 h -7.9375 c -0.26491,0 -0.52917,0.26357 -0.52917,0.52917 z m 2.1167,1.8521 c 0.43838,0 0.79375,0.35537 0.79375,0.79375 0,0.43838 -0.35537,0.79375 -0.79375,0.79375 -0.43838,0 -0.79375,-0.35537 -0.79375,-0.79375 0,-0.43838 0.35537,-0.79375 0.79375,-0.79375 z m 4.7625,0 c 0.43838,0 0.79375,0.35537 0.79375,0.79375 0,0.43838 -0.35537,0.79375 -0.79375,0.79375 -0.43838,0 -0.79375,-0.35537 -0.79375,-0.79375 0,-0.43838 0.35537,-0.79375 0.79375,-0.79375 z" />
    </g>
    <g
       id="g46">
      <path
         id="path40"
         fill="url(#linearGradient899)"
         d="m 37.369,151.27 1.0583,-1.8521 h 6.8792 l 1.0583,1.8521 z"
         style="fill:url(#linearGradient899)" />
      <circle
         id="circle42"
         style="fill:url(#linearGradient890);paint-order:markers fill stroke"
         fill="url(#linearGradient890)"
         r="0.52916998"
         cy="150.21001"
         cx="39.486" />
      <circle
         id="circle44"
         style="fill:url(#linearGradient898);paint-order:markers fill stroke"
         fill="url(#linearGradient898)"
         r="0.52916998"
         cy="150.21001"
         cx="44.248001" />
    </g>
    <g
       id="g54">
      <path
         id="path48"
         style="paint-order:markers fill stroke"
         d="m 39.486,145.71 c -0.58246,0 -1.0584,0.47664 -1.0584,1.0576 0,0.58236 0.47503,1.0583 1.0584,1.0583 l 4.7625,-1e-5 c 0.58078,0 1.0583,-0.47548 1.0583,-1.0568 v -0.002 c 0,-0.58131 -0.47749,-1.0584 -1.0583,-1.0583 z m 0,0.26381 c 0.43838,0 0.79375,0.35537 0.79375,0.79375 0,0.43838 -0.35537,0.79375 -0.79375,0.79375 -0.43838,0 -0.79375,-0.35537 -0.79375,-0.79375 0,-0.43838 0.35537,-0.79375 0.79375,-0.79375 z m 4.7625,0 c 0.43838,0 0.79375,0.35537 0.79375,0.79375 0,0.43838 -0.35537,0.79375 -0.79375,0.79375 -0.43838,0 -0.79375,-0.35537 -0.79375,-0.79375 0,-0.43838 0.35537,-0.79375 0.79375,-0.79375 z" />
      <rect
         id="rect50"
         style="paint-order:markers fill stroke"
         fill="#dbe2e3"
         height="1.0583"
         width="2.6458001"
         y="146.24001"
         x="40.543999" />
      <path
         id="path52"
         style="fill:url(#linearGradient986);paint-order:markers fill stroke"
         fill="url(#linearGradient986)"
         d="m 40.544,146.24 v 1.0583 h 0.96583 a 1.5875,1.5875 0 0 0 0.0925,-0.52916 1.5875,1.5875 0 0 0 -0.0925,-0.52917 z" />
    </g>
  </g>
</svg>
