<?xml version="1.0" encoding="UTF-8" standalone="no"?>
<svg
   xmlns:dc="http://purl.org/dc/elements/1.1/"
   xmlns:cc="http://creativecommons.org/ns#"
   xmlns:rdf="http://www.w3.org/1999/02/22-rdf-syntax-ns#"
   xmlns:svg="http://www.w3.org/2000/svg"
   xmlns="http://www.w3.org/2000/svg"
   xmlns:xlink="http://www.w3.org/1999/xlink"
   xmlns:sodipodi="http://sodipodi.sourceforge.net/DTD/sodipodi-0.dtd"
   xmlns:inkscape="http://www.inkscape.org/namespaces/inkscape"
   width="128"
   height="128"
   viewBox="0 0 128 128"
   version="1.1"
   id="svg39"
   sodipodi:docname="filezilla.svg"
   inkscape:version="1.0.2 (e86c870879, 2021-01-15)">
  <metadata
     id="metadata43">
    <rdf:RDF>
      <cc:Work
         rdf:about="">
        <dc:format>image/svg+xml</dc:format>
        <dc:type
           rdf:resource="http://purl.org/dc/dcmitype/StillImage" />
        <dc:title></dc:title>
      </cc:Work>
    </rdf:RDF>
  </metadata>
  <sodipodi:namedview
     pagecolor="#ffffff"
     bordercolor="#666666"
     borderopacity="1"
     objecttolerance="10"
     gridtolerance="10"
     guidetolerance="10"
     inkscape:pageopacity="0"
     inkscape:pageshadow="2"
     inkscape:window-width="640"
     inkscape:window-height="480"
     id="namedview41"
     showgrid="false"
     inkscape:snap-page="true"
     inkscape:snap-bbox="true"
     inkscape:zoom="1"
     inkscape:cx="23.642152"
     inkscape:cy="72.479678"
     inkscape:current-layer="svg39">
    <inkscape:grid
       type="xygrid"
       id="grid883"
       spacingx="1"
       spacingy="1" />
  </sodipodi:namedview>
  <defs
     id="defs17">
    <linearGradient
       id="a"
       y1="32"
       y2="16"
       x2="0"
       gradientUnits="userSpaceOnUse"
       gradientTransform="translate(384.57,504.8)">
      <stop
         stop-color="#f7abb2"
         id="stop2" />
      <stop
         offset="1"
         stop-color="#f9dce0"
         id="stop4" />
    </linearGradient>
    <linearGradient
       id="b"
       y1="17"
       x1="18"
       y2="32"
       x2="33"
       gradientUnits="userSpaceOnUse"
       gradientTransform="translate(0,5)">
      <stop
         stop-color="#383e51"
         id="stop7" />
      <stop
         offset="1"
         stop-color="#655c6f"
         stop-opacity="0"
         id="stop9" />
    </linearGradient>
    <linearGradient
       id="c"
       y1="543.79999"
       y2="509.79999"
       gradientUnits="userSpaceOnUse"
       x2="0"
       gradientTransform="matrix(-1,0,0,1,817.14,0)">
      <stop
         stop-color="#c61423"
         id="stop12" />
      <stop
         offset="1"
         stop-color="#dc2b41"
         id="stop14" />
    </linearGradient>
    <linearGradient
       x1="187.94679"
       y1="123.8594"
       x2="187.94679"
       y2="258.86539"
       id="XMLID_2_"
       gradientUnits="userSpaceOnUse">
      <stop
         id="stop2308"
         style="stop-color:#bf0000;stop-opacity:1"
         offset="0" />
      <stop
         id="stop2310"
         style="stop-color:#8f0000;stop-opacity:1"
         offset="1" />
    </linearGradient>
    <linearGradient
       x1="187.94679"
       y1="123.8594"
       x2="187.94679"
       y2="258.86539"
       id="linearGradient3060"
       xlink:href="#XMLID_2_"
       gradientUnits="userSpaceOnUse"
       gradientTransform="matrix(2.1744399,0,0,2.1743699,-218.68699,-223.17198)" />
  </defs>
  <g
     id="g1013"
     transform="matrix(0.29473625,0,0,0.29473625,8,8.0002039)">
    <path
       d="m 0,12.72441 v 16.77526 c 7.01474,0 12.72264,5.70772 12.72264,12.72007 0,7.01669 -5.7079,12.72441 -12.72264,12.72441 v 16.77526 c 7.01474,0 12.72264,5.70773 12.72264,12.72007 0,7.01669 -5.7079,12.72441 -12.72264,12.72441 v 16.77527 c 7.01474,0 12.72264,5.70772 12.72264,12.72876 0,7.02104 -5.7079,12.72876 -12.72264,12.72876 v 16.77526 c 7.01474,0 12.72264,5.70338 12.72264,12.72007 0,7.01669 -5.7079,12.72441 -12.72264,12.72441 v 16.77526 c 7.01474,0 12.72264,5.70338 12.72264,12.72007 0,7.01669 -5.7079,12.72441 -12.72264,12.72441 v 16.77526 c 7.01474,0 12.72264,5.70338 12.72264,12.72007 0,7.01669 -5.7079,12.72441 -12.72264,12.72441 v 16.77526 c 7.01474,0 12.72264,5.70338 12.72264,12.72007 0,7.01669 -5.7079,12.72441 -12.72264,12.72441 v 16.77527 c 7.01474,0 12.72264,5.70337 12.72264,12.72006 0,7.01669 -5.7079,12.72441 -12.72264,12.72441 v 16.78396 c 3.34863,0 6.62769,1.35464 8.99783,3.7247 2.36579,2.36571 3.72481,5.64466 3.72481,8.99537 h 16.77581 c 0,-7.01669 5.7079,-12.72007 12.72265,-12.72007 7.01474,0 12.72264,5.70338 12.72264,12.72007 h 16.77581 c 0,-7.01669 5.7079,-12.72007 12.72264,-12.72007 7.01475,0 12.72265,5.70338 12.72265,12.72007 h 16.77581 c 0,-7.01669 5.70791,-12.72007 12.72265,-12.72007 7.01474,0 12.72265,5.70338 12.72265,12.72007 h 16.7758 c 0,-7.01669 5.70791,-12.72007 12.72265,-12.72007 7.01474,0 12.72265,5.70338 12.72265,12.72007 h 16.7758 c 0,-7.01669 5.7079,-12.72007 12.72264,-12.72007 7.01475,0 12.72265,5.70338 12.72265,12.72007 h 16.7758 c 0,-7.01669 5.7079,-12.72007 12.72265,-12.72007 7.01474,0 12.72265,5.70338 12.72265,12.72007 h 16.7758 c 0,-7.01669 5.7079,-12.72007 12.72265,-12.72007 7.01474,0 12.72264,5.70338 12.72264,12.72007 h 16.77581 c 0,-7.01669 5.7079,-12.72007 12.72265,-12.72007 7.01474,0 12.72264,5.70338 12.72264,12.72007 h 16.78451 c 0,-3.35071 1.35903,-6.62966 3.72916,-8.99537 2.36579,-2.37006 5.64485,-3.7247 8.99566,-3.7247 v -16.77526 c -7.01692,0 -12.72482,-5.70772 -12.72482,-12.72441 0,-7.0167 5.7079,-12.72007 12.72482,-12.72007 v -16.77526 c -7.01692,0 -12.72482,-5.70772 -12.72482,-12.72441 0,-7.0167 5.7079,-12.72007 12.72482,-12.72007 V 266.0646 c -7.01692,0 -12.72482,-5.70772 -12.72482,-12.72441 0,-7.0167 5.7079,-12.72007 12.72482,-12.72007 v -16.77526 c -7.01692,0 -12.72482,-5.70772 -12.72482,-12.72441 0,-7.0167 5.7079,-12.72007 12.72482,-12.72007 v -16.77526 c -7.01692,0 -12.72482,-5.70772 -12.72482,-12.72441 0,-7.0167 5.7079,-12.72007 12.72482,-12.72007 v -16.77526 c -7.01692,0 -12.72482,-5.70772 -12.72482,-12.72876 0,-7.02104 5.7079,-12.72877 12.72482,-12.72877 V 97.17259 c -7.01692,0 -12.72482,-5.70772 -12.72482,-12.72441 0,-7.01235 5.7079,-12.72007 12.72482,-12.72007 V 54.95285 c -7.01692,0 -12.72482,-5.70772 -12.72482,-12.72441 0,-7.01235 5.7079,-12.72007 12.72482,-12.72007 V 12.72441 c -3.35081,0 -6.62987,-1.35898 -8.99566,-3.7247 C 368.63497,6.62965 367.27595,3.3507 367.27595,0 h -16.77581 c 0,7.01669 -5.7079,12.72441 -12.72265,12.72441 -7.01474,0 -12.72264,-5.70772 -12.72264,-12.72441 h -16.77581 c 0,7.01669 -5.7079,12.72441 -12.72265,12.72441 -7.01474,0 -12.72264,-5.70772 -12.72264,-12.72441 h -16.77581 c 0,7.01669 -5.7079,12.72441 -12.72265,12.72441 -7.01474,0 -12.72264,-5.70772 -12.72264,-12.72441 h -16.77581 c 0,7.01669 -5.7079,12.72441 -12.72264,12.72441 -7.01475,0 -12.72265,-5.70772 -12.72265,-12.72441 h -16.77581 c 0,7.01669 -5.7079,12.72441 -12.72264,12.72441 -7.01475,0 -12.72265,-5.70772 -12.72265,-12.72441 h -16.77581 c 0,7.01669 -5.7079,12.72441 -12.72264,12.72441 -7.01475,0 -12.72265,-5.70772 -12.72265,-12.72441 H 97.17354 c 0,7.01669 -5.7079,12.72441 -12.72265,12.72441 C 77.43615,12.72441 71.72824,7.01669 71.72824,0 h -16.7758 c 0,7.01669 -5.7079,12.72441 -12.72265,12.72441 C 35.21505,12.72441 29.50714,7.01669 29.50714,0 h -16.7845 c 0,3.3507 -1.35902,6.62965 -3.72481,8.99971 C 6.62769,11.36543 3.34863,12.72441 0,12.72441 Z"
       id="path2312"
       style="fill:url(#linearGradient3060)" />
    <path
       d="M 323.71322,152.04934 H 134.09119 l 9.89587,-46.29886 H 259.55854 L 270.16111,55.91827 H 104.04695 L 51.73862,302.60923 h 50.18825 l 22.96861,-107.79656 h 120.37917 l -104.60144,103.55437 18.37837,32.51335 c 8.48032,-5.65336 22.26409,-6.36221 31.80771,-6.36221 16.96715,0 33.5777,5.65771 50.89059,5.65771 15.87558,0 32.12735,-1.06109 58.63812,-13.7855 l 9.26311,-43.47 c -18.02828,7.41895 -44.70214,14.49 -67.90123,14.49 -9.5371,0 -18.37402,-2.12001 -27.5632,-3.53335 l 101.39631,-98.60333 z"
       id="path2314"
       style="fill:#ffffff" />
  </g>
</svg>
