<?xml version="1.0" encoding="UTF-8" standalone="no"?>
<!-- Created with Inkscape (http://www.inkscape.org/) -->

<svg
   xmlns:dc="http://purl.org/dc/elements/1.1/"
   xmlns:cc="http://creativecommons.org/ns#"
   xmlns:rdf="http://www.w3.org/1999/02/22-rdf-syntax-ns#"
   xmlns:svg="http://www.w3.org/2000/svg"
   xmlns="http://www.w3.org/2000/svg"
   xmlns:xlink="http://www.w3.org/1999/xlink"
   xmlns:sodipodi="http://sodipodi.sourceforge.net/DTD/sodipodi-0.dtd"
   xmlns:inkscape="http://www.inkscape.org/namespaces/inkscape"
   width="128"
   height="128"
   viewBox="0 0 33.866666 33.866668"
   version="1.1"
   id="svg8"
   inkscape:version="0.92.3 (2405546, 2018-03-11)"
   sodipodi:docname="firmwarel.svg">
  <defs
     id="defs2">
    <linearGradient
       inkscape:collect="always"
       id="linearGradient3340">
      <stop
         style="stop-color:#505050;stop-opacity:1"
         offset="0"
         id="stop3336" />
      <stop
         style="stop-color:#191919;stop-opacity:1"
         offset="1"
         id="stop3338" />
    </linearGradient>
    <linearGradient
       inkscape:collect="always"
       xlink:href="#linearGradient3340"
       id="linearGradient4730"
       x1="4.2333331"
       y1="276.89166"
       x2="29.633333"
       y2="276.89166"
       gradientUnits="userSpaceOnUse"
       gradientTransform="translate(-3.3333333e-7,1.0583267)" />
    <linearGradient
       inkscape:collect="always"
       xlink:href="#linearGradient3340"
       id="linearGradient4888"
       x1="24.341667"
       y1="272.65833"
       x2="27.516666"
       y2="269.48331"
       gradientUnits="userSpaceOnUse" />
  </defs>
  <sodipodi:namedview
     id="base"
     pagecolor="#ffffff"
     bordercolor="#666666"
     borderopacity="1.0"
     inkscape:pageopacity="0.0"
     inkscape:pageshadow="2"
     inkscape:zoom="1"
     inkscape:cx="103.46319"
     inkscape:cy="78.474807"
     inkscape:document-units="mm"
     inkscape:current-layer="layer1"
     showgrid="false"
     units="px"
     inkscape:snap-bbox="true"
     inkscape:bbox-paths="false"
     inkscape:bbox-nodes="true"
     inkscape:snap-bbox-edge-midpoints="false"
     inkscape:snap-bbox-midpoints="false"
     inkscape:snap-nodes="false"
     inkscape:snap-page="false"
     inkscape:snap-grids="true"
     inkscape:window-width="1600"
     inkscape:window-height="837"
     inkscape:window-x="-8"
     inkscape:window-y="-8"
     inkscape:window-maximized="1">
    <inkscape:grid
       type="xygrid"
       id="grid4716" />
  </sodipodi:namedview>
  <metadata
     id="metadata5">
    <rdf:RDF>
      <cc:Work
         rdf:about="">
        <dc:format>image/svg+xml</dc:format>
        <dc:type
           rdf:resource="http://purl.org/dc/dcmitype/StillImage" />
        <dc:title></dc:title>
      </cc:Work>
    </rdf:RDF>
  </metadata>
  <g
     inkscape:label="Layer 1"
     inkscape:groupmode="layer"
     id="layer1"
     transform="translate(0,-263.13332)">
    <path
       style="opacity:1;fill:#525254;fill-opacity:1;stroke:none;stroke-width:0.81154191;stroke-linecap:square;stroke-linejoin:miter;stroke-miterlimit:4;stroke-dasharray:none;stroke-opacity:1;paint-order:markers fill stroke"
       id="path2242"
       ry="0.79374999"
       rx="0.79374939"
       cy="295.28018"
       cx="25.53229"
       d=""
       inkscape:connector-curvature="0" />
    <path
       style="opacity:1;fill:#525254;fill-opacity:1;stroke:none;stroke-width:0.74083328;stroke-linecap:square;stroke-linejoin:miter;stroke-miterlimit:4;stroke-dasharray:none;stroke-opacity:1;paint-order:markers fill stroke"
       id="path2244"
       r="0.79374999"
       cy="296.07394"
       cx="27.648956"
       d=""
       inkscape:connector-curvature="0" />
    <path
       style="opacity:1;fill:#525254;fill-opacity:1;stroke:none;stroke-width:0.81154209;stroke-linecap:square;stroke-linejoin:miter;stroke-miterlimit:4;stroke-dasharray:none;stroke-opacity:1;paint-order:markers fill stroke"
       id="path2246"
       ry="0.79374999"
       rx="0.79374975"
       cy="298.19061"
       cx="28.178123"
       d=""
       inkscape:connector-curvature="0" />
    <g
       id="g4789"
       transform="translate(-1.0583327,-1.0583267)">
      <path
         style="fill:#f1d58f;fill-opacity:1;stroke:none;stroke-width:0.26458332px;stroke-linecap:butt;stroke-linejoin:miter;stroke-opacity:1"
         d="m 3.1749997,281.12498 2.116667,2.11667 2.116666,-2.11667 -2.116666,-2.11667 z"
         id="path4756"
         inkscape:connector-curvature="0" />
      <path
         inkscape:connector-curvature="0"
         id="path4758"
         d="m 6.3499997,277.94998 2.116667,2.11667 2.1166663,-2.11667 -2.1166663,-2.11667 z"
         style="fill:#f1d58f;fill-opacity:1;stroke:none;stroke-width:0.26458332px;stroke-linecap:butt;stroke-linejoin:miter;stroke-opacity:1" />
      <path
         style="fill:#f1d58f;fill-opacity:1;stroke:none;stroke-width:0.26458332px;stroke-linecap:butt;stroke-linejoin:miter;stroke-opacity:1"
         d="m 9.5249997,274.77498 2.1166673,2.11667 2.116666,-2.11667 -2.116666,-2.11667 z"
         id="path4760"
         inkscape:connector-curvature="0" />
      <path
         inkscape:connector-curvature="0"
         id="path4762"
         d="m 12.699999,271.59998 2.116668,2.11667 2.116666,-2.11667 -2.116666,-2.11667 z"
         style="fill:#f1d58f;fill-opacity:1;stroke:none;stroke-width:0.26458332px;stroke-linecap:butt;stroke-linejoin:miter;stroke-opacity:1" />
      <path
         style="fill:#f1d58f;fill-opacity:1;stroke:none;stroke-width:0.26458332px;stroke-linecap:butt;stroke-linejoin:miter;stroke-opacity:1"
         d="m 15.874999,268.42498 2.116668,2.11667 2.116666,-2.11667 -2.116666,-2.11667 z"
         id="path4764"
         inkscape:connector-curvature="0" />
    </g>
    <path
       style="fill:url(#linearGradient4730);fill-opacity:1;stroke:none;stroke-width:0.26458332px;stroke-linecap:butt;stroke-linejoin:miter;stroke-opacity:1"
       d="M 31.75,275.83332 21.166666,265.24998 2.1166664,284.29998 12.7,294.88332 Z"
       id="path4722"
       inkscape:connector-curvature="0"
       sodipodi:nodetypes="ccccc" />
    <g
       id="g4796"
       transform="translate(1.0583333,1.05833)">
      <path
         inkscape:connector-curvature="0"
         id="path4754"
         d="M 13.758333,291.70832 15.875,293.82499 17.991666,291.70832 15.875,289.59165 Z"
         style="fill:#f1d58f;fill-opacity:1;stroke:none;stroke-width:0.26458332px;stroke-linecap:butt;stroke-linejoin:miter;stroke-opacity:1" />
      <path
         inkscape:connector-curvature="0"
         id="path4766"
         d="M 16.933332,288.53332 19.05,290.64999 21.166666,288.53332 19.05,286.41665 Z"
         style="fill:#f1d58f;fill-opacity:1;stroke:none;stroke-width:0.26458332px;stroke-linecap:butt;stroke-linejoin:miter;stroke-opacity:1" />
      <path
         style="fill:#f1d58f;fill-opacity:1;stroke:none;stroke-width:0.26458332px;stroke-linecap:butt;stroke-linejoin:miter;stroke-opacity:1"
         d="M 20.108332,285.35832 22.225,287.47499 24.341666,285.35832 22.225,283.24165 Z"
         id="path4768"
         inkscape:connector-curvature="0" />
      <path
         inkscape:connector-curvature="0"
         id="path4770"
         d="m 23.283333,282.18332 2.116668,2.11667 2.116666,-2.11667 -2.116666,-2.11667 z"
         style="fill:#f1d58f;fill-opacity:1;stroke:none;stroke-width:0.26458332px;stroke-linecap:butt;stroke-linejoin:miter;stroke-opacity:1" />
      <path
         style="fill:#f1d58f;fill-opacity:1;stroke:none;stroke-width:0.26458332px;stroke-linecap:butt;stroke-linejoin:miter;stroke-opacity:1"
         d="m 26.458333,279.00832 2.116668,2.11667 2.116666,-2.11667 -2.116666,-2.11667 z"
         id="path4772"
         inkscape:connector-curvature="0" />
    </g>
    <path
       style="fill:url(#linearGradient4888);fill-opacity:1;stroke:none;stroke-width:0.26458332px;stroke-linecap:butt;stroke-linejoin:miter;stroke-opacity:1"
       d="m 25.4,269.48332 -3.175,3.175 2.116666,2.11667 3.175,-3.175 z"
       id="path4880"
       inkscape:connector-curvature="0" />
    <g
       aria-label="firmware"
       transform="rotate(-45,-0.69123455,-1.151148)"
       style="font-style:normal;font-variant:normal;font-weight:normal;font-stretch:normal;font-size:4.23333311px;line-height:1.25;font-family:Arial;-inkscape-font-specification:Arial;letter-spacing:0px;word-spacing:0px;fill:#e5e5e5;fill-opacity:1;stroke:none;stroke-width:0.26458332"
       id="text4892">
      <path
         d="m -197.66409,211.5517 v -1.90583 h -0.32866 v -0.28939 h 0.32866 v -0.23358 q 0,-0.22117 0.0393,-0.32866 0.0538,-0.14469 0.1881,-0.23357 0.13643,-0.091 0.38034,-0.091 0.1571,0 0.34727,0.0372 l -0.0558,0.32453 q -0.11576,-0.0207 -0.21911,-0.0207 -0.1695,0 -0.23978,0.0724 -0.0703,0.0723 -0.0703,0.27078 v 0.20257 h 0.42788 v 0.28939 h -0.42788 v 1.90583 z"
         style="font-style:normal;font-variant:normal;font-weight:normal;font-stretch:normal;font-family:Arial;-inkscape-font-specification:Arial;fill:#e5e5e5;fill-opacity:1;stroke-width:0.26458332"
         id="path4894"
         inkscape:connector-curvature="0" />
      <path
         d="m -196.57682,208.94927 v -0.42788 h 0.37207 v 0.42788 z m 0,2.60243 v -2.19522 h 0.37207 v 2.19522 z"
         style="font-style:normal;font-variant:normal;font-weight:normal;font-stretch:normal;font-family:Arial;-inkscape-font-specification:Arial;fill:#e5e5e5;fill-opacity:1;stroke-width:0.26458332"
         id="path4896"
         inkscape:connector-curvature="0" />
      <path
         d="m -195.64044,211.5517 v -2.19522 h 0.33486 v 0.3328 q 0.12816,-0.23358 0.23564,-0.30799 0.10956,-0.0744 0.23978,-0.0744 0.18811,0 0.38241,0.11989 l -0.12816,0.3452 q -0.13642,-0.0806 -0.27285,-0.0806 -0.12196,0 -0.21911,0.0744 -0.0971,0.0724 -0.13849,0.20257 -0.062,0.19844 -0.062,0.43408 v 1.14929 z"
         style="font-style:normal;font-variant:normal;font-weight:normal;font-stretch:normal;font-family:Arial;-inkscape-font-specification:Arial;fill:#e5e5e5;fill-opacity:1;stroke-width:0.26458332"
         id="path4898"
         inkscape:connector-curvature="0" />
      <path
         d="m -194.22244,211.5517 v -2.19522 h 0.33279 v 0.30799 q 0.10336,-0.16123 0.27492,-0.25838 0.17157,-0.0992 0.39068,-0.0992 0.24391,0 0.39894,0.10129 0.1571,0.10128 0.22117,0.28319 0.26045,-0.38448 0.678,-0.38448 0.32659,0 0.50229,0.1819 0.1757,0.17984 0.1757,0.55604 v 1.50689 h -0.37 v -1.38286 q 0,-0.22325 -0.0372,-0.3204 -0.0351,-0.0992 -0.13022,-0.15916 -0.0951,-0.0599 -0.22324,-0.0599 -0.23151,0 -0.38448,0.15503 -0.15296,0.15297 -0.15296,0.49196 v 1.27538 h -0.37207 v -1.42627 q 0,-0.24805 -0.091,-0.37207 -0.0909,-0.12403 -0.29766,-0.12403 -0.15709,0 -0.29145,0.0827 -0.13229,0.0827 -0.19224,0.24184 -0.0599,0.15916 -0.0599,0.45889 v 1.13895 z"
         style="font-style:normal;font-variant:normal;font-weight:normal;font-stretch:normal;font-family:Arial;-inkscape-font-specification:Arial;fill:#e5e5e5;fill-opacity:1;stroke-width:0.26458332"
         id="path4900"
         inkscape:connector-curvature="0" />
      <path
         d="m -190.28677,211.5517 -0.67179,-2.19522 h 0.38447 l 0.34934,1.26711 0.13022,0.47129 q 0.008,-0.0351 0.11369,-0.45269 l 0.34933,-1.28571 h 0.38241 l 0.32866,1.27331 0.10955,0.41961 0.12609,-0.42374 0.37621,-1.26918 h 0.36173 l -0.68626,2.19522 h -0.38654 l -0.34933,-1.31465 -0.0848,-0.37414 -0.44442,1.68879 z"
         style="font-style:normal;font-variant:normal;font-weight:normal;font-stretch:normal;font-family:Arial;-inkscape-font-specification:Arial;fill:#e5e5e5;fill-opacity:1;stroke-width:0.26458332"
         id="path4902"
         inkscape:connector-curvature="0" />
      <path
         d="m -186.20019,211.28091 q -0.20671,0.1757 -0.39895,0.24805 -0.19016,0.0724 -0.40927,0.0724 -0.36174,0 -0.55604,-0.1757 -0.1943,-0.17777 -0.1943,-0.45269 0,-0.16123 0.0723,-0.29352 0.0744,-0.13436 0.19224,-0.21498 0.11989,-0.0806 0.26872,-0.12195 0.10955,-0.0289 0.33073,-0.0558 0.45061,-0.0538 0.66352,-0.12816 0.002,-0.0765 0.002,-0.0971 0,-0.22738 -0.10542,-0.3204 -0.14263,-0.12609 -0.42375,-0.12609 -0.26251,0 -0.38861,0.093 -0.12402,0.091 -0.18396,0.32453 l -0.36381,-0.0496 q 0.0496,-0.23358 0.1633,-0.3762 0.11369,-0.1447 0.32866,-0.22118 0.21498,-0.0786 0.49816,-0.0786 0.28112,0 0.45682,0.0661 0.1757,0.0661 0.25839,0.16743 0.0827,0.0992 0.11575,0.25218 0.0186,0.0951 0.0186,0.34313 v 0.4961 q 0,0.51883 0.0227,0.65732 0.0248,0.13643 0.0951,0.26252 h -0.38861 q -0.0579,-0.11576 -0.0744,-0.27079 z m -0.031,-0.83095 q -0.20257,0.0827 -0.60771,0.14056 -0.22945,0.0331 -0.32453,0.0744 -0.0951,0.0413 -0.14676,0.12196 -0.0517,0.0785 -0.0517,0.1757 0,0.14882 0.11162,0.24804 0.11369,0.0992 0.33073,0.0992 0.21497,0 0.38241,-0.093 0.16743,-0.0951 0.24598,-0.25838 0.0599,-0.12609 0.0599,-0.37207 z"
         style="font-style:normal;font-variant:normal;font-weight:normal;font-stretch:normal;font-family:Arial;-inkscape-font-specification:Arial;fill:#e5e5e5;fill-opacity:1;stroke-width:0.26458332"
         id="path4904"
         inkscape:connector-curvature="0" />
      <path
         d="m -185.28035,211.5517 v -2.19522 h 0.33486 v 0.3328 q 0.12816,-0.23358 0.23565,-0.30799 0.10955,-0.0744 0.23977,-0.0744 0.18811,0 0.38241,0.11989 l -0.12816,0.3452 q -0.13642,-0.0806 -0.27285,-0.0806 -0.12196,0 -0.21911,0.0744 -0.0971,0.0724 -0.13849,0.20257 -0.062,0.19844 -0.062,0.43408 v 1.14929 z"
         style="font-style:normal;font-variant:normal;font-weight:normal;font-stretch:normal;font-family:Arial;-inkscape-font-specification:Arial;fill:#e5e5e5;fill-opacity:1;stroke-width:0.26458332"
         id="path4906"
         inkscape:connector-curvature="0" />
      <path
         d="m -182.3596,210.84476 0.38447,0.0476 q -0.0909,0.33693 -0.33693,0.52296 -0.24598,0.18604 -0.62838,0.18604 -0.48163,0 -0.76482,-0.29559 -0.28111,-0.29766 -0.28111,-0.83303 0,-0.55397 0.28525,-0.85989 0.28525,-0.30593 0.74001,-0.30593 0.44028,0 0.71933,0.29973 0.27905,0.29972 0.27905,0.84336 0,0.0331 -0.002,0.0992 h -1.63711 q 0.0207,0.36174 0.20464,0.55398 0.18396,0.19223 0.45888,0.19223 0.20464,0 0.34934,-0.10749 0.14469,-0.10748 0.22944,-0.34313 z m -1.22163,-0.60151 h 1.22576 q -0.0248,-0.27699 -0.14056,-0.41548 -0.17776,-0.21497 -0.46095,-0.21497 -0.25632,0 -0.43202,0.17156 -0.17363,0.17157 -0.19223,0.45889 z"
         style="font-style:normal;font-variant:normal;font-weight:normal;font-stretch:normal;font-family:Arial;-inkscape-font-specification:Arial;fill:#e5e5e5;fill-opacity:1;stroke-width:0.26458332"
         id="path4908"
         inkscape:connector-curvature="0" />
    </g>
  </g>
</svg>
