<?xml version="1.0" encoding="UTF-8" standalone="no"?>
<svg
   xmlns:dc="http://purl.org/dc/elements/1.1/"
   xmlns:cc="http://creativecommons.org/ns#"
   xmlns:rdf="http://www.w3.org/1999/02/22-rdf-syntax-ns#"
   xmlns:svg="http://www.w3.org/2000/svg"
   xmlns="http://www.w3.org/2000/svg"
   xmlns:xlink="http://www.w3.org/1999/xlink"
   xmlns:sodipodi="http://sodipodi.sourceforge.net/DTD/sodipodi-0.dtd"
   xmlns:inkscape="http://www.inkscape.org/namespaces/inkscape"
   width="128"
   height="128"
   viewBox="0 0 33.866666 33.866668"
   version="1.1"
   id="svg8"
   inkscape:version="1.0 (4035a4fb49, 2020-05-01)"
   sodipodi:docname="fontview.svg">
  <defs
     id="defs2">
    <linearGradient
       inkscape:collect="always"
       id="linearGradient1383">
      <stop
         style="stop-color:#ffffe3;stop-opacity:1"
         offset="0"
         id="stop1379" />
      <stop
         style="stop-color:#e3b65b;stop-opacity:1"
         offset="1"
         id="stop1381" />
    </linearGradient>
    <linearGradient
       inkscape:collect="always"
       id="linearGradient949">
      <stop
         style="stop-color:#323232;stop-opacity:1;"
         offset="0"
         id="stop945" />
      <stop
         style="stop-color:#667380;stop-opacity:1"
         offset="1"
         id="stop947" />
    </linearGradient>
    <linearGradient
       id="linearGradient5192"
       inkscape:collect="always">
      <stop
         id="stop5188"
         offset="0"
         style="stop-color:#cccccc;stop-opacity:1" />
      <stop
         id="stop5190"
         offset="1"
         style="stop-color:#999999;stop-opacity:1" />
    </linearGradient>
    <linearGradient
       inkscape:collect="always"
       id="linearGradient4821">
      <stop
         style="stop-color:#7fbefe;stop-opacity:1"
         offset="0"
         id="stop4817" />
      <stop
         style="stop-color:#246bb2;stop-opacity:1"
         offset="1"
         id="stop4819" />
    </linearGradient>
    <linearGradient
       inkscape:collect="always"
       xlink:href="#linearGradient4821"
       id="linearGradient4823"
       x1="3.175"
       y1="283.24164"
       x2="13.758334"
       y2="291.70831"
       gradientUnits="userSpaceOnUse"
       gradientTransform="matrix(1.9999999,0,0,2,6.9333337e-7,-296.99998)" />
    <linearGradient
       inkscape:collect="always"
       xlink:href="#linearGradient5192"
       id="linearGradient5143"
       x1="1.5874997"
       y1="281.65414"
       x2="15.345834"
       y2="295.41248"
       gradientUnits="userSpaceOnUse"
       gradientTransform="matrix(1.9999999,0,0,2,6.9333337e-7,-296.99998)" />
    <linearGradient
       inkscape:collect="always"
       xlink:href="#linearGradient949"
       id="linearGradient951"
       x1="7.4083333"
       y1="287.47498"
       x2="7.4083333"
       y2="285.35831"
       gradientUnits="userSpaceOnUse" />
    <linearGradient
       inkscape:collect="always"
       xlink:href="#linearGradient1383"
       id="linearGradient1385"
       x1="8.4666672"
       y1="270.54166"
       x2="26.458334"
       y2="285.35831"
       gradientUnits="userSpaceOnUse" />
  </defs>
  <sodipodi:namedview
     showguides="false"
     id="base"
     pagecolor="#ffffff"
     bordercolor="#666666"
     borderopacity="1.0"
     inkscape:pageopacity="0.0"
     inkscape:pageshadow="2"
     inkscape:zoom="1"
     inkscape:cx="47.365767"
     inkscape:cy="38.642067"
     inkscape:document-units="px"
     inkscape:current-layer="layer1"
     inkscape:document-rotation="0"
     showgrid="false"
     units="px"
     inkscape:snap-nodes="true"
     inkscape:snap-bbox="true"
     inkscape:bbox-nodes="true">
    <inkscape:grid
       type="xygrid"
       id="grid4267" />
  </sodipodi:namedview>
  <metadata
     id="metadata5">
    <rdf:RDF>
      <cc:Work
         rdf:about="">
        <dc:format>image/svg+xml</dc:format>
        <dc:type
           rdf:resource="http://purl.org/dc/dcmitype/StillImage" />
        <dc:title></dc:title>
      </cc:Work>
    </rdf:RDF>
  </metadata>
  <g
     inkscape:label="Layer 1"
     inkscape:groupmode="layer"
     id="layer1"
     transform="translate(0,-263.13332)">
    <rect
       style="fill:url(#linearGradient5143);fill-opacity:1;stroke:none;stroke-width:0.740834;stroke-miterlimit:4;stroke-dasharray:none;stroke-opacity:1;paint-order:markers stroke fill"
       id="rect5126"
       width="29.633333"
       height="29.63332"
       x="2.1166668"
       y="265.25"
       rx="1.9091799e-07"
       ry="0" />
    <g
       id="rect4775"
       transform="matrix(1.9999999,0,0,2,2.1156336,-297.68728)" />
    <g
       id="rect4835-9"
       transform="matrix(1.9999999,0,0,2,2.1177004,-296.62996)" />
    <g
       id="rect4839"
       transform="matrix(1.9999999,0,0,2,2.118734,-298.74664)" />
    <g
       aria-label="A"
       id="text4827"
       style="font-weight:bold;font-size:14.1111px;font-family:Georgia;-inkscape-font-specification:'Georgia Bold';fill:#000000;fill-opacity:0.196078;stroke:#efffbc;stroke-width:1.48167;stroke-miterlimit:4;stroke-dasharray:none;stroke-opacity:1;paint-order:markers stroke fill"
       transform="translate(0.96325359,0.26956042)" />
    <g
       aria-label="A"
       id="text4765"
       style="font-weight:bold;font-size:14.1111px;font-family:Georgia;-inkscape-font-specification:'Georgia Bold';fill:#ffffff;fill-opacity:1;stroke:#efffbc;stroke-width:1.48167;stroke-miterlimit:4;stroke-dasharray:none;stroke-opacity:1;paint-order:markers stroke fill"
       transform="translate(1.2822689,0.28798555)" />
    <g
       transform="matrix(1.9999999,0,0,2,21.1677,-291.33823)"
       id="g5149" />
    <text
       xml:space="preserve"
       style="font-size:3.52778px;line-height:0.75;font-family:Arial;-inkscape-font-specification:Arial;fill:#7fbefe;fill-opacity:1;fill-rule:evenodd;stroke-width:1.5875;stroke-linecap:round;stroke-linejoin:bevel;stroke-opacity:0.996109;paint-order:markers fill stroke;stop-color:#000000"
       x="7.4083333"
       y="284.29999"
       id="text1331"><tspan
         sodipodi:role="line"
         id="tspan1329"
         x="7.4083333"
         y="284.29999"
         style="font-size:3.52778px;stroke-width:1.5875" /></text>
    <g
       transform="matrix(1.027252,0,0,1.0706668,-0.29629293,-19.155238)"
       style="font-style:italic;font-variant:normal;font-weight:normal;font-stretch:normal;font-size:16.9333px;line-height:0.75;font-family:'TeX Gyre Pagella';-inkscape-font-specification:'TeX Gyre Pagella Italic';fill:#161616;fill-opacity:0.2;fill-rule:evenodd;stroke-width:1.5875;stroke-linecap:round;stroke-linejoin:bevel;stroke-opacity:0.996109;paint-order:markers fill stroke;stop-color:#000000"
       id="g1407"
       aria-label="Ff" />
    <g
       aria-label="Ff"
       id="text1347"
       style="font-style:italic;font-variant:normal;font-weight:normal;font-stretch:normal;font-size:16.9333px;line-height:0.75;font-family:'TeX Gyre Pagella';-inkscape-font-specification:'TeX Gyre Pagella Italic';fill:#ffffe3;fill-opacity:1;fill-rule:evenodd;stroke-width:1.5875;stroke-linecap:round;stroke-linejoin:bevel;stroke-opacity:0.996109;paint-order:markers fill stroke;stop-color:#000000"
       transform="matrix(1.027252,0,0,1.0706668,-0.82545912,-19.684393)" />
    <g
       style="font-style:italic;font-size:25.4px;line-height:0.75;font-family:'TeX Gyre Bonum';-inkscape-font-specification:'TeX Gyre Bonum Italic';fill:#010202;fill-opacity:0.2;fill-rule:evenodd;stroke-width:1.5875;stroke-linecap:round;stroke-linejoin:bevel;stroke-opacity:0.996109;paint-order:markers fill stroke;stop-color:#000000"
       id="text964"
       aria-label="Fv">
      <path
         sodipodi:nodetypes="scsccsccccccccsscccccscscccsccscccccs"
         id="path1006"
         style="font-style:italic;font-variant:normal;font-weight:normal;font-stretch:normal;font-size:25.4px;font-family:FreeSerif;-inkscape-font-specification:'FreeSerif Italic';stroke-width:1.5875"
         d="m 15.400895,281.57374 c 0,-0.52493 -0.135467,-0.84667 -0.4064,-0.9652 -0.254,-0.13547 -0.770467,-0.2032 -1.5494,-0.2032 -0.423334,0 -1.109134,-0.0254 -2.0574,-0.0762 l -1.5748004,5.6642 c -0.1524,0.5588 -0.2286,0.9398 -0.2286,1.143 0,0.38947 0.1354666,0.66887 0.4064,0.8382 0.2878664,0.1524 0.7958664,0.24553 1.5240004,0.2794 v 0.4064 H 5.1392946 v -0.4064 c 0.7281333,-0.1016 1.1938,-0.24553 1.397,-0.4318 0.2201333,-0.2032 0.4402666,-0.6858 0.6604,-1.4478 l 3.1241994,-11.2268 c 0.186267,-0.64347 0.279401,-1.18533 0.279401,-1.6256 0,-0.37253 -0.118534,-0.61807 -0.355601,-0.7366 -0.237066,-0.11853 -0.7704661,-0.22013 -1.6001994,-0.3048 v -0.4064 H 21.293695 l -0.8128,3.8862 -0.5334,-0.0508 c 0.0508,-0.54187 0.0762,-0.90593 0.0762,-1.0922 0,-0.77893 -0.3302,-1.28693 -0.9906,-1.524 -0.6604,-0.254 -2.0574,-0.381 -4.191,-0.381 -0.524934,0 -0.897467,0.0508 -1.1176,0.1524 -0.2032,0.0847 -0.347134,0.254 -0.4318,0.508 l -1.6764,5.9182 c 0.846666,-0.0169 1.4478,-0.0254 1.8034,-0.0254 0.372533,0 0.7874,-0.0339 1.2446,-0.1016 0.4572,-0.0847 0.753533,-0.1524 0.889,-0.2032 0.135466,-0.0677 0.321733,-0.21167 0.5588,-0.4318 0.237066,-0.22013 0.4064,-0.42333 0.508,-0.6096 0.1016,-0.2032 0.262466,-0.5334 0.4826,-0.9906 l 0.4572,0.127 -1.9304,5.9436 -0.4318,-0.127 c 0.135466,-0.69427 0.2032,-1.1938 0.2032,-1.4986 z" />
      <path
         sodipodi:nodetypes="ssssscscccscssccssccsscsccccs"
         id="path1008"
         style="font-style:italic;font-variant:normal;font-weight:normal;font-stretch:normal;font-size:25.4px;font-family:FreeSerif;-inkscape-font-specification:'FreeSerif Italic';stroke-width:1.5875"
         d="m 28.490306,280.20214 c 0,-0.22013 -0.1778,-0.49953 -0.5334,-0.8382 -0.3556,-0.33867 -0.5334,-0.6858 -0.5334,-1.0414 0,-0.27093 0.08467,-0.4826 0.254,-0.635 0.169334,-0.1524 0.397934,-0.2286 0.6858,-0.2286 0.389467,0 0.719667,0.1524 0.9906,0.4572 0.287867,0.28787 0.4318,0.635 0.4318,1.0414 0,0.47413 -0.1524,1.08373 -0.4572,1.8288 -0.287866,0.72813 -0.651933,1.40547 -1.0922,2.032 -0.643466,0.89747 -1.27,1.73567 -1.8796,2.5146 -0.6096,0.762 -1.159933,1.4224 -1.651,1.9812 -0.491066,0.5588 -0.922866,0.99907 -1.2954,1.3208 -0.3556,0.32173 -0.6096,0.4826 -0.762,0.4826 -0.1524,0 -0.2286,-0.29633 -0.2286,-0.889 0,-0.72813 -0.05927,-1.86267 -0.1778,-3.4036 -0.118533,-1.55787 -0.245533,-2.77707 -0.381,-3.6576 -0.169333,-1.1684 -0.3556,-1.92193 -0.5588,-2.2606 -0.2032,-0.33867 -0.550333,-0.508 -1.0414,-0.508 -0.321733,0 -0.575733,0.008 -0.762,0.0254 v -0.3302 c 0.592667,-0.1016 1.109134,-0.19473 1.5494,-0.2794 0.440267,-0.0847 0.745067,-0.1524 0.9144,-0.2032 0.169334,-0.0508 0.321734,-0.0847 0.4572,-0.1016 0.135467,-0.0339 0.270934,-0.0508 0.4064,-0.0508 0.270934,0 0.541867,0.99907 0.8128,2.9972 0.287867,1.99813 0.4826,4.1402 0.5842,6.4262 l 0.7874,-0.8128 c 0.897467,-0.94827 1.7018,-2.01507 2.413,-3.2004 0.7112,-1.20227 1.0668,-2.09127 1.0668,-2.667 z" />
    </g>
    <g
       style="font-style:italic;font-size:25.4px;line-height:0.75;font-family:'TeX Gyre Bonum';-inkscape-font-specification:'TeX Gyre Bonum Italic';fill:#66523d;fill-opacity:1;fill-rule:evenodd;stroke-width:1.5875;stroke-linecap:round;stroke-linejoin:bevel;stroke-opacity:0.996109;paint-order:markers fill stroke;stop-color:#000000"
       id="text968"
       aria-label="Fv">
      <path
         sodipodi:nodetypes="scsccsccccccccsscccccscscccsccscccccs"
         id="path1001"
         style="font-style:italic;font-variant:normal;font-weight:normal;font-stretch:normal;font-size:25.4px;font-family:FreeSerif;-inkscape-font-specification:'FreeSerif Italic';fill:#403326;fill-opacity:1;stroke-width:1.5875"
         d="m 14.871728,281.04456 c 0,-0.52493 -0.135467,-0.84667 -0.4064,-0.9652 -0.254,-0.13547 -0.770467,-0.2032 -1.5494,-0.2032 -0.423334,0 -1.109134,-0.0254 -2.0574,-0.0762 l -1.5748001,5.6642 c -0.1524,0.5588 -0.2286,0.9398 -0.2286,1.143 0,0.38947 0.1354666,0.66887 0.4064,0.8382 0.2878666,0.1524 0.7958661,0.24553 1.5240001,0.2794 v 0.4064 H 4.6101279 v -0.4064 c 0.7281333,-0.1016 1.1938,-0.24553 1.397,-0.4318 0.2201333,-0.2032 0.4402666,-0.6858 0.6604,-1.4478 l 3.1241999,-11.2268 c 0.1862666,-0.64347 0.2794002,-1.18533 0.2794002,-1.6256 0,-0.37253 -0.1185335,-0.61807 -0.3556001,-0.7366 -0.2370667,-0.11853 -0.7704667,-0.22013 -1.6002,-0.3048 v -0.4064 H 20.764528 l -0.8128,3.8862 -0.5334,-0.0508 c 0.0508,-0.54187 0.0762,-0.90593 0.0762,-1.0922 0,-0.77893 -0.3302,-1.28693 -0.9906,-1.524 -0.6604,-0.254 -2.0574,-0.381 -4.191,-0.381 -0.524934,0 -0.897467,0.0508 -1.1176,0.1524 -0.2032,0.0847 -0.347134,0.254 -0.4318,0.508 l -1.6764,5.9182 c 0.846666,-0.0169 1.4478,-0.0254 1.8034,-0.0254 0.372533,0 0.7874,-0.0339 1.2446,-0.1016 0.4572,-0.0847 0.753533,-0.1524 0.889,-0.2032 0.135466,-0.0677 0.321733,-0.21167 0.5588,-0.4318 0.237066,-0.22013 0.4064,-0.42333 0.508,-0.6096 0.1016,-0.2032 0.262466,-0.5334 0.4826,-0.9906 l 0.4572,0.127 -1.9304,5.9436 -0.4318,-0.127 c 0.135466,-0.69427 0.2032,-1.1938 0.2032,-1.4986 z" />
      <path
         sodipodi:nodetypes="ssssscscccscssccssccsscsccccs"
         id="path1003"
         style="font-style:italic;font-variant:normal;font-weight:normal;font-stretch:normal;font-size:25.4px;font-family:FreeSerif;-inkscape-font-specification:'FreeSerif Italic';fill:#403326;fill-opacity:1;stroke-width:1.5875"
         d="m 27.961139,279.67296 c 0,-0.22013 -0.1778,-0.49953 -0.5334,-0.8382 -0.3556,-0.33867 -0.5334,-0.6858 -0.5334,-1.0414 0,-0.27093 0.08467,-0.4826 0.254,-0.635 0.169334,-0.1524 0.397934,-0.2286 0.6858,-0.2286 0.389467,0 0.719667,0.1524 0.9906,0.4572 0.287867,0.28787 0.4318,0.635 0.4318,1.0414 0,0.47413 -0.1524,1.08373 -0.4572,1.8288 -0.287866,0.72813 -0.651933,1.40547 -1.0922,2.032 -0.643466,0.89747 -1.27,1.73567 -1.8796,2.5146 -0.6096,0.762 -1.159933,1.4224 -1.651,1.9812 -0.491066,0.5588 -0.922866,0.99907 -1.2954,1.3208 -0.3556,0.32173 -0.6096,0.4826 -0.762,0.4826 -0.1524,0 -0.2286,-0.29633 -0.2286,-0.889 0,-0.72813 -0.05927,-1.86267 -0.1778,-3.4036 -0.118533,-1.55787 -0.245533,-2.77707 -0.381,-3.6576 -0.169333,-1.1684 -0.3556,-1.92193 -0.5588,-2.2606 -0.2032,-0.33867 -0.550333,-0.508 -1.0414,-0.508 -0.321733,0 -0.575733,0.008 -0.762,0.0254 v -0.3302 c 0.592667,-0.1016 1.109134,-0.19473 1.5494,-0.2794 0.440267,-0.0847 0.745067,-0.1524 0.9144,-0.2032 0.169334,-0.0508 0.321734,-0.0847 0.4572,-0.1016 0.135467,-0.0339 0.270934,-0.0508 0.4064,-0.0508 0.270934,0 0.541867,0.99907 0.8128,2.9972 0.287867,1.99813 0.4826,4.1402 0.5842,6.4262 l 0.7874,-0.8128 c 0.897467,-0.94827 1.7018,-2.01507 2.413,-3.2004 0.7112,-1.20227 1.0668,-2.09127 1.0668,-2.667 z" />
    </g>
  </g>
</svg>
