<?xml version="1.0" encoding="UTF-8" standalone="no"?>
<svg
   xmlns:dc="http://purl.org/dc/elements/1.1/"
   xmlns:cc="http://creativecommons.org/ns#"
   xmlns:rdf="http://www.w3.org/1999/02/22-rdf-syntax-ns#"
   xmlns:svg="http://www.w3.org/2000/svg"
   xmlns="http://www.w3.org/2000/svg"
   xmlns:xlink="http://www.w3.org/1999/xlink"
   xmlns:sodipodi="http://sodipodi.sourceforge.net/DTD/sodipodi-0.dtd"
   xmlns:inkscape="http://www.inkscape.org/namespaces/inkscape"
   inkscape:version="1.0 (4035a4fb49, 2020-05-01)"
   sodipodi:docname="fontforge.svg"
   id="svg18"
   style="clip-rule:evenodd;fill-rule:evenodd;stroke-linejoin:round;stroke-miterlimit:1.41421"
   xml:space="preserve"
   version="1.1"
   viewBox="0 0 128 128"
   height="128"
   width="128"><metadata
   id="metadata24"><rdf:RDF><cc:Work
       rdf:about=""><dc:format>image/svg+xml</dc:format><dc:type
         rdf:resource="http://purl.org/dc/dcmitype/StillImage" /><dc:title></dc:title></cc:Work></rdf:RDF></metadata><defs
   id="defs22"><linearGradient
   id="linearGradient926"
   inkscape:collect="always"><stop
     id="stop922"
     offset="0"
     style="stop-color:#7b8999;stop-opacity:1" /><stop
     id="stop924"
     offset="1"
     style="stop-color:#bbd3ea;stop-opacity:0.97647059" /></linearGradient><linearGradient
   gradientUnits="userSpaceOnUse"
   y2="8"
   x2="124"
   y1="120"
   x1="124"
   id="linearGradient928"
   xlink:href="#linearGradient926"
   inkscape:collect="always" />
        
    
        
    
        
    
        
    
        
    </defs><sodipodi:namedview
   inkscape:current-layer="svg18"
   inkscape:cy="69.066463"
   inkscape:cx="66.478718"
   inkscape:zoom="1"
   inkscape:snap-nodes="false"
   inkscape:bbox-nodes="true"
   inkscape:snap-bbox="true"
   inkscape:snap-page="true"
   showgrid="false"
   id="namedview20"
   inkscape:window-height="480"
   inkscape:window-width="640"
   inkscape:pageshadow="2"
   inkscape:pageopacity="0"
   guidetolerance="10"
   gridtolerance="10"
   objecttolerance="10"
   borderopacity="1"
   bordercolor="#666666"
   pagecolor="#ffffff"><inkscape:grid
     id="grid870"
     type="xygrid" /></sodipodi:namedview>
    
    
    
    
<circle
   r="56"
   cy="64"
   cx="64"
   id="path920"
   style="fill:url(#linearGradient928);fill-opacity:1;fill-rule:evenodd;stroke:none;stroke-width:1.9;stroke-linecap:square;stroke-linejoin:round;paint-order:markers fill stroke;stop-color:#000000" /><path
   id="path941"
   style="fill:#000000;fill-opacity:0.2;stroke:none;stroke-width:0.250172px"
   d="m 55.283948,105.90532 -0.115,2.86797 c -0.522474,-0.0205 -1.044948,-0.0409 -1.566925,-0.0632 l 0.114502,-2.86611 -2.867967,-0.115 0.06324,-1.56692 2.868464,0.11314 0.112642,-2.86661 1.569282,0.0619 -0.07691,1.90793 11.300326,-10.431991 c -0.33527,-0.659631 -0.423831,-1.444415 -0.186029,-2.205503 0.483574,-1.551919 2.131938,-2.417182 3.681997,-1.934106 0.239158,0.07404 0.461052,0.175338 0.662961,0.29917 l 11.477664,-10.595651 -1.815582,-0.07209 0.06324,-1.566925 2.867966,0.115 0.115,-2.867966 1.566925,0.06324 -0.114501,2.866107 2.867966,0.114999 -0.06324,1.566926 -2.868464,-0.113141 -0.112642,2.866605 c -0.524333,-0.02096 -1.046808,-0.04142 -1.569282,-0.06188 l 0.06836,-1.705013 -11.412266,10.537468 c 0.347784,0.664975 0.440792,1.462905 0.20186,2.235644 -0.483574,1.551919 -2.131938,2.417182 -3.683856,1.933608 -0.248452,-0.07653 -0.480503,-0.184535 -0.692071,-0.316931 l -11.138625,10.28207 1.612169,0.0654 -0.06324,1.56693 z" /><path
   id="path939"
   style="fill:#000000;fill-opacity:0.2;fill-rule:nonzero;stroke-width:0.0363291"
   d="m 73.27898,34.889112 c 3.487596,0 6.68456,1.162532 8.283042,3.160635 3.923546,-3.959876 7.592788,-5.04975 10.753422,-5.04975 5.086079,0 6.68456,3.233293 6.68456,5.376712 0,2.688355 -1.707469,4.57747 -4.286837,4.57747 -2.797343,0 -1.416836,-6.393927 -5.376711,-6.393927 -3.233293,0 -5.921648,8.537345 -7.265826,15.984818 h 6.975193 c 0.799241,0 0.944557,0.581266 0.944557,1.198861 0,1.67114 -0.762912,3.087976 -2.143419,3.087976 h -6.866205 c 0,0 -3.156348,14.938211 -5.485699,24.267859 -3.135168,12.557164 -12.751525,16.057475 -18.782161,16.057475 -2.870001,0 -5.921648,-1.017215 -7.956079,-3.124305 -2.724685,2.797343 -6.866206,5.01342 -11.29836,5.01342 -2.179747,0 -5.81266,-1.453165 -5.81266,-4.214179 0,-1.562152 1.562152,-3.923546 3.233292,-3.923546 2.94266,0 3.305951,3.196963 6.611902,3.196963 1.598481,0 2.706447,-0.440962 4.032533,-5.231394 2.906331,-10.499119 7.302155,-32.042293 7.302155,-32.042293 h -5.195065 c -0.83557,0 -0.944558,-0.508608 -0.944558,-1.053545 0,-1.453165 0.544937,-3.233292 2.397723,-3.233292 h 4.831774 C 56.56758,43.426457 62.452899,34.889112 73.27898,34.889112 Z m -2.833673,3.632913 c -5.122407,0 -7.447471,8.501017 -8.573674,14.023045 h 12.133929 c 0.871899,-3.34228 2.325065,-6.757218 3.887217,-9.554562 -1.743798,-2.761014 -4.759116,-4.468483 -7.447472,-4.468483 z M 59.546568,92.725088 c 2.833673,0 5.086079,-0.944558 6.466586,-5.88532 3.269621,-11.770638 6.902534,-30.007861 6.902534,-30.007861 H 60.927075 c -1.741073,8.038583 -3.660305,16.703952 -5.346994,23.214314 -1.147746,4.430265 -2.111231,6.918084 -3.117693,9.009624 2.070761,2.434052 4.759116,3.669243 7.08418,3.669243 z" /><path
   d="m 72.27898,32.88911 c 3.487597,0 6.684561,1.162532 8.283043,3.160634 3.923546,-3.959875 7.592788,-5.049749 10.753422,-5.049749 5.086078,0 6.68456,3.233293 6.68456,5.376712 0,2.688355 -1.707469,4.57747 -4.286837,4.57747 -2.797343,0 -1.416836,-6.393927 -5.376711,-6.393927 -3.233293,0 -5.921649,8.537346 -7.265826,15.984818 h 6.975192 c 0.799241,0 0.944558,0.581266 0.944558,1.198862 0,1.67114 -0.762912,3.087976 -2.143419,3.087976 h -6.866205 c 0,0 -3.156349,14.938211 -5.4857,24.267859 -3.135167,12.557163 -12.751524,16.057475 -18.78216,16.057475 -2.870001,0 -5.921648,-1.017216 -7.956079,-3.124305 -2.724685,2.797343 -6.866206,5.01342 -11.29836,5.01342 -2.179748,0 -5.812661,-1.453165 -5.812661,-4.214179 0,-1.562153 1.562153,-3.923546 3.233293,-3.923546 2.942659,0 3.305951,3.196963 6.611901,3.196963 1.598482,0 2.706448,-0.440963 4.032534,-5.231395 2.90633,-10.499118 7.302155,-32.042292 7.302155,-32.042292 h -5.195065 c -0.83557,0 -0.944558,-0.508608 -0.944558,-1.053545 0,-1.453165 0.544937,-3.233293 2.397723,-3.233293 h 4.831774 C 55.567581,41.426456 61.4529,32.88911 72.27898,32.88911 Z m -2.833672,3.632913 c -5.122407,0 -7.447471,8.501018 -8.573674,14.023045 h 12.133929 c 0.871899,-3.34228 2.325064,-6.757218 3.887217,-9.554562 -1.743798,-2.761014 -4.759116,-4.468483 -7.447472,-4.468483 z M 58.546569,90.725086 c 2.833672,0 5.086078,-0.944557 6.466585,-5.885319 3.269622,-11.770638 6.902535,-30.007861 6.902535,-30.007861 H 59.927076 c -1.741073,8.038583 -3.660305,16.703952 -5.346994,23.214314 -1.147746,4.430265 -2.111231,6.918083 -3.117693,9.009624 2.07076,2.434052 4.759116,3.669242 7.08418,3.669242 z"
   style="fill:#232c31;fill-rule:nonzero;stroke-width:0.0363291"
   id="path10" /><path
   d="m 54.74949,104.93736 -0.114999,2.86797 c -0.522475,-0.0205 -1.044949,-0.0409 -1.566926,-0.0632 l 0.114502,-2.86611 -2.867966,-0.115 0.06324,-1.56692 2.868464,0.11314 0.112642,-2.86661 1.569283,0.0619 -0.07691,1.90793 11.300326,-10.431987 c -0.33527,-0.659631 -0.423831,-1.444415 -0.186029,-2.205503 0.483574,-1.551919 2.131938,-2.417182 3.681997,-1.934106 0.239158,0.07404 0.461052,0.175338 0.662962,0.29917 l 11.477663,-10.595651 -1.815582,-0.07209 0.06324,-1.566925 2.867966,0.115 0.115,-2.867967 1.566925,0.06324 -0.114501,2.866107 2.867966,0.114999 -0.06324,1.566925 -2.868464,-0.11314 -0.112643,2.866605 c -0.524333,-0.02096 -1.046808,-0.04142 -1.569282,-0.06188 l 0.06836,-1.705013 -11.412266,10.537468 c 0.347784,0.664975 0.440792,1.462904 0.20186,2.235644 -0.483573,1.551918 -2.131938,2.417182 -3.683856,1.933608 -0.248452,-0.07653 -0.480503,-0.184535 -0.692071,-0.316931 l -11.138624,10.282067 1.612168,0.0654 -0.06324,1.56692 z"
   style="fill:#ff5900;stroke:#cc4700;stroke-width:0.250172px"
   id="path14" /></svg>
