<?xml version="1.0" encoding="UTF-8" standalone="no"?>
<svg
   xmlns:dc="http://purl.org/dc/elements/1.1/"
   xmlns:cc="http://creativecommons.org/ns#"
   xmlns:rdf="http://www.w3.org/1999/02/22-rdf-syntax-ns#"
   xmlns:svg="http://www.w3.org/2000/svg"
   xmlns="http://www.w3.org/2000/svg"
   xmlns:xlink="http://www.w3.org/1999/xlink"
   xmlns:sodipodi="http://sodipodi.sourceforge.net/DTD/sodipodi-0.dtd"
   xmlns:inkscape="http://www.inkscape.org/namespaces/inkscape"
   width="128"
   height="128"
   viewBox="0 0 33.866666 33.866668"
   version="1.1"
   id="svg1117"
   sodipodi:docname="gcr-smart-card.svg"
   inkscape:version="0.92.4 (unknown)">
  <defs
     id="defs1111">
    <linearGradient
       inkscape:collect="always"
       id="linearGradient1076">
      <stop
         style="stop-color:#fff866;stop-opacity:1"
         offset="0"
         id="stop1072" />
      <stop
         style="stop-color:#cdae00;stop-opacity:1"
         offset="1"
         id="stop1074" />
    </linearGradient>
    <linearGradient
       inkscape:collect="always"
       id="linearGradient1064">
      <stop
         style="stop-color:#81b8f1;stop-opacity:1"
         offset="0"
         id="stop1060" />
      <stop
         style="stop-color:#314d6f;stop-opacity:1"
         offset="1"
         id="stop1062" />
    </linearGradient>
    <linearGradient
       inkscape:collect="always"
       id="linearGradient1056">
      <stop
         style="stop-color:#426793;stop-opacity:1"
         offset="0"
         id="stop1052" />
      <stop
         style="stop-color:#628cbe;stop-opacity:1"
         offset="1"
         id="stop1054" />
    </linearGradient>
    <linearGradient
       id="linearGradient1001"
       y1="61"
       y2="47"
       x2="0"
       gradientUnits="userSpaceOnUse"
       gradientTransform="matrix(1 0 0-1 0 64)">
      <stop
         stop-color="#fddda3"
         id="stop997"
         style="stop-color:#ffd42a;stop-opacity:1" />
      <stop
         style="stop-color:#fff6cc;stop-opacity:1"
         offset="1"
         stop-color="#fde3a7"
         id="stop999" />
    </linearGradient>
    <linearGradient
       gradientTransform="matrix(1 0 0-1 0 64)"
       gradientUnits="userSpaceOnUse"
       x2="0"
       y2="47"
       y1="61"
       id="linearGradient1010">
      <stop
         style="stop-color:#ffcc00;stop-opacity:1"
         id="stop1006"
         stop-color="#fddda3" />
      <stop
         id="stop1008"
         stop-color="#fde3a7"
         offset="1"
         style="stop-color:#fff6cc;stop-opacity:1" />
    </linearGradient>
    <linearGradient
       inkscape:collect="always"
       xlink:href="#linearGradient1056"
       id="linearGradient1058"
       x1="25.4"
       y1="265.25"
       x2="25.4"
       y2="280.06665"
       gradientUnits="userSpaceOnUse" />
    <linearGradient
       inkscape:collect="always"
       xlink:href="#linearGradient1064"
       id="linearGradient1066"
       x1="16.933332"
       y1="292.76666"
       x2="16.933332"
       y2="274.77499"
       gradientUnits="userSpaceOnUse" />
    <linearGradient
       inkscape:collect="always"
       xlink:href="#linearGradient1076"
       id="linearGradient1078"
       x1="4.2333331"
       y1="273.71664"
       x2="17.991667"
       y2="284.29999"
       gradientUnits="userSpaceOnUse" />
  </defs>
  <sodipodi:namedview
     inkscape:snap-tangential="true"
     showguides="false"
     id="base"
     pagecolor="#ffffff"
     bordercolor="#666666"
     borderopacity="1.0"
     inkscape:pageopacity="0.0"
     inkscape:pageshadow="2"
     inkscape:zoom="1"
     inkscape:cx="42.847828"
     inkscape:cy="67.218324"
     inkscape:document-units="mm"
     inkscape:current-layer="layer1"
     showgrid="false"
     units="px"
     inkscape:snap-page="false"
     inkscape:snap-bbox="true"
     inkscape:bbox-nodes="true"
     inkscape:snap-grids="true"
     inkscape:window-width="1600"
     inkscape:window-height="728"
     inkscape:window-x="0"
     inkscape:window-y="0"
     inkscape:window-maximized="1"
     inkscape:snap-nodes="false"
     inkscape:snap-bbox-edge-midpoints="false"
     inkscape:snap-to-guides="false"
     inkscape:snap-global="true"
     inkscape:snap-others="false"
     inkscape:document-rotation="0"
     inkscape:snap-intersection-paths="true"
     inkscape:snap-smooth-nodes="true"
     inkscape:object-paths="true"
     inkscape:snap-midpoints="true"
     inkscape:snap-center="true">
    <inkscape:grid
       type="xygrid"
       id="grid1370"
       dotted="false" />
  </sodipodi:namedview>
  <metadata
     id="metadata1114">
    <rdf:RDF>
      <cc:Work
         rdf:about="">
        <dc:format>image/svg+xml</dc:format>
        <dc:type
           rdf:resource="http://purl.org/dc/dcmitype/StillImage" />
        <dc:title></dc:title>
      </cc:Work>
    </rdf:RDF>
  </metadata>
  <g
     inkscape:label="Layer 1"
     inkscape:groupmode="layer"
     id="layer1"
     transform="translate(0,-263.13332)">
    <g
       id="g2214"
       transform="matrix(0.45,0,0,0.45,111.65028,123.41345)">
      <g
         transform="translate(-2.3812496,-2.3812436)"
         id="g2198" />
      <g
         id="g2200"
         transform="translate(0.26458402,-3.1749871)" />
    </g>
    <g
       inkscape:label="Layer 1"
       id="layer1-3"
       transform="translate(78.207295,1.8900499)" />
    <g
       transform="translate(113.1323,-25.626613)"
       id="layer1-3-6"
       inkscape:label="Layer 1" />
    <g
       transform="matrix(0.45,0,0,0.45,117.6431,116.87825)"
       id="g4657" />
    <g
       id="g4669"
       transform="matrix(0.45,0,0,0.45,117.6431,118.54512)" />
    <rect
       style="opacity:1;fill:url(#linearGradient1066);fill-opacity:1;stroke:none;stroke-width:1.58749998;stroke-linecap:square;stroke-linejoin:round;stroke-miterlimit:4;stroke-dasharray:none;stroke-dashoffset:0.79999995;stroke-opacity:1"
       id="rect1033"
       width="31.75"
       height="19.049999"
       x="1.0583333"
       y="270.54166"
       rx="8.4106546e-08" />
    <path
       style="opacity:1;fill:url(#linearGradient1058);fill-opacity:1;stroke:none;stroke-width:1.58749998;stroke-linecap:square;stroke-linejoin:round;stroke-miterlimit:4;stroke-dasharray:none;stroke-dashoffset:0.79999995;stroke-opacity:1"
       d="m 1.0583334,270.54166 31.7499996,-10e-6 v 10.58334 c -14.816666,0 -16.933333,-4.23334 -31.7499997,-4.23334 z"
       id="rect1037"
       inkscape:connector-curvature="0"
       sodipodi:nodetypes="ccccc" />
    <rect
       ry="2.1166615"
       rx="2.1166658"
       y="272.92291"
       x="3.4395833"
       height="12.7"
       width="15.875"
       id="rect1089"
       style="opacity:1;fill:#000000;fill-opacity:0.2;stroke:none;stroke-width:1.58749998;stroke-linecap:square;stroke-linejoin:round;stroke-miterlimit:4;stroke-dasharray:none;stroke-dashoffset:0.79999995;stroke-opacity:1" />
    <rect
       style="opacity:1;fill:url(#linearGradient1078);fill-opacity:1;stroke:none;stroke-width:1.58749998;stroke-linecap:square;stroke-linejoin:round;stroke-miterlimit:4;stroke-dasharray:none;stroke-dashoffset:0.79999995;stroke-opacity:1"
       id="rect1035"
       width="15.875"
       height="12.7"
       x="3.175"
       y="272.65833"
       rx="2.1166658"
       ry="2.1166615" />
    <path
       style="color:#000000;font-style:normal;font-variant:normal;font-weight:normal;font-stretch:normal;font-size:medium;line-height:normal;font-family:sans-serif;font-variant-ligatures:normal;font-variant-position:normal;font-variant-caps:normal;font-variant-numeric:normal;font-variant-alternates:normal;font-feature-settings:normal;text-indent:0;text-align:start;text-decoration:none;text-decoration-line:none;text-decoration-style:solid;text-decoration-color:#000000;letter-spacing:normal;word-spacing:normal;text-transform:none;writing-mode:lr-tb;direction:ltr;text-orientation:mixed;dominant-baseline:auto;baseline-shift:baseline;text-anchor:start;white-space:normal;shape-padding:0;clip-rule:nonzero;display:inline;overflow:visible;visibility:visible;opacity:1;isolation:auto;mix-blend-mode:normal;color-interpolation:sRGB;color-interpolation-filters:linearRGB;solid-color:#000000;solid-opacity:1;vector-effect:none;fill:#000000;fill-opacity:0.49565217;fill-rule:nonzero;stroke:none;stroke-width:2.00000024;stroke-linecap:butt;stroke-linejoin:miter;stroke-miterlimit:4;stroke-dasharray:none;stroke-dashoffset:0;stroke-opacity:1;color-rendering:auto;image-rendering:auto;shape-rendering:auto;text-rendering:auto;enable-background:accumulate"
       d="M 32.996094 36 L 32.996094 49 L 12.003906 49 L 12.003906 51 L 32.996094 51 L 32.996094 68 L 12.003906 68 L 12.003906 70 L 32.996094 70 L 32.996094 83.996094 L 34.998047 83.996094 L 34.998047 36 L 32.996094 36 z M 53.998047 49 C 52.38694 49 51.075811 49.258211 50.167969 50.166016 C 49.260122 51.073858 49.001953 52.384995 49.001953 53.996094 L 49.001953 83.996094 L 51.001953 83.996094 L 51.001953 70.998047 L 72.003906 70.998047 L 72.003906 68.996094 L 51.001953 68.996094 L 51.001953 53.996094 C 51.001953 52.607193 51.241835 51.924192 51.583984 51.582031 C 51.926145 51.239984 52.609157 51 53.998047 51 L 72.003906 51 L 72.003906 49 L 53.998047 49 z "
       transform="matrix(0.26458333,0,0,0.26458333,0,263.13332)"
       id="path1040" />
    <g
       id="g1106"
       style="font-style:normal;font-variant:normal;font-weight:normal;font-stretch:normal;font-size:10.58333302px;line-height:1.25;font-family:'Liberation Serif';-inkscape-font-specification:'Liberation Serif';letter-spacing:0px;word-spacing:0px;fill:#000000;fill-opacity:0.2;stroke:none;stroke-width:0.26458332"
       aria-label="SEC"
       transform="matrix(1.0406504,0,0,0.98084343,-0.77593958,5.727839)">
      <path
         id="path1100"
         style="font-style:normal;font-variant:normal;font-weight:bold;font-stretch:normal;font-size:4.57200003px;font-family:'Liberation Sans';-inkscape-font-specification:'Liberation Sans Bold';fill:#000000;fill-opacity:0.2;stroke-width:0.26458332"
         d="m 25.095895,286.56861 q 0,0.46211 -0.343793,0.70768 -0.341561,0.24333 -1.00459,0.24333 -0.604986,0 -0.948779,-0.21431 -0.343793,-0.21431 -0.44202,-0.64963 l 0.636241,-0.10493 q 0.06474,0.25003 0.252263,0.36389 0.187524,0.11162 0.520154,0.11162 0.689819,0 0.689819,-0.4197 0,-0.13394 -0.08037,-0.22101 -0.07813,-0.0871 -0.223243,-0.1451 -0.142875,-0.0581 -0.551408,-0.14065 -0.352722,-0.0826 -0.491133,-0.13171 -0.13841,-0.0513 -0.250031,-0.11832 -0.111621,-0.0692 -0.189756,-0.1652 -0.07813,-0.096 -0.122783,-0.22547 -0.04242,-0.12948 -0.04242,-0.29691 0,-0.4264 0.319236,-0.65187 0.321469,-0.22771 0.933153,-0.22771 0.584894,0 0.877342,0.18306 0.294679,0.18306 0.379511,0.60499 l -0.638472,0.0871 q -0.04911,-0.20315 -0.200918,-0.30584 -0.149573,-0.10269 -0.430858,-0.10269 -0.598289,0 -0.598289,0.37505 0,0.12278 0.06251,0.20091 0.06474,0.0781 0.189756,0.13395 0.125015,0.0536 0.50676,0.13618 0.453181,0.096 0.647402,0.17859 0.196453,0.0804 0.310307,0.18976 0.113853,0.10715 0.174129,0.25896 0.06027,0.14957 0.06027,0.34602 z"
         inkscape:connector-curvature="0" />
      <path
         id="path1102"
         style="font-style:normal;font-variant:normal;font-weight:bold;font-stretch:normal;font-size:4.57200003px;font-family:'Liberation Sans';-inkscape-font-specification:'Liberation Sans Bold';fill:#000000;fill-opacity:0.2;stroke-width:0.26458332"
         d="m 25.584795,287.47498 v -3.14549 h 2.473524 v 0.509 H 26.24336 v 0.79027 h 1.678781 v 0.50899 H 26.24336 v 0.82823 h 1.906488 v 0.509 z"
         inkscape:connector-curvature="0" />
      <path
         id="path1104"
         style="font-style:normal;font-variant:normal;font-weight:bold;font-stretch:normal;font-size:4.57200003px;font-family:'Liberation Sans';-inkscape-font-specification:'Liberation Sans Bold';fill:#000000;fill-opacity:0.2;stroke-width:0.26458332"
         d="m 30.107682,287.0017 q 0.596057,0 0.828229,-0.59829 l 0.573732,0.21655 q -0.185291,0.45541 -0.544711,0.67865 -0.357187,0.22101 -0.85725,0.22101 -0.759023,0 -1.174254,-0.42862 -0.412998,-0.43086 -0.412998,-1.20328 0,-0.77465 0.399604,-1.18988 0.399603,-0.41523 1.158627,-0.41523 0.55364,0 0.901898,0.22324 0.348258,0.22101 0.4889,0.65187 l -0.580429,0.1585 q -0.07367,-0.23663 -0.290215,-0.37504 -0.214313,-0.14065 -0.50676,-0.14065 -0.446484,0 -0.678656,0.27682 -0.22994,0.27682 -0.22994,0.81037 0,0.54248 0.236637,0.82823 0.238869,0.28575 0.687586,0.28575 z"
         inkscape:connector-curvature="0" />
    </g>
    <g
       aria-label="SEC"
       style="font-style:normal;font-variant:normal;font-weight:normal;font-stretch:normal;font-size:10.58333302px;line-height:1.25;font-family:'Liberation Serif';-inkscape-font-specification:'Liberation Serif';letter-spacing:0px;word-spacing:0px;fill:#a2cbe4;fill-opacity:1;stroke:none;stroke-width:0.26458332"
       id="text1070"
       transform="matrix(1.0406503,0,0,0.9808432,-1.0405205,5.4633239)">
      <path
         d="m 25.095895,286.56861 q 0,0.46211 -0.343793,0.70768 -0.341561,0.24333 -1.00459,0.24333 -0.604986,0 -0.948779,-0.21431 -0.343793,-0.21431 -0.44202,-0.64963 l 0.636241,-0.10493 q 0.06474,0.25003 0.252263,0.36389 0.187524,0.11162 0.520154,0.11162 0.689819,0 0.689819,-0.4197 0,-0.13394 -0.08037,-0.22101 -0.07813,-0.0871 -0.223243,-0.1451 -0.142875,-0.0581 -0.551408,-0.14065 -0.352722,-0.0826 -0.491133,-0.13171 -0.13841,-0.0513 -0.250031,-0.11832 -0.111621,-0.0692 -0.189756,-0.1652 -0.07813,-0.096 -0.122783,-0.22547 -0.04242,-0.12948 -0.04242,-0.29691 0,-0.4264 0.319236,-0.65187 0.321469,-0.22771 0.933153,-0.22771 0.584894,0 0.877342,0.18306 0.294679,0.18306 0.379511,0.60499 l -0.638472,0.0871 q -0.04911,-0.20315 -0.200918,-0.30584 -0.149573,-0.10269 -0.430858,-0.10269 -0.598289,0 -0.598289,0.37505 0,0.12278 0.06251,0.20091 0.06474,0.0781 0.189756,0.13395 0.125015,0.0536 0.50676,0.13618 0.453181,0.096 0.647402,0.17859 0.196453,0.0804 0.310307,0.18976 0.113853,0.10715 0.174129,0.25896 0.06027,0.14957 0.06027,0.34602 z"
         style="font-style:normal;font-variant:normal;font-weight:bold;font-stretch:normal;font-size:4.57200003px;font-family:'Liberation Sans';-inkscape-font-specification:'Liberation Sans Bold';fill:#a2cbe4;fill-opacity:1;stroke-width:0.26458332"
         id="path1093"
         inkscape:connector-curvature="0" />
      <path
         d="m 25.584795,287.47498 v -3.14549 h 2.473524 v 0.509 H 26.24336 v 0.79027 h 1.678781 v 0.50899 H 26.24336 v 0.82823 h 1.906488 v 0.509 z"
         style="font-style:normal;font-variant:normal;font-weight:bold;font-stretch:normal;font-size:4.57200003px;font-family:'Liberation Sans';-inkscape-font-specification:'Liberation Sans Bold';fill:#a2cbe4;fill-opacity:1;stroke-width:0.26458332"
         id="path1095"
         inkscape:connector-curvature="0" />
      <path
         d="m 30.107682,287.0017 q 0.596057,0 0.828229,-0.59829 l 0.573732,0.21655 q -0.185291,0.45541 -0.544711,0.67865 -0.357187,0.22101 -0.85725,0.22101 -0.759023,0 -1.174254,-0.42862 -0.412998,-0.43086 -0.412998,-1.20328 0,-0.77465 0.399604,-1.18988 0.399603,-0.41523 1.158627,-0.41523 0.55364,0 0.901898,0.22324 0.348258,0.22101 0.4889,0.65187 l -0.580429,0.1585 q -0.07367,-0.23663 -0.290215,-0.37504 -0.214313,-0.14065 -0.50676,-0.14065 -0.446484,0 -0.678656,0.27682 -0.22994,0.27682 -0.22994,0.81037 0,0.54248 0.236637,0.82823 0.238869,0.28575 0.687586,0.28575 z"
         style="font-style:normal;font-variant:normal;font-weight:bold;font-stretch:normal;font-size:4.57200003px;font-family:'Liberation Sans';-inkscape-font-specification:'Liberation Sans Bold';fill:#a2cbe4;fill-opacity:1;stroke-width:0.26458332"
         id="path1097"
         inkscape:connector-curvature="0" />
    </g>
  </g>
</svg>
