<?xml version="1.0" encoding="UTF-8" standalone="no"?>
<svg
   xmlns:dc="http://purl.org/dc/elements/1.1/"
   xmlns:cc="http://creativecommons.org/ns#"
   xmlns:rdf="http://www.w3.org/1999/02/22-rdf-syntax-ns#"
   xmlns:svg="http://www.w3.org/2000/svg"
   xmlns="http://www.w3.org/2000/svg"
   xmlns:xlink="http://www.w3.org/1999/xlink"
   xmlns:sodipodi="http://sodipodi.sourceforge.net/DTD/sodipodi-0.dtd"
   xmlns:inkscape="http://www.inkscape.org/namespaces/inkscape"
   width="128"
   height="128"
   viewBox="0 0 33.866666 33.866668"
   version="1.1"
   id="svg1117"
   sodipodi:docname="gcr-key-pair.svg"
   inkscape:version="0.92.4 (unknown)">
  <defs
     id="defs1111">
    <linearGradient
       inkscape:collect="always"
       id="linearGradient1004">
      <stop
         style="stop-color:#b6981e;stop-opacity:1"
         offset="0"
         id="stop1000" />
      <stop
         style="stop-color:#ffd571;stop-opacity:0.89999998"
         offset="1"
         id="stop1002" />
    </linearGradient>
    <linearGradient
       inkscape:collect="always"
       id="linearGradient996">
      <stop
         style="stop-color:#ffd46e;stop-opacity:1"
         offset="0"
         id="stop992" />
      <stop
         style="stop-color:#806d1a;stop-opacity:1"
         offset="1"
         id="stop994" />
    </linearGradient>
    <linearGradient
       inkscape:collect="always"
       id="linearGradient979">
      <stop
         style="stop-color:#cacaca;stop-opacity:1"
         offset="0"
         id="stop975" />
      <stop
         style="stop-color:#787878;stop-opacity:0.98431373"
         offset="1"
         id="stop977" />
    </linearGradient>
    <linearGradient
       inkscape:collect="always"
       id="linearGradient971">
      <stop
         style="stop-color:#f4f0f4;stop-opacity:1"
         offset="0"
         id="stop967" />
      <stop
         style="stop-color:#636163;stop-opacity:1"
         offset="1"
         id="stop969" />
    </linearGradient>
    <linearGradient
       id="linearGradient1001"
       y1="61"
       y2="47"
       x2="0"
       gradientUnits="userSpaceOnUse"
       gradientTransform="matrix(1 0 0-1 0 64)">
      <stop
         stop-color="#fddda3"
         id="stop997"
         style="stop-color:#ffd42a;stop-opacity:1" />
      <stop
         style="stop-color:#fff6cc;stop-opacity:1"
         offset="1"
         stop-color="#fde3a7"
         id="stop999" />
    </linearGradient>
    <linearGradient
       gradientTransform="matrix(1 0 0-1 0 64)"
       gradientUnits="userSpaceOnUse"
       x2="0"
       y2="47"
       y1="61"
       id="linearGradient1010">
      <stop
         style="stop-color:#ffcc00;stop-opacity:1"
         id="stop1006"
         stop-color="#fddda3" />
      <stop
         id="stop1008"
         stop-color="#fde3a7"
         offset="1"
         style="stop-color:#fff6cc;stop-opacity:1" />
    </linearGradient>
    <linearGradient
       inkscape:collect="always"
       xlink:href="#linearGradient971"
       id="linearGradient973"
       x1="80"
       y1="47.999989"
       x2="112"
       y2="79.999992"
       gradientUnits="userSpaceOnUse"
       gradientTransform="matrix(0.26458333,0,0,0.26458333,3.3333333e-8,256.78332)" />
    <linearGradient
       inkscape:collect="always"
       xlink:href="#linearGradient979"
       id="linearGradient981"
       x1="76"
       y1="43.999989"
       x2="116"
       y2="83.999992"
       gradientUnits="userSpaceOnUse"
       gradientTransform="matrix(0.26458333,0,0,0.26458333,3.3333333e-8,256.78332)" />
    <linearGradient
       inkscape:collect="always"
       xlink:href="#linearGradient996"
       id="linearGradient998"
       x1="72"
       y1="40"
       x2="120"
       y2="88"
       gradientUnits="userSpaceOnUse"
       gradientTransform="matrix(0.26458333,0,0,0.26458333,0,269.48332)" />
    <linearGradient
       inkscape:collect="always"
       xlink:href="#linearGradient1004"
       id="linearGradient1006"
       x1="80"
       y1="48"
       x2="112"
       y2="80"
       gradientUnits="userSpaceOnUse"
       gradientTransform="matrix(0.26458333,0,0,0.26458333,0,269.48332)" />
  </defs>
  <sodipodi:namedview
     inkscape:snap-tangential="true"
     showguides="false"
     id="base"
     pagecolor="#ffffff"
     bordercolor="#666666"
     borderopacity="1.0"
     inkscape:pageopacity="0.0"
     inkscape:pageshadow="2"
     inkscape:zoom="2.8284271"
     inkscape:cx="15.01244"
     inkscape:cy="31.924561"
     inkscape:document-units="mm"
     inkscape:current-layer="layer1"
     showgrid="false"
     units="px"
     inkscape:snap-page="false"
     inkscape:snap-bbox="true"
     inkscape:bbox-nodes="true"
     inkscape:snap-grids="true"
     inkscape:window-width="1600"
     inkscape:window-height="728"
     inkscape:window-x="0"
     inkscape:window-y="0"
     inkscape:window-maximized="1"
     inkscape:snap-nodes="true"
     inkscape:snap-bbox-edge-midpoints="false"
     inkscape:snap-to-guides="false"
     inkscape:snap-global="true"
     inkscape:snap-others="true"
     inkscape:document-rotation="0"
     inkscape:snap-intersection-paths="true"
     inkscape:snap-smooth-nodes="true"
     inkscape:object-paths="true"
     inkscape:snap-midpoints="true"
     inkscape:snap-center="true">
    <inkscape:grid
       type="xygrid"
       id="grid1370"
       dotted="false" />
  </sodipodi:namedview>
  <metadata
     id="metadata1114">
    <rdf:RDF>
      <cc:Work
         rdf:about="">
        <dc:format>image/svg+xml</dc:format>
        <dc:type
           rdf:resource="http://purl.org/dc/dcmitype/StillImage" />
        <dc:title />
      </cc:Work>
    </rdf:RDF>
  </metadata>
  <g
     inkscape:label="Layer 1"
     inkscape:groupmode="layer"
     id="layer1"
     transform="translate(0,-263.13332)">
    <g
       id="g2214"
       transform="matrix(0.45,0,0,0.45,111.65028,123.41345)">
      <g
         transform="translate(-2.3812496,-2.3812436)"
         id="g2198" />
      <g
         id="g2200"
         transform="translate(0.26458402,-3.1749871)" />
    </g>
    <g
       inkscape:label="Layer 1"
       id="layer1-3"
       transform="translate(78.207295,1.8900499)" />
    <g
       transform="translate(113.1323,-25.626613)"
       id="layer1-3-6"
       inkscape:label="Layer 1" />
    <g
       transform="matrix(0.45,0,0,0.45,117.6431,116.87825)"
       id="g4657" />
    <g
       id="g4669"
       transform="matrix(0.45,0,0,0.45,117.6431,118.54512)" />
    <path
       style="fill:#000000;fill-opacity:0.2;stroke:none;stroke-width:0.26458332px;stroke-linecap:butt;stroke-linejoin:miter;stroke-opacity:1"
       d="m 25.664584,279.2729 a 7.4083332,7.4083332 0 0 0 -7.093624,5.29167 H 3.4395846 l -2.1166667,2.11666 2.1166667,2.11667 h 1.0583333 l 1.0583333,-1.05833 1.0583333,1.05833 h 0.5291667 l 1.0583333,-1.05833 1.0583332,1.05833 h 0.529167 l 1.0583333,-1.05833 1.058333,1.05833 h 0.529166 l 1.058334,-1.05833 1.058333,1.05833 h 0.529167 l 1.058333,-1.05833 1.058333,1.05833 h 1.37046 a 7.4083332,7.4083332 0 0 0 7.096207,5.29167 7.4083332,7.4083332 0 0 0 7.408333,-7.40834 7.4083332,7.4083332 0 0 0 -7.408333,-7.40833 z m 3.175,5.29167 a 2.1166665,2.1166665 0 0 1 2.116667,2.11666 2.1166665,2.1166665 0 0 1 -2.116667,2.11667 2.1166665,2.1166665 0 0 1 -2.116667,-2.11667 2.1166665,2.1166665 0 0 1 2.116667,-2.11666 z"
       id="path1156"
       inkscape:connector-curvature="0" />
    <path
       style="fill:#ffcc00;fill-opacity:1;stroke:none;stroke-width:0.26458332px;stroke-linecap:butt;stroke-linejoin:miter;stroke-opacity:1"
       d="M 19.05,284.29999 H 3.175 l -2.1166667,2.11666 H 19.05 Z"
       id="path1104"
       inkscape:connector-curvature="0" />
    <path
       style="fill:#ffcc00;fill-opacity:1;stroke:none;stroke-width:0.26458332px;stroke-linecap:butt;stroke-linejoin:miter;stroke-opacity:1"
       d="M 1.0583333,286.41665 3.175,288.53332 h 1.0583333 l 1.0583333,-1.05833 1.0583333,1.05833 h 0.5291667 l 1.0583333,-1.05833 1.0583333,1.05833 h 0.5291667 l 1.0583331,-1.05833 1.058334,1.05833 h 0.529166 l 1.058334,-1.05833 1.058333,1.05833 h 0.529166 l 1.058334,-1.05833 1.058333,1.05833 H 19.05 v -2.11667 z"
       id="path1106"
       inkscape:connector-curvature="0" />
    <path
       style="fill:#000000;stroke:none;stroke-width:0.26458332px;stroke-linecap:butt;stroke-linejoin:miter;stroke-opacity:1;fill-opacity:0.2"
       d="M 1.0583333,286.41665 1.5875,286.94582 h 17.991666 v -0.52917 z"
       id="path1008"
       inkscape:connector-curvature="0" />
    <path
       inkscape:connector-curvature="0"
       style="opacity:1;fill:url(#linearGradient998);fill-opacity:1;stroke:none;stroke-width:1.58749998;stroke-linecap:square;stroke-linejoin:round;stroke-miterlimit:4;stroke-dasharray:none;stroke-dashoffset:0.79999995;stroke-opacity:1"
       d="M 25.4,279.00832 A 7.4083332,7.4083332 0 0 0 17.991666,286.41665 7.4083332,7.4083332 0 0 0 25.4,293.82499 7.4083332,7.4083332 0 0 0 32.808333,286.41665 7.4083332,7.4083332 0 0 0 25.4,279.00832 Z m 3.175,5.29167 a 2.1166665,2.1166665 0 0 1 2.116666,2.11666 2.1166665,2.1166665 0 0 1 -2.116666,2.11667 2.1166665,2.1166665 0 0 1 -2.116667,-2.11667 2.1166665,2.1166665 0 0 1 2.116667,-2.11666 z"
       id="path1100" />
    <path
       inkscape:connector-curvature="0"
       style="opacity:1;fill:url(#linearGradient1006);fill-opacity:1;stroke:none;stroke-width:1.3607136;stroke-linecap:square;stroke-linejoin:round;stroke-miterlimit:4;stroke-dasharray:none;stroke-dashoffset:0.79999995;stroke-opacity:1"
       d="m 25.4,280.06665 a 6.349997,6.349997 0 0 0 -6.35,6.35 6.349997,6.349997 0 0 0 6.35,6.35 6.349997,6.349997 0 0 0 6.35,-6.35 6.349997,6.349997 0 0 0 -6.35,-6.35 z m 3.175,4.23334 a 2.1166665,2.1166665 0 0 1 2.116666,2.11666 2.1166665,2.1166665 0 0 1 -2.116666,2.11667 2.1166665,2.1166665 0 0 1 -2.116667,-2.11667 2.1166665,2.1166665 0 0 1 2.116667,-2.11666 z"
       id="circle1118" />
    <path
       inkscape:connector-curvature="0"
       id="path1225"
       d="m 25.664584,266.83748 a 7.4083332,7.4083332 0 0 0 -7.093624,5.29167 H 3.439584 l -2.1166667,2.11666 2.1166667,2.11667 h 1.0583333 l 1.0583333,-1.05833 1.0583333,1.05833 h 0.5291667 l 1.0583333,-1.05833 1.0583335,1.05833 h 0.5291673 l 1.0583333,-1.05833 1.058333,1.05833 h 0.529166 l 1.058334,-1.05833 1.058333,1.05833 h 0.529167 l 1.058333,-1.05833 1.058333,1.05833 h 1.37046 a 7.4083332,7.4083332 0 0 0 7.096207,5.29167 7.4083332,7.4083332 0 0 0 7.408333,-7.40834 7.4083332,7.4083332 0 0 0 -7.408333,-7.40833 z m 3.175,5.29167 a 2.1166665,2.1166665 0 0 1 2.116667,2.11666 2.1166665,2.1166665 0 0 1 -2.116667,2.11667 2.1166665,2.1166665 0 0 1 -2.116667,-2.11667 2.1166665,2.1166665 0 0 1 2.116667,-2.11666 z"
       style="fill:#000000;fill-opacity:0.2;stroke:none;stroke-width:0.26458332px;stroke-linecap:butt;stroke-linejoin:miter;stroke-opacity:1" />
    <path
       inkscape:connector-curvature="0"
       id="path1227"
       d="M 19.05,271.59999 H 3.175 l -2.1166667,2.11666 H 19.05 Z"
       style="fill:#cdcdcd;fill-opacity:1;stroke:none;stroke-width:0.26458332px;stroke-linecap:butt;stroke-linejoin:miter;stroke-opacity:1" />
    <path
       inkscape:connector-curvature="0"
       id="path1229"
       d="M 1.0583333,273.71665 3.175,275.83332 h 1.0583333 l 1.0583333,-1.05833 1.0583333,1.05833 h 0.5291667 l 1.0583333,-1.05833 1.0583333,1.05833 h 0.5291667 l 1.0583331,-1.05833 1.058334,1.05833 h 0.529166 l 1.058334,-1.05833 1.058333,1.05833 h 0.529166 l 1.058334,-1.05833 1.058333,1.05833 H 19.05 v -2.11667 z"
       style="fill:#afafaf;fill-opacity:1;stroke:none;stroke-width:0.26458332px;stroke-linecap:butt;stroke-linejoin:miter;stroke-opacity:1" />
    <path
       inkscape:connector-curvature="0"
       id="path1015"
       d="M 1.0583333,273.71665 1.5875,274.24582 h 17.991666 v -0.52917 z"
       style="fill:#000000;fill-opacity:0.2;stroke:none;stroke-width:0.26458332px;stroke-linecap:butt;stroke-linejoin:miter;stroke-opacity:1" />
    <path
       inkscape:connector-curvature="0"
       id="path1231"
       d="M 25.4,266.30832 A 7.4083332,7.4083332 0 0 0 17.991666,273.71665 7.4083332,7.4083332 0 0 0 25.4,281.12499 7.4083332,7.4083332 0 0 0 32.808333,273.71665 7.4083332,7.4083332 0 0 0 25.4,266.30832 Z m 3.175,5.29167 a 2.1166665,2.1166665 0 0 1 2.116666,2.11666 2.1166665,2.1166665 0 0 1 -2.116666,2.11667 2.1166665,2.1166665 0 0 1 -2.116667,-2.11667 2.1166665,2.1166665 0 0 1 2.116667,-2.11666 z"
       style="opacity:1;fill:url(#linearGradient981);fill-opacity:1;stroke:none;stroke-width:1.58749998;stroke-linecap:square;stroke-linejoin:round;stroke-miterlimit:4;stroke-dasharray:none;stroke-dashoffset:0.79999995;stroke-opacity:1" />
    <path
       inkscape:connector-curvature="0"
       id="path1233"
       d="m 25.4,267.36665 a 6.349997,6.349997 0 0 0 -6.35,6.35 6.349997,6.349997 0 0 0 6.35,6.35 6.349997,6.349997 0 0 0 6.35,-6.35 6.349997,6.349997 0 0 0 -6.35,-6.35 z m 3.175,4.23334 a 2.1166665,2.1166665 0 0 1 2.116666,2.11666 2.1166665,2.1166665 0 0 1 -2.116666,2.11667 2.1166665,2.1166665 0 0 1 -2.116667,-2.11667 2.1166665,2.1166665 0 0 1 2.116667,-2.11666 z"
       style="opacity:1;fill:url(#linearGradient973);fill-opacity:1;stroke:none;stroke-width:1.3607136;stroke-linecap:square;stroke-linejoin:round;stroke-miterlimit:4;stroke-dasharray:none;stroke-dashoffset:0.79999995;stroke-opacity:1" />
  </g>
</svg>
