<?xml version="1.0" encoding="UTF-8" standalone="no"?>
<svg
   xmlns:dc="http://purl.org/dc/elements/1.1/"
   xmlns:cc="http://creativecommons.org/ns#"
   xmlns:rdf="http://www.w3.org/1999/02/22-rdf-syntax-ns#"
   xmlns:svg="http://www.w3.org/2000/svg"
   xmlns="http://www.w3.org/2000/svg"
   xmlns:xlink="http://www.w3.org/1999/xlink"
   xmlns:sodipodi="http://sodipodi.sourceforge.net/DTD/sodipodi-0.dtd"
   xmlns:inkscape="http://www.inkscape.org/namespaces/inkscape"
   version="1"
   width="128"
   height="128"
   id="svg74"
   sodipodi:docname="gimp.svg"
   inkscape:version="1.0.2 (e86c870879, 2021-01-15)">
  <metadata
     id="metadata78">
    <rdf:RDF>
      <cc:Work
         rdf:about="">
        <dc:format>image/svg+xml</dc:format>
        <dc:type
           rdf:resource="http://purl.org/dc/dcmitype/StillImage" />
        <dc:title></dc:title>
      </cc:Work>
    </rdf:RDF>
  </metadata>
  <sodipodi:namedview
     pagecolor="#ffffff"
     bordercolor="#666666"
     borderopacity="1"
     objecttolerance="10"
     gridtolerance="10"
     guidetolerance="10"
     inkscape:pageopacity="0"
     inkscape:pageshadow="2"
     inkscape:window-width="640"
     inkscape:window-height="480"
     id="namedview76"
     showgrid="false"
     inkscape:zoom="1"
     inkscape:cx="24"
     inkscape:cy="24"
     inkscape:current-layer="svg74" />
  <defs
     id="defs48">
    <linearGradient
       id="linearGradient4176">
      <stop
         style="stop-color:#6f8181;stop-opacity:1"
         offset="0"
         id="stop2" />
      <stop
         style="stop-color:#b0b8b8;stop-opacity:1"
         offset="1"
         id="stop4" />
    </linearGradient>
    <linearGradient
       id="linearGradient4215">
      <stop
         offset="0"
         style="stop-color:#334545;stop-opacity:1"
         id="stop7" />
      <stop
         offset="1"
         style="stop-color:#172525;stop-opacity:1"
         id="stop9" />
    </linearGradient>
    <linearGradient
       id="linearGradient4209">
      <stop
         offset="0"
         style="stop-color:#cfd5d5;stop-opacity:1"
         id="stop12" />
      <stop
         offset="1"
         style="stop-color:#fcfcfc;stop-opacity:1"
         id="stop14" />
    </linearGradient>
    <linearGradient
       id="linearGradient4349">
      <stop
         style="stop-color:#000000;stop-opacity:1;"
         offset="0"
         id="stop17" />
      <stop
         style="stop-color:#000000;stop-opacity:0;"
         offset="1"
         id="stop19" />
    </linearGradient>
    <linearGradient
       id="linearGradient4267">
      <stop
         style="stop-color:#6c5548;stop-opacity:1"
         offset="0"
         id="stop22" />
      <stop
         style="stop-color:#bb9d71;stop-opacity:1"
         offset="1"
         id="stop24" />
    </linearGradient>
    <radialGradient
       cx="15.415"
       cy="35.356998"
       r="7.579"
       fx="15.415"
       fy="35.356998"
       id="radialGradient6969"
       xlink:href="#linearGradient4215"
       gradientUnits="userSpaceOnUse"
       gradientTransform="matrix(-0.43814446,-1.4235757,1.4493976,-0.40869716,59.814639,132.17555)" />
    <linearGradient
       id="linearGradient6951">
      <stop
         style="stop-color:#ffa92d;stop-opacity:1"
         offset="0"
         id="stop28" />
      <stop
         style="stop-color:#cd7223;stop-opacity:1"
         offset="1"
         id="stop30" />
    </linearGradient>
    <linearGradient
       x1="37.018002"
       y1="19.24"
       x2="30.865"
       y2="14.64"
       id="linearGradient6957"
       xlink:href="#linearGradient6951"
       gradientUnits="userSpaceOnUse"
       gradientTransform="matrix(-0.267988,-0.90968265,0.90968265,-0.267988,81.478374,119.07734)" />
    <linearGradient
       id="linearGradient6482">
      <stop
         style="stop-color:black;stop-opacity:1"
         offset="0"
         id="stop34" />
      <stop
         style="stop-color:black;stop-opacity:0"
         offset="1"
         id="stop36" />
    </linearGradient>
    <linearGradient
       x1="32.349998"
       y1="28.083"
       x2="21.212999"
       y2="30.292999"
       id="linearGradient4351"
       xlink:href="#linearGradient6482"
       gradientUnits="userSpaceOnUse"
       gradientTransform="matrix(2.2722802,0,0,2.424523,0.8549539,3.6143116)" />
    <linearGradient
       xlink:href="#linearGradient4267"
       id="linearGradient4273"
       x1="34.712002"
       y1="34.584999"
       x2="5"
       y2="9"
       gradientUnits="userSpaceOnUse"
       gradientTransform="matrix(2.3333333,0,0,2.3333333,8.000002,5.6666675)" />
    <radialGradient
       xlink:href="#linearGradient4209"
       id="radialGradient4281"
       cx="22"
       cy="22"
       fx="22"
       fy="22"
       r="5"
       gradientUnits="userSpaceOnUse"
       gradientTransform="matrix(2.3333333,0,0,2.3333333,8.000002,5.6666675)" />
    <radialGradient
       xlink:href="#linearGradient4209"
       id="radialGradient4289"
       cx="13.5"
       cy="21.5"
       fx="13.5"
       fy="21.5"
       r="4.5"
       gradientUnits="userSpaceOnUse"
       gradientTransform="matrix(2.3333333,0,0,2.3333333,8.000002,5.6666675)" />
    <radialGradient
       xlink:href="#linearGradient4215"
       id="radialGradient4335"
       cx="3.4960001"
       cy="22.823"
       fx="3.4960001"
       fy="22.823"
       r="5.5"
       gradientTransform="matrix(2.3333333,0,0,2.5454548,8.000002,0.15151155)"
       gradientUnits="userSpaceOnUse" />
    <linearGradient
       xlink:href="#linearGradient4349"
       id="linearGradient4240"
       x1="15.263"
       y1="18.832001"
       x2="31"
       y2="35"
       gradientUnits="userSpaceOnUse"
       gradientTransform="translate(5.0238058e-7,-1)" />
    <radialGradient
       xlink:href="#linearGradient4215"
       id="radialGradient4282"
       cx="23.5"
       cy="22.5"
       fx="23.5"
       fy="22.5"
       r="2.5"
       gradientUnits="userSpaceOnUse"
       gradientTransform="matrix(2.3333333,0,0,2.3333333,8.0000008,5.6666675)" />
    <radialGradient
       xlink:href="#linearGradient4215"
       id="radialGradient4290"
       cx="14.5"
       cy="21.5"
       fx="14.5"
       fy="21.5"
       r="2.5"
       gradientUnits="userSpaceOnUse"
       gradientTransform="matrix(1.8666666,0,0,1.8666666,15.933334,16.866667)" />
    <linearGradient
       xlink:href="#linearGradient4176"
       id="linearGradient4182"
       x1="37.34"
       y1="35.924"
       x2="38.347"
       y2="33.508999"
       gradientUnits="userSpaceOnUse"
       gradientTransform="matrix(2.3333333,0,0,2.3333333,8.0000008,8.0000008)" />
  </defs>
  <path
     style="color:#000000;font-style:normal;font-variant:normal;font-weight:normal;font-stretch:normal;font-size:medium;line-height:normal;font-family:sans-serif;text-indent:0;text-align:start;text-decoration:none;text-decoration-line:none;text-decoration-style:solid;text-decoration-color:#000000;letter-spacing:normal;word-spacing:normal;text-transform:none;writing-mode:lr-tb;direction:ltr;baseline-shift:baseline;text-anchor:start;white-space:normal;clip-rule:nonzero;display:inline;overflow:visible;visibility:visible;isolation:auto;mix-blend-mode:normal;color-interpolation:sRGB;color-interpolation-filters:linearRGB;solid-color:#000000;solid-opacity:1;fill:url(#linearGradient4273);fill-opacity:1;fill-rule:evenodd;stroke:none;stroke-width:2.33333;stroke-linecap:butt;stroke-linejoin:miter;stroke-miterlimit:10;stroke-dasharray:none;stroke-dashoffset:0;stroke-opacity:1;marker:none;color-rendering:auto;image-rendering:auto;shape-rendering:auto;text-rendering:auto;enable-background:accumulate"
     d="m 96.056227,24.409842 c -0.733971,-0.112238 -1.393374,0.287352 -1.789786,0.742838 -0.396408,0.455487 -0.671461,1.019993 -0.910992,1.731771 -0.414253,1.230947 -1.935577,5.800835 -7.421395,10.317708 C 80.448236,41.71904 70.988144,47.2985 54.592131,47.705937 42.134131,47.848375 34.507253,39.832395 31.333336,29 v 6.405805 l -0.05061,17.992189 0.101224,0.236978 c 0,0 0.893161,1.916189 -0.05061,4.498048 -0.943774,2.581857 -4.665767,5.94227 -12.983182,8.353515 l -1.016821,0.291667 0.19324,1.034504 c 0.461343,2.505345 2.300284,5.073001 5.015076,7.701823 2.714792,2.628824 6.349657,5.288247 10.582271,7.692708 8.465228,4.808923 19.30761,8.608784 29.842005,8.786458 10.534394,0.177683 20.841336,-3.37998 27.661135,-13.234375 6.819803,-9.854392 10.145786,-26.952214 7.421393,-51.446484 l -0.0047,-0.0091 v -0.0091 C 97.95721,26.622015 97.80363,26.04778 97.528544,25.544608 97.253455,25.041435 96.7902,24.522079 96.056227,24.409842 Z"
     id="path50" />
  <path
     style="color:#000000;display:inline;overflow:visible;visibility:visible;fill:url(#linearGradient4351);fill-opacity:1;fill-rule:evenodd;stroke:none;stroke-width:2.33333;stroke-linecap:butt;stroke-linejoin:miter;stroke-miterlimit:10;stroke-dasharray:none;stroke-dashoffset:0;stroke-opacity:1;marker:none;marker-start:none;marker-mid:none;marker-end:none"
     d="m 45.333338,75.671324 c 15.31267,3.267863 23.110661,0.237822 27.674498,-3.522288 -1.205057,-1.660822 -2.007834,-3.482369 -2.007834,-3.482369 0,0 4.091531,1.585497 5.974486,4.178841 1.877563,2.585919 0.697153,4.179168 0.205777,7.487825 -1.0939,-2.906031 -3.135704,-3.995838 -3.412131,-5.150492 -4.104348,6.053856 -14.330006,5.802369 -28.434796,0.488483 z"
     id="path54" />
  <path
     style="color:#000000;font-style:normal;font-variant:normal;font-weight:normal;font-stretch:normal;font-size:medium;line-height:normal;font-family:sans-serif;text-indent:0;text-align:start;text-decoration:none;text-decoration-line:none;text-decoration-style:solid;text-decoration-color:#000000;letter-spacing:normal;word-spacing:normal;text-transform:none;writing-mode:lr-tb;direction:ltr;baseline-shift:baseline;text-anchor:start;white-space:normal;clip-rule:nonzero;display:inline;overflow:visible;visibility:visible;opacity:0.2;isolation:auto;mix-blend-mode:normal;color-interpolation:sRGB;color-interpolation-filters:linearRGB;solid-color:#000000;solid-opacity:1;fill:#000000;fill-opacity:1;fill-rule:evenodd;stroke:none;stroke-width:2.33333;stroke-linecap:butt;stroke-linejoin:miter;stroke-miterlimit:10;stroke-dasharray:none;stroke-dashoffset:0;stroke-opacity:1;marker:none;color-rendering:auto;image-rendering:auto;shape-rendering:auto;text-rendering:auto;enable-background:accumulate"
     d="M 98.981774,42.635417 C 98.789997,57.891898 95.668254,69.145103 90.628256,76.427734 83.808457,86.282129 73.499891,89.839793 62.965498,89.662109 52.431102,89.484435 41.58958,85.684574 33.124351,80.875651 28.891738,78.471191 25.257111,75.811767 22.54232,73.182943 20.243637,70.957053 18.581976,68.771604 17.843752,66.634114 l -0.510417,0.145833 0.191406,1.034507 c 0.461343,2.505344 2.302786,5.073 5.017578,7.701822 2.714792,2.628824 6.349419,5.288248 10.582032,7.692708 8.465229,4.808923 19.306751,8.608785 29.841147,8.786459 10.534393,0.177683 20.842959,-3.379981 27.662758,-13.234375 5.292654,-7.64771 8.464405,-19.681177 8.353518,-36.125651 z m -67.694012,8.444662 -0.0046,2.31966 0.100259,0.23698 c 0,0 0.151526,0.39386 0.264324,0.975259 0.351958,-1.955065 -0.264324,-3.308592 -0.264324,-3.308592 l -0.0957,-0.2233 z"
     id="path56" />
  <path
     d="m 94.258139,90.601019 2.161586,-4.304708 C 88.378288,80.413196 73.365963,74.443344 73.365963,74.443344 l -2.365436,1.300334 c 0,0 13.630183,12.089082 23.257612,14.857341 z"
     style="color:#000000;display:inline;overflow:visible;visibility:visible;fill:url(#linearGradient6957);fill-opacity:1;fill-rule:nonzero;stroke:none;stroke-width:5.74105;stroke-linecap:round;stroke-linejoin:miter;stroke-miterlimit:4;stroke-dasharray:none;stroke-dashoffset:0;stroke-opacity:1;marker:none;marker-start:none;marker-mid:none;marker-end:none"
     id="path58" />
  <path
     d="m 94.333335,82.666746 -1.127172,0.741269 c -1.044013,0.571455 -1.89102,1.542735 -2.578042,2.666046 -0.786137,1.846633 -1.096578,3.001411 -0.961452,4.805619 L 91.300002,90.6 c 0,0 8.528153,2.446588 12.565288,3.733333 L 104.33753,93.423592 106,90.205806 94.333335,84.229118 Z"
     style="color:#000000;font-style:normal;font-variant:normal;font-weight:normal;font-stretch:normal;font-size:medium;line-height:normal;font-family:sans-serif;text-indent:0;text-align:start;text-decoration:none;text-decoration-line:none;text-decoration-style:solid;text-decoration-color:#000000;letter-spacing:normal;word-spacing:normal;text-transform:none;writing-mode:lr-tb;direction:ltr;baseline-shift:baseline;text-anchor:start;white-space:normal;clip-rule:nonzero;display:inline;overflow:visible;visibility:visible;isolation:auto;mix-blend-mode:normal;color-interpolation:sRGB;color-interpolation-filters:linearRGB;solid-color:#000000;solid-opacity:1;fill:url(#linearGradient4182);fill-opacity:1;fill-rule:nonzero;stroke:none;stroke-width:5.74105;stroke-linecap:round;stroke-linejoin:miter;stroke-miterlimit:4;stroke-dasharray:none;stroke-dashoffset:0;stroke-opacity:1;marker:none;color-rendering:auto;image-rendering:auto;shape-rendering:auto;text-rendering:auto;enable-background:accumulate"
     id="path60" />
  <path
     d="m 117.66667,106 c -2.90964,-9.453694 -3.94162,-16.959901 -11.54545,-16.291964 -6.127629,0.538268 -6.556619,8.942113 -0.22463,11.261124 6.09972,2.23395 11.77007,5.03084 11.77007,5.03084 z"
     style="color:#000000;display:inline;overflow:visible;visibility:visible;fill:url(#radialGradient6969);fill-opacity:1;fill-rule:nonzero;stroke:none;stroke-width:0.466667;stroke-linecap:round;stroke-linejoin:miter;stroke-miterlimit:4;stroke-dasharray:none;stroke-dashoffset:0;stroke-opacity:1;marker:none;marker-start:none;marker-mid:none;marker-end:none"
     id="path62" />
  <path
     style="color:#000000;font-style:normal;font-variant:normal;font-weight:normal;font-stretch:normal;font-size:medium;line-height:normal;font-family:sans-serif;text-indent:0;text-align:start;text-decoration:none;text-decoration-line:none;text-decoration-style:solid;text-decoration-color:#000000;letter-spacing:normal;word-spacing:normal;text-transform:none;writing-mode:lr-tb;direction:ltr;baseline-shift:baseline;text-anchor:start;white-space:normal;clip-rule:nonzero;display:inline;overflow:visible;visibility:visible;isolation:auto;mix-blend-mode:normal;color-interpolation:sRGB;color-interpolation-filters:linearRGB;solid-color:#000000;solid-opacity:1;fill:url(#radialGradient4289);fill-opacity:1;fill-rule:evenodd;stroke:none;stroke-width:2.33333;stroke-linecap:butt;stroke-linejoin:miter;stroke-miterlimit:10;stroke-dasharray:none;stroke-dashoffset:0;stroke-opacity:1;marker:none;color-rendering:auto;image-rendering:auto;shape-rendering:auto;text-rendering:auto;enable-background:accumulate"
     d="m 39.5,45.333334 c -2.593007,0 -5.200043,0.858076 -7.190117,2.627244 -1.990074,1.769169 -3.310415,4.468476 -3.309881,7.872755 -5.34e-4,3.404278 1.319807,6.103585 3.309881,7.872753 1.990074,1.769171 4.59711,2.627245 7.190117,2.627247 2.593013,0 5.204538,-0.858076 7.194614,-2.627247 1.99007,-1.769168 3.305921,-4.468475 3.305389,-7.872753 5.32e-4,-3.404279 -1.315319,-6.103586 -3.305389,-7.872755 C 44.70454,46.19141 42.093013,45.333334 39.5,45.333334 Z"
     id="path64" />
  <path
     style="color:#000000;display:inline;overflow:visible;visibility:visible;fill:url(#radialGradient4335);fill-opacity:1;fill-rule:evenodd;stroke:none;stroke-width:2.33333;stroke-linecap:butt;stroke-linejoin:miter;stroke-miterlimit:10;stroke-dasharray:none;stroke-dashoffset:0;stroke-opacity:1;marker:none;marker-start:none;marker-mid:none;marker-end:none"
     d="m 19.902656,52.33377 c -0.569445,-0.0051 -1.127872,0.03486 -1.670688,0.12089 -1.44751,0.22953 -2.787727,0.776489 -3.943182,1.60768 -4.6218179,3.32476 -5.8390193,10.859854 -0.130242,18.750294 5.708778,7.890441 13.261725,9.115096 17.883544,5.790336 4.621818,-3.324761 5.843512,-10.859855 0.134727,-18.750295 -3.74638,-5.178096 -8.288043,-7.484183 -12.274159,-7.518917 z"
     id="path66" />
  <path
     style="color:#000000;font-style:normal;font-variant:normal;font-weight:normal;font-stretch:normal;font-size:medium;line-height:normal;font-family:sans-serif;text-indent:0;text-align:start;text-decoration:none;text-decoration-line:none;text-decoration-style:solid;text-decoration-color:#000000;letter-spacing:normal;word-spacing:normal;text-transform:none;writing-mode:lr-tb;direction:ltr;baseline-shift:baseline;text-anchor:start;white-space:normal;clip-rule:nonzero;display:inline;overflow:visible;visibility:visible;isolation:auto;mix-blend-mode:normal;color-interpolation:sRGB;color-interpolation-filters:linearRGB;solid-color:#000000;solid-opacity:1;fill:url(#radialGradient4281);fill-opacity:1;fill-rule:evenodd;stroke:none;stroke-width:2.33333;stroke-linecap:butt;stroke-linejoin:miter;stroke-miterlimit:10;stroke-dasharray:none;stroke-dashoffset:0;stroke-opacity:1;marker:none;color-rendering:auto;image-rendering:auto;shape-rendering:auto;text-rendering:auto;enable-background:accumulate"
     d="m 59.331175,45.333334 c -2.886214,0 -5.786928,0.954202 -7.995309,2.917205 -2.208381,1.963008 -3.669197,4.954556 -3.669197,8.751624 0,3.797064 1.460816,6.78429 3.669197,8.747298 2.208381,1.963003 5.109095,2.917206 7.995309,2.917206 2.886214,0 5.786928,-0.954203 7.995309,-2.917206 2.208381,-1.963008 3.673518,-4.950234 3.673518,-8.747298 0,-3.797068 -1.465137,-6.788616 -3.673518,-8.751624 -2.208381,-1.963003 -5.109095,-2.917205 -7.995309,-2.917205 z"
     id="path68" />
  <path
     style="color:#000000;font-style:normal;font-variant:normal;font-weight:normal;font-stretch:normal;font-size:medium;line-height:normal;font-family:sans-serif;text-indent:0;text-align:start;text-decoration:none;text-decoration-line:none;text-decoration-style:solid;text-decoration-color:#000000;letter-spacing:normal;word-spacing:normal;text-transform:none;writing-mode:lr-tb;direction:ltr;baseline-shift:baseline;text-anchor:start;white-space:normal;clip-rule:nonzero;display:inline;overflow:visible;visibility:visible;isolation:auto;mix-blend-mode:normal;color-interpolation:sRGB;color-interpolation-filters:linearRGB;solid-color:#000000;solid-opacity:1;fill:url(#radialGradient4282);fill-opacity:1;fill-rule:evenodd;stroke:none;stroke-width:2.50171;stroke-linecap:butt;stroke-linejoin:miter;stroke-miterlimit:10;stroke-dasharray:none;stroke-dashoffset:0;stroke-opacity:1;marker:none;color-rendering:auto;image-rendering:auto;shape-rendering:auto;text-rendering:auto;enable-background:accumulate"
     d="m 62.833333,52.333334 c -1.429379,0 -2.874405,0.4726 -3.987629,1.462131 C 57.73248,54.784997 57,56.309086 57,58.166667 c 0,1.857578 0.73248,3.381672 1.845704,4.371203 C 59.958928,63.527402 61.403954,64 62.833333,64 c 1.429379,0 2.874406,-0.472598 3.98763,-1.46213 1.113224,-0.989531 1.845704,-2.513625 1.845704,-4.371203 0,-1.857581 -0.73248,-3.38167 -1.845704,-4.371202 -1.113224,-0.989531 -2.558251,-1.462131 -3.98763,-1.462131 z"
     id="path70" />
  <path
     d="m 43,52.333334 c -1.143503,0 -2.299523,0.378079 -3.190103,1.169704 -0.890579,0.791625 -1.476563,2.010897 -1.476563,3.496962 0,1.486063 0.585984,2.705337 1.476563,3.496962 0.89058,0.791625 2.0466,1.169705 3.190103,1.169705 1.143504,0 2.299524,-0.37808 3.190103,-1.169705 0.89058,-0.791625 1.476564,-2.010899 1.476564,-3.496962 0,-1.486065 -0.585984,-2.705337 -1.476564,-3.496962 C 45.299524,52.711413 44.143504,52.333334 43,52.333334 Z"
     style="color:#000000;font-style:normal;font-variant:normal;font-weight:normal;font-stretch:normal;font-size:medium;line-height:normal;font-family:sans-serif;text-indent:0;text-align:start;text-decoration:none;text-decoration-line:none;text-decoration-style:solid;text-decoration-color:#000000;letter-spacing:normal;word-spacing:normal;text-transform:none;writing-mode:lr-tb;direction:ltr;baseline-shift:baseline;text-anchor:start;white-space:normal;clip-rule:nonzero;display:inline;overflow:visible;visibility:visible;isolation:auto;mix-blend-mode:normal;color-interpolation:sRGB;color-interpolation-filters:linearRGB;solid-color:#000000;solid-opacity:1;fill:url(#radialGradient4290);fill-opacity:1;fill-rule:evenodd;stroke:none;stroke-width:2.50171;stroke-linecap:butt;stroke-linejoin:miter;stroke-miterlimit:10;stroke-dasharray:none;stroke-dashoffset:0;stroke-opacity:1;marker:none;color-rendering:auto;image-rendering:auto;shape-rendering:auto;text-rendering:auto;enable-background:accumulate"
     id="path72" />
</svg>
