<?xml version="1.0" encoding="UTF-8" standalone="no"?>
<svg
   xmlns:dc="http://purl.org/dc/elements/1.1/"
   xmlns:cc="http://creativecommons.org/ns#"
   xmlns:rdf="http://www.w3.org/1999/02/22-rdf-syntax-ns#"
   xmlns:svg="http://www.w3.org/2000/svg"
   xmlns="http://www.w3.org/2000/svg"
   xmlns:xlink="http://www.w3.org/1999/xlink"
   xmlns:sodipodi="http://sodipodi.sourceforge.net/DTD/sodipodi-0.dtd"
   xmlns:inkscape="http://www.inkscape.org/namespaces/inkscape"
   inkscape:version="1.0 (4035a4fb49, 2020-05-01)"
   sodipodi:docname="graphics-viewer-document.svg"
   id="svg54"
   version="1.1"
   height="128"
   width="128">
  <metadata
     id="metadata58">
    <rdf:RDF>
      <cc:Work
         rdf:about="">
        <dc:format>image/svg+xml</dc:format>
        <dc:type
           rdf:resource="http://purl.org/dc/dcmitype/StillImage" />
        <dc:title></dc:title>
      </cc:Work>
    </rdf:RDF>
  </metadata>
  <sodipodi:namedview
     inkscape:current-layer="svg54"
     inkscape:cy="64"
     inkscape:cx="64"
     inkscape:zoom="1"
     showgrid="false"
     id="namedview56"
     inkscape:window-height="480"
     inkscape:window-width="640"
     inkscape:pageshadow="2"
     inkscape:pageopacity="0"
     guidetolerance="10"
     gridtolerance="10"
     objecttolerance="10"
     borderopacity="1"
     bordercolor="#666666"
     pagecolor="#ffffff">
    <inkscape:grid
       id="grid883"
       type="xygrid" />
  </sodipodi:namedview>
  <defs
     id="defs32">
    <linearGradient
       id="linearGradient5022">
      <stop
         id="stop2"
         offset="0"
         style="stop-color:#ffffff;stop-opacity:1;" />
      <stop
         id="stop4"
         offset="1"
         style="stop-color:#ffffff;stop-opacity:0;" />
    </linearGradient>
    <linearGradient
       gradientTransform="matrix(1.1250015,0,0,1,-51.071966,0)"
       gradientUnits="userSpaceOnUse"
       y2="503.798"
       x2="409.57101"
       y1="543.79797"
       x1="409.57101"
       id="linearGradient4158"
       xlink:href="#linearGradient4159" />
    <linearGradient
       id="linearGradient4143">
      <stop
         id="stop8"
         offset="0"
         style="stop-color:#1873e5;stop-opacity:1" />
      <stop
         id="stop10"
         offset="1"
         style="stop-color:#1ab3ff;stop-opacity:1" />
    </linearGradient>
    <linearGradient
       gradientUnits="userSpaceOnUse"
       y2="7"
       x2="35"
       y1="44"
       x1="35"
       id="linearGradient4555"
       xlink:href="#linearGradient4143" />
    <linearGradient
       id="linearGradient4159">
      <stop
         id="stop14"
         offset="0"
         style="stop-color:#1d1e1e;stop-opacity:1" />
      <stop
         id="stop16"
         offset="1"
         style="stop-color:#44484c;stop-opacity:1" />
    </linearGradient>
    <linearGradient
       id="linearGradient4435">
      <stop
         id="stop19"
         offset="0"
         style="stop-color:#b22325;stop-opacity:1" />
      <stop
         id="stop21"
         offset="1"
         style="stop-color:#ff3233;stop-opacity:1" />
    </linearGradient>
    <linearGradient
       gradientUnits="userSpaceOnUse"
       y2="503.798"
       x2="396.57101"
       y1="526.79803"
       x1="396.57141"
       id="linearGradient4866"
       xlink:href="#linearGradient4435" />
    <linearGradient
       gradientUnits="userSpaceOnUse"
       y2="18"
       x2="22"
       y1="4"
       x1="8"
       id="linearGradient4884"
       xlink:href="#linearGradient4227" />
    <linearGradient
       id="linearGradient4227">
      <stop
         id="stop26"
         style="stop-color:#292c2f;stop-opacity:1"
         offset="0" />
      <stop
         id="stop28"
         style="stop-color:#000000;stop-opacity:0;"
         offset="1" />
    </linearGradient>
    <linearGradient
       gradientUnits="userSpaceOnUse"
       y2="504.798"
       x2="396.57101"
       y1="527.79797"
       x1="396.57101"
       id="linearGradient5028"
       xlink:href="#linearGradient5022" />
  </defs>
  <g
     id="g52"
     transform="matrix(2.6666667,0,0,2.6666667,-1025.5238,-1332.7947)">
    <rect
       id="rect34"
       ry="0"
       y="502.798"
       x="389.07141"
       height="41.999966"
       width="38.999992"
       style="opacity:1;fill:url(#linearGradient4158);fill-opacity:1;stroke:none" />
    <path
       sodipodi:nodetypes="cscccccsccccccscssccccc"
       id="path36"
       transform="translate(384.57143,499.798)"
       d="m 43.49999,4.5000062 c -1.096939,0.453249 -2.194079,1.0487232 -3.291016,1.828125 -1.844633,1.31066 -3.59172,2.9609048 -5.242187,4.9511718 -1.60192,1.94172 -3.058481,4.15126 -4.369141,6.626953 -1.26212,2.427154 -2.208783,4.950939 -2.839844,7.572266 -0.679599,2.62132 -0.970133,5.024544 -0.873046,7.208984 0.145626,2.135894 0.606125,3.932379 1.382812,5.388672 0.776693,1.456287 1.843925,2.499799 3.203125,3.130859 1.359207,0.63106 2.962001,0.751622 4.806641,0.363282 1.796086,-0.388347 3.616297,-1.236215 5.460937,-2.546875 0.603814,-0.433507 1.187534,-0.907628 1.761719,-1.400391 v -4.570312 c -0.362065,0.282134 -0.730533,0.550824 -1.105469,0.800781 -1.456293,0.92232 -2.865402,1.455936 -4.224609,1.601562 -1.407747,0.145634 -2.595546,-0.09746 -3.566406,-0.728515 -0.97086,-0.63106 -1.72384,-1.577724 -2.257813,-2.839844 -0.485433,-1.26212 -0.728515,-2.766125 -0.728515,-4.513672 -10e-7,-1.796093 0.290526,-3.738818 0.873046,-5.826172 0.582514,-2.087346 1.408616,-4.077523 2.476563,-5.970703 1.067947,-1.94172 2.232021,-3.641363 3.494141,-5.097656 1.310666,-1.504833 2.670378,-2.7183051 4.078124,-3.6406251 0.321546,-0.2143641 0.641759,-0.4000863 0.960938,-0.5742188 z"
       style="font-style:normal;font-variant:normal;font-weight:normal;font-stretch:normal;font-size:medium;line-height:125%;font-family:'Impregnable Personal Use Only';-inkscape-font-specification:'Impregnable Personal Use Only';letter-spacing:0px;word-spacing:0px;fill:url(#linearGradient4555);fill-opacity:1;stroke:none;stroke-width:1px;stroke-linecap:butt;stroke-linejoin:miter;stroke-opacity:1" />
    <rect
       id="rect44"
       y="543.29803"
       x="389.07141"
       height="1.499971"
       width="39.000008"
       style="opacity:1;fill:#f8ffff;fill-opacity:0.2;stroke:none;stroke-opacity:1" />
    <path
       sodipodi:nodetypes="cccccc"
       id="path48"
       d="m 393.57142,502.79801 0,25.5 4,-2.30859 4,2.30859 0,-25.5 z"
       style="opacity:1;fill:url(#linearGradient4866);fill-opacity:1;stroke:none;stroke-opacity:1" />
  </g>
</svg>
