<?xml version="1.0" encoding="UTF-8" standalone="no"?>
<svg
   xmlns:dc="http://purl.org/dc/elements/1.1/"
   xmlns:cc="http://creativecommons.org/ns#"
   xmlns:rdf="http://www.w3.org/1999/02/22-rdf-syntax-ns#"
   xmlns:svg="http://www.w3.org/2000/svg"
   xmlns="http://www.w3.org/2000/svg"
   xmlns:xlink="http://www.w3.org/1999/xlink"
   xmlns:sodipodi="http://sodipodi.sourceforge.net/DTD/sodipodi-0.dtd"
   xmlns:inkscape="http://www.inkscape.org/namespaces/inkscape"
   sodipodi:docname="help-browser.svg"
   inkscape:version="1.0.2 (e86c870879, 2021-01-15)"
   id="svg8"
   version="1.1"
   viewBox="0 0 33.866666 33.866668"
   height="128"
   width="128">
  <defs
     id="defs2">
    <linearGradient
       id="linearGradient959"
       inkscape:collect="always">
      <stop
         id="stop955"
         offset="0"
         style="stop-color:#02e4e2;stop-opacity:1" />
      <stop
         id="stop957"
         offset="1"
         style="stop-color:#028482;stop-opacity:1" />
    </linearGradient>
    <linearGradient
       id="linearGradient977"
       inkscape:collect="always">
      <stop
         id="stop973"
         offset="0"
         style="stop-color:#7eeeec;stop-opacity:1;" />
      <stop
         id="stop975"
         offset="1"
         style="stop-color:#7eeeec;stop-opacity:0.38461539" />
    </linearGradient>
    <linearGradient
       id="linearGradient939"
       inkscape:collect="always">
      <stop
         id="stop935"
         offset="0"
         style="stop-color:#bba19f;stop-opacity:1" />
      <stop
         style="stop-color:#cab6b4;stop-opacity:1"
         offset="0.5"
         id="stop943" />
      <stop
         id="stop945"
         offset="0.75"
         style="stop-color:#9a746f;stop-opacity:1" />
      <stop
         id="stop937"
         offset="1"
         style="stop-color:#8d6763;stop-opacity:1" />
    </linearGradient>
    <linearGradient
       id="linearGradient931"
       inkscape:collect="always">
      <stop
         id="stop927"
         offset="0"
         style="stop-color:#ffffff;stop-opacity:1" />
      <stop
         id="stop929"
         offset="1"
         style="stop-color:#fefe74;stop-opacity:0" />
    </linearGradient>
    <radialGradient
       gradientUnits="userSpaceOnUse"
       gradientTransform="matrix(2.0000001,0,0,2.363637,-33.864263,-394.66861)"
       r="2.9104171"
       fy="283.1806"
       fx="24.606251"
       cy="283.1806"
       cx="24.606251"
       id="radialGradient933"
       xlink:href="#linearGradient931"
       inkscape:collect="always" />
    <linearGradient
       gradientTransform="matrix(0.6442125,0,0,0.64421241,-44.908138,266.3615)"
       gradientUnits="userSpaceOnUse"
       y2="31.5"
       x2="101"
       y1="31.5"
       x1="91"
       id="linearGradient941"
       xlink:href="#linearGradient939"
       inkscape:collect="always" />
    <linearGradient
       gradientTransform="matrix(2.0000001,0,0,1.9259255,-2.7072247,-277.5389)"
       gradientUnits="userSpaceOnUse"
       y2="282.36191"
       x2="4.5286121"
       y1="295.59109"
       x1="4.5286121"
       id="linearGradient979"
       xlink:href="#linearGradient977"
       inkscape:collect="always" />
    <linearGradient
       y2="31.5"
       x2="101"
       y1="31.5"
       x1="91"
       gradientTransform="matrix(0.26458333,0,0,0.26458333,-16.972668,281.26038)"
       gradientUnits="userSpaceOnUse"
       id="linearGradient961"
       xlink:href="#linearGradient939"
       inkscape:collect="always" />
    <linearGradient
       y2="31.5"
       x2="101"
       y1="31.5"
       x1="91"
       gradientTransform="matrix(0.6442125,0,0,0.64421241,-45.006838,269.26801)"
       gradientUnits="userSpaceOnUse"
       id="linearGradient1105"
       xlink:href="#linearGradient939"
       inkscape:collect="always" />
    <linearGradient
       gradientUnits="userSpaceOnUse"
       y2="293.82498"
       x2="28.575001"
       y1="266.30832"
       x1="5.2916665"
       id="linearGradient962"
       xlink:href="#linearGradient959"
       inkscape:collect="always" />
    <radialGradient
       r="2.9104171"
       fy="283.1806"
       fx="24.606251"
       cy="283.1806"
       cx="24.606251"
       gradientTransform="matrix(2.4348189,0,0,2.8775139,-44.908138,-541.40824)"
       gradientUnits="userSpaceOnUse"
       id="radialGradient1008"
       xlink:href="#linearGradient931"
       inkscape:collect="always" />
  </defs>
  <sodipodi:namedview
     inkscape:snap-to-guides="false"
     inkscape:snap-page="true"
     inkscape:snap-smooth-nodes="true"
     inkscape:snap-grids="true"
     inkscape:window-maximized="1"
     inkscape:window-y="0"
     inkscape:window-x="0"
     inkscape:window-height="711"
     inkscape:window-width="1024"
     inkscape:snap-global="true"
     inkscape:bbox-nodes="true"
     inkscape:snap-nodes="true"
     inkscape:snap-bbox="true"
     units="px"
     showgrid="false"
     inkscape:document-rotation="0"
     inkscape:current-layer="layer1"
     inkscape:document-units="mm"
     inkscape:cy="56.497643"
     inkscape:cx="63.037417"
     inkscape:zoom="2.8284271"
     inkscape:pageshadow="2"
     inkscape:pageopacity="0.0"
     borderopacity="1.0"
     bordercolor="#666666"
     pagecolor="#ffffff"
     id="base">
    <inkscape:grid
       id="grid865"
       type="xygrid" />
  </sodipodi:namedview>
  <metadata
     id="metadata5">
    <rdf:RDF>
      <cc:Work
         rdf:about="">
        <dc:format>image/svg+xml</dc:format>
        <dc:type
           rdf:resource="http://purl.org/dc/dcmitype/StillImage" />
        <dc:title></dc:title>
      </cc:Work>
    </rdf:RDF>
  </metadata>
  <g
     transform="translate(0,-263.13332)"
     id="layer1"
     inkscape:groupmode="layer"
     inkscape:label="Layer 1">
    <path
       sodipodi:nodetypes="ccccc"
       inkscape:connector-curvature="0"
       id="path887"
       d="M 4.2333333,265.24999 H 29.633333 v 29.63333 H 4.2333333 Z"
       style="fill:url(#linearGradient962);fill-opacity:1;stroke:none;stroke-width:0.529166px;stroke-linecap:butt;stroke-linejoin:miter;stroke-opacity:1" />
    <path
       id="path909"
       style="fill:#000000;fill-opacity:0.194853;stroke:none;stroke-width:1.34447;stroke-linecap:round;stroke-linejoin:round;stroke-miterlimit:4;stroke-dasharray:none;stroke-opacity:1"
       d="m 17.991667,268.95415 c -3.913681,0 -7.086394,3.17271 -7.086389,7.08639 0.0032,2.66018 1.495907,5.09431 3.865397,6.30349 v 1.42679 2.67942 2.47427 c 0,0.47265 0.283345,0.90546 0.752925,1.24127 -0.06988,0.14623 -0.10904,0.30051 -0.109037,0.46095 1.9e-5,0.88948 1.153962,1.61076 2.577104,1.61076 1.423142,0 2.577084,-0.72128 2.577103,-1.61076 4e-6,-0.16044 -0.03916,-0.31472 -0.109037,-0.46095 0.46958,-0.33581 0.752926,-0.76862 0.752926,-1.24127 v -2.80965 -2.47478 -1.28829 c 2.371907,-1.2104 3.865134,-3.64837 3.865397,-6.31125 5e-6,-3.91368 -3.17271,-7.08639 -7.086389,-7.08639 z" />
    <g
       id="g1063" />
    <path
       sodipodi:nodetypes="ccccc"
       inkscape:connector-curvature="0"
       id="path971"
       d="M 7.4083334,292.76665 V 265.24999 H 6.35 v 27.51666 z"
       style="fill:url(#linearGradient979);fill-opacity:1;stroke:none;stroke-width:0.519274px;stroke-linecap:butt;stroke-linejoin:miter;stroke-opacity:1" />
    <path
       sodipodi:nodetypes="ccccc"
       inkscape:connector-curvature="0"
       id="path947"
       d="m 19.510184,290.09781 c -1.9e-5,0.88948 -1.153707,1.61051 -2.576849,1.61051 -1.423142,0 -2.57683,-0.72103 -2.576849,-1.61051 -1.9e-5,-0.88949 1.15368,-1.61054 2.576849,-1.61054 1.423169,0 2.576869,0.72105 2.576849,1.61054 z"
       style="fill:#000000;fill-opacity:1;stroke:none;stroke-width:1.34447;stroke-linecap:round;stroke-linejoin:round;stroke-miterlimit:4;stroke-dasharray:none;stroke-opacity:1" />
    <path
       id="path959"
       d="m 13.712272,285.57796 10e-7,2.8176 c 0,1.06738 1.442119,1.93264 3.221063,1.93264 1.778943,0 3.221064,-0.86526 3.221064,-1.93264 v -2.81005 z"
       style="fill:url(#linearGradient1105);fill-opacity:1;stroke:none;stroke-width:1.8038;stroke-linecap:square;stroke-linejoin:round;stroke-miterlimit:4;stroke-dasharray:none;stroke-opacity:1"
       inkscape:connector-curvature="0"
       sodipodi:nodetypes="cccccc" />
    <path
       sodipodi:nodetypes="cccccc"
       inkscape:connector-curvature="0"
       style="fill:url(#linearGradient941);fill-opacity:1;stroke:none;stroke-width:1.8038;stroke-linecap:square;stroke-linejoin:round;stroke-miterlimit:4;stroke-dasharray:none;stroke-opacity:1"
       d="m 13.712272,283.10346 10e-7,2.81759 c 0,1.06738 1.442119,1.93264 3.221063,1.93264 1.778943,0 3.221064,-0.86526 3.221064,-1.93264 V 283.111 Z"
       id="path910" />
    <path
       sodipodi:nodetypes="sccsscccs"
       inkscape:connector-curvature="0"
       style="fill:#fefe74;fill-opacity:1;stroke:none;stroke-width:1.8038;stroke-linecap:square;stroke-linejoin:round;stroke-miterlimit:4;stroke-dasharray:none;stroke-opacity:1"
       d="m 16.933333,268.42498 c -3.913679,0 -7.0863432,3.17267 -7.0863384,7.08635 0.00317,2.66018 1.4957844,5.09454 3.8652744,6.30372 v 1.42683 c 0,1.06735 1.442119,1.93263 3.221064,1.93263 1.778942,0 3.221063,-0.86528 3.221063,-1.93263 v -1.41928 c 2.371907,-1.2104 3.865013,-3.64839 3.865276,-6.31127 5e-6,-3.91368 -3.17266,-7.08635 -7.086339,-7.08635 z"
       id="path908" />
    <path
       id="path925"
       d="m 16.933333,268.42498 c -3.913681,0 -7.0863444,3.17267 -7.0863396,7.08635 0.00317,2.66018 1.4957846,5.09454 3.8652746,6.30372 v 1.42683 c 0,1.06735 1.442119,1.93263 3.221065,1.93263 1.778942,0 3.221063,-0.86528 3.221063,-1.93263 v -1.41928 c 2.371907,-1.2104 3.865013,-3.64839 3.865276,-6.31127 5e-6,-3.91368 -3.17266,-7.08635 -7.086339,-7.08635 z"
       style="fill:url(#radialGradient1008);fill-opacity:1;stroke:none;stroke-width:1.8038;stroke-linecap:square;stroke-linejoin:round;stroke-miterlimit:4;stroke-dasharray:none;stroke-opacity:1"
       inkscape:connector-curvature="0"
       sodipodi:nodetypes="sccsscccs" />
  </g>
</svg>
