<?xml version="1.0" encoding="UTF-8" standalone="no"?>
<svg
   xmlns:dc="http://purl.org/dc/elements/1.1/"
   xmlns:cc="http://creativecommons.org/ns#"
   xmlns:rdf="http://www.w3.org/1999/02/22-rdf-syntax-ns#"
   xmlns:svg="http://www.w3.org/2000/svg"
   xmlns="http://www.w3.org/2000/svg"
   xmlns:xlink="http://www.w3.org/1999/xlink"
   xmlns:sodipodi="http://sodipodi.sourceforge.net/DTD/sodipodi-0.dtd"
   xmlns:inkscape="http://www.inkscape.org/namespaces/inkscape"
   sodipodi:docname="itinerary.svg"
   inkscape:version="1.0.2 (e86c870879, 2021-01-15)"
   id="svg8"
   version="1.1"
   viewBox="0 0 33.866666 33.866668"
   height="128"
   width="128">
  <defs
     id="defs2">
    <linearGradient
       id="linearGradient1369"
       inkscape:collect="always">
      <stop
         id="stop1365"
         offset="0"
         style="stop-color:#666666;stop-opacity:1" />
      <stop
         id="stop1367"
         offset="1"
         style="stop-color:#000000;stop-opacity:1" />
    </linearGradient>
    <linearGradient
       inkscape:collect="always"
       id="linearGradient1313">
      <stop
         style="stop-color:#f2f2f2;stop-opacity:1"
         offset="0"
         id="stop1309" />
      <stop
         style="stop-color:#cccccc;stop-opacity:1"
         offset="1"
         id="stop1311" />
    </linearGradient>
    <linearGradient
       inkscape:collect="always"
       id="linearGradient1303">
      <stop
         style="stop-color:#ff0002;stop-opacity:1;"
         offset="0"
         id="stop1299" />
      <stop
         style="stop-color:#990000;stop-opacity:1"
         offset="1"
         id="stop1301" />
    </linearGradient>
    <linearGradient
       gradientUnits="userSpaceOnUse"
       y2="277.72321"
       x2="11.944046"
       y1="287.70178"
       x1="21.922619"
       id="linearGradient873"
       xlink:href="#linearGradient4365"
       inkscape:collect="always"
       gradientTransform="matrix(2.3333331,0,0,2.3333339,-22.577772,-642.72931)" />
    <linearGradient
       id="linearGradient4365"
       inkscape:collect="always">
      <stop
         id="stop4361"
         offset="0"
         style="stop-color:#e1bf8d;stop-opacity:1" />
      <stop
         id="stop4363"
         offset="1"
         style="stop-color:#6a4504;stop-opacity:1" />
    </linearGradient>
    <linearGradient
       gradientTransform="matrix(2.5562761,0,0,2.5555536,-26.356369,-705.55363)"
       gradientUnits="userSpaceOnUse"
       y2="278.15707"
       x2="12.380524"
       y1="287.21039"
       x1="21.43125"
       id="linearGradient884"
       xlink:href="#linearGradient5818"
       inkscape:collect="always" />
    <linearGradient
       id="linearGradient5818"
       inkscape:collect="always">
      <stop
         id="stop5814"
         offset="0"
         style="stop-color:#3c3c3c;stop-opacity:1" />
      <stop
         id="stop5816"
         offset="1"
         style="stop-color:#000000;stop-opacity:1" />
    </linearGradient>
    <radialGradient
       inkscape:collect="always"
       xlink:href="#linearGradient5954"
       id="radialGradient1057"
       cx="14.211904"
       cy="280.444"
       fx="14.211904"
       fy="280.444"
       r="5.2175431"
       gradientTransform="matrix(2.3333331,0,0,2.3326752,-22.577772,-642.54308)"
       gradientUnits="userSpaceOnUse" />
    <linearGradient
       inkscape:collect="always"
       id="linearGradient5954">
      <stop
         style="stop-color:#ffffff;stop-opacity:0.43497759"
         offset="0"
         id="stop5950" />
      <stop
         style="stop-color:#787878;stop-opacity:0"
         offset="1"
         id="stop5952" />
    </linearGradient>
    <linearGradient
       inkscape:collect="always"
       xlink:href="#linearGradient1303"
       id="linearGradient1305"
       x1="14.816667"
       y1="14.287499"
       x2="24.341667"
       y2="14.287499"
       gradientUnits="userSpaceOnUse" />
    <linearGradient
       inkscape:collect="always"
       xlink:href="#linearGradient1313"
       id="linearGradient1315"
       x1="9.5250001"
       y1="19.579166"
       x2="19.05"
       y2="19.579166"
       gradientUnits="userSpaceOnUse" />
    <linearGradient
       inkscape:collect="always"
       xlink:href="#linearGradient1369"
       id="linearGradient1363"
       x1="16.404167"
       y1="16.404167"
       x2="17.4625"
       y2="17.4625"
       gradientUnits="userSpaceOnUse" />
  </defs>
  <sodipodi:namedview
     inkscape:snap-nodes="true"
     inkscape:snap-bbox-edge-midpoints="true"
     inkscape:bbox-nodes="true"
     inkscape:guide-bbox="true"
     showguides="true"
     inkscape:snap-grids="true"
     inkscape:object-paths="true"
     inkscape:snap-smooth-nodes="true"
     inkscape:snap-intersection-paths="true"
     units="px"
     showgrid="true"
     inkscape:document-rotation="0"
     inkscape:current-layer="svg8"
     inkscape:document-units="mm"
     inkscape:cy="75.390434"
     inkscape:cx="64"
     inkscape:zoom="7.0234375"
     inkscape:pageshadow="2"
     inkscape:pageopacity="0.0"
     borderopacity="1.0"
     bordercolor="#666666"
     pagecolor="#ffffff"
     id="base"
     inkscape:snap-bbox="true"
     inkscape:snap-center="false"
     inkscape:snap-object-midpoints="true"
     inkscape:snap-to-guides="false"
     inkscape:snap-path-clip="true"
     inkscape:snap-path-mask="true"
     objecttolerance="10000"
     guidetolerance="10000"
     inkscape:snap-perpendicular="true"
     inkscape:snap-tangential="true">
    <inkscape:grid
       id="grid1180"
       type="xygrid"
       spacingx="0.26458334"
       spacingy="0.26458334" />
  </sodipodi:namedview>
  <metadata
     id="metadata5">
    <rdf:RDF>
      <cc:Work
         rdf:about="">
        <dc:format>image/svg+xml</dc:format>
        <dc:type
           rdf:resource="http://purl.org/dc/dcmitype/StillImage" />
        <dc:title></dc:title>
      </cc:Work>
    </rdf:RDF>
  </metadata>
  <path
     id="path865"
     style="fill:url(#linearGradient873);fill-opacity:1;fill-rule:evenodd;stroke:none;stroke-width:0.61736;stroke-linejoin:round;stroke-opacity:0.05;paint-order:markers fill stroke;stop-color:#000000"
     d="M 31.75,16.93333 A 14.816666,14.81667 0 0 1 16.933332,31.75 14.816666,14.81667 0 0 1 2.1166668,16.93333 14.816666,14.81667 0 0 1 16.933332,2.11666 14.816666,14.81667 0 0 1 31.75,16.93333 Z" />
  <path
     id="path876"
     style="fill:url(#linearGradient884);fill-opacity:1;fill-rule:evenodd;stroke:none;stroke-width:0.863632;stroke-linejoin:round;stroke-opacity:0.05;paint-order:markers fill stroke;stop-color:#000000"
     d="M 29.104168,16.9333 A 12.174265,12.170829 0 0 1 16.929897,29.10416 12.174265,12.170829 0 0 1 4.7556362,16.9333 12.174265,12.170829 0 0 1 16.929897,4.76249 12.174265,12.170829 0 0 1 29.104168,16.9333 Z" />
  <path
     id="path1053"
     style="fill:url(#radialGradient1057);fill-opacity:1;fill-rule:evenodd;stroke:none;stroke-width:0.863632;stroke-linejoin:round;stroke-opacity:0.05;paint-order:markers fill stroke;stop-color:#000000"
     d="M 29.104168,16.9333 A 12.174265,12.170829 0 0 1 16.929897,29.10416 12.174265,12.170829 0 0 1 4.7556362,16.9333 12.174265,12.170829 0 0 1 16.929897,4.76249 12.174265,12.170829 0 0 1 29.104168,16.9333 Z" />
  <path
     style="fill:#feffff;fill-opacity:1;fill-rule:evenodd;stroke-width:0.0264584;stroke-linecap:square;stroke-linejoin:round;paint-order:markers fill stroke;stop-color:#000000"
     d="m 21.270023,26.01959 -0.978236,0.40516 0.405144,0.97771 0.977718,-0.40514 z"
     id="path1023" />
  <path
     style="fill:#feffff;fill-opacity:1;fill-rule:evenodd;stroke-width:0.0264584;stroke-linecap:square;stroke-linejoin:round;paint-order:markers fill stroke;stop-color:#000000"
     d="m 12.597166,26.01959 -0.405141,0.97773 0.977718,0.40514 0.405143,-0.97771 z"
     id="path1021" />
  <path
     style="fill:#feffff;fill-opacity:1;fill-rule:evenodd;stroke-width:0.0264584;stroke-linecap:square;stroke-linejoin:round;paint-order:markers fill stroke;stop-color:#000000"
     d="m 16.404169,25.39999 v 2.64584 h 1.058335 v -2.64584 z"
     id="path1019" />
  <path
     style="fill:#feffff;fill-opacity:1;fill-rule:evenodd;stroke-width:0.0264584;stroke-linecap:square;stroke-linejoin:round;paint-order:markers fill stroke;stop-color:#000000"
     d="m 23.294189,22.54593 -0.748274,0.74828 1.871203,1.87119 0.748274,-0.74828 z"
     id="path1017" />
  <path
     style="fill:#feffff;fill-opacity:1;fill-rule:evenodd;stroke-width:0.0264584;stroke-linecap:square;stroke-linejoin:round;paint-order:markers fill stroke;stop-color:#000000"
     d="m 10.572484,22.54593 -1.8712026,1.87119 0.74879,0.74828 1.8706866,-1.87119 z"
     id="path1015" />
  <path
     style="fill:#feffff;fill-opacity:1;fill-rule:evenodd;stroke-width:0.0264584;stroke-linecap:square;stroke-linejoin:round;paint-order:markers fill stroke;stop-color:#000000"
     d="m 7.4419256,20.2923 -0.9777179,0.40465 0.4051436,0.97771 0.9777179,-0.40462 z"
     id="path1013" />
  <path
     style="fill:#feffff;fill-opacity:1;fill-rule:evenodd;stroke-width:0.0264584;stroke-linecap:square;stroke-linejoin:round;paint-order:markers fill stroke;stop-color:#000000"
     d="m 26.424748,20.29179 -0.405144,0.97822 0.977718,0.40463 0.405144,-0.97772 z"
     id="path1011" />
  <path
     style="fill:#feffff;fill-opacity:1;fill-rule:evenodd;stroke-width:0.0264584;stroke-linecap:square;stroke-linejoin:round;paint-order:markers fill stroke;stop-color:#000000"
     d="m 25.400004,16.40417 v 1.05833 h 2.645834 v -1.05833 z"
     id="path1009" />
  <path
     style="fill:#feffff;fill-opacity:1;fill-rule:evenodd;stroke-width:0.0264584;stroke-linecap:square;stroke-linejoin:round;paint-order:markers fill stroke;stop-color:#000000"
     d="M 5.8208354,16.40417 V 17.4625 H 8.4666695 V 16.40417 Z"
     id="path1007" />
  <path
     style="fill:#feffff;fill-opacity:1;fill-rule:evenodd;stroke-width:0.0264584;stroke-linecap:square;stroke-linejoin:round;paint-order:markers fill stroke;stop-color:#000000"
     d="m 26.997322,12.19202 -0.977718,0.40513 0.405144,0.97774 0.977718,-0.40516 z"
     id="path1005" />
  <path
     style="fill:#feffff;fill-opacity:1;fill-rule:evenodd;stroke-width:0.0264584;stroke-linecap:square;stroke-linejoin:round;paint-order:markers fill stroke;stop-color:#000000"
     d="m 6.8693513,12.19202 -0.4051436,0.97771 0.9777179,0.40516 0.4051436,-0.97825 z"
     id="path1003" />
  <path
     style="fill:#feffff;fill-opacity:1;fill-rule:evenodd;stroke-width:0.0264584;stroke-linecap:square;stroke-linejoin:round;paint-order:markers fill stroke;stop-color:#000000"
     d="m 24.417118,8.70128 -1.871203,1.87119 0.748274,0.74828 1.871203,-1.87119 z"
     id="path1001" />
  <path
     style="fill:#feffff;fill-opacity:1;fill-rule:evenodd;stroke-width:0.0264584;stroke-linecap:square;stroke-linejoin:round;paint-order:markers fill stroke;stop-color:#000000"
     d="m 9.4495557,8.70128 -0.7482743,0.74828 1.8712026,1.87119 0.748274,-0.74828 z"
     id="path999" />
  <path
     style="fill:#feffff;fill-opacity:1;fill-rule:evenodd;stroke-width:0.0264584;stroke-linecap:square;stroke-linejoin:round;paint-order:markers fill stroke;stop-color:#000000"
     d="m 20.696931,6.46419 -0.404626,0.97772 0.977718,0.40516 0.404626,-0.97772 z"
     id="path997" />
  <path
     style="fill:#feffff;fill-opacity:1;fill-rule:evenodd;stroke-width:0.0264584;stroke-linecap:square;stroke-linejoin:round;paint-order:markers fill stroke;stop-color:#000000"
     d="M 13.169743,6.46419 12.192025,6.86935 12.59665,7.84707 13.574886,7.44191 Z"
     id="path995" />
  <path
     style="fill:#feffff;fill-opacity:1;fill-rule:evenodd;stroke-width:0.0264584;stroke-linecap:square;stroke-linejoin:round;paint-order:markers fill stroke;stop-color:#000000"
     d="m 16.404169,5.82082 v 2.64584 h 1.058335 V 5.82082 Z"
     id="rect899" />
  <path
     id="path1343"
     style="fill:#000000;fill-opacity:0.2;stroke:none;stroke-width:0.999999px;stroke-linecap:butt;stroke-linejoin:miter;stroke-opacity:1"
     d="M 93 37 L 57 57 L 37 93 L 73 73 L 93 37 z "
     transform="scale(0.26458333)" />
  <path
     style="fill:url(#linearGradient1315);stroke:none;stroke-width:0.264583px;stroke-linecap:butt;stroke-linejoin:miter;stroke-opacity:1;fill-opacity:1"
     d="m 14.816667,14.816666 -5.2916669,9.525 L 19.05,19.049999 Z"
     id="path1307" />
  <path
     style="fill:url(#linearGradient1305);stroke:none;stroke-width:0.264583px;stroke-linecap:butt;stroke-linejoin:miter;stroke-opacity:1;fill-opacity:1"
     d="M 14.816667,14.816666 19.05,19.049999 24.341667,9.5249994 Z"
     id="path1297" />
  <path
     id="path1294"
     style="opacity:1;fill:#dc0001;fill-opacity:1;fill-rule:evenodd;stroke:none;stroke-width:1.32292;stroke-linejoin:round;paint-order:markers fill stroke;stop-color:#000000"
     d="m 18.25625,16.933332 c 0,0.730628 -0.59229,1.322918 -1.322916,1.322918 -0.730627,0 -1.322917,-0.592292 -1.322917,-1.322918 0,-0.730627 0.59229,-1.322916 1.322917,-1.322916 0.730625,0 1.322916,0.592289 1.322916,1.322916 z"
     sodipodi:nodetypes="ccccc" />
  <path
     id="path1352"
     style="opacity:1;fill:#ffffff;fill-opacity:1;fill-rule:evenodd;stroke:none;stroke-width:5.00001;stroke-linejoin:round;paint-order:markers fill stroke;stop-color:#000000"
     d="M 64 59 C 62.616322 59 61.364263 59.562453 60.458984 60.470703 L 67.519531 67.548828 C 68.432988 66.642873 69 65.388176 69 64 C 69 61.238575 66.761417 59 64 59 z "
     transform="scale(0.26458333)" />
  <path
     id="path1331"
     style="opacity:1;fill:url(#linearGradient1363);fill-opacity:1;fill-rule:evenodd;stroke:none;stroke-width:1.05833;stroke-linejoin:round;paint-order:markers fill stroke;stop-color:#000000"
     d="m 17.727082,16.933332 c 0,0.438376 -0.355374,0.79375 -0.79375,0.79375 -0.438376,0 -0.79375,-0.355374 -0.79375,-0.79375 0,-0.438376 0.355374,-0.79375 0.79375,-0.79375 0.438376,0 0.79375,0.355374 0.79375,0.79375 z"
     sodipodi:nodetypes="ccccc" />
  <path
     id="path1334"
     style="fill:#000000;fill-opacity:0.2;fill-rule:evenodd;stroke:none;stroke-width:2.33333;stroke-linejoin:round;stroke-opacity:0.05;paint-order:markers fill stroke;stop-color:#000000"
     d="M 103.13477 23.945312 A 55.999997 56.000013 0 0 1 119 63 A 55.999997 56.000013 0 0 1 63 119 A 55.999997 56.000013 0 0 1 23.865234 103.05469 A 55.999997 56.000013 0 0 0 64 120 A 55.999997 56.000013 0 0 0 120 64 A 55.999997 56.000013 0 0 0 103.13477 23.945312 z "
     transform="scale(0.26458333)" />
</svg>
