<?xml version="1.0" encoding="UTF-8" standalone="no"?>
<svg
   xmlns:dc="http://purl.org/dc/elements/1.1/"
   xmlns:cc="http://creativecommons.org/ns#"
   xmlns:rdf="http://www.w3.org/1999/02/22-rdf-syntax-ns#"
   xmlns:svg="http://www.w3.org/2000/svg"
   xmlns="http://www.w3.org/2000/svg"
   xmlns:xlink="http://www.w3.org/1999/xlink"
   xmlns:sodipodi="http://sodipodi.sourceforge.net/DTD/sodipodi-0.dtd"
   xmlns:inkscape="http://www.inkscape.org/namespaces/inkscape"
   width="128"
   height="128"
   version="1.1"
   id="svg50"
   sodipodi:docname="juk.svg"
   inkscape:version="1.0 (4035a4fb49, 2020-05-01)">
  <metadata
     id="metadata54">
    <rdf:RDF>
      <cc:Work
         rdf:about="">
        <dc:format>image/svg+xml</dc:format>
        <dc:type
           rdf:resource="http://purl.org/dc/dcmitype/StillImage" />
        <dc:title />
      </cc:Work>
    </rdf:RDF>
  </metadata>
  <sodipodi:namedview
     pagecolor="#ffffff"
     bordercolor="#666666"
     borderopacity="1"
     objecttolerance="10"
     gridtolerance="10"
     guidetolerance="10"
     inkscape:pageopacity="0"
     inkscape:pageshadow="2"
     inkscape:window-width="1600"
     inkscape:window-height="837"
     id="namedview52"
     showgrid="false"
     inkscape:snap-bbox="true"
     inkscape:bbox-nodes="true"
     inkscape:snap-intersection-paths="true"
     inkscape:snap-smooth-nodes="true"
     inkscape:snap-page="false"
     inkscape:snap-nodes="true"
     inkscape:snap-grids="true"
     inkscape:zoom="3.7758397"
     inkscape:cx="-48.433767"
     inkscape:cy="40.20213"
     inkscape:window-x="-8"
     inkscape:window-y="-8"
     inkscape:window-maximized="1"
     inkscape:current-layer="svg50"
     inkscape:document-rotation="0"
     inkscape:snap-others="false">
    <inkscape:grid
       type="xygrid"
       id="grid911" />
  </sodipodi:namedview>
  <defs
     id="defs18">
    <linearGradient
       id="linearGradient1583"
       inkscape:collect="always">
      <stop
         id="stop1579"
         offset="0"
         style="stop-color:#989999;stop-opacity:1" />
      <stop
         style="stop-color:#cccccc;stop-opacity:1"
         offset="0.78571427"
         id="stop1609" />
      <stop
         id="stop1581"
         offset="1"
         style="stop-color:#d9d9d9;stop-opacity:1" />
    </linearGradient>
    <linearGradient
       inkscape:collect="always"
       id="linearGradient1577">
      <stop
         style="stop-color:#00fc00;stop-opacity:1;"
         offset="0"
         id="stop1573" />
      <stop
         style="stop-color:#008000;stop-opacity:0.95754713"
         offset="1"
         id="stop1575" />
    </linearGradient>
    <linearGradient
       inkscape:collect="always"
       id="linearGradient1571">
      <stop
         style="stop-color:#00fc00;stop-opacity:1;"
         offset="0"
         id="stop1567" />
      <stop
         style="stop-color:#008000;stop-opacity:1"
         offset="1"
         id="stop1569" />
    </linearGradient>
    <linearGradient
       inkscape:collect="always"
       id="linearGradient1512">
      <stop
         style="stop-color:#989898;stop-opacity:1"
         offset="0"
         id="stop1502" />
      <stop
         id="stop1504"
         offset="0.41666666"
         style="stop-color:#c8c8c8;stop-opacity:1;" />
      <stop
         id="stop1506"
         offset="0.5"
         style="stop-color:#f8f8f8;stop-opacity:1" />
      <stop
         style="stop-color:#c8c8c8;stop-opacity:1;"
         offset="0.58333331"
         id="stop1508" />
      <stop
         style="stop-color:#989898;stop-opacity:1"
         offset="1"
         id="stop1510" />
    </linearGradient>
    <linearGradient
       id="a"
       y1="543.79999"
       y2="503.79999"
       x2="0"
       gradientUnits="userSpaceOnUse">
      <stop
         stop-color="#2a2c2f"
         id="stop2" />
      <stop
         offset="1"
         stop-color="#424649"
         id="stop4" />
    </linearGradient>
    <linearGradient
       id="b"
       y1="530.79999"
       y2="516.79999"
       gradientUnits="userSpaceOnUse"
       x2="0">
      <stop
         stop-color="#ee643a"
         id="stop7" />
      <stop
         offset="1"
         stop-color="#fe9473"
         id="stop9" />
    </linearGradient>
    <linearGradient
       xlink:href="#a"
       id="c"
       y1="-521.79999"
       y2="-525.79999"
       gradientUnits="userSpaceOnUse"
       x2="0" />
    <linearGradient
       id="d"
       y1="523.79999"
       x1="408.57001"
       y2="537.79999"
       x2="422.57001"
       gradientUnits="userSpaceOnUse"
       gradientTransform="translate(-384.57,-499.8)">
      <stop
         stop-color="#292c2f"
         id="stop13" />
      <stop
         offset="1"
         stop-opacity="0"
         id="stop15" />
    </linearGradient>
    <linearGradient
       inkscape:collect="always"
       xlink:href="#a"
       id="linearGradient884"
       gradientUnits="userSpaceOnUse"
       y1="543.79999"
       x2="0"
       y2="503.79999" />
    <linearGradient
       id="linearGradient1179"
       inkscape:collect="always">
      <stop
         id="stop1175"
         offset="0"
         style="stop-color:#007f00;stop-opacity:1" />
      <stop
         id="stop1177"
         offset="1"
         style="stop-color:#00fc00;stop-opacity:1" />
    </linearGradient>
    <linearGradient
       id="linearGradient1165"
       inkscape:collect="always">
      <stop
         id="stop1161"
         offset="0"
         style="stop-color:#989898;stop-opacity:1" />
      <stop
         style="stop-color:#c8c8c8;stop-opacity:1;"
         offset="0.39999983"
         id="stop1171" />
      <stop
         style="stop-color:#f8f8f8;stop-opacity:1"
         offset="0.5"
         id="stop1169" />
      <stop
         id="stop1173"
         offset="0.59999973"
         style="stop-color:#c8c8c8;stop-opacity:1;" />
      <stop
         id="stop1163"
         offset="1"
         style="stop-color:#989898;stop-opacity:1" />
    </linearGradient>
    <linearGradient
       inkscape:collect="always"
       xlink:href="#linearGradient1583"
       id="linearGradient1373"
       gradientUnits="userSpaceOnUse"
       x1="12"
       y1="8"
       x2="116"
       y2="120" />
    <linearGradient
       inkscape:collect="always"
       xlink:href="#b"
       id="linearGradient1389"
       x1="30"
       y1="32.46875"
       x2="41.0625"
       y2="32.46875"
       gradientUnits="userSpaceOnUse" />
    <linearGradient
       inkscape:collect="always"
       xlink:href="#linearGradient1165"
       id="linearGradient1403"
       x1="18.099609"
       y1="71.606445"
       x2="21.900391"
       y2="71.606445"
       gradientUnits="userSpaceOnUse" />
    <linearGradient
       inkscape:collect="always"
       xlink:href="#linearGradient1165"
       id="linearGradient1413"
       x1="25"
       y1="40"
       x2="28"
       y2="43"
       gradientUnits="userSpaceOnUse" />
    <linearGradient
       inkscape:collect="always"
       xlink:href="#linearGradient1512"
       id="linearGradient1500"
       x1="14"
       y1="102"
       x2="26"
       y2="114"
       gradientUnits="userSpaceOnUse" />
    <linearGradient
       gradientTransform="matrix(7.5590552,0,0,7.559056,-489.14282,-768.18231)"
       gradientUnits="userSpaceOnUse"
       y2="116.96995"
       x2="79.526184"
       y1="116.30849"
       x1="78.864731"
       id="linearGradient1181-8"
       xlink:href="#linearGradient1179"
       inkscape:collect="always" />
    <linearGradient
       gradientUnits="userSpaceOnUse"
       y2="117.23453"
       x2="79.790771"
       y1="116.30849"
       x1="78.864731"
       id="linearGradient1262-8"
       xlink:href="#linearGradient1577"
       inkscape:collect="always"
       gradientTransform="matrix(7.5590552,0,0,7.559056,-489.14282,-768.18231)" />
    <linearGradient
       inkscape:collect="always"
       xlink:href="#linearGradient1571"
       id="linearGradient1563"
       gradientUnits="userSpaceOnUse"
       gradientTransform="matrix(7.5590552,0,0,7.559056,-505.14282,-768.18231)"
       x1="78.864731"
       y1="116.30849"
       x2="79.790771"
       y2="117.23453" />
    <linearGradient
       inkscape:collect="always"
       xlink:href="#linearGradient1179"
       id="linearGradient1565"
       gradientUnits="userSpaceOnUse"
       gradientTransform="matrix(7.5590552,0,0,7.559056,-505.14282,-768.18231)"
       x1="78.864731"
       y1="116.30849"
       x2="79.526184"
       y2="116.96995" />
  </defs>
  <path
     style="opacity:1;fill:url(#linearGradient1373);fill-opacity:1;stroke:none;stroke-width:5.20499992;stroke-linecap:round;stroke-linejoin:round;stroke-miterlimit:4;stroke-dasharray:none;stroke-dashoffset:0;stroke-opacity:1"
     d="M 8,4 H 120 V 124 H 8 Z"
     id="rect913" />
  <circle
     r="48"
     cy="58"
     cx="66"
     id="path940"
     style="opacity:0.99;fill:#000000;fill-opacity:0.2;fill-rule:evenodd;stroke-width:2.38355;stroke-linejoin:round;paint-order:markers fill stroke;stop-color:#000000" />
  <g
     transform="matrix(2.4000005,0,0,2.4000005,-916.56823,-1201.1202)"
     id="g48">
    <rect
       width="40"
       x="388.57001"
       y="503.79999"
       rx="20"
       height="40"
       id="rect20"
       style="fill:url(#linearGradient884)" />
    <rect
       width="14"
       x="401.57001"
       y="516.79999"
       rx="7"
       height="14"
       id="rect24"
       style="fill:url(#b)" />
    <rect
       width="4"
       x="406.57001"
       y="-525.79999"
       rx="2"
       height="4"
       transform="scale(1,-1)"
       id="rect26"
       style="fill:url(#c)" />
    <path
       d="m 24,18 c -3.324,0 -6,2.676 -6,6 0,3.324 2.676,6 6,6 3.324,0 6,-2.676 6,-6 0,-3.324 -2.676,-6 -6,-6 m 0,1 c 2.77,0 5,2.23 5,5 0,2.77 -2.23,5 -5,5 -2.77,0 -5,-2.23 -5,-5 0,-2.77 2.23,-5 5,-5"
       transform="translate(384.57,499.8)"
       id="path28"
       inkscape:connector-curvature="0"
       style="fill:#ffffff;fill-opacity:0.275" />
    <g
       id="g44"
       style="fill:#4c5053">
      <path
         d="m 418.07,507.34 c -0.971,-0.56 -1.973,-1 -2.99,-1.377 l -3.465,9.368 c 0.495,0.179 0.982,0.396 1.454,0.668 0.472,0.273 0.903,0.587 1.306,0.925 l 6.381,-7.685 c -0.83,-0.694 -1.716,-1.34 -2.687,-1.901"
         id="path30"
         inkscape:connector-curvature="0" />
      <path
         d="m 399.07,540.25 c -0.971,-0.56 -1.857,-1.207 -2.687,-1.901 l 6.381,-7.685 c 0.403,0.339 0.834,0.653 1.306,0.925 0.472,0.273 0.96,0.489 1.454,0.668 l -3.465,9.368 c -1.016,-0.372 -2.02,-0.816 -2.99,-1.376"
         id="path32"
         inkscape:connector-curvature="0" />
      <g
         id="g42"
         style="fill-opacity:0.19800002">
        <path
           d="m 422.01,510.36 c -0.793,-0.793 -1.646,-1.481 -2.531,-2.103 l -5.771,8.152 c 0.431,0.301 0.846,0.636 1.232,1.022 0.386,0.386 0.721,0.801 1.022,1.232 l 8.152,-5.771 c -0.622,-0.885 -1.311,-1.739 -2.103,-2.531"
           id="path34"
           inkscape:connector-curvature="0" />
        <path
           d="m 395.14,537.23 c -0.793,-0.793 -1.481,-1.646 -2.103,-2.532 l 8.152,-5.771 c 0.301,0.431 0.636,0.846 1.022,1.232 0.386,0.386 0.801,0.721 1.232,1.022 l -5.771,8.152 c -0.885,-0.622 -1.739,-1.311 -2.531,-2.103"
           id="path36"
           inkscape:connector-curvature="0" />
        <path
           d="m 425.03,514.3 c -0.56,-0.971 -1.207,-1.857 -1.901,-2.687 l -7.685,6.381 c 0.339,0.403 0.653,0.834 0.925,1.306 0.273,0.472 0.489,0.96 0.668,1.454 l 9.368,-3.465 c -0.372,-1.016 -0.816,-2.02 -1.377,-2.99"
           id="path38"
           inkscape:connector-curvature="0" />
        <path
           d="m 392.12,533.3 c -0.56,-0.971 -1,-1.973 -1.377,-2.99 l 9.368,-3.465 c 0.179,0.495 0.396,0.982 0.668,1.454 0.273,0.472 0.587,0.903 0.925,1.306 l -7.685,6.381 c -0.694,-0.83 -1.34,-1.716 -1.901,-2.687"
           id="path40"
           inkscape:connector-curvature="0" />
      </g>
    </g>
    <path
       d="m 388.58,523.3 c -0.004,0.167 -0.012,0.332 -0.012,0.5 0,11.08 8.92,20 20,20 11.08,0 20,-8.92 20,-20 0,-0.168 -0.008,-0.333 -0.012,-0.5 -0.265,10.846 -9.08,19.5 -19.988,19.5 -10.912,0 -19.724,-8.654 -19.988,-19.5"
       id="path46"
       inkscape:connector-curvature="0"
       style="fill:#2d2f33" />
  </g>
  <path
     style="fill:url(#linearGradient1389);fill-opacity:1.0;stroke:none;stroke-width:1px;stroke-linecap:butt;stroke-linejoin:miter;stroke-opacity:1"
     d="m 30,34 4,4 6,-6 c 3,-3 -1,-7 -4,-4 z"
     id="path919"
     inkscape:connector-curvature="0"
     sodipodi:nodetypes="ccccc" />
  <path
     id="path899"
     d="m 30,110 a 8,8 0 0 1 -8,8 8,8 0 0 1 -8,-8 8,8 0 0 1 8,-8 8,8 0 0 1 8,8 z"
     style="opacity:1;fill:#000000;fill-opacity:0.2;stroke:none;stroke-width:3.8;stroke-linecap:round;stroke-linejoin:round;stroke-miterlimit:4;stroke-dasharray:none;stroke-dashoffset:0;stroke-opacity:1" />
  <path
     sodipodi:nodetypes="ccccc"
     inkscape:connector-curvature="0"
     id="path909"
     d="M 20.199218,102 V 47.212891 L 24,46.787109 V 102 Z"
     style="fill:#000000;fill-opacity:0.2;stroke:none;stroke-width:1px;stroke-linecap:butt;stroke-linejoin:miter;stroke-opacity:1" />
  <path
     style="fill:url(#linearGradient1403);fill-opacity:1;stroke:none;stroke-width:1px;stroke-linecap:butt;stroke-linejoin:miter;stroke-opacity:1"
     d="M 18.099609,102 V 47.212891 l 3.800782,-0.425782 V 102 Z"
     id="path1393"
     inkscape:connector-curvature="0"
     sodipodi:nodetypes="ccccc" />
  <path
     style="fill:url(#linearGradient1413);stroke:none;stroke-width:1px;stroke-linecap:butt;stroke-linejoin:miter;stroke-opacity:1;fill-opacity:1"
     d="M 18.099609,47.212891 30.65625,34.65625 l 2.6875,2.6875 -11.443359,11.443359 z"
     id="path1405"
     inkscape:connector-curvature="0" />
  <path
     style="fill:none;stroke:#fdcdac;stroke-width:1px;stroke-linecap:round;stroke-linejoin:miter;stroke-opacity:1"
     d="m 32,34 5,-5"
     id="path1445"
     inkscape:connector-curvature="0" />
  <path
     style="opacity:1;fill:url(#linearGradient1500);fill-opacity:1;stroke:none;stroke-width:3.79999995;stroke-linecap:round;stroke-linejoin:round;stroke-miterlimit:4;stroke-dasharray:none;stroke-dashoffset:0;stroke-opacity:1"
     d="m 28,108 a 8,8 0 0 1 -8,8 8,8 0 0 1 -8,-8 8,8 0 0 1 8,-8 8,8 0 0 1 8,8 z"
     id="path1491" />
  <path
     sodipodi:nodetypes="sssss"
     id="path905"
     style="fill:#000000;fill-opacity:0.2;fill-rule:evenodd;stroke:none;stroke-width:1;stroke-linecap:round;stroke-linejoin:round;stroke-miterlimit:4;stroke-dasharray:none;stroke-opacity:1;paint-order:markers fill stroke"
     d="m 116,115.00001 c 1e-5,2.76143 -2.23857,5.00001 -4.99999,5.00001 -2.76143,0 -5.00001,-2.23858 -5.00001,-5.00001 0,-2.7614 2.23858,-5.00001 5.00001,-5.00001 2.76142,0 5,2.23861 4.99999,5.00001 z"
     inkscape:connector-curvature="0" />
  <path
     inkscape:connector-curvature="0"
     d="m 114,113.00004 c 1e-5,2.76143 -2.23857,5.00001 -4.99999,5.00001 -2.76143,0 -5.00001,-2.23858 -5.00001,-5.00001 0,-2.7614 2.23858,-5.00001 5.00001,-5.00001 2.76142,0 5,2.23861 4.99999,5.00001 z"
     style="fill:url(#linearGradient1262-8);fill-opacity:1;fill-rule:evenodd;stroke:none;stroke-width:1;stroke-linecap:round;stroke-linejoin:round;stroke-miterlimit:4;stroke-dasharray:none;stroke-opacity:1;paint-order:markers fill stroke"
     id="path1252-1"
     sodipodi:nodetypes="sssss" />
  <path
     inkscape:connector-curvature="0"
     d="m 100,115.00001 c 1e-5,2.76143 -2.23857,5.00001 -4.99999,5.00001 C 92.23858,120.00002 90,117.76144 90,115.00001 90,112.23861 92.23858,110 95.00001,110 c 2.76142,0 5,2.23861 4.99999,5.00001 z"
     style="fill:#000000;fill-opacity:0.2;fill-rule:evenodd;stroke:none;stroke-width:1;stroke-linecap:round;stroke-linejoin:round;stroke-miterlimit:4;stroke-dasharray:none;stroke-opacity:1;paint-order:markers fill stroke"
     id="path901"
     sodipodi:nodetypes="sssss" />
  <path
     inkscape:connector-curvature="0"
     id="path1103-3"
     style="opacity:1;fill:url(#linearGradient1181-8);fill-opacity:1;stroke:none;stroke-width:4.20002;stroke-linecap:butt;stroke-linejoin:miter;stroke-miterlimit:4;stroke-dasharray:none;stroke-opacity:1;paint-order:markers fill stroke"
     d="m 112,112.99998 c 2e-5,1.65687 -1.34314,3.00004 -3.00002,3.00004 -1.65686,0 -3,-1.34317 -2.99998,-3.00004 2e-5,-1.6568 1.34315,-2.99996 2.99998,-2.99996 1.65685,0 3,1.34309 3.00002,2.99996"
     sodipodi:nodetypes="csssc" />
  <path
     sodipodi:nodetypes="sssss"
     id="path1558"
     style="fill:url(#linearGradient1563);fill-opacity:1;fill-rule:evenodd;stroke:none;stroke-width:1;stroke-linecap:round;stroke-linejoin:round;stroke-miterlimit:4;stroke-dasharray:none;stroke-opacity:1;paint-order:markers fill stroke"
     d="m 98,113.00004 c 1e-5,2.76143 -2.23857,5.00001 -4.99999,5.00001 -2.76143,0 -5.00001,-2.23858 -5.00001,-5.00001 0,-2.7614 2.23858,-5.00001 5.00001,-5.00001 2.76142,0 5,2.23861 4.99999,5.00001 z"
     inkscape:connector-curvature="0" />
  <path
     sodipodi:nodetypes="csssc"
     d="m 96,112.99998 c 2e-5,1.65687 -1.34314,3.00004 -3.00002,3.00004 -1.65686,0 -3,-1.34317 -2.99998,-3.00004 2e-5,-1.6568 1.34315,-2.99996 2.99998,-2.99996 1.65685,0 3,1.34309 3.00002,2.99996"
     style="opacity:1;fill:url(#linearGradient1565);fill-opacity:1;stroke:none;stroke-width:4.20002;stroke-linecap:butt;stroke-linejoin:miter;stroke-miterlimit:4;stroke-dasharray:none;stroke-opacity:1;paint-order:markers fill stroke"
     id="path1561"
     inkscape:connector-curvature="0" />
</svg>
