<?xml version="1.0" encoding="UTF-8" standalone="no"?>
<svg
   xmlns:dc="http://purl.org/dc/elements/1.1/"
   xmlns:cc="http://creativecommons.org/ns#"
   xmlns:rdf="http://www.w3.org/1999/02/22-rdf-syntax-ns#"
   xmlns:svg="http://www.w3.org/2000/svg"
   xmlns="http://www.w3.org/2000/svg"
   xmlns:xlink="http://www.w3.org/1999/xlink"
   xmlns:sodipodi="http://sodipodi.sourceforge.net/DTD/sodipodi-0.dtd"
   xmlns:inkscape="http://www.inkscape.org/namespaces/inkscape"
   sodipodi:docname="katomic.svg"
   inkscape:version="1.0 (4035a4fb49, 2020-05-01)"
   id="svg8"
   version="1.1"
   viewBox="0 0 33.866666 33.866668"
   height="128"
   width="128">
  <defs
     id="defs2">
    <linearGradient
       id="linearGradient908"
       inkscape:collect="always">
      <stop
         id="stop904"
         offset="0"
         style="stop-color:#4d8080;stop-opacity:1" />
      <stop
         id="stop906"
         offset="1"
         style="stop-color:#264040;stop-opacity:0.99610895" />
    </linearGradient>
    <linearGradient
       id="linearGradient900"
       inkscape:collect="always">
      <stop
         id="stop896"
         offset="0"
         style="stop-color:#888859;stop-opacity:1" />
      <stop
         id="stop898"
         offset="1"
         style="stop-color:#39391c;stop-opacity:1" />
    </linearGradient>
    <linearGradient
       inkscape:collect="always"
       id="linearGradient5318">
      <stop
         style="stop-color:#ffffff;stop-opacity:0.49019608"
         offset="0"
         id="stop5314" />
      <stop
         style="stop-color:#f7ffff;stop-opacity:0"
         offset="1"
         id="stop5316" />
    </linearGradient>
    <linearGradient
       id="linearGradient5249"
       inkscape:collect="always">
      <stop
         id="stop5245"
         offset="0"
         style="stop-color:#ff8498;stop-opacity:1" />
      <stop
         id="stop5247"
         offset="1"
         style="stop-color:#cf1e33;stop-opacity:1" />
    </linearGradient>
    <radialGradient
       gradientTransform="matrix(2.3880535,3.1983566e-6,-3.1983372e-6,2.3880511,-2.8739425,-408.55499)"
       gradientUnits="userSpaceOnUse"
       r="3.5454166"
       fy="287.47498"
       fx="7.4083309"
       cy="287.47498"
       cx="7.4083309"
       id="radialGradient5251"
       xlink:href="#linearGradient5249"
       inkscape:collect="always" />
    <radialGradient
       gradientTransform="matrix(0.66666544,-2.4547131e-6,2.4546951e-6,0.66666389,14.286757,86.653591)"
       r="3.175"
       fy="286.9458"
       fx="1.5875"
       cy="286.9458"
       cx="1.5875"
       gradientUnits="userSpaceOnUse"
       id="radialGradient5320"
       xlink:href="#linearGradient5318"
       inkscape:collect="always" />
    <linearGradient
       gradientUnits="userSpaceOnUse"
       y2="203.6588"
       x2="210.43092"
       y1="203.6588"
       x1="175.55889"
       id="linearGradient902"
       xlink:href="#linearGradient900"
       inkscape:collect="always" />
    <linearGradient
       gradientUnits="userSpaceOnUse"
       y2="-251.01138"
       x2="-107.93239"
       y1="-251.01138"
       x1="-142.80441"
       id="linearGradient910"
       xlink:href="#linearGradient908"
       inkscape:collect="always" />
  </defs>
  <sodipodi:namedview
     inkscape:snap-nodes="false"
     inkscape:document-rotation="0"
     inkscape:window-maximized="1"
     inkscape:window-y="0"
     inkscape:window-x="0"
     inkscape:window-height="1143"
     inkscape:window-width="1920"
     inkscape:bbox-nodes="true"
     inkscape:snap-bbox="true"
     units="px"
     showgrid="false"
     inkscape:current-layer="layer1"
     inkscape:document-units="mm"
     inkscape:cy="34.519777"
     inkscape:cx="6.5079051"
     inkscape:zoom="1"
     inkscape:pageshadow="2"
     inkscape:pageopacity="0.0"
     borderopacity="1.0"
     bordercolor="#666666"
     pagecolor="#ffffff"
     id="base">
    <inkscape:grid
       id="grid815"
       type="xygrid" />
  </sodipodi:namedview>
  <metadata
     id="metadata5">
    <rdf:RDF>
      <cc:Work
         rdf:about="">
        <dc:format>image/svg+xml</dc:format>
        <dc:type
           rdf:resource="http://purl.org/dc/dcmitype/StillImage" />
        <dc:title></dc:title>
      </cc:Work>
    </rdf:RDF>
  </metadata>
  <g
     transform="translate(0,-263.13332)"
     id="layer1"
     inkscape:groupmode="layer"
     inkscape:label="Layer 1">
    <g
       transform="matrix(0.91013536,0,0,0.90933856,1.5352478,25.399708)"
       id="g918">
      <g
         id="g5352"
         transform="matrix(1.9999949,0,0,1.9999999,0.76999062,-296.55743)" />
      <ellipse
         cy="280.06668"
         cx="16.933289"
         id="circle5243"
         style="fill:url(#radialGradient5251);fill-opacity:1;stroke:none;stroke-width:1.48166;stroke-linecap:round;stroke-linejoin:round;stroke-miterlimit:4;stroke-dasharray:none;stroke-dashoffset:0;stroke-opacity:1"
         rx="6.3499837"
         ry="6.3499994" />
      <path
         transform="matrix(0.86602486,-0.50000094,-0.49999907,-0.86602594,0,0)"
         id="path923"
         d="m -125.36914,-261.4082 c -4.80859,0 -9.17082,1.08375 -12.40039,2.90039 -3.22957,1.81664 -5.4043,4.44679 -5.4043,7.49609 0,3.04931 2.17473,5.67946 5.4043,7.4961 3.22957,1.81663 7.5918,2.90234 12.40039,2.90234 4.80859,0 9.17277,-1.08571 12.40234,-2.90234 3.12007,-1.75505 5.21034,-4.27929 5.35157,-7.19727 a 0.87230498,0.87230498 0 0 0 0.0527,-0.29883 0.87230498,0.87230498 0 0 0 -0.0527,-0.29297 c -0.13877,-2.92036 -2.22951,-5.44696 -5.35157,-7.20312 -3.22957,-1.81664 -7.59375,-2.90039 -12.40234,-2.90039 z m 0,1.74414 c 4.54341,0 8.64779,1.04699 11.54687,2.67773 2.89909,1.63074 4.51563,3.7634 4.51563,5.97461 0,2.21121 -1.61654,4.34387 -4.51563,5.97461 -2.89908,1.63074 -7.00346,2.67773 -11.54687,2.67773 -4.54341,10e-6 -8.64584,-1.04699 -11.54492,-2.67773 -2.89908,-1.63074 -4.51563,-3.7634 -4.51563,-5.97461 0,-2.21121 1.61655,-4.34387 4.51563,-5.97461 2.89908,-1.63074 7.00151,-2.67773 11.54492,-2.67773 z"
         style="color:#000000;font-style:normal;font-variant:normal;font-weight:normal;font-stretch:normal;font-size:medium;line-height:normal;font-family:sans-serif;font-variant-ligatures:normal;font-variant-position:normal;font-variant-caps:normal;font-variant-numeric:normal;font-variant-alternates:normal;font-variant-east-asian:normal;font-feature-settings:normal;font-variation-settings:normal;text-indent:0;text-align:start;text-decoration:none;text-decoration-line:none;text-decoration-style:solid;text-decoration-color:#000000;letter-spacing:normal;word-spacing:normal;text-transform:none;writing-mode:lr-tb;direction:ltr;text-orientation:mixed;dominant-baseline:auto;baseline-shift:baseline;text-anchor:start;white-space:normal;shape-padding:0;shape-margin:0;inline-size:0;clip-rule:nonzero;display:inline;overflow:visible;visibility:visible;opacity:1;isolation:auto;mix-blend-mode:normal;color-interpolation:sRGB;color-interpolation-filters:linearRGB;solid-color:#000000;solid-opacity:1;vector-effect:none;fill:url(#linearGradient910);fill-opacity:1;fill-rule:nonzero;stroke:none;stroke-width:1.74461;stroke-linecap:round;stroke-linejoin:round;stroke-miterlimit:4;stroke-dasharray:none;stroke-dashoffset:0;stroke-opacity:1;color-rendering:auto;image-rendering:auto;shape-rendering:auto;text-rendering:auto;enable-background:accumulate;stop-color:#000000;stop-opacity:1" />
      <ellipse
         style="fill:url(#radialGradient5320);fill-opacity:1;stroke:none;stroke-width:1.48166;stroke-linecap:round;stroke-linejoin:round;stroke-miterlimit:4;stroke-dasharray:none;stroke-dashoffset:0;stroke-opacity:1"
         id="circle5306"
         cx="16.933289"
         cy="280.06668"
         rx="6.3499837"
         ry="6.3499994" />
      <path
         style="fill:#000000;fill-opacity:0.117647;stroke:none;stroke-width:1.48166;stroke-linecap:round;stroke-linejoin:round;stroke-miterlimit:4;stroke-dasharray:none;stroke-dashoffset:0;stroke-opacity:1"
         d="m 21.135606,275.31345 a 6.3499837,6.3499996 0 0 1 1.618502,4.22404 6.3499837,6.3499996 0 0 1 -6.349983,6.35 6.3499837,6.3499996 0 0 1 -4.202317,-1.59681 6.3499837,6.3499996 0 0 0 4.731482,2.12597 6.3499837,6.3499996 0 0 0 6.349984,-6.35 6.3499837,6.3499996 0 0 0 -2.147668,-4.7532 z"
         id="circle5301" />
      <path
         transform="matrix(0.76604365,0.64278856,-0.64278666,0.76604524,0,0)"
         id="path928"
         d="m 192.99414,193.26172 c -4.80859,0 -9.17082,1.0857 -12.40039,2.90234 -3.22957,1.81664 -5.4043,4.44484 -5.4043,7.49414 1e-5,3.04931 2.17473,5.67946 5.4043,7.4961 3.22957,1.81663 7.5918,2.90234 12.40039,2.90234 4.80859,0 9.17277,-1.08571 12.40234,-2.90234 3.12008,-1.75505 5.21034,-4.27929 5.35157,-7.19727 a 0.87230498,0.87230498 0 0 0 0.0527,-0.29883 0.87230498,0.87230498 0 0 0 -0.0527,-0.29297 c -0.13877,-2.92036 -2.2295,-5.445 -5.35157,-7.20117 -3.22957,-1.81664 -7.59374,-2.90234 -12.40234,-2.90234 z m 0,1.74414 c 4.54342,0 8.64779,1.047 11.54688,2.67773 2.89908,1.63074 4.51562,3.7634 4.51562,5.97461 0,2.21121 -1.61654,4.34388 -4.51562,5.97461 -2.89909,1.63074 -7.00347,2.67774 -11.54688,2.67774 -4.54341,0 -8.64584,-1.047 -11.54492,-2.67774 -2.89908,-1.63073 -4.51562,-3.7634 -4.51563,-5.97461 0,-2.21121 1.61655,-4.34387 4.51563,-5.97461 2.89908,-1.63073 7.00151,-2.67773 11.54492,-2.67773 z"
         style="color:#000000;font-style:normal;font-variant:normal;font-weight:normal;font-stretch:normal;font-size:medium;line-height:normal;font-family:sans-serif;font-variant-ligatures:normal;font-variant-position:normal;font-variant-caps:normal;font-variant-numeric:normal;font-variant-alternates:normal;font-variant-east-asian:normal;font-feature-settings:normal;font-variation-settings:normal;text-indent:0;text-align:start;text-decoration:none;text-decoration-line:none;text-decoration-style:solid;text-decoration-color:#000000;letter-spacing:normal;word-spacing:normal;text-transform:none;writing-mode:lr-tb;direction:ltr;text-orientation:mixed;dominant-baseline:auto;baseline-shift:baseline;text-anchor:start;white-space:normal;shape-padding:0;shape-margin:0;inline-size:0;clip-rule:nonzero;display:inline;overflow:visible;visibility:visible;opacity:1;isolation:auto;mix-blend-mode:normal;color-interpolation:sRGB;color-interpolation-filters:linearRGB;solid-color:#000000;solid-opacity:1;vector-effect:none;fill:url(#linearGradient902);fill-opacity:1;fill-rule:nonzero;stroke:none;stroke-width:1.74461;stroke-linecap:round;stroke-linejoin:round;stroke-miterlimit:4;stroke-dasharray:none;stroke-dashoffset:0;stroke-opacity:1;color-rendering:auto;image-rendering:auto;shape-rendering:auto;text-rendering:auto;enable-background:accumulate;stop-color:#000000;stop-opacity:1" />
    </g>
  </g>
</svg>
