<?xml version="1.0" encoding="UTF-8" standalone="no"?>
<svg
   xmlns:dc="http://purl.org/dc/elements/1.1/"
   xmlns:cc="http://creativecommons.org/ns#"
   xmlns:rdf="http://www.w3.org/1999/02/22-rdf-syntax-ns#"
   xmlns:svg="http://www.w3.org/2000/svg"
   xmlns="http://www.w3.org/2000/svg"
   xmlns:xlink="http://www.w3.org/1999/xlink"
   xmlns:sodipodi="http://sodipodi.sourceforge.net/DTD/sodipodi-0.dtd"
   xmlns:inkscape="http://www.inkscape.org/namespaces/inkscape"
   sodipodi:docname="kbruch.svg"
   inkscape:version="1.0 (4035a4fb49, 2020-05-01)"
   id="svg8200"
   version="1.1"
   viewBox="0 0 33.866666 33.866668"
   height="128"
   width="128">
  <defs
     id="defs8194">
    <linearGradient
       id="linearGradient989"
       inkscape:collect="always">
      <stop
         id="stop985"
         offset="0"
         style="stop-color:#fff6d5;stop-opacity:1;" />
      <stop
         id="stop987"
         offset="1"
         style="stop-color:#aa8800;stop-opacity:1" />
    </linearGradient>
    <linearGradient
       id="linearGradient5093-3"
       inkscape:collect="always">
      <stop
         id="stop5089"
         offset="0"
         style="stop-color:#d9d9d9;stop-opacity:1" />
      <stop
         id="stop5091"
         offset="1"
         style="stop-color:#999999;stop-opacity:1" />
    </linearGradient>
    <linearGradient
       gradientTransform="matrix(2.4881512,0,0,2.4881512,-11.459951,-433.67841)"
       gradientUnits="userSpaceOnUse"
       y2="287.28296"
       x2="14.388844"
       y1="282.17874"
       x1="6.7325563"
       id="linearGradient5807"
       xlink:href="#linearGradient5818"
       inkscape:collect="always" />
    <linearGradient
       inkscape:collect="always"
       id="linearGradient5818">
      <stop
         style="stop-color:#3c3c3c;stop-opacity:1"
         offset="0"
         id="stop5814" />
      <stop
         style="stop-color:#000000;stop-opacity:1"
         offset="1"
         id="stop5816" />
    </linearGradient>
    <linearGradient
       y2="288.7515"
       x2="16.197561"
       y1="281.04248"
       x1="5.6747718"
       gradientTransform="matrix(2.6452541,0,0,2.5791226,-12.124027,-459.07207)"
       gradientUnits="userSpaceOnUse"
       id="linearGradient5991"
       xlink:href="#linearGradient5093-3"
       inkscape:collect="always" />
    <linearGradient
       gradientUnits="userSpaceOnUse"
       y2="289.33902"
       x2="31.185835"
       y1="271.85944"
       x1="8.3289795"
       id="linearGradient993"
       xlink:href="#linearGradient989"
       inkscape:collect="always" />
  </defs>
  <sodipodi:namedview
     inkscape:snap-bbox-edge-midpoints="true"
     inkscape:snap-bbox="true"
     units="px"
     showgrid="false"
     inkscape:document-rotation="0"
     inkscape:current-layer="layer1"
     inkscape:document-units="px"
     inkscape:cy="75.011037"
     inkscape:cx="47.66615"
     inkscape:zoom="3.5117188"
     inkscape:pageshadow="2"
     inkscape:pageopacity="0.0"
     borderopacity="1.0"
     bordercolor="#666666"
     pagecolor="#ffffff"
     id="base">
    <inkscape:grid
       id="grid8745"
       type="xygrid" />
  </sodipodi:namedview>
  <metadata
     id="metadata8197">
    <rdf:RDF>
      <cc:Work
         rdf:about="">
        <dc:format>image/svg+xml</dc:format>
        <dc:type
           rdf:resource="http://purl.org/dc/dcmitype/StillImage" />
        <dc:title></dc:title>
      </cc:Work>
    </rdf:RDF>
  </metadata>
  <g
     transform="translate(0,-263.13332)"
     id="layer1"
     inkscape:groupmode="layer"
     inkscape:label="Layer 1">
    <g
       id="g871"
       transform="matrix(1.0645896,0,0,1.0645896,-0.95700194,-13.453683)">
      <path
         style="color:#000000;font-style:normal;font-variant:normal;font-weight:normal;font-stretch:normal;font-size:medium;line-height:normal;font-family:sans-serif;font-variant-ligatures:normal;font-variant-position:normal;font-variant-caps:normal;font-variant-numeric:normal;font-variant-alternates:normal;font-variant-east-asian:normal;font-feature-settings:normal;text-indent:0;text-align:start;text-decoration:none;text-decoration-line:none;text-decoration-style:solid;text-decoration-color:#000000;letter-spacing:normal;word-spacing:normal;text-transform:none;writing-mode:lr-tb;direction:ltr;text-orientation:mixed;dominant-baseline:auto;baseline-shift:baseline;text-anchor:start;white-space:normal;shape-padding:0;clip-rule:nonzero;display:inline;overflow:visible;visibility:visible;isolation:auto;mix-blend-mode:normal;color-interpolation:sRGB;color-interpolation-filters:linearRGB;solid-color:#000000;solid-opacity:1;vector-effect:none;fill:url(#linearGradient5807);fill-opacity:1;fill-rule:nonzero;stroke:none;stroke-width:2.6333;stroke-linecap:round;stroke-linejoin:miter;stroke-miterlimit:4;stroke-dasharray:none;stroke-dashoffset:0;stroke-opacity:1;paint-order:markers stroke fill;color-rendering:auto;image-rendering:auto;shape-rendering:auto;text-rendering:auto;enable-background:accumulate"
         d="M 3.8813097,265.77096 H 29.728516 l 0,19.88247 H 3.8813098 Z"
         id="path5786"
         inkscape:connector-curvature="0"
         sodipodi:nodetypes="ccccc" />
      <path
         sodipodi:nodetypes="ccccccc"
         id="path1168"
         d="m 3.8813148,265.77078 -5.1e-6,19.88265 0.7455924,-0.7456 -0.00385,-18.39628 24.3598768,0.005 0.745592,-0.74559 z"
         style="color:#000000;font-style:normal;font-variant:normal;font-weight:normal;font-stretch:normal;font-size:medium;line-height:normal;font-family:sans-serif;font-variant-ligatures:normal;font-variant-position:normal;font-variant-caps:normal;font-variant-numeric:normal;font-variant-alternates:normal;font-variant-east-asian:normal;font-feature-settings:normal;font-variation-settings:normal;text-indent:0;text-align:start;text-decoration:none;text-decoration-line:none;text-decoration-style:solid;text-decoration-color:#000000;letter-spacing:normal;word-spacing:normal;text-transform:none;writing-mode:lr-tb;direction:ltr;text-orientation:mixed;dominant-baseline:auto;baseline-shift:baseline;text-anchor:start;white-space:normal;shape-padding:0;shape-margin:0;inline-size:0;clip-rule:nonzero;display:inline;overflow:visible;visibility:visible;opacity:1;isolation:auto;mix-blend-mode:normal;color-interpolation:sRGB;color-interpolation-filters:linearRGB;solid-color:#000000;solid-opacity:1;vector-effect:none;fill:#646464;fill-opacity:1;fill-rule:nonzero;stroke:none;stroke-width:1.48167;stroke-linecap:butt;stroke-linejoin:miter;stroke-miterlimit:4;stroke-dasharray:none;stroke-dashoffset:0;stroke-opacity:1;paint-order:markers stroke fill;color-rendering:auto;image-rendering:auto;shape-rendering:auto;text-rendering:auto;enable-background:accumulate;stop-color:#000000;stop-opacity:1" />
      <path
         style="fill:url(#linearGradient5991);fill-opacity:1;stroke:none;stroke-width:1.93504;stroke-linecap:round;stroke-miterlimit:4;stroke-dasharray:none;stroke-opacity:1;paint-order:markers stroke fill"
         d="m 1.8930627,263.78272 0,23.85896 H 31.716763 l 0,-23.85896 z m 1.9882467,1.98825 H 29.728516 l 0,19.88247 H 3.8813094 Z"
         id="rect5726"
         inkscape:connector-curvature="0"
         sodipodi:nodetypes="cccccccccc" />
      <path
         sodipodi:nodetypes="ccccccc"
         id="path1164"
         d="m 28.982924,266.51655 0,18.39128 H 4.6269023 l -0.7455925,0.7456 H 29.728516 l 0,-19.88247 z"
         style="color:#000000;font-style:normal;font-variant:normal;font-weight:normal;font-stretch:normal;font-size:medium;line-height:normal;font-family:sans-serif;font-variant-ligatures:normal;font-variant-position:normal;font-variant-caps:normal;font-variant-numeric:normal;font-variant-alternates:normal;font-variant-east-asian:normal;font-feature-settings:normal;font-variation-settings:normal;text-indent:0;text-align:start;text-decoration:none;text-decoration-line:none;text-decoration-style:solid;text-decoration-color:#000000;letter-spacing:normal;word-spacing:normal;text-transform:none;writing-mode:lr-tb;direction:ltr;text-orientation:mixed;dominant-baseline:auto;baseline-shift:baseline;text-anchor:start;white-space:normal;shape-padding:0;shape-margin:0;inline-size:0;clip-rule:nonzero;display:inline;overflow:visible;visibility:visible;opacity:1;isolation:auto;mix-blend-mode:normal;color-interpolation:sRGB;color-interpolation-filters:linearRGB;solid-color:#000000;solid-opacity:1;vector-effect:none;fill:#e5e5e5;fill-opacity:1;fill-rule:nonzero;stroke:none;stroke-width:1.48167;stroke-linecap:butt;stroke-linejoin:miter;stroke-miterlimit:4;stroke-dasharray:none;stroke-dashoffset:0;stroke-opacity:1;paint-order:markers stroke fill;color-rendering:auto;image-rendering:auto;shape-rendering:auto;text-rendering:auto;enable-background:accumulate;stop-color:#000000;stop-opacity:1" />
    </g>
    <g
       transform="translate(-1.7646837,-1.1000473)"
       id="g967">
      <g
         aria-label="2"
         id="text886"
         style="font-size:9.87778px;line-height:0.75;font-family:Arial;-inkscape-font-specification:Arial;fill:#e875e8;fill-opacity:0.420233;fill-rule:evenodd;stroke:none;stroke-width:1.5875;stroke-linecap:round;stroke-linejoin:bevel;stroke-opacity:0.996109;paint-order:markers fill stroke;stop-color:#000000"
         transform="translate(0.52916667,-0.37672)" />
      <g
         aria-label="="
         id="text882"
         style="font-size:9.87778px;line-height:0.75;font-family:Arial;-inkscape-font-specification:Arial;fill:#e875e8;fill-opacity:0.420233;fill-rule:evenodd;stroke:none;stroke-width:1.5875;stroke-linecap:round;stroke-linejoin:bevel;stroke-opacity:0.996109;paint-order:markers fill stroke;stop-color:#000000"
         transform="translate(0,0.002405)" />
      <g
         id="g954"
         transform="translate(-1.0583333)">
        <g
           transform="translate(0,1.09984)"
           style="font-size:9.87778px;line-height:0.75;font-family:Arial;-inkscape-font-specification:Arial;fill:#e875e8;fill-opacity:0.420233;fill-rule:evenodd;stroke:#264040;stroke-width:1.5875;stroke-linecap:round;stroke-linejoin:bevel;stroke-opacity:0.996109;paint-order:markers fill stroke;stop-color:#000000"
           id="text874"
           aria-label="6" />
        <g
           transform="translate(0,-1.09742)"
           style="font-size:9.87778px;line-height:0.75;font-family:Arial;-inkscape-font-specification:Arial;fill:#e875e8;fill-opacity:0.420233;fill-rule:evenodd;stroke:none;stroke-width:1.5875;stroke-linecap:round;stroke-linejoin:bevel;stroke-opacity:0.996109;paint-order:markers fill stroke;stop-color:#000000"
           id="text878"
           aria-label="3" />
        <g
           style="font-size:9.87778px;line-height:0.75;font-family:Arial;-inkscape-font-specification:Arial;fill:#e875e8;fill-opacity:0.420233;fill-rule:evenodd;stroke:none;stroke-width:1.5875;stroke-linecap:round;stroke-linejoin:bevel;stroke-opacity:0.996109;paint-order:markers fill stroke;stop-color:#000000"
           id="text890"
           aria-label="_">
          <path
             sodipodi:nodetypes="ccccccccscscsccssscsccccsccscccscscccccscscsscscsscscscscsccssscscscccccccccccccccccscsscccssssccccc"
             d="m 11.102958,281.47782 v -0.62701 h 5.754 v 0.62701 z m 0.561895,6.39787 0.868164,-0.11576 c 0.09968,0.49196 0.268488,0.84727 0.506429,1.06592 0.241157,0.21543 0.53376,0.32315 0.877811,0.32315 0.408359,0 0.752409,-0.14148 1.032151,-0.42444 0.282957,-0.28296 0.424436,-0.63344 0.424436,-1.05144 0,-0.39871 -0.130225,-0.72669 -0.390674,-0.98392 -0.260449,-0.26045 -0.591638,-0.39068 -0.993566,-0.39068 -0.163987,0 -0.368166,0.0322 -0.612538,0.0965 l 0.09646,-0.76206 c 0.05788,0.007 0.104503,0.01 0.13987,0.01 0.369774,0 0.70257,-0.0965 0.998389,-0.28939 0.295819,-0.19293 0.443729,-0.49035 0.443729,-0.89228 0,-0.31833 -0.107717,-0.58199 -0.32315,-0.791 -0.215433,-0.209 -0.493568,-0.3135 -0.834403,-0.3135 -0.337619,0 -0.618969,0.10611 -0.844048,0.31833 -0.22508,0.21221 -0.369774,0.53054 -0.434082,0.95498 l -0.868162,-0.15472 c 0.106109,-0.58199 0.347266,-1.03215 0.723471,-1.35048 0.376204,-0.32154 0.844048,-0.48231 1.403532,-0.48231 0.385851,0 0.741155,0.0836 1.065913,0.2508 0.324757,0.16399 0.572345,0.38907 0.742762,0.67524 0.173633,0.28617 0.26045,0.59003 0.26045,0.91157 0,0.30547 -0.08199,0.5836 -0.24598,0.8344 -0.163987,0.25081 -0.406751,0.45016 -0.728294,0.59807 0.418005,0.0965 0.742763,0.29743 0.974274,0.60289 0.23151,0.30225 0.347265,0.68167 0.347265,1.13826 0,0.61737 -0.22508,1.14148 -0.675239,1.57235 -0.450159,0.42765 -1.019288,0.64147 -1.707389,0.64147 -0.620577,0 -1.136652,-0.18489 -1.548226,-0.55466 -0.408359,-0.36977 -0.641478,-0.84887 -0.699355,-1.43729 z m 4.5241,-13.64945 -0.863341,0.0675 c -0.07717,-0.34083 -0.186494,-0.58842 -0.327973,-0.74276 -0.234726,-0.24759 -0.524114,-0.37138 -0.868164,-0.37138 -0.276527,0 -0.519291,0.0772 -0.728294,0.23151 -0.273311,0.19935 -0.488744,0.49035 -0.6463,0.87298 -0.157555,0.38264 -0.239549,0.92766 -0.24598,1.63505 0.209003,-0.31833 0.464629,-0.55466 0.766879,-0.709 0.30225,-0.15434 0.618969,-0.23151 0.950157,-0.23151 0.578777,0 1.070737,0.21382 1.47588,0.64147 0.408359,0.42444 0.612538,0.97428 0.612538,1.64951 0,0.44373 -0.09646,0.85692 -0.289388,1.23955 -0.18971,0.37942 -0.451767,0.67042 -0.786171,0.87299 -0.334404,0.20257 -0.713824,0.30386 -1.13826,0.30386 -0.72347,0 -1.3135,-0.26527 -1.770091,-0.79582 -0.45659,-0.53376 -0.684885,-1.41157 -0.684885,-2.63343 0,-1.36656 0.252411,-2.36013 0.757232,-2.9807 0.440513,-0.54019 1.033759,-0.81029 1.779737,-0.81029 0.556269,0 1.011251,0.15595 1.364947,0.46785 0.356912,0.31189 0.641477,0.73823 0.641477,1.2926 z m -3.545004,3.04822 c 0,0.29903 0.0627,0.58521 0.188102,0.85852 0.128617,0.27331 0.307073,0.48231 0.535368,0.627 0.228295,0.14148 0.467845,0.21222 0.718648,0.21222 0.366558,0 0.681669,-0.14791 0.945334,-0.44373 0.263665,-0.29582 0.395497,-0.69775 0.395497,-1.20578 0,-0.48875 -0.130225,-0.87299 -0.390674,-1.15273 -0.260449,-0.28296 -0.588422,-0.42444 -0.983919,-0.42444 -0.392282,0 -0.725078,0.14148 -0.998389,0.42444 -0.273311,0.27974 -0.409967,0.64791 -0.409967,1.1045 z m 9.940136,3.22425 h -4.668794 v -0.81029 h 4.668794 z m 0,2.14629 h -4.668794 v -0.81028 h 4.668794 z m 5.825658,1.23711 v 0.8344 h -4.673618 c -0.0064,-0.209 0.02736,-0.40996 0.101286,-0.60289 0.11897,-0.31833 0.30868,-0.63183 0.56913,-0.94051 0.263664,-0.30868 0.643084,-0.66559 1.13826,-1.07074 0.768486,-0.63022 1.287776,-1.12861 1.557872,-1.49517 0.270096,-0.36977 0.405144,-0.71865 0.405144,-1.04662 0,-0.34405 -0.123794,-0.63344 -0.371382,-0.86816 -0.244372,-0.23795 -0.564307,-0.35692 -0.959803,-0.35692 -0.418006,0 -0.75241,0.1254 -1.003213,0.37621 -0.250803,0.2508 -0.377812,0.59807 -0.381027,1.0418 l -0.89228,-0.0916 c 0.06109,-0.66559 0.290996,-1.17202 0.689708,-1.51929 0.398712,-0.35048 0.93408,-0.52572 1.606104,-0.52572 0.678454,0 1.215429,0.1881 1.610927,0.5643 0.395497,0.37621 0.593246,0.84244 0.593246,1.39871 0,0.28296 -0.05788,0.5611 -0.173633,0.83441 -0.115756,0.27331 -0.308681,0.56109 -0.578776,0.86334 -0.266881,0.30225 -0.712217,0.71703 -1.336009,1.24436 -0.520899,0.4373 -0.855303,0.73473 -1.003212,0.89228 -0.14791,0.15435 -0.270096,0.3103 -0.366558,0.46785 z"
             style="font-size:9.87778px;fill:url(#linearGradient993);fill-opacity:1;stroke-width:1.5875"
             id="path921" />
        </g>
      </g>
    </g>
  </g>
</svg>
