<?xml version="1.0" encoding="UTF-8" standalone="no"?>
<svg
   xmlns:dc="http://purl.org/dc/elements/1.1/"
   xmlns:cc="http://creativecommons.org/ns#"
   xmlns:rdf="http://www.w3.org/1999/02/22-rdf-syntax-ns#"
   xmlns:svg="http://www.w3.org/2000/svg"
   xmlns="http://www.w3.org/2000/svg"
   xmlns:xlink="http://www.w3.org/1999/xlink"
   xmlns:sodipodi="http://sodipodi.sourceforge.net/DTD/sodipodi-0.dtd"
   xmlns:inkscape="http://www.inkscape.org/namespaces/inkscape"
   width="128"
   height="128"
   viewBox="0 0 33.866666 33.866668"
   version="1.1"
   id="svg8"
   inkscape:version="1.0 (4035a4fb49, 2020-05-01)"
   sodipodi:docname="kachegrinder.svg">
  <defs
     id="defs2">
    <linearGradient
       id="linearGradient1086"
       inkscape:collect="always">
      <stop
         id="stop1082"
         offset="0"
         style="stop-color:#fff6d5;stop-opacity:1" />
      <stop
         id="stop1084"
         offset="1"
         style="stop-color:#ffe680;stop-opacity:1" />
    </linearGradient>
    <linearGradient
       id="linearGradient1656">
      <stop
         style="stop-color:#d4aa00;stop-opacity:1"
         offset="0"
         id="stop1652" />
      <stop
         id="stop1098"
         offset="0.14671208"
         style="stop-color:#d4aa00;stop-opacity:0.49528301" />
      <stop
         id="stop1094"
         offset="0.38880438"
         style="stop-color:#d4aa00;stop-opacity:0.25" />
      <stop
         style="stop-color:#d4aa00;stop-opacity:0.5"
         offset="0.68011856"
         id="stop1096" />
      <stop
         style="stop-color:#d4aa00;stop-opacity:0"
         offset="1"
         id="stop1654" />
    </linearGradient>
    <linearGradient
       id="linearGradient1634">
      <stop
         style="stop-color:#4f4f4f;stop-opacity:1;"
         offset="0"
         id="stop1626" />
      <stop
         id="stop1628"
         offset="0.5"
         style="stop-color:#d6d6d6;stop-opacity:1;" />
      <stop
         style="stop-color:#cdcdcd;stop-opacity:1;"
         offset="0.51282078"
         id="stop1630" />
      <stop
         style="stop-color:#ffffff;stop-opacity:1;"
         offset="1"
         id="stop1632" />
    </linearGradient>
    <linearGradient
       gradientTransform="matrix(2.7272733,0,0,2.727273,-2.020455,-512.80762)"
       gradientUnits="userSpaceOnUse"
       y2="293.56042"
       x2="11.377084"
       y1="285.62292"
       x1="1.3229166"
       id="linearGradient4510"
       xlink:href="#linearGradient4508" />
    <linearGradient
       id="linearGradient4508">
      <stop
         id="stop4504"
         offset="0"
         style="stop-color:#dedede;stop-opacity:1;" />
      <stop
         id="stop4506"
         offset="1"
         style="stop-color:#909090;stop-opacity:1;" />
    </linearGradient>
    <linearGradient
       gradientTransform="matrix(1.3636364,0,0,1.3235265,-1.0102283,-95.908435)"
       gradientUnits="userSpaceOnUse"
       y2="292.23749"
       x2="10.583333"
       y1="286.15207"
       x1="2.6458333"
       id="linearGradient4502"
       xlink:href="#linearGradient4500" />
    <linearGradient
       id="linearGradient4500">
      <stop
         id="stop4496"
         offset="0"
         style="stop-color:#4f4f4f;stop-opacity:1;" />
      <stop
         style="stop-color:#d6d6d6;stop-opacity:1;"
         offset="0.5"
         id="stop4804" />
      <stop
         id="stop4806"
         offset="0.53125"
         style="stop-color:#cdcdcd;stop-opacity:1;" />
      <stop
         id="stop4498"
         offset="1"
         style="stop-color:#ffffff;stop-opacity:1;" />
    </linearGradient>
    <linearGradient
       gradientTransform="matrix(2.7272733,0,0,2.727273,-33.770461,-513.72172)"
       gradientUnits="userSpaceOnUse"
       y2="294.88333"
       x2="20.902082"
       y1="294.88333"
       x1="15.875"
       id="linearGradient4570"
       xlink:href="#linearGradient4568" />
    <linearGradient
       id="linearGradient4568">
      <stop
         id="stop4564"
         offset="0"
         style="stop-color:#404040;stop-opacity:1;" />
      <stop
         style="stop-color:#e7e7e7;stop-opacity:1;"
         offset="0.5"
         id="stop4572" />
      <stop
         id="stop4566"
         offset="1"
         style="stop-color:#313131;stop-opacity:1;" />
    </linearGradient>
    <linearGradient
       gradientTransform="matrix(2.7272733,0,0,2.727273,-34.492051,-512.80768)"
       gradientUnits="userSpaceOnUse"
       y2="296.20624"
       x2="17.991667"
       y1="295.41251"
       x1="17.991667"
       id="linearGradient4584"
       xlink:href="#linearGradient4516" />
    <linearGradient
       id="linearGradient4516">
      <stop
         id="stop4512"
         offset="0"
         style="stop-color:#ffffff;stop-opacity:1;" />
      <stop
         style="stop-color:#dadada;stop-opacity:1;"
         offset="0.25"
         id="stop4810" />
      <stop
         style="stop-color:#9a9a9a;stop-opacity:1;"
         offset="0.5"
         id="stop4808" />
      <stop
         id="stop4514"
         offset="1"
         style="stop-color:#686868;stop-opacity:1;" />
    </linearGradient>
    <linearGradient
       gradientUnits="userSpaceOnUse"
       y2="292.3475"
       x2="14.388693"
       y1="291.77927"
       x1="13.46337"
       id="linearGradient5889"
       xlink:href="#linearGradient5887"
       gradientTransform="matrix(1.4999999,0,0,1.3333312,7.9352946,-101.99522)" />
    <linearGradient
       id="linearGradient5887">
      <stop
         id="stop5883"
         offset="0"
         style="stop-color:#95ff9a;stop-opacity:1;" />
      <stop
         id="stop5885"
         offset="1"
         style="stop-color:#007d00;stop-opacity:1;" />
    </linearGradient>
    <linearGradient
       inkscape:collect="always"
       id="linearGradient1711">
      <stop
         style="stop-color:#66e866;stop-opacity:1"
         offset="0"
         id="stop1707" />
      <stop
         style="stop-color:#338000;stop-opacity:1"
         offset="1"
         id="stop1709" />
    </linearGradient>
    <linearGradient
       id="linearGradient4497"
       inkscape:collect="always">
      <stop
         id="stop4493"
         offset="0"
         style="stop-color:#636363;stop-opacity:1" />
      <stop
         id="stop4495"
         offset="1"
         style="stop-color:#272727;stop-opacity:1" />
    </linearGradient>
    <linearGradient
       gradientTransform="matrix(0.9,0,0,1,1.1641668,7.4083596)"
       gradientUnits="userSpaceOnUse"
       y2="277.42081"
       x2="19.285185"
       y1="268.95413"
       x1="2.822222"
       id="linearGradient1048"
       xlink:href="#linearGradient1711"
       inkscape:collect="always" />
    <linearGradient
       gradientTransform="translate(1.2715657e-7,4.2333485)"
       gradientUnits="userSpaceOnUse"
       y2="276.36249"
       x2="16.668751"
       y1="269.74789"
       x1="14.022917"
       id="linearGradient1070"
       xlink:href="#linearGradient4497"
       inkscape:collect="always" />
    <linearGradient
       gradientTransform="translate(1.2715657e-7,4.2333485)"
       gradientUnits="userSpaceOnUse"
       y2="276.36249"
       x2="11.377084"
       y1="269.74789"
       x1="8.7312498"
       id="linearGradient1072"
       xlink:href="#linearGradient4497"
       inkscape:collect="always" />
    <linearGradient
       gradientTransform="translate(1.2715657e-7,4.2333485)"
       gradientUnits="userSpaceOnUse"
       y2="276.36249"
       x2="6.0854168"
       y1="269.74789"
       x1="3.4395833"
       id="linearGradient1074"
       xlink:href="#linearGradient4497"
       inkscape:collect="always" />
    <linearGradient
       gradientTransform="translate(2.1166718,-5.1560443e-5)"
       gradientUnits="userSpaceOnUse"
       y2="293.82504"
       x2="26.458328"
       y1="266.30838"
       x1="5.2916617"
       id="linearGradient1088"
       xlink:href="#linearGradient1086"
       inkscape:collect="always" />
    <linearGradient
       gradientTransform="translate(2.1166718,-5.1560443e-5)"
       y2="293.82504"
       x2="28.574995"
       y1="266.30838"
       x1="5.2916617"
       gradientUnits="userSpaceOnUse"
       id="linearGradient1092"
       xlink:href="#linearGradient1656"
       inkscape:collect="always" />
  </defs>
  <sodipodi:namedview
     id="base"
     pagecolor="#ffffff"
     bordercolor="#666666"
     borderopacity="1.0"
     inkscape:pageopacity="0.0"
     inkscape:pageshadow="2"
     inkscape:zoom="11.313708"
     inkscape:cx="47.088479"
     inkscape:cy="44.639037"
     inkscape:document-units="mm"
     inkscape:current-layer="layer1"
     showgrid="false"
     units="px"
     inkscape:snap-bbox="true"
     inkscape:bbox-paths="false"
     inkscape:bbox-nodes="true"
     inkscape:snap-bbox-edge-midpoints="true"
     inkscape:snap-bbox-midpoints="false"
     inkscape:snap-nodes="true"
     inkscape:snap-page="false"
     inkscape:snap-grids="true"
     inkscape:window-width="1600"
     inkscape:window-height="837"
     inkscape:window-x="-8"
     inkscape:window-y="-8"
     inkscape:window-maximized="1"
     inkscape:snap-midpoints="true"
     inkscape:document-rotation="0">
    <inkscape:grid
       id="grid1025"
       type="xygrid" />
  </sodipodi:namedview>
  <metadata
     id="metadata5">
    <rdf:RDF>
      <cc:Work
         rdf:about="">
        <dc:format>image/svg+xml</dc:format>
        <dc:type
           rdf:resource="http://purl.org/dc/dcmitype/StillImage" />
        <dc:title />
      </cc:Work>
    </rdf:RDF>
  </metadata>
  <g
     inkscape:label="Layer 1"
     inkscape:groupmode="layer"
     id="layer1"
     transform="translate(0,-263.13332)">
    <g
       id="g1610"
       transform="translate(3.9687501,-3.175)"
       style="stroke:#efffbc;stroke-opacity:1" />
    <g
       transform="translate(7.9375001,-7.14375)"
       id="g1620"
       style="stroke:#efffbc;stroke-opacity:1" />
    <g
       id="g1630"
       transform="translate(11.641667,-10.847917)"
       style="stroke:#efffbc;stroke-opacity:1" />
    <rect
       y="265.25"
       x="6.3500047"
       height="29.633333"
       width="25.4"
       id="rect1001"
       style="opacity:1;fill:url(#linearGradient1088);fill-opacity:1;fill-rule:evenodd;stroke:none;stroke-width:0.50270832;stroke-linecap:round;stroke-linejoin:miter;stroke-miterlimit:4;stroke-dasharray:none;stroke-dashoffset:0;stroke-opacity:0.5" />
    <rect
       style="opacity:1;fill:url(#linearGradient1092);fill-opacity:1;fill-rule:evenodd;stroke:none;stroke-width:0.50270832;stroke-linecap:round;stroke-linejoin:miter;stroke-miterlimit:4;stroke-dasharray:none;stroke-dashoffset:0;stroke-opacity:0.5"
       id="rect1090"
       width="25.4"
       height="29.633333"
       x="6.3500047"
       y="265.25" />
    <g
       id="text1005"
       style="font-style:normal;font-variant:normal;font-weight:normal;font-stretch:normal;font-size:4.6296258px;line-height:1.25;font-family:Arial;-inkscape-font-specification:Arial;letter-spacing:0px;word-spacing:0px;fill:#000000;fill-opacity:1;stroke:none;stroke-width:0.26709378"
       transform="matrix(0.98190285,0,0,1.0184307,2.1166718,-5.1560443e-5)"
       aria-label="01010101 10101010 11001100 00110011">
      <path
         inkscape:connector-curvature="0"
         d="m 26.019175,285.33449 v -0.31482 h 0.851852 v -2.17592 H 26.20899 v -0.24537 q 0.263889,-0.037 0.439815,-0.088 0.175925,-0.0509 0.319444,-0.12963 h 0.282407 v 2.63888 h 0.773147 v 0.31482 z m -2.775966,0 v -0.31482 h 0.851851 v -2.17592 h -0.662037 v -0.24537 q 0.263889,-0.037 0.439815,-0.088 0.175926,-0.0509 0.319444,-0.12963 h 0.282407 v 2.63888 h 0.773148 v 0.31482 z m -1.836155,0.0555 q -0.49537,0 -0.777777,-0.39814 -0.282407,-0.40278 -0.282407,-1.14352 0,-0.74537 0.282407,-1.13426 0.282407,-0.38889 0.777777,-0.38889 0.49537,0 0.777777,0.38889 0.282408,0.38889 0.282408,1.13426 0,0.74074 -0.282408,1.14352 -0.282407,0.39814 -0.777777,0.39814 z m 0,-0.30555 q 0.310185,0 0.504629,-0.30093 0.199074,-0.30092 0.199074,-0.93518 0,-0.31945 -0.05092,-0.5463 -0.05093,-0.23148 -0.148149,-0.37963 -0.09259,-0.15277 -0.222222,-0.22222 -0.129629,-0.0694 -0.282407,-0.0694 -0.152777,0 -0.282407,0.0694 -0.129629,0.0695 -0.226852,0.22222 -0.09259,0.14815 -0.143518,0.37963 -0.05093,0.22685 -0.05093,0.5463 0,0.63426 0.194444,0.93518 0.199074,0.30093 0.509259,0.30093 z m 0,-0.95833 q -0.11574,0 -0.203703,-0.0787 -0.08333,-0.0833 -0.08333,-0.23148 0,-0.14352 0.08333,-0.22222 0.08796,-0.0833 0.203703,-0.0833 0.115741,0 0.199074,0.0833 0.08796,0.0787 0.08796,0.22222 0,0.14815 -0.08796,0.23148 -0.08333,0.0787 -0.199074,0.0787 z m -2.775966,1.26388 q -0.49537,0 -0.777777,-0.39814 -0.282408,-0.40278 -0.282408,-1.14352 0,-0.74537 0.282408,-1.13426 0.282407,-0.38889 0.777777,-0.38889 0.49537,0 0.777777,0.38889 0.282407,0.38889 0.282407,1.13426 0,0.74074 -0.282407,1.14352 -0.282407,0.39814 -0.777777,0.39814 z m 0,-0.30555 q 0.310185,0 0.504629,-0.30093 0.199074,-0.30092 0.199074,-0.93518 0,-0.31945 -0.05093,-0.5463 -0.05093,-0.23148 -0.148148,-0.37963 -0.09259,-0.15277 -0.222222,-0.22222 -0.12963,-0.0694 -0.282407,-0.0694 -0.152778,0 -0.282408,0.0694 -0.129629,0.0695 -0.226851,0.22222 -0.09259,0.14815 -0.143519,0.37963 -0.05092,0.22685 -0.05092,0.5463 0,0.63426 0.194444,0.93518 0.199074,0.30093 0.509259,0.30093 z m 0,-0.95833 q -0.115741,0 -0.203704,-0.0787 -0.08333,-0.0833 -0.08333,-0.23148 0,-0.14352 0.08333,-0.22222 0.08796,-0.0833 0.203704,-0.0833 0.11574,0 0.199074,0.0833 0.08796,0.0787 0.08796,0.22222 0,0.14815 -0.08796,0.23148 -0.08333,0.0787 -0.199074,0.0787 z m -3.715781,1.20833 v -0.31482 h 0.851851 v -2.17592 h -0.662036 v -0.24537 q 0.263888,-0.037 0.439814,-0.088 0.175926,-0.0509 0.319444,-0.12963 h 0.282407 v 2.63888 h 0.773148 v 0.31482 z m -2.775968,0 v -0.31482 h 0.851852 v -2.17592 h -0.662037 v -0.24537 q 0.263889,-0.037 0.439814,-0.088 0.175926,-0.0509 0.319445,-0.12963 h 0.282407 v 2.63888 h 0.773147 v 0.31482 z m -1.836153,0.0555 q -0.4953697,0 -0.7777769,-0.39814 -0.2824071,-0.40278 -0.2824071,-1.14352 0,-0.74537 0.2824071,-1.13426 0.2824072,-0.38889 0.7777769,-0.38889 0.49537,0 0.777777,0.38889 0.282408,0.38889 0.282408,1.13426 0,0.74074 -0.282408,1.14352 -0.282407,0.39814 -0.777777,0.39814 z m 0,-0.30555 q 0.310185,0 0.504629,-0.30093 0.199074,-0.30092 0.199074,-0.93518 0,-0.31945 -0.05092,-0.5463 -0.05093,-0.23148 -0.148149,-0.37963 -0.09259,-0.15277 -0.222222,-0.22222 -0.129629,-0.0694 -0.282407,-0.0694 -0.152777,0 -0.282407,0.0694 -0.1296294,0.0695 -0.2268516,0.22222 -0.092592,0.14815 -0.1435184,0.37963 -0.050926,0.22685 -0.050926,0.5463 0,0.63426 0.1944442,0.93518 0.1990739,0.30093 0.5092588,0.30093 z m 0,-0.95833 q -0.11574,0 -0.203703,-0.0787 -0.08333,-0.0833 -0.08333,-0.23148 0,-0.14352 0.08333,-0.22222 0.08796,-0.0833 0.203703,-0.0833 0.115741,0 0.199074,0.0833 0.08796,0.0787 0.08796,0.22222 0,0.14815 -0.08796,0.23148 -0.08333,0.0787 -0.199074,0.0787 z m -2.7759668,1.26388 q -0.49537,0 -0.7777772,-0.39814 -0.2824072,-0.40278 -0.2824072,-1.14352 0,-0.74537 0.2824072,-1.13426 0.2824072,-0.38889 0.7777772,-0.38889 0.4953699,0 0.7777771,0.38889 0.2824072,0.38889 0.2824072,1.13426 0,0.74074 -0.2824072,1.14352 -0.2824072,0.39814 -0.7777771,0.39814 z m 0,-0.30555 q 0.3101849,0 0.5046292,-0.30093 0.1990739,-0.30092 0.1990739,-0.93518 0,-0.31945 -0.050926,-0.5463 -0.050926,-0.23148 -0.148148,-0.37963 -0.092593,-0.15277 -0.2222221,-0.22222 -0.1296295,-0.0694 -0.2824071,-0.0694 -0.1527777,0 -0.2824072,0.0694 -0.1296295,0.0695 -0.2268517,0.22222 -0.092593,0.14815 -0.1435184,0.37963 -0.050926,0.22685 -0.050926,0.5463 0,0.63426 0.1944443,0.93518 0.1990739,0.30093 0.5092591,0.30093 z m 0,-0.95833 q -0.1157407,0 -0.2037036,-0.0787 -0.083333,-0.0833 -0.083333,-0.23148 0,-0.14352 0.083333,-0.22222 0.087963,-0.0833 0.2037036,-0.0833 0.1157406,0 0.1990739,0.0833 0.087963,0.0787 0.087963,0.22222 0,0.14815 -0.087963,0.23148 -0.083333,0.0787 -0.1990739,0.0787 z m 19.4317698,-4.64238 q -0.495369,0 -0.777777,-0.39815 -0.282407,-0.40278 -0.282407,-1.14352 0,-0.74537 0.282407,-1.13425 0.282408,-0.38889 0.777777,-0.38889 0.49537,0 0.777778,0.38889 0.282407,0.38888 0.282407,1.13425 0,0.74074 -0.282407,1.14352 -0.282408,0.39815 -0.777778,0.39815 z m 0,-0.30556 q 0.310185,0 0.50463,-0.30092 0.199074,-0.30093 0.199074,-0.93519 0,-0.31944 -0.05093,-0.54629 -0.05093,-0.23148 -0.148148,-0.37963 -0.09259,-0.15278 -0.222222,-0.22222 -0.12963,-0.0695 -0.282408,-0.0695 -0.152777,0 -0.282407,0.0695 -0.129629,0.0694 -0.226851,0.22222 -0.09259,0.14815 -0.143519,0.37963 -0.05093,0.22685 -0.05093,0.54629 0,0.63426 0.194445,0.93519 0.199074,0.30092 0.509258,0.30092 z m 0,-0.95833 q -0.11574,0 -0.203703,-0.0787 -0.08333,-0.0833 -0.08333,-0.23148 0,-0.14352 0.08333,-0.22223 0.08796,-0.0833 0.203703,-0.0833 0.115741,0 0.199074,0.0833 0.08796,0.0787 0.08796,0.22223 0,0.14814 -0.08796,0.23148 -0.08333,0.0787 -0.199074,0.0787 z m -2.775966,1.26389 q -0.49537,0 -0.777777,-0.39815 -0.282407,-0.40278 -0.282407,-1.14352 0,-0.74537 0.282407,-1.13425 0.282407,-0.38889 0.777777,-0.38889 0.49537,0 0.777777,0.38889 0.282407,0.38888 0.282407,1.13425 0,0.74074 -0.282407,1.14352 -0.282407,0.39815 -0.777777,0.39815 z m 0,-0.30556 q 0.310185,0 0.504629,-0.30092 0.199074,-0.30093 0.199074,-0.93519 0,-0.31944 -0.05093,-0.54629 -0.05093,-0.23148 -0.148148,-0.37963 -0.09259,-0.15278 -0.222222,-0.22222 -0.12963,-0.0695 -0.282407,-0.0695 -0.152778,0 -0.282407,0.0695 -0.12963,0.0694 -0.226852,0.22222 -0.09259,0.14815 -0.143518,0.37963 -0.05093,0.22685 -0.05093,0.54629 0,0.63426 0.194444,0.93519 0.199074,0.30092 0.509259,0.30092 z m 0,-0.95833 q -0.115741,0 -0.203704,-0.0787 -0.08333,-0.0833 -0.08333,-0.23148 0,-0.14352 0.08333,-0.22223 0.08796,-0.0833 0.203704,-0.0833 0.11574,0 0.199074,0.0833 0.08796,0.0787 0.08796,0.22223 0,0.14814 -0.08796,0.23148 -0.08333,0.0787 -0.199074,0.0787 z m -3.715783,1.20833 v -0.31481 h 0.851851 v -2.17593 h -0.662036 v -0.24537 q 0.263889,-0.037 0.439814,-0.088 0.175926,-0.0509 0.319445,-0.12963 h 0.282407 v 2.63889 h 0.773147 v 0.31481 z m -2.775966,0 v -0.31481 h 0.851851 v -2.17593 h -0.662037 v -0.24537 q 0.263889,-0.037 0.439815,-0.088 0.175925,-0.0509 0.319444,-0.12963 h 0.282407 v 2.63889 h 0.773148 v 0.31481 z m -1.836153,0.0556 q -0.49537,0 -0.777777,-0.39815 -0.282407,-0.40278 -0.282407,-1.14352 0,-0.74537 0.282407,-1.13425 0.282407,-0.38889 0.777777,-0.38889 0.49537,0 0.777777,0.38889 0.282407,0.38888 0.282407,1.13425 0,0.74074 -0.282407,1.14352 -0.282407,0.39815 -0.777777,0.39815 z m 0,-0.30556 q 0.310185,0 0.504629,-0.30092 0.199074,-0.30093 0.199074,-0.93519 0,-0.31944 -0.05093,-0.54629 -0.05093,-0.23148 -0.148148,-0.37963 -0.09259,-0.15278 -0.222222,-0.22222 -0.129629,-0.0695 -0.282407,-0.0695 -0.152778,0 -0.282407,0.0695 -0.12963,0.0694 -0.226852,0.22222 -0.09259,0.14815 -0.143518,0.37963 -0.05093,0.22685 -0.05093,0.54629 0,0.63426 0.194444,0.93519 0.199074,0.30092 0.509259,0.30092 z m 0,-0.95833 q -0.115741,0 -0.203704,-0.0787 -0.08333,-0.0833 -0.08333,-0.23148 0,-0.14352 0.08333,-0.22223 0.08796,-0.0833 0.203704,-0.0833 0.115741,0 0.199074,0.0833 0.08796,0.0787 0.08796,0.22223 0,0.14814 -0.08796,0.23148 -0.08333,0.0787 -0.199074,0.0787 z m -2.775968,1.26389 q -0.49537,0 -0.777777,-0.39815 -0.282407,-0.40278 -0.282407,-1.14352 0,-0.74537 0.282407,-1.13425 0.282407,-0.38889 0.777777,-0.38889 0.49537,0 0.777778,0.38889 0.282407,0.38888 0.282407,1.13425 0,0.74074 -0.282407,1.14352 -0.282408,0.39815 -0.777778,0.39815 z m 0,-0.30556 q 0.310185,0 0.50463,-0.30092 0.199074,-0.30093 0.199074,-0.93519 0,-0.31944 -0.05093,-0.54629 -0.05093,-0.23148 -0.148148,-0.37963 -0.09259,-0.15278 -0.222222,-0.22222 -0.12963,-0.0695 -0.282408,-0.0695 -0.152777,0 -0.282407,0.0695 -0.129629,0.0694 -0.226851,0.22222 -0.09259,0.14815 -0.143519,0.37963 -0.05093,0.22685 -0.05093,0.54629 0,0.63426 0.194445,0.93519 0.199073,0.30092 0.509258,0.30092 z m 0,-0.95833 q -0.11574,0 -0.203703,-0.0787 -0.08333,-0.0833 -0.08333,-0.23148 0,-0.14352 0.08333,-0.22223 0.08796,-0.0833 0.203703,-0.0833 0.115741,0 0.199074,0.0833 0.08796,0.0787 0.08796,0.22223 0,0.14814 -0.08796,0.23148 -0.08333,0.0787 -0.199074,0.0787 z m -3.7157808,1.20833 v -0.31481 h 0.8518508 v -2.17593 H 9.5531869 v -0.24537 q 0.2638887,-0.037 0.4398144,-0.088 0.1759257,-0.0509 0.3194447,-0.12963 h 0.282407 v 2.63889 H 11.368 v 0.31481 z m -2.7759671,0 v -0.31481 h 0.8518512 v -2.17593 H 6.7772198 v -0.24537 q 0.2638886,-0.037 0.4398144,-0.088 0.1759258,-0.0509 0.3194442,-0.12963 h 0.2824072 v 2.63889 h 0.7731475 v 0.31481 z m 20.3715839,-5.85071 q -0.495369,0 -0.777777,-0.39814 -0.282407,-0.40278 -0.282407,-1.14352 0,-0.74537 0.282407,-1.13426 0.282408,-0.38889 0.777777,-0.38889 0.49537,0 0.777778,0.38889 0.282407,0.38889 0.282407,1.13426 0,0.74074 -0.282407,1.14352 -0.282408,0.39814 -0.777778,0.39814 z m 0,-0.30555 q 0.310185,0 0.50463,-0.30093 0.199074,-0.30092 0.199074,-0.93518 0,-0.31945 -0.05093,-0.5463 -0.05093,-0.23148 -0.148148,-0.37963 -0.09259,-0.15277 -0.222222,-0.22222 -0.12963,-0.0694 -0.282408,-0.0694 -0.152777,0 -0.282407,0.0694 -0.129629,0.0695 -0.226851,0.22222 -0.09259,0.14815 -0.143519,0.37963 -0.05093,0.22685 -0.05093,0.5463 0,0.63426 0.194445,0.93518 0.199074,0.30093 0.509258,0.30093 z m 0,-0.95833 q -0.11574,0 -0.203703,-0.0787 -0.08333,-0.0833 -0.08333,-0.23148 0,-0.14352 0.08333,-0.22222 0.08796,-0.0833 0.203703,-0.0833 0.115741,0 0.199074,0.0833 0.08796,0.0787 0.08796,0.22222 0,0.14815 -0.08796,0.23148 -0.08333,0.0787 -0.199074,0.0787 z m -3.71578,1.20833 v -0.31482 h 0.851851 v -2.17592 h -0.662037 v -0.24537 q 0.263889,-0.037 0.439815,-0.088 0.175926,-0.0509 0.319444,-0.12963 h 0.282407 v 2.63888 h 0.773148 v 0.31482 z m -1.836155,0.0556 q -0.49537,0 -0.777777,-0.39814 -0.282407,-0.40278 -0.282407,-1.14352 0,-0.74537 0.282407,-1.13426 0.282407,-0.38889 0.777777,-0.38889 0.49537,0 0.777777,0.38889 0.282408,0.38889 0.282408,1.13426 0,0.74074 -0.282408,1.14352 -0.282407,0.39814 -0.777777,0.39814 z m 0,-0.30555 q 0.310185,0 0.504629,-0.30093 0.199074,-0.30092 0.199074,-0.93518 0,-0.31945 -0.05092,-0.5463 -0.05093,-0.23148 -0.148149,-0.37963 -0.09259,-0.15277 -0.222222,-0.22222 -0.129629,-0.0694 -0.282407,-0.0694 -0.152777,0 -0.282407,0.0694 -0.129629,0.0695 -0.226852,0.22222 -0.09259,0.14815 -0.143518,0.37963 -0.05093,0.22685 -0.05093,0.5463 0,0.63426 0.194444,0.93518 0.199074,0.30093 0.509259,0.30093 z m 0,-0.95833 q -0.11574,0 -0.203703,-0.0787 -0.08333,-0.0833 -0.08333,-0.23148 0,-0.14352 0.08333,-0.22222 0.08796,-0.0833 0.203703,-0.0833 0.115741,0 0.199074,0.0833 0.08796,0.0787 0.08796,0.22222 0,0.14815 -0.08796,0.23148 -0.08333,0.0787 -0.199074,0.0787 z m -3.71578,1.20833 v -0.31482 h 0.851851 v -2.17592 h -0.662037 v -0.24537 q 0.263889,-0.037 0.439815,-0.088 0.175925,-0.0509 0.319444,-0.12963 h 0.282407 v 2.63888 h 0.773148 v 0.31482 z m -1.836153,0.0556 q -0.49537,0 -0.777777,-0.39814 -0.282407,-0.40278 -0.282407,-1.14352 0,-0.74537 0.282407,-1.13426 0.282407,-0.38889 0.777777,-0.38889 0.49537,0 0.777777,0.38889 0.282407,0.38889 0.282407,1.13426 0,0.74074 -0.282407,1.14352 -0.282407,0.39814 -0.777777,0.39814 z m 0,-0.30555 q 0.310185,0 0.504629,-0.30093 0.199074,-0.30092 0.199074,-0.93518 0,-0.31945 -0.05093,-0.5463 -0.05093,-0.23148 -0.148148,-0.37963 -0.09259,-0.15277 -0.222222,-0.22222 -0.129629,-0.0694 -0.282407,-0.0694 -0.152778,0 -0.282407,0.0694 -0.12963,0.0695 -0.226852,0.22222 -0.09259,0.14815 -0.143518,0.37963 -0.05093,0.22685 -0.05093,0.5463 0,0.63426 0.194444,0.93518 0.199074,0.30093 0.509259,0.30093 z m 0,-0.95833 q -0.115741,0 -0.203704,-0.0787 -0.08333,-0.0833 -0.08333,-0.23148 0,-0.14352 0.08333,-0.22222 0.08796,-0.0833 0.203704,-0.0833 0.115741,0 0.199074,0.0833 0.08796,0.0787 0.08796,0.22222 0,0.14815 -0.08796,0.23148 -0.08333,0.0787 -0.199074,0.0787 z m -3.715782,1.20833 v -0.31482 h 0.851852 v -2.17592 h -0.662037 v -0.24537 q 0.263889,-0.037 0.439814,-0.088 0.175926,-0.0509 0.319445,-0.12963 h 0.282407 v 2.63888 h 0.773147 v 0.31482 z m -1.836153,0.0556 q -0.4953697,0 -0.7777769,-0.39814 -0.2824071,-0.40278 -0.2824071,-1.14352 0,-0.74537 0.2824071,-1.13426 0.2824072,-0.38889 0.7777769,-0.38889 0.49537,0 0.777777,0.38889 0.282408,0.38889 0.282408,1.13426 0,0.74074 -0.282408,1.14352 -0.282407,0.39814 -0.777777,0.39814 z m 0,-0.30555 q 0.310185,0 0.504629,-0.30093 0.199074,-0.30092 0.199074,-0.93518 0,-0.31945 -0.05092,-0.5463 -0.05093,-0.23148 -0.148149,-0.37963 -0.09259,-0.15277 -0.222222,-0.22222 -0.129629,-0.0694 -0.282407,-0.0694 -0.152777,0 -0.282407,0.0694 -0.1296294,0.0695 -0.2268516,0.22222 -0.092592,0.14815 -0.1435184,0.37963 -0.050926,0.22685 -0.050926,0.5463 0,0.63426 0.1944442,0.93518 0.1990739,0.30093 0.5092588,0.30093 z m 0,-0.95833 q -0.11574,0 -0.203703,-0.0787 -0.08333,-0.0833 -0.08333,-0.23148 0,-0.14352 0.08333,-0.22222 0.08796,-0.0833 0.203703,-0.0833 0.115741,0 0.199074,0.0833 0.08796,0.0787 0.08796,0.22222 0,0.14815 -0.08796,0.23148 -0.08333,0.0787 -0.199074,0.0787 z m -3.7157809,1.20833 v -0.31482 h 0.8518512 v -2.17592 H 6.7772198 v -0.24537 q 0.2638886,-0.037 0.4398144,-0.088 0.1759258,-0.0509 0.3194442,-0.12963 h 0.2824072 v 2.63888 h 0.7731475 v 0.31482 z m 19.4317699,-5.90627 v -0.31481 h 0.851852 v -2.17593 H 26.20899 v -0.24537 q 0.263889,-0.037 0.439815,-0.088 0.175925,-0.0509 0.319444,-0.12963 h 0.282407 v 2.63889 h 0.773147 v 0.31481 z m -1.836152,0.0556 q -0.49537,0 -0.777777,-0.39815 -0.282407,-0.40278 -0.282407,-1.14352 0,-0.74537 0.282407,-1.13426 0.282407,-0.38888 0.777777,-0.38888 0.49537,0 0.777777,0.38888 0.282407,0.38889 0.282407,1.13426 0,0.74074 -0.282407,1.14352 -0.282407,0.39815 -0.777777,0.39815 z m 0,-0.30556 q 0.310185,0 0.504629,-0.30092 0.199074,-0.30093 0.199074,-0.93519 0,-0.31944 -0.05093,-0.54629 -0.05093,-0.23148 -0.148148,-0.37963 -0.09259,-0.15278 -0.222222,-0.22222 -0.12963,-0.0695 -0.282407,-0.0695 -0.152778,0 -0.282407,0.0695 -0.12963,0.0694 -0.226852,0.22222 -0.09259,0.14815 -0.143518,0.37963 -0.05093,0.22685 -0.05093,0.54629 0,0.63426 0.194444,0.93519 0.199074,0.30092 0.509259,0.30092 z m 0,-0.95833 q -0.115741,0 -0.203704,-0.0787 -0.08333,-0.0833 -0.08333,-0.23149 0,-0.14351 0.08333,-0.22222 0.08796,-0.0833 0.203704,-0.0833 0.11574,0 0.199074,0.0833 0.08796,0.0787 0.08796,0.22222 0,0.14815 -0.08796,0.23149 -0.08333,0.0787 -0.199074,0.0787 z m -3.715783,1.20833 v -0.31481 h 0.851851 v -2.17593 h -0.662036 v -0.24537 q 0.263889,-0.037 0.439814,-0.088 0.175926,-0.0509 0.319445,-0.12963 h 0.282407 v 2.63889 h 0.773147 v 0.31481 z m -1.836152,0.0556 q -0.49537,0 -0.777777,-0.39815 -0.282408,-0.40278 -0.282408,-1.14352 0,-0.74537 0.282408,-1.13426 0.282407,-0.38888 0.777777,-0.38888 0.49537,0 0.777777,0.38888 0.282407,0.38889 0.282407,1.13426 0,0.74074 -0.282407,1.14352 -0.282407,0.39815 -0.777777,0.39815 z m 0,-0.30556 q 0.310185,0 0.504629,-0.30092 0.199074,-0.30093 0.199074,-0.93519 0,-0.31944 -0.05093,-0.54629 -0.05093,-0.23148 -0.148148,-0.37963 -0.09259,-0.15278 -0.222222,-0.22222 -0.12963,-0.0695 -0.282407,-0.0695 -0.152778,0 -0.282408,0.0695 -0.129629,0.0694 -0.226851,0.22222 -0.09259,0.14815 -0.143519,0.37963 -0.05092,0.22685 -0.05092,0.54629 0,0.63426 0.194444,0.93519 0.199074,0.30092 0.509259,0.30092 z m 0,-0.95833 q -0.115741,0 -0.203704,-0.0787 -0.08333,-0.0833 -0.08333,-0.23149 0,-0.14351 0.08333,-0.22222 0.08796,-0.0833 0.203704,-0.0833 0.11574,0 0.199074,0.0833 0.08796,0.0787 0.08796,0.22222 0,0.14815 -0.08796,0.23149 -0.08333,0.0787 -0.199074,0.0787 z m -3.715781,1.20833 v -0.31481 h 0.851851 v -2.17593 h -0.662036 v -0.24537 q 0.263888,-0.037 0.439814,-0.088 0.175926,-0.0509 0.319444,-0.12963 h 0.282407 v 2.63889 h 0.773148 v 0.31481 z m -1.836154,0.0556 q -0.49537,0 -0.777777,-0.39815 -0.282407,-0.40278 -0.282407,-1.14352 0,-0.74537 0.282407,-1.13426 0.282407,-0.38888 0.777777,-0.38888 0.49537,0 0.777778,0.38888 0.282407,0.38889 0.282407,1.13426 0,0.74074 -0.282407,1.14352 -0.282408,0.39815 -0.777778,0.39815 z m 0,-0.30556 q 0.310185,0 0.50463,-0.30092 0.199074,-0.30093 0.199074,-0.93519 0,-0.31944 -0.05093,-0.54629 -0.05093,-0.23148 -0.148148,-0.37963 -0.09259,-0.15278 -0.222222,-0.22222 -0.12963,-0.0695 -0.282408,-0.0695 -0.152777,0 -0.282407,0.0695 -0.129629,0.0694 -0.226851,0.22222 -0.09259,0.14815 -0.143519,0.37963 -0.05093,0.22685 -0.05093,0.54629 0,0.63426 0.194445,0.93519 0.199073,0.30092 0.509258,0.30092 z m 0,-0.95833 q -0.11574,0 -0.203703,-0.0787 -0.08333,-0.0833 -0.08333,-0.23149 0,-0.14351 0.08333,-0.22222 0.08796,-0.0833 0.203703,-0.0833 0.115741,0 0.199074,0.0833 0.08796,0.0787 0.08796,0.22222 0,0.14815 -0.08796,0.23149 -0.08333,0.0787 -0.199074,0.0787 z m -3.7157808,1.20833 v -0.31481 h 0.8518508 v -2.17593 H 9.5531869 v -0.24537 q 0.2638887,-0.037 0.4398144,-0.088 0.1759257,-0.0509 0.3194447,-0.12963 h 0.282407 v 2.63889 H 11.368 v 0.31481 z m -1.836153,0.0556 q -0.49537,0 -0.7777772,-0.39815 -0.2824072,-0.40278 -0.2824072,-1.14352 0,-0.74537 0.2824072,-1.13426 0.2824072,-0.38888 0.7777772,-0.38888 0.4953699,0 0.7777771,0.38888 0.2824072,0.38889 0.2824072,1.13426 0,0.74074 -0.2824072,1.14352 -0.2824072,0.39815 -0.7777771,0.39815 z m 0,-0.30556 q 0.3101849,0 0.5046292,-0.30092 0.1990739,-0.30093 0.1990739,-0.93519 0,-0.31944 -0.050926,-0.54629 -0.050926,-0.23148 -0.148148,-0.37963 -0.092593,-0.15278 -0.2222221,-0.22222 -0.1296295,-0.0695 -0.2824071,-0.0695 -0.1527777,0 -0.2824072,0.0695 -0.1296295,0.0694 -0.2268517,0.22222 -0.092593,0.14815 -0.1435184,0.37963 -0.050926,0.22685 -0.050926,0.54629 0,0.63426 0.1944443,0.93519 0.1990739,0.30092 0.5092591,0.30092 z m 0,-0.95833 q -0.1157407,0 -0.2037036,-0.0787 -0.083333,-0.0833 -0.083333,-0.23149 0,-0.14351 0.083333,-0.22222 0.087963,-0.0833 0.2037036,-0.0833 0.1157406,0 0.1990739,0.0833 0.087963,0.0787 0.087963,0.22222 0,0.14815 -0.087963,0.23149 -0.083333,0.0787 -0.1990739,0.0787 z"
         style="font-style:normal;font-variant:normal;font-weight:normal;font-stretch:normal;font-family:'Source Code Pro';-inkscape-font-specification:'Source Code Pro';fill:#000080;fill-opacity:0.5;stroke-width:0.26709378"
         id="path1079" />
      <path
         id="path1112"
         style="font-style:normal;font-variant:normal;font-weight:normal;font-stretch:normal;font-family:'Source Code Pro';-inkscape-font-specification:'Source Code Pro';fill:#000000;fill-opacity:0.2;stroke-width:0.26709378"
         d="m 26.28863,285.5942 v -0.31482 h 0.851852 v -2.17592 h -0.662037 v -0.24537 q 0.263889,-0.037 0.439815,-0.088 0.175925,-0.0509 0.319444,-0.12963 h 0.282407 v 2.63888 h 0.773147 v 0.31482 z m -2.775966,0 v -0.31482 h 0.851851 v -2.17592 h -0.662037 v -0.24537 q 0.263889,-0.037 0.439815,-0.088 0.175926,-0.0509 0.319444,-0.12963 h 0.282407 v 2.63888 h 0.773148 v 0.31482 z m -1.836155,0.0555 q -0.49537,0 -0.777777,-0.39814 -0.282407,-0.40278 -0.282407,-1.14352 0,-0.74537 0.282407,-1.13426 0.282407,-0.38889 0.777777,-0.38889 0.49537,0 0.777777,0.38889 0.282408,0.38889 0.282408,1.13426 0,0.74074 -0.282408,1.14352 -0.282407,0.39814 -0.777777,0.39814 z m 0,-0.30555 q 0.310185,0 0.504629,-0.30093 0.199074,-0.30092 0.199074,-0.93518 0,-0.31945 -0.05092,-0.5463 -0.05093,-0.23148 -0.148149,-0.37963 -0.09259,-0.15277 -0.222222,-0.22222 -0.129629,-0.0694 -0.282407,-0.0694 -0.152777,0 -0.282407,0.0694 -0.129629,0.0695 -0.226852,0.22222 -0.09259,0.14815 -0.143518,0.37963 -0.05093,0.22685 -0.05093,0.5463 0,0.63426 0.194444,0.93518 0.199074,0.30093 0.509259,0.30093 z m 0,-0.95833 q -0.11574,0 -0.203703,-0.0787 -0.08333,-0.0833 -0.08333,-0.23148 0,-0.14352 0.08333,-0.22222 0.08796,-0.0833 0.203703,-0.0833 0.115741,0 0.199074,0.0833 0.08796,0.0787 0.08796,0.22222 0,0.14815 -0.08796,0.23148 -0.08333,0.0787 -0.199074,0.0787 z m -2.775966,1.26388 q -0.49537,0 -0.777777,-0.39814 -0.282408,-0.40278 -0.282408,-1.14352 0,-0.74537 0.282408,-1.13426 0.282407,-0.38889 0.777777,-0.38889 0.49537,0 0.777777,0.38889 0.282407,0.38889 0.282407,1.13426 0,0.74074 -0.282407,1.14352 -0.282407,0.39814 -0.777777,0.39814 z m 0,-0.30555 q 0.310185,0 0.504629,-0.30093 0.199074,-0.30092 0.199074,-0.93518 0,-0.31945 -0.05093,-0.5463 -0.05093,-0.23148 -0.148148,-0.37963 -0.09259,-0.15277 -0.222222,-0.22222 -0.12963,-0.0694 -0.282407,-0.0694 -0.152778,0 -0.282408,0.0694 -0.129629,0.0695 -0.226851,0.22222 -0.09259,0.14815 -0.143519,0.37963 -0.05092,0.22685 -0.05092,0.5463 0,0.63426 0.194444,0.93518 0.199074,0.30093 0.509259,0.30093 z m 0,-0.95833 q -0.115741,0 -0.203704,-0.0787 -0.08333,-0.0833 -0.08333,-0.23148 0,-0.14352 0.08333,-0.22222 0.08796,-0.0833 0.203704,-0.0833 0.11574,0 0.199074,0.0833 0.08796,0.0787 0.08796,0.22222 0,0.14815 -0.08796,0.23148 -0.08333,0.0787 -0.199074,0.0787 z m -3.715781,1.20833 v -0.31482 h 0.851851 v -2.17592 h -0.662036 v -0.24537 q 0.263888,-0.037 0.439814,-0.088 0.175926,-0.0509 0.319444,-0.12963 h 0.282407 v 2.63888 h 0.773148 v 0.31482 z m -2.775968,0 v -0.31482 h 0.851852 v -2.17592 h -0.662037 v -0.24537 q 0.263889,-0.037 0.439814,-0.088 0.175926,-0.0509 0.319445,-0.12963 h 0.282407 v 2.63888 h 0.773147 v 0.31482 z m -1.836153,0.0555 q -0.49537,0 -0.777777,-0.39814 -0.2824073,-0.40278 -0.2824073,-1.14352 0,-0.74537 0.2824073,-1.13426 0.282407,-0.38889 0.777777,-0.38889 0.49537,0 0.777777,0.38889 0.282408,0.38889 0.282408,1.13426 0,0.74074 -0.282408,1.14352 -0.282407,0.39814 -0.777777,0.39814 z m 0,-0.30555 q 0.310185,0 0.504629,-0.30093 0.199074,-0.30092 0.199074,-0.93518 0,-0.31945 -0.05092,-0.5463 -0.05093,-0.23148 -0.148149,-0.37963 -0.09259,-0.15277 -0.222222,-0.22222 -0.129629,-0.0694 -0.282407,-0.0694 -0.152777,0 -0.282407,0.0694 -0.12963,0.0695 -0.226852,0.22222 -0.09259,0.14815 -0.143518,0.37963 -0.05093,0.22685 -0.05093,0.5463 0,0.63426 0.194444,0.93518 0.199074,0.30093 0.509259,0.30093 z m 0,-0.95833 q -0.11574,0 -0.203703,-0.0787 -0.08333,-0.0833 -0.08333,-0.23148 0,-0.14352 0.08333,-0.22222 0.08796,-0.0833 0.203703,-0.0833 0.115741,0 0.199074,0.0833 0.08796,0.0787 0.08796,0.22222 0,0.14815 -0.08796,0.23148 -0.08333,0.0787 -0.199074,0.0787 z m -2.7759671,1.26388 q -0.49537,0 -0.7777772,-0.39814 -0.2824072,-0.40278 -0.2824072,-1.14352 0,-0.74537 0.2824072,-1.13426 0.2824072,-0.38889 0.7777772,-0.38889 0.4953699,0 0.7777771,0.38889 0.2824072,0.38889 0.2824072,1.13426 0,0.74074 -0.2824072,1.14352 -0.2824072,0.39814 -0.7777771,0.39814 z m 0,-0.30555 q 0.3101849,0 0.5046292,-0.30093 0.1990739,-0.30092 0.1990739,-0.93518 0,-0.31945 -0.050926,-0.5463 -0.050926,-0.23148 -0.148148,-0.37963 -0.092593,-0.15277 -0.2222221,-0.22222 -0.1296295,-0.0694 -0.2824071,-0.0694 -0.1527777,0 -0.2824072,0.0694 -0.1296295,0.0695 -0.2268517,0.22222 -0.092593,0.14815 -0.1435184,0.37963 -0.050926,0.22685 -0.050926,0.5463 0,0.63426 0.1944443,0.93518 0.1990739,0.30093 0.5092591,0.30093 z m 0,-0.95833 q -0.1157407,0 -0.2037036,-0.0787 -0.083333,-0.0833 -0.083333,-0.23148 0,-0.14352 0.083333,-0.22222 0.087963,-0.0833 0.2037036,-0.0833 0.1157406,0 0.1990739,0.0833 0.087963,0.0787 0.087963,0.22222 0,0.14815 -0.087963,0.23148 -0.083333,0.0787 -0.1990739,0.0787 z m 19.4317701,-4.64238 q -0.495369,0 -0.777777,-0.39815 -0.282407,-0.40278 -0.282407,-1.14352 0,-0.74537 0.282407,-1.13425 0.282408,-0.38889 0.777777,-0.38889 0.49537,0 0.777778,0.38889 0.282407,0.38888 0.282407,1.13425 0,0.74074 -0.282407,1.14352 -0.282408,0.39815 -0.777778,0.39815 z m 0,-0.30556 q 0.310185,0 0.50463,-0.30092 0.199074,-0.30093 0.199074,-0.93519 0,-0.31944 -0.05093,-0.54629 -0.05093,-0.23148 -0.148148,-0.37963 -0.09259,-0.15278 -0.222222,-0.22222 -0.12963,-0.0695 -0.282408,-0.0695 -0.152777,0 -0.282407,0.0695 -0.129629,0.0694 -0.226851,0.22222 -0.09259,0.14815 -0.143519,0.37963 -0.05093,0.22685 -0.05093,0.54629 0,0.63426 0.194445,0.93519 0.199074,0.30092 0.509258,0.30092 z m 0,-0.95833 q -0.11574,0 -0.203703,-0.0787 -0.08333,-0.0833 -0.08333,-0.23148 0,-0.14352 0.08333,-0.22223 0.08796,-0.0833 0.203703,-0.0833 0.115741,0 0.199074,0.0833 0.08796,0.0787 0.08796,0.22223 0,0.14814 -0.08796,0.23148 -0.08333,0.0787 -0.199074,0.0787 z m -2.775966,1.26389 q -0.49537,0 -0.777777,-0.39815 -0.282407,-0.40278 -0.282407,-1.14352 0,-0.74537 0.282407,-1.13425 0.282407,-0.38889 0.777777,-0.38889 0.49537,0 0.777777,0.38889 0.282407,0.38888 0.282407,1.13425 0,0.74074 -0.282407,1.14352 -0.282407,0.39815 -0.777777,0.39815 z m 0,-0.30556 q 0.310185,0 0.504629,-0.30092 0.199074,-0.30093 0.199074,-0.93519 0,-0.31944 -0.05093,-0.54629 -0.05093,-0.23148 -0.148148,-0.37963 -0.09259,-0.15278 -0.222222,-0.22222 -0.12963,-0.0695 -0.282407,-0.0695 -0.152778,0 -0.282407,0.0695 -0.12963,0.0694 -0.226852,0.22222 -0.09259,0.14815 -0.143518,0.37963 -0.05093,0.22685 -0.05093,0.54629 0,0.63426 0.194444,0.93519 0.199074,0.30092 0.509259,0.30092 z m 0,-0.95833 q -0.115741,0 -0.203704,-0.0787 -0.08333,-0.0833 -0.08333,-0.23148 0,-0.14352 0.08333,-0.22223 0.08796,-0.0833 0.203704,-0.0833 0.11574,0 0.199074,0.0833 0.08796,0.0787 0.08796,0.22223 0,0.14814 -0.08796,0.23148 -0.08333,0.0787 -0.199074,0.0787 z m -3.715783,1.20833 v -0.31481 h 0.851851 v -2.17593 H 20.92651 v -0.24537 q 0.263889,-0.037 0.439814,-0.088 0.175926,-0.0509 0.319445,-0.12963 h 0.282407 v 2.63889 h 0.773147 v 0.31481 z m -2.775966,0 v -0.31481 h 0.851851 v -2.17593 h -0.662037 v -0.24537 q 0.263889,-0.037 0.439815,-0.088 0.175925,-0.0509 0.319444,-0.12963 h 0.282407 v 2.63889 h 0.773148 v 0.31481 z m -1.836153,0.0556 q -0.49537,0 -0.777777,-0.39815 -0.282407,-0.40278 -0.282407,-1.14352 0,-0.74537 0.282407,-1.13425 0.282407,-0.38889 0.777777,-0.38889 0.49537,0 0.777777,0.38889 0.282407,0.38888 0.282407,1.13425 0,0.74074 -0.282407,1.14352 -0.282407,0.39815 -0.777777,0.39815 z m 0,-0.30556 q 0.310185,0 0.504629,-0.30092 0.199074,-0.30093 0.199074,-0.93519 0,-0.31944 -0.05093,-0.54629 -0.05093,-0.23148 -0.148148,-0.37963 -0.09259,-0.15278 -0.222222,-0.22222 -0.129629,-0.0695 -0.282407,-0.0695 -0.152778,0 -0.282407,0.0695 -0.12963,0.0694 -0.226852,0.22222 -0.09259,0.14815 -0.143518,0.37963 -0.05093,0.22685 -0.05093,0.54629 0,0.63426 0.194444,0.93519 0.199074,0.30092 0.509259,0.30092 z m 0,-0.95833 q -0.115741,0 -0.203704,-0.0787 -0.08333,-0.0833 -0.08333,-0.23148 0,-0.14352 0.08333,-0.22223 0.08796,-0.0833 0.203704,-0.0833 0.115741,0 0.199074,0.0833 0.08796,0.0787 0.08796,0.22223 0,0.14814 -0.08796,0.23148 -0.08333,0.0787 -0.199074,0.0787 z m -2.775968,1.26389 q -0.49537,0 -0.777777,-0.39815 -0.282407,-0.40278 -0.282407,-1.14352 0,-0.74537 0.282407,-1.13425 0.282407,-0.38889 0.777777,-0.38889 0.49537,0 0.777778,0.38889 0.282407,0.38888 0.282407,1.13425 0,0.74074 -0.282407,1.14352 -0.282408,0.39815 -0.777778,0.39815 z m 0,-0.30556 q 0.310185,0 0.50463,-0.30092 0.199074,-0.30093 0.199074,-0.93519 0,-0.31944 -0.05093,-0.54629 -0.05093,-0.23148 -0.148148,-0.37963 -0.09259,-0.15278 -0.222222,-0.22222 -0.12963,-0.0695 -0.282408,-0.0695 -0.152777,0 -0.282407,0.0695 -0.129629,0.0694 -0.226851,0.22222 -0.09259,0.14815 -0.143519,0.37963 -0.05093,0.22685 -0.05093,0.54629 0,0.63426 0.194445,0.93519 0.199073,0.30092 0.509258,0.30092 z m 0,-0.95833 q -0.11574,0 -0.203703,-0.0787 -0.08333,-0.0833 -0.08333,-0.23148 0,-0.14352 0.08333,-0.22223 0.08796,-0.0833 0.203703,-0.0833 0.115741,0 0.199074,0.0833 0.08796,0.0787 0.08796,0.22223 0,0.14814 -0.08796,0.23148 -0.08333,0.0787 -0.199074,0.0787 z m -3.7157811,1.20833 v -0.31481 h 0.8518511 v -2.17593 H 9.822642 v -0.24537 q 0.263888,-0.037 0.439814,-0.088 0.175926,-0.0509 0.319445,-0.12963 h 0.282407 v 2.63889 h 0.773147 v 0.31481 z m -2.7759671,0 v -0.31481 H 7.708711 v -2.17593 H 7.0466745 v -0.24537 q 0.2638886,-0.037 0.4398144,-0.088 0.1759258,-0.0509 0.3194442,-0.12963 h 0.2824072 v 2.63889 h 0.7731475 v 0.31481 z m 20.3715842,-5.85071 q -0.495369,0 -0.777777,-0.39814 -0.282407,-0.40278 -0.282407,-1.14352 0,-0.74537 0.282407,-1.13426 0.282408,-0.38889 0.777777,-0.38889 0.49537,0 0.777778,0.38889 0.282407,0.38889 0.282407,1.13426 0,0.74074 -0.282407,1.14352 -0.282408,0.39814 -0.777778,0.39814 z m 0,-0.30555 q 0.310185,0 0.50463,-0.30093 0.199074,-0.30092 0.199074,-0.93518 0,-0.31945 -0.05093,-0.5463 -0.05093,-0.23148 -0.148148,-0.37963 -0.09259,-0.15277 -0.222222,-0.22222 -0.12963,-0.0694 -0.282408,-0.0694 -0.152777,0 -0.282407,0.0694 -0.129629,0.0695 -0.226851,0.22222 -0.09259,0.14815 -0.143519,0.37963 -0.05093,0.22685 -0.05093,0.5463 0,0.63426 0.194445,0.93518 0.199074,0.30093 0.509258,0.30093 z m 0,-0.95833 q -0.11574,0 -0.203703,-0.0787 -0.08333,-0.0833 -0.08333,-0.23148 0,-0.14352 0.08333,-0.22222 0.08796,-0.0833 0.203703,-0.0833 0.115741,0 0.199074,0.0833 0.08796,0.0787 0.08796,0.22222 0,0.14815 -0.08796,0.23148 -0.08333,0.0787 -0.199074,0.0787 z m -3.71578,1.20833 v -0.31482 h 0.851851 v -2.17592 h -0.662037 v -0.24537 q 0.263889,-0.037 0.439815,-0.088 0.175926,-0.0509 0.319444,-0.12963 h 0.282407 v 2.63888 h 0.773148 v 0.31482 z m -1.836155,0.0556 q -0.49537,0 -0.777777,-0.39814 -0.282407,-0.40278 -0.282407,-1.14352 0,-0.74537 0.282407,-1.13426 0.282407,-0.38889 0.777777,-0.38889 0.49537,0 0.777777,0.38889 0.282408,0.38889 0.282408,1.13426 0,0.74074 -0.282408,1.14352 -0.282407,0.39814 -0.777777,0.39814 z m 0,-0.30555 q 0.310185,0 0.504629,-0.30093 0.199074,-0.30092 0.199074,-0.93518 0,-0.31945 -0.05092,-0.5463 -0.05093,-0.23148 -0.148149,-0.37963 -0.09259,-0.15277 -0.222222,-0.22222 -0.129629,-0.0694 -0.282407,-0.0694 -0.152777,0 -0.282407,0.0694 -0.129629,0.0695 -0.226852,0.22222 -0.09259,0.14815 -0.143518,0.37963 -0.05093,0.22685 -0.05093,0.5463 0,0.63426 0.194444,0.93518 0.199074,0.30093 0.509259,0.30093 z m 0,-0.95833 q -0.11574,0 -0.203703,-0.0787 -0.08333,-0.0833 -0.08333,-0.23148 0,-0.14352 0.08333,-0.22222 0.08796,-0.0833 0.203703,-0.0833 0.115741,0 0.199074,0.0833 0.08796,0.0787 0.08796,0.22222 0,0.14815 -0.08796,0.23148 -0.08333,0.0787 -0.199074,0.0787 z m -3.71578,1.20833 v -0.31482 h 0.851851 v -2.17592 h -0.662037 v -0.24537 q 0.263889,-0.037 0.439815,-0.088 0.175925,-0.0509 0.319444,-0.12963 h 0.282407 v 2.63888 h 0.773148 v 0.31482 z m -1.836153,0.0556 q -0.49537,0 -0.777777,-0.39814 -0.282407,-0.40278 -0.282407,-1.14352 0,-0.74537 0.282407,-1.13426 0.282407,-0.38889 0.777777,-0.38889 0.49537,0 0.777777,0.38889 0.282407,0.38889 0.282407,1.13426 0,0.74074 -0.282407,1.14352 -0.282407,0.39814 -0.777777,0.39814 z m 0,-0.30555 q 0.310185,0 0.504629,-0.30093 0.199074,-0.30092 0.199074,-0.93518 0,-0.31945 -0.05093,-0.5463 -0.05093,-0.23148 -0.148148,-0.37963 -0.09259,-0.15277 -0.222222,-0.22222 -0.129629,-0.0694 -0.282407,-0.0694 -0.152778,0 -0.282407,0.0694 -0.12963,0.0695 -0.226852,0.22222 -0.09259,0.14815 -0.143518,0.37963 -0.05093,0.22685 -0.05093,0.5463 0,0.63426 0.194444,0.93518 0.199074,0.30093 0.509259,0.30093 z m 0,-0.95833 q -0.115741,0 -0.203704,-0.0787 -0.08333,-0.0833 -0.08333,-0.23148 0,-0.14352 0.08333,-0.22222 0.08796,-0.0833 0.203704,-0.0833 0.115741,0 0.199074,0.0833 0.08796,0.0787 0.08796,0.22222 0,0.14815 -0.08796,0.23148 -0.08333,0.0787 -0.199074,0.0787 z m -3.715782,1.20833 v -0.31482 h 0.851852 v -2.17592 h -0.662037 v -0.24537 q 0.263889,-0.037 0.439814,-0.088 0.175926,-0.0509 0.319445,-0.12963 h 0.282407 v 2.63888 h 0.773147 v 0.31482 z m -1.836153,0.0556 q -0.49537,0 -0.777777,-0.39814 -0.2824073,-0.40278 -0.2824073,-1.14352 0,-0.74537 0.2824073,-1.13426 0.282407,-0.38889 0.777777,-0.38889 0.49537,0 0.777777,0.38889 0.282408,0.38889 0.282408,1.13426 0,0.74074 -0.282408,1.14352 -0.282407,0.39814 -0.777777,0.39814 z m 0,-0.30555 q 0.310185,0 0.504629,-0.30093 0.199074,-0.30092 0.199074,-0.93518 0,-0.31945 -0.05092,-0.5463 -0.05093,-0.23148 -0.148149,-0.37963 -0.09259,-0.15277 -0.222222,-0.22222 -0.129629,-0.0694 -0.282407,-0.0694 -0.152777,0 -0.282407,0.0694 -0.12963,0.0695 -0.226852,0.22222 -0.09259,0.14815 -0.143518,0.37963 -0.05093,0.22685 -0.05093,0.5463 0,0.63426 0.194444,0.93518 0.199074,0.30093 0.509259,0.30093 z m 0,-0.95833 q -0.11574,0 -0.203703,-0.0787 -0.08333,-0.0833 -0.08333,-0.23148 0,-0.14352 0.08333,-0.22222 0.08796,-0.0833 0.203703,-0.0833 0.115741,0 0.199074,0.0833 0.08796,0.0787 0.08796,0.22222 0,0.14815 -0.08796,0.23148 -0.08333,0.0787 -0.199074,0.0787 z m -3.7157812,1.20833 v -0.31482 H 7.708711 v -2.17592 H 7.0466745 v -0.24537 q 0.2638886,-0.037 0.4398144,-0.088 0.1759258,-0.0509 0.3194442,-0.12963 h 0.2824072 v 2.63888 h 0.7731475 v 0.31482 z M 26.28863,267.87549 v -0.31481 h 0.851852 v -2.17593 h -0.662037 v -0.24537 q 0.263889,-0.037 0.439815,-0.088 0.175925,-0.0509 0.319444,-0.12963 h 0.282407 v 2.63889 h 0.773147 v 0.31481 z m -1.836152,0.0556 q -0.49537,0 -0.777777,-0.39815 -0.282407,-0.40278 -0.282407,-1.14352 0,-0.74537 0.282407,-1.13426 0.282407,-0.38888 0.777777,-0.38888 0.49537,0 0.777777,0.38888 0.282407,0.38889 0.282407,1.13426 0,0.74074 -0.282407,1.14352 -0.282407,0.39815 -0.777777,0.39815 z m 0,-0.30556 q 0.310185,0 0.504629,-0.30092 0.199074,-0.30093 0.199074,-0.93519 0,-0.31944 -0.05093,-0.54629 -0.05093,-0.23148 -0.148148,-0.37963 -0.09259,-0.15278 -0.222222,-0.22222 -0.12963,-0.0695 -0.282407,-0.0695 -0.152778,0 -0.282407,0.0695 -0.12963,0.0694 -0.226852,0.22222 -0.09259,0.14815 -0.143518,0.37963 -0.05093,0.22685 -0.05093,0.54629 0,0.63426 0.194444,0.93519 0.199074,0.30092 0.509259,0.30092 z m 0,-0.95833 q -0.115741,0 -0.203704,-0.0787 -0.08333,-0.0833 -0.08333,-0.23149 0,-0.14351 0.08333,-0.22222 0.08796,-0.0833 0.203704,-0.0833 0.11574,0 0.199074,0.0833 0.08796,0.0787 0.08796,0.22222 0,0.14815 -0.08796,0.23149 -0.08333,0.0787 -0.199074,0.0787 z m -3.715783,1.20833 v -0.31481 h 0.851851 v -2.17593 H 20.92651 v -0.24537 q 0.263889,-0.037 0.439814,-0.088 0.175926,-0.0509 0.319445,-0.12963 h 0.282407 v 2.63889 h 0.773147 v 0.31481 z m -1.836152,0.0556 q -0.49537,0 -0.777777,-0.39815 -0.282408,-0.40278 -0.282408,-1.14352 0,-0.74537 0.282408,-1.13426 0.282407,-0.38888 0.777777,-0.38888 0.49537,0 0.777777,0.38888 0.282407,0.38889 0.282407,1.13426 0,0.74074 -0.282407,1.14352 -0.282407,0.39815 -0.777777,0.39815 z m 0,-0.30556 q 0.310185,0 0.504629,-0.30092 0.199074,-0.30093 0.199074,-0.93519 0,-0.31944 -0.05093,-0.54629 -0.05093,-0.23148 -0.148148,-0.37963 -0.09259,-0.15278 -0.222222,-0.22222 -0.12963,-0.0695 -0.282407,-0.0695 -0.152778,0 -0.282408,0.0695 -0.129629,0.0694 -0.226851,0.22222 -0.09259,0.14815 -0.143519,0.37963 -0.05092,0.22685 -0.05092,0.54629 0,0.63426 0.194444,0.93519 0.199074,0.30092 0.509259,0.30092 z m 0,-0.95833 q -0.115741,0 -0.203704,-0.0787 -0.08333,-0.0833 -0.08333,-0.23149 0,-0.14351 0.08333,-0.22222 0.08796,-0.0833 0.203704,-0.0833 0.11574,0 0.199074,0.0833 0.08796,0.0787 0.08796,0.22222 0,0.14815 -0.08796,0.23149 -0.08333,0.0787 -0.199074,0.0787 z m -3.715781,1.20833 v -0.31481 h 0.851851 v -2.17593 h -0.662036 v -0.24537 q 0.263888,-0.037 0.439814,-0.088 0.175926,-0.0509 0.319444,-0.12963 h 0.282407 v 2.63889 h 0.773148 v 0.31481 z m -1.836154,0.0556 q -0.49537,0 -0.777777,-0.39815 -0.282407,-0.40278 -0.282407,-1.14352 0,-0.74537 0.282407,-1.13426 0.282407,-0.38888 0.777777,-0.38888 0.49537,0 0.777778,0.38888 0.282407,0.38889 0.282407,1.13426 0,0.74074 -0.282407,1.14352 -0.282408,0.39815 -0.777778,0.39815 z m 0,-0.30556 q 0.310185,0 0.50463,-0.30092 0.199074,-0.30093 0.199074,-0.93519 0,-0.31944 -0.05093,-0.54629 -0.05093,-0.23148 -0.148148,-0.37963 -0.09259,-0.15278 -0.222222,-0.22222 -0.12963,-0.0695 -0.282408,-0.0695 -0.152777,0 -0.282407,0.0695 -0.129629,0.0694 -0.226851,0.22222 -0.09259,0.14815 -0.143519,0.37963 -0.05093,0.22685 -0.05093,0.54629 0,0.63426 0.194445,0.93519 0.199073,0.30092 0.509258,0.30092 z m 0,-0.95833 q -0.11574,0 -0.203703,-0.0787 -0.08333,-0.0833 -0.08333,-0.23149 0,-0.14351 0.08333,-0.22222 0.08796,-0.0833 0.203703,-0.0833 0.115741,0 0.199074,0.0833 0.08796,0.0787 0.08796,0.22222 0,0.14815 -0.08796,0.23149 -0.08333,0.0787 -0.199074,0.0787 z m -3.7157811,1.20833 v -0.31481 h 0.8518511 v -2.17593 H 9.822642 v -0.24537 q 0.263888,-0.037 0.439814,-0.088 0.175926,-0.0509 0.319445,-0.12963 h 0.282407 v 2.63889 h 0.773147 v 0.31481 z m -1.836153,0.0556 q -0.49537,0 -0.7777772,-0.39815 -0.2824072,-0.40278 -0.2824072,-1.14352 0,-0.74537 0.2824072,-1.13426 0.2824072,-0.38888 0.7777772,-0.38888 0.4953699,0 0.7777771,0.38888 0.2824072,0.38889 0.2824072,1.13426 0,0.74074 -0.2824072,1.14352 -0.2824072,0.39815 -0.7777771,0.39815 z m 0,-0.30556 q 0.3101849,0 0.5046292,-0.30092 0.1990739,-0.30093 0.1990739,-0.93519 0,-0.31944 -0.050926,-0.54629 -0.050926,-0.23148 -0.148148,-0.37963 -0.092593,-0.15278 -0.2222221,-0.22222 -0.1296295,-0.0695 -0.2824071,-0.0695 -0.1527777,0 -0.2824072,0.0695 -0.1296295,0.0694 -0.2268517,0.22222 -0.092593,0.14815 -0.1435184,0.37963 -0.050926,0.22685 -0.050926,0.54629 0,0.63426 0.1944443,0.93519 0.1990739,0.30092 0.5092591,0.30092 z m 0,-0.95833 q -0.1157407,0 -0.2037036,-0.0787 -0.083333,-0.0833 -0.083333,-0.23149 0,-0.14351 0.083333,-0.22222 0.087963,-0.0833 0.2037036,-0.0833 0.1157406,0 0.1990739,0.0833 0.087963,0.0787 0.087963,0.22222 0,0.14815 -0.087963,0.23149 -0.083333,0.0787 -0.1990739,0.0787 z"
         inkscape:connector-curvature="0" />
    </g>
    <rect
       y="265.25"
       x="6.3500047"
       height="29.63332"
       width="0.52916688"
       id="rect1102"
       style="opacity:1;fill:#000000;fill-opacity:0.254717;fill-rule:evenodd;stroke:none;stroke-width:0.50270832;stroke-linecap:round;stroke-linejoin:miter;stroke-miterlimit:4;stroke-dasharray:none;stroke-dashoffset:0;stroke-opacity:0.5" />
    <rect
       y="294.35416"
       x="6.3500047"
       height="0.52916348"
       width="25.4"
       id="rect1104"
       style="opacity:1;fill:#000000;fill-opacity:0.254717;fill-rule:evenodd;stroke:none;stroke-width:0.50270832;stroke-linecap:round;stroke-linejoin:miter;stroke-miterlimit:4;stroke-dasharray:none;stroke-dashoffset:0;stroke-opacity:0.5" />
    <rect
       y="265.25"
       x="31.220835"
       height="29.633314"
       width="0.52916461"
       id="rect1106"
       style="opacity:1;fill:#000000;fill-opacity:0.254717;fill-rule:evenodd;stroke:none;stroke-width:0.50270832;stroke-linecap:round;stroke-linejoin:miter;stroke-miterlimit:4;stroke-dasharray:none;stroke-dashoffset:0;stroke-opacity:0.5" />
    <rect
       y="265.25"
       x="6.3500047"
       height="0.52918816"
       width="25.400002"
       id="rect1108"
       style="opacity:1;fill:#000000;fill-opacity:0.254717;fill-rule:evenodd;stroke:none;stroke-width:0.50270832;stroke-linecap:round;stroke-linejoin:miter;stroke-miterlimit:4;stroke-dasharray:none;stroke-dashoffset:0;stroke-opacity:0.5" />
    <path
       sodipodi:nodetypes="ccccccc"
       transform="matrix(0.26458333,0,0,0.26458333,0,263.13332)"
       d="m 24,48.000001 v 44 l 45.000001,0 v -8 h 3 v -36 z"
       style="opacity:1;fill:#000000;fill-opacity:0.2;fill-rule:evenodd;stroke:none;stroke-width:1.9;stroke-linecap:round;stroke-linejoin:miter;stroke-miterlimit:4;stroke-dasharray:none;stroke-dashoffset:0;stroke-opacity:0.5"
       id="rect1571" />
    <g
       transform="translate(-1.0583333,-1.0583263)"
       id="g1458">
      <rect
         style="opacity:1;fill:url(#linearGradient1048);fill-opacity:1;stroke:none;stroke-width:0.70281619;stroke-linecap:square;stroke-linejoin:round;stroke-miterlimit:4;stroke-dasharray:none;stroke-dashoffset:0;stroke-opacity:1"
         id="rect1027"
         width="15.875"
         height="9.5250072"
         x="3.175"
         y="275.83331" />
      <rect
         style="opacity:1;fill:#eee93b;fill-opacity:1;stroke:none;stroke-width:0.70698726;stroke-linecap:square;stroke-linejoin:round;stroke-miterlimit:4;stroke-dasharray:none;stroke-dashoffset:0;stroke-opacity:1"
         id="rect1040"
         width="14.2875"
         height="2.1166797"
         x="3.96875"
         y="285.35831" />
      <g
         id="g1351"
         transform="translate(1.0583334,7.4083596)">
        <g
           id="g1208">
          <g
             id="g1159">
            <path
               inkscape:connector-curvature="0"
               id="path1076"
               d="M 5.2916666,270.54165 H 14.816667"
               style="fill:none;stroke:#efffbc;stroke-width:0.26458332px;stroke-linecap:butt;stroke-linejoin:miter;stroke-opacity:1"
               sodipodi:nodetypes="cc" />
            <path
               inkscape:connector-curvature="0"
               id="path1078"
               d="M 5.2916666,271.59999 H 14.816667"
               style="fill:none;stroke:#efffbc;stroke-width:0.26458332px;stroke-linecap:butt;stroke-linejoin:miter;stroke-opacity:1"
               sodipodi:nodetypes="cc" />
            <path
               inkscape:connector-curvature="0"
               id="path1080"
               d="M 5.2916666,272.65832 H 14.816667"
               style="fill:none;stroke:#efffbc;stroke-width:0.26458332px;stroke-linecap:butt;stroke-linejoin:miter;stroke-opacity:1"
               sodipodi:nodetypes="cc" />
            <path
               inkscape:connector-curvature="0"
               id="path1082"
               d="M 5.2916666,273.71665 H 14.816667"
               style="fill:none;stroke:#efffbc;stroke-width:0.26458332px;stroke-linecap:butt;stroke-linejoin:miter;stroke-opacity:1"
               sodipodi:nodetypes="cc" />
            <path
               inkscape:connector-curvature="0"
               id="path1103"
               d="m 3.7041666,276.89165 v 1.05831"
               style="fill:none;stroke:#efffbc;stroke-width:0.26458332px;stroke-linecap:butt;stroke-linejoin:miter;stroke-opacity:1"
               sodipodi:nodetypes="cc" />
            <path
               inkscape:connector-curvature="0"
               id="path1105"
               d="m 4.7624999,276.89165 v 1.05831"
               style="fill:none;stroke:#efffbc;stroke-width:0.26458332px;stroke-linecap:butt;stroke-linejoin:miter;stroke-opacity:1"
               sodipodi:nodetypes="cc" />
            <path
               inkscape:connector-curvature="0"
               id="path1107"
               d="m 5.8208333,276.89165 v 1.05831"
               style="fill:none;stroke:#efffbc;stroke-width:0.26458332px;stroke-linecap:butt;stroke-linejoin:miter;stroke-opacity:1"
               sodipodi:nodetypes="cc" />
            <path
               style="fill:none;stroke:#efffbc;stroke-width:0.26458332px;stroke-linecap:butt;stroke-linejoin:miter;stroke-opacity:1"
               d="m 8.9958333,276.89165 v 1.05831"
               id="path1109"
               inkscape:connector-curvature="0"
               sodipodi:nodetypes="cc" />
            <path
               style="fill:none;stroke:#efffbc;stroke-width:0.26458332px;stroke-linecap:butt;stroke-linejoin:miter;stroke-opacity:1"
               d="m 10.054166,276.89165 v 1.05831"
               id="path1111"
               inkscape:connector-curvature="0"
               sodipodi:nodetypes="cc" />
            <path
               style="fill:none;stroke:#efffbc;stroke-width:0.26458332px;stroke-linecap:butt;stroke-linejoin:miter;stroke-opacity:1"
               d="m 11.1125,276.89165 v 1.05831"
               id="path1113"
               inkscape:connector-curvature="0"
               sodipodi:nodetypes="cc" />
            <path
               inkscape:connector-curvature="0"
               id="path1115"
               d="m 14.2875,276.89165 v 1.05831"
               style="fill:none;stroke:#efffbc;stroke-width:0.26458332px;stroke-linecap:butt;stroke-linejoin:miter;stroke-opacity:1"
               sodipodi:nodetypes="cc" />
            <path
               inkscape:connector-curvature="0"
               id="path1117"
               d="m 15.345833,276.89165 v 1.05831"
               style="fill:none;stroke:#efffbc;stroke-width:0.26458332px;stroke-linecap:butt;stroke-linejoin:miter;stroke-opacity:1"
               sodipodi:nodetypes="cc" />
            <path
               inkscape:connector-curvature="0"
               id="path1119"
               d="m 16.404167,276.89165 v 1.05831"
               style="fill:none;stroke:#efffbc;stroke-width:0.26458332px;stroke-linecap:butt;stroke-linejoin:miter;stroke-opacity:1"
               sodipodi:nodetypes="cc" />
          </g>
        </g>
        <g
           id="g1292">
          <path
             style="fill:none;stroke:#efffbc;stroke-width:0.50270832;stroke-linecap:butt;stroke-linejoin:miter;stroke-miterlimit:4;stroke-dasharray:none;stroke-opacity:1"
             d="m 3.7041666,277.94996 v 2.11667"
             id="path1219"
             inkscape:connector-curvature="0"
             sodipodi:nodetypes="cc" />
          <path
             style="fill:none;stroke:#efffbc;stroke-width:0.50270832;stroke-linecap:butt;stroke-linejoin:miter;stroke-miterlimit:4;stroke-dasharray:none;stroke-opacity:1"
             d="m 4.7624999,277.94996 v 2.11667"
             id="path1221"
             inkscape:connector-curvature="0"
             sodipodi:nodetypes="cc" />
          <path
             style="fill:none;stroke:#efffbc;stroke-width:0.50270832;stroke-linecap:butt;stroke-linejoin:miter;stroke-miterlimit:4;stroke-dasharray:none;stroke-opacity:1"
             d="m 5.8208333,277.94996 v 2.11667"
             id="path1223"
             inkscape:connector-curvature="0"
             sodipodi:nodetypes="cc" />
          <path
             style="fill:none;stroke:#efffbc;stroke-width:0.50270832;stroke-linecap:butt;stroke-linejoin:miter;stroke-miterlimit:4;stroke-dasharray:none;stroke-opacity:1"
             d="m 6.8791666,277.94996 v 2.11667"
             id="path1225"
             inkscape:connector-curvature="0"
             sodipodi:nodetypes="cc" />
          <path
             inkscape:connector-curvature="0"
             id="path1227"
             d="m 7.9375,277.94996 v 2.11667"
             style="fill:none;stroke:#efffbc;stroke-width:0.50270832;stroke-linecap:butt;stroke-linejoin:miter;stroke-miterlimit:4;stroke-dasharray:none;stroke-opacity:1"
             sodipodi:nodetypes="cc" />
          <path
             inkscape:connector-curvature="0"
             id="path1229"
             d="m 8.9958333,277.94996 v 2.11667"
             style="fill:none;stroke:#efffbc;stroke-width:0.50270832;stroke-linecap:butt;stroke-linejoin:miter;stroke-miterlimit:4;stroke-dasharray:none;stroke-opacity:1"
             sodipodi:nodetypes="cc" />
          <path
             inkscape:connector-curvature="0"
             id="path1231"
             d="m 10.054167,277.94996 v 2.11667"
             style="fill:none;stroke:#efffbc;stroke-width:0.50270832;stroke-linecap:butt;stroke-linejoin:miter;stroke-miterlimit:4;stroke-dasharray:none;stroke-opacity:1"
             sodipodi:nodetypes="cc" />
          <path
             inkscape:connector-curvature="0"
             id="path1233"
             d="m 11.1125,277.94996 v 2.11667"
             style="fill:none;stroke:#efffbc;stroke-width:0.50270832;stroke-linecap:butt;stroke-linejoin:miter;stroke-miterlimit:4;stroke-dasharray:none;stroke-opacity:1"
             sodipodi:nodetypes="cc" />
          <path
             inkscape:connector-curvature="0"
             id="path1235"
             d="m 12.170833,277.94996 v 2.11667"
             style="fill:none;stroke:#efffbc;stroke-width:0.50270832;stroke-linecap:butt;stroke-linejoin:miter;stroke-miterlimit:4;stroke-dasharray:none;stroke-opacity:1"
             sodipodi:nodetypes="cc" />
          <path
             style="fill:none;stroke:#efffbc;stroke-width:0.50270832;stroke-linecap:butt;stroke-linejoin:miter;stroke-miterlimit:4;stroke-dasharray:none;stroke-opacity:1"
             d="m 13.229167,277.94996 v 2.11667"
             id="path1237"
             inkscape:connector-curvature="0"
             sodipodi:nodetypes="cc" />
          <path
             style="fill:none;stroke:#efffbc;stroke-width:0.50270832;stroke-linecap:butt;stroke-linejoin:miter;stroke-miterlimit:4;stroke-dasharray:none;stroke-opacity:1"
             d="m 14.2875,277.94996 v 2.11667"
             id="path1239"
             inkscape:connector-curvature="0"
             sodipodi:nodetypes="cc" />
          <path
             style="fill:none;stroke:#efffbc;stroke-width:0.50270832;stroke-linecap:butt;stroke-linejoin:miter;stroke-miterlimit:4;stroke-dasharray:none;stroke-opacity:1"
             d="m 15.345834,277.94996 v 2.11667"
             id="path1241"
             inkscape:connector-curvature="0"
             sodipodi:nodetypes="cc" />
          <path
             style="fill:none;stroke:#efffbc;stroke-width:0.50270832;stroke-linecap:butt;stroke-linejoin:miter;stroke-miterlimit:4;stroke-dasharray:none;stroke-opacity:1"
             d="m 16.404167,277.94996 v 2.11667"
             id="path1243"
             inkscape:connector-curvature="0"
             sodipodi:nodetypes="cc" />
        </g>
      </g>
      <g
         id="g1258"
         transform="translate(1.0583333,3.1750111)">
        <rect
           y="273.71664"
           x="3.1750002"
           height="7.4083333"
           width="3.175"
           id="rect1050"
           style="opacity:1;fill:url(#linearGradient1074);fill-opacity:1;stroke:none;stroke-width:0.74083328;stroke-linecap:square;stroke-linejoin:round;stroke-miterlimit:4;stroke-dasharray:none;stroke-dashoffset:0;stroke-opacity:1" />
        <rect
           style="opacity:1;fill:url(#linearGradient1072);fill-opacity:1;stroke:none;stroke-width:0.74083328;stroke-linecap:square;stroke-linejoin:round;stroke-miterlimit:4;stroke-dasharray:none;stroke-dashoffset:0;stroke-opacity:1"
           id="rect1052"
           width="3.175"
           height="7.4083333"
           x="8.4666662"
           y="273.71664" />
        <rect
           y="273.71664"
           x="13.758333"
           height="7.4083333"
           width="3.175"
           id="rect1054"
           style="opacity:1;fill:url(#linearGradient1070);fill-opacity:1;stroke:none;stroke-width:0.74083328;stroke-linecap:square;stroke-linejoin:round;stroke-miterlimit:4;stroke-dasharray:none;stroke-dashoffset:0;stroke-opacity:1" />
      </g>
    </g>
  </g>
</svg>
