<?xml version="1.0" encoding="UTF-8" standalone="no"?>
<svg
   xmlns:dc="http://purl.org/dc/elements/1.1/"
   xmlns:cc="http://creativecommons.org/ns#"
   xmlns:rdf="http://www.w3.org/1999/02/22-rdf-syntax-ns#"
   xmlns:svg="http://www.w3.org/2000/svg"
   xmlns="http://www.w3.org/2000/svg"
   xmlns:xlink="http://www.w3.org/1999/xlink"
   xmlns:sodipodi="http://sodipodi.sourceforge.net/DTD/sodipodi-0.dtd"
   xmlns:inkscape="http://www.inkscape.org/namespaces/inkscape"
   version="1.1"
   id="svg2"
   width="128"
   height="128"
   viewBox="0 0 128 128"
   sodipodi:docname="kipi.svg"
   inkscape:version="1.0.2 (e86c870879, 2021-01-15)">
  <metadata
     id="metadata8">
    <rdf:RDF>
      <cc:Work
         rdf:about="">
        <dc:format>image/svg+xml</dc:format>
        <dc:type
           rdf:resource="http://purl.org/dc/dcmitype/StillImage" />
        <dc:title></dc:title>
      </cc:Work>
    </rdf:RDF>
  </metadata>
  <defs
     id="defs6">
    <linearGradient
       inkscape:collect="always"
       id="linearGradient1389">
      <stop
         style="stop-color:#f5f388;stop-opacity:1"
         offset="0"
         id="stop1385" />
      <stop
         style="stop-color:#e96931;stop-opacity:1"
         offset="1"
         id="stop1387" />
    </linearGradient>
    <linearGradient
       inkscape:collect="always"
       id="linearGradient1367">
      <stop
         style="stop-color:#ffffff;stop-opacity:0.5"
         offset="0"
         id="stop1363" />
      <stop
         style="stop-color:#ffffff;stop-opacity:0"
         offset="1"
         id="stop1365" />
    </linearGradient>
    <linearGradient
       inkscape:collect="always"
       id="linearGradient1281">
      <stop
         style="stop-color:#868181;stop-opacity:1"
         offset="0"
         id="stop1277" />
      <stop
         style="stop-color:#696969;stop-opacity:1"
         offset="1"
         id="stop1279" />
    </linearGradient>
    <linearGradient
       inkscape:collect="always"
       id="linearGradient1271">
      <stop
         style="stop-color:#c0baff;stop-opacity:1"
         offset="0"
         id="stop1267" />
      <stop
         style="stop-color:#5449c6;stop-opacity:1"
         offset="1"
         id="stop1269" />
    </linearGradient>
    <linearGradient
       inkscape:collect="always"
       id="linearGradient1263">
      <stop
         style="stop-color:#b2d092;stop-opacity:1"
         offset="0"
         id="stop1259" />
      <stop
         style="stop-color:#57a62e;stop-opacity:1"
         offset="1"
         id="stop1261" />
    </linearGradient>
    <linearGradient
       inkscape:collect="always"
       id="linearGradient1255">
      <stop
         style="stop-color:#f1a88b;stop-opacity:1"
         offset="0"
         id="stop1251" />
      <stop
         style="stop-color:#e76334;stop-opacity:1"
         offset="1"
         id="stop1253" />
    </linearGradient>
    <linearGradient
       inkscape:collect="always"
       id="linearGradient1247">
      <stop
         style="stop-color:#f5f388;stop-opacity:1"
         offset="0"
         id="stop1243" />
      <stop
         style="stop-color:#e99431;stop-opacity:1"
         offset="1"
         id="stop1245" />
    </linearGradient>
    <linearGradient
       inkscape:collect="always"
       id="linearGradient1237">
      <stop
         style="stop-color:#fbfabe;stop-opacity:1"
         offset="0"
         id="stop1233" />
      <stop
         style="stop-color:#e3b737;stop-opacity:1"
         offset="1"
         id="stop1235" />
    </linearGradient>
    <linearGradient
       inkscape:collect="always"
       id="linearGradient1229">
      <stop
         style="stop-color:#faf5ef;stop-opacity:1"
         offset="0"
         id="stop1225" />
      <stop
         style="stop-color:#dcb799;stop-opacity:0.99607843"
         offset="1"
         id="stop1227" />
    </linearGradient>
    <linearGradient
       inkscape:collect="always"
       xlink:href="#linearGradient1229"
       id="linearGradient1231"
       x1="68"
       y1="5.5652161"
       x2="76"
       y2="121.56522"
       gradientUnits="userSpaceOnUse"
       gradientTransform="matrix(0.83854167,0,0,0.83854167,8,16.919379)" />
    <linearGradient
       inkscape:collect="always"
       xlink:href="#linearGradient1389"
       id="linearGradient1249"
       x1="92"
       y1="41.565216"
       x2="112"
       y2="53.565216"
       gradientUnits="userSpaceOnUse"
       gradientTransform="matrix(0.83854167,0,0,1.0481771,8,4.8516712)" />
    <linearGradient
       inkscape:collect="always"
       xlink:href="#linearGradient1255"
       id="linearGradient1257"
       x1="84"
       y1="65.565216"
       x2="104"
       y2="77.565216"
       gradientUnits="userSpaceOnUse"
       gradientTransform="matrix(0.83854167,0,0,1.0481771,8,3.1745879)" />
    <linearGradient
       inkscape:collect="always"
       xlink:href="#linearGradient1263"
       id="linearGradient1265"
       x1="64"
       y1="85.565216"
       x2="84"
       y2="97.565216"
       gradientUnits="userSpaceOnUse"
       gradientTransform="matrix(0.83854167,0,0,1.0481769,8,-1.018107)" />
    <linearGradient
       inkscape:collect="always"
       xlink:href="#linearGradient1271"
       id="linearGradient1273"
       x1="28"
       y1="89.565216"
       x2="52"
       y2="105.56522"
       gradientUnits="userSpaceOnUse"
       gradientTransform="matrix(0.71875001,0,0,0.83854133,14.708333,20.273573)" />
    <linearGradient
       inkscape:collect="always"
       xlink:href="#linearGradient1237"
       id="linearGradient1275"
       x1="76"
       y1="17.565216"
       x2="96"
       y2="29.565216"
       gradientUnits="userSpaceOnUse"
       gradientTransform="matrix(0.83854167,0,0,1.0481771,8,6.5287547)" />
    <linearGradient
       inkscape:collect="always"
       xlink:href="#linearGradient1281"
       id="linearGradient1283"
       x1="32"
       y1="25.565216"
       x2="32"
       y2="73.565216"
       gradientUnits="userSpaceOnUse"
       gradientTransform="matrix(0.83854167,0,0,0.83854167,8,16.919379)" />
    <linearGradient
       inkscape:collect="always"
       xlink:href="#linearGradient1247"
       id="linearGradient1332"
       x1="64"
       y1="57.565216"
       x2="64"
       y2="65.565216"
       gradientUnits="userSpaceOnUse"
       gradientTransform="matrix(0.83854167,0,0,0.83854167,8,16.919379)" />
    <linearGradient
       inkscape:collect="always"
       xlink:href="#linearGradient1247"
       id="linearGradient1340"
       x1="64"
       y1="33.565216"
       x2="64"
       y2="41.565216"
       gradientUnits="userSpaceOnUse"
       gradientTransform="matrix(0.83854167,0,0,0.83854167,8,16.919379)" />
    <radialGradient
       inkscape:collect="always"
       xlink:href="#linearGradient1367"
       id="radialGradient1361"
       cx="31.999998"
       cy="91.565224"
       fx="31.999998"
       fy="91.565224"
       r="12"
       gradientTransform="matrix(0.27951388,2.2779251e-8,-2.2345705e-8,0.27951452,32.597225,74.815151)"
       gradientUnits="userSpaceOnUse" />
    <radialGradient
       inkscape:collect="always"
       xlink:href="#linearGradient1367"
       id="radialGradient1371"
       gradientUnits="userSpaceOnUse"
       gradientTransform="matrix(0.27951388,2.2779251e-8,-2.2345705e-8,0.27951452,59.430559,68.106809)"
       cx="31.999998"
       cy="91.565224"
       fx="31.999998"
       fy="91.565224"
       r="12" />
    <radialGradient
       inkscape:collect="always"
       xlink:href="#linearGradient1367"
       id="radialGradient1375"
       gradientUnits="userSpaceOnUse"
       gradientTransform="matrix(0.27951388,2.2779251e-8,-2.2345705e-8,0.27951452,76.201392,51.335972)"
       cx="31.999998"
       cy="91.565224"
       fx="31.999998"
       fy="91.565224"
       r="12" />
    <radialGradient
       inkscape:collect="always"
       xlink:href="#linearGradient1367"
       id="radialGradient1379"
       gradientUnits="userSpaceOnUse"
       gradientTransform="matrix(0.27951388,2.2779251e-8,-2.2345705e-8,0.27951452,82.909726,27.856802)"
       cx="31.999998"
       cy="91.565224"
       fx="31.999998"
       fy="91.565224"
       r="12" />
    <radialGradient
       inkscape:collect="always"
       xlink:href="#linearGradient1367"
       id="radialGradient1383"
       gradientUnits="userSpaceOnUse"
       gradientTransform="matrix(0.27951388,2.2779251e-8,-2.2345705e-8,0.27951452,69.493059,4.3776352)"
       cx="31.999998"
       cy="91.565224"
       fx="31.999998"
       fy="91.565224"
       r="12" />
  </defs>
  <sodipodi:namedview
     pagecolor="#ffffff"
     bordercolor="#666666"
     borderopacity="1"
     objecttolerance="10"
     gridtolerance="10"
     guidetolerance="10"
     inkscape:pageopacity="0"
     inkscape:pageshadow="2"
     inkscape:window-width="640"
     inkscape:window-height="480"
     id="namedview4"
     showgrid="false"
     inkscape:snap-nodes="false"
     inkscape:snap-bbox="true"
     inkscape:bbox-nodes="true"
     inkscape:snap-page="false"
     inkscape:snap-grids="true"
     inkscape:zoom="1"
     inkscape:cx="63.564689"
     inkscape:cy="56.552367"
     inkscape:current-layer="g10">
    <inkscape:grid
       type="xygrid"
       id="grid837"
       spacingx="1"
       spacingy="1" />
  </sodipodi:namedview>
  <g
     inkscape:groupmode="layer"
     inkscape:label="Image"
     id="g10"
     transform="translate(0,-5.5652161)">
    <path
       style="fill:url(#linearGradient1231);fill-opacity:1;stroke:none;stroke-width:0.838542px;stroke-linecap:butt;stroke-linejoin:miter;stroke-opacity:1"
       d="m 78.4375,18.231878 c 16.770834,0 33.54167,16.770834 33.54167,40.25 0,36.895834 -26.833336,60.375012 -57.020836,60.375012 -16.770834,0 -36.895834,-10.0625 -36.895834,-30.187512 0,-20.125 23.479167,-16.770833 33.541667,-26.833333 C 59.430555,47.301323 58.3125,18.231878 78.4375,18.231878 Z"
       id="path839"
       sodipodi:nodetypes="cccccc" />
    <ellipse
       style="fill:url(#linearGradient1275);fill-opacity:1;fill-rule:evenodd;stroke-width:3.75008;stroke-linejoin:round;stroke-opacity:0.3;paint-order:markers fill stroke;stop-color:#000000"
       id="path841"
       cx="81.791664"
       cy="33.32563"
       rx="10.0625"
       ry="8.385417" />
    <ellipse
       style="fill:url(#linearGradient1249);fill-opacity:1;fill-rule:evenodd;stroke-width:3.75008;stroke-linejoin:round;stroke-opacity:0.3;paint-order:markers fill stroke;stop-color:#000000"
       id="path856"
       ry="8.385417"
       rx="10.0625"
       cy="56.804794"
       cx="95.208336" />
    <ellipse
       style="fill:url(#linearGradient1257);fill-opacity:1;fill-rule:evenodd;stroke-width:3.75008;stroke-linejoin:round;stroke-opacity:0.3;paint-order:markers fill stroke;stop-color:#000000"
       id="path858"
       cx="88.5"
       cy="80.283958"
       rx="10.0625"
       ry="8.385417" />
    <ellipse
       style="fill:url(#linearGradient1265);fill-opacity:1;fill-rule:evenodd;stroke-width:3.75008;stroke-linejoin:round;stroke-opacity:0.3;paint-order:markers fill stroke;stop-color:#000000"
       id="path860"
       cx="71.729164"
       cy="97.054794"
       rx="10.0625"
       ry="8.3854179" />
    <ellipse
       style="fill:url(#linearGradient1273);fill-opacity:1;fill-rule:evenodd;stroke-width:3.10535;stroke-linejoin:round;stroke-opacity:0.3;paint-order:markers fill stroke;stop-color:#000000"
       id="path862"
       cx="44.895832"
       cy="103.76314"
       rx="10.0625"
       ry="8.3854132" />
    <path
       id="path1406"
       style="fill:#000000;fill-opacity:0.2;fill-rule:evenodd;stroke-width:3.06192;stroke-linejoin:round;stroke-opacity:0.3;paint-order:markers fill stroke;stop-color:#000000"
       d="m 28.963542,40.033322 c -10.0625,0 -13.416667,3.354166 -13.416667,20.125 0,16.770833 3.354167,20.125 13.416667,20.125 h 30.1875 v -6.708333 h 16.770833 a 3.3541667,3.3541667 0 0 0 3.354167,-3.354167 3.3541667,3.3541667 0 0 0 -3.354167,-3.354167 H 59.151042 V 53.449988 h 16.770833 a 3.3541667,3.3541667 0 0 0 3.354167,-3.354166 3.3541667,3.3541667 0 0 0 -3.354167,-3.354167 H 59.151042 v -6.708333 z" />
    <path
       style="fill:url(#linearGradient1283);fill-opacity:1;stroke:none;stroke-width:0.838542px;stroke-linecap:butt;stroke-linejoin:miter;stroke-opacity:1"
       d="m 58.3125,38.356878 v 40.25 H 28.125 c -10.0625,0 -13.416667,-3.354166 -13.416667,-20.125 0,-16.770833 3.354167,-20.125 13.416667,-20.125 z"
       id="path864"
       sodipodi:nodetypes="cccccc" />
    <path
       id="rect866"
       style="fill:url(#linearGradient1340);fill-opacity:1;fill-rule:evenodd;stroke-width:3.06192;stroke-linejoin:round;stroke-opacity:0.3;paint-order:markers fill stroke;stop-color:#000000"
       d="m 58.3125,45.064572 v 6.708333 H 75.083334 A 3.3541667,3.3541667 0 0 0 78.4375,48.418738 3.3541667,3.3541667 0 0 0 75.083334,45.064572 Z" />
    <path
       id="rect868"
       style="fill:url(#linearGradient1332);fill-opacity:1;fill-rule:evenodd;stroke-width:3.06192;stroke-linejoin:round;stroke-opacity:0.3;paint-order:markers fill stroke;stop-color:#000000"
       d="m 58.3125,65.189572 v 6.708333 H 75.083334 A 3.3541667,3.3541667 0 0 0 78.4375,68.543739 3.3541667,3.3541667 0 0 0 75.083334,65.189572 Z" />
    <path
       id="path1285"
       style="fill:#ffffff;fill-opacity:1;fill-rule:evenodd;stroke:none;stroke-width:3.35417;stroke-linejoin:round;stroke-opacity:0.3;paint-order:markers fill stroke;stop-color:#000000"
       d="m 34.833333,40.360877 v 24.828695 h 4.723348 V 52.596707 l 9.587545,12.592865 h 6.154765 L 44.887644,51.91703 54.797832,40.360877 H 49.180257 L 39.556681,51.880998 V 40.360877 Z m -1.677083,5.131155 a 13.416667,13.416667 0 0 0 -4.186158,1.893269 L 27.615651,46.03086 c -0.328487,-0.328488 -0.857262,-0.328488 -1.185749,0 l -2.371501,2.371501 c -0.328489,0.328488 -0.328489,0.857262 0,1.18575 l 1.354441,1.354442 a 13.416667,13.416667 0 0 0 -2.081614,5.023061 h -1.914561 c -0.464552,0 -0.838542,0.373989 -0.838542,0.838541 v 3.354167 c 0,0.464552 0.37399,0.838542 0.838542,0.838542 h 1.914561 a 13.416667,13.416667 0 0 0 2.081614,5.024699 l -1.354441,1.354441 c -0.328489,0.328488 -0.328489,0.857261 0,1.185751 l 2.371501,2.371499 c 0.328487,0.328491 0.857262,0.328491 1.185749,0 l 1.354441,-1.354441 a 13.416667,13.416667 0 0 0 5.0247,2.081615 v 1.914561 c 0,0.464552 0.373989,0.838541 0.838541,0.838541 H 38.1875 c 0.464552,0 0.838542,-0.373989 0.838542,-0.838541 v -1.914561 a 13.416667,13.416667 0 0 0 5.024699,-2.081615 l 1.354441,1.354441 c 0.328488,0.328491 0.857262,0.328491 1.18575,0 l 2.371501,-2.371499 c 0.328488,-0.328489 0.328488,-0.857263 0,-1.185751 l -1.354441,-1.354441 a 13.416667,13.416667 0 0 0 0.522451,-0.831991 h -5.290019 a 9.2239584,9.2239584 0 0 1 -6.330007,2.515625 9.2239584,9.2239584 0 0 1 -9.223959,-9.223958 9.2239584,9.2239584 0 0 1 5.869792,-8.591777 z" />
    <g
       aria-label="K"
       id="text1316"
       style="font-weight:bold;font-size:42.6667px;line-height:0.75;font-family:'Liberation Sans';-inkscape-font-specification:'Liberation Sans Bold';fill:#fff6ff;fill-opacity:1;fill-rule:evenodd;stroke:none;stroke-width:4;stroke-linejoin:round;stroke-opacity:0.3;paint-order:markers fill stroke;stop-color:#000000"
       transform="matrix(0.83854167,0,0,0.83854167,8,13.565216)" />
    <path
       id="ellipse1342"
       style="fill:#000000;fill-opacity:0.1;fill-rule:evenodd;stroke-width:3.75008;stroke-linejoin:round;stroke-opacity:0.3;paint-order:markers fill stroke;stop-color:#000000"
       d="m 90.604544,29.278042 a 10.0625,8.3854167 0 0 1 0.411081,2.369863 10.0625,8.3854167 0 0 1 -10.0625,8.385417 10.0625,8.3854167 0 0 1 -8.812876,-4.338471 10.0625,8.3854167 0 0 0 9.651418,6.015554 10.0625,8.3854167 0 0 0 10.0625,-8.385417 10.0625,8.3854167 0 0 0 -1.249623,-4.046946 z" />
    <path
       id="path1351"
       style="fill:#000000;fill-opacity:0.1;fill-rule:evenodd;stroke-width:3.75008;stroke-linejoin:round;stroke-opacity:0.3;paint-order:markers fill stroke;stop-color:#000000"
       d="m 104.02121,52.757849 a 10.0625,8.3854167 0 0 1 0.41108,2.369863 10.0625,8.3854167 0 0 1 -10.062498,8.385416 10.0625,8.3854167 0 0 1 -8.812877,-4.33847 10.0625,8.3854167 0 0 0 9.651419,6.015554 10.0625,8.3854167 0 0 0 10.062496,-8.385417 10.0625,8.3854167 0 0 0 -1.24962,-4.046946 z" />
    <path
       id="path1353"
       style="fill:#000000;fill-opacity:0.1;fill-rule:evenodd;stroke-width:3.75008;stroke-linejoin:round;stroke-opacity:0.3;paint-order:markers fill stroke;stop-color:#000000"
       d="m 97.31288,76.237015 a 10.0625,8.3854167 0 0 1 0.411079,2.369863 10.0625,8.3854167 0 0 1 -10.0625,8.385417 10.0625,8.3854167 0 0 1 -8.812877,-4.33847 A 10.0625,8.3854167 0 0 0 88.5,88.669378 10.0625,8.3854167 0 0 0 98.5625,80.283962 10.0625,8.3854167 0 0 0 97.31288,76.237015 Z" />
    <path
       id="path1355"
       style="fill:#000000;fill-opacity:0.1;fill-rule:evenodd;stroke-width:3.75008;stroke-linejoin:round;stroke-opacity:0.3;paint-order:markers fill stroke;stop-color:#000000"
       d="m 80.542047,93.007849 a 10.0625,8.3854167 0 0 1 0.411078,2.369863 10.0625,8.3854167 0 0 1 -10.0625,8.385428 10.0625,8.3854167 0 0 1 -8.812876,-4.338485 10.0625,8.3854167 0 0 0 9.651418,6.015565 10.0625,8.3854167 0 0 0 10.0625,-8.385425 10.0625,8.3854167 0 0 0 -1.24962,-4.046946 z" />
    <path
       id="path1357"
       style="fill:#000000;fill-opacity:0.1;fill-rule:evenodd;stroke-width:3.75008;stroke-linejoin:round;stroke-opacity:0.3;paint-order:markers fill stroke;stop-color:#000000"
       d="m 53.708714,99.716182 a 10.0625,8.3854167 0 0 1 0.411078,2.369858 10.0625,8.3854167 0 0 1 -10.0625,8.38543 10.0625,8.3854167 0 0 1 -8.812877,-4.33848 10.0625,8.3854167 0 0 0 9.651418,6.01556 10.0625,8.3854167 0 0 0 10.062501,-8.38542 10.0625,8.3854167 0 0 0 -1.24962,-4.046948 z" />
    <ellipse
       style="fill:url(#radialGradient1361);fill-opacity:1;fill-rule:evenodd;stroke-width:3.10535;stroke-linejoin:round;stroke-opacity:0.3;paint-order:markers fill stroke;stop-color:#000000"
       id="ellipse1359"
       cx="44.895832"
       cy="103.76314"
       rx="10.0625"
       ry="8.3854132" />
    <ellipse
       style="fill:url(#radialGradient1371);fill-opacity:1;fill-rule:evenodd;stroke-width:3.10535;stroke-linejoin:round;stroke-opacity:0.3;paint-order:markers fill stroke;stop-color:#000000"
       id="ellipse1369"
       cx="71.729164"
       cy="97.054794"
       rx="10.0625"
       ry="8.3854132" />
    <ellipse
       style="fill:url(#radialGradient1375);fill-opacity:1;fill-rule:evenodd;stroke-width:3.10535;stroke-linejoin:round;stroke-opacity:0.3;paint-order:markers fill stroke;stop-color:#000000"
       id="ellipse1373"
       cx="88.5"
       cy="80.283958"
       rx="10.0625"
       ry="8.3854132" />
    <ellipse
       style="fill:url(#radialGradient1379);fill-opacity:1;fill-rule:evenodd;stroke-width:3.10535;stroke-linejoin:round;stroke-opacity:0.3;paint-order:markers fill stroke;stop-color:#000000"
       id="ellipse1377"
       cx="95.208336"
       cy="56.80479"
       rx="10.0625"
       ry="8.3854132" />
    <ellipse
       style="fill:url(#radialGradient1383);fill-opacity:1;fill-rule:evenodd;stroke-width:3.10535;stroke-linejoin:round;stroke-opacity:0.3;paint-order:markers fill stroke;stop-color:#000000"
       id="ellipse1381"
       cx="81.791664"
       cy="33.325626"
       rx="10.0625"
       ry="8.3854132" />
    <path
       id="path1391"
       style="fill:#000000;fill-opacity:0.15;stroke:none;stroke-width:0.838542px;stroke-linecap:butt;stroke-linejoin:miter;stroke-opacity:1"
       d="m 106.88896,37.394864 c 2.66966,5.64747 4.25167,12.210601 4.25167,19.409291 0,36.895834 -26.833338,60.375005 -57.020838,60.375005 -12.710677,0 -27.34019,-5.78553 -33.682516,-17.345699 5.797812,12.677219 21.210424,19.022779 34.521058,19.022779 30.1875,0 57.020836,-23.479168 57.020836,-60.375001 0,-7.923423 -1.91491,-15.077608 -5.09021,-21.086375 z" />
  </g>
</svg>
