<?xml version="1.0" encoding="UTF-8" standalone="no"?>
<svg
   xmlns:dc="http://purl.org/dc/elements/1.1/"
   xmlns:cc="http://creativecommons.org/ns#"
   xmlns:rdf="http://www.w3.org/1999/02/22-rdf-syntax-ns#"
   xmlns:svg="http://www.w3.org/2000/svg"
   xmlns="http://www.w3.org/2000/svg"
   xmlns:xlink="http://www.w3.org/1999/xlink"
   xmlns:sodipodi="http://sodipodi.sourceforge.net/DTD/sodipodi-0.dtd"
   xmlns:inkscape="http://www.inkscape.org/namespaces/inkscape"
   width="128"
   height="128"
   version="1.1"
   id="svg58"
   sodipodi:docname="kiriki.svg"
   inkscape:version="1.0.2 (e86c870879, 2021-01-15)">
  <metadata
     id="metadata62">
    <rdf:RDF>
      <cc:Work
         rdf:about="">
        <dc:format>image/svg+xml</dc:format>
        <dc:type
           rdf:resource="http://purl.org/dc/dcmitype/StillImage" />
        <dc:title></dc:title>
      </cc:Work>
    </rdf:RDF>
  </metadata>
  <sodipodi:namedview
     pagecolor="#ffffff"
     bordercolor="#666666"
     borderopacity="1"
     objecttolerance="10"
     gridtolerance="10"
     guidetolerance="10"
     inkscape:pageopacity="0"
     inkscape:pageshadow="2"
     inkscape:window-width="640"
     inkscape:window-height="480"
     id="namedview60"
     showgrid="false"
     inkscape:snap-nodes="true"
     inkscape:snap-bbox="true"
     inkscape:bbox-nodes="true"
     inkscape:zoom="1"
     inkscape:cx="103.23653"
     inkscape:cy="23.105167"
     inkscape:current-layer="svg58">
    <inkscape:grid
       type="xygrid"
       id="grid887"
       spacingx="1"
       spacingy="1" />
  </sodipodi:namedview>
  <defs
     id="defs32">
    <linearGradient
       id="linearGradient1196">
      <stop
         offset="0"
         style="stop-color:#000000;stop-opacity:0.15000001"
         id="stop1192" />
      <stop
         offset="1"
         style="stop-color:#ffffff;stop-opacity:0.2"
         id="stop1194" />
    </linearGradient>
    <linearGradient
       inkscape:collect="always"
       id="linearGradient1156">
      <stop
         style="stop-color:#bfbfbf;stop-opacity:1"
         offset="0"
         id="stop1152" />
      <stop
         style="stop-color:#ffffff;stop-opacity:1"
         offset="1"
         id="stop1154" />
    </linearGradient>
    <linearGradient
       id="linearGradient4167">
      <stop
         style="stop-color:#ffffff;stop-opacity:0"
         offset="0"
         id="stop2" />
      <stop
         style="stop-color:#ffffff;stop-opacity:1"
         offset="1"
         id="stop4" />
    </linearGradient>
    <linearGradient
       id="linearGradient4324">
      <stop
         style="stop-color:#eff1f1;stop-opacity:1"
         offset="0"
         id="stop7" />
      <stop
         style="stop-color:#ececec;stop-opacity:1;"
         offset="1"
         id="stop9" />
    </linearGradient>
    <linearGradient
       id="linearGradient4306">
      <stop
         offset="0"
         style="stop-color:#000000;stop-opacity:0;"
         id="stop12" />
      <stop
         offset="1"
         style="stop-color:#000000;stop-opacity:1;"
         id="stop14" />
    </linearGradient>
    <linearGradient
       id="linearGradient4266">
      <stop
         style="stop-color:#e22828;stop-opacity:1"
         offset="0"
         id="stop17" />
      <stop
         style="stop-color:#e05e4c;stop-opacity:1"
         offset="1"
         id="stop19" />
    </linearGradient>
    <linearGradient
       xlink:href="#linearGradient4266"
       id="linearGradient4272"
       x1="42.57143"
       y1="42.57143"
       x2="5.4285712"
       y2="5.4285712"
       gradientUnits="userSpaceOnUse" />
    <linearGradient
       xlink:href="#linearGradient4306"
       id="linearGradient4312"
       x1="-17"
       y1="12"
       x2="-7"
       y2="12"
       gradientUnits="userSpaceOnUse" />
    <radialGradient
       xlink:href="#linearGradient4324"
       id="radialGradient4340"
       cx="-12"
       cy="12"
       fx="-12"
       fy="12"
       r="4"
       gradientUnits="userSpaceOnUse" />
    <linearGradient
       xlink:href="#linearGradient4167"
       id="linearGradient4165"
       gradientUnits="userSpaceOnUse"
       x1="-17"
       y1="12"
       x2="-7"
       y2="12"
       gradientTransform="translate(24)" />
    <linearGradient
       xlink:href="#linearGradient4306"
       id="linearGradient4186"
       gradientUnits="userSpaceOnUse"
       x1="-17"
       y1="12"
       x2="-7"
       y2="12"
       gradientTransform="translate(-12,12)" />
    <radialGradient
       xlink:href="#linearGradient4324"
       id="radialGradient4188"
       gradientUnits="userSpaceOnUse"
       cx="-12"
       cy="12"
       fx="-12"
       fy="12"
       r="4"
       gradientTransform="translate(-12,12)" />
    <linearGradient
       xlink:href="#linearGradient4167"
       id="linearGradient4190"
       gradientUnits="userSpaceOnUse"
       gradientTransform="translate(36,12)"
       x1="-17"
       y1="12"
       x2="-7"
       y2="12" />
    <linearGradient
       xlink:href="#linearGradient4306"
       id="linearGradient4200"
       gradientUnits="userSpaceOnUse"
       x1="-17"
       y1="12"
       x2="-7"
       y2="12"
       gradientTransform="translate(-24,24)" />
    <radialGradient
       xlink:href="#linearGradient4324"
       id="radialGradient4202"
       gradientUnits="userSpaceOnUse"
       cx="-12"
       cy="12"
       fx="-12"
       fy="12"
       r="4"
       gradientTransform="translate(-24,24)" />
    <linearGradient
       xlink:href="#linearGradient4167"
       id="linearGradient4204"
       gradientUnits="userSpaceOnUse"
       gradientTransform="translate(48,24)"
       x1="-17"
       y1="12"
       x2="-7"
       y2="12" />
    <linearGradient
       inkscape:collect="always"
       xlink:href="#linearGradient1196"
       id="linearGradient984"
       x1="20"
       y1="20"
       x2="40"
       y2="40"
       gradientUnits="userSpaceOnUse" />
    <linearGradient
       inkscape:collect="always"
       xlink:href="#linearGradient1196"
       id="linearGradient988"
       gradientUnits="userSpaceOnUse"
       x1="20"
       y1="20"
       x2="40"
       y2="40"
       gradientTransform="translate(32,32)" />
    <linearGradient
       inkscape:collect="always"
       xlink:href="#linearGradient1196"
       id="linearGradient992"
       gradientUnits="userSpaceOnUse"
       gradientTransform="translate(68.000002,68)"
       x1="20"
       y1="20"
       x2="40"
       y2="40" />
    <linearGradient
       inkscape:collect="always"
       xlink:href="#linearGradient1156"
       id="linearGradient1158"
       x1="24"
       y1="24"
       x2="36"
       y2="36"
       gradientUnits="userSpaceOnUse" />
    <linearGradient
       inkscape:collect="always"
       xlink:href="#linearGradient1156"
       id="linearGradient1162"
       gradientUnits="userSpaceOnUse"
       x1="24"
       y1="24"
       x2="36"
       y2="36"
       gradientTransform="translate(32,32)" />
    <linearGradient
       inkscape:collect="always"
       xlink:href="#linearGradient1156"
       id="linearGradient1166"
       gradientUnits="userSpaceOnUse"
       gradientTransform="translate(68.000001,68)"
       x1="24"
       y1="24"
       x2="36"
       y2="36" />
  </defs>
  <g
     id="g56"
     transform="matrix(2.8,0,0,2.8,-3.1999999,-3.1999999)"
     style="opacity:1">
    <path
       id="rect34"
       style="opacity:1;fill:url(#linearGradient4272);fill-opacity:1;stroke:none;stroke-width:2;stroke-linecap:round;stroke-linejoin:round;stroke-miterlimit:4;stroke-dasharray:none;stroke-opacity:1"
       d="M 6.8571429,4 H 41.142857 C 42.725714,4 44,5.300225 44,6.9153028 V 41.084697 C 44,42.699775 42.725714,44 41.142857,44 H 6.8571429 C 5.2742857,44 4,42.699775 4,41.084697 V 6.9153028 C 4,5.300225 5.2742857,4 6.8571429,4 Z" />
    <path
       id="path1111"
       style="opacity:1;fill:#000000;fill-opacity:0.2;stroke:none;stroke-width:5.6;stroke-linecap:round;stroke-linejoin:round;stroke-miterlimit:4;stroke-dasharray:none;stroke-opacity:1"
       d="m 8,107.83789 v 4 C 8,116.36011 11.568,120 16,120 h 96 c 4.432,0 8,-3.63989 8,-8.16211 v -4 C 120,112.36011 116.432,116 112,116 H 16 c -4.432,0 -8,-3.63989 -8,-8.16211 z"
       transform="matrix(0.35714286,0,0,0.35714286,1.1428571,1.1428571)" />
  </g>
  <circle
     style="opacity:1;fill:url(#linearGradient1158);fill-opacity:1;fill-rule:evenodd;stroke:none;stroke-width:4;stroke-linejoin:round;paint-order:markers fill stroke;stop-color:#000000"
     id="path1150"
     cx="30"
     cy="30"
     r="10" />
  <path
     id="path973"
     style="fill:url(#linearGradient984);fill-opacity:1.0;fill-rule:evenodd;stroke:none;stroke-width:4;stroke-linejoin:round;paint-order:markers fill stroke;stop-color:#000000"
     d="M 30 16 A 14 14 0 0 0 16 30 A 14 14 0 0 0 30 44 A 14 14 0 0 0 44 30 A 14 14 0 0 0 30 16 z M 29.980469 20 A 10 10 0 0 1 30 20 A 10 10 0 0 1 40 30 A 10 10 0 0 1 30 40 A 10 10 0 0 1 20 30 A 10 10 0 0 1 29.980469 20 z " />
  <circle
     style="opacity:1;fill:url(#linearGradient1162);fill-opacity:1;fill-rule:evenodd;stroke:none;stroke-width:4;stroke-linejoin:round;paint-order:markers fill stroke;stop-color:#000000"
     id="circle1160"
     cx="62"
     cy="62"
     r="10" />
  <path
     id="path986"
     style="fill:url(#linearGradient988);fill-opacity:1.0;fill-rule:evenodd;stroke:none;stroke-width:4;stroke-linejoin:round;paint-order:markers fill stroke;stop-color:#000000"
     d="M 62,48 A 14,14 0 0 0 48,62 14,14 0 0 0 62,76 14,14 0 0 0 76,62 14,14 0 0 0 62,48 Z m -0.01953,4 A 10,10 0 0 1 62,52 10,10 0 0 1 72,62 10,10 0 0 1 62,72 10,10 0 0 1 52,62 10,10 0 0 1 61.98047,52 Z" />
  <circle
     style="opacity:1;fill:url(#linearGradient1166);fill-opacity:1;fill-rule:evenodd;stroke:none;stroke-width:4;stroke-linejoin:round;paint-order:markers fill stroke;stop-color:#000000"
     id="circle1164"
     cx="98"
     cy="98"
     r="10" />
  <path
     id="path990"
     style="fill:url(#linearGradient992);fill-opacity:1.0;fill-rule:evenodd;stroke:none;stroke-width:4;stroke-linejoin:round;paint-order:markers fill stroke;stop-color:#000000"
     d="m 98.000002,84 a 14,14 0 0 0 -14,14 14,14 0 0 0 14,14 A 14,14 0 0 0 112,98 14,14 0 0 0 98.000002,84 Z m -0.01953,4 a 10,10 0 0 1 0.01953,0 A 10,10 0 0 1 108,98 a 10,10 0 0 1 -9.999998,10 10,10 0 0 1 -10,-10 10,10 0 0 1 9.98047,-10 z" />
</svg>
