<?xml version="1.0" encoding="UTF-8" standalone="no"?>
<svg
   xmlns:dc="http://purl.org/dc/elements/1.1/"
   xmlns:cc="http://creativecommons.org/ns#"
   xmlns:rdf="http://www.w3.org/1999/02/22-rdf-syntax-ns#"
   xmlns:svg="http://www.w3.org/2000/svg"
   xmlns="http://www.w3.org/2000/svg"
   xmlns:xlink="http://www.w3.org/1999/xlink"
   xmlns:sodipodi="http://sodipodi.sourceforge.net/DTD/sodipodi-0.dtd"
   xmlns:inkscape="http://www.inkscape.org/namespaces/inkscape"
   inkscape:export-ydpi="115.2"
   inkscape:export-xdpi="115.2"
   inkscape:export-filename="/home/it-s/hi128-app-kmahjongg.png"
   inkscape:output_extension="org.inkscape.output.svgz.inkscape"
   sodipodi:docname="kmahjongg.svg"
   version="1.0"
   inkscape:version="1.0 (4035a4fb49, 2020-05-01)"
   sodipodi:version="0.32"
   id="svg2"
   height="128"
   width="128">
  <defs
     id="defs4">
    <linearGradient
       id="linearGradient1382"
       inkscape:collect="always">
      <stop
         id="stop1378"
         offset="0"
         style="stop-color:#ffffff;stop-opacity:0.25" />
      <stop
         id="stop1380"
         offset="1"
         style="stop-color:#ffffff;stop-opacity:0;" />
    </linearGradient>
    <linearGradient
       id="linearGradient1337">
      <stop
         style="stop-color:#600b01;stop-opacity:0.25"
         offset="0"
         id="stop1323" />
      <stop
         id="stop1325"
         offset="0.05720339"
         style="stop-color:#9f1701;stop-opacity:0.25" />
      <stop
         style="stop-color:#6d0d00;stop-opacity:0.25"
         offset="0.43245476"
         id="stop1327" />
      <stop
         id="stop1329"
         offset="0.5"
         style="stop-color:#9f1701;stop-opacity:0.25" />
      <stop
         style="stop-color:#6d0d00;stop-opacity:0.25193799"
         offset="0.61419129"
         id="stop1331" />
      <stop
         id="stop1333"
         offset="0.94915253"
         style="stop-color:#540800;stop-opacity:0.25" />
      <stop
         style="stop-color:#3b0300;stop-opacity:0.25"
         offset="1"
         id="stop1335" />
    </linearGradient>
    <linearGradient
       id="linearGradient1302"
       inkscape:collect="always">
      <stop
         id="stop1298"
         offset="0"
         style="stop-color:#9d1701;stop-opacity:1" />
      <stop
         id="stop1300"
         offset="1"
         style="stop-color:#5a0900;stop-opacity:1" />
    </linearGradient>
    <linearGradient
       id="linearGradient20837"
       inkscape:collect="always">
      <stop
         id="stop20839"
         offset="0"
         style="stop-color:#ffffff;stop-opacity:1;" />
      <stop
         style="stop-color:#ffffff;stop-opacity:0.9004329"
         offset="0.20930226"
         id="stop20847" />
      <stop
         style="stop-color:#ff0942;stop-opacity:0"
         offset="0.53488368"
         id="stop20845" />
      <stop
         id="stop20841"
         offset="1"
         style="stop-color:#ffffff;stop-opacity:0;" />
    </linearGradient>
    <inkscape:perspective
       id="perspective15896"
       inkscape:persp3d-origin="50 : 33.333333 : 1"
       inkscape:vp_z="100 : 50 : 1"
       inkscape:vp_y="0 : 1000 : 0"
       inkscape:vp_x="0 : 50 : 1"
       sodipodi:type="inkscape:persp3d" />
    <linearGradient
       inkscape:collect="always"
       id="linearGradient3596">
      <stop
         style="stop-color:#9f1701;stop-opacity:1"
         offset="0"
         id="stop3598" />
      <stop
         style="stop-color:#9f1701;stop-opacity:0"
         offset="1"
         id="stop3600" />
    </linearGradient>
    <linearGradient
       id="linearGradient3486"
       inkscape:collect="always">
      <stop
         id="stop3488"
         offset="0"
         style="stop-color:#0c0000;stop-opacity:1" />
      <stop
         id="stop3490"
         offset="1"
         style="stop-color:#3b0300;stop-opacity:0;" />
    </linearGradient>
    <linearGradient
       id="linearGradient3464"
       inkscape:collect="always">
      <stop
         id="stop3466"
         offset="0"
         style="stop-color:#600b01;stop-opacity:1;" />
      <stop
         id="stop3468"
         offset="1"
         style="stop-color:#600b01;stop-opacity:0;" />
    </linearGradient>
    <linearGradient
       id="linearGradient3331">
      <stop
         id="stop3333"
         offset="0"
         style="stop-color:#ffebf2;stop-opacity:1;" />
      <stop
         id="stop3335"
         offset="1"
         style="stop-color:#fe005d;stop-opacity:0;" />
    </linearGradient>
    <linearGradient
       id="linearGradient3312"
       inkscape:collect="always">
      <stop
         id="stop3314"
         offset="0"
         style="stop-color:#795a5a;stop-opacity:1;" />
      <stop
         id="stop3316"
         offset="1"
         style="stop-color:#795a5a;stop-opacity:0;" />
    </linearGradient>
    <linearGradient
       id="linearGradient3286">
      <stop
         id="stop3288"
         offset="0"
         style="stop-color:#600b01;stop-opacity:1;" />
      <stop
         style="stop-color:#9f1701;stop-opacity:1;"
         offset="0.05720339"
         id="stop3296" />
      <stop
         id="stop3298"
         offset="0.43245476"
         style="stop-color:#6d0d00;stop-opacity:1;" />
      <stop
         style="stop-color:#9f1701;stop-opacity:1;"
         offset="0.5"
         id="stop3294" />
      <stop
         id="stop3300"
         offset="0.61419129"
         style="stop-color:#6d0d00;stop-opacity:1;" />
      <stop
         style="stop-color:#540800;stop-opacity:1;"
         offset="0.94915253"
         id="stop3302" />
      <stop
         id="stop3290"
         offset="1"
         style="stop-color:#3b0300;stop-opacity:1" />
    </linearGradient>
    <linearGradient
       y2="90.266426"
       x2="21.69101"
       y1="8.8552914"
       x1="53.26244"
       gradientTransform="translate(-12,-6)"
       gradientUnits="userSpaceOnUse"
       id="linearGradient3415"
       xlink:href="#linearGradient3286"
       inkscape:collect="always" />
    <radialGradient
       r="35"
       fy="18.759262"
       fx="24.648008"
       cy="18.759262"
       cx="24.648008"
       gradientTransform="matrix(0.01114388,0.9999379,-1.7243426,0.01921706,44.720729,-18.022868)"
       gradientUnits="userSpaceOnUse"
       id="radialGradient3417"
       xlink:href="#linearGradient3312"
       inkscape:collect="always" />
    <radialGradient
       r="29.265625"
       fy="20.236214"
       fx="19.309795"
       cy="20.236214"
       cx="19.309795"
       gradientTransform="matrix(0.03288813,0.999459,-1.9517213,0.06422321,46.170182,-14.296561)"
       gradientUnits="userSpaceOnUse"
       id="radialGradient3419"
       xlink:href="#linearGradient3331"
       inkscape:collect="always" />
    <linearGradient
       y2="15.086097"
       x2="25.351994"
       y1="11.478929"
       x1="23.824764"
       gradientUnits="userSpaceOnUse"
       id="linearGradient3421"
       xlink:href="#linearGradient3331"
       inkscape:collect="always" />
    <linearGradient
       y2="15.086097"
       x2="25.351994"
       y1="11.478929"
       x1="23.824764"
       gradientUnits="userSpaceOnUse"
       id="linearGradient3425"
       xlink:href="#linearGradient3331"
       inkscape:collect="always" />
    <linearGradient
       y2="15.086097"
       x2="25.351994"
       y1="11.478929"
       x1="23.824764"
       gradientUnits="userSpaceOnUse"
       id="linearGradient3427"
       xlink:href="#linearGradient3331"
       inkscape:collect="always" />
    <linearGradient
       y2="96.220436"
       x2="43.563725"
       y1="16.027075"
       x1="78.849602"
       gradientUnits="userSpaceOnUse"
       id="linearGradient3440"
       xlink:href="#linearGradient3286"
       inkscape:collect="always" />
    <linearGradient
       gradientUnits="userSpaceOnUse"
       y2="38.874859"
       x2="28.61768"
       y1="87.774971"
       x1="76.406433"
       id="linearGradient3452"
       xlink:href="#linearGradient3464"
       inkscape:collect="always" />
    <linearGradient
       spreadMethod="reflect"
       gradientUnits="userSpaceOnUse"
       y2="41.931114"
       x2="72.238808"
       y1="41.931114"
       x1="70.849594"
       id="linearGradient3470"
       xlink:href="#linearGradient3464"
       inkscape:collect="always" />
    <linearGradient
       gradientTransform="translate(-154.45694,0.856484)"
       y2="41.931114"
       x2="72.238808"
       y1="41.931114"
       x1="70.849594"
       spreadMethod="reflect"
       gradientUnits="userSpaceOnUse"
       id="linearGradient3476"
       xlink:href="#linearGradient3464"
       inkscape:collect="always" />
    <radialGradient
       r="41.786453"
       fy="106.87013"
       fx="208.50966"
       cy="106.87013"
       cx="208.50966"
       gradientTransform="matrix(0,0.3683372,-1.4362017,0,182.04734,15.25095)"
       gradientUnits="userSpaceOnUse"
       id="radialGradient3496"
       xlink:href="#linearGradient3486"
       inkscape:collect="always" />
    <linearGradient
       gradientUnits="userSpaceOnUse"
       y2="46.033966"
       x2="69.402992"
       y1="44.366917"
       x1="83.572906"
       id="linearGradient3498"
       xlink:href="#linearGradient3486"
       inkscape:collect="always" />
    <radialGradient
       gradientUnits="userSpaceOnUse"
       gradientTransform="matrix(0.7531466,0.3270109,-0.6398814,1.4737263,57.644341,-47.559567)"
       r="32.273457"
       fy="56.654064"
       fx="62.57476"
       cy="56.654064"
       cx="62.57476"
       id="radialGradient3561"
       xlink:href="#linearGradient3464"
       inkscape:collect="always" />
    <radialGradient
       gradientUnits="userSpaceOnUse"
       gradientTransform="matrix(0.2697932,-0.3717979,0.2784105,0.2020311,35.371405,94.839033)"
       r="41.786453"
       fy="88.997154"
       fx="71.397865"
       cy="88.997154"
       cx="71.397865"
       id="radialGradient3588"
       xlink:href="#linearGradient3596"
       inkscape:collect="always" />
    <radialGradient
       gradientUnits="userSpaceOnUse"
       gradientTransform="matrix(1,0,0,0.6151203,0,33.406357)"
       r="4.546875"
       fy="86.796875"
       fx="76.546875"
       cy="86.796875"
       cx="76.546875"
       id="radialGradient3622"
       xlink:href="#linearGradient3486"
       inkscape:collect="always" />
    <radialGradient
       gradientUnits="userSpaceOnUse"
       gradientTransform="matrix(2.372004,1.4291419e-7,-1.584155e-7,2.6135768,-119.59982,-129.12448)"
       r="35.224953"
       fy="84.320442"
       fx="87.171638"
       cy="84.320442"
       cx="87.171638"
       id="radialGradient3642"
       xlink:href="#linearGradient3596"
       inkscape:collect="always" />
    <radialGradient
       gradientUnits="userSpaceOnUse"
       gradientTransform="matrix(1,0,0,0.8807339,0,9.9715183)"
       r="15.142365"
       fy="94.333191"
       fx="83.769226"
       cy="83.607346"
       cx="79.879448"
       id="radialGradient3723"
       xlink:href="#linearGradient3596"
       inkscape:collect="always" />
    <radialGradient
       r="29.265625"
       fy="20.236214"
       fx="19.309795"
       cy="20.236214"
       cx="19.309795"
       gradientTransform="matrix(0,2.1008005,-1.7609368,0,52.830344,-30.654682)"
       gradientUnits="userSpaceOnUse"
       id="radialGradient16833"
       xlink:href="#linearGradient3331"
       inkscape:collect="always" />
    <radialGradient
       r="35"
       fy="-8.9043465"
       fx="85.843369"
       cy="-8.9043465"
       cx="85.843369"
       gradientTransform="matrix(0.0092187,0.901704,-1.4264506,0.01732918,50.984842,-12.024229)"
       gradientUnits="userSpaceOnUse"
       id="radialGradient16836"
       xlink:href="#linearGradient3286"
       inkscape:collect="always" />
    <radialGradient
       gradientUnits="userSpaceOnUse"
       gradientTransform="matrix(1,0,0,0.618034,0,4.409776)"
       r="12.304717"
       fy="11.544944"
       fx="25.112688"
       cy="11.544944"
       cx="25.112688"
       id="radialGradient20843"
       xlink:href="#linearGradient20837"
       inkscape:collect="always" />
    <linearGradient
       gradientUnits="userSpaceOnUse"
       y2="88"
       x2="104"
       y1="-12"
       x1="28"
       id="linearGradient1304"
       xlink:href="#linearGradient1302"
       inkscape:collect="always" />
    <linearGradient
       y2="88"
       x2="104"
       y1="-12"
       x1="28"
       gradientUnits="userSpaceOnUse"
       id="linearGradient1321"
       xlink:href="#linearGradient1337"
       inkscape:collect="always" />
    <linearGradient
       gradientUnits="userSpaceOnUse"
       y2="96"
       x2="72"
       y1="8"
       x1="72"
       id="linearGradient1384"
       xlink:href="#linearGradient1382"
       inkscape:collect="always" />
  </defs>
  <sodipodi:namedview
     inkscape:bbox-nodes="true"
     inkscape:snap-bbox="true"
     inkscape:snap-nodes="true"
     inkscape:document-rotation="0"
     showgrid="false"
     inkscape:guide-bbox="true"
     showguides="true"
     inkscape:window-y="0"
     inkscape:window-x="0"
     inkscape:window-height="741"
     inkscape:window-width="1270"
     height="100px"
     width="100px"
     inkscape:current-layer="layer1"
     inkscape:document-units="px"
     inkscape:cy="64"
     inkscape:cx="64"
     inkscape:zoom="1"
     inkscape:pageshadow="2"
     inkscape:pageopacity="0.0"
     objecttolerance="10"
     guidetolerance="10"
     gridtolerance="10000"
     borderopacity="1.0"
     bordercolor="#666666"
     pagecolor="#ffffff"
     id="base">
    <inkscape:grid
       id="grid938"
       type="xygrid" />
  </sodipodi:namedview>
  <metadata
     id="metadata7">
    <rdf:RDF>
      <cc:Work
         rdf:about="">
        <dc:format>image/svg+xml</dc:format>
        <dc:type
           rdf:resource="http://purl.org/dc/dcmitype/StillImage" />
        <dc:title></dc:title>
      </cc:Work>
    </rdf:RDF>
  </metadata>
  <g
     transform="translate(0,28)"
     id="layer1"
     inkscape:groupmode="layer"
     inkscape:label="Layer 1">
    <rect
       rx="1.5225e-13"
       y="-20"
       x="20"
       height="112"
       width="88"
       id="rect1191"
       style="opacity:0.99;fill:url(#linearGradient1304);fill-opacity:1;fill-rule:evenodd;stroke-width:1.9011;stroke-linecap:square;stroke-linejoin:round;stroke-opacity:0.350195;paint-order:markers fill stroke;stop-color:#000000" />
    <rect
       style="opacity:0.99;fill:url(#linearGradient1321);fill-opacity:1;fill-rule:evenodd;stroke-width:1.9011;stroke-linecap:square;stroke-linejoin:round;stroke-opacity:0.350195;paint-order:markers fill stroke;stop-color:#000000"
       id="rect1319"
       width="88"
       height="112"
       x="20"
       y="-20"
       rx="1.5225e-13" />
    <path
       id="path3359"
       d="m 108,38.922068 c -0.5157,1.995052 -1.02902,4.165582 -1.31574,5.840728 -0.68813,4.020347 -1.71819,10.043301 -9.287603,14.73371 -7.569411,4.690406 -69.853992,8.729919 -73.294634,7.724834 -3.440642,-1.005087 -2.067894,-7.049286 -3.444151,-13.414835 L 20,51.131074 V 92 h 88 z"
       style="mix-blend-mode:normal;fill:url(#linearGradient1384);fill-opacity:1;fill-rule:evenodd;stroke:none;stroke-width:1.49111px;stroke-linecap:butt;stroke-linejoin:miter;stroke-opacity:1"
       sodipodi:nodetypes="csssccccc" />
    <g
       style="display:inline;fill:#44000d;fill-opacity:1;stroke:#53000b;stroke-width:2.48693;stroke-linecap:round;stroke-linejoin:round;stroke-miterlimit:4;stroke-dasharray:none;stroke-opacity:1"
       id="g18331"
       transform="matrix(1.1833112,0,0,1.1833112,-199.04937,-658.13285)"
       inkscape:label="#g14211">
      <use
         height="1060"
         width="774"
         id="use18335"
         transform="translate(172.25,424.5)"
         xlink:href="#facesize"
         inkscape:tiled-clone-of="#facesize"
         y="0"
         x="0"
         style="display:inline;fill:#44000d;fill-opacity:1;stroke:#53000b;stroke-width:2.48693;stroke-linecap:round;stroke-linejoin:round;stroke-miterlimit:4;stroke-dasharray:none;stroke-opacity:1" />
    </g>
    <path
       sodipodi:nodetypes="ccccccccccccccccccccccccccccccccccccc"
       id="path1317"
       d="m 62.610316,20.230803 c -6.006322,1.105946 -11.995321,2.322213 -18.042538,3.189391 -1.456727,-0.741286 -1.527252,-3.556868 -3.563269,-3.052943 -1.740048,0.713797 -3.499265,1.380486 -5.247193,2.0749 2.848727,2.468944 4.141743,5.987567 5.594222,9.342219 2.507768,4.972652 4.729802,10.091952 6.229353,15.459641 1.260202,3.920819 7.229676,1.853976 4.592939,-1.986886 -0.853936,-1.074127 2.044774,-0.472757 2.751364,-0.863439 2.300109,-0.312938 4.614796,-0.485429 6.926276,-0.688912 -0.215588,11.597409 -1.073228,22.832511 -0.555399,33.610571 0.116674,1.283514 0.182893,2.758073 1.314245,3.599017 2.914294,-1.168579 3.270281,-4.806255 3.714768,-7.568553 0.756468,-10.257663 0.699112,-19.643333 0.922273,-30.321462 7.106435,-0.766928 14.247268,-1.264297 21.330711,-2.211337 1.948204,-0.590898 2.661953,-3.534136 0.22787,-4.029233 -2.382242,-0.08685 0.385121,-2.107158 0.786133,-3.248024 1.752295,-2.45517 3.267477,-5.125856 5.167709,-7.446554 1.52336,-1.353873 4.275918,-2.570187 2.713128,-5.050384 -1.461196,-2.190415 -3.99405,-3.332784 -5.944017,-5.060537 -2.822067,-3.138792 -6.32339,-0.576592 -9.077393,1.030191 -4.652295,1.33726 -9.483245,1.719694 -14.276662,2.24428 0.0981,-5.037616 0.634847,-10.0604998 0.782465,-15.099382 0.571255,-1.4920726 2.827723,-3.65413594 0.140909,-4.62635627 -2.584825,-1.72246333 -5.671102,-2.53621463 -8.684061,-2.73430093 -3.012959,-0.1980863 -0.524136,2.0978688 1.08925,6.0162026 1.613386,3.9183339 1.313404,10.9194066 1.106917,17.4218906 z m 23.311952,1.956179 c 0.557766,3.015349 -0.438488,6.380059 -1.193003,9.385338 -0.901836,2.245108 -0.957464,5.830601 -4.105581,5.493475 -4.396533,0.810568 -8.859912,1.147138 -13.291945,1.706027 0.281048,-4.989633 0.562085,-9.979277 0.843121,-14.96891 5.912663,-0.602519 11.787377,-1.687828 17.747408,-1.61593 z m -23.607047,2.508975 -0.463727,14.628744 -11.550538,1.36076 c -1.475435,-4.578538 -2.95087,-9.157077 -4.426294,-13.735628 5.480187,-0.751284 10.960373,-1.50258 16.440559,-2.253876 z"
       style="fill:#000000;fill-opacity:0.2;stroke-width:1.18331" />
    <path
       style="fill:#f4f4f4;fill-opacity:1;stroke-width:1.18331"
       d="M 59.762707,17.383195 C 53.756385,18.489141 47.767386,19.705408 41.720169,20.572586 40.263442,19.8313 40.192917,17.015718 38.1569,17.519643 c -1.740048,0.713797 -3.499265,1.380486 -5.247193,2.0749 2.848727,2.468944 4.141743,5.987567 5.594222,9.342219 2.507768,4.972652 4.729802,10.091952 6.229353,15.459641 1.260203,3.920819 7.229676,1.853977 4.592939,-1.986886 -0.853936,-1.074127 2.044774,-0.472756 2.751365,-0.863438 2.300108,-0.312939 4.614795,-0.48543 6.926275,-0.688912 -0.215587,11.597408 -1.073228,22.83251 -0.555399,33.61057 0.116675,1.283514 0.182893,2.758073 1.314245,3.599017 2.914294,-1.168579 3.270281,-4.806255 3.714768,-7.568553 0.756468,-10.257663 0.699113,-19.643333 0.922273,-30.321462 7.106435,-0.766928 14.247268,-1.264297 21.330711,-2.211337 1.948204,-0.590898 2.661953,-3.534136 0.22787,-4.029233 -2.382242,-0.08685 0.385121,-2.107158 0.786133,-3.248024 1.752295,-2.455169 3.267477,-5.125856 5.167709,-7.446554 1.52336,-1.353873 4.275919,-2.570187 2.713132,-5.050384 -1.4612,-2.190415 -3.994054,-3.332784 -5.944021,-5.060536 -2.822067,-3.1387931 -6.32339,-0.576593 -9.077393,1.03019 -4.652294,1.33726 -9.483245,1.719695 -14.276661,2.24428 0.0981,-5.037616 0.634846,-10.0605004 0.782464,-15.0993826 0.571255,-1.49207262 2.827723,-3.654136 0.140909,-4.6263563 -2.584825,-1.7224633 -5.671102,-2.5362146 -8.684061,-2.7343009 -3.012959,-0.1980863 -0.524136,2.0978688 1.08925,6.01620266 1.613386,3.91833384 1.313404,10.91940714 1.106917,17.42189114 z m 23.311952,1.956179 c 0.557766,3.015349 -0.438488,6.380059 -1.193002,9.385338 -0.901837,2.245109 -0.957465,5.830601 -4.105581,5.493475 -4.396534,0.810568 -8.859913,1.147138 -13.291946,1.706027 0.281048,-4.989633 0.562085,-9.979277 0.843121,-14.96891 5.912663,-0.602518 11.787377,-1.687828 17.747408,-1.61593 z m -23.607047,2.508975 -0.463727,14.628744 -11.550538,1.36076 c -1.475435,-4.578538 -2.95087,-9.157077 -4.426293,-13.735628 5.480186,-0.751284 10.960372,-1.50258 16.440558,-2.253876 z"
       id="path2463"
       sodipodi:nodetypes="ccccccccccccccccccccccccccccccccccccc" />
    <use
       height="1060"
       width="774"
       id="use8916"
       transform="matrix(1.1833112,0,0,1.1833112,7.1317242,-154.24676)"
       xlink:href="#facesize"
       inkscape:tiled-clone-of="#facesize"
       y="0"
       x="0"
       style="display:inline;fill:#eeeeec;fill-opacity:1" />
    <use
       style="display:inline;fill:#eeeeec;fill-opacity:1"
       x="0"
       y="0"
       inkscape:tiled-clone-of="#facesize"
       xlink:href="#facesize"
       transform="matrix(0.8042047,0,0,0.8042047,6.1217796,-84.552005)"
       id="use20745"
       width="774"
       height="1060" />
    <use
       height="1060"
       width="774"
       id="use20751"
       transform="matrix(0.8042047,0,0,0.8042047,6.6554496,-83.484665)"
       xlink:href="#facesize"
       inkscape:tiled-clone-of="#facesize"
       y="0"
       x="0"
       style="display:inline;fill:#eeeeec;fill-opacity:1" />
  </g>
</svg>
