<?xml version="1.0" encoding="UTF-8" standalone="no"?>
<svg
   xmlns:dc="http://purl.org/dc/elements/1.1/"
   xmlns:cc="http://creativecommons.org/ns#"
   xmlns:rdf="http://www.w3.org/1999/02/22-rdf-syntax-ns#"
   xmlns:svg="http://www.w3.org/2000/svg"
   xmlns="http://www.w3.org/2000/svg"
   xmlns:sodipodi="http://sodipodi.sourceforge.net/DTD/sodipodi-0.dtd"
   xmlns:inkscape="http://www.inkscape.org/namespaces/inkscape"
   inkscape:version="1.0 (4035a4fb49, 2020-05-01)"
   sodipodi:docname="kopete.svg"
   id="svg29"
   version="1.1"
   height="128"
   width="128">
  <metadata
     id="metadata33">
    <rdf:RDF>
      <cc:Work
         rdf:about="">
        <dc:format>image/svg+xml</dc:format>
        <dc:type
           rdf:resource="http://purl.org/dc/dcmitype/StillImage" />
        <dc:title />
      </cc:Work>
    </rdf:RDF>
  </metadata>
  <sodipodi:namedview
     inkscape:current-layer="svg29"
     inkscape:cy="64"
     inkscape:cx="64"
     inkscape:zoom="5.6796875"
     inkscape:snap-nodes="true"
     inkscape:bbox-nodes="true"
     inkscape:snap-bbox="true"
     showgrid="true"
     id="namedview31"
     inkscape:window-height="480"
     inkscape:window-width="640"
     inkscape:pageshadow="2"
     inkscape:pageopacity="0"
     guidetolerance="10"
     gridtolerance="10"
     objecttolerance="10"
     borderopacity="1"
     bordercolor="#666666"
     pagecolor="#ffffff"
     inkscape:document-rotation="0">
    <inkscape:grid
       id="grid858"
       type="xygrid" />
  </sodipodi:namedview>
  <defs
     id="defs17">
    <linearGradient
       x1="-0.29234725"
       gradientTransform="matrix(-1,0,0,1,432.57,499.8)"
       x2="-0.29234725"
       gradientUnits="userSpaceOnUse"
       y2="4.0000334"
       y1="44.000019"
       id="b">
      <stop
         style="stop-color:#66d4ff;stop-opacity:1"
         id="stop7"
         stop-color="#2f74c8" />
      <stop
         style="stop-color:#355d84;stop-opacity:1"
         id="stop9"
         stop-color="#4699d7"
         offset="1" />
    </linearGradient>
  </defs>
  <path
     style="fill:#808080;stroke:none;stroke-width:1px;stroke-linecap:butt;stroke-linejoin:miter;stroke-opacity:1;fill-opacity:1"
     d="M 32,124 60,96 40,92 Z"
     id="path856" />
  <ellipse
     ry="46"
     rx="56"
     cy="54"
     cx="64"
     id="path868"
     style="fill:#808080;fill-opacity:1;fill-rule:evenodd;stroke-width:4;stroke-linecap:square;stroke-linejoin:bevel;paint-order:markers fill stroke;stop-color:#000000" />
  <path
     id="ellipse869"
     style="opacity:1;fill:#000000;fill-opacity:0.2;fill-rule:evenodd;stroke:none;stroke-width:4.0899;stroke-linecap:square;stroke-linejoin:bevel;paint-order:markers fill stroke;stop-color:#000000"
     d="M 106.24805 23.806641 A 56 46 0 0 1 118 52 A 56 46 0 0 1 62 98 A 56 46 0 0 1 19.751953 82.193359 A 56 46 0 0 0 64 100 A 56 46 0 0 0 120 54 A 56 46 0 0 0 106.24805 23.806641 z " />
  <path
     id="ellipse880"
     style="opacity:1;fill:#ffffff;fill-opacity:0.19844359;fill-rule:evenodd;stroke:none;stroke-width:4.0899;stroke-linecap:square;stroke-linejoin:bevel;paint-order:markers fill stroke;stop-color:#000000"
     d="M 64 8 A 56 46 0 0 0 8 54 A 56 46 0 0 0 21.751953 84.193359 A 56 46 0 0 1 10 56 A 56 46 0 0 1 66 10 A 56 46 0 0 1 108.24805 25.806641 A 56 46 0 0 0 64 8 z " />
  <g
     aria-label=";-)"
     transform="scale(1.00189,0.99811356)"
     id="text917"
     style="font-weight:bold;font-size:51.5638px;line-height:0.75;font-family:Arial;-inkscape-font-specification:'Arial Bold';opacity:1;fill:#000000;fill-opacity:0.2;fill-rule:evenodd;stroke:none;stroke-width:3.86729;stroke-linecap:square;stroke-linejoin:bevel;paint-order:markers fill stroke;stop-color:#000000">
    <path
       d="m 44.84712,52.011953 q -2.114922,0 -3.565155,-1.450232 -1.42002,-1.450233 -1.42002,-3.565156 0,-2.114923 1.389807,-3.565155 1.420019,-1.450233 3.595368,-1.450233 2.145136,0 3.565156,1.480446 1.450233,1.450232 1.450233,3.534942 0,2.08471 -1.450233,3.565156 -1.450233,1.450232 -3.565156,1.450232 z m 5.40816,15.771282 q 0,4.713256 -3.142171,7.946067 -3.142171,3.23281 -9.184807,4.834109 v -2.779613 q 1.90343,-0.57405 3.263023,-1.510659 1.389807,-0.936608 2.114923,-2.084709 0.75533,-1.148101 0.75533,-2.145136 0,-0.66469 -0.483411,-1.148101 -0.483411,-0.513624 -1.843004,-1.238741 -2.326415,-1.208527 -2.326415,-3.746434 0,-1.812791 1.299166,-2.900466 1.32938,-1.117888 3.595369,-1.117888 2.507694,0 4.229846,1.661725 1.722151,1.631512 1.722151,4.229846 z"
       style="font-style:normal;font-variant:normal;font-weight:bold;font-stretch:normal;font-size:61.8766px;font-family:'Liberation Serif';-inkscape-font-specification:'Liberation Serif Bold';fill:#000000;fill-opacity:0.2;stroke-width:3.86729"
       id="path919" />
    <path
       d="m 57.597083,59.051625 v -5.257094 h 16.073414 v 5.257094 z"
       style="font-style:normal;font-variant:normal;font-weight:bold;font-stretch:normal;font-size:61.8766px;font-family:'Liberation Serif';-inkscape-font-specification:'Liberation Serif Bold';fill:#000000;fill-opacity:0.2;stroke-width:3.86729"
       id="path921" />
    <path
       d="m 77.930555,84.15878 v -3.444303 q 2.7494,-2.114923 4.411125,-5.438373 1.691938,-3.32345 2.447268,-7.734575 0.785543,-4.441337 0.785543,-11.481009 0,-7.160524 -0.785543,-11.541436 -0.785543,-4.380911 -2.447268,-7.643935 -1.661725,-3.263024 -4.411125,-5.377947 v -3.444303 q 6.042637,3.232811 9.3963,6.979246 3.353663,3.716221 4.924749,8.792036 1.571086,5.045601 1.571086,12.206126 0,7.22095 -1.571086,12.326978 -1.571086,5.075815 -4.954962,8.82225 -3.353663,3.776648 -9.366087,6.979245 z"
       style="font-style:normal;font-variant:normal;font-weight:bold;font-stretch:normal;font-size:61.8766px;font-family:'Liberation Serif';-inkscape-font-specification:'Liberation Serif Bold';fill:#000000;fill-opacity:0.2;stroke-width:3.86729"
       id="path923" />
  </g>
  <g
     aria-label=";-)"
     transform="scale(1.00189,0.99811356)"
     id="text893"
     style="font-weight:bold;font-size:51.5638px;line-height:0.75;font-family:Arial;-inkscape-font-specification:'Arial Bold';opacity:1;fill:#ffffff;fill-opacity:1;fill-rule:evenodd;stroke:none;stroke-width:3.86729;stroke-linecap:square;stroke-linejoin:bevel;paint-order:markers fill stroke;stop-color:#000000">
    <path
       d="m 42.850893,50.008177 q -2.114923,0 -3.565155,-1.450233 -1.42002,-1.450233 -1.42002,-3.565155 0,-2.114923 1.389806,-3.565156 1.42002,-1.450233 3.595369,-1.450233 2.145136,0 3.565156,1.480446 1.450233,1.450233 1.450233,3.534943 0,2.084709 -1.450233,3.565155 -1.450233,1.450233 -3.565156,1.450233 z m 5.40816,15.771281 q 0,4.713257 -3.142171,7.946067 -3.142171,3.232811 -9.184808,4.83411 v -2.779613 q 1.903431,-0.574051 3.263024,-1.510659 1.389806,-0.936609 2.114923,-2.08471 0.755329,-1.148101 0.755329,-2.145136 0,-0.66469 -0.483411,-1.148101 -0.48341,-0.513624 -1.843004,-1.23874 -2.326415,-1.208528 -2.326415,-3.746435 0,-1.812791 1.299167,-2.900466 1.32938,-1.117887 3.595369,-1.117887 2.507694,0 4.229845,1.661725 1.722152,1.631512 1.722152,4.229845 z"
       style="font-style:normal;font-variant:normal;font-weight:bold;font-stretch:normal;font-size:61.8766px;font-family:'Liberation Serif';-inkscape-font-specification:'Liberation Serif Bold';fill:#ffffff;fill-opacity:1;stroke-width:3.86729"
       id="path926" />
    <path
       d="m 55.600856,57.047848 v -5.257093 h 16.073413 v 5.257093 z"
       style="font-style:normal;font-variant:normal;font-weight:bold;font-stretch:normal;font-size:61.8766px;font-family:'Liberation Serif';-inkscape-font-specification:'Liberation Serif Bold';fill:#ffffff;fill-opacity:1;stroke-width:3.86729"
       id="path928" />
    <path
       d="m 75.934328,82.155003 v -3.444302 q 2.7494,-2.114923 4.411125,-5.438373 1.691938,-3.32345 2.447268,-7.734575 0.785542,-4.441338 0.785542,-11.48101 0,-7.160524 -0.785542,-11.541435 -0.785543,-4.380912 -2.447268,-7.643936 -1.661725,-3.263023 -4.411125,-5.377946 v -3.444303 q 6.042637,3.23281 9.3963,6.979245 3.353663,3.716222 4.924749,8.792036 1.571085,5.045602 1.571085,12.206126 0,7.220951 -1.571085,12.326979 -1.571086,5.075814 -4.954962,8.822249 -3.353664,3.776648 -9.366087,6.979245 z"
       style="font-style:normal;font-variant:normal;font-weight:bold;font-stretch:normal;font-size:61.8766px;font-family:'Liberation Serif';-inkscape-font-specification:'Liberation Serif Bold';fill:#ffffff;fill-opacity:1;stroke-width:3.86729"
       id="path930" />
  </g>
</svg>
