<?xml version="1.0" encoding="UTF-8" standalone="no"?>
<svg
   xmlns:dc="http://purl.org/dc/elements/1.1/"
   xmlns:cc="http://creativecommons.org/ns#"
   xmlns:rdf="http://www.w3.org/1999/02/22-rdf-syntax-ns#"
   xmlns:svg="http://www.w3.org/2000/svg"
   xmlns="http://www.w3.org/2000/svg"
   xmlns:xlink="http://www.w3.org/1999/xlink"
   xmlns:sodipodi="http://sodipodi.sourceforge.net/DTD/sodipodi-0.dtd"
   xmlns:inkscape="http://www.inkscape.org/namespaces/inkscape"
   width="128"
   height="128"
   version="1.1"
   viewBox="0 0 128 128"
   id="svg26"
   sodipodi:docname="kruler.svg"
   inkscape:version="1.0.2 (e86c870879, 2021-01-15)">
  <metadata
     id="metadata30">
    <rdf:RDF>
      <cc:Work
         rdf:about="">
        <dc:format>image/svg+xml</dc:format>
        <dc:type
           rdf:resource="http://purl.org/dc/dcmitype/StillImage" />
        <dc:title></dc:title>
      </cc:Work>
    </rdf:RDF>
  </metadata>
  <sodipodi:namedview
     pagecolor="#ffffff"
     bordercolor="#666666"
     borderopacity="1"
     objecttolerance="10"
     gridtolerance="10"
     guidetolerance="10"
     inkscape:pageopacity="0"
     inkscape:pageshadow="2"
     inkscape:window-width="640"
     inkscape:window-height="480"
     id="namedview28"
     showgrid="false"
     inkscape:snap-page="true"
     inkscape:snap-nodes="true"
     inkscape:snap-bbox="false"
     inkscape:bbox-nodes="true"
     inkscape:zoom="1"
     inkscape:cx="64"
     inkscape:cy="64"
     inkscape:current-layer="svg26">
    <inkscape:grid
       type="xygrid"
       id="grid867"
       spacingx="1"
       spacingy="1" />
  </sodipodi:namedview>
  <defs
     id="defs14">
    <linearGradient
       id="linearGradient4245">
      <stop
         offset="0"
         style="stop-color:#000000;stop-opacity:0.12132353"
         id="stop2" />
      <stop
         offset="1"
         style="stop-color:#000000;stop-opacity:0"
         id="stop4" />
    </linearGradient>
    <linearGradient
       id="linearGradient4785">
      <stop
         style="stop-color:#efc346;stop-opacity:0.99215686"
         offset="0"
         id="stop7" />
      <stop
         style="stop-color:#fae786;stop-opacity:1"
         offset="1"
         id="stop9" />
    </linearGradient>
    <linearGradient
       xlink:href="#linearGradient4785"
       id="linearGradient4836"
       x1="24"
       y1="36"
       x2="24"
       y2="14"
       gradientUnits="userSpaceOnUse" />
    <linearGradient
       xlink:href="#linearGradient4245"
       id="linearGradient4877"
       x1="24"
       y1="26.799999"
       x2="24"
       y2="38"
       gradientUnits="userSpaceOnUse" />
  </defs>
  <g
     id="g24"
     transform="matrix(2.8,0,0,2.8571429,-3.1999999,-4.5714291)">
    <path
       style="opacity:0.99;fill:url(#linearGradient4836);fill-opacity:1;fill-rule:evenodd;stroke:none;stroke-width:1;stroke-linecap:butt;stroke-linejoin:miter;stroke-miterlimit:0;stroke-dasharray:none;stroke-dashoffset:0;stroke-opacity:1"
       d="M 4,10 V 38 H 44 V 10 Z"
       id="path16"
       sodipodi:nodetypes="ccccc" />
    <path
       style="opacity:0.99;fill:url(#linearGradient4877);fill-opacity:1;fill-rule:evenodd;stroke:none;stroke-width:1;stroke-linecap:butt;stroke-linejoin:miter;stroke-miterlimit:0;stroke-dasharray:none;stroke-dashoffset:0;stroke-opacity:1"
       d="M 4,26.8 V 38 H 44 V 26.8 Z"
       id="path18"
       sodipodi:nodetypes="ccccc" />
    <path
       style="opacity:0.99;fill:#000000;fill-opacity:0.2;fill-rule:evenodd;stroke:none;stroke-width:1;stroke-linecap:butt;stroke-linejoin:miter;stroke-miterlimit:0;stroke-dasharray:none;stroke-dashoffset:0;stroke-opacity:1"
       d="M 4,36.6 V 38 h 40 v -1.4 z"
       id="path20"
       sodipodi:nodetypes="ccccc" />
    <path
       id="path22"
       style="opacity:0.99;fill:#a05814;fill-opacity:1;fill-rule:evenodd;stroke:none;stroke-width:2.82843;stroke-linecap:butt;stroke-linejoin:miter;stroke-miterlimit:0;stroke-dasharray:none;stroke-dashoffset:0;stroke-opacity:1"
       d="M 8 24 L 8 28 L 120 28 L 120 24 L 8 24 z M 16 36 L 16 60 L 20 60 L 20 36 L 16 36 z M 28 36 L 28 60 L 32 60 L 32 36 L 28 36 z M 40 36 L 40 68 L 44 68 L 44 36 L 40 36 z M 52 36 L 52 60 L 56 60 L 56 36 L 52 36 z M 64 36 L 64 60 L 68 60 L 68 36 L 64 36 z M 76 36 L 76 60 L 80 60 L 80 36 L 76 36 z M 88 36 L 88 67.427734 L 92 67.427734 L 92 36 L 88 36 z M 100 36 L 100 60 L 104 60 L 104 36 L 100 36 z M 112 36 L 112 60 L 116 60 L 116 36 L 112 36 z "
       transform="matrix(0.35714286,0,0,0.34999999,1.1428571,1.6000002)" />
  </g>
</svg>
