<?xml version="1.0" encoding="UTF-8" standalone="no"?>
<svg
   xmlns:dc="http://purl.org/dc/elements/1.1/"
   xmlns:cc="http://creativecommons.org/ns#"
   xmlns:rdf="http://www.w3.org/1999/02/22-rdf-syntax-ns#"
   xmlns:svg="http://www.w3.org/2000/svg"
   xmlns="http://www.w3.org/2000/svg"
   xmlns:xlink="http://www.w3.org/1999/xlink"
   xmlns:sodipodi="http://sodipodi.sourceforge.net/DTD/sodipodi-0.dtd"
   xmlns:inkscape="http://www.inkscape.org/namespaces/inkscape"
   version="1.1"
   id="svg2"
   width="128"
   height="128"
   viewBox="0 0 128 128"
   sodipodi:docname="ms-powerpoint.svg"
   inkscape:version="1.0 (4035a4fb49, 2020-05-01)">
  <metadata
     id="metadata8">
    <rdf:RDF>
      <cc:Work
         rdf:about="">
        <dc:format>image/svg+xml</dc:format>
        <dc:type
           rdf:resource="http://purl.org/dc/dcmitype/StillImage" />
        <dc:title />
      </cc:Work>
    </rdf:RDF>
  </metadata>
  <defs
     id="defs6">
    <linearGradient
       inkscape:collect="always"
       id="linearGradient883">
      <stop
         style="stop-color:#000000;stop-opacity:1;"
         offset="0"
         id="stop879" />
      <stop
         style="stop-color:#000000;stop-opacity:0;"
         offset="1"
         id="stop881" />
    </linearGradient>
    <linearGradient
       inkscape:collect="always"
       id="linearGradient825">
      <stop
         style="stop-color:#bc3b22;stop-opacity:1"
         offset="0"
         id="stop821" />
      <stop
         style="stop-color:#e05d3e;stop-opacity:1"
         offset="1"
         id="stop823" />
    </linearGradient>
    <radialGradient
       inkscape:collect="always"
       xlink:href="#linearGradient883"
       id="radialGradient885"
       cx="339.38943"
       cy="482.85529"
       fx="339.38943"
       fy="482.85529"
       r="30.702576"
       gradientTransform="matrix(0.25511248,-0.01660813,0.01346453,0.20682475,-22.852213,-0.53657576)"
       gradientUnits="userSpaceOnUse" />
    <linearGradient
       inkscape:collect="always"
       xlink:href="#linearGradient825"
       id="linearGradient985"
       x1="12"
       y1="32"
       x2="68"
       y2="88"
       gradientUnits="userSpaceOnUse" />
  </defs>
  <sodipodi:namedview
     pagecolor="#ffffff"
     bordercolor="#666666"
     borderopacity="1"
     objecttolerance="10"
     gridtolerance="10"
     guidetolerance="10"
     inkscape:pageopacity="0"
     inkscape:pageshadow="2"
     inkscape:window-width="1920"
     inkscape:window-height="1027"
     id="namedview4"
     showgrid="false"
     inkscape:zoom="8.0322911"
     inkscape:cx="41.506337"
     inkscape:cy="77.153508"
     inkscape:window-x="0"
     inkscape:window-y="30"
     inkscape:window-maximized="1"
     inkscape:current-layer="svg2"
     showguides="true"
     inkscape:guide-bbox="true"
     inkscape:document-rotation="0">
    <inkscape:grid
       type="xygrid"
       id="grid884" />
  </sodipodi:namedview>
  <path
     id="rect937"
     style="fill:#e46d46;fill-opacity:1;fill-rule:evenodd;stroke-width:6;stroke-linecap:round;stroke-linejoin:bevel;stroke-opacity:0.996109;paint-order:markers fill stroke;stop-color:#000000"
     d="M 32 8 A 8 8 0 0 0 24 16 L 24 64 L 70 64 L 70 8 L 32 8 z " />
  <path
     d="m 32,120 a 8,8 0 0 1 -8,-8 V 64 h 46 v 56 z"
     style="fill:#d04226;fill-opacity:1;fill-rule:evenodd;stroke-width:6;stroke-linecap:round;stroke-linejoin:bevel;stroke-opacity:0.996109;paint-order:markers fill stroke;stop-color:#000000"
     id="path944" />
  <path
     d="m 108,8 a 8,8 0 0 1 8,8 V 64 H 70 V 8 Z"
     style="fill:#f99c71;fill-opacity:1;fill-rule:evenodd;stroke-width:6;stroke-linecap:round;stroke-linejoin:bevel;stroke-opacity:0.996109;paint-order:markers fill stroke;stop-color:#000000"
     id="path964" />
  <path
     id="path966"
     style="fill:#a3331d;fill-opacity:1;fill-rule:evenodd;stroke-width:6;stroke-linecap:round;stroke-linejoin:bevel;stroke-opacity:0.996109;paint-order:markers fill stroke;stop-color:#000000"
     d="m 108,120 a 8,8 0 0 0 8,-8 V 64 H 70 v 56 z" />
  <path
     d="m 20,32 h 52 c 4.432,0 8,3.568 8,8 v 52 c 0,4.432 -3.568,8 -8,8 H 20 c -4.432,0 -8,-3.568 -8,-8 V 40 c 0,-4.432 3.568,-8 8,-8 z"
     style="fill:#000000;fill-opacity:0.2;fill-rule:evenodd;stroke-width:6;stroke-linecap:round;stroke-linejoin:bevel;stroke-opacity:0.996109;paint-order:markers fill stroke;stop-color:#000000"
     id="path989" />
  <path
     id="rect977"
     style="fill:url(#linearGradient985);fill-opacity:1;fill-rule:evenodd;stroke-width:6;stroke-linecap:round;stroke-linejoin:bevel;stroke-opacity:0.996109;paint-order:markers fill stroke;stop-color:#000000"
     d="m 16,28 h 52 c 4.432,0 8,3.568 8,8 v 52 c 0,4.432 -3.568,8 -8,8 H 16 C 11.568,96 8,92.432 8,88 V 36 c 0,-4.432 3.568,-8 8,-8 z" />
  <g
     style="font-style:italic;font-size:53.3333px;line-height:0.75;font-family:FreeSerif;-inkscape-font-specification:'FreeSerif Italic';fill:none;fill-opacity:1;fill-rule:evenodd;stroke-width:6;stroke-linecap:round;stroke-linejoin:miter;stroke-opacity:0.1;paint-order:markers fill stroke;stop-color:#000000;stroke:#000000"
     id="g1002"
     aria-label="P">
    <path
       sodipodi:nodetypes="cccccsccccccssccsccscccsscccsscc"
       id="path850"
       d="m 24.376953,39.912109 v 44.175782 h 3 10.708985 V 69.6875 h 2.02539 c 3.594059,0 6.383261,-0.168685 8.578125,-0.603516 l 0.02734,-0.0059 0.0293,-0.0059 c 1.780529,-0.388064 3.478212,-1.170649 5.054687,-2.263672 l 0.0039,-0.002 0.002,-0.002 c 1.739358,-1.212975 3.14665,-2.871923 4.1875,-4.826172 1.136901,-2.134591 1.628906,-4.615555 1.628906,-7.322266 0,-3.522291 -0.893407,-6.733676 -2.837891,-9.251953 -1.822054,-2.376535 -4.286812,-4.080512 -7.107422,-4.820313 -2.218271,-0.592721 -5.16883,-0.671875 -9.929687,-0.671875 z m 13.708985,12.457032 h 0.724609 c 2.715276,0 4.610577,0.13735 4.990234,0.208984 l 0.01172,0.002 0.01172,0.002 c 0.674032,0.1217 1.017878,0.322266 1.40625,0.751953 0.302797,0.33501 0.449219,0.624394 0.449219,1.425782 0,0.605395 -0.113531,0.919533 -0.34961,1.259765 l -0.01172,0.01563 -0.01172,0.01758 c -0.231675,0.344002 -0.469105,0.549662 -0.998047,0.75586 -0.08911,0.03474 -2.097142,0.394531 -5.003906,0.394531 h -1.21875 z"
       style="color:#000000;font-style:normal;font-variant:normal;font-weight:bold;font-stretch:normal;font-size:53.3333px;line-height:0.75;font-family:Arial;-inkscape-font-specification:'Arial Bold';font-variant-ligatures:normal;font-variant-position:normal;font-variant-caps:normal;font-variant-numeric:normal;font-variant-alternates:normal;font-variant-east-asian:normal;font-feature-settings:normal;font-variation-settings:normal;text-indent:0;text-align:start;text-decoration:none;text-decoration-line:none;text-decoration-style:solid;text-decoration-color:#000000;letter-spacing:normal;word-spacing:normal;text-transform:none;writing-mode:lr-tb;direction:ltr;text-orientation:mixed;dominant-baseline:auto;baseline-shift:baseline;text-anchor:start;white-space:normal;shape-padding:0;shape-margin:0;inline-size:0;clip-rule:nonzero;display:inline;overflow:visible;visibility:visible;opacity:1;isolation:auto;mix-blend-mode:normal;color-interpolation:sRGB;color-interpolation-filters:linearRGB;solid-color:#000000;solid-opacity:1;vector-effect:none;fill:#000000;fill-opacity:0.1;fill-rule:nonzero;stroke:none;stroke-width:6;stroke-linecap:butt;stroke-linejoin:miter;stroke-miterlimit:4;stroke-dasharray:none;stroke-dashoffset:0;stroke-opacity:1;paint-order:markers fill stroke;color-rendering:auto;image-rendering:auto;shape-rendering:auto;text-rendering:auto;enable-background:accumulate;stop-color:#000000;stop-opacity:1" />
  </g>
  <g
     aria-label="P"
     id="text995"
     style="font-style:italic;font-size:53.3333px;line-height:0.75;font-family:FreeSerif;-inkscape-font-specification:'FreeSerif Italic';fill:#ffffff;fill-opacity:1;fill-rule:evenodd;stroke-width:6;stroke-linecap:round;stroke-linejoin:bevel;stroke-opacity:0.996109;paint-order:markers fill stroke;stop-color:#000000">
    <path
       d="m 27.377612,81.088531 v -38.17706 h 12.369784 q 7.031246,0 9.166662,0.572916 3.281248,0.859375 5.494788,3.749998 2.21354,2.864582 2.21354,7.421871 0,3.515622 -1.276041,5.911454 -1.276041,2.395832 -3.255206,3.77604 -1.953124,1.354166 -3.984373,1.796874 -2.760415,0.546874 -7.994787,0.546874 H 35.085941 V 81.088531 Z M 35.085941,49.3698 v 10.833327 h 4.218747 q 4.557289,0 6.093747,-0.598958 1.536457,-0.598958 2.395832,-1.874999 0.885416,-1.27604 0.885416,-2.968748 0,-2.083332 -1.223958,-3.437498 Q 46.231767,49.968758 44.356769,49.630217 42.976561,49.3698 38.809897,49.3698 Z"
       style="font-style:normal;font-variant:normal;font-weight:bold;font-stretch:normal;font-size:53.3333px;font-family:Arial;-inkscape-font-specification:'Arial Bold';fill:#ffffff;fill-opacity:1"
       id="path997" />
  </g>
</svg>
