<?xml version="1.0" encoding="UTF-8" standalone="no"?>
<svg
   xmlns:dc="http://purl.org/dc/elements/1.1/"
   xmlns:cc="http://creativecommons.org/ns#"
   xmlns:rdf="http://www.w3.org/1999/02/22-rdf-syntax-ns#"
   xmlns:svg="http://www.w3.org/2000/svg"
   xmlns="http://www.w3.org/2000/svg"
   xmlns:xlink="http://www.w3.org/1999/xlink"
   xmlns:sodipodi="http://sodipodi.sourceforge.net/DTD/sodipodi-0.dtd"
   xmlns:inkscape="http://www.inkscape.org/namespaces/inkscape"
   inkscape:version="1.0 (4035a4fb49, 2020-05-01)"
   sodipodi:docname="skype.svg"
   viewBox="0 0 136.53333 136.53333"
   height="136.53333"
   width="136.53333"
   id="svg2"
   version="1.1">
  <metadata
     id="metadata8">
    <rdf:RDF>
      <cc:Work
         rdf:about="">
        <dc:format>image/svg+xml</dc:format>
        <dc:type
           rdf:resource="http://purl.org/dc/dcmitype/StillImage" />
        <dc:title></dc:title>
      </cc:Work>
    </rdf:RDF>
  </metadata>
  <defs
     id="defs6">
    <linearGradient
       id="linearGradient4313"
       inkscape:collect="always">
      <stop
         id="stop4315"
         offset="0"
         style="stop-color:#0059b2;stop-opacity:1" />
      <stop
         id="stop4317"
         offset="1"
         style="stop-color:#4da6ff;stop-opacity:1" />
    </linearGradient>
    <linearGradient
       gradientUnits="userSpaceOnUse"
       y2="8.6125002"
       x2="9.1998034"
       y1="128.11934"
       x1="128.70665"
       id="linearGradient4319"
       xlink:href="#linearGradient4313"
       inkscape:collect="always" />
  </defs>
  <sodipodi:namedview
     inkscape:bbox-nodes="true"
     inkscape:snap-bbox="true"
     inkscape:snap-nodes="true"
     inkscape:document-rotation="0"
     showguides="false"
     inkscape:current-layer="svg2"
     inkscape:window-maximized="1"
     inkscape:window-y="26"
     inkscape:window-x="0"
     inkscape:cy="74.623474"
     inkscape:cx="69.178114"
     inkscape:zoom="1"
     showgrid="false"
     id="namedview4"
     inkscape:window-height="1031"
     inkscape:window-width="1920"
     inkscape:pageshadow="2"
     inkscape:pageopacity="0"
     guidetolerance="10"
     gridtolerance="10"
     objecttolerance="10"
     borderopacity="1"
     bordercolor="#666666"
     pagecolor="#ffffff">
    <inkscape:grid
       id="grid862"
       type="xygrid" />
  </sodipodi:namedview>
  <g
     transform="matrix(0.93718484,0,0,0.93718484,3.3780839,4.4618208)"
     id="g872">
    <circle
       id="path12"
       cx="68.953224"
       cy="68.365921"
       style="fill:url(#linearGradient4319);fill-opacity:1;stroke:none;stroke-width:6;stroke-miterlimit:4;stroke-dasharray:none;stroke-opacity:1"
       r="64.021523" />
    <path
       style="fill:#000000;stroke-width:1.33333"
       d=""
       id="path849"
       inkscape:connector-curvature="0" />
    <path
       style="fill:#000000;stroke-width:1.33333"
       d=""
       id="path847"
       inkscape:connector-curvature="0" />
    <circle
       style="fill:#3e3e3e;fill-opacity:1;stroke-width:1.50101"
       cx="40.170132"
       cy="67.542549"
       r="0"
       id="circle841" />
    <g
       id="g887" />
    <path
       sodipodi:nodetypes="sscsscsscsscsscccccsscccssssccccccssccccccccccsscccsssccccss"
       id="path896"
       d="m 52.0625,26.822266 c -13.280629,0 -24.115236,10.835807 -24.115234,24.115234 0,3.997718 1.098829,7.72002 2.828125,11.044922 -0.388044,2.213048 -0.685547,4.459896 -0.685547,6.783203 0,21.647108 17.618123,39.267575 39.265625,39.267575 2.106088,0 4.151102,-0.24621 6.167969,-0.5664 3.143227,1.4996 6.616303,2.44336 10.320312,2.44336 13.280591,0 24.11523,-10.834861 24.11523,-24.115238 0,-3.449625 -0.82045,-6.700329 -2.13281,-9.675781 0.45578,-2.391623 0.79492,-4.831309 0.79492,-7.353516 0,-21.646577 -17.618427,-39.261719 -39.265621,-39.261719 -1.925555,0 -3.799991,0.213627 -5.654297,0.482422 C 60.233301,28.054901 56.303963,26.822266 52.0625,26.822266 Z m 17.375,26.109375 c 3.279341,-0.03846 6.573359,0.931258 8.580078,2.472656 l -0.0625,-0.04883 c 0.55966,0.452661 0.274838,0.254218 0.28711,0.210937 l -0.240235,0.84375 0.136719,0.515625 c -2.679966,-1.665811 -6.142833,-2.62153 -9.699219,-2.523437 -1.80436,0.04977 -3.656481,0.385646 -5.361328,1.380859 -1.704847,0.995213 -3.171771,2.822769 -3.648437,5.021485 l -0.148438,0.679687 0.148438,0.679687 c 0.352116,1.618004 1.351559,2.968131 2.449218,3.865235 1.097659,0.897103 2.293249,1.461289 3.519532,1.935547 2.452565,0.948514 5.124181,1.531019 7.564453,2.285156 2.440271,0.754137 4.571477,1.680941 5.853515,2.802734 1.282038,1.121794 1.960458,2.223261 1.894532,4.728516 v 0.002 c 0.0017,-0.06741 -0.0077,0.02069 -0.02344,0.300781 l -0.01172,0.208985 0.01563,0.207031 c 0.02054,0.276885 0.02781,0.567589 0.01953,0.878906 -0.07246,2.612023 -0.935673,4.204623 -2.357422,5.507813 -1.42216,1.303566 -3.556895,2.24175 -6.039063,2.669922 -4.964336,0.856343 -11.128966,-0.647978 -13.708984,-2.779297 l -0.0059,-0.0039 -0.0059,-0.0059 c -0.29247,-0.239293 -0.270016,-0.366966 -0.205078,-0.689453 l 0.126953,-0.628906 -0.126953,-0.628907 c -0.03411,-0.171111 0.03021,-0.355691 0.07422,-0.484374 -0.178214,0.01234 -0.355052,-0.157975 0.06445,0.1875 l 0.111328,0.0918 0.11914,0.08008 c 2.822831,1.927787 6.773237,3.231408 10.869141,3.324219 2.047952,0.04641 4.161088,-0.228945 6.113281,-1.273437 1.952194,-1.044492 3.628578,-3.051245 4.197266,-5.523438 L 80.130859,78.380859 79.875,77.554688 c -0.970228,-3.124114 -3.732513,-4.599483 -6.197266,-5.535157 -2.464753,-0.935674 -5.116156,-1.523255 -7.49414,-2.285156 -2.377984,-0.761901 -4.394926,-1.695846 -5.580078,-2.818359 -1.185152,-1.122514 -1.838217,-2.28203 -1.689454,-4.933594 l 0.01172,-0.201172 -0.01367,-0.201172 c -0.03871,-0.554682 -0.03438,-1.134834 0.03516,-1.787109 0.268849,-2.256622 1.358195,-3.723519 3.220703,-4.917969 1.863839,-1.195304 4.536095,-1.911297 7.269531,-1.943359 z"
       style="color:#000000;font-style:normal;font-variant:normal;font-weight:normal;font-stretch:normal;font-size:medium;line-height:normal;font-family:sans-serif;font-variant-ligatures:normal;font-variant-position:normal;font-variant-caps:normal;font-variant-numeric:normal;font-variant-alternates:normal;font-variant-east-asian:normal;font-feature-settings:normal;font-variation-settings:normal;text-indent:0;text-align:start;text-decoration:none;text-decoration-line:none;text-decoration-style:solid;text-decoration-color:#000000;letter-spacing:normal;word-spacing:normal;text-transform:none;writing-mode:lr-tb;direction:ltr;text-orientation:mixed;dominant-baseline:auto;baseline-shift:baseline;text-anchor:start;white-space:normal;shape-padding:0;shape-margin:0;inline-size:0;clip-rule:nonzero;display:inline;overflow:visible;visibility:visible;opacity:1;isolation:auto;mix-blend-mode:normal;color-interpolation:sRGB;color-interpolation-filters:linearRGB;solid-color:#000000;solid-opacity:1;vector-effect:none;fill:#000000;fill-opacity:0.1;fill-rule:nonzero;stroke:none;stroke-width:6.40215;stroke-linecap:butt;stroke-linejoin:miter;stroke-miterlimit:4;stroke-dasharray:none;stroke-dashoffset:0;stroke-opacity:1;color-rendering:auto;image-rendering:auto;shape-rendering:auto;text-rendering:auto;enable-background:accumulate;stop-color:#000000;stop-opacity:1" />
    <path
       style="fill:#ffffff;fill-opacity:1;stroke-width:0.193572"
       d="m 52.062527,30.023143 c -11.550415,0 -20.913928,9.364676 -20.913927,20.91393 0,3.860781 1.050501,7.473203 2.874719,10.577315 -0.478316,2.342798 -0.732436,4.767839 -0.732436,7.252134 0,19.916966 16.147311,36.064658 36.064663,36.064658 2.255891,0 4.461519,-0.20895 6.602227,-0.60519 2.944222,1.58244 6.309527,2.48271 9.886138,2.48271 11.550621,0 20.913939,-9.363521 20.913939,-20.913934 0,-3.336981 -0.78281,-6.48897 -2.17323,-9.287821 0.54528,-2.493397 0.83559,-5.083652 0.83559,-7.740423 0,-19.916384 -16.147314,-36.061223 -36.064664,-36.061223 -2.102767,0 -4.164717,0.180589 -6.168956,0.526115 -3.223161,-2.03018 -7.033509,-3.208271 -11.124063,-3.208271 z m 17.337722,19.70696 c 3.887784,-0.0456 7.808355,1.017097 10.566994,3.136058 1.364865,1.103923 1.673427,2.449128 1.35483,3.572768 0.686103,2.585121 -2.233966,5.102902 -4.76598,3.246094 -3.92717,-2.494288 -12.815119,-3.66144 -13.998778,1.798418 1.445355,6.641514 21.703082,3.11937 21.35408,16.381774 -0.0035,0.137063 -0.0199,0.264523 -0.02747,0.398885 0.02852,0.384496 0.03855,0.783265 0.02747,1.200091 -0.373157,13.540033 -19.987826,13.858709 -27.344222,7.781687 -1.254122,-1.026097 -1.576882,-2.509164 -1.317008,-3.799719 -0.214832,-1.077823 0.02142,-2.198505 0.570817,-3.022581 1.385984,-1.385987 2.929468,-1.863978 4.741912,-0.371375 4.204344,2.871259 14.742492,5.025765 16.254541,-1.547396 -2.063066,-6.643028 -21.865718,-3.046457 -21.099612,-16.701572 -0.05143,-0.737026 -0.04564,-1.52385 0.04814,-2.38299 0.766293,-6.463497 7.154648,-9.614137 13.634286,-9.690142 z"
       id="path845"
       inkscape:connector-curvature="0" />
  </g>
</svg>
