<?xml version="1.0" encoding="UTF-8" standalone="no"?>
<svg
   xmlns:dc="http://purl.org/dc/elements/1.1/"
   xmlns:cc="http://creativecommons.org/ns#"
   xmlns:rdf="http://www.w3.org/1999/02/22-rdf-syntax-ns#"
   xmlns:svg="http://www.w3.org/2000/svg"
   xmlns="http://www.w3.org/2000/svg"
   xmlns:xlink="http://www.w3.org/1999/xlink"
   xmlns:sodipodi="http://sodipodi.sourceforge.net/DTD/sodipodi-0.dtd"
   xmlns:inkscape="http://www.inkscape.org/namespaces/inkscape"
   width="128"
   height="128"
   viewBox="0 0 33.866666 33.866668"
   version="1.1"
   id="svg8"
   inkscape:version="0.92.3 (2405546, 2018-03-11)"
   sodipodi:docname="media-flash-sd-mmc.svg">
  <defs
     id="defs2">
    <linearGradient
       inkscape:collect="always"
       id="linearGradient851">
      <stop
         style="stop-color:#fff6d5;stop-opacity:1"
         offset="0"
         id="stop847" />
      <stop
         style="stop-color:#ffeeaa;stop-opacity:1"
         offset="1"
         id="stop849" />
    </linearGradient>
    <inkscape:path-effect
       overflow_perspective="false"
       vertical_mirror="false"
       horizontal_mirror="false"
       deform_type="perspective"
       lpeversion="1"
       is_visible="true"
       id="path-effect1074"
       down_right_point="47.199031,286.37097"
       down_left_point="17.565697,286.37097"
       up_right_point="47.199031,256.73764"
       up_left_point="17.565697,256.73764"
       effect="perspective-envelope" />
    <inkscape:path-effect
       overflow_perspective="false"
       vertical_mirror="false"
       horizontal_mirror="false"
       deform_type="envelope_deformation"
       lpeversion="1"
       is_visible="true"
       id="path-effect1072"
       down_right_point="47.19903,286.37097"
       down_left_point="17.565697,286.37097"
       up_right_point="47.19903,256.73764"
       up_left_point="17.565697,256.73764"
       effect="perspective-envelope" />
    <inkscape:path-effect
       overflow_perspective="false"
       vertical_mirror="false"
       horizontal_mirror="false"
       deform_type="envelope_deformation"
       lpeversion="1"
       is_visible="true"
       id="path-effect1048"
       down_right_point="47.19903,286.37097"
       down_left_point="17.565697,286.37097"
       up_right_point="47.19903,256.73764"
       up_left_point="17.565697,256.73764"
       effect="perspective-envelope" />
    <linearGradient
       inkscape:collect="always"
       id="linearGradient9800">
      <stop
         style="stop-color:#969696;stop-opacity:1"
         offset="0"
         id="stop9796" />
      <stop
         style="stop-color:#505050;stop-opacity:1"
         offset="1"
         id="stop9798" />
    </linearGradient>
    <linearGradient
       inkscape:collect="always"
       xlink:href="#linearGradient9800"
       id="linearGradient843"
       x1="3.175"
       y1="266.30832"
       x2="30.691668"
       y2="293.82498"
       gradientUnits="userSpaceOnUse"
       gradientTransform="matrix(3.7795275,0,0,3.7795275,0,-994.51962)" />
    <linearGradient
       inkscape:collect="always"
       xlink:href="#linearGradient851"
       id="linearGradient853"
       x1="5.2916665"
       y1="268.42499"
       x2="15.875"
       y2="271.59998"
       gradientUnits="userSpaceOnUse" />
  </defs>
  <sodipodi:namedview
     inkscape:window-maximized="1"
     inkscape:window-y="-8"
     inkscape:window-x="-8"
     inkscape:window-height="837"
     inkscape:window-width="1600"
     inkscape:snap-to-guides="false"
     inkscape:bbox-nodes="true"
     inkscape:snap-bbox-edge-midpoints="true"
     id="base"
     pagecolor="#ffffff"
     bordercolor="#666666"
     borderopacity="1.0"
     inkscape:pageopacity="0.0"
     inkscape:pageshadow="2"
     inkscape:zoom="1"
     inkscape:cx="91.518541"
     inkscape:cy="74.034683"
     inkscape:document-units="px"
     inkscape:current-layer="layer1"
     inkscape:document-rotation="0"
     showgrid="false"
     units="px"
     inkscape:snap-page="true"
     inkscape:object-paths="true"
     inkscape:snap-smooth-nodes="true"
     inkscape:snap-grids="true"
     inkscape:snap-nodes="true"
     inkscape:snap-bbox="true">
    <inkscape:grid
       type="xygrid"
       id="grid833" />
  </sodipodi:namedview>
  <metadata
     id="metadata5">
    <rdf:RDF>
      <cc:Work
         rdf:about="">
        <dc:format>image/svg+xml</dc:format>
        <dc:type
           rdf:resource="http://purl.org/dc/dcmitype/StillImage" />
        <dc:title></dc:title>
      </cc:Work>
    </rdf:RDF>
  </metadata>
  <g
     inkscape:label="Layer 1"
     inkscape:groupmode="layer"
     id="layer1"
     transform="translate(0,-263.13332)">
    <path
       style="opacity:1;fill:#000000;fill-opacity:1;stroke:none;stroke-width:1.89999986;stroke-linecap:square;stroke-linejoin:round;stroke-miterlimit:4;stroke-dasharray:none;stroke-dashoffset:0;stroke-opacity:1"
       d="m 64,44 c -11.045695,10e-7 -19.999999,8.954305 -20,20 10e-7,11.045695 8.954305,19.999999 20,20 11.045695,-10e-7 19.999999,-8.954305 20,-20 -10e-7,-11.045695 -8.954305,-19.999999 -20,-20 z m 0,10 A 10.000001,10.000001 0 0 1 74,64 10.000001,10.000001 0 0 1 64,74 10.000001,10.000001 0 0 1 54,64 10.000001,10.000001 0 0 1 64,54 Z"
       transform="matrix(0.26458334,0,0,0.26458334,0,263.13332)"
       id="path858"
       inkscape:connector-curvature="0" />
    <path
       style="opacity:1;fill:url(#linearGradient843);fill-opacity:1;stroke:none;stroke-width:1.89999986;stroke-linecap:square;stroke-linejoin:round;stroke-miterlimit:4;stroke-dasharray:none;stroke-dashoffset:0;stroke-opacity:1"
       d="M 8,8 V 120 H 120 V 39.999999 h -8 V 32 h 8 V 8 Z m 56,40 c 8.836556,10e-7 15.999999,7.163444 16,16 -10e-7,8.836556 -7.163444,15.999999 -16,16 -8.836556,-10e-7 -15.999999,-7.163444 -16,-16 10e-7,-8.836556 7.163444,-15.999999 16,-16 z"
       transform="matrix(0.26458334,0,0,0.26458334,0,263.13332)"
       id="rect835"
       inkscape:connector-curvature="0"
       sodipodi:nodetypes="cccccccccsssss" />
    <path
       style="opacity:1;fill:url(#linearGradient853);fill-opacity:1;stroke:none;stroke-width:0.50270832;stroke-linecap:square;stroke-linejoin:round;stroke-miterlimit:4;stroke-dasharray:none;stroke-dashoffset:0;stroke-opacity:1"
       d="M 4.7625011,267.36664 H 16.404167 c 0.293159,0 0.529167,0.23601 0.529167,0.52918 v 4.2333 c 0,0.29317 -0.236008,0.52919 -0.529167,0.52919 H 4.7625011 c -0.2931588,0 -0.5291675,-0.23602 -0.5291675,-0.52919 v -4.2333 c 0,-0.29317 0.2360087,-0.52918 0.5291675,-0.52918 z"
       id="rect845"
       inkscape:connector-curvature="0" />
    <path
       style="opacity:1;fill:#000000;fill-opacity:1;stroke:none;stroke-width:0.50270832;stroke-linecap:square;stroke-linejoin:round;stroke-miterlimit:4;stroke-dasharray:none;stroke-dashoffset:0;stroke-opacity:1"
       d="m 15.875001,285.88748 h 2.116666 c 0.293159,0 0.529167,0.23601 0.529167,0.52917 v 6.87915 c 0,0.29317 -0.236008,0.52918 -0.529167,0.52918 h -2.116666 c -0.293159,0 -0.529167,-0.23601 -0.529167,-0.52918 v -6.87915 c 0,-0.29316 0.236008,-0.52917 0.529167,-0.52917 z"
       id="rect863"
       inkscape:connector-curvature="0" />
  </g>
</svg>
