<?xml version="1.0" encoding="UTF-8" standalone="no"?>
<svg
   xmlns:dc="http://purl.org/dc/elements/1.1/"
   xmlns:cc="http://creativecommons.org/ns#"
   xmlns:rdf="http://www.w3.org/1999/02/22-rdf-syntax-ns#"
   xmlns:svg="http://www.w3.org/2000/svg"
   xmlns="http://www.w3.org/2000/svg"
   xmlns:xlink="http://www.w3.org/1999/xlink"
   xmlns:sodipodi="http://sodipodi.sourceforge.net/DTD/sodipodi-0.dtd"
   xmlns:inkscape="http://www.inkscape.org/namespaces/inkscape"
   inkscape:version="1.0 (4035a4fb49, 2020-05-01)"
   sodipodi:docname="plasmadiscover.svg"
   id="svg57"
   version="1.1"
   height="128"
   width="128">
  <metadata
     id="metadata61">
    <rdf:RDF>
      <cc:Work
         rdf:about="">
        <dc:format>image/svg+xml</dc:format>
        <dc:type
           rdf:resource="http://purl.org/dc/dcmitype/StillImage" />
        <dc:title></dc:title>
      </cc:Work>
    </rdf:RDF>
  </metadata>
  <sodipodi:namedview
     inkscape:current-layer="svg57"
     inkscape:cy="63.421977"
     inkscape:cx="64.323165"
     inkscape:zoom="1"
     inkscape:bbox-nodes="true"
     inkscape:snap-bbox="true"
     inkscape:snap-nodes="true"
     showgrid="false"
     id="namedview59"
     inkscape:window-height="480"
     inkscape:window-width="640"
     inkscape:pageshadow="2"
     inkscape:pageopacity="0"
     guidetolerance="10"
     gridtolerance="10"
     objecttolerance="10"
     borderopacity="1"
     bordercolor="#666666"
     pagecolor="#ffffff">
    <inkscape:grid
       id="grid945"
       type="xygrid" />
  </sodipodi:namedview>
  <defs
     id="defs31">
    <linearGradient
       gradientTransform="matrix(1.125,0,0,1,-51.07,0)"
       gradientUnits="userSpaceOnUse"
       x2="0"
       y2="513.79999"
       y1="543.79999"
       id="a">
      <stop
         id="stop2"
         stop-color="#197cf1" />
      <stop
         id="stop4"
         stop-color="#20bcfa"
         offset="1" />
    </linearGradient>
    <linearGradient
       gradientUnits="userSpaceOnUse"
       x2="0"
       y2="11"
       y1="44"
       id="b"
       xlink:href="#a" />
    <linearGradient
       gradientUnits="userSpaceOnUse"
       x2="0"
       y2="14"
       y1="10"
       id="c">
      <stop
         id="stop8"
         stop-color="#1d1e1e" />
      <stop
         id="stop10"
         stop-color="#44484c"
         offset="1" />
    </linearGradient>
    <linearGradient
       x2="0"
       gradientUnits="userSpaceOnUse"
       y2="10"
       y1="14"
       id="d"
       xlink:href="#a" />
    <linearGradient
       gradientTransform="matrix(2.6666667,0,0,2.6666667,-1025.52,-1332.8)"
       x1="384.57001"
       gradientUnits="userSpaceOnUse"
       x2="384.57001"
       y2="502.79999"
       y1="517.79999"
       id="e"
       xlink:href="#a" />
    <linearGradient
       gradientUnits="userSpaceOnUse"
       x2="0"
       y2="15"
       y1="18"
       id="f">
      <stop
         id="stop15"
         stop-color="#c6cdd1" />
      <stop
         id="stop17"
         stop-color="#e0e5e7"
         offset="1" />
    </linearGradient>
    <linearGradient
       gradientTransform="matrix(2.6666667,0,0,2.6666667,-1025.52,-1332.8)"
       gradientUnits="userSpaceOnUse"
       x2="0"
       y2="514.79999"
       y1="517.79999"
       id="g"
       xlink:href="#f" />
    <linearGradient
       x1="0.49999502"
       gradientTransform="matrix(2.6666667,0,0,2.6666667,34.66668,48.000018)"
       gradientUnits="userSpaceOnUse"
       x2="0.49999502"
       y2="4.8749933"
       y1="22.874992"
       id="h">
      <stop
         style="stop-color:#99ccff;stop-opacity:1"
         id="stop21"
         stop-color="#7cbaf8" />
      <stop
         style="stop-color:#ffffff;stop-opacity:1"
         id="stop23"
         stop-color="#f4fcff"
         offset="1" />
    </linearGradient>
    <linearGradient
       gradientUnits="userSpaceOnUse"
       x2="32"
       y2="39"
       x1="16"
       y1="23"
       id="i">
      <stop
         id="stop26"
         stop-color="#292c2f" />
      <stop
         id="stop28"
         stop-opacity="0"
         offset="1" />
    </linearGradient>
    <linearGradient
       x1="387.23557"
       y2="513.29999"
       x2="387.23557"
       y1="547.79999"
       gradientTransform="matrix(3,0,0,2.6666667,-1161.7067,-1332.8)"
       gradientUnits="userSpaceOnUse"
       id="linearGradient960"
       xlink:href="#a"
       inkscape:collect="always" />
    <linearGradient
       gradientTransform="matrix(2.6666667,0,0,2.6666667,1.2819e-5,1.666e-5)"
       y2="15"
       x2="0"
       y1="18"
       gradientUnits="userSpaceOnUse"
       id="linearGradient962"
       xlink:href="#f"
       inkscape:collect="always" />
  </defs>
  <path
     id="rect35"
     style="fill:url(#linearGradient960);stroke-width:2.66667"
     d="m 16.00004,35.99999 h 96.00003 v 83.99997 H 16.00004 Z" />
  <path
     id="rect39"
     style="fill:#1c5593;stroke-width:2.66667"
     d="m 16.00004,115.99999 h 96.00003 v 3.99997 H 16.00004 Z" />
  <path
     d="m 43,36 h 4 v 7 h -4 z"
     style="fill:#000000;fill-opacity:0.2;fill-rule:evenodd;stroke:none;stroke-width:5.82385;stroke-linecap:round;stroke-linejoin:miter;stroke-miterlimit:4;stroke-dasharray:none;stroke-opacity:1;paint-order:markers fill stroke;stop-color:#000000"
     id="rect1015" />
  <path
     d="m 83,36 h 4 v 6 h -4 z"
     style="fill:#000000;fill-opacity:0.2;fill-rule:evenodd;stroke:none;stroke-width:6;stroke-linecap:round;stroke-linejoin:miter;stroke-miterlimit:4;stroke-dasharray:none;stroke-opacity:1;paint-order:markers fill stroke;stop-color:#000000"
     id="rect1038" />
  <path
     id="path47"
     style="fill:url(#e);stroke-width:2.66667"
     d="m 64.000013,5.99999 a 22,22 0 0 0 -22,22 v 18 h 4 v -18 a 18,18 0 0 1 17.910156,-18 18,18 0 0 1 0.08984,0 18,18 0 0 1 18,18 v 18 h 4 v -18 a 22,22 0 0 0 -22,-22 z" />
  <path
     sodipodi:nodetypes="ssscsssscs"
     id="path1009"
     d="m 48.999987,44.999991 c 0,2.209146 -1.790854,4 -4,4 -2.209147,0 -4,-1.790854 -4,-4 0,-2.209147 1.790853,-4 4,-4 2.209146,0 4,1.790853 4,4 z m -5.333334,0 c 0,0.736373 0.59696,1.333333 1.333334,1.333333 0.736373,0 1.333333,-0.59696 1.333333,-1.333333 0,-0.736374 -0.59696,-1.333334 -1.333333,-1.333334 -0.736374,0 -1.333334,0.59696 -1.333334,1.333334 z"
     fill="url(#g)"
     style="fill:#000000;fill-opacity:0.2;stroke-width:2.66667" />
  <path
     style="fill:#000000;fill-opacity:0.2;stroke-width:2.66667"
     fill="url(#g)"
     d="m 88.999987,44.999991 c 0,2.209146 -1.790853,4 -4,4 -2.209146,0 -4,-1.790854 -4,-4 0,-2.209147 1.790854,-4 4,-4 2.209147,0 4,1.790853 4,4 z m -5.333333,0 c 0,0.736373 0.59696,1.333333 1.333333,1.333333 0.736374,0 1.333334,-0.59696 1.333334,-1.333333 0,-0.736374 -0.59696,-1.333334 -1.333334,-1.333334 -0.736373,0 -1.333333,0.59696 -1.333333,1.333334 z"
     id="path1013"
     sodipodi:nodetypes="ssscsssscs" />
  <path
     style="fill:url(#linearGradient962);stroke-width:2.66667"
     fill="url(#f)"
     d="m 80.000014,44.000017 c 0,2.209139 1.790861,4 4,4 2.209139,0 4,-1.790861 4,-4 0,-2.209138 -1.790861,-4 -4,-4 -2.209139,0 -4,1.790862 -4,4 z m 5.333333,0 c 0,0.736379 -0.596954,1.333334 -1.333333,1.333334 -0.736379,0 -1.333333,-0.596955 -1.333333,-1.333334 0,-0.736378 0.596954,-1.333333 1.333333,-1.333333 0.736379,0 1.333333,0.596955 1.333333,1.333333 z"
     id="path51"
     sodipodi:nodetypes="ssscsssscs" />
  <path
     style="color:#000000;font-style:normal;font-variant:normal;font-weight:normal;font-stretch:normal;font-size:medium;line-height:normal;font-family:sans-serif;font-variant-ligatures:normal;font-variant-position:normal;font-variant-caps:normal;font-variant-numeric:normal;font-variant-alternates:normal;font-variant-east-asian:normal;font-feature-settings:normal;font-variation-settings:normal;text-indent:0;text-align:start;text-decoration:none;text-decoration-line:none;text-decoration-style:solid;text-decoration-color:#000000;letter-spacing:normal;word-spacing:normal;text-transform:none;writing-mode:lr-tb;direction:ltr;text-orientation:mixed;dominant-baseline:auto;baseline-shift:baseline;text-anchor:start;white-space:normal;shape-padding:0;shape-margin:0;inline-size:0;clip-rule:nonzero;display:inline;overflow:visible;visibility:visible;isolation:auto;mix-blend-mode:normal;color-interpolation:sRGB;color-interpolation-filters:linearRGB;solid-color:#000000;solid-opacity:1;vector-effect:none;fill:#000000;fill-opacity:0.1;fill-rule:nonzero;stroke:none;stroke-width:6;stroke-linecap:butt;stroke-linejoin:miter;stroke-miterlimit:4;stroke-dasharray:none;stroke-dashoffset:0;stroke-opacity:1;color-rendering:auto;image-rendering:auto;shape-rendering:auto;text-rendering:auto;enable-background:accumulate;stop-color:#000000"
     d="m 72.000014,57.088559 -9.578126,9.578126 8.005208,8 -8.005208,8 9.578126,9.578125 17.578125,-17.578125 z m -18.666667,1.244792 c -3.087442,0 -5.666667,2.579225 -5.666667,5.666667 0,3.087441 2.579225,5.666667 5.666667,5.666667 3.087442,0 5.666667,-2.579226 5.666667,-5.666667 0,-3.087442 -2.579225,-5.666667 -5.666667,-5.666667 z m -6.666667,16 c -3.826108,0 -7,3.173892 -7,7 0,3.82611 3.173892,7 7,7 3.826108,0 7,-3.17389 7,-7 0,-3.826108 -3.173892,-7 -7,-7 z m 12,16 c -4.564775,0 -8.333333,3.768558 -8.333333,8.333334 0,4.564775 3.768558,8.333335 8.333333,8.333335 4.564776,0 8.333334,-3.76856 8.333334,-8.333335 0,-4.564776 -3.768558,-8.333334 -8.333334,-8.333334 z"
     id="path1005"
     sodipodi:nodetypes="cccccccsssssssssssssss" />
  <path
     style="fill:url(#h);stroke-width:2.66667"
     fill="url(#h)"
     d="m 50.66668,64.000018 c 0,1.477333 1.189334,2.666667 2.666667,2.666667 1.477333,0 2.666667,-1.189334 2.666667,-2.666667 0,-1.477334 -1.189334,-2.666667 -2.666667,-2.666667 -1.477333,0 -2.666667,1.189333 -2.666667,2.666667 z m 21.333334,-2.666667 -5.333334,5.333334 8,8 -8,8 5.333334,5.333333 13.333333,-13.333333 z m -29.333334,20 c 0,2.216 1.784,4 4,4 2.216,0 4,-1.784 4,-4 0,-2.216 -1.784,-4 -4,-4 -2.216,0 -4,1.784 -4,4 z m 10.666667,17.333334 c 0,2.954665 2.378667,5.333335 5.333333,5.333335 2.954667,0 5.333334,-2.37867 5.333334,-5.333335 0,-2.954667 -2.378667,-5.333334 -5.333334,-5.333334 -2.954666,0 -5.333333,2.378667 -5.333333,5.333334 z"
     id="path53"
     sodipodi:nodetypes="ssscscccccccssscsssscs" />
  <path
     style="fill:url(#g);stroke-width:2.66667"
     fill="url(#g)"
     d="m 48.003827,43.994684 c 0,2.209147 -1.790854,4 -4,4 -2.209147,0 -4,-1.790853 -4,-4 0,-2.209147 1.790853,-4 4,-4 2.209146,0 4,1.790853 4,4 z m -5.333334,0 c 0,0.736373 0.59696,1.333333 1.333334,1.333333 0.736373,0 1.333333,-0.59696 1.333333,-1.333333 0,-0.736373 -0.59696,-1.333333 -1.333333,-1.333333 -0.736374,0 -1.333334,0.59696 -1.333334,1.333333 z"
     id="path49"
     sodipodi:nodetypes="ssscsssscs" />
</svg>
