<?xml version="1.0" encoding="UTF-8" standalone="no"?>
<svg
   xmlns:dc="http://purl.org/dc/elements/1.1/"
   xmlns:cc="http://creativecommons.org/ns#"
   xmlns:rdf="http://www.w3.org/1999/02/22-rdf-syntax-ns#"
   xmlns:svg="http://www.w3.org/2000/svg"
   xmlns="http://www.w3.org/2000/svg"
   xmlns:xlink="http://www.w3.org/1999/xlink"
   xmlns:sodipodi="http://sodipodi.sourceforge.net/DTD/sodipodi-0.dtd"
   xmlns:inkscape="http://www.inkscape.org/namespaces/inkscape"
   version="1.1"
   id="svg2262"
   width="128"
   height="128"
   viewBox="0 0 128 128"
   sodipodi:docname="QtProject-qtcreator.svg"
   inkscape:version="1.0 (4035a4fb49, 2020-05-01)">
  <metadata
     id="metadata2268">
    <rdf:RDF>
      <cc:Work
         rdf:about="">
        <dc:format>image/svg+xml</dc:format>
        <dc:type
           rdf:resource="http://purl.org/dc/dcmitype/StillImage" />
        <dc:title></dc:title>
      </cc:Work>
    </rdf:RDF>
  </metadata>
  <defs
     id="defs2266">
    <linearGradient
       inkscape:collect="always"
       id="linearGradient1032">
      <stop
         style="stop-color:#ffffff;stop-opacity:0.40000001"
         offset="0"
         id="stop1028" />
      <stop
         style="stop-color:#ffffff;stop-opacity:0.1"
         offset="1"
         id="stop1030" />
    </linearGradient>
    <linearGradient
       inkscape:collect="always"
       xlink:href="#linearGradient1032"
       id="linearGradient1034"
       x1="32"
       y1="32"
       x2="43.375"
       y2="7.5000005"
       gradientUnits="userSpaceOnUse"
       gradientTransform="matrix(1.1428571,0,0,1.1428571,-4.5714286,-4.5714286)" />
  </defs>
  <sodipodi:namedview
     pagecolor="#ffffff"
     bordercolor="#666666"
     borderopacity="1"
     objecttolerance="10"
     gridtolerance="10"
     guidetolerance="10"
     inkscape:pageopacity="0"
     inkscape:pageshadow="2"
     inkscape:window-width="1920"
     inkscape:window-height="1127"
     id="namedview2264"
     showgrid="true"
     showguides="false"
     inkscape:zoom="1"
     inkscape:cx="-55.56213"
     inkscape:cy="18.971242"
     inkscape:window-x="0"
     inkscape:window-y="0"
     inkscape:window-maximized="1"
     inkscape:current-layer="svg2262"
     inkscape:document-rotation="0" />
  <g
     transform="matrix(1.875,0,0,1.875,4,4)"
     id="g866">
    <g
       style="font-style:normal;font-weight:normal;font-size:32px;line-height:1.25;font-family:sans-serif;letter-spacing:0px;word-spacing:0px;fill:#f8ffff;fill-opacity:1;stroke:none;stroke-width:0.874841"
       id="text2280"
       transform="scale(0.92391324,1.0823527)"
       aria-label="D" />
    <g
       style="font-size:32px;line-height:0.75;font-family:Arial;-inkscape-font-specification:Arial;fill:#ffffff;stroke-width:1.9;stroke-linecap:square;stroke-linejoin:round;paint-order:markers fill stroke;stop-color:#000000"
       id="text859"
       aria-label="L" />
    <g
       style="font-size:42.6667px;line-height:0.75;font-family:Arial;-inkscape-font-specification:Arial;fill:#ffffff;stroke-width:1.9;stroke-linecap:square;stroke-linejoin:round;paint-order:markers fill stroke;stop-color:#000000"
       id="text888"
       aria-label="A" />
    <g
       style="font-size:42.6667px;line-height:0.75;font-family:Arial;-inkscape-font-specification:Arial;fill:#ffffff;fill-opacity:1;stroke-width:1.9;stroke-linecap:square;stroke-linejoin:round;paint-order:markers fill stroke;stop-color:#000000"
       id="text1122"
       aria-label="DV" />
    <path
       sodipodi:nodetypes="ccccccc"
       style="fill:#2db22d;fill-opacity:1;stroke:none;stroke-width:3.2;stroke-linecap:round;stroke-linejoin:miter;stroke-miterlimit:4;stroke-dasharray:none;stroke-opacity:1"
       d="M 10,9 0,19 V 55 H 54 L 64,45 V 9 Z"
       id="path2276"
       inkscape:connector-curvature="0" />
    <path
       sodipodi:nodetypes="ccccc"
       id="path1026"
       d="M 0,19 64,45 V 9 H 10 Z"
       style="fill:url(#linearGradient1034);fill-opacity:1;stroke:none;stroke-width:1.14286px;stroke-linecap:butt;stroke-linejoin:miter;stroke-opacity:1" />
    <g
       aria-label="QC"
       id="text1212"
       style="font-size:37.3333px;line-height:0.75;font-family:Arial;-inkscape-font-specification:Arial;fill:#ffffff;fill-opacity:1;stroke-width:1.9;stroke-linecap:square;stroke-linejoin:round;paint-order:markers fill stroke;stop-color:#000000">
      <path
         d="m 18.947927,21.381521 q -4.010413,0 -6.380203,2.989581 -2.35156,2.989581 -2.35156,8.148431 0,5.14062 2.35156,8.130201 2.36979,2.989581 6.380203,2.989581 4.010414,0 6.343745,-2.989581 2.35156,-2.989581 2.35156,-8.130201 0,-5.15885 -2.35156,-8.148431 -2.333331,-2.989581 -6.343745,-2.989581 z m 5.15885,24.226542 4.848954,5.304683 h -4.447913 l -4.028642,-4.356767 q -0.601562,0.03646 -0.929687,0.05469 -0.309895,0.01823 -0.601562,0.01823 -5.742182,0 -9.1874918,-3.828122 -3.4270804,-3.846351 -3.4270804,-10.281241 0,-6.45312 3.4270804,-10.281242 3.4453098,-3.84635 9.1874918,-3.84635 5.723954,0 9.151034,3.84635 3.427081,3.828122 3.427081,10.281242 0,4.739579 -1.914061,8.111972 -1.895832,3.372393 -5.505204,4.976558 z"
         style="font-style:normal;font-variant:normal;font-weight:normal;font-stretch:normal;font-family:sans-serif;-inkscape-font-specification:sans-serif"
         id="path852" />
      <path
         d="m 57.666644,20.98048 v 3.882809 q -1.859373,-1.731769 -3.973955,-2.588539 -2.096352,-0.85677 -4.466142,-0.85677 -4.666663,0 -7.145827,2.861976 -2.479165,2.843748 -2.479165,8.239577 0,5.377599 2.479165,8.239576 2.479164,2.843748 7.145827,2.843748 2.36979,0 4.466142,-0.856771 2.114582,-0.85677 3.973955,-2.588539 v 3.846351 q -1.93229,1.312499 -4.101559,1.968748 -2.15104,0.65625 -4.557288,0.65625 -6.179682,0 -9.734367,-3.773435 -3.554684,-3.791663 -3.554684,-10.335928 0,-6.562495 3.554684,-10.335929 3.554685,-3.791663 9.734367,-3.791663 2.442706,0 4.593746,0.656249 2.169269,0.63802 4.065101,1.93229 z"
         style="font-style:normal;font-variant:normal;font-weight:normal;font-stretch:normal;font-family:sans-serif;-inkscape-font-specification:sans-serif"
         id="path854" />
    </g>
  </g>
</svg>
