<?xml version="1.0" encoding="UTF-8" standalone="no"?>
<svg
   xmlns:dc="http://purl.org/dc/elements/1.1/"
   xmlns:cc="http://creativecommons.org/ns#"
   xmlns:rdf="http://www.w3.org/1999/02/22-rdf-syntax-ns#"
   xmlns:svg="http://www.w3.org/2000/svg"
   xmlns="http://www.w3.org/2000/svg"
   xmlns:xlink="http://www.w3.org/1999/xlink"
   xmlns:sodipodi="http://sodipodi.sourceforge.net/DTD/sodipodi-0.dtd"
   xmlns:inkscape="http://www.inkscape.org/namespaces/inkscape"
   width="128"
   height="128"
   viewBox="0 0 128 128"
   version="1.1"
   id="svg43"
   sodipodi:docname="steam.svg"
   inkscape:version="1.0.2 (e86c870879, 2021-01-15)">
  <metadata
     id="metadata47">
    <rdf:RDF>
      <cc:Work
         rdf:about="">
        <dc:format>image/svg+xml</dc:format>
        <dc:type
           rdf:resource="http://purl.org/dc/dcmitype/StillImage" />
        <dc:title></dc:title>
      </cc:Work>
    </rdf:RDF>
  </metadata>
  <sodipodi:namedview
     pagecolor="#ffffff"
     bordercolor="#666666"
     borderopacity="1"
     objecttolerance="10"
     gridtolerance="10"
     guidetolerance="10"
     inkscape:pageopacity="0"
     inkscape:pageshadow="2"
     inkscape:window-width="640"
     inkscape:window-height="480"
     id="namedview45"
     showgrid="false"
     inkscape:snap-page="false"
     inkscape:snap-nodes="false"
     inkscape:snap-bbox="true"
     inkscape:bbox-nodes="true"
     inkscape:snap-grids="true"
     inkscape:snap-intersection-paths="true"
     inkscape:snap-smooth-nodes="true"
     inkscape:snap-center="true"
     inkscape:snap-bbox-edge-midpoints="true"
     inkscape:snap-others="false"
     inkscape:zoom="1"
     inkscape:cx="72.142698"
     inkscape:cy="38.353505"
     inkscape:current-layer="svg43">
    <inkscape:grid
       type="xygrid"
       id="grid932" />
  </sodipodi:namedview>
  <defs
     id="defs19">
    <linearGradient
       inkscape:collect="always"
       id="linearGradient1300">
      <stop
         style="stop-color:#ffffff;stop-opacity:1;"
         offset="0"
         id="stop1296" />
      <stop
         style="stop-color:#cccccc;stop-opacity:1"
         offset="1"
         id="stop1298" />
    </linearGradient>
    <linearGradient
       inkscape:collect="always"
       id="linearGradient1239">
      <stop
         style="stop-color:#ffffff;stop-opacity:1"
         offset="0"
         id="stop1235" />
      <stop
         style="stop-color:#cccccc;stop-opacity:1"
         offset="1"
         id="stop1237" />
    </linearGradient>
    <inkscape:perspective
       sodipodi:type="inkscape:persp3d"
       inkscape:vp_x="0 : 64 : 1"
       inkscape:vp_y="0 : 1000 : 0"
       inkscape:vp_z="128 : 64 : 1"
       inkscape:persp3d-origin="64 : 42.666667 : 1"
       id="perspective1200" />
    <linearGradient
       id="blue-gradient-5">
      <stop
         style="stop-color:#054e87;stop-opacity:1"
         offset="0"
         id="stop2" />
      <stop
         style="stop-color:#1d99f3;stop-opacity:1"
         offset="1"
         id="stop4" />
    </linearGradient>
    <linearGradient
       id="shadow-3">
      <stop
         style="stop-color:#31363b;stop-opacity:0.208"
         offset="0"
         id="stop7" />
      <stop
         style="stop-color:#31363b;stop-opacity:0;"
         offset="1"
         id="stop9" />
    </linearGradient>
    <linearGradient
       xlink:href="#shadow-3"
       id="linearGradient4199"
       x1="21.969"
       y1="1035.3621"
       x2="35.969002"
       y2="1049.3621"
       gradientUnits="userSpaceOnUse"
       gradientTransform="matrix(2.8,0,0,2.799999,24.8,-2854.6128)" />
    <linearGradient
       xlink:href="#shadow-3"
       id="linearGradient4203"
       gradientUnits="userSpaceOnUse"
       x1="23"
       y1="1035.3621"
       x2="36"
       y2="1048.3621"
       gradientTransform="translate(13,-1021.3622)" />
    <linearGradient
       xlink:href="#shadow-3"
       id="linearGradient4227"
       gradientUnits="userSpaceOnUse"
       gradientTransform="translate(-15.75,-1005.8622)"
       x1="21.475"
       y1="1035.158"
       x2="34.474998"
       y2="1048.158" />
    <linearGradient
       xlink:href="#blue-gradient-5"
       id="linearGradient4351"
       x1="5.4285712"
       y1="1009.7906"
       x2="42.57143"
       y2="1046.9335"
       gradientUnits="userSpaceOnUse"
       gradientTransform="matrix(2.8,0,0,2.799999,-3.1999998,-2815.4127)" />
    <linearGradient
       xlink:href="#shadow-3"
       id="linearGradient4373"
       gradientUnits="userSpaceOnUse"
       gradientTransform="matrix(2.8,0,0,2.799999,13.539325,-2864.4504)"
       x1="21.084999"
       y1="1036.975"
       x2="35.969002"
       y2="1049.3621" />
    <linearGradient
       xlink:href="#shadow-3"
       id="linearGradient4377"
       gradientUnits="userSpaceOnUse"
       gradientTransform="matrix(2.8,0,0,2.799999,-20.923292,-2828.9979)"
       x1="21.084999"
       y1="1036.975"
       x2="35.969002"
       y2="1049.3621" />
    <linearGradient
       xlink:href="#shadow-3"
       id="linearGradient4381"
       gradientUnits="userSpaceOnUse"
       gradientTransform="matrix(2.8,0,0,2.799999,-11.236862,-2818.6883)"
       x1="21.969"
       y1="1035.3621"
       x2="35.969002"
       y2="1049.3621" />
    <linearGradient
       inkscape:collect="always"
       xlink:href="#linearGradient1239"
       id="linearGradient1241"
       x1="32"
       y1="30"
       x2="102"
       y2="100"
       gradientUnits="userSpaceOnUse" />
    <linearGradient
       inkscape:collect="always"
       xlink:href="#linearGradient1239"
       id="linearGradient1249"
       x1="74"
       y1="40"
       x2="92"
       y2="58"
       gradientUnits="userSpaceOnUse" />
    <linearGradient
       inkscape:collect="always"
       xlink:href="#linearGradient1300"
       id="linearGradient1302"
       x1="28"
       y1="62"
       x2="18"
       y2="86"
       gradientUnits="userSpaceOnUse"
       gradientTransform="translate(-0.21568649,0.21077523)" />
  </defs>
  <path
     id="circle21"
     style="fill:url(#linearGradient4351);fill-opacity:1;stroke:none;stroke-width:2.8;stroke-linecap:round;stroke-linejoin:round;stroke-miterlimit:4;stroke-dasharray:none;stroke-opacity:1"
     d="M 120,64.000038 A 56,55.999981 0 0 1 64,120.00002 56,55.999981 0 0 1 8,64.000038 56,55.999981 0 0 1 64,8.0000572 56,55.999981 0 0 1 120,64.000038 Z" />
  <path
     id="path1030"
     style="fill:url(#linearGradient1241);fill-opacity:1;fill-rule:evenodd;stroke-width:0.1;stroke-linecap:square;stroke-linejoin:round;paint-order:markers fill stroke;stop-color:#000000"
     d="m 83,28 c -5.374369,0 -10.749104,2.049885 -14.849609,6.150391 -3.692841,3.69284 -5.707084,8.419325 -6.074219,13.248047 l -17.802734,20.83789 c -3.402589,0.550439 -6.671461,2.121731 -9.294922,4.746094 -6.639033,6.641319 -6.638105,17.400953 0,24.039062 6.638104,6.638106 17.402102,6.638916 24.041015,0 2.623257,-2.623256 4.193957,-5.892572 4.744141,-9.294922 l 20.83789,-17.802734 c 4.828722,-0.367135 9.555207,-2.381378 13.248047,-6.074219 8.201011,-8.20101 8.201011,-21.498208 0,-29.699218 C 93.749104,30.049885 88.374369,28 83,28 Z m 0,8 c 7.179702,0 13,5.820298 13,13 0,7.179702 -5.820298,13 -13,13 C 75.820298,62 70,56.179702 70,49 70,41.820298 75.820298,36 83,36 Z M 47,74 c 6.075132,0 11,4.924868 11,11 0,6.075132 -4.924868,11 -11,11 -6.075132,0 -11,-4.924868 -11,-11 0,-6.075132 4.924868,-11 11,-11 z"
     sodipodi:nodetypes="cccccccccccccccccccccc" />
  <path
     id="path1040"
     style="fill:url(#linearGradient1249);fill-opacity:1;fill-rule:evenodd;stroke-width:0.11595;stroke-linecap:square;stroke-linejoin:round;paint-order:markers fill stroke;stop-color:#000000"
     d="m 94,49 c 0,6.075132 -4.924868,11 -11,11 -6.075132,0 -11,-4.924868 -11,-11 0,-6.075132 4.924868,-11 11,-11 6.075132,0 11,4.924868 11,11 z"
     sodipodi:nodetypes="ccccc" />
  <path
     id="path1257"
     style="fill:#000000;fill-opacity:0.30000001;fill-rule:evenodd;stroke-width:0.11595;stroke-linecap:square;stroke-linejoin:round;paint-order:markers fill stroke;stop-color:#000000"
     d="M 90.515625 40.984375 C 92.361116 42.951764 93.5 45.58966 93.5 48.5 C 93.5 54.575132 88.575132 59.5 82.5 59.5 C 79.58966 59.5 76.951764 58.361116 74.984375 56.515625 C 76.991219 58.655024 79.835208 60 83 60 C 89.075132 60 94 55.075132 94 49 C 94 45.835208 92.655024 42.991219 90.515625 40.984375 z " />
  <path
     id="path1266"
     style="fill:#000000;fill-opacity:0.30000001;fill-rule:evenodd;stroke-width:0.1;stroke-linecap:square;stroke-linejoin:round;paint-order:markers fill stroke;stop-color:#000000"
     d="M 97.59375 33.90625 C 105.5448 42.125509 105.46673 55.232493 97.349609 63.349609 C 93.656769 67.04245 88.930284 69.056693 84.101562 69.423828 L 63.263672 87.226562 C 62.713488 90.628912 61.142788 93.898228 58.519531 96.521484 C 51.965072 103.07595 41.398166 103.14476 34.742188 96.757812 C 34.824483 96.843573 34.894072 96.937041 34.978516 97.021484 C 41.61662 103.65959 52.380618 103.6604 59.019531 97.021484 C 61.642788 94.398228 63.213488 91.128912 63.763672 87.726562 L 84.601562 69.923828 C 89.430284 69.556693 94.156769 67.54245 97.849609 63.849609 C 106.05062 55.648599 106.05062 42.351401 97.849609 34.150391 C 97.765716 34.066497 97.678699 33.988427 97.59375 33.90625 z M 82.5 35.5 C 75.320298 35.5 69.5 41.320298 69.5 48.5 C 69.5 52.217195 71.067165 55.562308 73.568359 57.931641 C 71.361365 55.601819 70 52.462507 70 49 C 70 41.820298 75.820298 36 83 36 C 86.462507 36 89.601819 37.361365 91.931641 39.568359 C 89.562308 37.067165 86.217195 35.5 82.5 35.5 z M 46.5 73.5 C 40.424868 73.5 35.5 78.424868 35.5 84.5 C 35.5 87.664792 36.844976 90.508781 38.984375 92.515625 C 37.138884 90.548236 36 87.91034 36 85 C 36 78.924868 40.924868 74 47 74 C 49.91034 74 52.548236 75.138884 54.515625 76.984375 C 52.508781 74.844976 49.664792 73.5 46.5 73.5 z " />
  <path
     id="path1103"
     style="fill:url(#linearGradient1302);fill-opacity:1;fill-rule:evenodd;stroke:none;stroke-width:0.1;stroke-linecap:square;stroke-linejoin:round;paint-order:markers fill stroke;stop-color:#000000"
     inkscape:transform-center-x="35.53214"
     inkscape:transform-center-y="-15.528676"
     d="m 11.880016,61.179525 c -0.05774,1.003821 -0.0957,2.012962 -0.0957,3.03125 0,5.978882 1.021814,11.715976 2.878906,17.0625 l 29.023435,12.021484 c 4.592201,1.902152 9.812794,-0.175984 11.662109,-4.640625 1.849314,-4.464641 -0.374596,-9.625192 -4.966797,-11.527343 z"
     sodipodi:nodetypes="ccccccc" />
  <path
     id="path1291"
     style="fill:#000000;fill-opacity:0.3;fill-rule:evenodd;stroke:none;stroke-width:0.1;stroke-linecap:square;stroke-linejoin:round;paint-order:markers fill stroke;stop-color:#000000"
     inkscape:transform-center-x="35.53214"
     inkscape:transform-center-y="-15.528676"
     d="m 54.423244,80.38265 c 1.159246,2.216827 1.37703,4.876003 0.361328,7.328125 -1.849315,4.464641 -7.069908,6.542777 -11.662109,4.640625 L 14.397853,80.452963 c 0.08978,0.272883 0.17153,0.549414 0.265625,0.820312 l 29.023438,12.021484 c 4.592201,1.902152 9.812794,-0.175984 11.662109,-4.640625 1.164241,-2.810728 0.71331,-5.895786 -0.925781,-8.271484 z" />
  <path
     id="path1304"
     style="fill:#000000;fill-opacity:0.30000001;stroke:none;stroke-width:2.8;stroke-linecap:round;stroke-linejoin:round;stroke-miterlimit:4;stroke-dasharray:none;stroke-opacity:1"
     d="M 102.58984 23.419922 A 56 55.999981 0 0 1 118 62 A 56 55.999981 0 0 1 62 118 A 56 55.999981 0 0 1 23.410156 102.58008 A 56 55.999981 0 0 0 64 120 A 56 55.999981 0 0 0 120 64 A 56 55.999981 0 0 0 102.58984 23.419922 z " />
</svg>
