<?xml version="1.0" encoding="UTF-8" standalone="no"?>
<svg
   xmlns:dc="http://purl.org/dc/elements/1.1/"
   xmlns:cc="http://creativecommons.org/ns#"
   xmlns:rdf="http://www.w3.org/1999/02/22-rdf-syntax-ns#"
   xmlns:svg="http://www.w3.org/2000/svg"
   xmlns="http://www.w3.org/2000/svg"
   xmlns:xlink="http://www.w3.org/1999/xlink"
   xmlns:sodipodi="http://sodipodi.sourceforge.net/DTD/sodipodi-0.dtd"
   xmlns:inkscape="http://www.inkscape.org/namespaces/inkscape"
   width="128"
   height="128"
   viewBox="0 0 33.866666 33.866668"
   version="1.1"
   id="svg8"
   inkscape:version="1.0 (4035a4fb49, 2020-05-01)"
   sodipodi:docname="utilities-log-viewer.svg">
  <defs
     id="defs2">
    <linearGradient
       inkscape:collect="always"
       id="linearGradient1023">
      <stop
         style="stop-color:#35b1d4;stop-opacity:0.31517509"
         offset="0"
         id="stop1019" />
      <stop
         style="stop-color:#6144e5;stop-opacity:0.30000001"
         offset="1"
         id="stop1021" />
    </linearGradient>
    <linearGradient
       inkscape:collect="always"
       id="linearGradient2430">
      <stop
         style="stop-color:#06b2bc;stop-opacity:1"
         offset="0"
         id="stop2426" />
      <stop
         style="stop-color:#0afefc;stop-opacity:1"
         offset="1"
         id="stop2428" />
    </linearGradient>
    <linearGradient
       id="linearGradient2358"
       inkscape:collect="always">
      <stop
         id="stop2354"
         offset="0"
         style="stop-color:#2e8bba;stop-opacity:1;" />
      <stop
         id="stop2356"
         offset="1"
         style="stop-color:#0216bc;stop-opacity:1" />
    </linearGradient>
    <linearGradient
       inkscape:collect="always"
       id="linearGradient2236">
      <stop
         style="stop-color:#525254;stop-opacity:1"
         offset="0"
         id="stop2232" />
      <stop
         style="stop-color:#8e8e8c;stop-opacity:1"
         offset="1"
         id="stop2234" />
    </linearGradient>
    <linearGradient
       inkscape:collect="always"
       id="linearGradient2208">
      <stop
         style="stop-color:#fefefc;stop-opacity:1"
         offset="0"
         id="stop2204" />
      <stop
         style="stop-color:#c2c2c4;stop-opacity:1"
         offset="1"
         id="stop2206" />
    </linearGradient>
    <linearGradient
       inkscape:collect="always"
       xlink:href="#linearGradient2208"
       id="linearGradient2210"
       x1="1.5875"
       y1="281.65414"
       x2="11.377084"
       y2="294.61874"
       gradientUnits="userSpaceOnUse" />
    <linearGradient
       inkscape:collect="always"
       xlink:href="#linearGradient2236"
       id="linearGradient2238"
       x1="13.758333"
       y1="294.88333"
       x2="14.816667"
       y2="293.82498"
       gradientUnits="userSpaceOnUse"
       gradientTransform="matrix(2.0000001,0,0,1.9999999,0,-296.99995)" />
    <linearGradient
       inkscape:collect="always"
       xlink:href="#linearGradient2358"
       id="linearGradient2346"
       x1="12.303124"
       y1="276.89169"
       x2="16.271875"
       y2="280.86044"
       gradientUnits="userSpaceOnUse"
       gradientTransform="translate(0.13229219,-4.1858828e-5)" />
    <linearGradient
       inkscape:collect="always"
       xlink:href="#linearGradient2358"
       id="linearGradient2348"
       x1="14.041224"
       y1="274.92975"
       x2="15.610415"
       y2="276.49475"
       gradientUnits="userSpaceOnUse"
       gradientTransform="translate(1.0053317e-6,0.13230329)" />
    <linearGradient
       inkscape:collect="always"
       xlink:href="#linearGradient2358"
       id="linearGradient2350"
       x1="16.404165"
       y1="275.70102"
       x2="17.991667"
       y2="277.28851"
       gradientUnits="userSpaceOnUse"
       gradientTransform="translate(6.2386195e-7,0.13229109)" />
    <linearGradient
       inkscape:collect="always"
       xlink:href="#linearGradient2358"
       id="linearGradient2362"
       gradientUnits="userSpaceOnUse"
       x1="16.933332"
       y1="277.81769"
       x2="18.520834"
       y2="279.40518"
       gradientTransform="translate(1.1523564e-7,0.13228905)" />
    <linearGradient
       inkscape:collect="always"
       xlink:href="#linearGradient2358"
       id="linearGradient2380"
       gradientUnits="userSpaceOnUse"
       gradientTransform="translate(0.13229219,-4.1858828e-5)"
       x1="12.303124"
       y1="276.89169"
       x2="16.271875"
       y2="280.86044" />
    <linearGradient
       inkscape:collect="always"
       xlink:href="#linearGradient2358"
       id="linearGradient2382"
       gradientUnits="userSpaceOnUse"
       gradientTransform="translate(1.0053317e-6,0.13230329)"
       x1="14.041224"
       y1="274.92975"
       x2="15.610415"
       y2="276.49475" />
    <linearGradient
       inkscape:collect="always"
       xlink:href="#linearGradient2358"
       id="linearGradient2384"
       gradientUnits="userSpaceOnUse"
       gradientTransform="translate(6.2386195e-7,0.13229109)"
       x1="16.404165"
       y1="275.70102"
       x2="17.991667"
       y2="277.28851" />
    <linearGradient
       inkscape:collect="always"
       xlink:href="#linearGradient2358"
       id="linearGradient2386"
       gradientUnits="userSpaceOnUse"
       gradientTransform="translate(1.1523564e-7,0.13228905)"
       x1="16.933332"
       y1="277.81769"
       x2="18.520834"
       y2="279.40518" />
    <linearGradient
       inkscape:collect="always"
       xlink:href="#linearGradient2358"
       id="linearGradient2398"
       gradientUnits="userSpaceOnUse"
       gradientTransform="translate(0.13229219,-4.1858828e-5)"
       x1="12.303124"
       y1="276.89169"
       x2="16.271875"
       y2="280.86044" />
    <linearGradient
       inkscape:collect="always"
       xlink:href="#linearGradient2358"
       id="linearGradient2400"
       gradientUnits="userSpaceOnUse"
       gradientTransform="translate(1.0053317e-6,0.13230329)"
       x1="14.041224"
       y1="274.92975"
       x2="15.610415"
       y2="276.49475" />
    <linearGradient
       inkscape:collect="always"
       xlink:href="#linearGradient2358"
       id="linearGradient2402"
       gradientUnits="userSpaceOnUse"
       gradientTransform="translate(6.2386195e-7,0.13229109)"
       x1="16.404165"
       y1="275.70102"
       x2="17.991667"
       y2="277.28851" />
    <linearGradient
       inkscape:collect="always"
       xlink:href="#linearGradient2358"
       id="linearGradient2404"
       gradientUnits="userSpaceOnUse"
       gradientTransform="translate(1.1523564e-7,0.13228905)"
       x1="16.933332"
       y1="277.81769"
       x2="18.520834"
       y2="279.40518" />
    <linearGradient
       inkscape:collect="always"
       xlink:href="#linearGradient2358"
       id="linearGradient2416"
       gradientUnits="userSpaceOnUse"
       gradientTransform="translate(0.13229219,-4.1858828e-5)"
       x1="12.303124"
       y1="276.89169"
       x2="16.271875"
       y2="280.86044" />
    <linearGradient
       inkscape:collect="always"
       xlink:href="#linearGradient2358"
       id="linearGradient2418"
       gradientUnits="userSpaceOnUse"
       gradientTransform="translate(1.0053317e-6,0.13230329)"
       x1="14.041224"
       y1="274.92975"
       x2="15.610415"
       y2="276.49475" />
    <linearGradient
       inkscape:collect="always"
       xlink:href="#linearGradient2358"
       id="linearGradient2420"
       gradientUnits="userSpaceOnUse"
       gradientTransform="translate(6.2386195e-7,0.13229109)"
       x1="16.404165"
       y1="275.70102"
       x2="17.991667"
       y2="277.28851" />
    <linearGradient
       inkscape:collect="always"
       xlink:href="#linearGradient2358"
       id="linearGradient2422"
       gradientUnits="userSpaceOnUse"
       gradientTransform="translate(1.1523564e-7,0.13228905)"
       x1="16.933332"
       y1="277.81769"
       x2="18.520834"
       y2="279.40518" />
    <linearGradient
       inkscape:collect="always"
       xlink:href="#linearGradient2430"
       id="linearGradient2432"
       x1="10.583333"
       y1="291.70831"
       x2="11.641666"
       y2="290.64999"
       gradientUnits="userSpaceOnUse"
       gradientTransform="matrix(2.0000001,0,0,1.9999999,0,-296.99995)" />
    <linearGradient
       gradientUnits="userSpaceOnUse"
       y2="272.65833"
       x2="22.225"
       y1="285.35831"
       x1="10.583333"
       id="linearGradient1009"
       xlink:href="#linearGradient2236"
       inkscape:collect="always" />
    <linearGradient
       gradientUnits="userSpaceOnUse"
       y2="285.35831"
       x2="22.225"
       y1="274.77499"
       x1="11.641666"
       id="linearGradient1017"
       xlink:href="#linearGradient1023"
       inkscape:collect="always" />
  </defs>
  <sodipodi:namedview
     id="base"
     pagecolor="#ffffff"
     bordercolor="#666666"
     borderopacity="1.0"
     inkscape:pageopacity="0.0"
     inkscape:pageshadow="2"
     inkscape:zoom="1"
     inkscape:cx="50.148258"
     inkscape:cy="88.985861"
     inkscape:document-units="mm"
     inkscape:current-layer="layer1"
     showgrid="true"
     units="px"
     inkscape:snap-bbox="true"
     inkscape:bbox-paths="false"
     inkscape:bbox-nodes="true"
     inkscape:snap-bbox-edge-midpoints="false"
     inkscape:snap-bbox-midpoints="false"
     inkscape:snap-nodes="true"
     inkscape:snap-page="false"
     inkscape:snap-grids="true"
     inkscape:window-width="1920"
     inkscape:window-height="1143"
     inkscape:window-x="0"
     inkscape:window-y="0"
     inkscape:window-maximized="1"
     inkscape:document-rotation="0"
     inkscape:snap-to-guides="false">
    <inkscape:grid
       type="xygrid"
       id="grid815" />
  </sodipodi:namedview>
  <metadata
     id="metadata5">
    <rdf:RDF>
      <cc:Work
         rdf:about="">
        <dc:format>image/svg+xml</dc:format>
        <dc:type
           rdf:resource="http://purl.org/dc/dcmitype/StillImage" />
        <dc:title></dc:title>
      </cc:Work>
    </rdf:RDF>
  </metadata>
  <g
     inkscape:label="Layer 1"
     inkscape:groupmode="layer"
     id="layer1"
     transform="translate(0,-263.13332)">
    <path
       d=""
       style="fill:#525254;fill-opacity:1;stroke:none;stroke-width:1.62308;stroke-linecap:square;stroke-linejoin:miter;stroke-miterlimit:4;stroke-dasharray:none;stroke-opacity:1;paint-order:markers fill stroke"
       id="path2242"
       ry="0.79374999"
       rx="0.79374939"
       cy="295.28018"
       cx="25.53229" />
    <path
       d=""
       style="fill:#525254;fill-opacity:1;stroke:none;stroke-width:1.48167;stroke-linecap:square;stroke-linejoin:miter;stroke-miterlimit:4;stroke-dasharray:none;stroke-opacity:1;paint-order:markers fill stroke"
       id="path2244"
       r="0.79374999"
       cy="296.07394"
       cx="27.648956" />
    <path
       d=""
       style="fill:#525254;fill-opacity:1;stroke:none;stroke-width:1.62308;stroke-linecap:square;stroke-linejoin:miter;stroke-miterlimit:4;stroke-dasharray:none;stroke-opacity:1;paint-order:markers fill stroke"
       id="path2246"
       ry="0.79374999"
       rx="0.79374975"
       cy="298.19061"
       cx="28.178123" />
    <g
       id="g2214"
       transform="matrix(2.0000001,0,0,1.9999999,0.52916775,-296.47079)">
      <g
         id="g1067">
        <path
           style="color:#000000;font-style:normal;font-variant:normal;font-weight:normal;font-stretch:normal;font-size:medium;line-height:normal;font-family:sans-serif;font-variant-ligatures:normal;font-variant-position:normal;font-variant-caps:normal;font-variant-numeric:normal;font-variant-alternates:normal;font-variant-east-asian:normal;font-feature-settings:normal;font-variation-settings:normal;text-indent:0;text-align:start;text-decoration:none;text-decoration-line:none;text-decoration-style:solid;text-decoration-color:#000000;letter-spacing:normal;word-spacing:normal;text-transform:none;writing-mode:lr-tb;direction:ltr;text-orientation:mixed;dominant-baseline:auto;baseline-shift:baseline;text-anchor:start;white-space:normal;shape-padding:0;shape-margin:0;inline-size:0;clip-rule:nonzero;display:inline;overflow:visible;visibility:visible;opacity:1;isolation:auto;mix-blend-mode:normal;color-interpolation:sRGB;color-interpolation-filters:linearRGB;solid-color:#000000;solid-opacity:1;vector-effect:none;fill:#000000;fill-opacity:0.0505837;fill-rule:nonzero;stroke:none;stroke-width:0.79375;stroke-linecap:square;stroke-linejoin:round;stroke-miterlimit:4;stroke-dasharray:none;stroke-dashoffset:0;stroke-opacity:1;paint-order:markers fill stroke;color-rendering:auto;image-rendering:auto;shape-rendering:auto;text-rendering:auto;enable-background:accumulate;stop-color:#000000;stop-opacity:1"
           d="m 0.79296875,280.46289 c -0.21963878,2.4e-4 -0.39732856,0.1788 -0.39648437,0.39844 v 14.02148 c 2.3406e-4,0.21888 0.17760821,0.39625 0.39648437,0.39649 H 11.642578 c 0.218876,-2.4e-4 0.39625,-0.17761 0.396484,-0.39649 v -14.02148 c 8.44e-4,-0.21964 -0.176845,-0.3982 -0.396484,-0.39844 z"
           id="path1059"
           sodipodi:nodetypes="ccccccccc" />
        <path
           style="color:#000000;font-style:normal;font-variant:normal;font-weight:normal;font-stretch:normal;font-size:medium;line-height:normal;font-family:sans-serif;font-variant-ligatures:normal;font-variant-position:normal;font-variant-caps:normal;font-variant-numeric:normal;font-variant-alternates:normal;font-variant-east-asian:normal;font-feature-settings:normal;font-variation-settings:normal;text-indent:0;text-align:start;text-decoration:none;text-decoration-line:none;text-decoration-style:solid;text-decoration-color:#000000;letter-spacing:normal;word-spacing:normal;text-transform:none;writing-mode:lr-tb;direction:ltr;text-orientation:mixed;dominant-baseline:auto;baseline-shift:baseline;text-anchor:start;white-space:normal;shape-padding:0;shape-margin:0;inline-size:0;clip-rule:nonzero;display:inline;overflow:visible;visibility:visible;opacity:1;isolation:auto;mix-blend-mode:normal;color-interpolation:sRGB;color-interpolation-filters:linearRGB;solid-color:#000000;solid-opacity:1;vector-effect:none;fill:#000000;fill-opacity:0.0505837;fill-rule:nonzero;stroke:none;stroke-width:0.661458;stroke-linecap:square;stroke-linejoin:round;stroke-miterlimit:4;stroke-dasharray:none;stroke-dashoffset:0;stroke-opacity:1;paint-order:markers fill stroke;color-rendering:auto;image-rendering:auto;shape-rendering:auto;text-rendering:auto;enable-background:accumulate;stop-color:#000000;stop-opacity:1"
           d="m 0.79296875,280.5293 c -0.18290375,3.8e-4 -0.33077957,0.14913 -0.33007813,0.33203 v 14.02148 c -7.0144e-4,0.1829 0.14717438,0.33165 0.33007813,0.33203 H 11.642578 c 0.182904,-3.8e-4 0.330779,-0.14913 0.330078,-0.33203 v -14.02148 c 7.01e-4,-0.1829 -0.147174,-0.33165 -0.330078,-0.33203 z"
           id="path1055"
           sodipodi:nodetypes="ccccccccc" />
        <path
           style="color:#000000;font-style:normal;font-variant:normal;font-weight:normal;font-stretch:normal;font-size:medium;line-height:normal;font-family:sans-serif;font-variant-ligatures:normal;font-variant-position:normal;font-variant-caps:normal;font-variant-numeric:normal;font-variant-alternates:normal;font-variant-east-asian:normal;font-feature-settings:normal;font-variation-settings:normal;text-indent:0;text-align:start;text-decoration:none;text-decoration-line:none;text-decoration-style:solid;text-decoration-color:#000000;letter-spacing:normal;word-spacing:normal;text-transform:none;writing-mode:lr-tb;direction:ltr;text-orientation:mixed;dominant-baseline:auto;baseline-shift:baseline;text-anchor:start;white-space:normal;shape-padding:0;shape-margin:0;inline-size:0;clip-rule:nonzero;display:inline;overflow:visible;visibility:visible;opacity:1;isolation:auto;mix-blend-mode:normal;color-interpolation:sRGB;color-interpolation-filters:linearRGB;solid-color:#000000;solid-opacity:1;vector-effect:none;fill:#000000;fill-opacity:0.0505837;fill-rule:nonzero;stroke:none;stroke-width:0.529167;stroke-linecap:square;stroke-linejoin:round;stroke-miterlimit:4;stroke-dasharray:none;stroke-dashoffset:0;stroke-opacity:1;paint-order:markers fill stroke;color-rendering:auto;image-rendering:auto;shape-rendering:auto;text-rendering:auto;enable-background:accumulate;stop-color:#000000;stop-opacity:1"
           d="m 0.79296875,280.5957 c -0.14617259,5.2e-4 -0.26423635,0.11946 -0.26367187,0.26563 v 14.02148 c -5.6448e-4,0.14617 0.11749928,0.26511 0.26367187,0.26563 H 11.642578 c 0.146173,-5.2e-4 0.264236,-0.11946 0.263672,-0.26563 v -14.02148 c 5.64e-4,-0.14617 -0.117499,-0.26511 -0.263672,-0.26563 z"
           id="path1051"
           sodipodi:nodetypes="ccccccccc" />
        <path
           style="color:#000000;font-style:normal;font-variant:normal;font-weight:normal;font-stretch:normal;font-size:medium;line-height:normal;font-family:sans-serif;font-variant-ligatures:normal;font-variant-position:normal;font-variant-caps:normal;font-variant-numeric:normal;font-variant-alternates:normal;font-variant-east-asian:normal;font-feature-settings:normal;font-variation-settings:normal;text-indent:0;text-align:start;text-decoration:none;text-decoration-line:none;text-decoration-style:solid;text-decoration-color:#000000;letter-spacing:normal;word-spacing:normal;text-transform:none;writing-mode:lr-tb;direction:ltr;text-orientation:mixed;dominant-baseline:auto;baseline-shift:baseline;text-anchor:start;white-space:normal;shape-padding:0;shape-margin:0;inline-size:0;clip-rule:nonzero;display:inline;overflow:visible;visibility:visible;opacity:1;isolation:auto;mix-blend-mode:normal;color-interpolation:sRGB;color-interpolation-filters:linearRGB;solid-color:#000000;solid-opacity:1;vector-effect:none;fill:#000000;fill-opacity:0.0505837;fill-rule:nonzero;stroke:none;stroke-width:0.396875;stroke-linecap:square;stroke-linejoin:round;stroke-miterlimit:4;stroke-dasharray:none;stroke-dashoffset:0;stroke-opacity:1;paint-order:markers fill stroke;color-rendering:auto;image-rendering:auto;shape-rendering:auto;text-rendering:auto;enable-background:accumulate;stop-color:#000000;stop-opacity:1"
           d="m 0.79296875,280.66211 c -0.10943745,6.6e-4 -0.19768817,0.0898 -0.19726563,0.19922 v 14.02148 c -4.2254e-4,0.10944 0.0878282,0.19856 0.19726563,0.19922 H 11.642578 c 0.109438,-6.6e-4 0.197689,-0.0898 0.197266,-0.19922 v -14.02148 c 4.23e-4,-0.10944 -0.08783,-0.19856 -0.197266,-0.19922 z"
           id="path1047"
           sodipodi:nodetypes="ccccccccc" />
        <path
           style="color:#000000;font-style:normal;font-variant:normal;font-weight:normal;font-stretch:normal;font-size:medium;line-height:normal;font-family:sans-serif;font-variant-ligatures:normal;font-variant-position:normal;font-variant-caps:normal;font-variant-numeric:normal;font-variant-alternates:normal;font-variant-east-asian:normal;font-feature-settings:normal;font-variation-settings:normal;text-indent:0;text-align:start;text-decoration:none;text-decoration-line:none;text-decoration-style:solid;text-decoration-color:#000000;letter-spacing:normal;word-spacing:normal;text-transform:none;writing-mode:lr-tb;direction:ltr;text-orientation:mixed;dominant-baseline:auto;baseline-shift:baseline;text-anchor:start;white-space:normal;shape-padding:0;shape-margin:0;inline-size:0;clip-rule:nonzero;display:inline;overflow:visible;visibility:visible;opacity:1;isolation:auto;mix-blend-mode:normal;color-interpolation:sRGB;color-interpolation-filters:linearRGB;solid-color:#000000;solid-opacity:1;vector-effect:none;fill:#000000;fill-opacity:0.0505837;fill-rule:nonzero;stroke:none;stroke-width:0.264583;stroke-linecap:square;stroke-linejoin:round;stroke-miterlimit:4;stroke-dasharray:none;stroke-dashoffset:0;stroke-opacity:1;paint-order:markers fill stroke;color-rendering:auto;image-rendering:auto;shape-rendering:auto;text-rendering:auto;enable-background:accumulate;stop-color:#000000;stop-opacity:1"
           d="m 0.79296875,280.72852 c -0.0727021,7.9e-4 -0.13114128,0.0601 -0.13085937,0.13281 v 14.02148 c -2.8191e-4,0.0727 0.0581573,0.13202 0.13085937,0.13281 H 11.642578 c 0.0727,-7.9e-4 0.131142,-0.0601 0.13086,-0.13281 v -14.02148 c 2.82e-4,-0.0727 -0.05816,-0.13202 -0.13086,-0.13281 z"
           id="path1043"
           sodipodi:nodetypes="ccccccccc" />
        <path
           style="color:#000000;font-style:normal;font-variant:normal;font-weight:normal;font-stretch:normal;font-size:medium;line-height:normal;font-family:sans-serif;font-variant-ligatures:normal;font-variant-position:normal;font-variant-caps:normal;font-variant-numeric:normal;font-variant-alternates:normal;font-variant-east-asian:normal;font-feature-settings:normal;font-variation-settings:normal;text-indent:0;text-align:start;text-decoration:none;text-decoration-line:none;text-decoration-style:solid;text-decoration-color:#000000;letter-spacing:normal;word-spacing:normal;text-transform:none;writing-mode:lr-tb;direction:ltr;text-orientation:mixed;dominant-baseline:auto;baseline-shift:baseline;text-anchor:start;white-space:normal;shape-padding:0;shape-margin:0;inline-size:0;clip-rule:nonzero;display:inline;overflow:visible;visibility:visible;opacity:1;isolation:auto;mix-blend-mode:normal;color-interpolation:sRGB;color-interpolation-filters:linearRGB;solid-color:#000000;solid-opacity:1;vector-effect:none;fill:#000000;fill-opacity:0.0505837;fill-rule:nonzero;stroke:none;stroke-width:0.132292;stroke-linecap:square;stroke-linejoin:round;stroke-miterlimit:4;stroke-dasharray:none;stroke-dashoffset:0;stroke-opacity:1;paint-order:markers fill stroke;color-rendering:auto;image-rendering:auto;shape-rendering:auto;text-rendering:auto;enable-background:accumulate;stop-color:#000000;stop-opacity:1"
           d="m 0.79296875,280.79492 c -0.03597,9.2e-4 -0.0646051,0.0304 -0.0644531,0.0664 v 14.02148 c -1.5195e-4,0.036 0.0284832,0.0655 0.0644531,0.0664 H 11.642578 c 0.03597,-9.2e-4 0.06461,-0.0304 0.06445,-0.0664 v -14.02148 c 1.52e-4,-0.036 -0.02848,-0.0655 -0.06445,-0.0664 z"
           id="path1039"
           sodipodi:nodetypes="ccccccccc" />
      </g>
      <path
         style="opacity:1;fill:url(#linearGradient2210);fill-opacity:1;stroke:none;stroke-width:0.740833;stroke-linecap:square;stroke-linejoin:miter;stroke-miterlimit:4;stroke-dasharray:none;stroke-opacity:1;paint-order:markers fill stroke"
         d="m 0.79374967,294.88332 -2.5e-7,-14.02292 10.84791758,0 v 14.02292 z"
         id="path2202"
         inkscape:connector-curvature="0"
         sodipodi:nodetypes="ccccc" />
    </g>
    <g
       id="g1116">
      <path
         style="color:#000000;font-style:normal;font-variant:normal;font-weight:normal;font-stretch:normal;font-size:medium;line-height:normal;font-family:sans-serif;font-variant-ligatures:normal;font-variant-position:normal;font-variant-caps:normal;font-variant-numeric:normal;font-variant-alternates:normal;font-variant-east-asian:normal;font-feature-settings:normal;font-variation-settings:normal;text-indent:0;text-align:start;text-decoration:none;text-decoration-line:none;text-decoration-style:solid;text-decoration-color:#000000;letter-spacing:normal;word-spacing:normal;text-transform:none;writing-mode:lr-tb;direction:ltr;text-orientation:mixed;dominant-baseline:auto;baseline-shift:baseline;text-anchor:start;white-space:normal;shape-padding:0;shape-margin:0;inline-size:0;clip-rule:nonzero;display:inline;overflow:visible;visibility:visible;opacity:1;isolation:auto;mix-blend-mode:normal;color-interpolation:sRGB;color-interpolation-filters:linearRGB;solid-color:#000000;solid-opacity:1;vector-effect:none;fill:#000000;fill-opacity:0.0505837;fill-rule:nonzero;stroke:none;stroke-width:6;stroke-linecap:square;stroke-linejoin:round;stroke-miterlimit:4;stroke-dasharray:none;stroke-dashoffset:0;stroke-opacity:1;paint-order:markers fill stroke;color-rendering:auto;image-rendering:auto;shape-rendering:auto;text-rendering:auto;enable-background:accumulate;stop-color:#000000;stop-opacity:1"
         d="m 60,22.361328 c -20.724706,0 -37.636688,16.912022 -37.636719,37.636719 C 22.363266,80.722783 39.27527,97.634766 60,97.634766 c 7.229497,0 13.943474,-2.152458 19.685547,-5.707032 L 109.87891,122.12109 C 110.44144,122.6837 111.2044,122.99984 112,123 h 4 c 0.7956,-1.6e-4 1.55856,-0.3163 2.12109,-0.87891 l 4,-4 C 122.6837,117.55856 122.99984,116.7956 123,116 v -4 c -1.6e-4,-0.7956 -0.3163,-1.55856 -0.87891,-2.12109 L 91.929688,79.6875 C 95.485267,73.944191 97.636725,67.22837 97.636719,59.998047 97.636689,39.27335 80.724706,22.361328 60,22.361328 Z m 0,11.271484 c 14.634448,0 26.365215,11.730794 26.365234,26.365235 C 86.365248,74.632525 74.634481,86.363281 60,86.363281 45.365523,86.363281 33.634754,74.632525 33.634766,59.998047 33.634786,45.363605 45.365552,33.632812 60,33.632812 Z"
         id="path1108"
         transform="matrix(0.26458333,0,0,0.26458333,0,263.13332)"
         sodipodi:nodetypes="scsccccccccccsssssss" />
      <path
         style="color:#000000;font-style:normal;font-variant:normal;font-weight:normal;font-stretch:normal;font-size:medium;line-height:normal;font-family:sans-serif;font-variant-ligatures:normal;font-variant-position:normal;font-variant-caps:normal;font-variant-numeric:normal;font-variant-alternates:normal;font-variant-east-asian:normal;font-feature-settings:normal;font-variation-settings:normal;text-indent:0;text-align:start;text-decoration:none;text-decoration-line:none;text-decoration-style:solid;text-decoration-color:#000000;letter-spacing:normal;word-spacing:normal;text-transform:none;writing-mode:lr-tb;direction:ltr;text-orientation:mixed;dominant-baseline:auto;baseline-shift:baseline;text-anchor:start;white-space:normal;shape-padding:0;shape-margin:0;inline-size:0;clip-rule:nonzero;display:inline;overflow:visible;visibility:visible;opacity:1;isolation:auto;mix-blend-mode:normal;color-interpolation:sRGB;color-interpolation-filters:linearRGB;solid-color:#000000;solid-opacity:1;vector-effect:none;fill:#000000;fill-opacity:0.0505837;fill-rule:nonzero;stroke:none;stroke-width:5;stroke-linecap:square;stroke-linejoin:round;stroke-miterlimit:4;stroke-dasharray:none;stroke-dashoffset:0;stroke-opacity:1;paint-order:markers fill stroke;color-rendering:auto;image-rendering:auto;shape-rendering:auto;text-rendering:auto;enable-background:accumulate;stop-color:#000000;stop-opacity:1"
         d="m 60,22.861328 c -20.453474,0 -37.136689,16.683253 -37.136719,37.136719 -1.5e-5,20.453505 16.68322,37.136719 37.136719,37.136719 7.276404,0 14.024613,-2.201094 19.761719,-5.837891 L 110.23242,121.76758 C 110.7012,122.23642 111.337,122.49987 112,122.5 h 4 c 0.663,-1.3e-4 1.2988,-0.26358 1.76758,-0.73242 l 4,-4 C 122.23642,117.2988 122.49987,116.663 122.5,116 v -4 c -1.3e-4,-0.663 -0.26358,-1.2988 -0.73242,-1.76758 L 91.298828,79.763672 C 94.93653,74.025494 97.136726,67.275184 97.136719,59.998047 97.13669,39.544581 80.453474,22.861328 60,22.861328 Z m 0,10.271484 c 14.90352,0 26.865214,11.961722 26.865234,26.865235 C 86.865248,74.901596 74.903552,86.863281 60,86.863281 45.096452,86.863281 33.134754,74.901596 33.134766,59.998047 33.134787,45.094534 45.09648,33.132812 60,33.132812 Z"
         id="path1104"
         transform="matrix(0.26458333,0,0,0.26458333,0,263.13332)"
         sodipodi:nodetypes="scsccccccccccsssssss" />
      <path
         style="color:#000000;font-style:normal;font-variant:normal;font-weight:normal;font-stretch:normal;font-size:medium;line-height:normal;font-family:sans-serif;font-variant-ligatures:normal;font-variant-position:normal;font-variant-caps:normal;font-variant-numeric:normal;font-variant-alternates:normal;font-variant-east-asian:normal;font-feature-settings:normal;font-variation-settings:normal;text-indent:0;text-align:start;text-decoration:none;text-decoration-line:none;text-decoration-style:solid;text-decoration-color:#000000;letter-spacing:normal;word-spacing:normal;text-transform:none;writing-mode:lr-tb;direction:ltr;text-orientation:mixed;dominant-baseline:auto;baseline-shift:baseline;text-anchor:start;white-space:normal;shape-padding:0;shape-margin:0;inline-size:0;clip-rule:nonzero;display:inline;overflow:visible;visibility:visible;opacity:1;isolation:auto;mix-blend-mode:normal;color-interpolation:sRGB;color-interpolation-filters:linearRGB;solid-color:#000000;solid-opacity:1;vector-effect:none;fill:#000000;fill-opacity:0.0505837;fill-rule:nonzero;stroke:none;stroke-width:4;stroke-linecap:square;stroke-linejoin:round;stroke-miterlimit:4;stroke-dasharray:none;stroke-dashoffset:0;stroke-opacity:1;paint-order:markers fill stroke;color-rendering:auto;image-rendering:auto;shape-rendering:auto;text-rendering:auto;enable-background:accumulate;stop-color:#000000;stop-opacity:1"
         d="m 60,23.361328 c -20.182242,0 -36.636689,16.454484 -36.636719,36.636719 C 23.363266,80.18032 39.817732,96.634766 60,96.634766 c 7.323006,0 14.10786,-2.248068 19.837891,-5.96875 L 110.58594,121.41406 C 110.96096,121.78913 111.4696,121.9999 112,122 h 4 c 0.5304,-1e-4 1.03904,-0.21087 1.41406,-0.58594 l 4,-4 C 121.78913,117.03904 121.9999,116.5304 122,116 v -4 c -1e-4,-0.5304 -0.21087,-1.03904 -0.58594,-1.41406 L 90.667969,79.839844 C 94.389776,74.108742 96.636726,67.322047 96.636719,59.998047 96.63669,39.815812 80.182242,23.361328 60,23.361328 Z m 0,9.271484 c 15.172592,0 27.365214,12.192651 27.365234,27.365235 C 87.365248,75.170668 75.172623,87.363281 60,87.363281 44.827381,87.363281 32.634753,75.170668 32.634766,59.998047 32.634787,44.825463 44.827408,32.632812 60,32.632812 Z"
         id="path1100"
         transform="matrix(0.26458333,0,0,0.26458333,0,263.13332)"
         sodipodi:nodetypes="scsccccccccccsssssss" />
      <path
         style="color:#000000;font-style:normal;font-variant:normal;font-weight:normal;font-stretch:normal;font-size:medium;line-height:normal;font-family:sans-serif;font-variant-ligatures:normal;font-variant-position:normal;font-variant-caps:normal;font-variant-numeric:normal;font-variant-alternates:normal;font-variant-east-asian:normal;font-feature-settings:normal;font-variation-settings:normal;text-indent:0;text-align:start;text-decoration:none;text-decoration-line:none;text-decoration-style:solid;text-decoration-color:#000000;letter-spacing:normal;word-spacing:normal;text-transform:none;writing-mode:lr-tb;direction:ltr;text-orientation:mixed;dominant-baseline:auto;baseline-shift:baseline;text-anchor:start;white-space:normal;shape-padding:0;shape-margin:0;inline-size:0;clip-rule:nonzero;display:inline;overflow:visible;visibility:visible;opacity:1;isolation:auto;mix-blend-mode:normal;color-interpolation:sRGB;color-interpolation-filters:linearRGB;solid-color:#000000;solid-opacity:1;vector-effect:none;fill:#000000;fill-opacity:0.0505837;fill-rule:nonzero;stroke:none;stroke-width:3;stroke-linecap:square;stroke-linejoin:round;stroke-miterlimit:4;stroke-dasharray:none;stroke-dashoffset:0;stroke-opacity:1;paint-order:markers fill stroke;color-rendering:auto;image-rendering:auto;shape-rendering:auto;text-rendering:auto;enable-background:accumulate;stop-color:#000000;stop-opacity:1"
         d="m 60,23.861328 c -19.91101,0 -36.13669,16.225716 -36.136719,36.136719 C 23.863267,79.909089 40.088963,96.134766 60,96.134766 c 7.369631,0 14.193131,-2.293027 19.914062,-6.09961 l 31.025388,31.025394 c 0.28127,0.2813 0.66275,0.43938 1.06055,0.43945 h 4 c 0.3978,-7e-5 0.77928,-0.15815 1.06055,-0.43945 l 4,-4 C 121.34185,116.77928 121.49993,116.3978 121.5,116 v -4 c -7e-5,-0.3978 -0.15815,-0.77928 -0.43945,-1.06055 L 90.037109,79.916016 C 93.844824,74.194141 96.136726,67.368705 96.136719,59.998047 96.136691,40.087043 79.91101,23.861328 60,23.861328 Z m 0,8.271484 c 15.441664,0 27.865213,12.42358 27.865234,27.865235 C 87.865249,75.439739 75.441694,87.863281 60,87.863281 44.55831,87.863281 32.134753,75.439739 32.134766,59.998047 32.134787,44.556392 44.558336,32.132812 60,32.132812 Z"
         id="path1096"
         transform="matrix(0.26458333,0,0,0.26458333,0,263.13332)"
         sodipodi:nodetypes="scsccccccccccsssssss" />
      <path
         style="color:#000000;font-style:normal;font-variant:normal;font-weight:normal;font-stretch:normal;font-size:medium;line-height:normal;font-family:sans-serif;font-variant-ligatures:normal;font-variant-position:normal;font-variant-caps:normal;font-variant-numeric:normal;font-variant-alternates:normal;font-variant-east-asian:normal;font-feature-settings:normal;font-variation-settings:normal;text-indent:0;text-align:start;text-decoration:none;text-decoration-line:none;text-decoration-style:solid;text-decoration-color:#000000;letter-spacing:normal;word-spacing:normal;text-transform:none;writing-mode:lr-tb;direction:ltr;text-orientation:mixed;dominant-baseline:auto;baseline-shift:baseline;text-anchor:start;white-space:normal;shape-padding:0;shape-margin:0;inline-size:0;clip-rule:nonzero;display:inline;overflow:visible;visibility:visible;opacity:1;isolation:auto;mix-blend-mode:normal;color-interpolation:sRGB;color-interpolation-filters:linearRGB;solid-color:#000000;solid-opacity:1;vector-effect:none;fill:#000000;fill-opacity:0.0505837;fill-rule:nonzero;stroke:none;stroke-width:2;stroke-linecap:square;stroke-linejoin:round;stroke-miterlimit:4;stroke-dasharray:none;stroke-dashoffset:0;stroke-opacity:1;paint-order:markers fill stroke;color-rendering:auto;image-rendering:auto;shape-rendering:auto;text-rendering:auto;enable-background:accumulate;stop-color:#000000;stop-opacity:1"
         d="m 60,24.361328 c -19.639778,0 -35.63669,15.996947 -35.636719,35.636719 C 24.363267,79.637858 40.360194,95.634766 60,95.634766 c 7.416606,0 14.282318,-2.333642 19.992188,-6.228516 l 31.300782,31.30078 C 111.48048,120.89457 111.7348,120.99995 112,121 h 4 c 0.2652,-5e-5 0.51952,-0.10543 0.70703,-0.29297 l 4,-4 C 120.89457,116.51952 120.99995,116.2652 121,116 v -4 c -5e-5,-0.2652 -0.10543,-0.51952 -0.29297,-0.70703 L 89.408203,79.994141 C 93.30412,74.283511 95.636726,67.415621 95.636719,59.998047 95.636691,40.358275 79.639778,24.361328 60,24.361328 Z m 0,7.271484 c 15.710737,10e-7 28.365213,12.654508 28.365234,28.365235 C 88.365249,75.708811 75.710765,88.363281 60,88.363281 44.289239,88.363281 31.634753,75.708811 31.634766,59.998047 31.634788,44.28732 44.289263,31.632813 60,31.632812 Z"
         id="path1092"
         transform="matrix(0.26458333,0,0,0.26458333,0,263.13332)"
         sodipodi:nodetypes="scsccccccccccsssssss" />
      <path
         style="color:#000000;font-style:normal;font-variant:normal;font-weight:normal;font-stretch:normal;font-size:medium;line-height:normal;font-family:sans-serif;font-variant-ligatures:normal;font-variant-position:normal;font-variant-caps:normal;font-variant-numeric:normal;font-variant-alternates:normal;font-variant-east-asian:normal;font-feature-settings:normal;font-variation-settings:normal;text-indent:0;text-align:start;text-decoration:none;text-decoration-line:none;text-decoration-style:solid;text-decoration-color:#000000;letter-spacing:normal;word-spacing:normal;text-transform:none;writing-mode:lr-tb;direction:ltr;text-orientation:mixed;dominant-baseline:auto;baseline-shift:baseline;text-anchor:start;white-space:normal;shape-padding:0;shape-margin:0;inline-size:0;clip-rule:nonzero;display:inline;overflow:visible;visibility:visible;opacity:1;isolation:auto;mix-blend-mode:normal;color-interpolation:sRGB;color-interpolation-filters:linearRGB;solid-color:#000000;solid-opacity:1;vector-effect:none;fill:#000000;fill-opacity:0.0505837;fill-rule:nonzero;stroke:none;stroke-width:1;stroke-linecap:square;stroke-linejoin:round;stroke-miterlimit:4;stroke-dasharray:none;stroke-dashoffset:0;stroke-opacity:1;paint-order:markers fill stroke;color-rendering:auto;image-rendering:auto;shape-rendering:auto;text-rendering:auto;enable-background:accumulate;stop-color:#000000;stop-opacity:1"
         d="m 60,24.861328 c -19.368546,0 -35.13669,15.768178 -35.136719,35.136719 C 24.863267,79.366626 40.631425,95.134766 60,95.134766 c 7.463778,0 14.371687,-2.373891 20.068359,-6.359375 l 31.578121,31.578129 c 0.0938,0.0938 0.22092,0.14646 0.35352,0.14648 h 4 c 0.1326,-2e-5 0.25976,-0.0527 0.35352,-0.14648 l 4,-4 c 0.0938,-0.0938 0.14646,-0.22092 0.14648,-0.35352 v -4 c -2e-5,-0.1326 -0.0527,-0.25976 -0.14648,-0.35352 L 88.777344,80.070312 C 92.763913,74.373013 95.136726,67.462877 95.136719,59.998047 95.136691,40.629506 79.368546,24.861328 60,24.861328 Z m 0,6.271484 c 15.979809,10e-7 28.865213,12.885437 28.865234,28.865235 C 88.865249,75.977882 75.979836,88.863281 60,88.863281 44.020168,88.863281 31.134753,75.977882 31.134766,59.998047 31.134788,44.018249 44.020191,31.132813 60,31.132812 Z"
         id="path1088"
         transform="matrix(0.26458333,0,0,0.26458333,0,263.13332)"
         sodipodi:nodetypes="scsccccccccccsssssss" />
    </g>
    <path
       sodipodi:nodetypes="ccccccc"
       inkscape:connector-curvature="0"
       id="path2230"
       d="m 20.902083,286.15207 8.73125,8.73125 h 1.058335 l 1.058334,-1.05834 v -1.05832 l -8.731253,-8.73125 z"
       style="fill:url(#linearGradient2238);fill-opacity:1;stroke:none;stroke-width:1.48167;stroke-linecap:square;stroke-linejoin:miter;stroke-miterlimit:4;stroke-dasharray:none;stroke-opacity:1;paint-order:markers fill stroke" />
    <g
       id="g2368"
       transform="matrix(2.0000001,0,0,1.9999999,-13.758332,-277.94998)">
      <path
         id="path2240"
         style="opacity:1;fill:url(#linearGradient2346);fill-opacity:1;stroke:none;stroke-width:0.740833;stroke-linecap:square;stroke-linejoin:miter;stroke-miterlimit:4;stroke-dasharray:none;stroke-opacity:1;paint-order:markers fill stroke"
         d="m 14.419791,280.86041 c -1.095938,0 -1.984372,-0.88843 -1.984375,-1.98437 -3e-6,-1.09594 0.888433,-1.98438 1.984375,-1.98438 1.095942,0 1.984378,0.88844 1.984375,1.98438 -3e-6,1.09594 -0.888437,1.98437 -1.984375,1.98437 z"
         sodipodi:nodetypes="ssscs" />
      <path
         id="path2294"
         style="opacity:1;fill:url(#linearGradient2348);fill-opacity:1;stroke:none;stroke-width:0.811539;stroke-linecap:square;stroke-linejoin:miter;stroke-miterlimit:4;stroke-dasharray:none;stroke-opacity:1;paint-order:markers fill stroke"
         d="m 14.816667,276.62706 c -0.438378,0 -0.793753,-0.35537 -0.79375,-0.79375 2e-6,-0.43837 0.355376,-0.79374 0.79375,-0.79374 0.438374,0 0.793748,0.35537 0.79375,0.79374 3e-6,0.43838 -0.355372,0.79375 -0.79375,0.79375 z"
         sodipodi:nodetypes="ssscs" />
      <path
         id="ellipse2296"
         style="opacity:1;fill:url(#linearGradient2350);fill-opacity:1;stroke:none;stroke-width:0.811539;stroke-linecap:square;stroke-linejoin:miter;stroke-miterlimit:4;stroke-dasharray:none;stroke-opacity:1;paint-order:markers fill stroke"
         d="m 17.197916,277.42082 c -0.438374,0 -0.793748,-0.35537 -0.79375,-0.79374 -3e-6,-0.43838 0.355372,-0.79375 0.79375,-0.79375 0.438378,0 0.793753,0.35537 0.79375,0.79375 -2e-6,0.43837 -0.355376,0.79374 -0.79375,0.79374 z"
         sodipodi:nodetypes="ssscs" />
      <path
         id="ellipse2298"
         style="opacity:1;fill:url(#linearGradient2362);fill-opacity:1;stroke:none;stroke-width:0.811539;stroke-linecap:square;stroke-linejoin:miter;stroke-miterlimit:4;stroke-dasharray:none;stroke-opacity:1;paint-order:markers fill stroke"
         d="m 17.727083,279.53749 c -0.438378,0 -0.793753,-0.35537 -0.79375,-0.79375 2e-6,-0.43837 0.355376,-0.79374 0.79375,-0.79374 0.438374,0 0.793748,0.35537 0.79375,0.79374 3e-6,0.43838 -0.355372,0.79375 -0.79375,0.79375 z"
         sodipodi:nodetypes="ssscs" />
    </g>
    <g
       transform="matrix(0.81818038,0,0,0.8181803,-5.941079,57.680537)"
       id="g2378">
      <path
         id="circle2370"
         style="opacity:1;fill:url(#linearGradient2380);fill-opacity:1;stroke:none;stroke-width:0.740833;stroke-linecap:square;stroke-linejoin:miter;stroke-miterlimit:4;stroke-dasharray:none;stroke-opacity:1;paint-order:markers fill stroke"
         d="m 14.419791,280.86041 c -1.095938,0 -1.984372,-0.88843 -1.984375,-1.98437 -3e-6,-1.09594 0.888433,-1.98438 1.984375,-1.98438 1.095942,0 1.984378,0.88844 1.984375,1.98438 -3e-6,1.09594 -0.888437,1.98437 -1.984375,1.98437 z"
         sodipodi:nodetypes="ssscs" />
      <path
         id="ellipse2372"
         style="opacity:1;fill:url(#linearGradient2382);fill-opacity:1;stroke:none;stroke-width:0.811539;stroke-linecap:square;stroke-linejoin:miter;stroke-miterlimit:4;stroke-dasharray:none;stroke-opacity:1;paint-order:markers fill stroke"
         d="m 14.816667,276.62706 c -0.438378,0 -0.793753,-0.35537 -0.79375,-0.79375 2e-6,-0.43837 0.355376,-0.79374 0.79375,-0.79374 0.438374,0 0.793748,0.35537 0.79375,0.79374 3e-6,0.43838 -0.355372,0.79375 -0.79375,0.79375 z"
         sodipodi:nodetypes="ssscs" />
      <path
         id="ellipse2374"
         style="opacity:1;fill:url(#linearGradient2384);fill-opacity:1;stroke:none;stroke-width:0.811539;stroke-linecap:square;stroke-linejoin:miter;stroke-miterlimit:4;stroke-dasharray:none;stroke-opacity:1;paint-order:markers fill stroke"
         d="m 17.197916,277.42082 c -0.438374,0 -0.793748,-0.35537 -0.79375,-0.79374 -3e-6,-0.43838 0.355372,-0.79375 0.79375,-0.79375 0.438378,0 0.793753,0.35537 0.79375,0.79375 -2e-6,0.43837 -0.355376,0.79374 -0.79375,0.79374 z"
         sodipodi:nodetypes="ssscs" />
      <path
         id="ellipse2376"
         style="opacity:1;fill:url(#linearGradient2386);fill-opacity:1;stroke:none;stroke-width:0.811539;stroke-linecap:square;stroke-linejoin:miter;stroke-miterlimit:4;stroke-dasharray:none;stroke-opacity:1;paint-order:markers fill stroke"
         d="m 17.727083,279.53749 c -0.438378,0 -0.793753,-0.35537 -0.79375,-0.79375 2e-6,-0.43837 0.355376,-0.79374 0.79375,-0.79374 0.438374,0 0.793748,0.35537 0.79375,0.79374 3e-6,0.43838 -0.355372,0.79375 -0.79375,0.79375 z"
         sodipodi:nodetypes="ssscs" />
    </g>
    <g
       id="g2396"
       transform="matrix(0.81818038,0,0,0.8181803,-2.8021567,62.972199)">
      <path
         id="circle2388"
         style="opacity:1;fill:url(#linearGradient2398);fill-opacity:1;stroke:none;stroke-width:0.740833;stroke-linecap:square;stroke-linejoin:miter;stroke-miterlimit:4;stroke-dasharray:none;stroke-opacity:1;paint-order:markers fill stroke"
         d="m 14.419791,280.86041 c -1.095938,0 -1.984372,-0.88843 -1.984375,-1.98437 -3e-6,-1.09594 0.888433,-1.98438 1.984375,-1.98438 1.095942,0 1.984378,0.88844 1.984375,1.98438 -3e-6,1.09594 -0.888437,1.98437 -1.984375,1.98437 z"
         sodipodi:nodetypes="ssscs" />
      <path
         id="ellipse2390"
         style="opacity:1;fill:url(#linearGradient2400);fill-opacity:1;stroke:none;stroke-width:0.811539;stroke-linecap:square;stroke-linejoin:miter;stroke-miterlimit:4;stroke-dasharray:none;stroke-opacity:1;paint-order:markers fill stroke"
         d="m 14.816667,276.62706 c -0.438378,0 -0.793753,-0.35537 -0.79375,-0.79375 2e-6,-0.43837 0.355376,-0.79374 0.79375,-0.79374 0.438374,0 0.793748,0.35537 0.79375,0.79374 3e-6,0.43838 -0.355372,0.79375 -0.79375,0.79375 z"
         sodipodi:nodetypes="ssscs" />
      <path
         id="ellipse2392"
         style="opacity:1;fill:url(#linearGradient2402);fill-opacity:1;stroke:none;stroke-width:0.811539;stroke-linecap:square;stroke-linejoin:miter;stroke-miterlimit:4;stroke-dasharray:none;stroke-opacity:1;paint-order:markers fill stroke"
         d="m 17.197916,277.42082 c -0.438374,0 -0.793748,-0.35537 -0.79375,-0.79374 -3e-6,-0.43838 0.355372,-0.79375 0.79375,-0.79375 0.438378,0 0.793753,0.35537 0.79375,0.79375 -2e-6,0.43837 -0.355376,0.79374 -0.79375,0.79374 z"
         sodipodi:nodetypes="ssscs" />
      <path
         id="ellipse2394"
         style="opacity:1;fill:url(#linearGradient2404);fill-opacity:1;stroke:none;stroke-width:0.811539;stroke-linecap:square;stroke-linejoin:miter;stroke-miterlimit:4;stroke-dasharray:none;stroke-opacity:1;paint-order:markers fill stroke"
         d="m 17.727083,279.53749 c -0.438378,0 -0.793753,-0.35537 -0.79375,-0.79375 2e-6,-0.43837 0.355376,-0.79374 0.79375,-0.79374 0.438374,0 0.793748,0.35537 0.79375,0.79374 3e-6,0.43838 -0.355372,0.79375 -0.79375,0.79375 z"
         sodipodi:nodetypes="ssscs" />
    </g>
    <path
       style="fill:url(#linearGradient2432);fill-opacity:1;stroke:none;stroke-width:1.48167;stroke-linecap:square;stroke-linejoin:miter;stroke-miterlimit:4;stroke-dasharray:none;stroke-opacity:1;paint-order:markers fill stroke"
       d="m 20.637501,285.88748 2.116666,-2.11666 1.5875,1.5875 -2.116666,2.11666 z"
       id="path2424"
       inkscape:connector-curvature="0" />
    <g
       transform="matrix(0.81818038,0,0,0.8181803,7.7210438,41.035842)"
       id="g2414">
      <path
         id="circle2406"
         style="opacity:1;fill:url(#linearGradient2416);fill-opacity:1;stroke:none;stroke-width:0.740833;stroke-linecap:square;stroke-linejoin:miter;stroke-miterlimit:4;stroke-dasharray:none;stroke-opacity:1;paint-order:markers fill stroke"
         d="m 14.419791,280.86041 c -1.095938,0 -1.984372,-0.88843 -1.984375,-1.98437 -3e-6,-1.09594 0.888433,-1.98438 1.984375,-1.98438 1.095942,0 1.984378,0.88844 1.984375,1.98438 -3e-6,1.09594 -0.888437,1.98437 -1.984375,1.98437 z"
         sodipodi:nodetypes="ssscs" />
      <path
         id="ellipse2408"
         style="opacity:1;fill:url(#linearGradient2418);fill-opacity:1;stroke:none;stroke-width:0.811539;stroke-linecap:square;stroke-linejoin:miter;stroke-miterlimit:4;stroke-dasharray:none;stroke-opacity:1;paint-order:markers fill stroke"
         d="m 14.816667,276.62706 c -0.438378,0 -0.793753,-0.35537 -0.79375,-0.79375 2e-6,-0.43837 0.355376,-0.79374 0.79375,-0.79374 0.438374,0 0.793748,0.35537 0.79375,0.79374 3e-6,0.43838 -0.355372,0.79375 -0.79375,0.79375 z"
         sodipodi:nodetypes="ssscs" />
      <path
         id="ellipse2410"
         style="opacity:1;fill:url(#linearGradient2420);fill-opacity:1;stroke:none;stroke-width:0.811539;stroke-linecap:square;stroke-linejoin:miter;stroke-miterlimit:4;stroke-dasharray:none;stroke-opacity:1;paint-order:markers fill stroke"
         d="m 17.197916,277.42082 c -0.438374,0 -0.793748,-0.35537 -0.79375,-0.79374 -3e-6,-0.43838 0.355372,-0.79375 0.79375,-0.79375 0.438378,0 0.793753,0.35537 0.79375,0.79375 -2e-6,0.43837 -0.355376,0.79374 -0.79375,0.79374 z"
         sodipodi:nodetypes="ssscs" />
      <path
         id="ellipse2412"
         style="opacity:1;fill:url(#linearGradient2422);fill-opacity:1;stroke:none;stroke-width:0.811539;stroke-linecap:square;stroke-linejoin:miter;stroke-miterlimit:4;stroke-dasharray:none;stroke-opacity:1;paint-order:markers fill stroke"
         d="m 17.727083,279.53749 c -0.438378,0 -0.793753,-0.35537 -0.79375,-0.79375 2e-6,-0.43837 0.355376,-0.79374 0.79375,-0.79374 0.438374,0 0.793748,0.35537 0.79375,0.79374 3e-6,0.43838 -0.355372,0.79375 -0.79375,0.79375 z"
         sodipodi:nodetypes="ssscs" />
    </g>
    <path
       id="path1001"
       d="M 15.875 269.84375 C 10.822169 269.84375 6.7109448 273.95498 6.7109375 279.00781 C 6.7109336 284.06065 10.822161 288.17188 15.875 288.17188 C 20.92784 288.17188 25.039067 284.06065 25.039062 279.00781 C 25.039055 273.95498 20.927831 269.84375 15.875 269.84375 z M 15.875 271.23828 C 20.174183 271.23828 23.644525 274.70863 23.644531 279.00781 C 23.644535 283.307 20.17419 286.77734 15.875 286.77734 C 11.575811 286.77734 8.1054654 283.307 8.1054688 279.00781 C 8.105475 274.70863 11.575817 271.23828 15.875 271.23828 z "
       style="color:#000000;font-style:normal;font-variant:normal;font-weight:normal;font-stretch:normal;font-size:medium;line-height:normal;font-family:sans-serif;font-variant-ligatures:normal;font-variant-position:normal;font-variant-caps:normal;font-variant-numeric:normal;font-variant-alternates:normal;font-variant-east-asian:normal;font-feature-settings:normal;font-variation-settings:normal;text-indent:0;text-align:start;text-decoration:none;text-decoration-line:none;text-decoration-style:solid;text-decoration-color:#000000;letter-spacing:normal;word-spacing:normal;text-transform:none;writing-mode:lr-tb;direction:ltr;text-orientation:mixed;dominant-baseline:auto;baseline-shift:baseline;text-anchor:start;white-space:normal;shape-padding:0;shape-margin:0;inline-size:0;clip-rule:nonzero;display:inline;overflow:visible;visibility:visible;isolation:auto;mix-blend-mode:normal;color-interpolation:sRGB;color-interpolation-filters:linearRGB;solid-color:#000000;solid-opacity:1;vector-effect:none;fill:url(#linearGradient1009);fill-opacity:1;fill-rule:nonzero;stroke:none;stroke-width:1.39451;stroke-linecap:square;stroke-linejoin:miter;stroke-miterlimit:4;stroke-dasharray:none;stroke-dashoffset:0;stroke-opacity:1;paint-order:markers fill stroke;color-rendering:auto;image-rendering:auto;shape-rendering:auto;text-rendering:auto;enable-background:accumulate;stop-color:#000000;stop-opacity:1;opacity:1" />
    <path
       id="path2434"
       style="fill:url(#linearGradient1017);fill-opacity:1;stroke:none;stroke-width:1.39451;stroke-linecap:square;stroke-linejoin:miter;stroke-miterlimit:4;stroke-dasharray:none;stroke-opacity:1;paint-order:markers fill stroke"
       d="m 15.875002,287.47499 c -4.676015,0 -8.4666717,-3.79066 -8.4666687,-8.46667 7e-6,-4.67601 3.7906617,-8.46666 8.4666687,-8.46666 4.676006,0 8.46666,3.79065 8.466667,8.46666 4e-6,4.67601 -3.790653,8.46667 -8.466667,8.46667 z"
       sodipodi:nodetypes="ssscs" />
  </g>
</svg>
