<?xml version="1.0" encoding="UTF-8" standalone="no"?>
<svg
   xmlns:dc="http://purl.org/dc/elements/1.1/"
   xmlns:cc="http://creativecommons.org/ns#"
   xmlns:rdf="http://www.w3.org/1999/02/22-rdf-syntax-ns#"
   xmlns:svg="http://www.w3.org/2000/svg"
   xmlns="http://www.w3.org/2000/svg"
   xmlns:xlink="http://www.w3.org/1999/xlink"
   xmlns:sodipodi="http://sodipodi.sourceforge.net/DTD/sodipodi-0.dtd"
   xmlns:inkscape="http://www.inkscape.org/namespaces/inkscape"
   width="128"
   height="128"
   viewBox="0 0 33.866666 33.866668"
   version="1.1"
   id="svg8"
   inkscape:version="1.0 (4035a4fb49, 2020-05-01)"
   sodipodi:docname="xchat.svg">
  <defs
     id="defs2">
    <linearGradient
       id="linearGradient1017"
       inkscape:collect="always">
      <stop
         id="stop1013"
         offset="0"
         style="stop-color:#f82725;stop-opacity:1" />
      <stop
         id="stop1015"
         offset="1"
         style="stop-color:#fed302;stop-opacity:1" />
    </linearGradient>
    <linearGradient
       inkscape:collect="always"
       id="linearGradient966">
      <stop
         style="stop-color:#bfbfbf;stop-opacity:1"
         offset="0"
         id="stop962" />
      <stop
         style="stop-color:#666666;stop-opacity:1"
         offset="1"
         id="stop964" />
    </linearGradient>
    <linearGradient
       gradientTransform="translate(16.404167,-2.8282815)"
       y2="292.41992"
       x2="10.054167"
       y1="276.54492"
       x1="0.52916652"
       gradientUnits="userSpaceOnUse"
       id="linearGradient1094"
       xlink:href="#linearGradient966"
       inkscape:collect="always" />
    <linearGradient
       gradientUnits="userSpaceOnUse"
       y2="267.36664"
       x2="15.875"
       y1="292.76666"
       x1="15.875"
       id="linearGradient1019"
       xlink:href="#linearGradient1017"
       inkscape:collect="always" />
  </defs>
  <sodipodi:namedview
     inkscape:bbox-nodes="true"
     inkscape:snap-bbox-edge-midpoints="false"
     inkscape:snap-bbox="true"
     inkscape:snap-page="true"
     inkscape:snap-intersection-paths="true"
     inkscape:snap-to-guides="false"
     id="base"
     pagecolor="#ffffff"
     bordercolor="#666666"
     borderopacity="1.0"
     inkscape:pageopacity="0.0"
     inkscape:pageshadow="2"
     inkscape:zoom="4"
     inkscape:cx="78.056543"
     inkscape:cy="27.240224"
     inkscape:document-units="px"
     inkscape:current-layer="layer1"
     inkscape:document-rotation="0"
     showgrid="false"
     units="px"
     inkscape:snap-grids="true"
     inkscape:window-width="1600"
     inkscape:window-height="837"
     inkscape:window-x="-8"
     inkscape:window-y="-8"
     inkscape:window-maximized="1"
     inkscape:snap-nodes="true">
    <inkscape:grid
       id="grid923"
       type="xygrid" />
  </sodipodi:namedview>
  <metadata
     id="metadata5">
    <rdf:RDF>
      <cc:Work
         rdf:about="">
        <dc:format>image/svg+xml</dc:format>
        <dc:type
           rdf:resource="http://purl.org/dc/dcmitype/StillImage" />
        <dc:title></dc:title>
      </cc:Work>
    </rdf:RDF>
  </metadata>
  <g
     inkscape:label="Layer 1"
     inkscape:groupmode="layer"
     id="layer1"
     transform="translate(0,-263.13332)">
    <path
       style="fill:url(#linearGradient1019);stroke:none;stroke-width:1.00541668;stroke-linecap:butt;stroke-linejoin:round;stroke-opacity:1;stroke-miterlimit:4;stroke-dasharray:none;fill-opacity:1"
       d="m 8.4666669,267.36665 7.9375001,7.9375 7.9375,-7.9375 4.7625,4.7625 -7.9375,7.9375 7.9375,7.9375 -4.7625,4.7625 -7.9375,-7.9375 -7.9375003,7.9375 -4.7625,-4.7625 7.9375003,-7.9375 -7.9375003,-7.9375 z"
       id="path1011"
       sodipodi:nodetypes="ccccccccccccc" />
    <path
       sodipodi:nodetypes="ccccccccccccc"
       id="path1009"
       d="m 8.4666669,267.36665 7.9375001,7.9375 7.9375,-7.9375 4.7625,4.7625 -7.9375,7.9375 7.9375,7.9375 -4.7625,4.7625 -7.9375,-7.9375 -7.9375003,7.9375 -4.7625,-4.7625 7.9375003,-7.9375 -7.9375003,-7.9375 z"
       style="fill:none;stroke:#000000;stroke-width:0.50270834;stroke-linecap:butt;stroke-linejoin:round;stroke-opacity:1;stroke-miterlimit:4;stroke-dasharray:none" />
    <path
       sodipodi:nodetypes="cccccccccccssccccccccscccccccccccccsccsscccccsccccccccccscccccccccc"
       d="m 10.054181,279.53749 v 1.5875 H 9.2604305 v 1.5875 h 0.7937505 v 3.96875 h 2.38125 v -3.96875 h 2.910416 v 3.96875 h 2.38125 v -4.7625 c 0,-0.43838 -0.355375,-0.79375 -0.79375,-0.79375 h -4.497916 v -1.5875 z m 18.25625,0 v 1.5875 h -0.79375 v 1.5875 h 0.79375 v 3.43958 c 0,0.43838 0.355375,0.79375 0.79375,0.79375 0.0045,4e-5 0.009,4e-5 0.01344,0 h 1.838642 l 0.529167,-2.38125 h -1.5875 v -1.85208 h 1.058333 v -1.5875 H 29.89793 v -1.5875 z m -3.704167,0.26458 v 1.32292 h -5.027083 c -0.438375,0 -0.79375,0.35537 -0.79375,0.79375 -3.7e-5,0.004 -3.7e-5,0.009 0,0.0134 v 3.95532 c 0,0.43837 0.355375,0.79375 0.79375,0.79375 h 3.96875 l -0.529167,-1.5875 h -1.852083 v -2.38125 h 3.439583 v 3.43958 c 0,0.43838 0.355375,0.79375 0.79375,0.79375 0.0045,4e-5 0.009,4e-5 0.01344,0 h 1.309476 v -2.38125 h -0.529167 v -3.96875 z m -21.4446858,1.32292 c -0.4331203,0.007 -0.7803754,0.36056 -0.7803145,0.79375 -3.71e-5,0.004 -3.71e-5,0.009 0,0.0134 v 3.95532 c 0,0.43837 0.3553751,0.79375 0.79375,0.79375 0.00447,4e-5 0.00897,4e-5 0.013441,0 h 5.278226 v -1.5875 H 4.762514 v -2.38125 h 3.7041667 v -1.5875 h -5.291667 c -0.00447,-4e-5 -0.00897,-4e-5 -0.013441,0 z"
       style="fill:#f827bd;fill-opacity:1;fill-rule:evenodd;stroke:none;stroke-width:1.00542;stroke-linecap:square;stroke-linejoin:round;stroke-miterlimit:4;stroke-dasharray:none;paint-order:markers fill stroke;stop-color:#000000"
       id="rect1025" />
    <path
       id="path1099"
       style="fill:#eaeaea;fill-opacity:1;fill-rule:evenodd;stroke:#000000;stroke-width:0.50270834;stroke-linecap:square;stroke-linejoin:round;stroke-miterlimit:4;stroke-dasharray:none;paint-order:markers fill stroke;stop-color:#000000;stroke-opacity:1"
       d="m 10.054181,279.53749 v 1.5875 H 9.2604305 v 1.5875 h 0.7937505 v 3.96875 h 2.38125 v -3.96875 h 2.910416 v 3.96875 h 2.38125 v -4.7625 c 0,-0.43838 -0.355375,-0.79375 -0.79375,-0.79375 h -4.497916 v -1.5875 z m 18.25625,0 v 1.5875 h -0.79375 v 1.5875 h 0.79375 v 3.43958 c 0,0.43838 0.355375,0.79375 0.79375,0.79375 0.0045,4e-5 0.009,4e-5 0.01344,0 h 1.838642 l 0.529167,-2.38125 h -1.5875 v -1.85208 h 1.058333 v -1.5875 H 29.89793 v -1.5875 z m -3.704167,0.26458 v 1.32292 h -5.027083 c -0.438375,0 -0.79375,0.35537 -0.79375,0.79375 -3.7e-5,0.004 -3.7e-5,0.009 0,0.0134 v 3.95532 c 0,0.43837 0.355375,0.79375 0.79375,0.79375 h 3.96875 l -0.529167,-1.5875 h -1.852083 v -2.38125 h 3.439583 v 3.43958 c 0,0.43838 0.355375,0.79375 0.79375,0.79375 0.0045,4e-5 0.009,4e-5 0.01344,0 h 1.309476 v -2.38125 h -0.529167 v -3.96875 z m -21.4446858,1.32292 c -0.4331203,0.007 -0.7803754,0.36056 -0.7803145,0.79375 -3.71e-5,0.004 -3.71e-5,0.009 0,0.0134 v 3.95532 c 0,0.43837 0.3553751,0.79375 0.79375,0.79375 0.00447,4e-5 0.00897,4e-5 0.013441,0 h 5.278226 v -1.5875 H 4.762514 v -2.38125 h 3.7041667 v -1.5875 h -5.291667 c -0.00447,-4e-5 -0.00897,-4e-5 -0.013441,0 z"
       sodipodi:nodetypes="cccccccccccssccccccccscccccccccccccsccsscccccsccccccccccscccccccccc" />
  </g>
</svg>
