<?xml version="1.0" encoding="UTF-8" standalone="no"?>
<svg
   xmlns:dc="http://purl.org/dc/elements/1.1/"
   xmlns:cc="http://creativecommons.org/ns#"
   xmlns:rdf="http://www.w3.org/1999/02/22-rdf-syntax-ns#"
   xmlns:svg="http://www.w3.org/2000/svg"
   xmlns="http://www.w3.org/2000/svg"
   xmlns:xlink="http://www.w3.org/1999/xlink"
   xmlns:sodipodi="http://sodipodi.sourceforge.net/DTD/sodipodi-0.dtd"
   xmlns:inkscape="http://www.inkscape.org/namespaces/inkscape"
   width="128"
   height="128"
   version="1.1"
   id="svg33"
   sodipodi:docname="xmind.svg"
   inkscape:version="0.92.4 (unknown)">
  <metadata
     id="metadata37">
    <rdf:RDF>
      <cc:Work
         rdf:about="">
        <dc:format>image/svg+xml</dc:format>
        <dc:type
           rdf:resource="http://purl.org/dc/dcmitype/StillImage" />
        <dc:title></dc:title>
      </cc:Work>
    </rdf:RDF>
  </metadata>
  <sodipodi:namedview
     pagecolor="#ffffff"
     bordercolor="#666666"
     borderopacity="1"
     objecttolerance="10"
     gridtolerance="10"
     guidetolerance="10"
     inkscape:pageopacity="0"
     inkscape:pageshadow="2"
     inkscape:window-width="1600"
     inkscape:window-height="728"
     id="namedview35"
     showgrid="false"
     inkscape:zoom="3.984375"
     inkscape:cx="64"
     inkscape:cy="55.374854"
     inkscape:window-x="0"
     inkscape:window-y="0"
     inkscape:window-maximized="1"
     inkscape:current-layer="svg33">
    <inkscape:grid
       type="xygrid"
       id="grid844" />
  </sodipodi:namedview>
  <defs
     id="defs21">
    <linearGradient
       id="linearGradient4168">
      <stop
         style="stop-color:#fcfcfc;stop-opacity:1;"
         offset="0"
         id="stop7" />
      <stop
         style="stop-color:#fbc2bb;stop-opacity:1"
         offset="1"
         id="stop9" />
    </linearGradient>
    <linearGradient
       id="linearGradient4160">
      <stop
         style="stop-color:#c61423;stop-opacity:1;"
         offset="0"
         id="stop12" />
      <stop
         style="stop-color:#f58273;stop-opacity:1"
         offset="1"
         id="stop14" />
    </linearGradient>
    <linearGradient
       xlink:href="#linearGradient4160"
       id="linearGradient4166"
       x1="32.249001"
       y1="42.036999"
       x2="16.546"
       y2="4.902"
       gradientUnits="userSpaceOnUse"
       gradientTransform="scale(2.6666667)" />
    <linearGradient
       xlink:href="#linearGradient4168"
       id="linearGradient4162"
       x1="17.197001"
       y1="11.627"
       x2="27.308001"
       y2="31.452999"
       gradientUnits="userSpaceOnUse"
       gradientTransform="scale(2.6666667)" />
  </defs>
  <g
     id="g944"
     transform="matrix(1.05,0,0,1.05,-3.2000001,-3.2000001)">
    <rect
       id="rect23"
       width="106.66667"
       height="106.66667"
       x="10.666667"
       y="10.666667"
       rx="3.8095262"
       style="fill:url(#linearGradient4166);fill-opacity:1;stroke-width:2.66666675"
       ry="3.8095236" />
    <path
       id="path31"
       d="m 47.813171,40.001419 c -0.176,0.0027 -0.374453,0.0168 -0.6024,0.03176 -0.86392,0.05515 -17.16664,3.107587 -18.204187,3.408694 -1.096933,0.318154 -2.033706,0.990314 -2.262266,1.627989 -0.389733,1.083664 0.739786,4.605541 2.230826,6.970237 5.948331,7.063664 12.552566,8.85848 19.024854,12.664763 0.742827,0.870781 1.036187,1.291115 -4.66192,3.81404 -8.90568,3.943435 -11.7882,7.297472 -13.493854,12.259443 -0.503706,1.466197 -0.73776,5.343416 -0.382613,6.31908 0.460933,1.264733 0.738773,1.519368 9.34344,-0.11288 8.64376,-1.639747 7.928974,-1.735715 8.649827,-2.418656 0.587147,-0.556275 0.62072,-0.690435 0.877147,-3.322363 0.147733,-1.508178 0.452826,-4.453117 0.676666,-5.23328 0.518987,-1.811762 1.824347,-3.703781 3.245974,-4.704434 5.391525,-3.794539 15.539179,-1.902326 21.030485,3.9204 2.069147,2.19396 3.368454,5.325578 4.405387,8.728253 0.59832,1.963304 1.20592,2.815728 2.149493,3.003429 0.868027,0.172427 0.889387,-0.09901 11.8876,-2.187314 6.117867,-1.161635 8.66392,-1.726576 9.02387,-2.006678 0.77333,-0.602325 0.77637,-2.076264 0.005,-4.511746 -1.322079,-4.184704 -3.615786,-6.96652 -7.864346,-10.185091 -2.101814,-1.592248 -4.755814,-3.097584 -9.24944,-5.249315 -4.274107,-2.046629 -6.30971,-2.600344 -6.30971,-3.235928 0,-0.525549 1.678643,-0.759717 5.06899,-1.774128 7.42888,-2.223211 11.008664,-5.341912 11.008664,-11.116528 0,-2.534149 -0.47824,-4.579131 -1.221974,-5.242656 -0.989093,-0.882509 -2.725944,-0.910451 -6.87909,-0.159333 -13.312907,2.407317 -12.396136,2.313469 -13.015443,3.31568 -0.327653,0.530005 -0.313387,0.654386 0.288987,3.06321 0.34496,1.380982 0.622773,3.108579 0.62072,3.509358 -0.0053,0.852397 -1.112744,2.276362 -1.654398,2.784112 -1.32536,1.241669 -4.329653,2.086432 -7.407013,2.086432 -3.72208,0 -6.52648,-1.279472 -9.31208,-4.245934 -2.012859,-2.143485 -3.040432,-4.217736 -4.411712,-8.034394 -1.204187,-3.352115 -1.369334,-3.789051 -2.606907,-3.767544 z"
       style="fill:url(#linearGradient4162);fill-opacity:1;stroke-width:2.72553325;enable-background:new"
       inkscape:connector-curvature="0" />
  </g>
</svg>
