<?xml version="1.0" encoding="UTF-8" standalone="no"?>
<svg
   xmlns:dc="http://purl.org/dc/elements/1.1/"
   xmlns:cc="http://creativecommons.org/ns#"
   xmlns:rdf="http://www.w3.org/1999/02/22-rdf-syntax-ns#"
   xmlns:svg="http://www.w3.org/2000/svg"
   xmlns="http://www.w3.org/2000/svg"
   xmlns:xlink="http://www.w3.org/1999/xlink"
   xmlns:sodipodi="http://sodipodi.sourceforge.net/DTD/sodipodi-0.dtd"
   xmlns:inkscape="http://www.inkscape.org/namespaces/inkscape"
   width="128"
   height="128"
   version="1.1"
   id="svg46"
   sodipodi:docname="xorg.svg"
   inkscape:version="1.0.2 (e86c870879, 2021-01-15)">
  <metadata
     id="metadata50">
    <rdf:RDF>
      <cc:Work
         rdf:about="">
        <dc:format>image/svg+xml</dc:format>
        <dc:type
           rdf:resource="http://purl.org/dc/dcmitype/StillImage" />
        <dc:title></dc:title>
      </cc:Work>
    </rdf:RDF>
  </metadata>
  <sodipodi:namedview
     pagecolor="#ffffff"
     bordercolor="#666666"
     borderopacity="1"
     objecttolerance="10"
     gridtolerance="10"
     guidetolerance="10"
     inkscape:pageopacity="0"
     inkscape:pageshadow="2"
     inkscape:window-width="640"
     inkscape:window-height="480"
     id="namedview48"
     showgrid="false"
     inkscape:snap-page="true"
     inkscape:zoom="1"
     inkscape:cx="64"
     inkscape:cy="64"
     inkscape:current-layer="svg46">
    <inkscape:grid
       type="xygrid"
       id="grid904"
       spacingx="1"
       spacingy="1" />
  </sodipodi:namedview>
  <defs
     id="defs26">
    <linearGradient
       id="a"
       y1="543.77002"
       x1="407.63"
       y2="504.13"
       x2="407.69"
       gradientUnits="userSpaceOnUse"
       gradientTransform="translate(-384.57,-499.8)"
       spreadMethod="pad">
      <stop
         stop-color="#c6cdd1"
         id="stop2" />
      <stop
         offset="1"
         stop-color="#e0e5e7"
         id="stop4" />
    </linearGradient>
    <linearGradient
       id="d"
       y1="26.030001"
       x1="29.438999"
       y2="35.796001"
       x2="38.259998"
       gradientUnits="userSpaceOnUse">
      <stop
         stop-color="#292c2f"
         id="stop7" />
      <stop
         offset="1"
         stop-color="#292c2f"
         stop-opacity="0"
         id="stop9" />
    </linearGradient>
    <linearGradient
       id="LO"
       gradientUnits="userSpaceOnUse"
       x1="319.20801"
       y1="235.149"
       x2="657.65302"
       y2="269.49399">
      <stop
         style="stop-color:#e54c18"
         offset="0"
         id="stop12" />
      <stop
         style="stop-color:#fec350"
         offset="1"
         id="stop14" />
    </linearGradient>
    <linearGradient
       xlink:href="#a"
       id="linearGradient4574"
       x1="25"
       y1="44"
       x2="25"
       y2="4"
       gradientUnits="userSpaceOnUse"
       gradientTransform="scale(2.6666667)" />
    <linearGradient
       xlink:href="#a-5"
       id="linearGradient4582"
       x1="10.973"
       y1="24"
       x2="36.937"
       y2="24"
       gradientUnits="userSpaceOnUse"
       gradientTransform="matrix(2.7731404,0,0,2.6747215,-2.4304528,-0.20971217)" />
    <linearGradient
       xlink:href="#d"
       id="linearGradient4584"
       gradientUnits="userSpaceOnUse"
       x1="29.438999"
       y1="26.030001"
       x2="38.259998"
       y2="35.796001" />
    <linearGradient
       xlink:href="#LO"
       id="linearGradient4586"
       gradientUnits="userSpaceOnUse"
       gradientTransform="matrix(0.23530088,0,0,0.23246048,-50.456547,9.0438945)"
       x1="319.20801"
       y1="235.149"
       x2="657.65302"
       y2="269.49399" />
    <linearGradient
       gradientUnits="userSpaceOnUse"
       x2="0"
       y2="503.79999"
       y1="542.79999"
       id="a-5">
      <stop
         stop-color="#2a2c2f"
         id="stop21" />
      <stop
         stop-color="#424649"
         offset="1"
         id="stop23" />
    </linearGradient>
  </defs>
  <rect
     style="fill:url(#linearGradient4574);fill-opacity:1;stroke-width:2.66667"
     width="112"
     height="112"
     x="8"
     y="8"
     rx="0"
     id="rect28" />
  <g
     style="font-size:12.666px"
     font-size="12.666"
     transform="matrix(2.6666667,0,0,2.6666667,-1025.52,-1332.8)"
     id="g32">
    <text
       style="font-family:'Droid Sans'"
       y="132.19"
       x="730.88"
       id="text30" />
  </g>
  <path
     d="M 28.802471,99.97569 55.987519,65.69353 28,27.999407 45.988663,28.013813 68.28976,57.652834 34.94502,99.97568 Z M 82.011052,100.00004 59.863918,70.310103 93.48632,27.96737 h 5.990581 L 72.180908,62.411276 100,100 Z"
     style="fill:url(#linearGradient4582);fill-opacity:1;stroke-width:2.71809"
     id="path34"
     sodipodi:nodetypes="cccccccccccccc" />
  <rect
     style="opacity:0.407407;fill:#000cff;stroke-width:2.66667"
     height="0"
     width="0.12"
     y="60.080002"
     x="122.61333"
     id="rect36" />
  <g
     id="g42"
     transform="scale(2.6666667)">
    <path
       style="opacity:0.15"
       d="m 3,44.999999 h 41.999999 v -1.5 H 3"
       id="path38"
       sodipodi:nodetypes="cccc" />
  </g>
  <path
     d="m 63.996323,42.477875 c -2.082656,0 -4.307722,0.159307 -6.310794,0.34928 3.568554,4.598064 6.529616,8.491664 9.937429,12.913614 -1.912704,-4.066414 -5.843848,-7.965859 -4.484827,-9.971315 1.345256,-1.985139 3.823891,-1.651008 4.012694,-1.651008 3.973877,0 7.799107,0.443392 11.375328,1.264003 l 0.838259,-1.14051 c -4.769739,-1.21304 -9.950518,-1.764064 -15.368089,-1.764064 z m 21.522678,3.71092 -0.77208,1.089659 c 11.018152,4.262544 18.471119,12.404163 18.471119,21.735056 0,13.739816 -16.1569,24.887798 -36.067215,24.887798 -19.910312,0 -36.074566,-11.147984 -36.074566,-24.887798 3e-6,-7.482381 4.793451,-14.198693 12.375355,-18.76392 l -2.330949,-3.508699 c -11.89355,4.982051 -19.787331,13.726704 -19.787333,23.68191 0,15.489696 19.111725,28.055075 42.662991,28.055075 23.551262,0 42.670347,-12.565376 42.670347,-28.055075 0,-10.328899 -8.499671,-19.362206 -21.147669,-24.234006 z"
     style="fill:url(#linearGradient4586);fill-opacity:1;stroke-width:2.66667"
     id="path44" />
</svg>
