<?xml version="1.0" encoding="UTF-8" standalone="no"?>
<svg
   width="24"
   height="24"
   viewBox="0 0 24 24"
   version="1.1"
   id="svg1"
   sodipodi:docname="kalarm-symbolic.svg"
   inkscape:version="1.3.2 (091e20ef0f, 2023-11-25)"
   xmlns:inkscape="http://www.inkscape.org/namespaces/inkscape"
   xmlns:sodipodi="http://sodipodi.sourceforge.net/DTD/sodipodi-0.dtd"
   xmlns="http://www.w3.org/2000/svg"
   xmlns:svg="http://www.w3.org/2000/svg">
  <defs
     id="defs1" />
  <sodipodi:namedview
     id="namedview1"
     pagecolor="#ffffff"
     bordercolor="#000000"
     borderopacity="0.25"
     inkscape:showpageshadow="2"
     inkscape:pageopacity="0.0"
     inkscape:pagecheckerboard="0"
     inkscape:deskcolor="#d1d1d1"
     inkscape:zoom="34.5"
     inkscape:cx="12"
     inkscape:cy="12"
     inkscape:window-width="1920"
     inkscape:window-height="1094"
     inkscape:window-x="0"
     inkscape:window-y="0"
     inkscape:window-maximized="1"
     inkscape:current-layer="svg1" />
  <style
     type="text/css"
     id="current-color-scheme">.ColorScheme-Text{color:#31363b;}.ColorScheme-Background{color:#eff0f1;}.ColorScheme-Highlight{color:#3daee9;}.ColorScheme-ViewText{color:#31363b;}.ColorScheme-ViewBackground{color:#fcfcfc;}.ColorScheme-ViewHover{color:#93cee9;}.ColorScheme-ViewFocus{color:#3daee9;}.ColorScheme-ButtonText{color:#31363b;}.ColorScheme-ButtonBackground{color:#eff0f1;}.ColorScheme-ButtonHover{color:#93cee9;}.ColorScheme-ButtonFocus { color: #3daee9; } </style>
  <g
     transform="translate(1,1)"
     id="g1">
    <g
       transform="translate(-326,-534.3622) translate(0,2e-05)"
       id="kalarm">
      <rect
         y="534.36218"
         x="326"
         height="22"
         width="22"
         id="rect4178"
         style="opacity:1;fill:none;fill-opacity:1;stroke:none;stroke-width:0.1;stroke-linecap:square;stroke-linejoin:miter;stroke-miterlimit:4;stroke-dasharray:none;stroke-dashoffset:0;stroke-opacity:1" />
      <path
         class="ColorScheme-Text"
         style="fill:#fcfcfc;fill-opacity:1;stroke:none"
         d="m 337,537.3622 a 1.5,1.5 0 0 0 -1.5,1.5 1.5,1.5 0 0 0 0.16797,0.68555 5,5 0 0 0 -3.66797,4.81445 3.5,6 0 0 1 -3,5.93164 l 0,1.02149 0,0.0469 11.08789,0 a 1.5,1.5 0 0 0 -0.0879,0.5 1.5,1.5 0 0 0 1.5,1.5 1.5,1.5 0 0 0 1.5,-1.5 1.5,1.5 0 0 0 -0.0879,-0.5 l 2.08789,0 0,-0.0469 0,-1.02148 a 3.5,6 0 0 1 -3,-5.93165 5,5 0 0 0 -3.66602,-4.81836 1.5,1.5 0 0 0 0.16602,-0.68164 1.5,1.5 0 0 0 -1.5,-1.5 z m 0,3 a 4,4 0 0 1 4,4 4.5,7 0 0 0 2.19531,6 l -12.39062,0 a 4.5,7 0 0 0 2.19531,-6 4,4 0 0 1 4,-4 z"
         id="path4183" />
    </g>
  </g>
</svg>
