<?xml version="1.0" encoding="UTF-8" standalone="no"?>
<svg
   xmlns:dc="http://purl.org/dc/elements/1.1/"
   xmlns:cc="http://creativecommons.org/ns#"
   xmlns:rdf="http://www.w3.org/1999/02/22-rdf-syntax-ns#"
   xmlns:svg="http://www.w3.org/2000/svg"
   xmlns="http://www.w3.org/2000/svg"
   xmlns:xlink="http://www.w3.org/1999/xlink"
   xmlns:sodipodi="http://sodipodi.sourceforge.net/DTD/sodipodi-0.dtd"
   xmlns:inkscape="http://www.inkscape.org/namespaces/inkscape"
   width="128"
   height="128"
   viewBox="0 0 33.866666 33.866668"
   version="1.1"
   id="svg8"
   inkscape:version="1.0 (4035a4fb49, 2020-05-01)"
   sodipodi:docname="drive-harddisk.svg">
  <defs
     id="defs2">
    <linearGradient
       id="linearGradient1568"
       inkscape:collect="always">
      <stop
         id="stop1564"
         offset="0"
         style="stop-color:#595959;stop-opacity:1" />
      <stop
         id="stop1566"
         offset="1"
         style="stop-color:#a5a5a5;stop-opacity:1" />
    </linearGradient>
    <linearGradient
       inkscape:collect="always"
       id="linearGradient1562">
      <stop
         style="stop-color:#595959;stop-opacity:1"
         offset="0"
         id="stop1558" />
      <stop
         style="stop-color:#000000;stop-opacity:0;"
         offset="1"
         id="stop1560" />
    </linearGradient>
    <linearGradient
       id="linearGradient1538"
       inkscape:collect="always">
      <stop
         id="stop1534"
         offset="0"
         style="stop-color:#000000;stop-opacity:1;" />
      <stop
         id="stop1536"
         offset="1"
         style="stop-color:#000000;stop-opacity:0;" />
    </linearGradient>
    <linearGradient
       inkscape:collect="always"
       id="linearGradient1091">
      <stop
         style="stop-color:#333333;stop-opacity:1"
         offset="0"
         id="stop1086" />
      <stop
         style="stop-color:#a5a5a5;stop-opacity:1"
         offset="1"
         id="stop1089" />
    </linearGradient>
    <linearGradient
       inkscape:collect="always"
       id="linearGradient1068">
      <stop
         style="stop-color:#c2e7e7;stop-opacity:1"
         offset="0"
         id="stop1064" />
      <stop
         style="stop-color:#318080;stop-opacity:1"
         offset="1"
         id="stop1066" />
    </linearGradient>
    <linearGradient
       inkscape:collect="always"
       id="linearGradient4541">
      <stop
         style="stop-color:#ffeeca;stop-opacity:1"
         offset="0"
         id="stop4537" />
      <stop
         style="stop-color:#da9f33;stop-opacity:1"
         offset="1"
         id="stop4539" />
    </linearGradient>
    <linearGradient
       inkscape:collect="always"
       xlink:href="#linearGradient4541"
       id="linearGradient4549"
       gradientUnits="userSpaceOnUse"
       x1="2.6458335"
       y1="290.12082"
       x2="6.8791666"
       y2="294.35416"
       gradientTransform="matrix(2,0,0,1.9999994,33.866668,-296.99983)" />
    <linearGradient
       inkscape:collect="always"
       xlink:href="#linearGradient4541"
       id="linearGradient4623"
       x1="2.778125"
       y1="290.25311"
       x2="6.7468753"
       y2="294.22186"
       gradientUnits="userSpaceOnUse"
       gradientTransform="matrix(2,0,0,1.9999994,33.866668,-296.99983)" />
    <linearGradient
       gradientUnits="userSpaceOnUse"
       x2="0"
       y2="7"
       y1="41"
       id="a">
      <stop
         id="stop1078"
         stop-color="#728790"
         style="stop-color:#667f98;stop-opacity:1" />
      <stop
         id="stop1080"
         stop-color="#85969e"
         offset="1"
         style="stop-color:#98cce8;stop-opacity:1" />
    </linearGradient>
    <linearGradient
       gradientUnits="userSpaceOnUse"
       x2="0"
       y2="12"
       y1="36"
       id="b">
      <stop
         id="stop1083"
         stop-color="#06a370" />
      <stop
         id="stop1085"
         stop-color="#22d1b0"
         offset="1" />
    </linearGradient>
    <linearGradient
       gradientUnits="userSpaceOnUse"
       x2="0"
       y2="4"
       y1="44"
       id="c">
      <stop
         id="stop1088"
         stop-color="#2a2c2f" />
      <stop
         id="stop1090"
         stop-color="#424649"
         offset="1" />
    </linearGradient>
    <linearGradient
       gradientUnits="userSpaceOnUse"
       x2="44"
       y2="44"
       x1="15"
       y1="15"
       id="d">
      <stop
         id="stop1093"
         stop-color="#020303" />
      <stop
         id="stop1095"
         stop-opacity="0"
         stop-color="#424649"
         offset="1" />
    </linearGradient>
    <linearGradient
       inkscape:collect="always"
       xlink:href="#a"
       id="linearGradient1040"
       x1="24"
       y1="112"
       x2="88"
       y2="112"
       gradientUnits="userSpaceOnUse" />
    <linearGradient
       inkscape:collect="always"
       xlink:href="#linearGradient1068"
       id="linearGradient1070"
       x1="5.291667"
       y1="288.53333"
       x2="10.583334"
       y2="293.82498"
       gradientUnits="userSpaceOnUse" />
    <linearGradient
       inkscape:collect="always"
       xlink:href="#linearGradient1091"
       id="linearGradient1078"
       x1="6.3500004"
       y1="267.36667"
       x2="27.516666"
       y2="292.76666"
       gradientUnits="userSpaceOnUse" />
    <linearGradient
       inkscape:collect="always"
       xlink:href="#linearGradient4541"
       id="linearGradient4723-6"
       gradientUnits="userSpaceOnUse"
       x1="2.778125"
       y1="290.25311"
       x2="6.7468753"
       y2="294.22186"
       gradientTransform="matrix(5.5000004,0,0,5.5000012,-9.2604173,-1329.8857)" />
    <radialGradient
       inkscape:collect="always"
       xlink:href="#linearGradient4639"
       id="radialGradient4633"
       gradientUnits="userSpaceOnUse"
       cx="6.2177086"
       cy="292.36978"
       fx="6.2177086"
       fy="292.36978"
       r="2.1166666"
       gradientTransform="matrix(5.5000004,0,0,5.5000012,-9.2604157,-1329.8873)" />
    <linearGradient
       id="linearGradient4639"
       inkscape:collect="always">
      <stop
         id="stop4635"
         offset="0"
         style="stop-color:#ffeeca;stop-opacity:1" />
      <stop
         id="stop4637"
         offset="1"
         style="stop-color:#da9f33;stop-opacity:0" />
    </linearGradient>
    <linearGradient
       gradientTransform="matrix(1.3750001,0,0,1.3750003,-9.2604172,-102.57763)"
       inkscape:collect="always"
       xlink:href="#linearGradient901"
       id="linearGradient903"
       x1="16.404167"
       y1="273.71667"
       x2="21.695833"
       y2="279.00833"
       gradientUnits="userSpaceOnUse" />
    <linearGradient
       inkscape:collect="always"
       id="linearGradient901">
      <stop
         style="stop-color:#fefefe;stop-opacity:1"
         offset="0"
         id="stop897" />
      <stop
         style="stop-color:#b1b1b1;stop-opacity:0.99607843"
         offset="1"
         id="stop899" />
    </linearGradient>
    <linearGradient
       gradientUnits="userSpaceOnUse"
       y2="275.20444"
       x2="15.602973"
       y1="275.20444"
       x1="14.14774"
       id="linearGradient1518"
       xlink:href="#linearGradient1568"
       inkscape:collect="always" />
    <linearGradient
       gradientUnits="userSpaceOnUse"
       y2="277.26236"
       x2="14.750521"
       y1="277.26236"
       x1="13.295313"
       id="linearGradient1520"
       xlink:href="#linearGradient1568"
       inkscape:collect="always" />
    <linearGradient
       gradientUnits="userSpaceOnUse"
       y2="279.32031"
       x2="15.602869"
       y1="279.32031"
       x1="14.147676"
       id="linearGradient1522"
       xlink:href="#linearGradient1568"
       inkscape:collect="always" />
    <linearGradient
       gradientUnits="userSpaceOnUse"
       y2="280.17279"
       x2="17.660938"
       y1="280.17279"
       x1="16.205729"
       id="linearGradient1524"
       xlink:href="#linearGradient1568"
       inkscape:collect="always" />
    <linearGradient
       gradientUnits="userSpaceOnUse"
       y2="279.32031"
       x2="19.718834"
       y1="279.32031"
       x1="18.263634"
       id="linearGradient1526"
       xlink:href="#linearGradient1568"
       inkscape:collect="always" />
    <linearGradient
       gradientUnits="userSpaceOnUse"
       y2="277.26233"
       x2="20.571356"
       y1="277.26233"
       x1="19.116146"
       id="linearGradient1528"
       xlink:href="#linearGradient1568"
       inkscape:collect="always" />
    <linearGradient
       gradientUnits="userSpaceOnUse"
       y2="275.20435"
       x2="19.718821"
       y1="275.20435"
       x1="18.263626"
       id="linearGradient1530"
       xlink:href="#linearGradient1568"
       inkscape:collect="always" />
    <linearGradient
       gradientUnits="userSpaceOnUse"
       y2="277.26227"
       x2="18.38854"
       y1="277.26227"
       x1="15.478127"
       id="linearGradient1532"
       xlink:href="#linearGradient1568"
       inkscape:collect="always" />
    <linearGradient
       gradientUnits="userSpaceOnUse"
       y2="274.35204"
       x2="17.660938"
       y1="274.35204"
       x1="16.205729"
       id="linearGradient1540"
       xlink:href="#linearGradient1562"
       inkscape:collect="always" />
    <linearGradient
       gradientUnits="userSpaceOnUse"
       y2="275.20443"
       x2="15.602973"
       y1="275.20443"
       x1="14.14774"
       id="linearGradient1542"
       xlink:href="#linearGradient1538"
       inkscape:collect="always" />
    <linearGradient
       gradientUnits="userSpaceOnUse"
       y2="277.26235"
       x2="14.750521"
       y1="277.26235"
       x1="13.295313"
       id="linearGradient1544"
       xlink:href="#linearGradient1538"
       inkscape:collect="always" />
    <linearGradient
       gradientUnits="userSpaceOnUse"
       y2="279.3203"
       x2="15.602869"
       y1="279.3203"
       x1="14.147676"
       id="linearGradient1546"
       xlink:href="#linearGradient1538"
       inkscape:collect="always" />
    <linearGradient
       gradientUnits="userSpaceOnUse"
       y2="280.17278"
       x2="17.660938"
       y1="280.17278"
       x1="16.205729"
       id="linearGradient1548"
       xlink:href="#linearGradient1538"
       inkscape:collect="always" />
    <linearGradient
       gradientUnits="userSpaceOnUse"
       y2="279.32031"
       x2="19.718833"
       y1="279.32031"
       x1="18.263634"
       id="linearGradient1550"
       xlink:href="#linearGradient1538"
       inkscape:collect="always" />
    <linearGradient
       gradientUnits="userSpaceOnUse"
       y2="277.26234"
       x2="20.571355"
       y1="277.26234"
       x1="19.116146"
       id="linearGradient1552"
       xlink:href="#linearGradient1538"
       inkscape:collect="always" />
    <linearGradient
       gradientUnits="userSpaceOnUse"
       y2="275.20435"
       x2="19.71882"
       y1="275.20435"
       x1="18.263626"
       id="linearGradient1554"
       xlink:href="#linearGradient1538"
       inkscape:collect="always" />
    <linearGradient
       y2="274.35204"
       x2="17.660938"
       y1="274.35204"
       x1="16.205729"
       gradientUnits="userSpaceOnUse"
       id="linearGradient1570"
       xlink:href="#linearGradient1568"
       inkscape:collect="always" />
  </defs>
  <sodipodi:namedview
     id="base"
     pagecolor="#ffffff"
     bordercolor="#666666"
     borderopacity="1.0"
     inkscape:pageopacity="0.0"
     inkscape:pageshadow="2"
     inkscape:zoom="1.4199219"
     inkscape:cx="-68.078107"
     inkscape:cy="137.13607"
     inkscape:document-units="px"
     inkscape:current-layer="layer1"
     inkscape:document-rotation="0"
     showgrid="false"
     units="px"
     inkscape:snap-grids="true"
     inkscape:snap-to-guides="false"
     inkscape:snap-global="true"
     inkscape:snap-intersection-paths="true"
     inkscape:object-nodes="true"
     inkscape:snap-others="true"
     inkscape:snap-bbox="true"
     inkscape:bbox-nodes="true"
     inkscape:window-width="1920"
     inkscape:window-height="1143"
     inkscape:window-x="0"
     inkscape:window-y="0"
     inkscape:window-maximized="1"
     inkscape:snap-nodes="true"
     inkscape:snap-center="true"
     inkscape:snap-tangential="true"
     inkscape:snap-smooth-nodes="true"
     inkscape:object-paths="true"
     inkscape:snap-object-midpoints="true"
     inkscape:snap-bbox-edge-midpoints="true">
    <inkscape:grid
       type="xygrid"
       id="grid4267"
       spacingx="0.26458334"
       spacingy="0.26458334" />
  </sodipodi:namedview>
  <metadata
     id="metadata5">
    <rdf:RDF>
      <cc:Work
         rdf:about="">
        <dc:format>image/svg+xml</dc:format>
        <dc:type
           rdf:resource="http://purl.org/dc/dcmitype/StillImage" />
        <dc:title></dc:title>
      </cc:Work>
    </rdf:RDF>
  </metadata>
  <g
     inkscape:label="Layer 1"
     inkscape:groupmode="layer"
     id="layer1"
     transform="translate(0,-263.13333)">
    <path
       id="rect982"
       style="fill:url(#linearGradient1078);fill-opacity:1;stroke-width:0.502708;stroke-linecap:round;stroke-linejoin:round;stroke-dasharray:1.00542, 1.00542;paint-order:markers fill stroke;stop-color:#000000"
       d="M 4.2333336,264.19165 H 29.633333 v 31.75001 H 4.2333336 Z" />
    <circle
       r="0"
       cy="287.47495"
       cx="43.391666"
       id="ellipse4551"
       style="fill:#ffeeca;fill-opacity:1;stroke:none;stroke-width:0.370416;stroke-linecap:round;paint-order:markers stroke fill" />
    <circle
       r="0"
       cy="287.47495"
       cx="43.391666"
       id="ellipse4553"
       style="fill:url(#linearGradient4549);fill-opacity:1;stroke:#000000;stroke-width:0.370416;stroke-linecap:round;paint-order:markers stroke fill" />
    <path
       cx="4.7624998"
       cy="292.23749"
       r="2.1166666"
       style="fill:url(#linearGradient4623);fill-opacity:1;stroke:none;stroke-width:0.370416;stroke-linecap:round;paint-order:markers stroke fill"
       id="path4625"
       d=""
       inkscape:connector-curvature="0" />
    <path
       id="path1094"
       style="fill:#000000;fill-opacity:0.2;stroke:none;stroke-width:0.0264583;stroke-linecap:round;stroke-linejoin:round;stroke-miterlimit:4;stroke-dasharray:none;stroke-opacity:0.5;paint-order:markers fill stroke;stop-color:#000000"
       d="M 29.104167,277.42083 A 11.641667,11.641667 0 0 1 17.4625,289.0625 11.641667,11.641667 0 0 1 5.8208329,277.42083 11.641667,11.641667 0 0 1 17.4625,265.77916 11.641667,11.641667 0 0 1 29.104167,277.42083 Z" />
    <path
       style="fill:url(#linearGradient4723-6);fill-opacity:1;stroke:none;stroke-width:1.01865;stroke-linecap:round;paint-order:markers stroke fill"
       d="M 28.575,277.42084 A 11.641667,11.641669 0 0 1 16.933333,289.0625 11.641667,11.641669 0 0 1 5.2916667,277.42084 11.641667,11.641669 0 0 1 16.933333,265.77916 11.641667,11.641669 0 0 1 28.575,277.42084 Z"
       id="circle4557-3" />
    <path
       style="fill:url(#radialGradient4633);fill-opacity:1;stroke:none;stroke-width:1.01865;stroke-linecap:round;paint-order:markers stroke fill"
       d="M 28.575,277.42084 A 11.641667,11.641669 0 0 1 16.933333,289.0625 11.641667,11.641669 0 0 1 5.2916667,277.42084 11.641667,11.641669 0 0 1 16.933333,265.77916 11.641667,11.641669 0 0 1 28.575,277.42084 Z"
       id="circle4629-5"
       inkscape:connector-curvature="0" />
    <path
       d="m 21.29896,277.42084 a 4.3656254,4.3656259 0 0 1 -4.365626,4.36562 4.3656254,4.3656259 0 0 1 -4.365625,-4.36562 4.3656254,4.3656259 0 0 1 4.365625,-4.36563 4.3656254,4.3656259 0 0 1 4.365626,4.36563"
       style="fill:url(#linearGradient903);fill-opacity:1;stroke:none;stroke-width:0.436563;stroke-linecap:round;stroke-miterlimit:4;stroke-dasharray:none;stroke-opacity:0.5;paint-order:markers stroke fill"
       id="circle895" />
    <path
       inkscape:connector-curvature="0"
       style="fill:#ffffff;fill-opacity:0.183857;stroke:none;stroke-width:0.436563;stroke-linecap:round;stroke-miterlimit:4;stroke-dasharray:none;stroke-opacity:1;paint-order:markers stroke fill"
       d="m 23.694936,267.95349 -4.226355,5.91751 a 4.365625,4.3656257 0 0 1 1.011824,1.01464 l 5.914626,-4.22351 a 11.641667,11.641668 0 0 0 -2.700095,-2.70864 z"
       id="path4559" />
    <path
       inkscape:connector-curvature="0"
       style="fill:#ffffff;fill-opacity:0.183857;stroke:none;stroke-width:0.436563;stroke-linecap:round;stroke-miterlimit:4;stroke-dasharray:none;stroke-opacity:1;paint-order:markers stroke fill"
       d="m 13.386263,279.95614 -5.9146257,4.22351 a 11.641667,11.641668 0 0 0 2.7000947,2.70864 l 4.226356,-5.91745 a 4.365625,4.3656257 0 0 1 -1.011825,-1.0147 z"
       id="path4561" />
    <path
       inkscape:connector-curvature="0"
       style="fill:#ffffff;fill-opacity:0.237668;stroke:none;stroke-width:0.436563;stroke-linecap:round;stroke-miterlimit:4;stroke-dasharray:none;stroke-opacity:1;paint-order:markers stroke fill"
       d="m 10.950495,267.4476 a 11.641667,11.641668 0 0 0 -3.9876119,3.99047 l 6.2329539,3.74033 a 4.365625,4.3656257 0 0 1 1.492156,-1.49787 z m 9.720337,12.21578 a 4.365625,4.3656257 0 0 1 -1.494999,1.49787 l 3.74034,6.23293 a 11.641667,11.641668 0 0 0 3.987612,-3.99042 z"
       id="path4595-6" />
    <path
       inkscape:connector-curvature="0"
       style="fill:#ffffff;fill-opacity:0.237668;stroke:none;stroke-width:0.436563;stroke-linecap:round;stroke-miterlimit:4;stroke-dasharray:none;stroke-opacity:1;paint-order:markers stroke fill"
       d="m 10.174574,267.95921 a 11.641667,11.641668 0 0 0 -2.708621,2.70006 l 5.917468,4.22637 a 4.365625,4.3656257 0 0 1 1.014667,-1.01184 z m 10.308673,11.99693 a 4.365625,4.3656257 0 0 1 -1.014666,1.01184 l 4.223514,5.91459 a 11.641667,11.641668 0 0 0 2.70862,-2.70006 z"
       id="path4593-2" />
    <path
       inkscape:connector-curvature="0"
       style="fill:#ffffff;fill-opacity:0.237668;stroke:none;stroke-width:0.436563;stroke-linecap:round;stroke-miterlimit:4;stroke-dasharray:none;stroke-opacity:1;paint-order:markers stroke fill"
       d="m 9.4213902,268.54183 a 11.641667,11.641668 0 0 0 -1.3756271,1.35861 l 5.5536649,4.70101 a 4.365625,4.3656257 0 0 1 0.517281,-0.50875 z M 20.26724,280.24038 a 4.365625,4.3656257 0 0 1 -0.517281,0.50875 l 4.69532,5.55082 a 11.641667,11.641668 0 0 0 1.375629,-1.35855 z"
       id="path4597-9" />
    <g
       transform="translate(0,0.15843)"
       id="g1433">
      <path
         id="path4275"
         d="m 18.38854,277.26227 a 1.4552067,1.4551603 0 0 1 -1.455207,1.45516 1.4552067,1.4551603 0 0 1 -1.455206,-1.45516 1.4552067,1.4551603 0 0 1 1.455206,-1.45517 1.4552067,1.4551603 0 0 1 1.455207,1.45517 z"
         style="fill:url(#linearGradient1532);fill-opacity:1.0;stroke:none;stroke-width:1.01865;stroke-linecap:round;paint-order:markers stroke fill" />
      <path
         style="fill:url(#linearGradient1570);fill-opacity:1;stroke:url(#linearGradient1540);stroke-width:0;stroke-linecap:round;stroke-miterlimit:4;stroke-dasharray:none;stroke-opacity:0.713005;paint-order:markers stroke fill"
         d="m 17.660938,274.35202 a 0.72760418,0.72760429 0 0 1 -0.727604,0.72765 0.72760418,0.72760429 0 0 1 -0.727605,-0.72765 0.72760418,0.72760429 0 0 1 0.727605,-0.7276 0.72760418,0.72760429 0 0 1 0.727604,0.7276 z"
         id="path4490" />
      <path
         style="fill:url(#linearGradient1524);fill-opacity:1.0;stroke:url(#linearGradient1548);stroke-width:0;stroke-linecap:round;stroke-miterlimit:4;stroke-dasharray:none;stroke-opacity:0.713005;paint-order:markers stroke fill"
         d="m 17.660938,280.17278 a 0.72760418,0.72760429 0 0 1 -0.727604,0.7276 0.72760418,0.72760429 0 0 1 -0.727605,-0.7276 0.72760418,0.72760429 0 0 1 0.727605,-0.72759 0.72760418,0.72760429 0 0 1 0.727604,0.72759 z"
         id="path4492" />
      <path
         style="fill:url(#linearGradient1520);fill-opacity:1.0;stroke:url(#linearGradient1544);stroke-width:0;stroke-linecap:round;stroke-miterlimit:4;stroke-dasharray:none;stroke-opacity:0.713005;paint-order:markers stroke fill"
         d="m 14.750521,277.26235 a 0.72760418,0.72760429 0 0 1 -0.727605,0.72759 0.72760418,0.72760429 0 0 1 -0.727603,-0.72759 0.72760418,0.72760429 0 0 1 0.727603,-0.7276 0.72760418,0.72760429 0 0 1 0.727605,0.7276 z"
         id="path4494" />
      <path
         style="fill:url(#linearGradient1528);fill-opacity:1.0;stroke:url(#linearGradient1552);stroke-width:0;stroke-linecap:round;stroke-miterlimit:4;stroke-dasharray:none;stroke-opacity:0.713005;paint-order:markers stroke fill"
         d="m 20.571355,277.26235 a 0.72760418,0.72760429 0 0 1 -0.727604,0.72759 0.72760418,0.72760429 0 0 1 -0.727605,-0.72759 0.72760418,0.72760429 0 0 1 0.727605,-0.7276 0.72760418,0.72760429 0 0 1 0.727604,0.7276 z"
         id="path4496" />
      <path
         style="fill:url(#linearGradient1518);fill-opacity:1.0;stroke:url(#linearGradient1542);stroke-width:0;stroke-linecap:round;stroke-miterlimit:4;stroke-dasharray:none;stroke-opacity:0.713005;paint-order:markers stroke fill"
         d="m 15.389831,274.68992 a 0.72760417,0.72760428 0 0 1 3.2e-5,1.02902 0.72760417,0.72760428 0 0 1 -1.02902,-3e-5 0.72760417,0.72760428 0 0 1 7e-6,-1.02898 0.72760417,0.72760428 0 0 1 1.028981,-1e-5 z"
         id="circle4664" />
      <path
         style="fill:url(#linearGradient1526);fill-opacity:1.0;stroke:url(#linearGradient1550);stroke-width:0;stroke-linecap:round;stroke-miterlimit:4;stroke-dasharray:none;stroke-opacity:0.713005;paint-order:markers stroke fill"
         d="m 19.50573,278.80582 a 0.72760417,0.72760428 0 0 1 -6e-6,1.02898 0.72760417,0.72760428 0 0 1 -1.028982,1e-5 0.72760417,0.72760428 0 0 1 7e-6,-1.02899 0.72760417,0.72760428 0 0 1 1.028981,0 z"
         id="circle4666" />
      <path
         style="fill:url(#linearGradient1522);fill-opacity:1.0;stroke:url(#linearGradient1546);stroke-width:0;stroke-linecap:round;stroke-miterlimit:4;stroke-dasharray:none;stroke-opacity:0.713005;paint-order:markers stroke fill"
         d="m 15.389766,278.80581 a 0.72760417,0.72760428 0 0 1 -6e-6,1.02898 0.72760417,0.72760428 0 0 1 -1.028981,0 0.72760417,0.72760428 0 0 1 6e-6,-1.02898 0.72760417,0.72760428 0 0 1 1.028981,0 z"
         id="circle4668" />
      <path
         style="fill:url(#linearGradient1530);fill-opacity:1.0;stroke:url(#linearGradient1554);stroke-width:0;stroke-linecap:round;stroke-miterlimit:4;stroke-dasharray:none;stroke-opacity:0.713005;paint-order:markers stroke fill"
         d="m 19.505717,274.68985 a 0.72760417,0.72760428 0 0 1 -6e-6,1.02898 0.72760417,0.72760428 0 0 1 -1.028982,10e-6 0.72760417,0.72760428 0 0 1 7e-6,-1.02898 0.72760417,0.72760428 0 0 1 1.028981,-1e-5 z"
         id="circle4670" />
    </g>
    <path
       style="fill:url(#linearGradient1070);fill-opacity:1;stroke:none;stroke-width:0.264583px;stroke-linecap:butt;stroke-linejoin:miter;stroke-opacity:1"
       d="m 4.2333334,287.475 h 3.1750001 l 7.4083335,5.29166 v 3.175 l -10.5833336,0 z"
       id="path1062"
       sodipodi:nodetypes="cccccc" />
    <path
       sodipodi:nodetypes="csccccccc"
       d="m 7.9059025,290.42289 c -1.0020025,0.60213 -1.3261648,1.90253 -0.7240362,2.90453 0.6021286,1.00201 1.9025332,1.32617 2.9045357,0.72404 0.06728,-0.0406 0.132253,-0.0849 0.194615,-0.13263 l 11.282757,-8.62072 c 0.213978,-0.16356 0.270963,-0.46174 0.13238,-0.69268 -0.138745,-0.23108 -0.429,-0.32094 -0.674042,-0.2087 l -12.8932212,5.90964 c -0.076573,0.0344 -0.1510351,0.0733 -0.2229883,0.11652 z"
       style="fill:#000000;fill-opacity:0.2;stroke-width:0.502708;stroke-linecap:round;stroke-linejoin:round;stroke-dasharray:1.00542, 1.00541999999999998;paint-order:markers fill stroke;stop-color:#000000"
       id="path1100" />
    <g
       id="g1047"
       inkscape:transform-center-x="-5.3292424"
       transform="rotate(-31.002709,6.5587254,292.2375)"
       inkscape:transform-center-y="-2.885802">
      <path
         sodipodi:nodetypes="csccccccc"
         transform="matrix(0.26458334,0,0,0.26458334,0,263.13333)"
         d="m 32,104 c -4.418278,0 -8,3.58172 -8,8 0,4.41828 3.581722,8 8,8 0.296937,-4.2e-4 0.59362,-0.0174 0.888672,-0.0508 l 53.333984,-5.96289 C 87.234265,113.87301 87.99937,113.01794 88,112 c 3.63e-4,-1.01868 -0.764995,-1.87487 -1.777344,-1.98828 L 32.949219,104.05664 C 32.634216,104.01896 32.31725,104.00004 32,104 Z"
         style="fill:url(#linearGradient1040);fill-opacity:1;stroke-width:1.9;stroke-linecap:round;stroke-linejoin:round;stroke-dasharray:3.80001, 3.80001;paint-order:markers fill stroke;stop-color:#000000"
         id="path1017" />
      <path
         d="m 8.9958339,292.76666 a 0.5291667,0.5291667 0 0 1 -0.5291667,0.52917 0.5291667,0.5291667 0 0 1 -0.5291667,-0.52917 0.5291667,0.5291667 0 0 1 0.5291667,-0.52916 0.5291667,0.5291667 0 0 1 0.5291667,0.52916 z"
         style="fill:#f7f7f7;fill-opacity:1;stroke:none;stroke-width:0.0264583;stroke-linecap:round;stroke-linejoin:round;stroke-miterlimit:4;stroke-dasharray:none;stroke-opacity:1;paint-order:markers fill stroke;stop-color:#000000"
         id="path1030" />
      <path
         d="m 23.018751,292.76666 a 0.26458335,0.26458335 0 0 1 -0.264583,0.26459 0.26458335,0.26458335 0 0 1 -0.264584,-0.26459 0.26458335,0.26458335 0 0 1 0.264584,-0.26458 0.26458335,0.26458335 0 0 1 0.264583,0.26458 z"
         style="fill:#cc003f;fill-opacity:1;stroke:none;stroke-width:0.0264583;stroke-linecap:round;stroke-linejoin:round;stroke-miterlimit:4;stroke-dasharray:none;stroke-opacity:1;paint-order:markers fill stroke;stop-color:#000000"
         id="path1032" />
    </g>
    <path
       id="path1469"
       d="M 16.933594 272.83789 C 14.404556 272.83789 12.349607 274.89088 12.349609 277.41992 C 12.349613 279.94896 14.40456 282.00391 16.933594 282.00391 C 19.434277 282.00391 21.456591 279.98997 21.501953 277.5 A 0.21828149 0.21828149 0 0 0 21.517578 277.41992 A 0.21828149 0.21828149 0 0 0 21.5 277.33789 C 21.453384 274.84902 19.433481 272.83789 16.933594 272.83789 z M 16.933594 273.27344 C 19.226696 273.27344 21.08008 275.12682 21.080078 277.41992 C 21.080075 279.71302 19.226692 281.56836 16.933594 281.56836 C 14.640496 281.56836 12.785159 279.71302 12.785156 277.41992 C 12.785154 275.12682 14.640492 273.27344 16.933594 273.27344 z "
       style="color:#000000;font-style:normal;font-variant:normal;font-weight:normal;font-stretch:normal;font-size:medium;line-height:normal;font-family:sans-serif;font-variant-ligatures:normal;font-variant-position:normal;font-variant-caps:normal;font-variant-numeric:normal;font-variant-alternates:normal;font-variant-east-asian:normal;font-feature-settings:normal;font-variation-settings:normal;text-indent:0;text-align:start;text-decoration:none;text-decoration-line:none;text-decoration-style:solid;text-decoration-color:#000000;letter-spacing:normal;word-spacing:normal;text-transform:none;writing-mode:lr-tb;direction:ltr;text-orientation:mixed;dominant-baseline:auto;baseline-shift:baseline;text-anchor:start;white-space:normal;shape-padding:0;shape-margin:0;inline-size:0;clip-rule:nonzero;display:inline;overflow:visible;visibility:visible;isolation:auto;mix-blend-mode:normal;color-interpolation:sRGB;color-interpolation-filters:linearRGB;solid-color:#000000;solid-opacity:1;vector-effect:none;fill:#785c2a;fill-opacity:1;fill-rule:nonzero;stroke:none;stroke-width:0.436563;stroke-linecap:round;stroke-linejoin:miter;stroke-miterlimit:4;stroke-dasharray:none;stroke-dashoffset:0;stroke-opacity:1;paint-order:markers stroke fill;color-rendering:auto;image-rendering:auto;shape-rendering:auto;text-rendering:auto;enable-background:accumulate;stop-color:#000000;stop-opacity:1;opacity:1" />
  </g>
</svg>
