<?xml version="1.0" encoding="UTF-8" standalone="no"?>
<svg
   xmlns:dc="http://purl.org/dc/elements/1.1/"
   xmlns:cc="http://creativecommons.org/ns#"
   xmlns:rdf="http://www.w3.org/1999/02/22-rdf-syntax-ns#"
   xmlns:svg="http://www.w3.org/2000/svg"
   xmlns="http://www.w3.org/2000/svg"
   xmlns:xlink="http://www.w3.org/1999/xlink"
   xmlns:sodipodi="http://sodipodi.sourceforge.net/DTD/sodipodi-0.dtd"
   xmlns:inkscape="http://www.inkscape.org/namespaces/inkscape"
   width="128"
   height="128"
   viewBox="0 0 33.866666 33.866666"
   version="1.1"
   id="svg8"
   inkscape:version="1.0.2 (e86c870879, 2021-01-15)"
   sodipodi:docname="preferences-devices-drive-optical-check.svg">
  <defs
     id="defs2">
    <linearGradient
       inkscape:collect="always"
       id="linearGradient4590">
      <stop
         style="stop-color:#b2eab4;stop-opacity:1"
         offset="0"
         id="stop4586" />
      <stop
         style="stop-color:#fababc;stop-opacity:1"
         offset="1"
         id="stop4588" />
    </linearGradient>
    <linearGradient
       id="linearGradient4547"
       inkscape:collect="always">
      <stop
         id="stop4543"
         offset="0"
         style="stop-color:#b2eab4;stop-opacity:1" />
      <stop
         id="stop4545"
         offset="1"
         style="stop-color:#fababc;stop-opacity:1" />
    </linearGradient>
    <linearGradient
       inkscape:collect="always"
       id="linearGradient4529">
      <stop
         style="stop-color:#ffffff;stop-opacity:0.49019608"
         offset="0"
         id="stop4525" />
      <stop
         id="stop4533"
         offset="0.5"
         style="stop-color:#ffffff;stop-opacity:0" />
      <stop
         style="stop-color:#ffffff;stop-opacity:0.49019608"
         offset="1"
         id="stop4527" />
    </linearGradient>
    <linearGradient
       inkscape:collect="always"
       id="linearGradient4432">
      <stop
         style="stop-color:#036a67;stop-opacity:1"
         offset="0"
         id="stop4428" />
      <stop
         style="stop-color:#024244;stop-opacity:1"
         offset="1"
         id="stop4430" />
    </linearGradient>
    <linearGradient
       inkscape:collect="always"
       id="linearGradient4422">
      <stop
         style="stop-color:#cafffd;stop-opacity:1"
         offset="0"
         id="stop4418" />
      <stop
         style="stop-color:#09acae;stop-opacity:1"
         offset="1"
         id="stop4420" />
    </linearGradient>
    <linearGradient
       inkscape:collect="always"
       xlink:href="#linearGradient4590"
       id="linearGradient4515"
       x1="-22"
       y1="8.0000019"
       x2="-13.999999"
       y2="16.000002"
       gradientUnits="userSpaceOnUse" />
    <linearGradient
       inkscape:collect="always"
       xlink:href="#linearGradient4529"
       id="linearGradient4531"
       x1="-34"
       y1="12"
       x2="-2"
       y2="12"
       gradientUnits="userSpaceOnUse" />
    <linearGradient
       inkscape:collect="always"
       xlink:href="#linearGradient4529"
       id="linearGradient4537"
       gradientUnits="userSpaceOnUse"
       x1="-34"
       y1="12"
       x2="-2"
       y2="12"
       gradientTransform="matrix(0,0.26458333,-0.26458333,0,-1.5875,288.00417)" />
    <linearGradient
       inkscape:collect="always"
       xlink:href="#linearGradient4547"
       id="linearGradient4541"
       gradientUnits="userSpaceOnUse"
       x1="-22"
       y1="8.0000019"
       x2="-13.999999"
       y2="16.000002"
       gradientTransform="matrix(0,0.26458333,-0.26458333,0,-1.5875,288.00417)" />
    <linearGradient
       inkscape:collect="always"
       xlink:href="#linearGradient4432"
       id="linearGradient974"
       x1="12.303126"
       y1="294.35416"
       x2="16.007292"
       y2="294.35416"
       gradientUnits="userSpaceOnUse"
       gradientTransform="matrix(4,0,0,4,-32.808331,-889.94164)" />
    <linearGradient
       inkscape:collect="always"
       xlink:href="#linearGradient4422"
       id="linearGradient986"
       x1="9.2662392"
       y1="291.05411"
       x2="16.09833"
       y2="291.05411"
       gradientUnits="userSpaceOnUse"
       gradientTransform="matrix(4,0,0,4,-32.808331,-889.94164)" />
    <linearGradient
       inkscape:collect="always"
       xlink:href="#linearGradient4432"
       id="linearGradient1005"
       gradientUnits="userSpaceOnUse"
       gradientTransform="matrix(4,0,0,4,-32.808331,-889.94164)"
       x1="12.303126"
       y1="294.35416"
       x2="16.007292"
       y2="294.35416" />
  </defs>
  <sodipodi:namedview
     id="base"
     pagecolor="#ffffff"
     bordercolor="#666666"
     borderopacity="1.0"
     inkscape:pageopacity="0.0"
     inkscape:pageshadow="2"
     inkscape:zoom="1"
     inkscape:cx="22.060427"
     inkscape:cy="74.118159"
     inkscape:document-units="px"
     inkscape:current-layer="layer1"
     inkscape:document-rotation="0"
     showgrid="false"
     units="px"
     inkscape:snap-grids="true"
     inkscape:snap-page="false"
     inkscape:snap-bbox="true"
     inkscape:bbox-nodes="true"
     inkscape:snap-nodes="true">
    <inkscape:grid
       type="xygrid"
       id="grid4267"
       spacingx="0.26458333"
       spacingy="0.26458333"
       color="#3f3fff"
       opacity="0.2" />
  </sodipodi:namedview>
  <metadata
     id="metadata5">
    <rdf:RDF>
      <cc:Work
         rdf:about="">
        <dc:format>image/svg+xml</dc:format>
        <dc:type
           rdf:resource="http://purl.org/dc/dcmitype/StillImage" />
        <dc:title></dc:title>
      </cc:Work>
    </rdf:RDF>
  </metadata>
  <g
     inkscape:label="Layer 1"
     inkscape:groupmode="layer"
     id="layer1"
     transform="translate(0,-263.13334)">
    <path
       style="fill:#022a2c;fill-opacity:1;stroke:none;stroke-width:1.05833px;stroke-linecap:butt;stroke-linejoin:miter;stroke-opacity:1"
       d="m 3.175001,283.24172 11.641665,11.64168 h 2.116668 l 13.758332,-13.75832 v -3.175 l -12.7,-12.7 -14.816665,14.81664 z"
       id="path1003"
       sodipodi:nodetypes="cccccccc" />
    <path
       style="fill:url(#linearGradient1005);fill-opacity:1;stroke:none;stroke-width:1.05833px;stroke-linecap:butt;stroke-linejoin:miter;stroke-opacity:1"
       d="m 3.1750006,283.24172 v -3.175 L 17.991667,265.25004 v 3.175 z"
       id="path988"
       sodipodi:nodetypes="ccccc" />
    <g
       id="g4573"
       transform="matrix(1.7499999,0,0,1.7499999,24.209375,-215.60752)">
      <path
         id="path4490"
         transform="matrix(0.26458333,0,0,0.26458333,0,280.06667)"
         d="M -18,-4 A 15.999999,15.999999 0 0 0 -34,12 15.999999,15.999999 0 0 0 -18,28 15.999999,15.999999 0 0 0 -2,12 15.999999,15.999999 0 0 0 -18,-4 Z m 0,14 a 1.9999999,1.9999999 0 0 1 2,2 1.9999999,1.9999999 0 0 1 -2,2 1.9999999,1.9999999 0 0 1 -2,-2 1.9999999,1.9999999 0 0 1 2,-2 z"
         style="fill:#cac2c4;fill-opacity:1;stroke:none;stroke-width:5.4303;stroke-linecap:butt;stroke-miterlimit:4;stroke-dasharray:none;stroke-opacity:1;paint-order:markers stroke fill"
         inkscape:connector-curvature="0" />
      <path
         transform="matrix(0.26458333,0,0,0.26458333,0,280.06667)"
         id="path4501"
         d="m -10.845703,-2.3066406 -4.919922,9.8398437 a 4.9999999,4.9999999 0 0 1 2.236328,2.2324219 l 9.8222658,-4.9121094 a 15.999999,15.999999 0 0 0 -7.1386718,-7.1601562 z m -11.625,16.5410156 -9.822266,4.912109 a 15.999999,15.999999 0 0 0 7.138672,7.160157 l 4.919922,-9.839844 a 4.9999999,4.9999999 0 0 1 -2.236328,-2.232422 z"
         style="fill:url(#linearGradient4515);fill-opacity:1;stroke:none;stroke-width:0.1;stroke-linecap:butt;stroke-miterlimit:4;stroke-dasharray:none;stroke-opacity:1;paint-order:markers stroke fill"
         inkscape:connector-curvature="0" />
      <path
         id="path4517"
         transform="matrix(0.26458333,0,0,0.26458333,0,280.06667)"
         d="M -33.966797,11.060547 A 15.999999,15.999999 0 0 0 -34,12 a 15.999999,15.999999 0 0 0 0.04687,0.9375 l 10.962891,-0.644531 A 4.9999999,4.9999999 0 0 1 -23,12 a 4.9999999,4.9999999 0 0 1 0.01563,-0.292969 z m 31.919922,0.002 -10.962891,0.644531 A 4.9999999,4.9999999 0 0 1 -13,12 a 4.9999999,4.9999999 0 0 1 -0.01563,0.292969 l 10.9824219,0.646484 A 15.999999,15.999999 0 0 0 -2,12 15.999999,15.999999 0 0 0 -2.046875,11.0625 Z"
         style="fill:url(#linearGradient4531);fill-opacity:1;stroke:none;stroke-width:0.1;stroke-linecap:butt;stroke-miterlimit:4;stroke-dasharray:none;stroke-opacity:1;paint-order:markers stroke fill"
         inkscape:connector-curvature="0" />
      <path
         inkscape:connector-curvature="0"
         style="fill:url(#linearGradient4537);fill-opacity:1;stroke:none;stroke-width:0.0264583;stroke-linecap:butt;stroke-miterlimit:4;stroke-dasharray:none;stroke-opacity:1;paint-order:markers stroke fill"
         d="m -4.5139363,279.01712 a 4.233333,4.233333 0 0 0 -0.2485636,-0.009 4.233333,4.233333 0 0 0 -0.2480469,0.0124 l 0.1705321,2.9006 a 1.3229166,1.3229166 0 0 1 0.077515,-0.003 1.3229166,1.3229166 0 0 1 0.077515,0.004 z m -5.168e-4,8.44548 -0.1705321,-2.9006 a 1.3229166,1.3229166 0 0 1 -0.077515,0.003 1.3229166,1.3229166 0 0 1 -0.077515,-0.004 l -0.1710488,2.90577 a 4.233333,4.233333 0 0 0 0.2485636,0.009 4.233333,4.233333 0 0 0 0.2480468,-0.0124 z"
         id="path4535" />
      <path
         inkscape:connector-curvature="0"
         style="fill:url(#linearGradient4541);fill-opacity:1;stroke:none;stroke-width:0.0264583;stroke-linecap:butt;stroke-miterlimit:4;stroke-dasharray:none;stroke-opacity:1;paint-order:markers stroke fill"
         d="m -0.9772013,285.13458 -2.6034586,-1.30173 a 1.3229166,1.3229166 0 0 1 -0.5906616,0.59169 l 1.2996622,2.59881 a 4.233333,4.233333 0 0 0 1.894458,-1.88877 z m -4.376477,-3.07578 -1.2996621,-2.59881 a 4.233333,4.233333 0 0 0 -1.8944582,1.88877 l 2.6034587,1.30173 a 1.3229166,1.3229166 0 0 1 0.5906616,-0.59169 z"
         id="path4539" />
      <path
         id="path4494"
         style="fill:none;fill-opacity:0.35426;stroke:#4e4e52;stroke-width:0.181429;stroke-linecap:butt;stroke-miterlimit:4;stroke-dasharray:none;stroke-opacity:1;paint-order:markers stroke fill"
         d="m -3.4395833,283.24167 a 1.3229165,1.322915 0 0 1 -1.3229165,1.32291 1.3229165,1.322915 0 0 1 -1.3229165,-1.32291 1.3229165,1.322915 0 0 1 1.3229165,-1.32292 1.3229165,1.322915 0 0 1 1.3229165,1.32292 z" />
    </g>
    <path
       id="path999"
       style="fill:#0ac2c4;fill-opacity:1;stroke:none;stroke-width:1.05833px;stroke-linecap:butt;stroke-linejoin:miter;stroke-opacity:1"
       d="M 17.991667,265.25004 3.1750018,280.06672 14.816667,291.70836 h 2.116668 l 13.758332,-13.75832 z m 0.0021,0.89916 11.796644,11.80292 -13.117544,13.11752 H 15.079183 L 4.0700374,280.06256 Z"
       sodipodi:nodetypes="cccccccccccc" />
    <path
       style="fill:#000000;fill-opacity:0.2;stroke:none;stroke-width:1.05833px;stroke-linecap:butt;stroke-linejoin:miter;stroke-opacity:1"
       d="m 8.466667,275.8334 12.7,12.7 9.525,-9.525 v -1.05832 L 19.050003,266.3084 h -1.058336 z"
       id="path1008"
       sodipodi:nodetypes="ccccccc" />
    <path
       style="fill:#049995;fill-opacity:1;stroke:none;stroke-width:1.05833px;stroke-linecap:butt;stroke-linejoin:miter;stroke-opacity:1"
       d="M 3.1750016,283.24172 14.816667,294.8834 v -3.175 L 3.1750016,280.06672 Z"
       id="path956"
       sodipodi:nodetypes="ccccc" />
    <path
       style="fill:url(#linearGradient974);fill-opacity:1;stroke:none;stroke-width:1.05833px;stroke-linecap:butt;stroke-linejoin:miter;stroke-opacity:1"
       d="m 16.933335,294.88336 v -3.175 l 13.758332,-13.75832 v 3.175 z"
       id="path966"
       sodipodi:nodetypes="ccccc" />
    <path
       style="fill:#04807c;fill-opacity:1;stroke:none;stroke-width:1.05833px;stroke-linecap:butt;stroke-linejoin:miter;stroke-opacity:1"
       d="m 14.816667,294.8834 h 2.116668 v -3.175 h -2.116668 z"
       id="path976"
       sodipodi:nodetypes="ccccc" />
    <path
       style="fill:url(#linearGradient986);fill-opacity:1;stroke:none;stroke-width:1.05833px;stroke-linecap:butt;stroke-linejoin:miter;stroke-opacity:1"
       d="m 5.2916666,269.48334 12.7000004,-4.2333 12.7,12.7 -10.583334,6.34997 z"
       id="path978"
       sodipodi:nodetypes="ccccc" />
  </g>
</svg>
