<?xml version="1.0" encoding="UTF-8" standalone="no"?>
<svg
   xmlns:dc="http://purl.org/dc/elements/1.1/"
   xmlns:cc="http://creativecommons.org/ns#"
   xmlns:rdf="http://www.w3.org/1999/02/22-rdf-syntax-ns#"
   xmlns:svg="http://www.w3.org/2000/svg"
   xmlns="http://www.w3.org/2000/svg"
   xmlns:xlink="http://www.w3.org/1999/xlink"
   xmlns:sodipodi="http://sodipodi.sourceforge.net/DTD/sodipodi-0.dtd"
   xmlns:inkscape="http://www.inkscape.org/namespaces/inkscape"
   sodipodi:docname="preferences-desktop-plasma-theme.svg"
   inkscape:version="1.0.2 (e86c870879, 2021-01-15)"
   id="svg8"
   version="1.1"
   viewBox="0 0 33.866666 33.866668"
   height="128"
   width="128">
  <defs
     id="defs2">
    <linearGradient
       id="linearGradient1205"
       inkscape:collect="always">
      <stop
         id="stop1201"
         style="stop-color:#c3d7d7;stop-opacity:1" />
      <stop
         id="stop1203"
         style="stop-color:#cadbbc;stop-opacity:1"
         offset="1" />
    </linearGradient>
    <linearGradient
       id="linearGradient1121"
       inkscape:collect="always">
      <stop
         id="stop1117"
         offset="0"
         style="stop-color:#000000;stop-opacity:0.5" />
      <stop
         id="stop1119"
         offset="1"
         style="stop-color:#898999;stop-opacity:0;" />
    </linearGradient>
    <linearGradient
       id="linearGradient5657"
       inkscape:collect="always">
      <stop
         id="stop5653"
         offset="0"
         style="stop-color:#a3aaeb;stop-opacity:1" />
      <stop
         id="stop5655"
         offset="1"
         style="stop-color:#2734b0;stop-opacity:1" />
    </linearGradient>
    <linearGradient
       gradientTransform="matrix(1.9999999,0,0,-1.2352927,9.1534632e-7,640.28727)"
       y2="285.39609"
       x2="8.4666662"
       y1="284.75351"
       x1="8.4666662"
       gradientUnits="userSpaceOnUse"
       id="linearGradient1127"
       xlink:href="#linearGradient1121"
       inkscape:collect="always" />
    <linearGradient
       y2="271.75116"
       x2="17.689287"
       y1="284.60236"
       x1="13.909526"
       gradientTransform="matrix(1.3999999,0,0,1.4000001,-6.7733345,-107.79332)"
       gradientUnits="userSpaceOnUse"
       id="linearGradient1260"
       xlink:href="#linearGradient5657"
       inkscape:collect="always" />
    <linearGradient
       inkscape:collect="always"
       id="linearGradient4219">
      <stop
         style="stop-color:#c3ced7"
         id="stop4221" />
      <stop
         offset="1"
         style="stop-color:#e2f4f4"
         id="stop4223" />
    </linearGradient>
    <linearGradient
       gradientUnits="userSpaceOnUse"
       y2="290.12082"
       x2="31.75"
       y1="290.12082"
       x1="2.1166668"
       id="linearGradient1199"
       xlink:href="#linearGradient1205"
       inkscape:collect="always" />
    <linearGradient
       gradientTransform="matrix(1.1339291,0,0,1.1339291,-437.28627,-322.27422)"
       y2="522.79797"
       x2="0"
       y1="536.79797"
       gradientUnits="userSpaceOnUse"
       id="linearGradient1209"
       xlink:href="#linearGradient4219"
       inkscape:collect="always" />
    <linearGradient
       y2="284.29999"
       x2="26.458334"
       y1="273.21863"
       x1="7.3121228"
       gradientTransform="matrix(1.3999999,0,0,1.4000001,-6.7733345,-107.79332)"
       gradientUnits="userSpaceOnUse"
       id="linearGradient1257"
       xlink:href="#linearGradient5657"
       inkscape:collect="always" />
  </defs>
  <sodipodi:namedview
     inkscape:bbox-nodes="true"
     inkscape:snap-bbox="true"
     inkscape:snap-page="false"
     inkscape:window-maximized="1"
     inkscape:window-y="-8"
     inkscape:window-x="-8"
     inkscape:window-height="837"
     inkscape:window-width="1600"
     inkscape:snap-intersection-paths="true"
     inkscape:snap-grids="true"
     units="px"
     showgrid="false"
     inkscape:document-rotation="0"
     inkscape:current-layer="layer1"
     inkscape:document-units="px"
     inkscape:cy="30.795712"
     inkscape:cx="84.306568"
     inkscape:zoom="3.5117188"
     inkscape:pageshadow="2"
     inkscape:pageopacity="0.0"
     borderopacity="1.0"
     bordercolor="#666666"
     pagecolor="#ffffff"
     id="base">
    <inkscape:grid
       id="grid932"
       type="xygrid" />
  </sodipodi:namedview>
  <metadata
     id="metadata5">
    <rdf:RDF>
      <cc:Work
         rdf:about="">
        <dc:format>image/svg+xml</dc:format>
        <dc:type
           rdf:resource="http://purl.org/dc/dcmitype/StillImage" />
        <dc:title />
      </cc:Work>
    </rdf:RDF>
  </metadata>
  <g
     transform="translate(0,-263.13332)"
     id="layer1"
     inkscape:groupmode="layer"
     inkscape:label="Layer 1">
    <g
       transform="matrix(1.9999999,0,0,1.9922418,-25.400001,-292.71872)"
       id="path5741" />
    <g
       transform="matrix(1.9999999,0,0,1.9922418,2.1156329,-295.51179)"
       id="rect4775" />
    <g
       transform="matrix(1.9999999,0,0,1.9922418,2.1176997,-294.45858)"
       id="rect4835-9" />
    <g
       transform="matrix(1.9999999,0,0,1.9922418,2.1187333,-296.56705)"
       id="rect4839" />
    <g
       id="g5149"
       transform="matrix(1.9999999,0,0,1.9922418,21.167699,-289.18737)" />
    <g
       transform="matrix(1.9999999,0,0,1.9922418,1.4355301,-293.77293)"
       id="path5988" />
    <path
       sodipodi:nodetypes="ccccc"
       d="M 2.1166667,268.42499 H 31.749999 v 23.28333 H 2.1166667 Z"
       style="fill:url(#linearGradient1260);fill-opacity:1;fill-rule:evenodd;stroke-width:1.35654;stroke-linecap:square;stroke-linejoin:round;stroke-opacity:0.210117;paint-order:markers fill stroke"
       id="rect936"
       inkscape:connector-curvature="0" />
    <path
       sodipodi:nodetypes="ccccc"
       id="path1125"
       style="fill:url(#linearGradient1127);fill-opacity:1;fill-rule:evenodd;stroke-width:1.58033;stroke-linecap:square;stroke-linejoin:round;stroke-miterlimit:4;stroke-dasharray:none;stroke-opacity:0.210117;paint-order:markers fill stroke"
       d="M 2.1166667,288.53332 H 31.749998 v -1.05834 H 2.1166667 Z"
       inkscape:connector-curvature="0" />
    <path
       sodipodi:nodetypes="ccccc"
       id="rect1027"
       style="fill:url(#linearGradient1199);fill-opacity:1;fill-rule:evenodd;stroke-width:1.00542;stroke-linecap:square;stroke-linejoin:round;stroke-opacity:0.210117;paint-order:markers fill stroke"
       d="M 2.1166667,288.53332 H 31.75 v 3.175 H 2.1166668 Z"
       inkscape:connector-curvature="0" />
    <g
       style="font-size:2.957px;line-height:0.75;font-family:'Times New Roman';-inkscape-font-specification:'Times New Roman, ';fill:#000000;fill-rule:evenodd;stroke-width:0.475232;stroke-linecap:square;stroke-linejoin:round;stroke-opacity:0.210117;paint-order:markers fill stroke"
       id="text1122"
       aria-label="K">
      <path
         id="path1124"
         style="font-style:normal;font-variant:normal;font-weight:bold;font-stretch:normal;font-family:Arial;-inkscape-font-specification:'Arial Bold';stroke-width:0.475232"
         d="m 2.6458334,291.17917 v -2.11668 h 0.4273789 v 0.93994 l 0.8634209,-0.93994 H 4.5112846 L 3.7142807,289.88693 4.5546,291.17917 H 4.0016064 l -0.5818706,-0.99337 -0.3465235,0.35374 v 0.63963 z"
         inkscape:connector-curvature="0" />
    </g>
    <g
       transform="matrix(1.0260268,0,0,1.0260268,-0.81257916,-7.5784691)"
       id="g1152">
      <path
         id="path1131"
         style="font-style:normal;font-variant:normal;font-weight:bold;font-stretch:normal;font-size:2.82222px;line-height:0.75;font-family:Arial;-inkscape-font-specification:'Arial Bold';fill:#000000;fill-rule:evenodd;stroke-width:3.175;stroke-linecap:square;stroke-linejoin:round;stroke-opacity:0.210117;paint-order:markers fill stroke"
         d="m 25.252555,291.14471 h -0.387228 v -1.45934 q -0.212218,0.19844 -0.500228,0.29352 v -0.35139 q 0.151584,-0.0496 0.329351,-0.18742 0.177767,-0.13918 0.243913,-0.32384 h 0.314192 z"
         inkscape:connector-curvature="0" />
      <path
         id="path1133"
         style="font-style:normal;font-variant:normal;font-weight:bold;font-stretch:normal;font-size:2.82222px;line-height:0.75;font-family:Arial;-inkscape-font-specification:'Arial Bold';fill:#000000;fill-rule:evenodd;stroke-width:3.175;stroke-linecap:square;stroke-linejoin:round;stroke-opacity:0.210117;paint-order:markers fill stroke"
         d="m 27.139088,290.78505 v 0.35966 h -1.357367 q 0.02205,-0.20395 0.132292,-0.38585 0.110243,-0.18327 0.43546,-0.48507 0.261827,-0.24391 0.321082,-0.33072 0.07993,-0.11989 0.07993,-0.23703 0,-0.12953 -0.07028,-0.19843 -0.0689,-0.0703 -0.191548,-0.0703 -0.121267,0 -0.192925,0.073 -0.07166,0.073 -0.08268,0.24254 l -0.38585,-0.0386 q 0.03445,-0.3197 0.216351,-0.45888 0.181901,-0.13919 0.454753,-0.13919 0.299034,0 0.46991,0.16123 0.170877,0.16123 0.170877,0.40101 0,0.13643 -0.04961,0.26045 -0.04823,0.12265 -0.15434,0.25769 -0.07028,0.0896 -0.253559,0.2577 -0.183279,0.16812 -0.232889,0.22324 -0.04823,0.0551 -0.07855,0.10749 z"
         inkscape:connector-curvature="0" />
      <path
         id="path1135"
         style="font-style:normal;font-variant:normal;font-weight:bold;font-stretch:normal;font-size:2.82222px;line-height:0.75;font-family:Arial;-inkscape-font-specification:'Arial Bold';fill:#000000;fill-rule:evenodd;stroke-width:3.175;stroke-linecap:square;stroke-linejoin:round;stroke-opacity:0.210117;paint-order:markers fill stroke"
         d="m 27.558011,289.78594 v -0.38723 h 0.387229 v 0.38723 z m 0,1.07624 v -0.38722 h 0.387229 v 0.38722 z"
         inkscape:connector-curvature="0" />
      <path
         id="path1137"
         style="font-style:normal;font-variant:normal;font-weight:bold;font-stretch:normal;font-size:2.82222px;line-height:0.75;font-family:Arial;-inkscape-font-specification:'Arial Bold';fill:#000000;fill-rule:evenodd;stroke-width:3.175;stroke-linecap:square;stroke-linejoin:round;stroke-opacity:0.210117;paint-order:markers fill stroke"
         d="m 28.995304,289.11624 q 0.293522,0 0.458886,0.20947 0.19706,0.24804 0.19706,0.82268 0,0.57327 -0.198438,0.82407 -0.163986,0.20671 -0.457508,0.20671 -0.2949,0 -0.475423,-0.226 -0.180523,-0.22738 -0.180523,-0.80891 0,-0.57051 0.198438,-0.82131 0.163986,-0.20671 0.457508,-0.20671 z m 0,0.32109 q -0.07028,0 -0.125401,0.0455 -0.05512,0.0441 -0.08544,0.15985 -0.03996,0.15021 -0.03996,0.50574 0,0.35554 0.03583,0.48921 0.03583,0.13229 0.08957,0.17639 0.05512,0.0441 0.125401,0.0441 0.07028,0 0.125401,-0.0441 0.05512,-0.0455 0.08544,-0.16123 0.03996,-0.14883 0.03996,-0.50437 0,-0.35553 -0.03583,-0.48782 -0.03583,-0.13367 -0.09095,-0.17777 -0.05374,-0.0455 -0.124023,-0.0455 z"
         inkscape:connector-curvature="0" />
      <path
         id="path1139"
         style="font-style:normal;font-variant:normal;font-weight:bold;font-stretch:normal;font-size:2.82222px;line-height:0.75;font-family:Arial;-inkscape-font-specification:'Arial Bold';fill:#000000;fill-rule:evenodd;stroke-width:3.175;stroke-linecap:square;stroke-linejoin:round;stroke-opacity:0.210117;paint-order:markers fill stroke"
         d="m 30.564888,289.11624 q 0.293522,0 0.458887,0.20947 0.197059,0.24804 0.197059,0.82268 0,0.57327 -0.198437,0.82407 -0.163987,0.20671 -0.457509,0.20671 -0.2949,0 -0.475422,-0.226 -0.180523,-0.22738 -0.180523,-0.80891 0,-0.57051 0.198437,-0.82131 0.163986,-0.20671 0.457508,-0.20671 z m 0,0.32109 q -0.07028,0 -0.125401,0.0455 -0.05512,0.0441 -0.08544,0.15985 -0.03996,0.15021 -0.03996,0.50574 0,0.35554 0.03583,0.48921 0.03583,0.13229 0.08957,0.17639 0.05512,0.0441 0.125401,0.0441 0.07028,0 0.125402,-0.0441 0.05512,-0.0455 0.08544,-0.16123 0.03996,-0.14883 0.03996,-0.50437 0,-0.35553 -0.03583,-0.48782 -0.03583,-0.13367 -0.09095,-0.17777 -0.05374,-0.0455 -0.124024,-0.0455 z"
         inkscape:connector-curvature="0" />
    </g>
    <path
       id="path1255"
       style="fill:url(#linearGradient1257);fill-opacity:1;fill-rule:evenodd;stroke-width:1.35654;stroke-linecap:square;stroke-linejoin:round;stroke-opacity:0.210117;paint-order:markers fill stroke"
       d="M 2.1166667,268.42499 H 31.749999 l 1e-6,7.40833 c -14.816667,0 -14.816667,5.29167 -29.6333333,5.29167 z"
       sodipodi:nodetypes="ccccc"
       inkscape:connector-curvature="0" />
    <path
       d="m 14.022915,271.22202 c -0.549671,0 -0.992188,0.4425 -0.992188,0.99218 0,0.54967 0.442517,0.99219 0.992188,0.99219 0.549673,0 0.992188,-0.44252 0.992188,-0.99219 0,-0.54968 -0.442515,-0.99218 -0.992188,-0.99218 z m 6.236609,0 -2.267857,2.26785 3.401787,3.40178 -3.401787,3.40179 2.267857,2.26785 3.401787,-3.40179 2.267856,-2.26785 -2.267856,-2.26785 z m -8.717078,5.95311 c -0.824504,0 -1.488282,0.66377 -1.488282,1.48828 0,0.82451 0.663778,1.48828 1.488282,1.48828 0.824514,0 1.488281,-0.66377 1.488281,-1.48828 0,-0.82451 -0.663767,-1.48828 -1.488281,-1.48828 z m 4.464845,5.95314 c -1.099344,0 -1.984376,0.88502 -1.984376,1.98437 0,1.09933 0.885032,1.98437 1.984376,1.98437 1.099343,0 1.984376,-0.88504 1.984376,-1.98437 0,-1.09935 -0.885033,-1.98437 -1.984376,-1.98437 z"
       id="path891"
       style="fill:#000000;fill-opacity:0.198529;stroke-width:1.13393"
       inkscape:connector-curvature="0" />
    <path
       d="m 12.964582,270.54166 c -0.549671,0 -0.992188,0.4425 -0.992188,0.99218 0,0.54967 0.442517,0.99219 0.992188,0.99219 0.549673,0 0.992188,-0.44252 0.992188,-0.99219 0,-0.54968 -0.442515,-0.99218 -0.992188,-0.99218 z m 6.236609,0 -2.267857,2.26785 3.401787,3.40178 -3.401787,3.40179 2.267857,2.26785 3.401787,-3.40179 2.267856,-2.26785 -2.267856,-2.26785 z m -8.717078,5.95311 c -0.8245037,0 -1.4882818,0.66377 -1.4882818,1.48828 0,0.82451 0.6637781,1.48828 1.4882818,1.48828 0.824514,0 1.488281,-0.66377 1.488281,-1.48828 0,-0.82451 -0.663767,-1.48828 -1.488281,-1.48828 z m 4.464845,5.95314 c -1.099344,0 -1.984376,0.88502 -1.984376,1.98437 0,1.09933 0.885032,1.98437 1.984376,1.98437 1.099343,0 1.984376,-0.88504 1.984376,-1.98437 0,-1.09935 -0.885033,-1.98437 -1.984376,-1.98437 z"
       id="path1207"
       style="fill:url(#linearGradient1209);stroke-width:1.13393"
       inkscape:connector-curvature="0" />
  </g>
</svg>
