<?xml version="1.0" encoding="UTF-8" standalone="no"?>
<svg
   xmlns:dc="http://purl.org/dc/elements/1.1/"
   xmlns:cc="http://creativecommons.org/ns#"
   xmlns:rdf="http://www.w3.org/1999/02/22-rdf-syntax-ns#"
   xmlns:svg="http://www.w3.org/2000/svg"
   xmlns="http://www.w3.org/2000/svg"
   xmlns:xlink="http://www.w3.org/1999/xlink"
   xmlns:sodipodi="http://sodipodi.sourceforge.net/DTD/sodipodi-0.dtd"
   xmlns:inkscape="http://www.inkscape.org/namespaces/inkscape"
   sodipodi:docname="preferences-other.svg"
   inkscape:version="1.0.2 (e86c870879, 2021-01-15)"
   id="svg8"
   version="1.1"
   viewBox="0 0 33.866666 33.866668"
   height="128"
   width="128">
  <defs
     id="defs2">
    <linearGradient
       gradientTransform="matrix(-1.2327142,-1.2327142,1.2327142,-1.2327142,10.813584,22.757889)"
       gradientUnits="userSpaceOnUse"
       y2="10.854491"
       x2="14.475431"
       y1="3.9861786"
       x1="7.6071181"
       id="linearGradient4830"
       xlink:href="#linearGradient4820"
       inkscape:collect="always" />
    <linearGradient
       id="linearGradient4820"
       inkscape:collect="always">
      <stop
         id="stop4816"
         offset="0"
         style="stop-color:#bdbdbd;stop-opacity:1" />
      <stop
         id="stop4818"
         offset="1"
         style="stop-color:#cccccc;stop-opacity:1" />
    </linearGradient>
    <linearGradient
       gradientTransform="matrix(1.9455781,0,0,1.9455781,0.3933206,-8.1653546)"
       y2="1.5875"
       x2="5.2916665"
       y1="7.1437502"
       x1="5.2916665"
       gradientUnits="userSpaceOnUse"
       id="linearGradient4566"
       xlink:href="#linearGradient4993"
       inkscape:collect="always" />
    <linearGradient
       id="linearGradient4993"
       inkscape:collect="always">
      <stop
         id="stop4989"
         offset="0"
         style="stop-color:#9a9a9a;stop-opacity:1" />
      <stop
         id="stop4991"
         offset="1"
         style="stop-color:#bcbcbc;stop-opacity:1" />
    </linearGradient>
    <linearGradient
       gradientTransform="matrix(1.7433212,0,0,1.7433212,7.9109636,-2.2085857)"
       y2="0.052726544"
       x2="-1.1989357"
       y1="3.0881207"
       x1="1.8364583"
       gradientUnits="userSpaceOnUse"
       id="linearGradient4966"
       xlink:href="#linearGradient4962"
       inkscape:collect="always" />
    <linearGradient
       id="linearGradient4962"
       inkscape:collect="always">
      <stop
         id="stop4958"
         offset="0"
         style="stop-color:#c8c8c8;stop-opacity:1" />
      <stop
         id="stop4960"
         offset="1"
         style="stop-color:#646464;stop-opacity:1" />
    </linearGradient>
    <linearGradient
       y2="2.3560646"
       x2="3.244601"
       y1="6.3020768"
       x1="3.244601"
       gradientTransform="matrix(1.7433212,0,0,1.7433212,1.2227852,-7.2823771)"
       gradientUnits="userSpaceOnUse"
       id="linearGradient4876"
       xlink:href="#linearGradient4538"
       inkscape:collect="always" />
    <linearGradient
       id="linearGradient4538"
       inkscape:collect="always">
      <stop
         id="stop4534"
         offset="0"
         style="stop-color:#ffedcd;stop-opacity:1" />
      <stop
         id="stop4536"
         offset="1"
         style="stop-color:#b38416;stop-opacity:1" />
    </linearGradient>
    <linearGradient
       id="linearGradient4590"
       inkscape:collect="always">
      <stop
         id="stop4586"
         offset="0"
         style="stop-color:#e2e2e2;stop-opacity:0.71020406" />
      <stop
         id="stop4588"
         offset="1"
         style="stop-color:#000000;stop-opacity:0.72448981" />
    </linearGradient>
    <linearGradient
       gradientTransform="matrix(2,0,0,2,-1.9741837,-21.098938)"
       gradientUnits="userSpaceOnUse"
       y2="10.085006"
       x2="4.550796"
       y1="11.342242"
       x1="5.8188877"
       id="linearGradient6348"
       xlink:href="#linearGradient4590"
       inkscape:collect="always" />
  </defs>
  <sodipodi:namedview
     inkscape:snap-bbox-midpoints="false"
     inkscape:snap-bbox-edge-midpoints="false"
     inkscape:bbox-paths="false"
     inkscape:bbox-nodes="true"
     inkscape:snap-bbox="true"
     inkscape:snap-global="true"
     inkscape:snap-others="false"
     inkscape:snap-to-guides="false"
     inkscape:snap-intersection-paths="true"
     showguides="false"
     inkscape:object-paths="true"
     inkscape:snap-smooth-nodes="true"
     inkscape:window-maximized="1"
     inkscape:window-y="-8"
     inkscape:window-x="-8"
     inkscape:window-height="837"
     inkscape:window-width="1600"
     inkscape:snap-grids="true"
     units="px"
     showgrid="false"
     inkscape:document-rotation="0"
     inkscape:current-layer="layer2"
     inkscape:document-units="px"
     inkscape:cy="64"
     inkscape:cx="64"
     inkscape:zoom="1"
     inkscape:pageshadow="2"
     inkscape:pageopacity="0.0"
     borderopacity="1.0"
     bordercolor="#666666"
     pagecolor="#ffffff"
     id="base"
     inkscape:snap-nodes="false">
    <inkscape:grid
       spacingy="0.26458334"
       spacingx="0.26458334"
       id="grid4267"
       type="xygrid" />
  </sodipodi:namedview>
  <metadata
     id="metadata5">
    <rdf:RDF>
      <cc:Work
         rdf:about="">
        <dc:format>image/svg+xml</dc:format>
        <dc:type
           rdf:resource="http://purl.org/dc/dcmitype/StillImage" />
        <dc:title />
      </cc:Work>
    </rdf:RDF>
  </metadata>
  <g
     style="display:inline"
     transform="translate(0,25.4)"
     inkscape:label="Layer 2"
     id="layer2"
     inkscape:groupmode="layer">
    <g
       transform="matrix(2.1538463,0,0,2.1538463,-1.0991367,-9.1737952)"
       id="g3834">
      <g
         id="g985"
         transform="translate(19.867966,0.18424644)" />
      <path
         style="fill:url(#linearGradient4830);fill-opacity:1;stroke:none;stroke-width:0.922508;stroke-linecap:butt;stroke-linejoin:miter;stroke-miterlimit:4;stroke-dasharray:none;stroke-opacity:1"
         d="M 7.5929516,-6.5508567 7.268632,-4.3824239 A 4.8431642,4.8431642 0 0 0 5.8227108,-3.7824331 L 4.0587762,-5.0869163 2.9569908,-3.9851335 4.2596722,-2.2239011 A 4.8431642,4.8431642 0 0 0 3.6623848,-0.7761767 L 1.4930515,-0.4509565 V 1.1075759 L 3.6614848,1.4318963 A 4.8431642,4.8431642 0 0 0 4.2614756,2.8778191 L 2.9569914,4.6417533 4.0587758,5.7435359 5.8200082,4.4408547 a 4.8431642,4.8431642 0 0 0 1.447724,0.597288 L 7.592952,7.2074759 H 9.151485 L 9.4758042,5.0390441 A 4.8431642,4.8431642 0 0 0 10.921727,4.4390539 l 1.763935,1.304482 1.101783,-1.1017826 -1.302681,-1.761232 a 4.8431642,4.8431642 0 0 0 0.597288,-1.4477254 l 2.169333,-0.32522 v -1.558532 l -2.168432,-0.3243192 a 4.8431642,4.8431642 0 0 0 -0.59999,-1.445923 l 1.304482,-1.763935 -1.101785,-1.1017842 -1.761231,1.302682 A 4.8431642,4.8431642 0 0 0 9.476704,-4.3815239 L 9.1514846,-6.5508567 Z M 8.372218,-0.5941979 A 0.92250742,0.92250742 0 0 1 9.294726,0.3283095 0.92250742,0.92250742 0 0 1 8.3722186,1.2508175 0.92250742,0.92250742 0 0 1 7.4497106,0.3283095 0.92250742,0.92250742 0 0 1 8.372218,-0.5941979 Z"
         id="path4800"
         inkscape:connector-curvature="0" />
      <path
         style="fill:url(#linearGradient4566);fill-opacity:1;stroke:none;stroke-width:0.514768;stroke-linecap:round;stroke-linejoin:round;stroke-miterlimit:4;stroke-dasharray:none;stroke-opacity:0.596413"
         d="M 8.3722179,-5.0767497 A 5.4050595,5.4050594 0 0 0 2.9671586,0.32830972 5.4050595,5.4050594 0 0 0 8.3722179,5.7333689 5.4050595,5.4050594 0 0 0 13.777277,0.32830972 5.4050595,5.4050594 0 0 0 8.3722179,-5.0767497 Z m 0,4.37552437 A 1.0295351,1.029535 0 0 1 9.4017531,0.32830972 1.0295351,1.029535 0 0 1 8.3722179,1.3578447 1.0295351,1.029535 0 0 1 7.3426828,0.32830972 1.0295351,1.029535 0 0 1 8.3722179,-0.70122533 Z"
         id="circle4550"
         inkscape:connector-curvature="0" />
      <path
         d="M 12.292875,0.32831049 A 3.9206567,3.9206567 0 0 1 8.3722181,4.2489672 3.9206567,3.9206567 0 0 1 4.4515615,0.32831049 3.9206567,3.9206567 0 0 1 8.3722181,-3.5923462 3.9206567,3.9206567 0 0 1 12.292875,0.32831049"
         style="fill:none;fill-opacity:0.408072;stroke:url(#linearGradient4966);stroke-width:0.529166;stroke-linecap:round;stroke-linejoin:round;stroke-miterlimit:4;stroke-dasharray:none;stroke-opacity:1"
         id="path4530"
         inkscape:connector-curvature="0" />
      <path
         style="fill:url(#linearGradient4876);fill-opacity:1;stroke:none;stroke-width:0.461254;stroke-linecap:round;stroke-linejoin:round;stroke-miterlimit:4;stroke-dasharray:none;stroke-opacity:0.596413"
         d="M 8.3722178,-3.5923475 A 3.9206566,3.9206566 0 0 0 4.4515612,0.3283087 3.9206566,3.9206566 0 0 0 8.3722178,4.2489665 3.9206566,3.9206566 0 0 0 12.292875,0.3283087 3.9206566,3.9206566 0 0 0 8.3722178,-3.5923475 Z m 0,2.9981494 A 0.9225074,0.9225074 0 0 1 9.2947254,0.3283087 0.9225074,0.9225074 0 0 1 8.3722178,1.2508167 0.9225074,0.9225074 0 0 1 7.4497106,0.3283087 0.9225074,0.9225074 0 0 1 8.3722178,-0.5941981 Z"
         id="circle4532"
         inkscape:connector-curvature="0" />
      <path
         style="color:#000000;font-style:normal;font-variant:normal;font-weight:normal;font-stretch:normal;font-size:medium;line-height:normal;font-family:sans-serif;font-variant-ligatures:normal;font-variant-position:normal;font-variant-caps:normal;font-variant-numeric:normal;font-variant-alternates:normal;font-feature-settings:normal;text-indent:0;text-align:start;text-decoration:none;text-decoration-line:none;text-decoration-style:solid;text-decoration-color:#000000;letter-spacing:normal;word-spacing:normal;text-transform:none;writing-mode:lr-tb;direction:ltr;text-orientation:mixed;dominant-baseline:auto;baseline-shift:baseline;text-anchor:start;white-space:normal;shape-padding:0;clip-rule:nonzero;display:inline;overflow:visible;visibility:visible;isolation:auto;mix-blend-mode:normal;color-interpolation:sRGB;color-interpolation-filters:linearRGB;solid-color:#000000;solid-opacity:1;vector-effect:none;fill:url(#linearGradient6348);fill-opacity:1;fill-rule:nonzero;stroke:none;stroke-width:0.740834;stroke-linecap:round;stroke-linejoin:round;stroke-miterlimit:4;stroke-dasharray:none;stroke-dashoffset:0;stroke-opacity:1;color-rendering:auto;image-rendering:auto;shape-rendering:auto;text-rendering:auto;enable-background:accumulate"
         d="m 8.3722178,-0.9646345 c -0.7096738,0 -1.2929436,0.583272 -1.292944,1.292944 -6e-7,0.709676 0.5832686,1.292944 1.292944,1.292944 0.709675,0 1.2929452,-0.583268 1.2929448,-1.292944 -6e-7,-0.709674 -0.5832698,-1.292944 -1.2929448,-1.292944 z m 0,0.370004 c 0.5094866,0 0.9219068,0.413454 0.9219078,0.92294 6e-7,0.509488 -0.4124208,0.921908 -0.9219078,0.921908 -0.5094868,0 -0.9229412,-0.412422 -0.9229406,-0.921908 4e-7,-0.509486 0.4134548,-0.92294 0.9229406,-0.92294 z"
         id="path6339"
         inkscape:connector-curvature="0" />
    </g>
    <g
       id="g950"
       transform="matrix(4,0,0,4,11.859532,-28.702453)">
      <g
         transform="translate(6.070344,1.3718307)"
         id="g932" />
    </g>
  </g>
</svg>
