<?xml version="1.0" encoding="UTF-8" standalone="no"?>
<svg
   xmlns:dc="http://purl.org/dc/elements/1.1/"
   xmlns:cc="http://creativecommons.org/ns#"
   xmlns:rdf="http://www.w3.org/1999/02/22-rdf-syntax-ns#"
   xmlns:svg="http://www.w3.org/2000/svg"
   xmlns="http://www.w3.org/2000/svg"
   xmlns:xlink="http://www.w3.org/1999/xlink"
   xmlns:sodipodi="http://sodipodi.sourceforge.net/DTD/sodipodi-0.dtd"
   xmlns:inkscape="http://www.inkscape.org/namespaces/inkscape"
   sodipodi:docname="preferences-desktop-gestures-touch.svg"
   inkscape:version="1.0.2 (e86c870879, 2021-01-15)"
   id="svg8"
   version="1.1"
   viewBox="0 0 33.866666 33.866668"
   height="128"
   width="128">
  <defs
     id="defs2">
    <linearGradient
       id="linearGradient1205"
       inkscape:collect="always">
      <stop
         id="stop1201"
         style="stop-color:#c3d7d7;stop-opacity:1" />
      <stop
         id="stop1203"
         style="stop-color:#cadbbc;stop-opacity:1"
         offset="1" />
    </linearGradient>
    <linearGradient
       id="linearGradient1121"
       inkscape:collect="always">
      <stop
         id="stop1117"
         offset="0"
         style="stop-color:#000000;stop-opacity:0.5" />
      <stop
         id="stop1119"
         offset="1"
         style="stop-color:#898999;stop-opacity:0;" />
    </linearGradient>
    <linearGradient
       id="linearGradient5657"
       inkscape:collect="always">
      <stop
         id="stop5653"
         offset="0"
         style="stop-color:#a3aaeb;stop-opacity:1" />
      <stop
         id="stop5655"
         offset="1"
         style="stop-color:#2734b0;stop-opacity:1" />
    </linearGradient>
    <linearGradient
       gradientTransform="matrix(1.9999999,0,0,-1.2352927,9.1534632e-7,640.28727)"
       y2="285.39609"
       x2="8.4666662"
       y1="284.75351"
       x1="8.4666662"
       gradientUnits="userSpaceOnUse"
       id="linearGradient1127"
       xlink:href="#linearGradient1121"
       inkscape:collect="always" />
    <linearGradient
       y2="271.75116"
       x2="17.689287"
       y1="284.60236"
       x1="13.909526"
       gradientTransform="matrix(1.3999999,0,0,1.4000001,-6.7733345,-107.79332)"
       gradientUnits="userSpaceOnUse"
       id="linearGradient1260"
       xlink:href="#linearGradient5657"
       inkscape:collect="always" />
    <linearGradient
       gradientUnits="userSpaceOnUse"
       y2="290.12082"
       x2="31.75"
       y1="290.12082"
       x1="2.1166668"
       id="linearGradient1199"
       xlink:href="#linearGradient1205"
       inkscape:collect="always" />
    <linearGradient
       y2="284.29999"
       x2="26.458334"
       y1="273.21863"
       x1="7.3121228"
       gradientTransform="matrix(1.3999999,0,0,1.4000001,-6.7733345,-107.79332)"
       gradientUnits="userSpaceOnUse"
       id="linearGradient1257"
       xlink:href="#linearGradient5657"
       inkscape:collect="always" />
    <linearGradient
       inkscape:collect="always"
       xlink:href="#linearGradient9461"
       id="linearGradient9564"
       x1="-25"
       y1="18.999998"
       x2="-5"
       y2="42"
       gradientUnits="userSpaceOnUse" />
    <linearGradient
       id="linearGradient9461"
       inkscape:collect="always">
      <stop
         id="stop9457"
         offset="0"
         style="stop-color:#ffeebd;stop-opacity:1" />
      <stop
         id="stop9459"
         offset="1"
         style="stop-color:#a07100;stop-opacity:1" />
    </linearGradient>
  </defs>
  <sodipodi:namedview
     inkscape:bbox-nodes="true"
     inkscape:snap-bbox="true"
     inkscape:snap-page="false"
     inkscape:window-maximized="1"
     inkscape:window-y="-8"
     inkscape:window-x="-8"
     inkscape:window-height="837"
     inkscape:window-width="1600"
     inkscape:snap-intersection-paths="true"
     inkscape:snap-grids="true"
     units="px"
     showgrid="false"
     inkscape:document-rotation="0"
     inkscape:current-layer="layer1"
     inkscape:document-units="px"
     inkscape:cy="51.44304"
     inkscape:cx="34.396567"
     inkscape:zoom="5.6796875"
     inkscape:pageshadow="2"
     inkscape:pageopacity="0.0"
     borderopacity="1.0"
     bordercolor="#666666"
     pagecolor="#ffffff"
     id="base">
    <inkscape:grid
       id="grid932"
       type="xygrid" />
  </sodipodi:namedview>
  <metadata
     id="metadata5">
    <rdf:RDF>
      <cc:Work
         rdf:about="">
        <dc:format>image/svg+xml</dc:format>
        <dc:type
           rdf:resource="http://purl.org/dc/dcmitype/StillImage" />
        <dc:title></dc:title>
      </cc:Work>
    </rdf:RDF>
  </metadata>
  <g
     transform="translate(0,-263.13332)"
     id="layer1"
     inkscape:groupmode="layer"
     inkscape:label="Layer 1">
    <g
       transform="matrix(1.9999999,0,0,1.9922418,-25.400001,-292.71872)"
       id="path5741" />
    <g
       transform="matrix(1.9999999,0,0,1.9922418,2.1156329,-295.51179)"
       id="rect4775" />
    <g
       transform="matrix(1.9999999,0,0,1.9922418,2.1176997,-294.45858)"
       id="rect4835-9" />
    <g
       transform="matrix(1.9999999,0,0,1.9922418,2.1187333,-296.56705)"
       id="rect4839" />
    <g
       id="g5149"
       transform="matrix(1.9999999,0,0,1.9922418,21.167699,-289.18737)" />
    <g
       transform="matrix(1.9999999,0,0,1.9922418,1.4355301,-293.77293)"
       id="path5988" />
    <path
       sodipodi:nodetypes="ccccc"
       d="M 2.1166667,268.42499 H 31.749999 v 23.28333 H 2.1166667 Z"
       style="fill:url(#linearGradient1260);fill-opacity:1;fill-rule:evenodd;stroke-width:1.35654;stroke-linecap:square;stroke-linejoin:round;stroke-opacity:0.210117;paint-order:markers fill stroke"
       id="rect936"
       inkscape:connector-curvature="0" />
    <path
       sodipodi:nodetypes="ccccc"
       id="path1125"
       style="fill:url(#linearGradient1127);fill-opacity:1;fill-rule:evenodd;stroke-width:1.58033;stroke-linecap:square;stroke-linejoin:round;stroke-miterlimit:4;stroke-dasharray:none;stroke-opacity:0.210117;paint-order:markers fill stroke"
       d="M 2.1166667,288.53332 H 31.749998 v -1.05834 H 2.1166667 Z"
       inkscape:connector-curvature="0" />
    <path
       sodipodi:nodetypes="ccccc"
       id="rect1027"
       style="fill:url(#linearGradient1199);fill-opacity:1;fill-rule:evenodd;stroke-width:1.00542;stroke-linecap:square;stroke-linejoin:round;stroke-opacity:0.210117;paint-order:markers fill stroke"
       d="M 2.1166667,288.53332 H 31.75 v 3.175 H 2.1166668 Z"
       inkscape:connector-curvature="0" />
    <path
       id="path1255"
       style="fill:url(#linearGradient1257);fill-opacity:1;fill-rule:evenodd;stroke-width:1.35654;stroke-linecap:square;stroke-linejoin:round;stroke-opacity:0.210117;paint-order:markers fill stroke"
       d="M 2.1166667,268.42499 H 31.749999 l 1e-6,7.40833 c -14.816667,0 -14.816667,5.29167 -29.6333333,5.29167 z"
       sodipodi:nodetypes="ccccc"
       inkscape:connector-curvature="0" />
    <path
       style="stroke-width:0.529167"
       id="path4369"
       inkscape:connector-curvature="0"
       d="" />
    <g
       id="g9733"
       transform="matrix(2,0,0,2,8.1394412,270.16495)">
      <g
         transform="translate(7.4083335,4.7625001)"
         id="g9574">
        <path
           style="fill:#000000;fill-opacity:0.2;stroke:none;stroke-width:1;stroke-linecap:square;stroke-linejoin:round;stroke-miterlimit:4;stroke-dasharray:none;stroke-opacity:1;paint-order:markers stroke fill"
           d="m -18.381621,20.711881 c -2,0 -4.000001,2.999998 -7,3.999999 v 12 c 0,2 4,4.000001 6,4.000001 h 7 c 1.104569,0 2,-0.895431 2,-2 0,-1.104569 -0.895431,-2 -2,-2 h 2 c 1.1045687,0 1.9999994,-0.895431 1.9999995,-2 -1e-7,-1.104569 -0.8954308,-2 -1.9999995,-2 h 1.9999995 c 1.1045695,0 1.9999999,-0.895431 2,-2 -1e-7,-1.104569 -0.8954305,-2 -2,-2 h 6 c 1.1045695,0 1.99999994,-0.895431 2.00000004,-2 -1e-7,-1.104569 -0.89543054,-2 -2.00000004,-2 h -9.9999995 c 1.104569,0 2,-0.895431 2,-2 0,-1.104569 -0.895431,-2 -2,-2 z"
           transform="matrix(0.26458334,0,0,0.26458334,0,-8.4666667)"
           id="path1092"
           inkscape:connector-curvature="0"
           sodipodi:nodetypes="sccssscsscsscssscsss" />
        <path
           style="fill:url(#linearGradient9564);fill-opacity:1;stroke:none;stroke-width:1;stroke-linecap:square;stroke-linejoin:round;stroke-miterlimit:4;stroke-dasharray:none;stroke-opacity:1;paint-order:markers stroke fill"
           d="m -19.381621,19.711881 c -2,0 -4.000001,2.999998 -7,3.999999 v 12 c 0,2 4,4.000001 6,4.000001 h 7 c 1.104569,0 2,-0.895431 2,-2 0,-1.104569 -0.895431,-2 -2,-2 h 2 c 1.104569,0 1.9999997,-0.895431 1.9999998,-2 -1e-7,-1.104569 -0.8954308,-2 -1.9999998,-2 h 1.9999998 c 1.1045695,0 1.9999999,-0.895431 2,-2 -1e-7,-1.104569 -0.8954305,-2 -2,-2 h 6 c 1.1045695,0 1.9999999,-0.895431 2,-2 -10e-8,-1.104569 -0.8954305,-2 -2,-2 h -9.9999998 c 1.104569,0 2,-0.895431 2,-2 0,-1.104569 -0.895431,-2 -2,-2 z"
           transform="matrix(0.26458334,0,0,0.26458334,0,-8.4666667)"
           id="path9481"
           inkscape:connector-curvature="0"
           sodipodi:nodetypes="sccssscsscsscssscsss" />
        <path
           id="path1064"
           style="fill:#000000;fill-opacity:0.3;stroke:none;stroke-width:2;stroke-linecap:square;stroke-linejoin:round;stroke-miterlimit:4;stroke-dasharray:none;stroke-opacity:1;paint-order:markers stroke fill"
           d="m 5.2360797,39.426641 c -0.00473,0.0016 -0.00894,0.0043 -0.013672,0.0059 v 24 c 0,4 8.0000003,8 12.0000003,8 h 14 c 2.209138,0 4,-1.790862 4,-4 0,-0.149483 -0.02895,-0.290319 -0.04492,-0.435546 -0.279643,1.935726 -1.928191,3.427693 -3.941408,3.427693 h -14 c -4,0 -12.0000003,-4 -12.0000003,-8 z"
           transform="matrix(0.13229167,0,0,0.13229167,-7.6710185,-7.4094951)"
           sodipodi:nodetypes="ccccccccccc" />
      </g>
    </g>
    <path
       id="path992"
       style="fill:#000000;fill-opacity:0.3;fill-rule:evenodd;stroke:none;stroke-width:0.79375;stroke-linecap:round;stroke-linejoin:round;paint-order:markers fill stroke;stop-color:#000000"
       d="m 19.040695,278.32465 c -0.05639,0.53215 -0.501574,0.94835 -1.049031,0.94826 l -3.966683,-0.002 c -0.146126,0 -0.264584,0.0592 -0.264584,0.13229 0,0.0731 0.118458,0.13229 0.264584,0.13229 0.005,7e-5 0.01,7e-5 0.01499,0 l 3.951696,0.002 c 0.585566,1e-4 1.06033,-0.4742 1.060401,-1.05936 -6.1e-5,-0.0514 -0.0039,-0.10267 -0.01137,-0.15348 z"
       sodipodi:nodetypes="cccscccccc" />
    <path
       id="path1014"
       style="fill:#000000;fill-opacity:0.3;fill-rule:evenodd;stroke:none;stroke-width:0.79375;stroke-linecap:round;stroke-linejoin:round;paint-order:markers fill stroke;stop-color:#000000"
       d="m 22.215694,276.20796 c -0.05639,0.53215 -0.501574,0.94835 -1.049031,0.94827 l -6.879167,-0.002 c -0.146126,0 -0.264583,0.0592 -0.264583,0.13229 0,0.0731 0.118457,0.1323 0.264583,0.1323 0.005,7e-5 0.01,7e-5 0.01499,0 l 6.864181,0.002 c 0.585565,9e-5 1.06033,-0.47421 1.0604,-1.05937 -6.1e-5,-0.0514 -0.0039,-0.10266 -0.01137,-0.15348 z"
       sodipodi:nodetypes="cccscccccc" />
    <path
       id="path1027"
       style="fill:#000000;fill-opacity:0.3;fill-rule:evenodd;stroke:none;stroke-width:0.79375;stroke-linecap:round;stroke-linejoin:round;paint-order:markers fill stroke;stop-color:#000000"
       d="m 17.982361,280.44131 c -0.05639,0.53215 -0.501574,0.94835 -1.049031,0.94826 l -2.910416,-0.002 c -0.146126,0 -0.264584,0.0592 -0.264584,0.13229 0,0.0731 0.118458,0.13229 0.264584,0.13229 0.005,7e-5 0.01,7e-5 0.01499,0 l 2.895429,0.002 c 0.585566,10e-5 1.06033,-0.4742 1.060401,-1.05936 -6.2e-5,-0.0514 -0.0039,-0.10267 -0.01137,-0.15348 z"
       sodipodi:nodetypes="cccscccccc" />
    <path
       id="path1051"
       style="fill:#000000;fill-opacity:0.3;fill-rule:evenodd;stroke:none;stroke-width:0.79375;stroke-linecap:round;stroke-linejoin:round;paint-order:markers fill stroke;stop-color:#000000"
       d="m 16.924028,274.09131 c -0.05639,0.53215 -0.501575,0.94835 -1.049032,0.94826 l -2.90662,-0.002 c -0.146125,0 -0.264583,0.0592 -0.264583,0.13229 0,0.0731 0.118458,0.13229 0.264583,0.13229 0.005,7e-5 0.01,7e-5 0.01499,0 l 2.891634,0.002 c 0.585566,9e-5 1.06033,-0.47421 1.0604,-1.05937 -6.1e-5,-0.0514 -0.0039,-0.10266 -0.01137,-0.15348 z"
       sodipodi:nodetypes="cccscccccc" />
    <g
       aria-label="K"
       id="g1128"
       style="font-size:3.175px;line-height:0.75;font-family:'Liberation Sans';-inkscape-font-specification:'Liberation Sans';fill:#000000;fill-opacity:0.2;fill-rule:evenodd;stroke-width:1.05833;stroke-linecap:square;stroke-linejoin:round;stroke-miterlimit:4;stroke-dasharray:none;paint-order:markers fill stroke;stop-color:#000000"
       transform="translate(0.1322917,0.13228692)">
      <path
         d="m 4.2896606,291.17915 -0.7844482,-1.0327 -0.269751,0.21229 v 0.82041 H 2.778125 v -2.24895 h 0.4573364 v 1.01993 l 0.984436,-1.01993 h 0.5333008 l -0.9332763,0.95129 1.0092407,1.29766 z"
         style="font-style:normal;font-variant:normal;font-weight:bold;font-stretch:normal;font-size:3.175px;font-family:'Liberation Sans';-inkscape-font-specification:'Liberation Sans Bold';fill:#000000;fill-opacity:0.2;stroke-width:1.07386"
         id="path1126"
         sodipodi:nodetypes="ccccccccccccc" />
    </g>
    <g
       aria-label="K"
       id="text1110"
       style="font-size:3.175px;line-height:0.75;font-family:'Liberation Sans';-inkscape-font-specification:'Liberation Sans';fill:#475766;fill-opacity:1;fill-rule:evenodd;stroke-width:1.05833;stroke-linecap:square;stroke-linejoin:round;stroke-miterlimit:4;stroke-dasharray:none;paint-order:markers fill stroke;stop-color:#000000">
      <path
         d="m 4.2896606,291.17915 -0.7844482,-1.0327 -0.269751,0.21229 v 0.82041 H 2.778125 v -2.24895 h 0.4573364 v 1.01993 l 0.984436,-1.01993 h 0.5333008 l -0.9332763,0.95129 1.0092407,1.29766 z"
         style="font-style:normal;font-variant:normal;font-weight:bold;font-stretch:normal;font-size:3.175px;font-family:'Liberation Sans';-inkscape-font-specification:'Liberation Sans Bold';stroke-width:1.07386"
         id="path1123"
         sodipodi:nodetypes="ccccccccccccc" />
    </g>
  </g>
</svg>
