<?xml version="1.0" encoding="UTF-8" standalone="no"?>
<svg
   xmlns:dc="http://purl.org/dc/elements/1.1/"
   xmlns:cc="http://creativecommons.org/ns#"
   xmlns:rdf="http://www.w3.org/1999/02/22-rdf-syntax-ns#"
   xmlns:svg="http://www.w3.org/2000/svg"
   xmlns="http://www.w3.org/2000/svg"
   xmlns:xlink="http://www.w3.org/1999/xlink"
   xmlns:sodipodi="http://sodipodi.sourceforge.net/DTD/sodipodi-0.dtd"
   xmlns:inkscape="http://www.inkscape.org/namespaces/inkscape"
   height="128"
   width="128"
   version="1.1"
   id="svg47"
   sodipodi:docname="preferences-system-linux.svg"
   inkscape:version="1.0.2 (e86c870879, 2021-01-15)">
  <metadata
     id="metadata53">
    <rdf:RDF>
      <cc:Work
         rdf:about="">
        <dc:format>image/svg+xml</dc:format>
        <dc:type
           rdf:resource="http://purl.org/dc/dcmitype/StillImage" />
        <dc:title></dc:title>
      </cc:Work>
    </rdf:RDF>
  </metadata>
  <defs
     id="defs51" />
  <sodipodi:namedview
     pagecolor="#ffffff"
     bordercolor="#666666"
     borderopacity="1"
     objecttolerance="10"
     gridtolerance="10"
     guidetolerance="10"
     inkscape:pageopacity="0"
     inkscape:pageshadow="2"
     inkscape:window-width="640"
     inkscape:window-height="480"
     id="namedview49"
     showgrid="false"
     inkscape:snap-nodes="true"
     inkscape:snap-bbox="true"
     inkscape:bbox-nodes="true"
     inkscape:snap-page="true"
     inkscape:zoom="2.0080728"
     inkscape:cx="-84.733704"
     inkscape:cy="-27.994992"
     inkscape:current-layer="svg47" />
  <linearGradient
     id="a">
    <stop
       offset="0"
       stop-color="#f39c1f"
       id="stop2" />
    <stop
       offset="1"
       stop-color="#fdbc4b"
       id="stop4" />
  </linearGradient>
  <linearGradient
     id="c"
     gradientUnits="userSpaceOnUse"
     x1="17.382"
     x2="17.032"
     y1="26.933001"
     y2="13.634"
     gradientTransform="scale(4)">
    <stop
       offset="0"
       stop-color="#fcfcfc"
       id="stop7" />
    <stop
       offset="1"
       stop-color="#eff0f1"
       id="stop9" />
  </linearGradient>
  <linearGradient
     id="b"
     gradientUnits="userSpaceOnUse"
     x1="15"
     x2="15"
     y1="27"
     y2="1.999"
     gradientTransform="scale(4)">
    <stop
       offset="0"
       stop-color="#1d1e1e"
       id="stop12" />
    <stop
       offset="1"
       stop-color="#44484c"
       id="stop14" />
  </linearGradient>
  <linearGradient
     id="g"
     gradientUnits="userSpaceOnUse"
     x1="16"
     x2="15.731"
     xlink:href="#a"
     y1="12"
     y2="8.1520004"
     gradientTransform="scale(4)" />
  <linearGradient
     id="d"
     gradientUnits="userSpaceOnUse"
     x1="10"
     x2="10"
     xlink:href="#a"
     y1="30"
     y2="20.999001"
     gradientTransform="scale(4)" />
  <linearGradient
     id="e"
     gradientUnits="userSpaceOnUse"
     x1="22.778"
     x2="22.645"
     xlink:href="#a"
     y1="29.541"
     y2="22.641001"
     gradientTransform="scale(4)" />
  <linearGradient
     id="f"
     gradientUnits="userSpaceOnUse"
     x1="13.167"
     x2="16.667"
     y1="10.613"
     y2="14.113"
     gradientTransform="scale(4)">
    <stop
       offset="0"
       id="stop20" />
    <stop
       offset="1"
       stop-opacity="0"
       id="stop22" />
  </linearGradient>
  <path
     d="M 50.508,41.808 C 51.948,36.104 50.56,30.04 50.76,24.16 51.2,11.32 58.328,8.408 65.636,8.028 c 8.384,-0.44 18.308,4.528 18.908,16.64 0.284,5.796 -0.74,11.784 0.756,17.392 3.484,13.08 18.44,22.524 18.656,36.052 0.2,12.856 -5.72,28.008 -16.64,34.792 -5.64,3.504 -13.292,-0.7 -19.92,-0.252 -7.372,0.504 -15.572,7.052 -21.932,3.28 C 33.92,109.08 30.736,91.512 31.6,78.112 32.48,64.496 47.168,55.04 50.508,41.808 Z"
     fill="url(#b)"
     id="path25"
     style="fill:url(#b);stroke-width:4" />
  <ellipse
     cx="71.040001"
     cy="31.128"
     fill="#fcfcfc"
     fill-opacity="0.941"
     rx="5.928"
     ry="7.664"
     id="ellipse27"
     style="stroke-width:4" />
  <ellipse
     cx="57"
     cy="31.396"
     fill="#fcfcfc"
     fill-opacity="0.941"
     rx="4.1880002"
     ry="6.2399998"
     id="ellipse29"
     style="stroke-width:4" />
  <ellipse
     cx="70.304001"
     cy="32.375999"
     fill="#232629"
     rx="2.428"
     ry="4.0120001"
     id="ellipse31"
     style="stroke-width:4" />
  <ellipse
     cx="57.02"
     cy="32.375999"
     fill="#232629"
     rx="1.848"
     ry="2.9879999"
     id="ellipse33"
     style="stroke-width:4" />
  <path
     d="m 70.256,39.028 a 20.272,20.272 0 0 0 -2.18,0.016 c -4.92,0.288 -10.192,2.22 -12.856,4.56 -4.264,3.748 -1.736,7.392 -3.572,12.656 -1.836,5.264 -6.456,12.152 -7.84,18.72 -0.56,2.652 -1.272,5.304 -1.76,7.968 L 55.22,99.044 c 2.588,3.16 -4.164,1.988 -10.444,-2.08 4.456,6.268 13.296,12.48 22.024,11.892 9.296,-0.624 20.272,-10.344 23.784,-18.292 -3.408,-0.576 -6.72,-5.704 -3.992,-9.524 0.948,-1.324 2.984,-1.44 4.732,-1.16 -1.052,-4.072 -3.148,-7.72 -4.2,-10.784 -1.824,-5.344 -3.944,-6.84 -5.88,-11.584 -1.94,-4.744 0.108,-13.52 -5.352,-16.936 -1.536,-0.96 -3.5,-1.44 -5.636,-1.548 z"
     fill="url(#c)"
     id="path35"
     style="fill:url(#c);stroke-width:4" />
  <path
     d="m 29.332,89.46 c 1.948,-1.56 2.86,-4.732 5.292,-5.296 1.904,-0.44 4.04,0.652 5.548,1.892 3.444,2.832 3.968,8.056 6.68,11.6 1.808,2.356 4.872,3.696 6.304,6.3 1.492,2.72 3.416,6.312 2.016,9.076 -1.888,3.724 -7.296,4.88 -11.472,5.04 -2.536,0.1 -4.74,-1.84 -7.184,-2.52 -3.56,-0.992 -7.668,-0.38 -10.84,-2.268 -2.512,-1.492 -5.488,-3.764 -5.672,-6.68 -0.076,-1.152 1.608,-1.78 1.888,-2.9 0.744,-2.944 -2.108,-6.36 -0.756,-9.08 1.44,-2.888 5.672,-3.148 8.196,-5.164 z"
     fill="url(#d)"
     id="path37"
     style="fill:url(#d);stroke-width:4" />
  <path
     d="m 85.72,85.076 c -0.804,0.72 -1.484,1.628 -1.98,2.528 -2.152,3.908 -0.7,8.96 -1.908,13.252 -0.808,2.86 -3.156,5.24 -3.52,8.184 -0.38,3.08 -0.84,7.128 1.484,9.18 3.136,2.76 8.588,1.828 12.524,0.432 2.396,-0.848 3.72,-3.464 5.74,-5 2.936,-2.24 6.98,-3.2 9.228,-6.124 1.78,-2.32 3.708,-5.528 2.8,-8.304 -0.36,-1.096 -2.152,-1.06 -2.828,-1.996 -1.78,-2.46 -0.4,-6.68 -2.66,-8.704 -1.68,-1.5 -4.148,-1.328 -6.532,-1.392 -1.152,2.468 -4.904,4.148 -7.484,3.432 -2.184,-0.608 -4.36,-3.092 -4.864,-5.488 z"
     fill="url(#e)"
     id="path39"
     style="fill:url(#e);stroke-width:4" />
  <path
     d="m 76,37.604 13.332,13.332 -18.664,9.52 -18,-18"
     fill="url(#f)"
     opacity="0.2"
     id="path41"
     style="fill:url(#f);stroke-width:4" />
  <path
     d="m 62.924,32.608 c 2.636,-0.14 5.06,1.568 7.44,2.708 2.3,1.108 6.228,1.44 6.552,3.972 0.372,2.876 -3.68,4.572 -6.048,6.24 -2.116,1.492 -4.476,3.24 -7.06,3.216 -2.612,-0.028 -4.924,-1.9 -7.06,-3.404 -1.76,-1.24 -4.532,-2.384 -4.6,-4.54 -0.076,-2.304 2.76,-3.772 4.6,-5.168 1.824,-1.384 3.888,-2.904 6.176,-3.024 z"
     fill="url(#g)"
     id="path43"
     style="fill:url(#g);stroke-width:4" />
  <path
     d="m 36.084,84.1 a 4.216,4.216 0 0 0 -1.46,0.064 c -2.432,0.564 -3.348,3.736 -5.296,5.296 -2.524,2.016 -6.756,2.28 -8.196,5.164 -0.6,1.208 -0.328,2.56 0.048,3.94 1.472,-2.824 5.644,-3.104 8.148,-5.104 1.948,-1.56 2.864,-4.732 5.296,-5.296 1.904,-0.44 4.04,0.652 5.548,1.892 3.444,2.832 3.968,8.056 6.68,11.6 1.808,2.36 4.872,3.692 6.304,6.296 0.78,1.424 1.652,3.088 2.132,4.744 1.1,-2.716 -0.7,-6.128 -2.132,-8.744 -1.432,-2.6 -4.496,-3.94 -6.304,-6.296 -2.712,-3.544 -3.236,-8.768 -6.68,-11.6 C 39.04,85.124 37.56,84.28 36.084,84.1 Z m -14.492,20.144 c -0.556,0.804 -1.648,1.408 -1.584,2.36 0.056,0.88 0.416,1.68 0.892,2.44 0.42,-0.408 0.86,-0.82 0.992,-1.34 0.28,-1.108 0.024,-2.284 -0.3,-3.46 z M 85.72,85.08 c -0.804,0.72 -1.48,1.62 -1.976,2.52 -2.152,3.908 -0.708,8.968 -1.916,13.26 -0.808,2.86 -3.152,5.236 -3.516,8.18 -0.212,1.72 -0.392,3.708 -0.156,5.516 0.052,-0.512 0.096,-1.04 0.16,-1.52 0.36,-2.94 2.704,-5.32 3.512,-8.176 1.208,-4.292 -0.24,-9.352 1.916,-13.26 0.496,-0.9 1.172,-1.8 1.976,-2.52 0.504,2.396 2.68,4.876 4.864,5.48 2.58,0.72 6.336,-0.96 7.488,-3.428 2.384,0.064 4.848,-0.108 6.528,1.392 2.26,2.024 0.88,6.24 2.656,8.704 0.6,0.828 2.028,0.94 2.6,1.708 0.424,-1.248 0.62,-2.516 0.228,-3.708 -0.36,-1.096 -2.152,-1.064 -2.828,-2 -1.78,-2.46 -0.396,-6.68 -2.656,-8.704 -1.68,-1.5 -4.144,-1.328 -6.528,-1.392 C 96.92,89.6 93.164,91.28 90.584,90.564 88.4,89.956 86.224,87.476 85.72,85.08 Z"
     fill="#eff0f1"
     fill-opacity="0.125"
     id="path45"
     style="stroke-width:4" />
</svg>
