<?xml version="1.0" encoding="UTF-8" standalone="no"?>
<!-- Created with Inkscape (http://www.inkscape.org/) -->

<svg
   width="128"
   height="128"
   viewBox="0 0 128 128.00001"
   version="1.1"
   id="svg1"
   inkscape:version="1.3 (0e150ed6c4, 2023-07-21)"
   sodipodi:docname="audio-headphones.svg"
   xmlns:inkscape="http://www.inkscape.org/namespaces/inkscape"
   xmlns:sodipodi="http://sodipodi.sourceforge.net/DTD/sodipodi-0.dtd"
   xmlns:xlink="http://www.w3.org/1999/xlink"
   xmlns="http://www.w3.org/2000/svg"
   xmlns:svg="http://www.w3.org/2000/svg">
  <sodipodi:namedview
     id="namedview1"
     pagecolor="#ffffff"
     bordercolor="#000000"
     borderopacity="0.25"
     inkscape:showpageshadow="2"
     inkscape:pageopacity="0.0"
     inkscape:pagecheckerboard="0"
     inkscape:deskcolor="#d1d1d1"
     inkscape:document-units="px"
     showgrid="false"
     inkscape:zoom="3.1282667"
     inkscape:cx="22.056943"
     inkscape:cy="102.4529"
     inkscape:window-width="1920"
     inkscape:window-height="1093"
     inkscape:window-x="0"
     inkscape:window-y="0"
     inkscape:window-maximized="1"
     inkscape:current-layer="layer1">
    <inkscape:grid
       id="grid1"
       units="px"
       originx="0"
       originy="0"
       spacingx="1"
       spacingy="1.0000001"
       empcolor="#e52222"
       empopacity="0.2"
       color="#0099e5"
       opacity="0.14901961"
       empspacing="4"
       dotted="false"
       gridanglex="30"
       gridanglez="30"
       visible="false" />
  </sodipodi:namedview>
  <defs
     id="defs1">
    <linearGradient
       inkscape:collect="always"
       id="linearGradient4541">
      <stop
         style="stop-color:#ffeeca;stop-opacity:1"
         offset="0"
         id="stop4537" />
      <stop
         style="stop-color:#da9f33;stop-opacity:1"
         offset="1"
         id="stop4539" />
    </linearGradient>
    <linearGradient
       inkscape:collect="always"
       xlink:href="#linearGradient4541"
       id="linearGradient4623"
       x1="2.778125"
       y1="290.25311"
       x2="6.7468753"
       y2="294.22186"
       gradientUnits="userSpaceOnUse"
       gradientTransform="matrix(7.559055,0,0,7.5590527,-48,-2065.0386)" />
    <linearGradient
       inkscape:collect="always"
       xlink:href="#linearGradient4541"
       id="linearGradient4549"
       gradientUnits="userSpaceOnUse"
       x1="2.6458335"
       y1="290.12082"
       x2="6.8791666"
       y2="294.35416"
       gradientTransform="matrix(7.559055,0,0,7.5590527,-48,-2065.0386)" />
    <linearGradient
       gradientTransform="matrix(7.559055,0,0,7.5590527,128.00001,-2117.0386)"
       y2="294.35416"
       x2="6.8791666"
       y1="290.12082"
       x1="2.6458335"
       gradientUnits="userSpaceOnUse"
       id="linearGradient4549-3"
       xlink:href="#linearGradient4541"
       inkscape:collect="always" />
    <linearGradient
       inkscape:collect="always"
       xlink:href="#linearGradient4780"
       id="linearGradient11"
       x1="80.492744"
       y1="286.87524"
       x2="57.515373"
       y2="345.62625"
       gradientUnits="userSpaceOnUse"
       gradientTransform="translate(-14,-262.13334)" />
    <linearGradient
       id="linearGradient4780"
       inkscape:collect="always">
      <stop
         id="stop4776"
         offset="0"
         style="stop-color:#1fa4d1;stop-opacity:1" />
      <stop
         id="stop4778"
         offset="1"
         style="stop-color:#035378;stop-opacity:1" />
    </linearGradient>
    <linearGradient
       inkscape:collect="always"
       xlink:href="#linearGradient4820"
       id="linearGradient14"
       gradientUnits="userSpaceOnUse"
       x1="68.283279"
       y1="322.8056"
       x2="51.166092"
       y2="361.13406"
       gradientTransform="translate(-14,-262.13334)" />
    <linearGradient
       inkscape:collect="always"
       id="linearGradient4820">
      <stop
         style="stop-color:#8edefe;stop-opacity:0.39461884"
         offset="0"
         id="stop4816" />
      <stop
         style="stop-color:#01374d;stop-opacity:0"
         offset="1"
         id="stop4818" />
    </linearGradient>
    <radialGradient
       inkscape:collect="always"
       xlink:href="#linearGradient4806"
       id="radialGradient13"
       cx="145.21747"
       cy="295.81296"
       fx="145.21747"
       fy="295.81296"
       r="19.556227"
       gradientTransform="matrix(1.4213145,0.62988723,-1.1131082,2.5116827,187.52202,-779.72927)"
       gradientUnits="userSpaceOnUse" />
    <linearGradient
       id="linearGradient4806"
       inkscape:collect="always">
      <stop
         id="stop4802"
         offset="0"
         style="stop-color:#494949;stop-opacity:1" />
      <stop
         id="stop4804"
         offset="1"
         style="stop-color:#e7e7e7;stop-opacity:1" />
    </linearGradient>
  </defs>
  <g
     inkscape:label="Layer 1"
     inkscape:groupmode="layer"
     id="layer1">
    <path
       id="path6"
       style="fill:#000000;fill-rule:evenodd;stroke-width:0.921918;stroke-linecap:square;stroke-linejoin:round;paint-order:fill markers stroke;fill-opacity:0.2"
       d="M 108.17392,77.089079 C 102.73382,95.275624 87.296051,109.70081 74.221796,108.32491 61.392366,106.97477 56.76679,90.965632 63.323349,73.480961 69.521897,56.951017 83.691753,44.747518 95.451128,45.434655 107.41269,46.133613 113.30744,59.927426 108.17392,77.089079 Z"
       sodipodi:nodetypes="ccccc" />
    <g
       id="g8"
       transform="matrix(3.7795276,0,0,3.7795276,-142.2513,-0.63932901)">
      <path
         style="fill:#ff5dff;fill-opacity:1;stroke:none;stroke-width:0.264583px;stroke-linecap:butt;stroke-linejoin:miter;stroke-opacity:1"
         d="M 8.2020832,1.8520834 1.8520833,25.929167 26.9875,32.014584 31.220833,4.7625001 Z"
         id="path8"
         sodipodi:nodetypes="ccccc" />
      <rect
         style="opacity:0.346774;fill:#365dff;fill-opacity:1;fill-rule:evenodd;stroke:none;stroke-width:0.105833;stroke-linecap:round;stroke-linejoin:round;paint-order:fill markers stroke"
         id="rect8"
         width="33.866665"
         height="33.866665"
         x="0"
         y="0"
         ry="0" />
    </g>
    <circle
       r="0"
       cy="143.99985"
       cx="-12"
       id="ellipse4551"
       style="fill:#ffeeca;fill-opacity:1;stroke:none;stroke-width:1.4;stroke-linecap:round;paint-order:markers stroke fill" />
    <circle
       r="0"
       cy="143.99985"
       cx="-12"
       id="ellipse4553"
       style="fill:url(#linearGradient4549);fill-opacity:1;stroke:#000000;stroke-width:1.4;stroke-linecap:round;paint-order:markers stroke fill" />
    <path
       cx="4.7624998"
       cy="292.23749"
       r="2.1166666"
       style="fill:url(#linearGradient4623);fill-opacity:1;stroke:none;stroke-width:1.4;stroke-linecap:round;paint-order:markers stroke fill"
       id="path4625"
       d=""
       inkscape:connector-curvature="0" />
    <circle
       style="fill:#ffeeca;fill-opacity:1;stroke:none;stroke-width:1.4;stroke-linecap:round;paint-order:markers stroke fill"
       id="ellipse4551-2"
       cx="164"
       cy="91.99984"
       r="0" />
    <circle
       style="fill:url(#linearGradient4549-3);fill-opacity:1;stroke:#000000;stroke-width:1.4;stroke-linecap:round;paint-order:markers stroke fill"
       id="ellipse4553-6"
       cx="164"
       cy="91.99984"
       r="0" />
    <path
       id="path5-6"
       style="opacity:0.41129;fill:#ff2cff;fill-opacity:0.31893;fill-rule:evenodd;stroke-width:2.65759;stroke-linecap:square;stroke-linejoin:round;paint-order:fill markers stroke"
       d="M 93.45923,63.42096 C 88.84366,89.74638 77.843898,110.60888 69.300559,108.5844 60.920803,106.59869 58.785013,83.4119 64.09939,58.12483 c 5.022258,-23.8971 15.048408,-41.5241 22.75822,-40.5187 7.84531,1.02308 10.95517,20.98389 6.60162,45.81483 z"
       sodipodi:nodetypes="ccccc" />
    <path
       id="ellipse5-1"
       style="opacity:0.41129;fill:#ff2cff;fill-opacity:0.31893;fill-rule:evenodd;stroke-width:0.268001;stroke-linecap:square;stroke-linejoin:round;paint-order:fill markers stroke"
       d="m 37.929557,53.40415 c -0.583952,2.41731 -1.659709,4.27538 -2.398632,4.13807 -0.737628,-0.13706 -0.854323,-2.2102 -0.264798,-4.61852 0.586258,-2.39498 1.651668,-4.22306 2.383744,-4.09493 0.733349,0.12835 0.860391,2.1715 0.279686,4.57538 z" />
    <path
       style="fill:#412cff;fill-opacity:0.31893;stroke:none;stroke-width:1px;stroke-linecap:butt;stroke-linejoin:miter;stroke-opacity:1"
       d="M 82.28356,18.92771 37.211894,48.9522 35.184432,57.27326 65.183541,105.21191 Z"
       id="path6-8"
       sodipodi:nodetypes="ccccc" />
    <path
       id="path7-7"
       style="fill:url(#linearGradient11);fill-rule:evenodd;stroke-width:2.65759;stroke-linecap:square;stroke-linejoin:round;paint-order:fill markers stroke"
       d="m 86.85761,17.60613 c -1.469045,-0.19157 -3.009629,0.28176 -4.574204,1.32404 -15.001068,10.04112 -30.096525,19.97012 -45.073528,30.03086 -0.690428,0.45975 -1.477426,2.06277 -1.943751,3.96267 -0.465979,1.90872 -0.499218,3.67002 -0.07938,4.3406 9.408512,15.02842 19.374792,31.01933 29.99773,47.94476 1.142246,1.82537 2.51816,2.99669 4.116085,3.37534 8.543332,2.02447 19.543108,-18.83804 24.158668,-45.16344 4.35354,-24.83091 1.24368,-44.79175 -6.60162,-45.81483 z"
       sodipodi:nodetypes="ccccccccc" />
    <path
       id="path9-9"
       style="fill:none;fill-opacity:0.31893;fill-rule:evenodd;stroke:#000000;stroke-width:0.9;stroke-linecap:square;stroke-linejoin:round;stroke-dasharray:none;stroke-opacity:1;paint-order:fill markers stroke"
       d="m 86.85761,17.60613 c -1.469045,-0.19157 -3.009629,0.28176 -4.574204,1.32404 -15.001068,10.04112 -30.096525,19.97012 -45.073528,30.03086 -0.690428,0.45975 -1.477426,2.06277 -1.943751,3.96267 -0.465979,1.90872 -0.499218,3.67002 -0.07938,4.3406 9.408512,15.02842 19.374792,31.01933 29.99773,47.94476 1.142246,1.82537 2.51816,2.99669 4.116085,3.37534 8.543332,2.02447 19.543108,-18.83804 24.158668,-45.16344 4.35354,-24.83091 1.24368,-44.79175 -6.60162,-45.81483 z"
       sodipodi:nodetypes="ccccccccc" />
    <path
       id="path14-2"
       style="fill:url(#linearGradient14);fill-rule:evenodd;stroke-width:2.65759;stroke-linecap:square;stroke-linejoin:round;paint-order:fill markers stroke"
       d="m 86.85761,17.60613 c -1.469045,-0.19157 -3.009629,0.28176 -4.574204,1.32404 -15.001068,10.04112 -30.096525,19.97012 -45.073528,30.03086 -0.690428,0.45975 -1.477426,2.06277 -1.943751,3.96267 -0.465979,1.90872 -0.499218,3.67002 -0.07938,4.3406 9.408512,15.02842 19.374792,31.01933 29.99773,47.94476 1.142246,1.82537 2.51816,2.99669 4.116085,3.37534 8.543332,2.02447 19.543108,-18.83804 24.158668,-45.16344 4.35354,-24.83091 1.24368,-44.79175 -6.60162,-45.81483 z"
       sodipodi:nodetypes="ccccccccc" />
    <path
       id="path11-0"
       style="fill:url(#radialGradient13);fill-rule:evenodd;stroke-width:0.887547;stroke-linecap:square;stroke-linejoin:round;paint-order:fill markers stroke"
       d="M 93.45923,63.42097 C 88.87942,89.54246 78.069452,110.26148 69.713749,108.28526 61.514513,106.34604 59.471067,83.35198 64.730038,58.2386 69.701849,34.4965 79.563017,16.96851 87.11075,17.95545 c 7.6775,1.00392 10.6702,20.81609 6.34848,45.46552 z"
       sodipodi:nodetypes="ccccc" />
    <path
       id="path13-2"
       style="fill:none;fill-rule:evenodd;stroke:#000000;stroke-width:0.887547;stroke-linecap:square;stroke-linejoin:round;stroke-opacity:1;paint-order:fill markers stroke"
       d="M 93.45923,63.42097 C 88.87942,89.54246 78.069452,110.26148 69.713749,108.28526 61.514513,106.34604 59.471067,83.35198 64.730038,58.2386 69.701849,34.4965 79.563017,16.96851 87.11075,17.95545 c 7.6775,1.00392 10.6702,20.81609 6.34848,45.46552 z"
       sodipodi:nodetypes="ccccc" />
  </g>
</svg>
