<?xml version="1.0" encoding="UTF-8" standalone="no"?>
<!-- Created with Inkscape (http://www.inkscape.org/) -->

<svg
   width="128"
   height="128"
   viewBox="0 0 128 128.00001"
   version="1.1"
   id="svg1"
   inkscape:version="1.3 (0e150ed6c4, 2023-07-21)"
   sodipodi:docname="audio.svg"
   xmlns:inkscape="http://www.inkscape.org/namespaces/inkscape"
   xmlns:sodipodi="http://sodipodi.sourceforge.net/DTD/sodipodi-0.dtd"
   xmlns:xlink="http://www.w3.org/1999/xlink"
   xmlns="http://www.w3.org/2000/svg"
   xmlns:svg="http://www.w3.org/2000/svg">
  <sodipodi:namedview
     id="namedview1"
     pagecolor="#ffffff"
     bordercolor="#000000"
     borderopacity="0.25"
     inkscape:showpageshadow="2"
     inkscape:pageopacity="0.0"
     inkscape:pagecheckerboard="0"
     inkscape:deskcolor="#d1d1d1"
     inkscape:document-units="px"
     showgrid="false"
     inkscape:zoom="6.4453125"
     inkscape:cx="63.922424"
     inkscape:cy="64"
     inkscape:window-width="1920"
     inkscape:window-height="1093"
     inkscape:window-x="0"
     inkscape:window-y="0"
     inkscape:window-maximized="1"
     inkscape:current-layer="layer1">
    <inkscape:grid
       id="grid1"
       units="px"
       originx="0"
       originy="0"
       spacingx="1"
       spacingy="1.0000001"
       empcolor="#e52222"
       empopacity="0.2"
       color="#0099e5"
       opacity="0.14901961"
       empspacing="4"
       dotted="false"
       gridanglex="30"
       gridanglez="30"
       visible="false" />
  </sodipodi:namedview>
  <defs
     id="defs1">
    <linearGradient
       inkscape:collect="always"
       id="linearGradient4541">
      <stop
         style="stop-color:#ffeeca;stop-opacity:1"
         offset="0"
         id="stop4537" />
      <stop
         style="stop-color:#da9f33;stop-opacity:1"
         offset="1"
         id="stop4539" />
    </linearGradient>
    <linearGradient
       inkscape:collect="always"
       xlink:href="#linearGradient4541"
       id="linearGradient4623"
       x1="2.778125"
       y1="290.25311"
       x2="6.7468753"
       y2="294.22186"
       gradientUnits="userSpaceOnUse"
       gradientTransform="matrix(7.559055,0,0,7.5590527,-48,-2065.0386)" />
    <linearGradient
       inkscape:collect="always"
       xlink:href="#linearGradient4541"
       id="linearGradient4549"
       gradientUnits="userSpaceOnUse"
       x1="2.6458335"
       y1="290.12082"
       x2="6.8791666"
       y2="294.35416"
       gradientTransform="matrix(7.559055,0,0,7.5590527,-48,-2065.0386)" />
    <linearGradient
       gradientTransform="matrix(7.559055,0,0,7.5590527,128.00001,-2117.0386)"
       y2="294.35416"
       x2="6.8791666"
       y1="290.12082"
       x1="2.6458335"
       gradientUnits="userSpaceOnUse"
       id="linearGradient4549-3"
       xlink:href="#linearGradient4541"
       inkscape:collect="always" />
    <linearGradient
       inkscape:collect="always"
       xlink:href="#linearGradient1340"
       id="linearGradient1374"
       gradientUnits="userSpaceOnUse"
       x1="22.225"
       y1="281.91873"
       x2="24.077084"
       y2="274.77499"
       gradientTransform="translate(-16.933332,13.493753)" />
    <linearGradient
       id="linearGradient1340"
       inkscape:collect="always">
      <stop
         id="stop1336"
         offset="0"
         style="stop-color:#fdfdfd;stop-opacity:1" />
      <stop
         style="stop-color:#a3a3a3;stop-opacity:1;"
         offset="0.48148209"
         id="stop1352" />
      <stop
         id="stop1354"
         offset="0.77272725"
         style="stop-color:#767676;stop-opacity:1;" />
      <stop
         id="stop1338"
         offset="1"
         style="stop-color:#4a4a4a;stop-opacity:1" />
    </linearGradient>
    <linearGradient
       inkscape:collect="always"
       xlink:href="#linearGradient1340"
       id="linearGradient1383"
       gradientUnits="userSpaceOnUse"
       x1="22.225"
       y1="281.91873"
       x2="24.077084"
       y2="274.77499"
       gradientTransform="translate(-16.933333,13.493747)" />
    <linearGradient
       inkscape:collect="always"
       xlink:href="#linearGradient1106"
       id="linearGradient1323"
       x1="21.695833"
       y1="277.42081"
       x2="20.902082"
       y2="279.27289"
       gradientUnits="userSpaceOnUse"
       gradientTransform="translate(-17.197916,13.49375)" />
    <linearGradient
       inkscape:collect="always"
       id="linearGradient1106">
      <stop
         style="stop-color:#878787;stop-opacity:1"
         offset="0"
         id="stop1102" />
      <stop
         style="stop-color:#606060;stop-opacity:1"
         offset="1"
         id="stop1104" />
    </linearGradient>
    <linearGradient
       inkscape:collect="always"
       xlink:href="#linearGradient1299"
       id="linearGradient1385"
       gradientUnits="userSpaceOnUse"
       gradientTransform="translate(-16.933333,13.493759)"
       x1="20.902082"
       y1="274.24582"
       x2="19.579166"
       y2="281.12497" />
    <linearGradient
       inkscape:collect="always"
       id="linearGradient1299">
      <stop
         style="stop-color:#26f2fc;stop-opacity:1"
         offset="0"
         id="stop1295" />
      <stop
         style="stop-color:#023a3c;stop-opacity:1"
         offset="1"
         id="stop1297" />
    </linearGradient>
    <linearGradient
       inkscape:collect="always"
       xlink:href="#linearGradient1264"
       id="linearGradient1274"
       gradientUnits="userSpaceOnUse"
       x1="28.310417"
       y1="292.76666"
       x2="28.310417"
       y2="287.47498" />
    <linearGradient
       inkscape:collect="always"
       id="linearGradient1264">
      <stop
         style="stop-color:#000001;stop-opacity:0.19607843"
         offset="0"
         id="stop1260" />
      <stop
         id="stop1276"
         offset="0.35000104"
         style="stop-color:#000002;stop-opacity:0.96385545" />
      <stop
         id="stop1270"
         offset="0.50000048"
         style="stop-color:#000004;stop-opacity:0.96787149" />
      <stop
         style="stop-color:#000002;stop-opacity:0.95983934"
         offset="0.64999986"
         id="stop1278" />
      <stop
         style="stop-color:#000000;stop-opacity:0.19607843"
         offset="1"
         id="stop1262" />
    </linearGradient>
  </defs>
  <g
     inkscape:label="Layer 1"
     inkscape:groupmode="layer"
     id="layer1">
    <g
       id="g8"
       transform="matrix(3.7795276,0,0,3.7795276,-134.98182,0.62060873)">
      <path
         style="fill:#ff5dff;fill-opacity:1;stroke:none;stroke-width:0.264583px;stroke-linecap:butt;stroke-linejoin:miter;stroke-opacity:1"
         d="M 8.2020832,1.8520834 1.8520833,25.929167 26.9875,32.014584 31.220833,4.7625001 Z"
         id="path8"
         sodipodi:nodetypes="ccccc" />
      <rect
         style="opacity:0.346774;fill:#365dff;fill-opacity:1;fill-rule:evenodd;stroke:none;stroke-width:0.105833;stroke-linecap:round;stroke-linejoin:round;paint-order:fill markers stroke"
         id="rect8"
         width="33.866665"
         height="33.866665"
         x="0"
         y="0"
         ry="0" />
    </g>
    <circle
       r="0"
       cy="143.99985"
       cx="-12"
       id="ellipse4551"
       style="fill:#ffeeca;fill-opacity:1;stroke:none;stroke-width:1.4;stroke-linecap:round;paint-order:markers stroke fill" />
    <circle
       r="0"
       cy="143.99985"
       cx="-12"
       id="ellipse4553"
       style="fill:url(#linearGradient4549);fill-opacity:1;stroke:#000000;stroke-width:1.4;stroke-linecap:round;paint-order:markers stroke fill" />
    <path
       cx="4.7624998"
       cy="292.23749"
       r="2.1166666"
       style="fill:url(#linearGradient4623);fill-opacity:1;stroke:none;stroke-width:1.4;stroke-linecap:round;paint-order:markers stroke fill"
       id="path4625"
       d=""
       inkscape:connector-curvature="0" />
    <circle
       style="fill:#ffeeca;fill-opacity:1;stroke:none;stroke-width:1.4;stroke-linecap:round;paint-order:markers stroke fill"
       id="ellipse4551-2"
       cx="164"
       cy="91.99984"
       r="0" />
    <circle
       style="fill:url(#linearGradient4549-3);fill-opacity:1;stroke:#000000;stroke-width:1.4;stroke-linecap:round;paint-order:markers stroke fill"
       id="ellipse4553-6"
       cx="164"
       cy="91.99984"
       r="0" />
    <g
       id="g4"
       transform="matrix(2.2078228,0,0,2.2078228,-456.96726,-489.94479)">
      <g
         id="g1400"
         transform="matrix(3.7795276,0,0,3.7795276,202.40004,-852.1176)">
        <path
           sodipodi:nodetypes="scssscsccscccs"
           inkscape:connector-curvature="0"
           id="ellipse1365"
           d="m 7.1510197,287.58615 c -0.6950672,-0.10344 -2.5222494,1.50932 -2.5222494,1.50932 l -0.3393446,-0.0569 c -0.3370493,-0.0565 -0.5803883,0.8687 -0.629588,1.05577 -0.049377,0.18773 -0.2989848,1.13679 0.043467,1.20235 l 0.3448358,0.066 c 0,0 0.9193517,2.26987 1.6464548,2.42425 0.0095,0.002 0.018954,7.6e-4 0.028455,0.002 0.00882,0.003 0.017635,0.007 0.026645,0.01 0.6570473,0.13965 1.5244027,-1.22092 1.9172142,-2.98547 0.379905,-1.70657 0.1643771,-3.12593 -0.4632414,-3.2192 -0.010623,-10e-4 -0.021302,-0.002 -0.032106,-0.002 8.084e-4,6e-5 0.00166,-7e-5 0.00247,-10e-6 -0.00797,-0.001 -0.01481,-0.005 -0.022937,-0.006 z"
           style="opacity:1;fill:url(#linearGradient1374);fill-opacity:1;stroke:#000000;stroke-width:0.224079;stroke-linecap:butt;stroke-linejoin:bevel;stroke-miterlimit:4;stroke-dasharray:none;stroke-opacity:0.967872;paint-order:markers fill stroke" />
        <path
           id="path1293"
           d="m 7.6669114,290.81319 c -0.39279,1.76445 -1.2600789,3.12499 -1.9171241,2.98549 -0.6486166,-0.13771 -0.8156708,-1.68266 -0.3934817,-3.40001 0.4086238,-1.66216 1.2274798,-2.89694 1.8474513,-2.80467 0.6275573,0.0934 0.843039,1.51271 0.4631545,3.21919 z"
           style="opacity:1;fill:url(#linearGradient1383);fill-opacity:1;stroke:none;stroke-width:0.378682;stroke-linecap:butt;stroke-linejoin:bevel;stroke-miterlimit:4;stroke-dasharray:none;stroke-opacity:0.196078;paint-order:markers fill stroke" />
        <path
           sodipodi:nodetypes="csc"
           inkscape:connector-curvature="0"
           id="path1315"
           d="m 4.9690021,291.33501 c 0,0 0.7552746,-0.0615 0.9415634,-0.8369 0.1835404,-0.76396 -0.4694945,-1.07166 -0.4694945,-1.07166"
           style="opacity:1;fill:url(#linearGradient1323);fill-opacity:1;stroke:#030303;stroke-width:0.11204;stroke-linecap:butt;stroke-linejoin:bevel;stroke-miterlimit:4;stroke-dasharray:none;stroke-opacity:1;paint-order:markers fill stroke" />
        <path
           style="opacity:1;fill:url(#linearGradient1385);fill-opacity:1;stroke:none;stroke-width:0.370417;stroke-linecap:butt;stroke-linejoin:bevel;stroke-miterlimit:4;stroke-dasharray:none;stroke-opacity:0.967872;paint-order:markers fill stroke"
           d="m 7.1510197,287.58615 c -0.6950672,-0.10344 -2.5222493,1.50932 -2.5222493,1.50932 l -0.3393451,-0.0569 c -0.3370492,-0.0565 -0.5803881,0.8687 -0.6295877,1.05577 -0.049377,0.18773 -0.2989849,1.13679 0.043467,1.20235 l 0.3448363,0.066 c 0,0 0.9193516,2.26987 1.6464547,2.42425 0.00998,0.002 0.019843,9.5e-4 0.029887,0.002 -0.6280173,-0.175 -0.7825851,-1.70187 -0.3679475,-3.39077 0.4014529,-1.63139 1.1997462,-2.85581 1.8174547,-2.80617 -0.00797,-0.002 -0.014809,-0.005 -0.022936,-0.006 z"
           id="path1358"
           inkscape:connector-curvature="0"
           sodipodi:nodetypes="scssscscccs" />
      </g>
      <g
         id="g1390"
         transform="matrix(3.7795276,0,0,3.7795276,138.40004,-846.11761)">
        <path
           style="opacity:1;fill:#ffffc0;fill-opacity:1;stroke:none;stroke-width:0.740833;stroke-linecap:butt;stroke-linejoin:miter;stroke-miterlimit:4;stroke-dasharray:none;stroke-opacity:0.388;paint-order:markers fill stroke"
           d="m 23.557157,289.03857 c 0.39082,0.294 0.743901,0.97735 0.77934,1.5889 0.746694,0.14448 1.095157,0.42567 1.546302,2.04068 0.755266,-0.72663 1.304392,-0.39492 1.700155,0.81047 1.364976,-1.73848 2.362159,-2.64525 3.701144,-3.05386 -1.162769,-0.63687 -1.822991,-1.59236 -2.161544,-3.07771 -0.495692,0.52738 -1.263698,0.40448 -1.453162,-0.6189 -0.567603,0.90223 -1.888617,1.68853 -2.679387,0.95763 -0.378147,0.51839 -0.887927,1.16922 -1.432848,1.35279 z"
           id="path1256"
           inkscape:connector-curvature="0"
           sodipodi:nodetypes="ccccccccc" />
        <path
           sodipodi:nodetypes="ccccccccc"
           inkscape:connector-curvature="0"
           id="path1204"
           d="m 23.557157,289.03857 c 0.39082,0.294 0.743901,0.97735 0.77934,1.5889 0.746694,0.14448 1.095157,0.42567 1.546302,2.04068 0.755266,-0.72663 1.304392,-0.39492 1.700155,0.81047 1.364976,-1.73848 2.362159,-2.64525 3.701144,-3.05386 -1.162769,-0.63687 -1.822991,-1.59236 -2.161544,-3.07771 -0.495692,0.52738 -1.263698,0.40448 -1.453162,-0.6189 -0.567603,0.90223 -1.888617,1.68853 -2.679387,0.95763 -0.378147,0.51839 -0.887927,1.16922 -1.432848,1.35279 z"
           style="opacity:1;fill:none;fill-opacity:0.288;stroke:#000001;stroke-width:0.11204;stroke-linecap:butt;stroke-linejoin:miter;stroke-miterlimit:4;stroke-dasharray:none;stroke-opacity:1;paint-order:markers fill stroke" />
        <path
           sodipodi:nodetypes="ccc"
           inkscape:connector-curvature="0"
           id="path1258"
           d="m 24.64608,289.23392 0.270166,-0.35927 0.110456,1.25532 0.628948,-1.12559 0.03748,1.67289 0.793894,-1.93715 -0.196393,2.9133 1.111154,-3.57251 -0.167743,2.89138 0.781253,-1.97001 -0.150893,2.9654 1.005343,-3.23443 0.02663,2.12188 0.620867,-1.17322 0.259937,0.90338 0.274085,-0.3817"
           style="opacity:1;fill:none;fill-opacity:1;stroke:url(#linearGradient1274);stroke-width:0.370417;stroke-linecap:butt;stroke-linejoin:bevel;stroke-miterlimit:4;stroke-dasharray:none;stroke-opacity:1;paint-order:markers fill stroke" />
      </g>
    </g>
  </g>
</svg>
