<?xml version="1.0" encoding="UTF-8" standalone="no"?>
<!-- Created with Inkscape (http://www.inkscape.org/) -->

<svg
   width="128"
   height="128"
   viewBox="0 0 128 128"
   version="1.1"
   id="svg1"
   inkscape:version="1.3 (0e150ed6c4, 2023-07-21)"
   sodipodi:docname="bluetooth.svg"
   xmlns:inkscape="http://www.inkscape.org/namespaces/inkscape"
   xmlns:sodipodi="http://sodipodi.sourceforge.net/DTD/sodipodi-0.dtd"
   xmlns:xlink="http://www.w3.org/1999/xlink"
   xmlns="http://www.w3.org/2000/svg"
   xmlns:svg="http://www.w3.org/2000/svg">
  <sodipodi:namedview
     id="namedview1"
     pagecolor="#ffffff"
     bordercolor="#999999"
     borderopacity="1"
     inkscape:showpageshadow="2"
     inkscape:pageopacity="0"
     inkscape:pagecheckerboard="0"
     inkscape:deskcolor="#d1d1d1"
     inkscape:document-units="px"
     showgrid="false"
     inkscape:zoom="6.4453125"
     inkscape:cx="63.922424"
     inkscape:cy="64"
     inkscape:window-width="1920"
     inkscape:window-height="1093"
     inkscape:window-x="0"
     inkscape:window-y="0"
     inkscape:window-maximized="1"
     inkscape:current-layer="layer1">
    <inkscape:grid
       id="grid1"
       units="px"
       originx="0"
       originy="0"
       spacingx="1"
       spacingy="1"
       empcolor="#c83f3f"
       empopacity="0.25098039"
       color="#0099e5"
       opacity="0.14901961"
       empspacing="4"
       dotted="false"
       gridanglex="30"
       gridanglez="30"
       visible="false" />
  </sodipodi:namedview>
  <defs
     id="defs1">
    <inkscape:path-effect
       effect="perspective-envelope"
       up_left_point="0,0"
       up_right_point="33.866665,0"
       down_left_point="0,33.866665"
       down_right_point="33.866665,33.866665"
       id="path-effect10"
       is_visible="true"
       lpeversion="1"
       deform_type="perspective"
       horizontal_mirror="false"
       vertical_mirror="false"
       overflow_perspective="false" />
    <linearGradient
       inkscape:collect="always"
       xlink:href="#linearGradient5887"
       id="linearGradient65"
       x1="32.476494"
       y1="8.9544392"
       x2="82.195663"
       y2="116.20528"
       gradientUnits="userSpaceOnUse"
       gradientTransform="translate(-2e-6)" />
    <linearGradient
       id="linearGradient5887">
      <stop
         style="stop-color:#95ff9a;stop-opacity:1;"
         offset="0"
         id="stop5883" />
      <stop
         style="stop-color:#007d00;stop-opacity:1;"
         offset="1"
         id="stop5885" />
    </linearGradient>
    <linearGradient
       inkscape:collect="always"
       xlink:href="#linearGradient851"
       id="linearGradient68"
       x1="48.654545"
       y1="19.466669"
       x2="75.035149"
       y2="100.96486"
       gradientUnits="userSpaceOnUse"
       gradientTransform="translate(-2e-6)" />
    <linearGradient
       inkscape:collect="always"
       id="linearGradient851">
      <stop
         style="stop-color:#fff6d5;stop-opacity:1"
         offset="0"
         id="stop847" />
      <stop
         style="stop-color:#ffeeaa;stop-opacity:1"
         offset="1"
         id="stop849" />
    </linearGradient>
  </defs>
  <g
     inkscape:label="Layer 1"
     inkscape:groupmode="layer"
     id="layer1">
    <g
       id="g8"
       transform="matrix(3.7795276,0,0,3.7795276,-134.36121,5.3416183e-6)"
       inkscape:path-effect="#path-effect10">
      <path
         style="fill:#ff5dff;fill-opacity:1;stroke:none;stroke-width:0.264583px;stroke-linecap:butt;stroke-linejoin:miter;stroke-opacity:1"
         d="M 8.2020832,1.8520834 1.8520833,25.929167 26.9875,32.014584 31.220833,4.7625001 Z"
         id="path8"
         sodipodi:nodetypes="ccccc"
         inkscape:original-d="M 8.2020832,1.8520834 1.8520833,25.929167 26.9875,32.014584 31.220833,4.7625001 Z" />
      <path
         style="opacity:0.346774;fill:#365dff;fill-opacity:1;fill-rule:evenodd;stroke:none;stroke-width:0.105833;stroke-linecap:round;stroke-linejoin:round;paint-order:fill markers stroke"
         id="rect8"
         width="33.866665"
         height="33.866665"
         x="0"
         y="0"
         ry="0"
         sodipodi:type="rect"
         d="M 0,0 H 33.866665 V 33.866665 H 0 Z" />
    </g>
    <path
       id="rect64"
       style="fill:url(#linearGradient65);fill-rule:evenodd;stroke:none;stroke-width:0.9;stroke-linecap:square;stroke-linejoin:round;paint-order:fill markers stroke"
       d="m 37.106393,7.7720794 73.564257,9.3012276 c 4.03345,0.509976 6.83732,4.094161 6.22516,8.034912 l -13.52528,87.069041 c -0.7537,4.85193 -5.009973,7.94163 -9.459462,6.86439 L 13.596177,99.596978 C 9.9400348,98.711806 7.914957,94.530799 9.0340408,90.287603 L 29.325701,13.348391 c 0.927888,-3.5182416 4.397252,-6.0041036 7.780692,-5.5763116 z"
       sodipodi:nodetypes="ccccccccc" />
    <path
       d="m 53.554368,40.143943 24.32042,39.055794 -19.74958,13.420716 13.76009,-64.929592 12.56495,17.424545 -37.55583,23.937758"
       fill="none"
       stroke="#ffffff"
       stroke-linecap="square"
       stroke-width="4"
       id="path76"
       style="stroke:#000000;stroke-width:6;stroke-dasharray:none;stroke-opacity:0.2" />
    <path
       d="M 50.916788,39.057879 75.237208,78.113673 55.487628,91.534389 69.247718,26.604797 81.812668,44.029342 44.256828,67.9671"
       fill="none"
       stroke="#ffffff"
       stroke-linecap="square"
       stroke-width="4"
       id="path1-7"
       style="stroke:url(#linearGradient68);stroke-width:6;stroke-dasharray:none" />
    <path
       id="path68"
       style="fill:none;fill-rule:evenodd;stroke:#000000;stroke-width:0.9;stroke-linecap:square;stroke-linejoin:round;stroke-opacity:1;paint-order:fill markers stroke"
       d="m 37.106393,7.7720794 73.564257,9.3012276 c 4.03345,0.509976 6.83732,4.094161 6.22516,8.034912 l -13.52528,87.069041 c -0.7537,4.85193 -5.009973,7.94163 -9.459462,6.86439 L 13.596177,99.596978 C 9.9400348,98.711806 7.914957,94.530799 9.0340408,90.287603 L 29.325701,13.348391 c 0.927888,-3.5182416 4.397252,-6.0041036 7.780692,-5.5763116 z"
       sodipodi:nodetypes="ccccccccc" />
    <path
       id="path77"
       style="fill:#000000;fill-opacity:0.2;fill-rule:evenodd;stroke:none;stroke-width:0.9;stroke-linecap:square;stroke-linejoin:round;paint-order:fill markers stroke"
       d="m 113.9043,18.326175 c 0.94664,1.395636 1.40984,3.111422 1.1289,4.919922 l -13.52539,87.070323 c -0.7537,4.85192 -5.009502,7.94052 -9.458982,6.86328 L 11.734373,97.734378 c -0.644811,-0.156113 -1.216908,-0.443706 -1.7519532,-0.787109 0.8481442,1.299533 2.0741612,2.277761 3.6132812,2.65039 l 80.314457,19.443371 c 4.449479,1.07723 8.707232,-2.01136 9.460932,-6.86329 l 13.52539,-87.070315 c 0.42745,-2.751658 -0.83293,-5.302498 -2.99218,-6.78125 z" />
  </g>
</svg>
