<?xml version="1.0" encoding="UTF-8" standalone="no"?>
<!-- Created with Inkscape (http://www.inkscape.org/) -->

<svg
   width="128"
   height="128"
   viewBox="0 0 128 128.00001"
   version="1.1"
   id="svg1"
   inkscape:version="1.3 (0e150ed6c4, 2023-07-21)"
   sodipodi:docname="drive-ssd-m2.svg"
   xmlns:inkscape="http://www.inkscape.org/namespaces/inkscape"
   xmlns:sodipodi="http://sodipodi.sourceforge.net/DTD/sodipodi-0.dtd"
   xmlns:xlink="http://www.w3.org/1999/xlink"
   xmlns="http://www.w3.org/2000/svg"
   xmlns:svg="http://www.w3.org/2000/svg">
  <sodipodi:namedview
     id="namedview1"
     pagecolor="#ffffff"
     bordercolor="#000000"
     borderopacity="0.25"
     inkscape:showpageshadow="2"
     inkscape:pageopacity="0.0"
     inkscape:pagecheckerboard="0"
     inkscape:deskcolor="#d1d1d1"
     inkscape:document-units="px"
     showgrid="false"
     inkscape:zoom="6.4453125"
     inkscape:cx="63.922424"
     inkscape:cy="64"
     inkscape:window-width="1920"
     inkscape:window-height="1093"
     inkscape:window-x="0"
     inkscape:window-y="0"
     inkscape:window-maximized="1"
     inkscape:current-layer="layer1">
    <inkscape:grid
       id="grid1"
       units="px"
       originx="0"
       originy="0"
       spacingx="1"
       spacingy="1.0000001"
       empcolor="#e52222"
       empopacity="0.2"
       color="#0099e5"
       opacity="0.14901961"
       empspacing="4"
       dotted="false"
       gridanglex="30"
       gridanglez="30"
       visible="false" />
  </sodipodi:namedview>
  <defs
     id="defs1">
    <linearGradient
       id="linearGradient60"
       inkscape:collect="always">
      <stop
         style="stop-color:#5bd648;stop-opacity:1;"
         offset="0"
         id="stop60" />
      <stop
         style="stop-color:#215907;stop-opacity:1;"
         offset="1"
         id="stop61" />
    </linearGradient>
    <linearGradient
       id="linearGradient58"
       inkscape:collect="always">
      <stop
         style="stop-color:#666666;stop-opacity:1;"
         offset="0"
         id="stop58" />
      <stop
         style="stop-color:#404040;stop-opacity:1;"
         offset="1"
         id="stop59" />
    </linearGradient>
    <linearGradient
       inkscape:collect="always"
       id="linearGradient4541">
      <stop
         style="stop-color:#ffeeca;stop-opacity:1"
         offset="0"
         id="stop4537" />
      <stop
         style="stop-color:#da9f33;stop-opacity:1"
         offset="1"
         id="stop4539" />
    </linearGradient>
    <linearGradient
       inkscape:collect="always"
       xlink:href="#linearGradient4541"
       id="linearGradient4623"
       x1="2.778125"
       y1="290.25311"
       x2="6.7468753"
       y2="294.22186"
       gradientUnits="userSpaceOnUse"
       gradientTransform="matrix(7.559055,0,0,7.5590527,-48,-2065.0386)" />
    <linearGradient
       inkscape:collect="always"
       xlink:href="#linearGradient4541"
       id="linearGradient4549"
       gradientUnits="userSpaceOnUse"
       x1="2.6458335"
       y1="290.12082"
       x2="6.8791666"
       y2="294.35416"
       gradientTransform="matrix(7.559055,0,0,7.5590527,-48,-2065.0386)" />
    <linearGradient
       gradientTransform="matrix(7.559055,0,0,7.5590527,128.00001,-2117.0386)"
       y2="294.35416"
       x2="6.8791666"
       y1="290.12082"
       x1="2.6458335"
       gradientUnits="userSpaceOnUse"
       id="linearGradient4549-3"
       xlink:href="#linearGradient4541"
       inkscape:collect="always" />
    <linearGradient
       inkscape:collect="always"
       xlink:href="#linearGradient58"
       id="linearGradient59"
       x1="47.91177"
       y1="24.284586"
       x2="85.231232"
       y2="73.172447"
       gradientUnits="userSpaceOnUse" />
    <linearGradient
       inkscape:collect="always"
       xlink:href="#linearGradient60"
       id="linearGradient61"
       x1="39.748577"
       y1="19.955763"
       x2="110.9453"
       y2="117.41484"
       gradientUnits="userSpaceOnUse" />
  </defs>
  <g
     inkscape:label="Layer 1"
     inkscape:groupmode="layer"
     id="layer1">
    <path
       id="path123"
       style="fill:#000000;fill-opacity:0.2;stroke:none;stroke-width:0.655219;stroke-linecap:square"
       d="M 44.905136,54.57861 18.558349,93.268082 c -0.332212,0.487833 0.05862,1.047474 0.875131,1.249375 l 2.970957,0.734659 c 0.41196,0.101816 0.612543,0.384791 0.447487,0.632087 l -3.020367,4.525047 c -0.168582,0.25256 0.03168,0.54356 0.447837,0.64977 l 15.370199,3.92316 c 0.432871,0.11049 0.916049,-0.0111 1.078628,-0.27152 l 2.623587,-4.20193 c 0.318683,-0.5104 1.274333,-0.75076 2.1368,-0.53748 l 1.566288,0.38729 c 0.867618,0.21455 1.317308,0.80518 1.002099,1.31985 l -2.595136,4.23732 c -0.160822,0.26259 0.06435,0.56646 0.503522,0.67857 l 43.580401,11.12367 c 0.487827,0.12449 0.999372,-0.005 1.141832,-0.28908 l 2.550531,-5.08532 c 0.139309,-0.27765 0.644534,-0.40545 1.129208,-0.28559 l 3.526581,0.87204 c 0.978905,0.24207 1.994925,-0.015 2.266736,-0.57352 l 21.37322,-43.915573 c 0.22253,-0.45721 -0.33322,-0.966803 -1.23912,-1.138793 L 86.211568,61.590735 c -0.992507,1.740972 -4.54927,2.630516 -7.912597,1.978251 -3.337015,-0.647154 -5.183176,-2.562268 -4.154795,-4.269268 L 46.796273,54.107649 c -0.768607,-0.14592 -1.614494,0.06473 -1.891137,0.470961 z"
       sodipodi:nodetypes="cccccccccccccccccccccccccccc" />
    <g
       id="g8"
       transform="matrix(3.7795276,0,0,3.7795276,-132.30868,0.6582548)">
      <path
         style="fill:#ff5dff;fill-opacity:1;stroke:none;stroke-width:0.264583px;stroke-linecap:butt;stroke-linejoin:miter;stroke-opacity:1"
         d="M 8.2020832,1.8520834 1.8520833,25.929167 26.9875,32.014584 31.220833,4.7625001 Z"
         id="path8"
         sodipodi:nodetypes="ccccc" />
      <rect
         style="opacity:0.346774;fill:#365dff;fill-opacity:1;fill-rule:evenodd;stroke:none;stroke-width:0.105833;stroke-linecap:round;stroke-linejoin:round;paint-order:fill markers stroke"
         id="rect8"
         width="33.866665"
         height="33.866665"
         x="0"
         y="0"
         ry="0" />
    </g>
    <circle
       r="0"
       cy="143.99985"
       cx="-12"
       id="ellipse4551"
       style="fill:#ffeeca;fill-opacity:1;stroke:none;stroke-width:1.4;stroke-linecap:round;paint-order:markers stroke fill" />
    <circle
       r="0"
       cy="143.99985"
       cx="-12"
       id="ellipse4553"
       style="fill:url(#linearGradient4549);fill-opacity:1;stroke:#000000;stroke-width:1.4;stroke-linecap:round;paint-order:markers stroke fill" />
    <path
       cx="4.7624998"
       cy="292.23749"
       r="2.1166666"
       style="fill:url(#linearGradient4623);fill-opacity:1;stroke:none;stroke-width:1.4;stroke-linecap:round;paint-order:markers stroke fill"
       id="path4625"
       d=""
       inkscape:connector-curvature="0" />
    <circle
       style="fill:#ffeeca;fill-opacity:1;stroke:none;stroke-width:1.4;stroke-linecap:round;paint-order:markers stroke fill"
       id="ellipse4551-2"
       cx="164"
       cy="91.99984"
       r="0" />
    <circle
       style="fill:url(#linearGradient4549-3);fill-opacity:1;stroke:#000000;stroke-width:1.4;stroke-linecap:round;paint-order:markers stroke fill"
       id="ellipse4553-6"
       cx="164"
       cy="91.99984"
       r="0" />
    <path
       id="rect1"
       style="fill:url(#linearGradient61);fill-opacity:1;stroke:none;stroke-width:0.9;stroke-linecap:square"
       d="M 36.288489,9.1927921 16.349243,86.90242 c -0.251421,0.979866 0.22938,1.932056 1.075969,2.125199 l 3.080409,0.702774 c 0.42713,0.09745 0.673194,0.578164 0.54908,1.074104 l -2.271167,9.07519 c -0.126765,0.506523 0.120274,1.002283 0.552315,1.106883 l 15.95643,3.86314 c 0.449381,0.1088 0.911006,-0.22466 1.030513,-0.74437 l 1.928523,-8.386801 c 0.234256,-1.018737 1.147312,-1.677837 2.041552,-1.473823 l 1.62399,0.370502 c 0.899581,0.205234 1.44409,1.201875 1.213993,2.227764 l -1.894395,8.446188 c -0.117396,0.52341 0.156577,1.03756 0.612504,1.14795 l 45.242587,10.95347 c 0.506431,0.12261 0.995015,-0.23175 1.09063,-0.79101 l 1.711541,-10.01096 c 0.09345,-0.54659 0.576086,-0.89638 1.078617,-0.78173 l 3.656506,0.8342 c 1.014966,0.23156 1.985447,-0.47205 2.165146,-1.56965 L 110.92418,18.764549 c 0.14711,-0.898546 -0.48983,-1.721119 -1.42063,-1.838806 L 78.594034,13.01764 c -0.704855,3.453839 -4.10391,5.897503 -7.561861,5.43509 -3.430896,-0.458794 -5.583139,-3.604009 -4.83699,-7.002761 L 38.0961,7.897214 c -0.789719,-0.09985 -1.598247,0.4796193 -1.807611,1.2955781 z"
       sodipodi:nodetypes="cccccccccccccccccccccccccccc" />
    <path
       id="rect12"
       style="fill:url(#linearGradient59);stroke-width:0.869483;stroke-linecap:square"
       d="M 45.294758,21.328234 102.23161,29.364609 93.769086,78.566647 34.27999,66.837894 Z"
       sodipodi:nodetypes="ccccc" />
    <path
       id="rect13"
       style="fill:#ffff80;fill-opacity:1;stroke-width:0.9;stroke-linecap:square"
       d="m 27.301386,69.041619 3.061504,0.616746 -0.848568,3.453639 -3.070343,-0.631847 z"
       sodipodi:nodetypes="ccccc" />
    <path
       id="rect14"
       style="fill:#ffff80;fill-opacity:1;stroke-width:0.9;stroke-linecap:square"
       d="m 25.579849,75.945659 3.079226,0.647166 -0.862005,3.508327 -3.088154,-0.662708 z"
       sodipodi:nodetypes="ccccc" />
    <path
       id="rect15"
       style="fill:#ffff80;fill-opacity:1;stroke-width:0.9;stroke-linecap:square"
       d="m 33.446971,70.279674 3.106913,0.625896 -0.830425,3.484231 -3.116063,-0.641258 z"
       sodipodi:nodetypes="ccccc" />
    <path
       id="rect17"
       style="fill:#ffff80;fill-opacity:1;stroke-width:0.9;stroke-linecap:square"
       d="m 31.761186,77.244823 3.125261,0.656844 -0.843674,3.539818 -3.134507,-0.672658 z"
       sodipodi:nodetypes="ccccc" />
    <path
       id="rect18"
       style="fill:#cbcbcb;stroke-width:0.797724;stroke-linecap:square"
       d="M 68.936587,77.429193 93.126561,82.302357 89.831278,101.46149 65.227457,95.960497 Z"
       sodipodi:nodetypes="ccccc" />
    <path
       id="rect19"
       style="fill:#404040;stroke-width:0.9;stroke-linecap:square"
       d="m 43.588774,83.490046 6.485458,1.391771 -1.609389,7.330857 -6.525808,-1.459058 z"
       sodipodi:nodetypes="ccccc" />
    <path
       id="rect20"
       style="fill:#404040;stroke-width:0.9;stroke-linecap:square"
       d="m 46.014167,72.811382 6.425774,1.294497 -1.570766,7.154927 -6.465451,-1.358868 z"
       sodipodi:nodetypes="ccccc" />
    <path
       id="path48"
       style="fill:#ffff80;fill-opacity:1;stroke:none;stroke-width:0.857142;stroke-linecap:square;stroke-dasharray:none"
       d="m 63.149591,11.064894 c -1.136442,5.088351 2.063989,9.827538 7.215738,10.535481 5.213042,0.716366 10.340331,-2.971033 11.383698,-8.183828 L 78.594034,13.01764 c -0.704855,3.453839 -4.10391,5.897503 -7.561861,5.43509 -3.430896,-0.458794 -5.583139,-3.604009 -4.83699,-7.002761 z"
       sodipodi:nodetypes="ccccccc" />
    <path
       id="path49"
       style="fill:#ffff80;stroke-linecap:square;fill-opacity:1"
       d="m 46.775791,15.209061 c -0.406796,1.680756 -2.059401,2.866689 -3.68406,2.643432 -1.618465,-0.222407 -2.587643,-1.758897 -2.171821,-3.426506 0.414149,-1.660901 2.048949,-2.833312 3.65844,-2.623975 1.615606,0.210132 2.602589,1.733101 2.197441,3.407049 z"
       sodipodi:nodetypes="ccccc" />
    <path
       id="path50"
       style="fill:#ffff80;stroke-linecap:square;fill-opacity:1"
       d="m 55.713045,16.40419 c -0.392704,1.700863 -2.061786,2.899371 -3.720719,2.671404 -1.652542,-0.227089 -2.660295,-1.783515 -2.258121,-3.470921 0.400539,-1.680548 2.051461,-2.865248 3.69459,-2.651535 1.649436,0.214532 2.675347,1.75715 2.28425,3.451052 z"
       sodipodi:nodetypes="ccccc" />
    <path
       id="rect50"
       style="fill:#ffff80;fill-opacity:1;stroke-linecap:square"
       d="m 27.660472,54.996464 6.03144,1.112915 -0.82262,3.348032 -6.04862,-1.141321 z"
       sodipodi:nodetypes="ccccc" />
    <path
       id="rect51"
       style="fill:#ffff80;fill-opacity:1;stroke-linecap:square"
       d="m 29.320981,48.432668 5.99734,1.057295 -0.81009,3.297031 -6.014348,-1.084908 z"
       sodipodi:nodetypes="ccccc" />
    <path
       id="rect52"
       style="fill:#ffff80;fill-opacity:1;stroke-linecap:square"
       d="m 30.956519,41.967581 5.963577,1.00322 -0.797844,3.247192 -5.980416,-1.030067 z"
       sodipodi:nodetypes="ccccc" />
    <path
       id="rect53"
       style="fill:#ffff80;fill-opacity:1;stroke-linecap:square"
       d="m 32.567645,35.598991 5.930149,0.950641 -0.785873,3.198472 -5.946822,-0.976746 z"
       sodipodi:nodetypes="ccccc" />
    <path
       id="rect54"
       style="fill:#ffff80;fill-opacity:1;stroke-linecap:square"
       d="m 34.1549,29.324758 5.897053,0.899509 -0.77417,3.150842 -5.91356,-0.924897 z"
       sodipodi:nodetypes="ccccc" />
    <path
       id="rect55"
       style="fill:#ffff80;fill-opacity:1;stroke-linecap:square"
       d="m 35.718812,23.142801 5.864284,0.849776 -0.762727,3.104267 -5.880627,-0.87447 z"
       sodipodi:nodetypes="ccccc" />
    <path
       id="rect61"
       style="fill:#ffff80;stroke-width:2.20454;stroke-linecap:square;fill-opacity:1"
       d="m 23.162845,92.241553 0.780675,0.179899 c 0.431781,0.0995 0.682493,0.585791 0.559453,1.086559 l -1.571392,6.395504 c -0.124926,0.508445 -0.578985,0.836055 -1.013631,0.731345 l -0.785832,-0.18933 c -0.433368,-0.10441 -0.682201,-0.600125 -0.556319,-1.106811 l 1.583444,-6.373501 c 0.123986,-0.499057 0.573079,-0.822875 1.003602,-0.723665 z"
       sodipodi:nodetypes="ccccccccc" />
    <path
       id="rect88"
       style="fill:#ffff80;stroke-width:2.20454;stroke-linecap:square;fill-opacity:1"
       d="m 27.080954,93.144444 0.788078,0.181605 c 0.435876,0.100444 0.691214,0.58983 0.569779,1.093477 l -1.550944,6.432514 c -0.123303,0.51139 -0.579422,0.8406 -1.018226,0.73488 l -0.79336,-0.19114 c -0.437506,-0.10541 -0.690986,-0.60432 -0.566706,-1.11393 l 1.563269,-6.410267 c 0.122403,-0.501916 0.573511,-0.827288 1.00811,-0.727139 z"
       sodipodi:nodetypes="ccccccccc" />
    <path
       id="rect89"
       style="fill:#ffff80;stroke-width:2.20454;stroke-linecap:square;fill-opacity:1"
       d="m 31.036272,94.05591 0.795584,0.183334 c 0.44003,0.101401 0.70007,0.59392 0.580277,1.100479 l -1.53003,6.469927 c -0.121645,0.51439 -0.579845,0.8452 -1.022869,0.73846 l -0.800985,-0.19297 c -0.441708,-0.10642 -0.699916,-0.60857 -0.577272,-1.12116 l 1.542635,-6.447424 c 0.120782,-0.504808 0.573926,-0.831748 1.01266,-0.730646 z"
       sodipodi:nodetypes="ccccccccc" />
    <path
       id="rect90"
       style="fill:#ffff80;stroke-width:2.20454;stroke-linecap:square;fill-opacity:1"
       d="m 35.02933,94.976072 0.803196,0.185089 c 0.444244,0.102372 0.709065,0.598062 0.590951,1.107564 l -1.508642,6.507765 c -0.119949,0.51742 -0.580249,0.84985 -1.027554,0.74208 l -0.808721,-0.19484 c -0.44597,-0.10744 -0.708986,-0.61286 -0.588015,-1.12846 l 1.521533,-6.48501 c 0.119125,-0.507732 0.574323,-0.836257 1.017252,-0.734188 z"
       sodipodi:nodetypes="ccccccccc" />
    <path
       id="rect91"
       style="fill:#ffff80;stroke-width:2.20454;stroke-linecap:square;fill-opacity:1"
       d="m 46.415325,97.599858 0.825099,0.190136 c 0.456369,0.105166 0.73501,0.609929 0.621801,1.127853 l -1.446139,6.616033 c -0.114992,0.52608 -0.581279,0.86314 -1.040911,0.75241 l -0.830972,-0.2002 c -0.458243,-0.11041 -0.73516,-0.62522 -0.619077,-1.14943 l 1.459861,-6.592516 c 0.114285,-0.516096 0.575335,-0.849137 1.030338,-0.744286 z"
       sodipodi:nodetypes="ccccccccc" />
    <path
       id="rect92"
       style="fill:#ffff80;stroke-width:2.20454;stroke-linecap:square;fill-opacity:1"
       d="m 50.556831,98.554229 0.833139,0.191989 c 0.460821,0.106192 0.744556,0.614274 0.633175,1.135272 l -1.422849,6.65555 c -0.113143,0.52924 -0.581605,0.86799 -1.045762,0.75616 l -0.839147,-0.20217 c -0.462748,-0.11149 -0.744789,-0.62973 -0.63053,-1.15708 l 1.436882,-6.63176 c 0.112482,-0.519149 0.575658,-0.853834 1.035092,-0.747961 z"
       sodipodi:nodetypes="ccccccccc" />
    <path
       id="rect93"
       style="fill:#ffff80;stroke-width:2.20454;stroke-linecap:square;fill-opacity:1"
       d="m 54.738778,99.517919 0.841299,0.193869 c 0.465337,0.107233 0.754252,0.618672 0.64474,1.142782 l -1.399028,6.69552 c -0.111253,0.53244 -0.58191,0.87289 -1.05066,0.75996 l -0.847443,-0.20417 c -0.467318,-0.11259 -0.754573,-0.6343 -0.642178,-1.16483 l 1.41338,-6.67146 c 0.110638,-0.522235 0.57596,-0.858579 1.03989,-0.751671 z"
       sodipodi:nodetypes="ccccccccc" />
    <path
       id="rect94"
       style="fill:#ffff80;stroke-width:2.20454;stroke-linecap:square;fill-opacity:1"
       d="m 58.961762,100.49107 0.849579,0.19577 c 0.46992,0.10829 0.764105,0.62314 0.656504,1.15039 l -1.374667,6.73596 c -0.109321,0.53568 -0.582193,0.87785 -1.055604,0.76379 l -0.855862,-0.2062 c -0.471958,-0.1137 -0.764515,-0.63893 -0.654027,-1.17267 l 1.389345,-6.71162 c 0.108752,-0.52536 0.576239,-0.86338 1.044732,-0.75542 z"
       sodipodi:nodetypes="ccccccccc" />
    <path
       id="rect95"
       style="fill:#ffff80;stroke-width:2.20454;stroke-linecap:square;fill-opacity:1"
       d="m 63.22639,101.47381 0.857982,0.19771 c 0.474571,0.10936 0.774115,0.62765 0.668468,1.15809 l -1.349751,6.77688 c -0.107344,0.53895 -0.582453,0.88285 -1.060594,0.76766 l -0.864408,-0.20826 c -0.476667,-0.11484 -0.774618,-0.64363 -0.666081,-1.18062 l 1.364764,-6.75225 c 0.106824,-0.52852 0.576497,-0.86824 1.04962,-0.75921 z"
       sodipodi:nodetypes="ccccccccc" />
    <path
       id="rect96"
       style="fill:#ffff80;stroke-width:2.20454;stroke-linecap:square;fill-opacity:1"
       d="m 67.533281,102.46629 0.866509,0.19968 c 0.479293,0.11045 0.784288,0.63223 0.68064,1.16588 l -1.324269,6.81828 c -0.105321,0.54227 -0.582688,0.88792 -1.065631,0.77157 l -0.873083,-0.21035 c -0.481446,-0.11599 -0.784885,-0.64838 -0.678343,-1.18867 l 1.339624,-6.79336 c 0.104852,-0.53171 0.576731,-0.87314 1.054553,-0.76303 z"
       sodipodi:nodetypes="ccccccccc" />
    <path
       id="rect97"
       style="fill:#ffff80;stroke-width:2.20454;stroke-linecap:square;fill-opacity:1"
       d="m 71.883066,103.46866 0.875165,0.20167 c 0.484084,0.11155 0.794625,0.63686 0.693021,1.17377 l -1.298207,6.86017 c -0.103252,0.54563 -0.582899,0.89305 -1.070716,0.77552 l -0.881888,-0.21247 c -0.486298,-0.11716 -0.79532,-0.6532 -0.690819,-1.19681 l 1.313911,-6.83496 c 0.102836,-0.53495 0.576942,-0.8781 1.059533,-0.76689 z"
       sodipodi:nodetypes="ccccccccc" />
    <path
       id="rect98"
       style="fill:#ffff80;stroke-width:2.20454;stroke-linecap:square;fill-opacity:1"
       d="m 76.27639,104.48106 0.883951,0.2037 c 0.488948,0.11267 0.80513,0.64156 0.705616,1.18176 l -1.27155,6.90256 c -0.101137,0.54902 -0.583084,0.89823 -1.07585,0.77951 l -0.890828,-0.21462 c -0.491224,-0.11835 -0.805926,-0.65809 -0.703512,-1.20507 l 1.287612,-6.87705 c 0.100774,-0.53822 0.577128,-0.88312 1.064561,-0.77079 z"
       sodipodi:nodetypes="ccccccccc" />
    <path
       id="rect99"
       style="fill:#ffff80;stroke-width:2.20454;stroke-linecap:square;fill-opacity:1"
       d="m 80.713908,105.50364 0.892871,0.20576 c 0.493885,0.11381 0.815807,0.64632 0.718432,1.18986 l -1.244287,6.94546 c -0.09897,0.55245 -0.583243,0.90347 -1.081033,0.78354 l -0.899904,-0.21681 c -0.496225,-0.11955 -0.816707,-0.66304 -0.716429,-1.21343 l 1.260716,-6.91964 c 0.09866,-0.54154 0.577288,-0.88819 1.069634,-0.77474 z"
       sodipodi:nodetypes="ccccccccc" />
    <path
       id="rect100"
       style="fill:#ffff80;stroke-width:2.20454;stroke-linecap:square;fill-opacity:1"
       d="m 85.196293,106.53657 0.901929,0.20784 c 0.498887,0.11496 0.826666,0.65114 0.731476,1.19806 l -1.2164,6.98888 c -0.09676,0.55593 -0.583388,0.90877 -1.086267,0.78761 l -0.909123,-0.21903 c -0.501307,-0.12078 -0.827672,-0.66805 -0.729577,-1.2219 l 1.233204,-6.96275 c 0.09651,-0.54488 0.577422,-0.89332 1.074758,-0.77871 z"
       sodipodi:nodetypes="ccccccccc" />
    <path
       id="path118"
       style="fill:#ffff80;fill-opacity:1;stroke-linecap:square"
       d="m 25.974414,61.661248 6.065885,1.170133 -0.835444,3.400222 -6.083235,-1.199359 z"
       sodipodi:nodetypes="ccccc" />
    <path
       id="path119"
       style="fill:#ffff80;fill-opacity:1;stroke-width:0.9;stroke-linecap:square"
       d="m 39.683881,71.536123 3.153341,0.63525 -0.811644,3.515355 -3.162813,-0.650879 z"
       sodipodi:nodetypes="ccccc" />
    <path
       id="path120"
       style="fill:#ffff80;fill-opacity:1;stroke-width:0.9;stroke-linecap:square"
       d="m 38.035112,78.563437 3.172336,0.666738 -0.82469,3.571862 -3.181911,-0.68283 z"
       sodipodi:nodetypes="ccccc" />
    <path
       id="path121"
       style="fill:#404040;stroke-width:1.74285;stroke-linecap:square"
       d="m 55.689313,74.76048 9.897413,1.993873 -3.764203,18.444859 -10.05696,-2.248563 z"
       sodipodi:nodetypes="ccccc" />
    <path
       id="path124"
       style="color:#000000;fill:#000000;stroke-linecap:square;-inkscape-stroke:none;fill-opacity:0.2"
       d="M 101.0918 29.205078 L 92.833984 77.208984 L 34.550781 65.71875 L 34.279297 66.837891 L 93.769531 78.566406 L 102.23242 29.365234 L 101.0918 29.205078 z " />
    <path
       id="path125"
       style="color:#000000;fill:#000000;stroke-linecap:square;-inkscape-stroke:none;fill-opacity:0.19999999"
       d="M 92 82.076172 L 91.994141 82.107422 L 88.902344 100.07617 L 65.478516 94.837891 L 65.453125 94.832031 L 65.226562 95.960938 L 89.832031 101.46094 L 93.126953 82.302734 L 92 82.076172 z " />
    <g
       id="path126">
      <path
         id="path134"
         style="color:#000000;fill:#000000;stroke-linecap:square;-inkscape-stroke:none;fill-opacity:0.2"
         d="M 64.458984 76.527344 L 60.929688 93.820312 L 52.015625 91.828125 L 52.007812 91.826172 L 51.765625 92.951172 L 61.822266 95.199219 L 65.585938 76.753906 L 64.458984 76.527344 z " />
    </g>
    <g
       id="path127">
      <path
         id="path132"
         style="color:#000000;fill:#000000;stroke-linecap:square;-inkscape-stroke:none;fill-opacity:0.2"
         d="M 51.3125 73.878906 L 49.990234 79.900391 L 44.658203 78.78125 L 44.404297 79.902344 L 50.869141 81.261719 L 52.439453 74.105469 L 51.3125 73.878906 z " />
    </g>
    <g
       id="path128">
      <path
         id="path130"
         style="color:#000000;fill:#000000;stroke-linecap:square;-inkscape-stroke:none;fill-opacity:0.2"
         d="M 48.949219 84.640625 L 47.589844 90.837891 L 42.193359 89.632812 L 41.939453 90.753906 L 48.464844 92.212891 L 50.074219 84.880859 L 48.949219 84.640625 z " />
    </g>
    <path
       id="path136"
       style="color:#000000;fill:#00ad00;stroke-linecap:round;-inkscape-stroke:none"
       d="m 108.36328,16.78125 c 0,0 1.54962,0.691417 1.42578,1.796875 L 95.658203,104.88477 c -0.0857,0.52342 -0.405991,0.71859 -0.773437,0.63476 l -3.65625,-0.83398 c -1.152739,-0.263 -2.278192,0.5944 -2.46875,1.70898 l -1.695313,9.92578 c -0.347059,0.79765 -1.089844,0.79883 -1.089844,0.79883 v 0.002 l 1.117188,0.26953 c 0.50643,0.12261 0.994229,-0.23175 1.089844,-0.79101 l 1.71289,-10.01172 c 0.09345,-0.54659 0.575595,-0.8959 1.078125,-0.78125 l 3.65625,0.83398 c 1.014965,0.23156 1.986317,-0.47076 2.166016,-1.56835 L 110.92383,18.763672 c 0.14711,-0.898545 -0.48912,-1.720204 -1.41992,-1.837891 z"
       sodipodi:nodetypes="cccccccccccccccccc" />
    <path
       id="path137"
       style="color:#000000;fill:#00a900;stroke-linecap:square;-inkscape-stroke:none"
       d="m 37.130859,95.460938 -1.884765,8.195312 c -0.292369,1.03197 -1.070313,0.92187 -1.070313,0.92187 l 1.117188,0.27149 c 0.44938,0.1088 0.90979,-0.22443 1.029297,-0.74414 l 1.929687,-8.38672 c 0.234256,-1.018736 1.146777,-1.678623 2.041016,-1.474609 0,0 -2.555895,-1.142086 -3.16211,1.216797 z"
       sodipodi:nodetypes="cccccccc" />
    <path
       id="path135"
       style="fill:none;fill-opacity:1;stroke:#004000;stroke-width:0.9;stroke-linecap:square;stroke-opacity:1"
       d="M 36.288489,9.1927921 16.349243,86.90242 c -0.251421,0.979866 0.22938,1.932056 1.075969,2.125199 l 3.080409,0.702774 c 0.42713,0.09745 0.673194,0.578164 0.54908,1.074104 l -2.271167,9.07519 c -0.126765,0.506523 0.120274,1.002283 0.552315,1.106883 l 15.95643,3.86314 c 0.449381,0.1088 0.911006,-0.22466 1.030513,-0.74437 l 1.928523,-8.386801 c 0.234256,-1.018737 1.147312,-1.677837 2.041552,-1.473823 l 1.62399,0.370502 c 0.899581,0.205234 1.44409,1.201875 1.213993,2.227764 l -1.894395,8.446188 c -0.117396,0.52341 0.156577,1.03756 0.612504,1.14795 l 45.242587,10.95347 c 0.506431,0.12261 0.995015,-0.23175 1.09063,-0.79101 l 1.711541,-10.01096 c 0.09345,-0.54659 0.576086,-0.89638 1.078617,-0.78173 l 3.656506,0.8342 c 1.014966,0.23156 1.985447,-0.47205 2.165146,-1.56965 L 110.92418,18.764549 c 0.14711,-0.898546 -0.48983,-1.721119 -1.42063,-1.838806 L 78.594034,13.01764 c -0.704855,3.453839 -4.10391,5.897503 -7.561861,5.43509 -3.430896,-0.458794 -5.583139,-3.604009 -4.83699,-7.002761 L 38.0961,7.897214 c -0.789719,-0.09985 -1.598247,0.4796193 -1.807611,1.2955781 z"
       sodipodi:nodetypes="cccccccccccccccccccccccccccc" />
  </g>
</svg>
