<?xml version="1.0" encoding="UTF-8" standalone="no"?>
<!-- Created with Inkscape (http://www.inkscape.org/) -->

<svg
   width="128"
   height="128"
   viewBox="0 0 128 128.00001"
   version="1.1"
   id="svg1"
   inkscape:version="1.3 (0e150ed6c4, 2023-07-21)"
   sodipodi:docname="input-dialpad.svg"
   xmlns:inkscape="http://www.inkscape.org/namespaces/inkscape"
   xmlns:sodipodi="http://sodipodi.sourceforge.net/DTD/sodipodi-0.dtd"
   xmlns:xlink="http://www.w3.org/1999/xlink"
   xmlns="http://www.w3.org/2000/svg"
   xmlns:svg="http://www.w3.org/2000/svg">
  <sodipodi:namedview
     id="namedview1"
     pagecolor="#ffffff"
     bordercolor="#000000"
     borderopacity="0.25"
     inkscape:showpageshadow="2"
     inkscape:pageopacity="0.0"
     inkscape:pagecheckerboard="0"
     inkscape:deskcolor="#d1d1d1"
     inkscape:document-units="px"
     showgrid="false"
     inkscape:zoom="1"
     inkscape:cx="48"
     inkscape:cy="71.5"
     inkscape:window-width="1920"
     inkscape:window-height="1093"
     inkscape:window-x="0"
     inkscape:window-y="0"
     inkscape:window-maximized="1"
     inkscape:current-layer="layer1">
    <inkscape:grid
       id="grid1"
       units="px"
       originx="0"
       originy="0"
       spacingx="1"
       spacingy="1.0000001"
       empcolor="#e52222"
       empopacity="0.2"
       color="#0099e5"
       opacity="0.14901961"
       empspacing="4"
       dotted="false"
       gridanglex="30"
       gridanglez="30"
       visible="false" />
  </sodipodi:namedview>
  <defs
     id="defs1">
    <linearGradient
       inkscape:collect="always"
       id="linearGradient10">
      <stop
         style="stop-color:#84adcc;stop-opacity:1;"
         offset="0"
         id="stop5" />
      <stop
         style="stop-color:#427da6;stop-opacity:1;"
         offset="1"
         id="stop6" />
    </linearGradient>
    <linearGradient
       inkscape:collect="always"
       xlink:href="#linearGradient4541"
       id="linearGradient4623"
       x1="2.778125"
       y1="290.25311"
       x2="6.7468753"
       y2="294.22186"
       gradientUnits="userSpaceOnUse"
       gradientTransform="matrix(7.559055,0,0,7.5590527,-48,-2065.0386)" />
    <linearGradient
       inkscape:collect="always"
       xlink:href="#linearGradient4541"
       id="linearGradient4549"
       gradientUnits="userSpaceOnUse"
       x1="2.6458335"
       y1="290.12082"
       x2="6.8791666"
       y2="294.35416"
       gradientTransform="matrix(7.559055,0,0,7.5590527,-48,-2065.0386)" />
    <linearGradient
       gradientTransform="matrix(7.559055,0,0,7.5590527,128.00001,-2117.0386)"
       y2="294.35416"
       x2="6.8791666"
       y1="290.12082"
       x1="2.6458335"
       gradientUnits="userSpaceOnUse"
       id="linearGradient4549-3"
       xlink:href="#linearGradient4541"
       inkscape:collect="always" />
    <linearGradient
       id="linearGradient1617"
       inkscape:collect="always">
      <stop
         id="stop1615"
         offset="0"
         style="stop-color:#ffff96;stop-opacity:1;" />
      <stop
         id="stop1613"
         offset="1"
         style="stop-color:#ffffe8;stop-opacity:1" />
    </linearGradient>
    <linearGradient
       inkscape:collect="always"
       xlink:href="#linearGradient1617"
       id="linearGradient84"
       x1="40"
       y1="36"
       x2="82.793327"
       y2="99.613113"
       gradientUnits="userSpaceOnUse" />
    <linearGradient
       inkscape:collect="always"
       xlink:href="#linearGradient100"
       id="linearGradient99"
       x1="50.155628"
       y1="-120.56576"
       x2="59.56786"
       y2="-121.55933"
       gradientUnits="userSpaceOnUse"
       gradientTransform="rotate(105,2.9458693e-6,1.7553123e-6)" />
    <linearGradient
       id="linearGradient100"
       inkscape:collect="always">
      <stop
         id="stop100"
         offset="0"
         style="stop-color:#ff9191;stop-opacity:1" />
      <stop
         id="stop99"
         offset="1"
         style="stop-color:#a00000;stop-opacity:1" />
    </linearGradient>
    <linearGradient
       inkscape:collect="always"
       xlink:href="#linearGradient10"
       id="linearGradient5"
       x1="-162.95284"
       y1="273.04407"
       x2="-99.545052"
       y2="361.68484"
       gradientUnits="userSpaceOnUse"
       gradientTransform="translate(193.3839,-257.31396)" />
  </defs>
  <g
     inkscape:label="Layer 1"
     inkscape:groupmode="layer"
     id="layer1">
    <g
       id="g8"
       transform="matrix(3.7795276,0,0,3.7795276,-145.22182,0.62060873)">
      <path
         style="fill:#ff5dff;fill-opacity:1;stroke:none;stroke-width:0.264583px;stroke-linecap:butt;stroke-linejoin:miter;stroke-opacity:1"
         d="M 8.2020832,1.8520834 1.8520833,25.929167 26.9875,32.014584 31.220833,4.7625001 Z"
         id="path8"
         sodipodi:nodetypes="ccccc" />
      <rect
         style="opacity:0.346774;fill:#365dff;fill-opacity:1;fill-rule:evenodd;stroke:none;stroke-width:0.105833;stroke-linecap:round;stroke-linejoin:round;paint-order:fill markers stroke"
         id="rect8"
         width="33.866665"
         height="33.866665"
         x="0"
         y="0"
         ry="0" />
    </g>
    <circle
       r="0"
       cy="143.99985"
       cx="-12"
       id="ellipse4551"
       style="fill:#ffeeca;fill-opacity:1;stroke:none;stroke-width:1.4;stroke-linecap:round;paint-order:markers stroke fill" />
    <circle
       r="0"
       cy="143.99985"
       cx="-12"
       id="ellipse4553"
       style="fill:url(#linearGradient4549);fill-opacity:1;stroke:#000000;stroke-width:1.4;stroke-linecap:round;paint-order:markers stroke fill" />
    <path
       cx="4.7624998"
       cy="292.23749"
       r="2.1166666"
       style="fill:url(#linearGradient4623);fill-opacity:1;stroke:none;stroke-width:1.4;stroke-linecap:round;paint-order:markers stroke fill"
       id="path4625"
       d=""
       inkscape:connector-curvature="0" />
    <circle
       style="fill:#ffeeca;fill-opacity:1;stroke:none;stroke-width:1.4;stroke-linecap:round;paint-order:markers stroke fill"
       id="ellipse4551-2"
       cx="164"
       cy="91.99984"
       r="0" />
    <circle
       style="fill:url(#linearGradient4549-3);fill-opacity:1;stroke:#000000;stroke-width:1.4;stroke-linecap:round;paint-order:markers stroke fill"
       id="ellipse4553-6"
       cx="164"
       cy="91.99984"
       r="0" />
    <path
       id="path101"
       style="fill:#000000;fill-opacity:0.2;fill-rule:evenodd;stroke-width:0.654689;stroke-linecap:square;stroke-linejoin:round;paint-order:fill markers stroke"
       d="m 123.10181,80.190968 a 29.389709,48.685226 81.076819 0 1 -55.389642,30.000002 29.389709,48.685226 81.076819 0 1 -40,-30.000002 29.389709,48.685226 81.076819 0 1 55.38964,-30 29.389709,48.685226 81.076819 0 1 40.000002,30 z" />
    <path
       id="ellipse1"
       style="fill:url(#linearGradient5);fill-rule:evenodd;stroke-width:0.9;stroke-linecap:square;stroke-linejoin:round;paint-order:fill markers stroke"
       d="M 110.46772,66.48907 C 105.91763,95.78031 78.85389,115.39621 51.87787,108.86517 26.49806,102.72058 12.825,75.91355 19.63204,50.10352 26.05426,25.75262 49.02167,9.2786 72.35085,12.22827 c 24.638019,3.11515 42.38232,26.80197 38.11687,54.2608 z" />
    <path
       id="ellipse3"
       style="fill:url(#linearGradient84);fill-opacity:1;fill-rule:evenodd;stroke-width:0.484616;stroke-linecap:square;stroke-linejoin:round;paint-order:fill markers stroke"
       d="M 87.77546,62.39569 C 85.03194,77.46683 71.03522,87.58406 57.01759,84.6046 43.44101,81.71889 35.57194,67.68082 38.95845,53.58975 42.23809,39.94331 55.05278,30.73215 68.01744,32.68291 81.3785,34.69332 90.4275,47.82712 87.77546,62.39569 Z" />
    <path
       id="path14-4"
       style="fill:#ffffff;fill-opacity:1;fill-rule:evenodd;stroke-width:0.9;stroke-linecap:square;stroke-linejoin:round;paint-order:fill markers stroke"
       d="m 99.16513,48.36578 c -3.75533,1.82247 -8.18027,0.24884 -9.86986,-3.46781 -1.66797,-3.66907 -0.0401,-8.06001 3.62277,-9.85273 3.669682,-1.79605 8.05974,-0.33831 9.81966,3.30107 1.78282,3.68673 0.18988,8.19355 -3.57257,10.01947 z" />
    <path
       id="circle50"
       style="fill:#ffffff;fill-opacity:1;fill-rule:evenodd;stroke-width:0.9;stroke-linecap:square;stroke-linejoin:round;paint-order:fill markers stroke"
       d="m 89.87895,31.49921 c -2.32758,3.32486 -6.83527,4.23889 -10.02374,2.05086 -3.15105,-2.16236 -3.80182,-6.53172 -1.49659,-9.76846 2.29457,-3.22176 6.69236,-4.15792 9.86562,-2.0827 3.21063,2.09967 3.9713,6.49115 1.65471,9.8003 z" />
    <path
       id="circle51"
       style="fill:#ffffff;fill-opacity:1;fill-rule:evenodd;stroke-width:0.9;stroke-linecap:square;stroke-linejoin:round;paint-order:fill markers stroke"
       d="m 74.10171,22.38832 c -0.45509,3.82887 -3.92927,6.78727 -7.72899,6.57508 -3.7705,-0.21056 -6.38497,-3.46538 -5.87031,-7.23809 0.50972,-3.73651 3.90773,-6.61444 7.61939,-6.4593 3.73992,0.15632 6.43057,3.33068 5.97991,7.12231 z" />
    <path
       id="circle52"
       style="fill:#ffffff;fill-opacity:1;fill-rule:evenodd;stroke-width:0.9;stroke-linecap:square;stroke-linejoin:round;paint-order:fill markers stroke"
       d="m 56.10607,22.67015 c 1.38598,3.35825 -0.30535,7.51123 -3.78747,9.23592 -3.47594,1.72162 -7.35957,0.34049 -8.66548,-3.04466 -1.29023,-3.34451 0.42423,-7.39828 3.82073,-9.09317 3.4024,-1.69783 7.26293,-0.41592 8.63222,2.90191 z" />
    <path
       id="circle54"
       style="fill:#ffffff;fill-opacity:1;fill-rule:evenodd;stroke-width:0.9;stroke-linecap:square;stroke-linejoin:round;paint-order:fill markers stroke"
       d="m 40.11445,31.85521 c 2.83649,2.09241 3.25771,6.41273 0.90164,9.64136 -2.36692,3.24349 -6.59641,4.10111 -9.40754,1.92479 -2.77916,-2.15156 -3.10318,-6.44988 -0.76178,-9.60968 2.3309,-3.14563 6.46318,-4.02527 9.26768,-1.95647 z" />
    <path
       id="circle55"
       style="fill:#ffffff;fill-opacity:1;fill-rule:evenodd;stroke-width:0.9;stroke-linecap:square;stroke-linejoin:round;paint-order:fill markers stroke"
       d="m 29.74156,47.80271 c 3.62729,0.28285 6.06923,3.71955 5.42317,7.70943 -0.65246,4.02945 -4.19294,7.04431 -7.87582,6.69999 -3.65429,-0.34164 -6.01701,-3.86167 -5.3092,-7.82935 0.70097,-3.92926 4.16222,-6.86076 7.76185,-6.58007 z" />
    <path
       id="circle57"
       style="fill:#ffffff;fill-opacity:1;fill-rule:evenodd;stroke-width:0.9;stroke-linecap:square;stroke-linejoin:round;paint-order:fill markers stroke"
       d="m 27.62823,66.99989 c 3.54966,-1.7373 7.48339,-0.11606 8.79531,3.66704 1.3287,3.8315 -0.53462,8.40678 -4.17117,10.1716 -3.62978,1.76153 -7.58536,0.0225 -8.82675,-3.83659 -1.22577,-3.81046 0.65942,-8.26791 4.20261,-10.00205 z" />
    <path
       id="circle58"
       style="fill:#ffffff;fill-opacity:1;fill-rule:evenodd;stroke-width:0.9;stroke-linecap:square;stroke-linejoin:round;paint-order:fill markers stroke"
       d="m 34.88993,84.81528 c 2.4999,-3.51007 6.96252,-4.30747 10.01182,-1.76858 3.0868,2.57011 3.57642,7.59201 1.04777,11.20408 -2.5412,3.63 -7.11736,4.39433 -10.17519,1.72101 -3.02036,-2.64056 -3.39644,-7.6294 -0.8844,-11.15651 z" />
    <path
       id="circle60"
       style="fill:#ffffff;fill-opacity:1;fill-rule:evenodd;stroke-width:0.9;stroke-linecap:square;stroke-linejoin:round;paint-order:fill markers stroke"
       d="m 50.34173,96.20765 c 0.61159,-4.48322 4.34158,-7.701 8.36702,-7.22602 4.05903,0.47894 6.9392,4.53239 6.39704,9.09385 -0.54801,4.61065 -4.37003,7.92882 -8.49944,7.37047 -4.09456,-0.55365 -6.8827,-4.70747 -6.26462,-9.2383 z" />
    <path
       id="circle61"
       style="fill:#ffffff;fill-opacity:1;fill-rule:evenodd;stroke-width:0.9;stroke-linecap:square;stroke-linejoin:round;paint-order:fill markers stroke"
       d="m 70.04095,97.26347 c -1.62524,-4.21291 0.17627,-9.07234 4.01082,-10.90815 3.84204,-1.8394 8.34443,0.0162 10.0706,4.19875 1.74981,4.23984 -0.0169,9.23841 -3.96084,11.10835 -3.93603,1.86622 -8.47316,-0.12853 -10.12058,-4.39895 z" />
    <path
       d="m 97.951647,46.54302 -5.427117,-0.87278 0.10365,-0.57568 c 0.16196,0.0148 0.41397,0.0329 0.756171,0.0544 0.348743,0.0169 0.590753,0.0167 0.725877,-6.6e-4 0.175492,-0.0276 0.316659,-0.094 0.423461,-0.19937 0.113115,-0.10988 0.191287,-0.28648 0.234503,-0.52969 l 1.0043,-5.65195 -1.983268,-0.30261 0.120585,-0.66959 0.437035,0.0663 c 0.572759,0.087 1.104111,0.0584 1.593693,-0.086 0.495149,-0.14357 0.862928,-0.32287 1.10312,-0.53781 l 0.663371,0.0999 c -0.07683,0.34367 -0.164,0.74624 -0.261536,1.20789 -0.0977,0.46214 -0.179019,0.87786 -0.243919,1.24704 l -0.841718,4.78799 c -0.03331,0.1895 -0.02302,0.36654 0.03091,0.53112 0.06029,0.16011 0.162217,0.28792 0.305821,0.38339 0.129436,0.0821 0.348714,0.17299 0.657981,0.27273 0.309518,0.0998 0.542129,0.16503 0.697686,0.19554 z"
       id="text63"
       style="font-size:18px;line-height:1.05;font-family:Georgia;-inkscape-font-specification:Georgia;fill:#171799;fill-opacity:1"
       aria-label="1" />
    <path
       d="m 86.85543,32.40354 -7.22392,-1.06177 0.20843,-1.05047 c 0.16913,-0.13938 0.39532,-0.28897 0.67858,-0.44879 0.2843,-0.16496 0.61757,-0.33872 0.99985,-0.52128 0.23145,-0.10926 0.5063,-0.22549 0.8246,-0.34871 0.31839,-0.12325 0.67822,-0.25643 1.07954,-0.39957 0.44644,-0.15788 0.79326,-0.30367 1.04035,-0.43734 0.25224,-0.13295 0.49142,-0.30734 0.71748,-0.52315 0.14865,-0.14237 0.28159,-0.32648 0.39881,-0.55225 0.11815,-0.23082 0.21955,-0.56647 0.30416,-1.00668 0.12281,-0.63901 0.0411,-1.12995 -0.24477,-1.47317 -0.28444,-0.34779 -0.69447,-0.55844 -1.22992,-0.63227 -0.33114,-0.0457 -0.65711,-0.0228 -0.97802,0.0685 -0.3198,0.0862 -0.57576,0.2333 -0.76801,0.44142 0.004,0.16753 0.009,0.3667 0.0159,0.59758 0.012,0.23173 -0.003,0.45461 -0.0449,0.6686 -0.038,0.1937 -0.15347,0.35563 -0.34642,0.48573 -0.18685,0.12572 -0.43799,0.16633 -0.75325,0.12187 -0.25408,-0.0358 -0.43249,-0.15002 -0.53526,-0.34249 -0.1017,-0.19743 -0.12327,-0.4436 -0.0648,-0.73846 0.0544,-0.27434 0.18477,-0.53791 0.39109,-0.79078 0.20725,-0.25788 0.47583,-0.48375 0.8058,-0.67768 0.32392,-0.18958 0.70539,-0.32703 1.14459,-0.41237 0.43946,-0.0854 0.89841,-0.0953 1.37706,-0.0297 1.04564,0.14342 1.83131,0.49142 2.35615,1.04477 0.53227,0.55032 0.7245,1.21741 0.57548,2.00134 -0.0712,0.37454 -0.19276,0.70804 -0.36471,1.00035 -0.16688,0.29319 -0.39651,0.54062 -0.68883,0.74221 -0.32297,0.22365 -0.68533,0.40465 -1.08698,0.54296 -0.40051,0.13312 -1.00777,0.31321 -1.82136,0.54015 -0.48473,0.13651 -0.94052,0.28768 -1.36744,0.45351 -0.42577,0.16063 -0.78142,0.32607 -1.06706,0.49634 l 5.92941,0.86209 z"
       id="text64"
       style="font-size:18px;line-height:1.05;font-family:Georgia;-inkscape-font-specification:Georgia;fill:#171799;fill-opacity:1"
       aria-label="2" />
    <path
       d="m 65.81718,26.90426 c -0.41122,-0.0593 -0.77547,-0.16712 -1.09279,-0.32338 -0.31797,-0.15164 -0.57942,-0.33412 -0.78445,-0.54741 -0.20481,-0.21307 -0.34924,-0.44485 -0.43336,-0.69533 -0.0797,-0.24964 -0.0927,-0.49645 -0.0392,-0.7405 0.0477,-0.21731 0.14253,-0.40499 0.28457,-0.56308 0.143,-0.1625 0.32953,-0.22752 0.55971,-0.19508 0.26073,0.0367 0.44406,0.13114 0.54992,0.28322 0.11125,0.14836 0.14854,0.30694 0.11183,0.47572 -0.0309,0.14218 -0.094,0.3188 -0.18935,0.52987 -0.091,0.21178 -0.15977,0.36258 -0.20629,0.45233 0.0218,0.0444 0.0646,0.10565 0.12855,0.18369 0.0683,0.0787 0.15554,0.15321 0.26171,0.22358 0.12513,0.0869 0.25977,0.16142 0.40393,0.22351 0.14423,0.0621 0.35626,0.11326 0.63618,0.15344 0.26258,0.0377 0.524,0.0291 0.78419,-0.0257 0.26467,-0.0542 0.51022,-0.1665 0.73658,-0.33683 0.23704,-0.178 0.43781,-0.39798 0.60228,-0.65987 0.16784,-0.25668 0.29932,-0.60798 0.3944,-1.05359 0.0513,-0.24044 0.0758,-0.4822 0.0736,-0.72526 0.002,-0.24228 -0.0462,-0.45943 -0.14493,-0.65146 -0.0986,-0.19188 -0.25601,-0.35071 -0.47207,-0.47653 -0.21058,-0.12954 -0.49474,-0.21907 -0.85239,-0.26863 l -0.85584,-0.1186 0.16497,-0.76149 0.56779,0.0782 c 0.60123,0.0828 1.07128,-0.0254 1.40948,-0.32453 0.33814,-0.29908 0.57935,-0.78604 0.72349,-1.46011 0.1176,-0.5499 0.0774,-0.98019 -0.12036,-1.29113 -0.19654,-0.31493 -0.52942,-0.50355 -0.99846,-0.56609 -0.22566,-0.0301 -0.41831,-0.0265 -0.57804,0.0107 -0.1544,0.0334 -0.28278,0.0702 -0.38515,0.11057 -0.12159,0.0468 -0.2251,0.10267 -0.31054,0.16775 -0.0854,0.0651 -0.14928,0.1128 -0.19152,0.14315 -1.1e-4,0.14409 -8.6e-4,0.32196 -0.002,0.53364 -4.5e-4,0.20742 -0.0207,0.40326 -0.0607,0.5875 -0.0352,0.16237 -0.13657,0.30002 -0.30396,0.4129 -0.16209,0.10907 -0.37533,0.14561 -0.63959,0.10964 -0.22948,-0.0312 -0.38004,-0.13755 -0.45174,-0.31889 -0.0673,-0.18063 -0.077,-0.3804 -0.0291,-0.59931 0.0498,-0.22755 0.16319,-0.45091 0.3401,-0.67013 0.17687,-0.21917 0.41084,-0.41489 0.70197,-0.58723 0.29114,-0.17236 0.62784,-0.29823 1.01023,-0.37766 0.38258,-0.0795 0.80588,-0.0884 1.27011,-0.0268 0.53426,0.0709 0.95828,0.21048 1.27185,0.41883 0.31923,0.20479 0.55502,0.43476 0.70718,0.6899 0.14889,0.25042 0.23439,0.50388 0.2564,0.76033 0.022,0.25665 0.0144,0.4732 -0.023,0.64956 -0.0468,0.22057 -0.12468,0.43929 -0.23374,0.65616 -0.10818,0.21253 -0.25251,0.4043 -0.43301,0.57525 -0.19741,0.18686 -0.44141,0.34915 -0.73194,0.48682 -0.28517,0.13384 -0.62922,0.22764 -1.03201,0.28141 l -0.0228,0.10617 c 0.23988,0.0559 0.48811,0.14717 0.74475,0.2738 0.26123,0.12737 0.48524,0.29305 0.67197,0.49709 0.19381,0.21433 0.33478,0.4764 0.42283,0.78632 0.0891,0.30578 0.087,0.67939 -0.006,1.12096 -0.18146,0.85771 -0.6679,1.50527 -1.45886,1.94127 -0.7917,0.44037 -1.69445,0.58739 -2.70664,0.44141 z"
       id="text65"
       style="font-size:16px;line-height:1.05;font-family:Georgia;-inkscape-font-specification:Georgia;fill:#171799;fill-opacity:1"
       aria-label="3" />
    <path
       d="m 52.73725,28.08702 -1.29668,-0.19164 -0.70538,3.02976 -1.22622,-0.18571 0.70878,-3.02477 -4.051,-0.59871 0.2425,-1.01331 5.74799,-4.96482 0.82959,0.11597 -1.34412,5.77333 1.29565,0.19013 z m -2.31639,-1.2392 1.00935,-4.30749 -4.4272,3.80593 z"
       id="text66"
       style="font-size:16px;line-height:1.05;font-family:Georgia;-inkscape-font-specification:Georgia;fill:#171799;fill-opacity:1"
       aria-label="4" />
    <path
       d="m 38.04713,37.16273 c 0.21922,0.2773 0.37398,0.61437 0.46415,1.01133 0.0945,0.39815 0.0741,0.87394 -0.0615,1.4275 -0.23737,0.96934 -0.74316,1.71987 -1.51699,2.24995 -0.77385,0.53009 -1.63498,0.71544 -2.58176,0.55632 -0.73166,-0.12297 -1.30257,-0.41393 -1.71304,-0.87231 -0.40961,-0.45744 -0.55186,-0.9327 -0.42751,-1.42606 0.0576,-0.22855 0.15973,-0.41929 0.30638,-0.57231 0.14662,-0.153 0.32789,-0.21171 0.5439,-0.17613 0.24938,0.0411 0.42061,0.14392 0.51364,0.30861 0.0984,0.16101 0.1268,0.32456 0.0852,0.49063 -0.036,0.14368 -0.10385,0.31955 -0.20367,0.52764 -0.0999,0.20817 -0.17527,0.36192 -0.22621,0.46122 0.0254,0.0371 0.0689,0.0889 0.13044,0.15538 0.0615,0.0665 0.13824,0.13329 0.23014,0.20029 0.0961,0.0677 0.21692,0.13248 0.36242,0.19441 0.14864,0.0671 0.32748,0.11822 0.53655,0.15321 0.26777,0.0448 0.53562,0.0285 0.80349,-0.049 0.26795,-0.0775 0.51221,-0.21776 0.73268,-0.42074 0.24279,-0.22272 0.4483,-0.48915 0.61649,-0.79917 0.17118,-0.30465 0.31778,-0.7045 0.43976,-1.19925 0.15614,-0.63332 0.11963,-1.18276 -0.10907,-1.64841 -0.22301,-0.46863 -0.60138,-0.74568 -1.1349,-0.8317 -0.3331,-0.0537 -0.66183,-0.0372 -0.98629,0.0496 -0.32018,0.0874 -0.63351,0.26858 -0.94013,0.54366 l -0.37336,-0.24147 1.73269,-4.71538 4.46414,0.69711 -0.29077,1.18585 -3.96566,-0.62504 -1.0298,2.77055 c 0.22248,-0.11235 0.50259,-0.21314 0.84041,-0.30238 0.34321,-0.0931 0.69798,-0.11025 1.06442,-0.0515 0.30423,0.0488 0.60641,0.15053 0.90661,0.30538 0.30579,0.1512 0.56817,0.36521 0.78713,0.64218 z"
       id="text67"
       style="font-size:16px;line-height:1.05;font-family:Georgia;-inkscape-font-specification:Georgia;fill:#171799;fill-opacity:1"
       aria-label="5" />
    <path
       d="m 31.1687,57.26177 c -0.12089,0.48692 -0.31503,0.92877 -0.58244,1.32531 -0.26331,0.39758 -0.56619,0.72152 -0.90851,0.97165 -0.39532,0.2844 -0.80222,0.47301 -1.22054,0.56577 -0.41385,0.0935 -0.82373,0.10153 -1.22949,0.0241 -0.46866,-0.0894 -0.86822,-0.26644 -1.19871,-0.53086 -0.33005,-0.26406 -0.58271,-0.59647 -0.75812,-0.99707 -0.17817,-0.40548 -0.2751,-0.87811 -0.29097,-1.4177 -0.0159,-0.53878 0.0575,-1.1257 0.21987,-1.7607 0.42197,-1.65036 1.21857,-2.9566 2.39056,-3.9231 1.17561,-0.96527 2.53916,-1.42694 4.09461,-1.38525 l -0.0415,0.64139 -0.59554,0.009 c -0.99223,0.15898 -1.82302,0.53398 -2.49362,1.12533 -0.66667,0.59234 -1.19686,1.36194 -1.59093,2.30997 0.44825,-0.28071 0.8666,-0.46051 1.25517,-0.5394 0.38876,-0.0789 0.77858,-0.0828 1.16957,-0.0114 0.70302,0.12833 1.22968,0.53492 1.57975,1.2209 0.35521,0.68853 0.42249,1.47919 0.20081,2.37202 z m -1.4262,-0.0679 c 0.18902,-0.75626 0.18205,-1.39147 -0.0204,-1.90595 -0.19785,-0.51277 -0.55977,-0.81711 -1.08555,-0.91362 -0.31514,-0.0578 -0.62545,-0.047 -0.93102,0.0326 -0.30126,0.0803 -0.61636,0.25006 -0.94541,0.50937 -0.0184,0.0548 -0.0576,0.18335 -0.11772,0.3858 -0.059,0.19786 -0.1033,0.35481 -0.13277,0.47083 -0.2763,1.08742 -0.33384,1.97211 -0.17184,2.65313 0.16775,0.67864 0.51527,1.06861 1.04278,1.16889 0.50281,0.0956 0.96955,-0.069 1.39962,-0.49379 0.4311,-0.42929 0.75195,-1.0654 0.96235,-1.90722 z"
       id="text68"
       style="font-size:16px;line-height:1.05;font-family:Georgia;-inkscape-font-specification:Georgia;fill:#171799;fill-opacity:1"
       aria-label="6" />
    <path
       id="path2"
       style="fill:#000000;fill-rule:evenodd;stroke-width:0.9;stroke-linecap:square;stroke-linejoin:round;paint-order:fill markers stroke;fill-opacity:0.40000001"
       d="M 96.339844 23.503906 C 105.90617 33.623237 110.96522 48.404713 108.4668 64.488281 C 103.91671 93.779492 76.852946 113.39627 49.876953 106.86523 C 42.29156 105.02877 35.763629 101.33633 30.503906 96.386719 C 36.068197 102.34651 43.300328 106.78879 51.876953 108.86523 C 78.852946 115.39627 105.91671 95.779492 110.4668 66.488281 C 113.13461 49.314253 107.19338 33.616553 96.339844 23.503906 z " />
    <path
       id="path1-4"
       style="fill:none;fill-opacity:0.3;fill-rule:evenodd;stroke:#404040;stroke-width:0.9;stroke-linecap:square;stroke-linejoin:round;paint-order:fill markers stroke"
       d="M 110.46772,66.48907 C 105.91763,95.78031 78.85389,115.39621 51.87787,108.86517 26.49806,102.72058 12.825,75.91355 19.63204,50.10352 26.05426,25.75261 49.02166,9.2786 72.35085,12.22827 c 24.638022,3.11515 42.38232,26.80197 38.11687,54.2608 z"
       sodipodi:nodetypes="ccccc" />
    <path
       d="m 34.39932,70.07281 -7.09716,9.10023 -0.8123,-0.17351 6.64035,-8.39702 -2.55041,-0.51497 c -0.37508,-0.0757 -0.6692,-0.13006 -0.88253,-0.16303 -0.21323,-0.0329 -0.41809,-0.0262 -0.61462,0.0202 -0.14874,0.0357 -0.30901,0.17293 -0.48088,0.41164 -0.16644,0.23484 -0.32725,0.54699 -0.48247,0.93663 l -0.39306,-0.0802 0.70293,-2.83148 6.08399,1.21917 z"
       id="text69"
       style="font-size:16px;line-height:1.05;font-family:Georgia;-inkscape-font-specification:Georgia;fill:#171799;fill-opacity:1"
       aria-label="7" />
    <path
       d="m 43.22199,92.83579 c -0.19561,0.86868 -0.69543,1.54175 -1.49908,2.01789 -0.80351,0.47606 -1.74244,0.59069 -2.81486,0.34441 -1.00179,-0.23005 -1.73614,-0.70031 -2.20387,-1.40976 -0.46647,-0.70755 -0.59459,-1.50939 -0.38559,-2.40561 0.15379,-0.65951 0.45681,-1.1691 0.90919,-1.52946 0.45797,-0.36441 1.06856,-0.62239 1.83235,-0.77411 -0.48787,-0.48876 -0.82278,-0.98025 -1.00528,-1.47464 -0.1822,-0.49359 -0.21012,-1.01109 -0.0841,-1.55259 0.1917,-0.82367 0.66049,-1.44526 1.40676,-1.86598 0.75092,-0.41984 1.55939,-0.53651 2.42662,-0.34966 0.86902,0.18724 1.51295,0.60201 1.93123,1.24521 0.42383,0.64576 0.54602,1.36872 0.36552,2.16877 -0.11628,0.51543 -0.37685,0.97289 -0.7817,1.37205 -0.40382,0.39416 -0.92984,0.67535 -1.5776,0.84338 0.67029,0.53106 1.12208,1.05484 1.35439,1.57098 0.23728,0.51808 0.27944,1.11776 0.12601,1.79912 z m -0.38712,-5.95083 c 0.14093,-0.62056 0.0901,-1.15937 -0.1519,-1.61652 -0.236,-0.46049 -0.60844,-0.74549 -1.11716,-0.85548 -0.50811,-0.10985 -0.96659,-0.0129 -1.37592,0.2908 -0.4082,0.29866 -0.676,0.72352 -0.80351,1.27509 -0.12298,0.53196 -0.0431,1.02385 0.24004,1.47577 0.28364,0.45269 0.85065,0.99551 1.7027,1.62941 0.39539,-0.17007 0.71378,-0.4404 0.955,-0.81082 0.24108,-0.3702 0.42467,-0.83308 0.55075,-1.38825 z m -1.0626,6.00587 c 0.0737,-0.32495 0.0766,-0.62229 0.009,-0.89203 -0.0666,-0.27465 -0.19296,-0.53818 -0.3789,-0.79056 -0.17785,-0.24496 -0.44213,-0.51715 -0.79262,-0.81644 -0.34429,-0.30298 -0.72138,-0.61564 -1.13114,-0.93792 -0.49395,0.1691 -0.88997,0.43784 -1.18832,0.80638 -0.29729,0.3636 -0.50703,0.809 -0.62924,1.33656 -0.17467,0.754 -0.12228,1.40942 0.15779,1.96614 0.28633,0.55368 0.75581,0.90556 1.40877,1.055 0.6267,0.14344 1.17182,0.0503 1.63463,-0.27948 0.4628,-0.32979 0.76628,-0.81256 0.9103,-1.44765 z"
       id="text70"
       style="font-size:16px;line-height:1.05;font-family:Georgia;-inkscape-font-specification:Georgia;fill:#171799;fill-opacity:1"
       aria-label="8" />
    <path
       d="m 61.36855,96.74202 c -0.18845,0.92273 -0.49753,1.76429 -0.92733,2.52397 -0.42923,0.75526 -0.9531,1.38626 -1.57133,1.89241 -0.60664,0.49777 -1.29886,0.86647 -2.07612,1.10588 -0.77306,0.24569 -1.59936,0.33286 -2.47819,0.26172 l 0.0241,-0.74985 0.66509,0.0208 c 1.09409,-0.12569 2.00721,-0.49817 2.73791,-1.11714 0.73046,-0.61876 1.2979,-1.48632 1.70183,-2.60101 -0.46605,0.28275 -0.91174,0.46728 -1.33694,0.55357 -0.41913,0.082 -0.87008,0.0678 -1.3526,-0.0426 -0.76995,-0.17619 -1.3689,-0.66514 -1.79699,-1.46542 -0.4222,-0.79699 -0.52531,-1.70149 -0.31059,-2.71347 0.22976,-1.08288 0.74802,-1.92155 1.55512,-2.5179 0.81167,-0.59523 1.69829,-0.7871 2.66153,-0.57532 1.05026,0.23091 1.80232,0.83123 2.25537,1.80294 0.45928,0.97595 0.54293,2.18276 0.24911,3.62143 z M 59.8768,96.30616 c 0.2544,-1.23508 0.27061,-2.23922 0.0496,-3.01357 -0.21474,-0.7767 -0.61656,-1.22937 -1.20525,-1.35924 -0.5597,-0.12347 -1.06698,0.0458 -1.52252,0.50791 -0.45463,0.45705 -0.7811,1.15659 -0.97959,2.09996 -0.179,0.85071 -0.14879,1.5739 0.0912,2.16926 0.24522,0.59758 0.66318,0.96402 1.25414,1.09859 0.36917,0.0841 0.72323,0.087 1.06205,0.009 0.34005,-0.0836 0.67744,-0.26213 1.01207,-0.5356 0.004,-0.0211 0.0155,-0.063 0.0335,-0.12545 0.0226,-0.0614 0.0458,-0.15028 0.0698,-0.26675 0.0153,-0.0741 0.0362,-0.16348 0.0629,-0.26817 0.0266,-0.10467 0.0508,-0.20986 0.0726,-0.31558 z"
       id="text71"
       style="font-size:16px;line-height:1.05;font-family:Georgia;-inkscape-font-specification:Georgia;fill:#171799;fill-opacity:1"
       aria-label="9" />
    <path
       d="m 81.03113,91.05615 c 0.26961,0.53674 0.43343,1.13575 0.49115,1.79717 0.0645,0.65778 0.0346,1.32752 -0.0898,2.00913 -0.14997,0.82169 -0.39333,1.53617 -0.73012,2.14274 -0.33599,0.60109 -0.73299,1.07541 -1.19079,1.42258 -0.47121,0.35688 -0.9945,0.58816 -1.56954,0.69375 -0.57462,0.1055 -1.18881,0.0849 -1.84213,-0.0617 -0.71312,-0.15999 -1.32325,-0.43261 -1.83057,-0.81753 -0.50638,-0.38422 -0.88909,-0.84094 -1.14846,-1.37 -0.2719,-0.54981 -0.43802,-1.15665 -0.49867,-1.82041 -0.0539,-0.66735 -0.0112,-1.36217 0.12781,-2.08449 0.13653,-0.70926 0.34641,-1.34263 0.6296,-1.90054 0.28837,-0.55622 0.66099,-1.03514 1.11798,-1.43709 0.43713,-0.38758 0.95646,-0.65587 1.55836,-0.80502 0.60231,-0.14925 1.25925,-0.14842 1.97139,0.003 0.75171,0.15957 1.37203,0.43339 1.86067,0.82178 0.48951,0.38911 0.87064,0.858 1.14309,1.40688 z m -1.43855,3.40471 c 0.26416,-1.43079 0.24185,-2.58561 -0.0657,-3.46603 -0.30118,-0.87682 -0.83627,-1.39629 -1.6049,-1.56 -0.77824,-0.16576 -1.46459,0.0923 -2.06039,0.7743 -0.59622,0.68248 -1.02945,1.73271 -1.30002,3.15366 -0.25771,1.35344 -0.25173,2.49367 0.0191,3.41961 0.27824,0.92372 0.82314,1.47723 1.63523,1.65882 0.81358,0.18193 1.5173,-0.0938 2.10965,-0.82693 0.59298,-0.73858 1.01537,-1.79059 1.26699,-3.15343 z"
       id="text72"
       style="font-size:18px;line-height:1.05;font-family:Georgia;-inkscape-font-specification:Georgia;fill:#171799;fill-opacity:1"
       aria-label="0" />
    <path
       id="circle48"
       style="fill:url(#linearGradient99);fill-opacity:1;fill-rule:evenodd;stroke:none;stroke-width:1.32224;stroke-linecap:square;stroke-linejoin:round;paint-order:fill markers stroke"
       d="m 84.90729,75.97889 c -0.55423,0.73843 -0.53601,1.7699 0.11766,2.30679 0.2416,0.19834 0.52316,0.606 0.64593,0.90369 1.06857,2.59096 2.98796,4.71878 5.42824,5.9854 0.63217,0.32018 1.28994,0.57832 1.96522,0.77162 0.928797,0.26585 2.332682,0.8563 3.102054,1.48794 l 5.396876,4.43062 c 0.48303,0.39656 1.17036,0.28168 1.49163,-0.25018 l 2.50084,-4.13982 c 0.33434,-0.5535 0.14202,-1.30372 -0.41648,-1.62705 l -4.88142,-2.82534 c -0.512293,-0.29658 -1.355713,-0.3388 -1.909973,-0.17419 -1.969398,0.58497 -4.090335,0.3952 -5.955797,-0.5544 -2.17532,-1.11645 -3.76777,-3.14711 -4.40531,-5.5457 -0.13708,-0.51571 -0.5585,-1.15435 -1.002,-1.4112 -0.63251,-0.36693 -1.52375,-0.0959 -2.07747,0.64182 z"
       sodipodi:nodetypes="ccscsccccccscscc" />
    <path
       id="path1"
       style="fill:#000000;fill-opacity:0.40000001;fill-rule:evenodd;stroke-width:0.484616;stroke-linecap:square;stroke-linejoin:round;paint-order:fill markers stroke"
       d="M 64.382812 32.423828 C 52.733837 32.499028 41.931155 41.22277 38.958984 53.589844 C 36.5894 63.449548 39.73513 73.277803 46.486328 79.283203 C 41.135274 73.226058 38.837095 64.418902 40.958984 55.589844 C 44.238621 41.943417 57.052931 32.732836 70.017578 34.683594 C 74.571796 35.368857 78.623199 37.348083 81.882812 40.234375 C 78.352185 36.266286 73.55792 33.517237 68.017578 32.683594 C 66.802142 32.50071 65.587879 32.416049 64.382812 32.423828 z " />
    <path
       id="path72"
       style="fill:none;fill-opacity:0.3;fill-rule:evenodd;stroke:#404040;stroke-width:0.9;stroke-linecap:square;stroke-linejoin:round;stroke-dasharray:none;stroke-opacity:1;paint-order:fill markers stroke"
       d="M 87.77546,62.39569 C 85.03194,77.46683 71.03522,87.58406 57.01759,84.6046 43.44101,81.71889 35.57194,67.68082 38.95845,53.58975 42.23809,39.94331 55.05278,30.73215 68.01744,32.68291 81.3785,34.69332 90.4275,47.82712 87.77546,62.39569 Z" />
    <path
       id="path3"
       style="fill:#000000;fill-opacity:0.30414745;fill-rule:evenodd;stroke-width:0.9;stroke-linecap:square;stroke-linejoin:round;paint-order:fill markers stroke"
       d="M 96.111328 34.277344 C 95.039805 34.291576 93.950066 34.539783 92.917969 35.044922 C 89.255102 36.83764 87.626954 41.229371 89.294922 44.898438 C 89.793625 45.995451 90.532166 46.904315 91.419922 47.595703 C 91.076572 47.15567 90.778624 46.66994 90.537109 46.138672 C 88.869141 42.469606 90.49729 38.079828 94.160156 36.287109 C 96.791423 34.99929 99.792846 35.384194 101.92969 37.046875 C 100.5244 35.244841 98.356997 34.247517 96.111328 34.277344 z " />
    <path
       id="path74"
       style="fill:none;fill-opacity:1;fill-rule:evenodd;stroke:#404040;stroke-width:0.9;stroke-linecap:square;stroke-linejoin:round;stroke-opacity:1;paint-order:fill markers stroke"
       d="m 99.16513,48.36578 c -3.75533,1.82247 -8.18027,0.24884 -9.86986,-3.46781 -1.66797,-3.66907 -0.0401,-8.06001 3.62277,-9.85273 3.669682,-1.79605 8.05974,-0.33831 9.81966,3.30107 1.78282,3.68673 0.18988,8.19355 -3.57257,10.01947 z" />
    <path
       id="path4"
       style="fill:#000000;fill-opacity:0.30000001;fill-rule:evenodd;stroke-width:0.9;stroke-linecap:square;stroke-linejoin:round;paint-order:fill markers stroke"
       d="M 84.3125 20.595703 C 82.047694 20.646486 79.79348 21.767652 78.359375 23.78125 C 76.122242 26.922376 76.667798 31.131326 79.582031 33.353516 C 77.804028 31.019909 77.729281 27.649539 79.599609 25.023438 C 81.894177 21.801681 86.291587 20.864235 89.464844 22.939453 C 89.60088 23.028418 89.732183 23.123766 89.859375 23.220703 C 89.416564 22.639273 88.871412 22.122211 88.224609 21.699219 C 87.034638 20.921012 85.671383 20.565234 84.3125 20.595703 z " />
    <path
       id="path75"
       style="fill:none;fill-opacity:1;fill-rule:evenodd;stroke:#404040;stroke-width:0.9;stroke-linecap:square;stroke-linejoin:round;stroke-opacity:1;paint-order:fill markers stroke"
       d="m 89.87895,31.49921 c -2.32758,3.32486 -6.83527,4.23889 -10.02374,2.05086 -3.15105,-2.16236 -3.80182,-6.53172 -1.49659,-9.76846 2.29457,-3.22176 6.69236,-4.15792 9.86562,-2.0827 3.21063,2.09967 3.9713,6.49115 1.65471,9.8003 z" />
    <path
       id="path5"
       style="fill:#000000;fill-opacity:0.30000001;fill-rule:evenodd;stroke-width:0.9;stroke-linecap:square;stroke-linejoin:round;paint-order:fill markers stroke"
       d="M 67.775391 15.259766 C 64.20115 15.291059 60.995744 18.104869 60.501953 21.724609 C 60.165691 24.189573 61.166181 26.433795 62.951172 27.751953 C 61.971976 26.460238 61.495874 24.773535 61.744141 22.966797 C 62.257577 19.230291 65.681199 16.352673 69.419922 16.507812 C 70.696767 16.560795 71.850778 16.960357 72.802734 17.613281 C 71.719427 16.242524 70.061582 15.346733 68.121094 15.265625 C 68.005104 15.260777 67.890689 15.258756 67.775391 15.259766 z " />
    <path
       id="path76"
       style="fill:none;fill-opacity:1;fill-rule:evenodd;stroke:#404040;stroke-width:0.9;stroke-linecap:square;stroke-linejoin:round;stroke-opacity:1;paint-order:fill markers stroke"
       d="m 74.10171,22.38832 c -0.45509,3.82887 -3.92927,6.78727 -7.72899,6.57508 -3.7705,-0.21056 -6.38497,-3.46538 -5.87031,-7.23809 0.50972,-3.73651 3.90773,-6.61444 7.61939,-6.4593 3.73992,0.15632 6.43057,3.33068 5.97991,7.12231 z" />
    <path
       id="path6"
       style="fill:#000000;fill-opacity:0.30000001;fill-rule:evenodd;stroke-width:0.9;stroke-linecap:square;stroke-linejoin:round;paint-order:fill markers stroke"
       d="M 50.388672 19.021484 C 49.424886 19.048592 48.431533 19.290064 47.474609 19.767578 C 44.078113 21.462466 42.362115 25.516821 43.652344 28.861328 C 44.078749 29.966646 44.782171 30.856343 45.654297 31.496094 C 45.349324 31.079704 45.091974 30.615323 44.894531 30.103516 C 43.604303 26.759009 45.318347 22.704654 48.714844 21.009766 C 51.041808 19.848588 53.582494 20.081838 55.394531 21.40625 C 54.232055 19.823426 52.37406 18.965642 50.388672 19.021484 z " />
    <path
       id="path77"
       style="fill:none;fill-opacity:1;fill-rule:evenodd;stroke:#404040;stroke-width:0.9;stroke-linecap:square;stroke-linejoin:round;stroke-opacity:1;paint-order:fill markers stroke"
       d="m 56.10607,22.67015 c 1.38598,3.35825 -0.30535,7.51123 -3.78747,9.23592 -3.47594,1.72162 -7.35957,0.34049 -8.66548,-3.04466 -1.29023,-3.34451 0.42423,-7.39828 3.82073,-9.09317 3.4024,-1.69783 7.26293,-0.41592 8.63222,2.90191 z" />
    <path
       id="path7"
       style="fill:#000000;fill-opacity:0.30000001;fill-rule:evenodd;stroke-width:0.9;stroke-linecap:square;stroke-linejoin:round;paint-order:fill markers stroke"
       d="M 36.564453 30.736328 C 34.46427 30.765428 32.304467 31.846483 30.847656 33.8125 C 28.506259 36.972297 28.830218 41.270317 31.609375 43.421875 C 31.647911 43.451709 31.687502 43.479117 31.726562 43.507812 C 30.034985 41.194067 30.112961 37.71797 32.087891 35.052734 C 34.412817 31.915166 38.529907 31.031643 41.333984 33.080078 C 40.99602 32.619963 40.590538 32.206089 40.115234 31.855469 C 39.063548 31.07967 37.824563 30.718868 36.564453 30.736328 z " />
    <path
       id="path78"
       style="fill:none;fill-opacity:1;fill-rule:evenodd;stroke:#404040;stroke-width:0.9;stroke-linecap:square;stroke-linejoin:round;stroke-opacity:1;paint-order:fill markers stroke"
       d="m 40.11445,31.85521 c 2.83649,2.09241 3.25771,6.41273 0.90164,9.64136 -2.36692,3.24349 -6.59641,4.10111 -9.40754,1.92479 -2.77916,-2.15156 -3.10318,-6.44988 -0.76178,-9.60968 2.3309,-3.14563 6.46318,-4.02527 9.26768,-1.95647 z" />
    <path
       id="path9"
       style="fill:#000000;fill-opacity:0.30414745;fill-rule:evenodd;stroke-width:0.9;stroke-linecap:square;stroke-linejoin:round;paint-order:fill markers stroke"
       d="M 29.404297 47.785156 C 25.928018 47.705631 22.659533 50.576346 21.980469 54.382812 C 21.484936 57.160558 22.494476 59.717229 24.398438 61.119141 C 23.328066 59.676819 22.847983 57.712356 23.220703 55.623047 C 23.921672 51.693791 27.382795 48.762279 30.982422 49.042969 C 32.108968 49.130815 33.122013 49.524219 33.962891 50.142578 C 32.978363 48.819381 31.500613 47.939853 29.742188 47.802734 C 29.629699 47.793963 29.516435 47.787722 29.404297 47.785156 z " />
    <path
       id="path79"
       style="fill:none;fill-opacity:1;fill-rule:evenodd;stroke:#404040;stroke-width:0.9;stroke-linecap:square;stroke-linejoin:round;stroke-opacity:1;paint-order:fill markers stroke"
       d="m 29.74156,47.80271 c 3.62729,0.28285 6.06923,3.71955 5.42317,7.70943 -0.65246,4.02945 -4.19294,7.04431 -7.87582,6.69999 -3.65429,-0.34164 -6.01701,-3.86167 -5.3092,-7.82935 0.70097,-3.92926 4.16222,-6.86076 7.76185,-6.58007 z" />
    <path
       id="path10"
       style="fill:#000000;fill-opacity:0.29999998;fill-rule:evenodd;stroke-width:0.9;stroke-linecap:square;stroke-linejoin:round;paint-order:fill markers stroke"
       d="M 30.648438 66.304688 C 29.656208 66.288595 28.627247 66.511385 27.628906 67 C 24.08572 68.734138 22.200012 73.191497 23.425781 77.001953 C 23.881373 78.418245 24.703764 79.54727 25.740234 80.324219 C 25.287681 79.725644 24.91894 79.028451 24.666016 78.242188 C 23.440247 74.431731 25.325954 69.974373 28.869141 68.240234 C 31.159725 67.11916 33.609367 67.399488 35.412109 68.753906 C 34.249023 67.211007 32.513699 66.33494 30.648438 66.304688 z " />
    <path
       id="path80"
       style="fill:none;fill-opacity:1;fill-rule:evenodd;stroke:#404040;stroke-width:0.9;stroke-linecap:square;stroke-linejoin:round;stroke-opacity:1;paint-order:fill markers stroke"
       d="m 27.62823,66.99989 c 3.54966,-1.7373 7.48339,-0.11606 8.79531,3.66704 1.3287,3.8315 -0.53462,8.40678 -4.17117,10.1716 -3.62978,1.76153 -7.58536,0.0225 -8.82675,-3.83659 -1.22577,-3.81046 0.65942,-8.26791 4.20261,-10.00205 z" />
    <path
       id="path11"
       style="fill:#000000;fill-opacity:0.30000001;fill-rule:evenodd;stroke-width:0.9;stroke-linecap:square;stroke-linejoin:round;paint-order:fill markers stroke"
       d="M 40.712891 81.5625 C 38.551379 81.603424 36.374939 82.730351 34.890625 84.814453 C 32.378588 88.34156 32.753081 93.332099 35.773438 95.972656 C 35.880801 96.06652 35.990609 96.154822 36.101562 96.240234 C 33.949586 93.470701 33.900663 89.188019 36.130859 86.056641 C 38.579562 82.618456 42.91096 81.785368 45.953125 84.138672 C 45.645322 83.740211 45.295113 83.3739 44.902344 83.046875 C 43.663567 82.015452 42.19182 81.5345 40.712891 81.5625 z " />
    <path
       id="path81"
       style="fill:none;fill-opacity:1;fill-rule:evenodd;stroke:#404040;stroke-width:0.9;stroke-linecap:square;stroke-linejoin:round;stroke-opacity:1;paint-order:fill markers stroke"
       d="m 34.88993,84.81528 c 2.4999,-3.51007 6.96252,-4.30747 10.01182,-1.76858 3.0868,2.57011 3.57642,7.59201 1.04777,11.20408 -2.5412,3.63 -7.11736,4.39433 -10.17519,1.72101 -3.02036,-2.64056 -3.39644,-7.6294 -0.8844,-11.15651 z" />
    <path
       id="path12"
       style="fill:#000000;fill-opacity:0.30000001;fill-rule:evenodd;stroke-width:0.9;stroke-linecap:square;stroke-linejoin:round;paint-order:fill markers stroke"
       d="M 57.958984 88.935547 C 54.230099 88.914109 50.915162 92.004017 50.341797 96.207031 C 49.911185 99.363628 51.134835 102.33645 53.300781 104.03711 C 51.933662 102.31018 51.242628 99.937201 51.582031 97.449219 C 52.193621 92.966003 55.923783 89.747677 59.949219 90.222656 C 61.229612 90.373735 62.393769 90.880298 63.369141 91.646484 C 62.217681 90.193917 60.590411 89.204418 58.708984 88.982422 C 58.457395 88.952736 58.207577 88.936976 57.958984 88.935547 z " />
    <path
       id="path82"
       style="fill:none;fill-opacity:1;fill-rule:evenodd;stroke:#404040;stroke-width:0.9;stroke-linecap:square;stroke-linejoin:round;stroke-opacity:1;paint-order:fill markers stroke"
       d="m 50.34173,96.20765 c 0.61159,-4.48322 4.34158,-7.701 8.36702,-7.22602 4.05903,0.47894 6.9392,4.53239 6.39704,9.09385 -0.54801,4.61065 -4.37003,7.92882 -8.49944,7.37047 -4.09456,-0.55365 -6.8827,-4.70747 -6.26462,-9.2383 z" />
    <path
       id="path13"
       style="fill:#000000;fill-opacity:0.30000001;fill-rule:evenodd;stroke-width:0.9;stroke-linecap:square;stroke-linejoin:round;paint-order:fill markers stroke"
       d="M 77.003906 85.646484 C 76.01455 85.665835 75.013243 85.895619 74.052734 86.355469 C 70.218188 88.191277 68.415777 93.050766 70.041016 97.263672 C 70.598205 98.70801 71.48706 99.891541 72.570312 100.75391 C 72.046603 100.10037 71.606523 99.347072 71.28125 98.503906 C 69.656012 94.291 71.458423 89.431511 75.292969 87.595703 C 77.887307 86.353648 80.781477 86.799554 82.919922 88.505859 C 81.43021 86.639846 79.24992 85.602555 77.003906 85.646484 z " />
    <path
       id="path83"
       style="fill:none;fill-opacity:1;fill-rule:evenodd;stroke:#404040;stroke-width:0.9;stroke-linecap:square;stroke-linejoin:round;stroke-opacity:1;paint-order:fill markers stroke"
       d="m 70.04095,97.26347 c -1.62524,-4.21291 0.17627,-9.07234 4.01082,-10.90815 3.84204,-1.8394 8.34443,0.0162 10.0706,4.19875 1.74981,4.23984 -0.0169,9.23841 -3.96084,11.10835 -3.93603,1.86622 -8.47316,-0.12853 -10.12058,-4.39895 z" />
    <path
       id="path100"
       style="fill:none;fill-opacity:1;fill-rule:evenodd;stroke:#404040;stroke-width:0.9;stroke-linecap:square;stroke-linejoin:round;stroke-dasharray:none;stroke-opacity:1;paint-order:fill markers stroke"
       d="m 84.90729,75.97889 c -0.55423,0.73843 -0.53601,1.7699 0.11766,2.30679 0.2416,0.19834 0.52316,0.606 0.64593,0.90369 1.06857,2.59096 2.98796,4.71878 5.42824,5.9854 0.63217,0.32018 1.28994,0.57832 1.96522,0.77162 0.928797,0.26585 2.332682,0.8563 3.102054,1.48794 l 5.396876,4.43062 c 0.48303,0.39656 1.17036,0.28168 1.49163,-0.25018 l 2.50084,-4.13982 c 0.33434,-0.5535 0.14202,-1.30372 -0.41648,-1.62705 l -4.88142,-2.82534 c -0.512293,-0.29658 -1.355713,-0.3388 -1.909973,-0.17419 -1.969398,0.58497 -4.090335,0.3952 -5.955797,-0.5544 -2.17532,-1.11645 -3.76777,-3.14711 -4.40531,-5.5457 -0.13708,-0.51571 -0.5585,-1.15435 -1.002,-1.4112 -0.63251,-0.36693 -1.52375,-0.0959 -2.07747,0.64182 z"
       sodipodi:nodetypes="ccscsccccccscscc" />
  </g>
</svg>
