<?xml version="1.0" encoding="UTF-8" standalone="no"?>
<!-- Created with Inkscape (http://www.inkscape.org/) -->

<svg
   width="128"
   height="128"
   viewBox="0 0 128 128.00001"
   version="1.1"
   id="svg1"
   inkscape:version="1.3 (0e150ed6c4, 2023-07-21)"
   sodipodi:docname="input-mouse.svg"
   xmlns:inkscape="http://www.inkscape.org/namespaces/inkscape"
   xmlns:sodipodi="http://sodipodi.sourceforge.net/DTD/sodipodi-0.dtd"
   xmlns:xlink="http://www.w3.org/1999/xlink"
   xmlns="http://www.w3.org/2000/svg"
   xmlns:svg="http://www.w3.org/2000/svg">
  <sodipodi:namedview
     id="namedview1"
     pagecolor="#ffffff"
     bordercolor="#000000"
     borderopacity="0.25"
     inkscape:showpageshadow="2"
     inkscape:pageopacity="0.0"
     inkscape:pagecheckerboard="0"
     inkscape:deskcolor="#d1d1d1"
     inkscape:document-units="px"
     showgrid="false"
     inkscape:zoom="6.4453125"
     inkscape:cx="63.922424"
     inkscape:cy="64"
     inkscape:window-width="1920"
     inkscape:window-height="1093"
     inkscape:window-x="0"
     inkscape:window-y="0"
     inkscape:window-maximized="1"
     inkscape:current-layer="layer1">
    <inkscape:grid
       id="grid1"
       units="px"
       originx="0"
       originy="0"
       spacingx="1"
       spacingy="1.0000001"
       empcolor="#e52222"
       empopacity="0.2"
       color="#0099e5"
       opacity="0.14901961"
       empspacing="4"
       dotted="false"
       gridanglex="30"
       gridanglez="30"
       visible="false" />
  </sodipodi:namedview>
  <defs
     id="defs1">
    <linearGradient
       id="linearGradient13"
       inkscape:collect="always">
      <stop
         style="stop-color:#000000;stop-opacity:0;"
         offset="0"
         id="stop13" />
      <stop
         style="stop-color:#000000;stop-opacity:0.2;"
         offset="0.5"
         id="stop15" />
      <stop
         style="stop-color:#000000;stop-opacity:0;"
         offset="1"
         id="stop14" />
    </linearGradient>
    <linearGradient
       inkscape:collect="always"
       id="linearGradient4541">
      <stop
         style="stop-color:#ffeeca;stop-opacity:1"
         offset="0"
         id="stop4537" />
      <stop
         style="stop-color:#da9f33;stop-opacity:1"
         offset="1"
         id="stop4539" />
    </linearGradient>
    <linearGradient
       inkscape:collect="always"
       xlink:href="#linearGradient4541"
       id="linearGradient4623"
       x1="2.778125"
       y1="290.25311"
       x2="6.7468753"
       y2="294.22186"
       gradientUnits="userSpaceOnUse"
       gradientTransform="matrix(7.559055,0,0,7.5590527,-48,-2065.0386)" />
    <linearGradient
       inkscape:collect="always"
       xlink:href="#linearGradient4541"
       id="linearGradient4549"
       gradientUnits="userSpaceOnUse"
       x1="2.6458335"
       y1="290.12082"
       x2="6.8791666"
       y2="294.35416"
       gradientTransform="matrix(7.559055,0,0,7.5590527,-48,-2065.0386)" />
    <linearGradient
       gradientTransform="matrix(7.559055,0,0,7.5590527,128.00001,-2117.0386)"
       y2="294.35416"
       x2="6.8791666"
       y1="290.12082"
       x1="2.6458335"
       gradientUnits="userSpaceOnUse"
       id="linearGradient4549-3"
       xlink:href="#linearGradient4541"
       inkscape:collect="always" />
    <linearGradient
       id="linearGradient950"
       inkscape:collect="always">
      <stop
         id="stop946"
         offset="0"
         style="stop-color:#d9d9d9;stop-opacity:1;" />
      <stop
         style="stop-color:#fdfdfd;stop-opacity:1"
         offset="0.50311315"
         id="stop956" />
      <stop
         id="stop948"
         offset="1"
         style="stop-color:#d9d9d9;stop-opacity:1" />
    </linearGradient>
    <linearGradient
       inkscape:collect="always"
       xlink:href="#linearGradient11"
       id="linearGradient8"
       x1="9.9534645"
       y1="4.9273429"
       x2="25.883625"
       y2="20.943455"
       gradientUnits="userSpaceOnUse"
       gradientTransform="matrix(3.7795276,0,0,3.7795276,2.3288716e-6,2.535078e-6)" />
    <linearGradient
       id="linearGradient11"
       inkscape:collect="always">
      <stop
         id="stop8"
         offset="0"
         style="stop-color:#d9d9d9;stop-opacity:1" />
      <stop
         style="stop-color:#d9d9d9;stop-opacity:1"
         offset="0.44417399"
         id="stop9" />
      <stop
         id="stop10"
         offset="0.56100738"
         style="stop-color:#666666;stop-opacity:0.99215686" />
      <stop
         id="stop11"
         offset="1"
         style="stop-color:#666666;stop-opacity:0.9921568" />
    </linearGradient>
    <linearGradient
       inkscape:collect="always"
       xlink:href="#linearGradient51"
       id="linearGradient6"
       x1="7.4083328"
       y1="4.2333331"
       x2="25.399998"
       y2="28.574999"
       gradientUnits="userSpaceOnUse"
       gradientTransform="matrix(3.7795276,0,0,3.7795276,-1.9999977,-1.9999975)" />
    <linearGradient
       id="linearGradient51"
       inkscape:collect="always">
      <stop
         id="stop51"
         offset="0"
         style="stop-color:#999999;stop-opacity:1" />
      <stop
         id="stop50"
         offset="1"
         style="stop-color:#f2f2f2;stop-opacity:1" />
    </linearGradient>
    <linearGradient
       inkscape:collect="always"
       xlink:href="#linearGradient950"
       id="linearGradient12"
       gradientUnits="userSpaceOnUse"
       gradientTransform="translate(8.000001,-5.9999989)"
       x1="34.5625"
       y1="22.054688"
       x2="38.251953"
       y2="19.406248" />
    <linearGradient
       inkscape:collect="always"
       xlink:href="#linearGradient47-6"
       id="linearGradient41"
       gradientUnits="userSpaceOnUse"
       gradientTransform="matrix(3.7795276,0,0,3.7795276,37.06909,-1.0690885)"
       x1="11.131673"
       y1="4.1991038"
       x2="12.779821"
       y2="11.782827" />
    <linearGradient
       id="linearGradient47-6"
       inkscape:collect="always">
      <stop
         id="stop46"
         offset="0"
         style="stop-color:#998a73;stop-opacity:1;" />
      <stop
         id="stop47-2"
         offset="1"
         style="stop-color:#4d3627;stop-opacity:1;" />
    </linearGradient>
    <linearGradient
       inkscape:collect="always"
       xlink:href="#linearGradient47-6"
       id="linearGradient43"
       gradientUnits="userSpaceOnUse"
       gradientTransform="matrix(3.7795276,0,0,3.7795276,17.069087,-1.0690885)"
       x1="12.291392"
       y1="3.6654446"
       x2="13.722926"
       y2="11.085724" />
    <linearGradient
       inkscape:collect="always"
       xlink:href="#linearGradient47-6"
       id="linearGradient44"
       gradientUnits="userSpaceOnUse"
       gradientTransform="matrix(3.7795276,0,0,3.7795276,-2.9309105,-1.0690885)"
       x1="13.593925"
       y1="3.1502314"
       x2="14.822988"
       y2="10.413783" />
    <linearGradient
       inkscape:collect="always"
       xlink:href="#linearGradient13"
       id="linearGradient14"
       x1="72.878906"
       y1="100.13477"
       x2="83.474297"
       y2="92.465782"
       gradientUnits="userSpaceOnUse" />
  </defs>
  <g
     inkscape:label="Layer 1"
     inkscape:groupmode="layer"
     id="layer1">
    <path
       sodipodi:nodetypes="cccc"
       inkscape:connector-curvature="0"
       id="path44"
       d="M 89.129666,108.26845 111.47575,74.74936 a 1.5824734,1.5824734 71.062521 0 0 -0.81627,-2.379065 L 89.129666,65.193693 Z"
       style="fill:#000000;fill-opacity:0.196078;stroke:none;stroke-width:2.74112;stroke-miterlimit:4;stroke-dasharray:none;stroke-opacity:1;paint-order:markers stroke fill" />
    <g
       id="g8"
       transform="matrix(3.7795276,0,0,3.7795276,-137.92969,-0.46545187)">
      <path
         style="fill:#ff5dff;fill-opacity:1;stroke:none;stroke-width:0.264583px;stroke-linecap:butt;stroke-linejoin:miter;stroke-opacity:1"
         d="M 8.2020832,1.8520834 1.8520833,25.929167 26.9875,32.014584 31.220833,4.7625001 Z"
         id="path8"
         sodipodi:nodetypes="ccccc" />
      <rect
         style="opacity:0.346774;fill:#365dff;fill-opacity:1;fill-rule:evenodd;stroke:none;stroke-width:0.105833;stroke-linecap:round;stroke-linejoin:round;paint-order:fill markers stroke"
         id="rect8"
         width="33.866665"
         height="33.866665"
         x="0"
         y="0"
         ry="0" />
    </g>
    <circle
       r="0"
       cy="143.99985"
       cx="-12"
       id="ellipse4551"
       style="fill:#ffeeca;fill-opacity:1;stroke:none;stroke-width:1.4;stroke-linecap:round;paint-order:markers stroke fill" />
    <circle
       r="0"
       cy="143.99985"
       cx="-12"
       id="ellipse4553"
       style="fill:url(#linearGradient4549);fill-opacity:1;stroke:#000000;stroke-width:1.4;stroke-linecap:round;paint-order:markers stroke fill" />
    <path
       cx="4.7624998"
       cy="292.23749"
       r="2.1166666"
       style="fill:url(#linearGradient4623);fill-opacity:1;stroke:none;stroke-width:1.4;stroke-linecap:round;paint-order:markers stroke fill"
       id="path4625"
       d=""
       inkscape:connector-curvature="0" />
    <circle
       style="fill:#ffeeca;fill-opacity:1;stroke:none;stroke-width:1.4;stroke-linecap:round;paint-order:markers stroke fill"
       id="ellipse4551-2"
       cx="164"
       cy="91.99984"
       r="0" />
    <circle
       style="fill:url(#linearGradient4549-3);fill-opacity:1;stroke:#000000;stroke-width:1.4;stroke-linecap:round;paint-order:markers stroke fill"
       id="ellipse4553-6"
       cx="164"
       cy="91.99984"
       r="0" />
    <path
       id="rect1"
       style="fill:url(#linearGradient8);fill-rule:evenodd;stroke-width:8.00001;stroke-linecap:square;stroke-linejoin:round;stroke-opacity:0.05;paint-order:fill markers stroke"
       d="m 46.771883,8.9941523 52.739952,6.6682657 c 3.653375,0.461922 6.144375,3.736448 5.532245,7.338532 l -13.402099,78.86538 c -1.487096,8.75089 -9.257677,14.38461 -17.199409,12.46187 L 30.44094,103.67518 C 23.397105,101.96983 19.412302,94.08333 21.401926,86.161863 L 39.468487,14.231899 c 0.831038,-3.308698 4.088394,-5.6442409 7.303396,-5.2377467 z"
       sodipodi:nodetypes="ccccccccc" />
    <path
       id="rect2"
       style="fill:url(#linearGradient6);fill-opacity:1;fill-rule:evenodd;stroke-width:8.00001;stroke-linecap:square;stroke-linejoin:round;stroke-opacity:0.05;paint-order:fill markers stroke"
       d="m 46.252437,13.406528 46.807707,6.259332 c 1.821525,0.243583 3.044104,1.898362 2.722783,3.70219 L 83.474299,92.465784 C 82.525259,97.79347 77.755012,101.24773 72.8789,100.13528 L 32.657567,90.95906 C 28.264129,89.956729 25.718568,85.123197 26.918481,80.202899 L 42.562318,16.054581 c 0.410427,-1.682979 2.059355,-2.866126 3.690119,-2.648053 z" />
    <path
       id="path11"
       style="fill:url(#linearGradient12);fill-opacity:1;fill-rule:evenodd;stroke-width:3;stroke-linecap:round;stroke-linejoin:round;stroke-opacity:0.198444;paint-order:markers fill stroke;stop-color:#000000"
       d="M 45.568359 8.9667969 C 42.779722 9.1867509 40.195908 11.337314 39.46875 14.232422 L 39.425781 14.400391 L 42.5625 16.054688 C 42.974216 14.366486 44.616138 13.187502 46.251953 13.40625 L 45.896484 8.9746094 C 45.787312 8.9772493 45.67701 8.958227 45.568359 8.9667969 z " />
    <path
       id="path51"
       style="fill:#000000;fill-opacity:0.30000001;fill-rule:evenodd;stroke-width:8.00001;stroke-linecap:square;stroke-linejoin:round;stroke-opacity:0.05;paint-order:fill markers stroke"
       d="m 81.532435,15.110334 9.693638,1.251974 c 0.451219,0.05828 0.751699,0.463852 0.670647,0.90625 l -5.004979,27.319039 c -0.60799,3.31864 -3.747455,5.583216 -6.98648,5.038333 -3.215584,-0.540941 -5.279217,-3.64444 -4.634729,-6.912696 l 5.307882,-26.916783 c 0.08598,-0.436067 0.512905,-0.743089 0.954021,-0.686117 z"
       sodipodi:nodetypes="cccccccc" />
    <path
       id="path40"
       style="fill:url(#linearGradient41);fill-rule:evenodd;stroke-width:8.00001;stroke-linecap:square;stroke-linejoin:round;stroke-opacity:0.05;paint-order:fill markers stroke"
       d="m 80.093043,14.117359 9.651153,1.237726 c 0.449227,0.05761 0.747632,0.461218 0.666017,0.90185 l -5.039434,27.207496 c -0.612117,3.304751 -3.742824,5.562595 -6.967067,5.023419 -3.200977,-0.535291 -5.249832,-3.62318 -4.601579,-6.877947 L 79.141555,14.80154 c 0.08651,-0.43435 0.512292,-0.740506 0.951488,-0.684181 z"
       sodipodi:nodetypes="cccccccc" />
    <path
       id="path52"
       style="fill:#000000;fill-opacity:0.30000001;fill-rule:evenodd;stroke-width:8.00001;stroke-linecap:square;stroke-linejoin:round;stroke-opacity:0.05;paint-order:fill markers stroke"
       d="m 65.83216,13.082576 9.353016,1.207982 c 0.435276,0.05622 0.717161,0.452846 0.629136,0.886254 l -5.432504,26.74793 c -0.65949,3.247124 -3.743875,5.469297 -6.864348,4.944355 -3.098305,-0.521212 -5.028193,-3.551864 -4.335114,-6.750697 l 5.711747,-26.361918 c 0.0926,-0.427326 0.512368,-0.728887 0.938067,-0.673906 z"
       sodipodi:nodetypes="cccccccc" />
    <path
       id="path42"
       style="fill:url(#linearGradient43);fill-rule:evenodd;stroke-width:8.00001;stroke-linecap:square;stroke-linejoin:round;stroke-opacity:0.05;paint-order:fill markers stroke"
       d="m 64.460358,12.112523 9.312933,1.19435 c 0.433399,0.05558 0.713356,0.450321 0.624828,0.882032 l -5.462853,26.640806 c -0.663111,3.233801 -3.739045,5.449493 -6.845606,4.929993 -3.084555,-0.515819 -5.000738,-3.531523 -4.304364,-6.717404 l 5.739447,-26.257739 c 0.09305,-0.425675 0.511729,-0.7264 0.935615,-0.672038 z"
       sodipodi:nodetypes="cccccccc" />
    <path
       id="path53"
       style="fill:#000000;fill-opacity:0.30000001;fill-rule:evenodd;stroke-width:8.00001;stroke-linecap:square;stroke-linejoin:round;stroke-opacity:0.05;paint-order:fill markers stroke"
       d="m 50.675956,11.125088 9.030036,1.166267 c 0.420162,0.05427 0.684563,0.442321 0.590097,0.867093 l -5.826652,26.199817 c -0.706888,3.178567 -3.738088,5.359895 -6.7464,4.853824 -2.987331,-0.502545 -4.791673,-3.463544 -4.053864,-6.595778 l 6.084147,-25.8291 c 0.09868,-0.418925 0.511555,-0.715215 0.922636,-0.662123 z"
       sodipodi:nodetypes="cccccccc" />
    <path
       id="path43"
       style="fill:url(#linearGradient44);fill-rule:evenodd;stroke-width:8.00001;stroke-linecap:square;stroke-linejoin:round;stroke-opacity:0.05;paint-order:fill markers stroke"
       d="m 49.367967,10.176977 8.992188,1.153217 c 0.41839,0.05366 0.680995,0.439897 0.586087,0.863036 l -5.853263,26.096861 c -0.710052,3.165774 -3.733089,5.340858 -6.728296,4.83998 -2.974375,-0.497393 -4.765996,-3.444057 -4.025322,-6.563853 l 6.108344,-25.72892 c 0.09906,-0.417337 0.510898,-0.712822 0.920262,-0.660321 z"
       sodipodi:nodetypes="cccccccc" />
    <path
       id="path10"
       style="fill:url(#linearGradient14);stroke:none;stroke-width:1px;stroke-linecap:butt;stroke-linejoin:miter;stroke-opacity:1;fill-opacity:0.23577236"
       d="M 83.474609 92.464844 C 82.52557 97.792524 77.755013 101.24721 72.878906 100.13477 L 74.443359 114.32812 C 82.385075 116.25086 90.155486 110.61806 91.642578 101.86719 L 83.474609 92.464844 z " />
    <path
       id="path15"
       style="fill:none;fill-rule:evenodd;stroke-width:0.9;stroke-linecap:square;stroke-linejoin:round;stroke-opacity:1;paint-order:fill markers stroke;stroke:#404040;stroke-dasharray:none"
       d="m 46.771883,8.9941523 52.739952,6.6682657 c 3.653375,0.461922 6.144375,3.736448 5.532245,7.338532 l -13.402099,78.86538 c -1.487096,8.75089 -9.257677,14.38461 -17.199409,12.46187 L 30.44094,103.67518 C 23.397105,101.96983 19.412302,94.08333 21.401926,86.161863 L 39.468487,14.231899 c 0.831038,-3.308698 4.088394,-5.6442409 7.303396,-5.2377467 z"
       sodipodi:nodetypes="ccccccccc" />
  </g>
</svg>
