<?xml version="1.0" encoding="UTF-8" standalone="no"?>
<!-- Created with Inkscape (http://www.inkscape.org/) -->

<svg
   width="128"
   height="128"
   viewBox="0 0 128 128.00001"
   version="1.1"
   id="svg1"
   inkscape:version="1.3 (0e150ed6c4, 2023-07-21)"
   sodipodi:docname="input-touchpad.svg"
   xmlns:inkscape="http://www.inkscape.org/namespaces/inkscape"
   xmlns:sodipodi="http://sodipodi.sourceforge.net/DTD/sodipodi-0.dtd"
   xmlns:xlink="http://www.w3.org/1999/xlink"
   xmlns="http://www.w3.org/2000/svg"
   xmlns:svg="http://www.w3.org/2000/svg">
  <sodipodi:namedview
     id="namedview1"
     pagecolor="#ffffff"
     bordercolor="#000000"
     borderopacity="0.25"
     inkscape:showpageshadow="2"
     inkscape:pageopacity="0.0"
     inkscape:pagecheckerboard="0"
     inkscape:deskcolor="#d1d1d1"
     inkscape:document-units="px"
     showgrid="false"
     inkscape:zoom="6.4453125"
     inkscape:cx="63.922424"
     inkscape:cy="64"
     inkscape:window-width="1920"
     inkscape:window-height="1093"
     inkscape:window-x="0"
     inkscape:window-y="0"
     inkscape:window-maximized="1"
     inkscape:current-layer="layer1">
    <inkscape:grid
       id="grid1"
       units="px"
       originx="0"
       originy="0"
       spacingx="1"
       spacingy="1.0000001"
       empcolor="#e52222"
       empopacity="0.2"
       color="#0099e5"
       opacity="0.14901961"
       empspacing="4"
       dotted="false"
       gridanglex="30"
       gridanglez="30"
       visible="false" />
  </sodipodi:namedview>
  <defs
     id="defs1">
    <linearGradient
       inkscape:collect="always"
       id="linearGradient4541">
      <stop
         style="stop-color:#ffeeca;stop-opacity:1"
         offset="0"
         id="stop4537" />
      <stop
         style="stop-color:#da9f33;stop-opacity:1"
         offset="1"
         id="stop4539" />
    </linearGradient>
    <linearGradient
       inkscape:collect="always"
       xlink:href="#linearGradient4541"
       id="linearGradient4623"
       x1="2.778125"
       y1="290.25311"
       x2="6.7468753"
       y2="294.22186"
       gradientUnits="userSpaceOnUse"
       gradientTransform="matrix(7.559055,0,0,7.5590527,-48,-2065.0386)" />
    <linearGradient
       inkscape:collect="always"
       xlink:href="#linearGradient4541"
       id="linearGradient4549"
       gradientUnits="userSpaceOnUse"
       x1="2.6458335"
       y1="290.12082"
       x2="6.8791666"
       y2="294.35416"
       gradientTransform="matrix(7.559055,0,0,7.5590527,-48,-2065.0386)" />
    <linearGradient
       gradientTransform="matrix(7.559055,0,0,7.5590527,128.00001,-2117.0386)"
       y2="294.35416"
       x2="6.8791666"
       y1="290.12082"
       x1="2.6458335"
       gradientUnits="userSpaceOnUse"
       id="linearGradient4549-3"
       xlink:href="#linearGradient4541"
       inkscape:collect="always" />
    <linearGradient
       gradientUnits="userSpaceOnUse"
       y2="434.97339"
       x2="396.75583"
       y1="546.32806"
       x1="475.93124"
       id="linearGradient909"
       xlink:href="#linearGradient923"
       inkscape:collect="always"
       gradientTransform="translate(-376.57144,-427.79797)" />
    <linearGradient
       inkscape:collect="always"
       id="linearGradient923">
      <stop
         style="stop-color:#b2b2b2;stop-opacity:1"
         id="stop919" />
      <stop
         offset="1"
         style="stop-color:#c7c7c7;stop-opacity:1"
         id="stop921" />
    </linearGradient>
    <linearGradient
       gradientUnits="userSpaceOnUse"
       y2="447.79797"
       x2="416.57144"
       y1="531.79797"
       x1="464.57144"
       id="linearGradient1109-6"
       xlink:href="#linearGradient1107"
       inkscape:collect="always"
       gradientTransform="translate(-376.57144,-427.79797)" />
    <linearGradient
       id="linearGradient1107"
       inkscape:collect="always">
      <stop
         id="stop1103"
         offset="0"
         style="stop-color:#010101;stop-opacity:1" />
      <stop
         id="stop1105-2"
         offset="1"
         style="stop-color:#262626;stop-opacity:1" />
    </linearGradient>
    <radialGradient
       inkscape:collect="always"
       xlink:href="#linearGradient924"
       id="radialGradient918-9"
       cx="416.57144"
       cy="458.46463"
       fx="416.57144"
       fy="458.46463"
       r="48"
       gradientTransform="matrix(0.33333332,-1.5953661e-7,8.7464832e-8,0.33333327,-98.85718,-116.82145)"
       gradientUnits="userSpaceOnUse" />
    <linearGradient
       id="linearGradient924"
       inkscape:collect="always">
      <stop
         id="stop920"
         offset="0"
         style="stop-color:#ffffff;stop-opacity:0.56985295" />
      <stop
         id="stop922"
         offset="1"
         style="stop-color:#000000;stop-opacity:0.56617647" />
    </linearGradient>
    <linearGradient
       inkscape:collect="always"
       xlink:href="#linearGradient9461"
       id="linearGradient9564"
       x1="-25"
       y1="18.999998"
       x2="-5"
       y2="42"
       gradientUnits="userSpaceOnUse" />
    <linearGradient
       id="linearGradient9461"
       inkscape:collect="always">
      <stop
         id="stop9457"
         offset="0"
         style="stop-color:#ffeebd;stop-opacity:1" />
      <stop
         id="stop9459"
         offset="1"
         style="stop-color:#a07100;stop-opacity:1" />
    </linearGradient>
  </defs>
  <g
     inkscape:label="Layer 1"
     inkscape:groupmode="layer"
     id="layer1">
    <g
       id="g8"
       transform="matrix(3.7795276,0,0,3.7795276,-138,-0.9999989)">
      <path
         style="fill:#ff5dff;fill-opacity:1;stroke:none;stroke-width:0.264583px;stroke-linecap:butt;stroke-linejoin:miter;stroke-opacity:1"
         d="M 8.2020832,1.8520834 1.8520833,25.929167 26.9875,32.014584 31.220833,4.7625001 Z"
         id="path8"
         sodipodi:nodetypes="ccccc" />
      <rect
         style="opacity:0.346774;fill:#365dff;fill-opacity:1;fill-rule:evenodd;stroke:none;stroke-width:0.105833;stroke-linecap:round;stroke-linejoin:round;paint-order:fill markers stroke"
         id="rect8"
         width="33.866665"
         height="33.866665"
         x="0"
         y="0"
         ry="0" />
    </g>
    <circle
       r="0"
       cy="143.99985"
       cx="-12"
       id="ellipse4551"
       style="fill:#ffeeca;fill-opacity:1;stroke:none;stroke-width:1.4;stroke-linecap:round;paint-order:markers stroke fill" />
    <circle
       r="0"
       cy="143.99985"
       cx="-12"
       id="ellipse4553"
       style="fill:url(#linearGradient4549);fill-opacity:1;stroke:#000000;stroke-width:1.4;stroke-linecap:round;paint-order:markers stroke fill" />
    <path
       cx="4.7624998"
       cy="292.23749"
       r="2.1166666"
       style="fill:url(#linearGradient4623);fill-opacity:1;stroke:none;stroke-width:1.4;stroke-linecap:round;paint-order:markers stroke fill"
       id="path4625"
       d=""
       inkscape:connector-curvature="0" />
    <circle
       style="fill:#ffeeca;fill-opacity:1;stroke:none;stroke-width:1.4;stroke-linecap:round;paint-order:markers stroke fill"
       id="ellipse4551-2"
       cx="164"
       cy="91.99984"
       r="0" />
    <circle
       style="fill:url(#linearGradient4549-3);fill-opacity:1;stroke:#000000;stroke-width:1.4;stroke-linecap:round;paint-order:markers stroke fill"
       id="ellipse4553-6"
       cx="164"
       cy="91.99984"
       r="0" />
    <path
       sodipodi:nodetypes="cccc"
       inkscape:connector-curvature="0"
       id="path122"
       d="M 102,121.00001 125.49535,85.757023 102,77.925243 Z"
       style="fill:#000000;fill-opacity:0.196078;stroke:none;stroke-width:2.74112;stroke-miterlimit:4;stroke-dasharray:none;stroke-opacity:1;paint-order:markers stroke fill" />
    <g
       id="g59">
      <path
         sodipodi:nodetypes="ccccc"
         d="M 31.000003,7.000003 118,18.000003 102,121.00001 7.0000026,98.000005 Z"
         style="fill:url(#linearGradient909);fill-opacity:1;stroke-width:4;stroke-linejoin:round"
         id="rect4189" />
      <path
         d="M 36.198165,15.346349 108.1482,25.100397 94.298406,108.63407 16.969952,90.814456 Z"
         style="fill:url(#linearGradient1109-6);fill-opacity:1;fill-rule:evenodd;stroke-linecap:round;paint-order:markers fill stroke;stop-color:#000000"
         id="rect1085"
         sodipodi:nodetypes="ccccc" />
      <path
         style="fill:#6e6e6e;fill-opacity:1;stroke:none;stroke-width:1px;stroke-linecap:butt;stroke-linejoin:miter;stroke-opacity:1"
         d="M 14.976897,92.250892 35.143906,13.653595 110.11948,23.679656 108.1482,25.100397 36.198165,15.346349 16.969952,90.814456 Z"
         id="path904"
         sodipodi:nodetypes="ccccccc" />
      <path
         style="fill:#e5e5e5;fill-opacity:1;stroke:none;stroke-width:1px;stroke-linecap:butt;stroke-linejoin:miter;stroke-opacity:1"
         d="M 110.11948,23.679656 95.812653,111.0654 14.976897,92.250892 16.969952,90.814456 94.298406,108.63407 108.1482,25.100397 Z"
         id="path906"
         sodipodi:nodetypes="ccccccc" />
      <path
         d="M 36.198165,15.346349 108.1482,25.100397 94.298406,108.63407 16.969952,90.814456 Z"
         style="fill:url(#radialGradient918-9);fill-opacity:1;fill-rule:evenodd;stroke-linecap:round;paint-order:markers fill stroke;stop-color:#000000"
         id="path916"
         sodipodi:nodetypes="ccccc" />
    </g>
    <path
       style="fill:none;fill-opacity:0.355932;stroke:#3f3f3f;stroke-width:0.9;stroke-linecap:round;stroke-opacity:1;stroke-dasharray:none;stroke-linejoin:round"
       d="M 31.000003,7.000003 118,18.000003 102,121.00001 7.0000026,98.000005 Z"
       id="path59" />
    <g
       id="g1086"
       transform="matrix(1.215,0,0,1.215,-489.1743,-530.09453)">
      <g
         id="g1096"
         transform="translate(5.3333337)">
        <g
           id="g9733"
           transform="matrix(7.5590548,0,0,7.5590548,396.55709,455.8048)">
          <g
             transform="translate(7.4083335,4.7625001)"
             id="g9574">
            <path
               style="fill:none;fill-opacity:1;stroke:#000000;stroke-width:0.74074075;stroke-linecap:square;stroke-linejoin:round;stroke-miterlimit:4;stroke-dasharray:none;stroke-opacity:1;paint-order:markers stroke fill"
               d="m -19,19.999999 c -2,0 -4.000001,2.999998 -7,3.999999 v 12 c 0,2 4,4.000001 6,4.000001 h 7 c 1.104569,0 2,-0.895431 2,-2 0,-1.104569 -0.895431,-2 -2,-2 h 2 c 1.1045695,0 1.9999999,-0.895431 2,-2 -10e-8,-1.104569 -0.8954305,-2 -2,-2 h 2 c 1.1045695,0 1.9999999,-0.895431 2,-2 -1e-7,-1.104569 -0.8954305,-2 -2,-2 h 6 c 1.1045695,0 1.9999999,-0.895431 2,-2 -1e-7,-1.104569 -0.8954305,-2 -2,-2 h -10 c 1.104569,0 2,-0.895431 2,-2 0,-1.104569 -0.895431,-2 -2,-2 z"
               transform="matrix(0.26458334,0,0,0.26458334,0,-8.4666667)"
               id="path60"
               inkscape:connector-curvature="0"
               sodipodi:nodetypes="sccssscsscsscssscsss" />
            <path
               style="fill:url(#linearGradient9564);fill-opacity:1;stroke:none;stroke-width:1;stroke-linecap:square;stroke-linejoin:round;stroke-miterlimit:4;stroke-dasharray:none;stroke-opacity:1;paint-order:markers stroke fill"
               d="m -19,19.999999 c -2,0 -4.000001,2.999998 -7,3.999999 v 12 c 0,2 4,4.000001 6,4.000001 h 7 c 1.104569,0 2,-0.895431 2,-2 0,-1.104569 -0.895431,-2 -2,-2 h 2 c 1.1045695,0 1.9999999,-0.895431 2,-2 -10e-8,-1.104569 -0.8954305,-2 -2,-2 h 2 c 1.1045695,0 1.9999999,-0.895431 2,-2 -1e-7,-1.104569 -0.8954305,-2 -2,-2 h 6 c 1.1045695,0 1.9999999,-0.895431 2,-2 -1e-7,-1.104569 -0.8954305,-2 -2,-2 h -10 c 1.104569,0 2,-0.895431 2,-2 0,-1.104569 -0.895431,-2 -2,-2 z"
               transform="matrix(0.26458334,0,0,0.26458334,0,-8.4666667)"
               id="path9481"
               inkscape:connector-curvature="0"
               sodipodi:nodetypes="sccssscsscsscssscsss" />
            <path
               id="path1064"
               style="fill:#000000;fill-opacity:0.3;stroke:none;stroke-width:2;stroke-linecap:square;stroke-linejoin:round;stroke-miterlimit:4;stroke-dasharray:none;stroke-opacity:1;paint-order:markers stroke fill"
               d="m 6,40.001953 c -0.00473,0.0016 -0.00894,0.0043 -0.013672,0.0059 v 24 c 0,4 8,8 12,8 h 14 c 2.209138,0 4,-1.790862 4,-4 0,-0.149483 -0.02895,-0.290319 -0.04492,-0.435546 C 35.661765,69.508033 34.013217,71 32,71 H 18 C 14,71 6,67 6,63 Z"
               transform="matrix(0.13229167,0,0,0.13229167,-7.6710185,-7.4094951)"
               sodipodi:nodetypes="ccsssscsssc" />
          </g>
        </g>
        <path
           id="path992"
           style="fill:#000000;fill-opacity:0.3;fill-rule:evenodd;stroke:none;stroke-width:3;stroke-linecap:round;stroke-linejoin:round;paint-order:markers fill stroke;stop-color:#000000"
           d="m 438.52847,487.21985 c -0.21312,2.01126 -1.89571,3.58431 -3.96484,3.58398 l -14.99219,-0.008 c -0.55228,0 -1,0.22386 -1,0.5 0,0.27614 0.44772,0.5 1,0.5 0.0189,2.7e-4 0.0378,2.7e-4 0.0566,0 l 14.93555,0.008 c 2.21316,3.5e-4 4.00754,-1.79228 4.00781,-4.00391 -2.3e-4,-0.19414 -0.0146,-0.38801 -0.043,-0.58007 z"
           sodipodi:nodetypes="cccsccccc" />
        <path
           id="path1014"
           style="fill:#000000;fill-opacity:0.3;fill-rule:evenodd;stroke:none;stroke-width:3;stroke-linecap:round;stroke-linejoin:round;paint-order:markers fill stroke;stop-color:#000000"
           d="m 450.53628,479.21203 c -0.21312,2.01127 -1.89571,3.58432 -3.96484,3.58399 l -26,-0.008 c -0.55228,0 -1,0.22386 -1,0.5 0,0.27614 0.44772,0.5 1,0.5 0.0189,2.6e-4 0.0378,2.6e-4 0.0566,0 l 25.94336,0.008 c 2.21316,3.5e-4 4.00755,-1.79229 4.00781,-4.00391 -2.3e-4,-0.19414 -0.0146,-0.38801 -0.043,-0.58008 z"
           sodipodi:nodetypes="cccsccccc" />
        <path
           id="path1027"
           style="fill:#000000;fill-opacity:0.3;fill-rule:evenodd;stroke:none;stroke-width:3;stroke-linecap:round;stroke-linejoin:round;paint-order:markers fill stroke;stop-color:#000000"
           d="m 434.53628,495.21203 c -0.21312,2.01127 -1.89571,3.58432 -3.96484,3.58399 l -11,-0.008 c -0.55228,0 -1,0.22386 -1,0.5 0,0.27614 0.44772,0.5 1,0.5 0.0189,2.6e-4 0.0378,2.6e-4 0.0566,0 l 10.94336,0.008 c 2.21316,3.5e-4 4.00755,-1.79229 4.00781,-4.00391 -2.3e-4,-0.19414 -0.0146,-0.38801 -0.043,-0.58008 z"
           sodipodi:nodetypes="cccsccccc" />
        <path
           id="path1051"
           style="fill:#000000;fill-opacity:0.3;fill-rule:evenodd;stroke:none;stroke-width:3;stroke-linecap:round;stroke-linejoin:round;paint-order:markers fill stroke;stop-color:#000000"
           d="m 430.52193,471.22081 c -0.21312,2.01127 -1.89571,3.58432 -3.96484,3.58399 l -10.98565,-0.008 c -0.55228,0 -1,0.22385 -1,0.5 0,0.27614 0.44772,0.5 1,0.5 0.0189,2.6e-4 0.0378,2.6e-4 0.0566,0 l 10.92901,0.008 c 2.21316,3.5e-4 4.00755,-1.79229 4.00781,-4.00391 -2.3e-4,-0.19414 -0.0146,-0.38801 -0.043,-0.58008 z"
           sodipodi:nodetypes="cccsccccc" />
      </g>
    </g>
  </g>
</svg>
