<?xml version="1.0" encoding="UTF-8" standalone="no"?>
<!-- Created with Inkscape (http://www.inkscape.org/) -->

<svg
   width="128"
   height="128"
   viewBox="0 0 128 128.00001"
   version="1.1"
   id="svg1"
   inkscape:version="1.3 (0e150ed6c4, 2023-07-21)"
   sodipodi:docname="input-gaming.svg"
   xmlns:inkscape="http://www.inkscape.org/namespaces/inkscape"
   xmlns:sodipodi="http://sodipodi.sourceforge.net/DTD/sodipodi-0.dtd"
   xmlns:xlink="http://www.w3.org/1999/xlink"
   xmlns="http://www.w3.org/2000/svg"
   xmlns:svg="http://www.w3.org/2000/svg">
  <sodipodi:namedview
     id="namedview1"
     pagecolor="#ffffff"
     bordercolor="#000000"
     borderopacity="0.25"
     inkscape:showpageshadow="2"
     inkscape:pageopacity="0.0"
     inkscape:pagecheckerboard="0"
     inkscape:deskcolor="#d1d1d1"
     inkscape:document-units="px"
     showgrid="false"
     inkscape:zoom="6.4453125"
     inkscape:cx="63.922424"
     inkscape:cy="64"
     inkscape:window-width="1920"
     inkscape:window-height="1093"
     inkscape:window-x="0"
     inkscape:window-y="0"
     inkscape:window-maximized="1"
     inkscape:current-layer="layer1">
    <inkscape:grid
       id="grid1"
       units="px"
       originx="0"
       originy="0"
       spacingx="1"
       spacingy="1.0000001"
       empcolor="#e52222"
       empopacity="0.2"
       color="#0099e5"
       opacity="0.14901961"
       empspacing="4"
       dotted="false"
       gridanglex="30"
       gridanglez="30"
       visible="false" />
  </sodipodi:namedview>
  <defs
     id="defs1">
    <linearGradient
       inkscape:collect="always"
       id="linearGradient4541">
      <stop
         style="stop-color:#ffeeca;stop-opacity:1"
         offset="0"
         id="stop4537" />
      <stop
         style="stop-color:#da9f33;stop-opacity:1"
         offset="1"
         id="stop4539" />
    </linearGradient>
    <linearGradient
       inkscape:collect="always"
       xlink:href="#linearGradient4541"
       id="linearGradient4623"
       x1="2.778125"
       y1="290.25311"
       x2="6.7468753"
       y2="294.22186"
       gradientUnits="userSpaceOnUse"
       gradientTransform="matrix(7.559055,0,0,7.5590527,-48,-2065.0386)" />
    <linearGradient
       inkscape:collect="always"
       xlink:href="#linearGradient4541"
       id="linearGradient4549"
       gradientUnits="userSpaceOnUse"
       x1="2.6458335"
       y1="290.12082"
       x2="6.8791666"
       y2="294.35416"
       gradientTransform="matrix(7.559055,0,0,7.5590527,-48,-2065.0386)" />
    <linearGradient
       gradientTransform="matrix(7.559055,0,0,7.5590527,128.00001,-2117.0386)"
       y2="294.35416"
       x2="6.8791666"
       y1="290.12082"
       x1="2.6458335"
       gradientUnits="userSpaceOnUse"
       id="linearGradient4549-3"
       xlink:href="#linearGradient4541"
       inkscape:collect="always" />
    <linearGradient
       gradientTransform="matrix(4.0001737,0,0,4.0000859,-0.00276391,-1.6771171e-4)"
       inkscape:collect="always"
       xlink:href="#linearGradient4525"
       id="linearGradient4645"
       x1="12.951927"
       y1="10.967292"
       x2="31.999302"
       y2="31.999355"
       gradientUnits="userSpaceOnUse" />
    <linearGradient
       inkscape:collect="always"
       id="linearGradient4525">
      <stop
         style="stop-color:#d5d5d5;stop-opacity:1"
         offset="0"
         id="stop4521" />
      <stop
         style="stop-color:#6d6d6d;stop-opacity:1"
         offset="1"
         id="stop4523" />
    </linearGradient>
    <linearGradient
       gradientTransform="matrix(10.690582,-10.690348,10.690582,10.690348,-0.00276391,-4362.1723)"
       gradientUnits="userSpaceOnUse"
       y2="209.33749"
       x2="-202.90547"
       y1="208.2077"
       x1="-204.26118"
       id="linearGradient1207"
       xlink:href="#linearGradient1205"
       inkscape:collect="always" />
    <linearGradient
       id="linearGradient1205"
       inkscape:collect="always">
      <stop
         id="stop1201"
         offset="0"
         style="stop-color:#00c5fe;stop-opacity:1" />
      <stop
         id="stop1203"
         offset="1"
         style="stop-color:#0065e8;stop-opacity:1" />
    </linearGradient>
    <linearGradient
       gradientTransform="matrix(15.118767,0,0,15.118435,-0.31306695,-4361.7067)"
       gradientUnits="userSpaceOnUse"
       y2="293.37665"
       x2="3.5545824"
       y1="292.67438"
       x1="2.903259"
       id="linearGradient1156"
       xlink:href="#linearGradient4411"
       inkscape:collect="always" />
    <linearGradient
       inkscape:collect="always"
       id="linearGradient4411">
      <stop
         style="stop-color:#ffc3c3;stop-opacity:1"
         offset="0"
         id="stop4407" />
      <stop
         style="stop-color:#ff0b0b;stop-opacity:1"
         offset="1"
         id="stop4409" />
    </linearGradient>
    <linearGradient
       gradientTransform="matrix(15.118767,0,0,15.118435,-0.31306695,-4361.7067)"
       gradientUnits="userSpaceOnUse"
       y2="294.33124"
       x2="2.2349687"
       y1="293.61514"
       x1="1.5931538"
       id="linearGradient1172"
       xlink:href="#linearGradient4411"
       inkscape:collect="always" />
    <linearGradient
       gradientTransform="matrix(15.118767,0,0,15.118435,-0.31306694,-4361.7067)"
       gradientUnits="userSpaceOnUse"
       y2="293.16702"
       x2="2.5100389"
       y1="292.48029"
       x1="1.8786037"
       id="linearGradient1164"
       xlink:href="#linearGradient4411"
       inkscape:collect="always" />
    <linearGradient
       gradientTransform="matrix(15.118767,0,0,15.118435,-0.31306695,-4361.7067)"
       gradientUnits="userSpaceOnUse"
       y2="294.56747"
       x2="3.2954099"
       y1="293.90399"
       x1="2.672755"
       id="linearGradient1180"
       xlink:href="#linearGradient4411"
       inkscape:collect="always" />
    <linearGradient
       gradientTransform="matrix(10.690582,-10.690348,10.690582,10.690348,-2.9145631,-4359.2607)"
       gradientUnits="userSpaceOnUse"
       y2="210.73801"
       x2="-201.62013"
       y1="208.76009"
       x1="-201.50066"
       id="linearGradient1148"
       xlink:href="#linearGradient1256"
       inkscape:collect="always" />
    <linearGradient
       id="linearGradient1256"
       inkscape:collect="always">
      <stop
         id="stop1252"
         offset="0"
         style="stop-color:#b2b2b2;stop-opacity:1" />
      <stop
         id="stop1254"
         offset="1"
         style="stop-color:#232323;stop-opacity:1" />
    </linearGradient>
    <linearGradient
       gradientTransform="matrix(10.690582,-10.690348,10.690582,10.690348,-2.9145631,-4359.2607)"
       gradientUnits="userSpaceOnUse"
       y2="210.74341"
       x2="-201.27679"
       y1="208.7565"
       x1="-201.88051"
       id="linearGradient1134"
       xlink:href="#linearGradient1256"
       inkscape:collect="always" />
  </defs>
  <g
     inkscape:label="Layer 1"
     inkscape:groupmode="layer"
     id="layer1">
    <path
       id="path42"
       d="M 102.90855,38.87164 C 96.430787,37.718769 89.339394,38.547327 83.069337,41.61149 l -48.31319,23.610836 c -12.62101,6.167912 -18.659719,19.875568 -13.24753,31.080784 5.679122,11.75802 21.653707,16.2348 35.407085,9.47418 10.63407,-5.22734 16.224752,-15.421736 14.975086,-24.962029 l 6.094506,-2.989854 c 8.361551,6.04386 20.977806,7.282999 31.562206,2.080234 13.65209,-6.710858 17.88346,-21.051454 9.83555,-31.567644 -3.8811,-5.07149 -9.90041,-8.296225 -16.47451,-9.466234 z"
       style="fill:#000000;fill-opacity:0.2;stroke:none;stroke-width:0.36283;stroke-linecap:square;stroke-linejoin:round;stroke-miterlimit:4;stroke-dasharray:none"
       inkscape:transform-center-x="-54.156723"
       inkscape:transform-center-y="-33.476245" />
    <g
       id="g8"
       transform="matrix(3.7795276,0,0,3.7795276,-134.20606,2.6708092e-6)">
      <path
         style="fill:#ff5dff;fill-opacity:1;stroke:none;stroke-width:0.264583px;stroke-linecap:butt;stroke-linejoin:miter;stroke-opacity:1"
         d="M 8.2020832,1.8520834 1.8520833,25.929167 26.9875,32.014584 31.220833,4.7625001 Z"
         id="path8"
         sodipodi:nodetypes="ccccc" />
      <rect
         style="opacity:0.346774;fill:#365dff;fill-opacity:1;fill-rule:evenodd;stroke:none;stroke-width:0.105833;stroke-linecap:round;stroke-linejoin:round;paint-order:fill markers stroke"
         id="rect8"
         width="33.866665"
         height="33.866665"
         x="0"
         y="0"
         ry="0" />
    </g>
    <circle
       r="0"
       cy="143.99985"
       cx="-12"
       id="ellipse4551"
       style="fill:#ffeeca;fill-opacity:1;stroke:none;stroke-width:1.4;stroke-linecap:round;paint-order:markers stroke fill" />
    <circle
       r="0"
       cy="143.99985"
       cx="-12"
       id="ellipse4553"
       style="fill:url(#linearGradient4549);fill-opacity:1;stroke:#000000;stroke-width:1.4;stroke-linecap:round;paint-order:markers stroke fill" />
    <path
       cx="4.7624998"
       cy="292.23749"
       r="2.1166666"
       style="fill:url(#linearGradient4623);fill-opacity:1;stroke:none;stroke-width:1.4;stroke-linecap:round;paint-order:markers stroke fill"
       id="path4625"
       d=""
       inkscape:connector-curvature="0" />
    <circle
       style="fill:#ffeeca;fill-opacity:1;stroke:none;stroke-width:1.4;stroke-linecap:round;paint-order:markers stroke fill"
       id="ellipse4551-2"
       cx="164"
       cy="91.99984"
       r="0" />
    <circle
       style="fill:url(#linearGradient4549-3);fill-opacity:1;stroke:#000000;stroke-width:1.4;stroke-linecap:round;paint-order:markers stroke fill"
       id="ellipse4553-6"
       cx="164"
       cy="91.99984"
       r="0" />
    <path
       id="path4556"
       d="m 91.351357,14.630635 c -6.57524,-0.831357 -13.551876,0.789942 -19.473475,5.046599 L 26.249729,52.476744 C 14.330138,61.045038 9.7665152,78.169005 16.345122,91.264927 23.248208,105.00694 39.636247,109.03528 52.62111,99.650633 62.660962,92.394388 67.150436,79.563429 64.894884,68.12066 l 5.754587,-4.151381 c 8.969983,6.589338 21.669497,6.990148 31.662469,-0.232014 12.88923,-9.315574 15.58534,-27.048406 6.45404,-39.080316 -4.40358,-5.802457 -10.741587,-9.18245 -17.414623,-10.026163 z"
       style="fill:url(#linearGradient4645);fill-opacity:1;stroke:none;stroke-width:0.400012;stroke-linecap:square;stroke-linejoin:round;stroke-miterlimit:4;stroke-dasharray:none" />
    <path
       id="rect4516"
       style="fill:url(#linearGradient1207);fill-opacity:1;stroke:none;stroke-width:0.346422;stroke-linecap:square;stroke-linejoin:round;stroke-miterlimit:4;stroke-dasharray:none"
       d="M 42.187801,47.26339 61.359644,33.47479 68.75921,44.848295 49.1588,58.964397 Z" />
    <path
       id="path1228"
       style="fill:#000000;fill-opacity:0.2;fill-rule:evenodd;stroke-width:4.00012"
       d="m 54.221256,69.836654 c -0.639063,2.923561 -3.334522,4.867488 -6.001544,4.327357 -2.650468,-0.536768 -4.246136,-3.321876 -3.58285,-6.206591 0.658984,-2.865973 3.307434,-4.773927 5.933877,-4.275626 2.642655,0.501399 4.28537,3.250533 3.650517,6.15486" />
    <path
       d="m 53.290741,69.281175 c -0.639882,2.914529 -3.330252,4.854526 -5.99024,4.318665 -2.643509,-0.532535 -4.233038,-3.307101 -3.569068,-6.183012 0.659675,-2.857244 3.303206,-4.761456 5.922831,-4.267124 2.63576,0.497318 4.272158,3.236024 3.636477,6.131471"
       style="fill:url(#linearGradient1156);fill-opacity:1;fill-rule:evenodd;stroke-width:4.00012"
       id="path4586" />
    <path
       id="path1230"
       style="fill:#000000;fill-opacity:0.2;fill-rule:evenodd;stroke-width:4.00012"
       d="m 34.199507,84.273495 c -0.706268,2.975027 -3.408151,4.923639 -6.015742,4.33771 -2.59139,-0.582301 -4.085688,-3.445175 -3.356483,-6.380186 0.72444,-2.915814 3.379013,-4.828113 5.947696,-4.28545 2.584552,0.545988 4.126118,3.372586 3.424529,6.327926" />
    <path
       d="m 33.306727,83.68907 c -0.706838,2.965807 -3.403605,4.91049 -6.004388,4.328982 -2.584655,-0.57788 -4.073193,-3.429872 -3.343548,-6.355889 0.724886,-2.906934 3.374521,-4.815454 5.936596,-4.276948 2.577874,0.541793 4.113503,3.357622 3.41134,6.303855"
       style="fill:url(#linearGradient1172);fill-opacity:1;fill-rule:evenodd;stroke-width:4.00012"
       id="path4588" />
    <path
       id="path1232"
       style="fill:#000000;fill-opacity:0.2;fill-rule:evenodd;stroke-width:4.00012"
       d="m 38.365055,66.727672 c -0.678875,2.85936 -3.326955,4.766822 -5.896374,4.246492 -2.553768,-0.517194 -4.040924,-3.235306 -3.339823,-6.057446 0.696632,-2.804153 3.299326,-4.676964 5.83105,-4.19665 2.54706,0.483223 4.079635,3.166721 3.405147,6.007604" />
    <path
       d="m 37.475818,66.196829 c -0.679474,2.850707 -3.322639,4.754428 -5.885465,4.238104 -2.547243,-0.513151 -4.028781,-3.221098 -3.327204,-6.034849 0.697112,-2.795802 3.295059,-4.664985 5.82038,-4.188488 2.540591,0.479406 4.067382,3.152853 3.392289,5.985233"
       style="fill:url(#linearGradient1164);fill-opacity:1;fill-rule:evenodd;stroke-width:4.00012"
       id="path4590" />
    <path
       id="path1234"
       style="fill:#000000;fill-opacity:0.2;fill-rule:evenodd;stroke-width:4.00012"
       d="m 50.298791,87.782002 c -0.665345,3.044102 -3.41657,5.030766 -6.125252,4.422127 -2.69153,-0.604785 -4.29791,-3.540891 -3.60752,-6.543162 0.685795,-2.982282 3.387987,-4.931197 6.054722,-4.367827 2.683529,0.566884 4.3389,3.465279 3.67805,6.488862" />
    <path
       d="m 49.363351,87.170635 c -0.666147,3.034467 -3.412068,5.01705 -6.113481,4.413058 -2.684337,-0.600174 -4.284407,-3.524906 -3.593356,-6.517807 0.686456,-2.972986 3.383529,-4.918009 6.043218,-4.358984 2.6764,0.562501 4.325277,3.449672 3.663619,6.463733"
       style="fill:url(#linearGradient1180);fill-opacity:1;fill-rule:evenodd;stroke-width:4.00012"
       id="path4592" />
    <path
       id="path1209"
       d="M 49.167255,58.952797 48.574544,57.95767 68.130197,43.872213 68.759331,44.839452 Z"
       style="fill:#0000ff;fill-opacity:1;stroke:none;stroke-width:0.999683px;stroke-linecap:butt;stroke-linejoin:miter;stroke-opacity:1" />
    <path
       id="path1244"
       style="fill:#000000;fill-opacity:0.2;stroke:none;stroke-width:0.400012;stroke-linecap:square;stroke-linejoin:round;stroke-miterlimit:4;stroke-dasharray:none"
       d="m 76.283236,32.362107 7.745516,-5.575054 16.404508,23.254455 -8.103385,5.849389 z" />
    <path
       id="path1246"
       style="fill:#000000;fill-opacity:0.2;stroke:none;stroke-width:0.400012;stroke-linecap:square;stroke-linejoin:round;stroke-miterlimit:4;stroke-dasharray:none"
       d="M 73.599904,45.637746 97.183528,28.646979 102.7681,36.303542 78.826761,53.568531 Z" />
    <path
       d="m 74.693004,32.134288 7.73238,-5.564965 16.298239,23.200608 -8.08901,5.838279 z"
       style="fill:url(#linearGradient1148);fill-opacity:1;stroke:none;stroke-width:0.400012;stroke-linecap:square;stroke-linejoin:round;stroke-miterlimit:4;stroke-dasharray:none"
       id="rect4518" />
    <path
       d="M 71.99014,45.379016 95.533075,28.4195 l 5.548745,7.638917 -23.899406,17.23268 z"
       style="fill:url(#linearGradient1134);fill-opacity:1;stroke:none;stroke-width:0.400012;stroke-linecap:square;stroke-linejoin:round;stroke-miterlimit:4;stroke-dasharray:none"
       id="rect4520" />
    <path
       id="path41"
       d="m 91.351357,14.630635 c -6.57524,-0.831357 -13.551876,0.789942 -19.473475,5.046599 L 26.249729,52.476744 C 14.330138,61.045038 9.7665152,78.169005 16.345122,91.264927 23.248208,105.00694 39.636247,109.03528 52.62111,99.650633 62.660962,92.394388 67.150436,79.563429 64.894884,68.12066 l 5.754587,-4.151381 c 8.969983,6.589338 21.669497,6.990148 31.662469,-0.232014 12.88923,-9.315574 15.58534,-27.048406 6.45404,-39.080316 -4.40358,-5.802457 -10.741587,-9.18245 -17.414623,-10.026163 z"
       style="fill:none;fill-opacity:1;stroke:#404040;stroke-width:0.9;stroke-linecap:square;stroke-linejoin:round;stroke-miterlimit:4;stroke-dasharray:none;stroke-opacity:1" />
    <path
       id="path43"
       style="fill:#000000;fill-opacity:0.2;stroke:none;stroke-width:0.400012;stroke-linecap:square;stroke-linejoin:round;stroke-miterlimit:4;stroke-dasharray:none"
       d="m 105.3516,20.981841 c 0.48602,0.539734 0.96635,1.085847 1.41406,1.675781 9.1313,12.031898 6.4361,29.764513 -6.45312,39.080078 -9.992959,7.222155 -22.692132,6.821753 -31.662106,0.232422 l -5.75586,4.152344 C 65.150124,77.565223 60.660979,90.395528 50.621137,97.651763 40.496541,104.96919 28.303492,104.13027 20.150434,96.891997 28.201789,105.926 41.629679,107.5957 52.621137,99.651762 62.660979,92.395528 67.150124,79.565223 64.894574,68.122466 l 5.75586,-4.152344 c 8.969974,6.589331 21.669147,6.989733 31.662106,-0.232422 12.88922,-9.315565 15.58442,-27.04818 6.45312,-39.080078 -1.03529,-1.364169 -2.18571,-2.580885 -3.41406,-3.675781 z" />
  </g>
</svg>
