<?xml version="1.0" encoding="UTF-8" standalone="no"?>
<!-- Created with Inkscape (http://www.inkscape.org/) -->

<svg
   width="128"
   height="128"
   viewBox="0 0 128 128.00001"
   version="1.1"
   id="svg1"
   inkscape:version="1.3 (0e150ed6c4, 2023-07-21)"
   sodipodi:docname="media-flash-memory-stick.svg"
   xmlns:inkscape="http://www.inkscape.org/namespaces/inkscape"
   xmlns:sodipodi="http://sodipodi.sourceforge.net/DTD/sodipodi-0.dtd"
   xmlns:xlink="http://www.w3.org/1999/xlink"
   xmlns="http://www.w3.org/2000/svg"
   xmlns:svg="http://www.w3.org/2000/svg">
  <sodipodi:namedview
     id="namedview1"
     pagecolor="#ffffff"
     bordercolor="#000000"
     borderopacity="0.25"
     inkscape:showpageshadow="2"
     inkscape:pageopacity="0.0"
     inkscape:pagecheckerboard="0"
     inkscape:deskcolor="#d1d1d1"
     inkscape:document-units="px"
     showgrid="false"
     inkscape:zoom="6.4453125"
     inkscape:cx="63.922424"
     inkscape:cy="64"
     inkscape:window-width="1920"
     inkscape:window-height="1093"
     inkscape:window-x="0"
     inkscape:window-y="0"
     inkscape:window-maximized="1"
     inkscape:current-layer="layer1">
    <inkscape:grid
       id="grid1"
       units="px"
       originx="0"
       originy="0"
       spacingx="1"
       spacingy="1.0000001"
       empcolor="#e52222"
       empopacity="0.2"
       color="#0099e5"
       opacity="0.14901961"
       empspacing="4"
       dotted="false"
       gridanglex="30"
       gridanglez="30"
       visible="false" />
  </sodipodi:namedview>
  <defs
     id="defs1">
    <linearGradient
       inkscape:collect="always"
       id="linearGradient4541">
      <stop
         style="stop-color:#ffeeca;stop-opacity:1"
         offset="0"
         id="stop4537" />
      <stop
         style="stop-color:#da9f33;stop-opacity:1"
         offset="1"
         id="stop4539" />
    </linearGradient>
    <linearGradient
       inkscape:collect="always"
       xlink:href="#linearGradient4541"
       id="linearGradient4623"
       x1="2.778125"
       y1="290.25311"
       x2="6.7468753"
       y2="294.22186"
       gradientUnits="userSpaceOnUse"
       gradientTransform="matrix(7.559055,0,0,7.5590527,-48,-2065.0386)" />
    <linearGradient
       inkscape:collect="always"
       xlink:href="#linearGradient4541"
       id="linearGradient4549"
       gradientUnits="userSpaceOnUse"
       x1="2.6458335"
       y1="290.12082"
       x2="6.8791666"
       y2="294.35416"
       gradientTransform="matrix(7.559055,0,0,7.5590527,-48,-2065.0386)" />
    <linearGradient
       gradientTransform="matrix(7.559055,0,0,7.5590527,128.00001,-2117.0386)"
       y2="294.35416"
       x2="6.8791666"
       y1="290.12082"
       x1="2.6458335"
       gradientUnits="userSpaceOnUse"
       id="linearGradient4549-3"
       xlink:href="#linearGradient4541"
       inkscape:collect="always" />
    <linearGradient
       gradientUnits="userSpaceOnUse"
       y2="291.17917"
       x2="31.750002"
       y1="267.89581"
       x1="2.116667"
       id="linearGradient844-2"
       xlink:href="#linearGradient890-3"
       inkscape:collect="always"
       gradientTransform="matrix(0,-3.7795276,-3.7795276,0,1120.5197,128.00001)" />
    <linearGradient
       inkscape:collect="always"
       id="linearGradient890-3">
      <stop
         style="stop-color:#404040;stop-opacity:1;"
         offset="0"
         id="stop888-7" />
      <stop
         style="stop-color:#5a5a5a;stop-opacity:1;"
         offset="1"
         id="stop886-5" />
    </linearGradient>
    <linearGradient
       gradientTransform="matrix(0,-3.7795276,-3.7795276,0,1120.5197,131.99999)"
       gradientUnits="userSpaceOnUse"
       y2="287.47498"
       x2="30.691668"
       y1="271.59998"
       x1="20.108334"
       id="linearGradient854"
       xlink:href="#linearGradient852"
       inkscape:collect="always" />
    <linearGradient
       id="linearGradient852"
       inkscape:collect="always">
      <stop
         id="stop848"
         offset="0"
         style="stop-color:#fffeff;stop-opacity:1" />
      <stop
         id="stop850"
         offset="1"
         style="stop-color:#e2dbe3;stop-opacity:1" />
    </linearGradient>
  </defs>
  <g
     inkscape:label="Layer 1"
     inkscape:groupmode="layer"
     id="layer1">
    <path
       sodipodi:nodetypes="cccc"
       inkscape:connector-curvature="0"
       id="path7"
       d="M 85.262354,116.94772 108.75769,81.704732 85.262354,73.872952 Z"
       style="fill:#000000;fill-opacity:0.196078;stroke:none;stroke-width:2.74112;stroke-miterlimit:4;stroke-dasharray:none;stroke-opacity:1;paint-order:markers stroke fill" />
    <g
       id="g8"
       transform="matrix(3.7795276,0,0,3.7795276,-142.42909,28.858184)">
      <path
         style="fill:#ff5dff;fill-opacity:1;stroke:none;stroke-width:0.264583px;stroke-linecap:butt;stroke-linejoin:miter;stroke-opacity:1"
         d="M 8.2020832,1.8520834 1.8520833,25.929167 26.9875,32.014584 31.220833,4.7625001 Z"
         id="path8"
         sodipodi:nodetypes="ccccc" />
      <rect
         style="opacity:0.346774;fill:#365dff;fill-opacity:1;fill-rule:evenodd;stroke:none;stroke-width:0.105833;stroke-linecap:round;stroke-linejoin:round;paint-order:fill markers stroke"
         id="rect8"
         width="33.866665"
         height="33.866665"
         x="0"
         y="0"
         ry="0" />
    </g>
    <circle
       r="0"
       cy="143.99985"
       cx="-12"
       id="ellipse4551"
       style="fill:#ffeeca;fill-opacity:1;stroke:none;stroke-width:1.4;stroke-linecap:round;paint-order:markers stroke fill" />
    <circle
       r="0"
       cy="143.99985"
       cx="-12"
       id="ellipse4553"
       style="fill:url(#linearGradient4549);fill-opacity:1;stroke:#000000;stroke-width:1.4;stroke-linecap:round;paint-order:markers stroke fill" />
    <path
       cx="4.7624998"
       cy="292.23749"
       r="2.1166666"
       style="fill:url(#linearGradient4623);fill-opacity:1;stroke:none;stroke-width:1.4;stroke-linecap:round;paint-order:markers stroke fill"
       id="path4625"
       d=""
       inkscape:connector-curvature="0" />
    <circle
       style="fill:#ffeeca;fill-opacity:1;stroke:none;stroke-width:1.4;stroke-linecap:round;paint-order:markers stroke fill"
       id="ellipse4551-2"
       cx="164"
       cy="91.99984"
       r="0" />
    <circle
       style="fill:url(#linearGradient4549-3);fill-opacity:1;stroke:#000000;stroke-width:1.4;stroke-linecap:round;paint-order:markers stroke fill"
       id="ellipse4553-6"
       cx="164"
       cy="91.99984"
       r="0" />
    <path
       sodipodi:nodetypes="cccccc"
       inkscape:connector-curvature="0"
       id="rect835-2"
       d="M 85.262354,116.94772 102.81809,16.080447 43.860222,8.6260086 22.714718,94.051874 l 4.522923,8.847756 z"
       style="fill:url(#linearGradient844-2);fill-opacity:1;stroke:none;stroke-width:1.9;stroke-linecap:square;stroke-linejoin:round;stroke-miterlimit:4;stroke-dasharray:none;stroke-dashoffset:0;stroke-opacity:1" />
    <path
       inkscape:connector-curvature="0"
       id="rect846"
       d="m 92.3439,55.901625 6.019839,-33.794004 c 0.319824,-1.795351 -0.895291,-3.426519 -2.716596,-3.66342 L 48.980696,12.374582 c -1.631229,-0.212032 -3.267731,0.961852 -3.676422,2.637694 l -7.67349,31.46555 c -0.442234,1.81338 0.554402,3.517531 2.242396,3.815131 l 48.416213,8.535458 c 1.894541,0.334111 3.7067,-0.974324 4.054507,-2.92679 z"
       style="fill:url(#linearGradient854);fill-opacity:1;stroke:none;stroke-width:1.9;stroke-linecap:square;stroke-linejoin:round;stroke-miterlimit:4;stroke-dasharray:none;stroke-dashoffset:0;stroke-opacity:1"
       sodipodi:nodetypes="ccccccccc" />
    <g
       transform="matrix(0,-3.7795276,-3.7795276,0,1120.9853,132.46544)"
       id="g38"
       style="stroke-width:0.47625;stroke-dasharray:none;stroke:#000000;stroke-opacity:0.2">
      <path
         style="fill:none;stroke:#000000;stroke-width:0.714375;stroke-linecap:butt;stroke-linejoin:miter;stroke-miterlimit:4;stroke-dasharray:none;stroke-opacity:0.2"
         d="m 28.453165,272.34651 1.479157,10.76392"
         id="path16"
         inkscape:connector-curvature="0"
         sodipodi:nodetypes="cc" />
      <path
         style="fill:none;stroke:#000000;stroke-width:0.714375;stroke-linecap:butt;stroke-linejoin:miter;stroke-miterlimit:4;stroke-dasharray:none;stroke-opacity:0.2"
         d="m 25.846498,272.83194 1.615325,10.86272"
         id="path17"
         inkscape:connector-curvature="0"
         sodipodi:nodetypes="cc" />
      <path
         style="fill:none;stroke:#000000;stroke-width:0.714375;stroke-linecap:butt;stroke-linejoin:miter;stroke-miterlimit:4;stroke-dasharray:none;stroke-opacity:0.2"
         d="m 24.519985,273.07898 1.685633,10.91275"
         id="path33"
         inkscape:connector-curvature="0"
         sodipodi:nodetypes="cc" />
      <path
         style="fill:none;stroke:#000000;stroke-width:0.714375;stroke-linecap:butt;stroke-linejoin:miter;stroke-miterlimit:4;stroke-dasharray:none;stroke-opacity:0.2"
         d="m 27.157468,272.5878 1.546512,10.81311"
         id="path35"
         inkscape:connector-curvature="0"
         sodipodi:nodetypes="cc" />
      <path
         style="fill:none;stroke:#000000;stroke-width:0.714375;stroke-linecap:butt;stroke-linejoin:miter;stroke-miterlimit:4;stroke-dasharray:none;stroke-opacity:0.2"
         d="m 21.362762,273.66694 0.444212,2.64059"
         id="path36"
         inkscape:connector-curvature="0" />
      <path
         style="fill:none;stroke:#000000;stroke-width:0.714375;stroke-linecap:butt;stroke-linejoin:miter;stroke-miterlimit:4;stroke-dasharray:none;stroke-opacity:0.2"
         d="m 22.273828,273.49727 0.432307,2.63206"
         id="path37"
         inkscape:connector-curvature="0" />
    </g>
    <g
       transform="matrix(0,-3.7795276,-3.7795276,0,1120.5197,131.99999)"
       id="g927"
       style="stroke-width:0.47625;stroke-dasharray:none">
      <path
         style="fill:none;stroke:#a62121;stroke-width:0.714375;stroke-linecap:butt;stroke-linejoin:miter;stroke-miterlimit:4;stroke-dasharray:none;stroke-opacity:1"
         d="m 28.453165,272.34651 1.479157,10.76392"
         id="path856"
         inkscape:connector-curvature="0"
         sodipodi:nodetypes="cc" />
      <path
         style="fill:none;stroke:#a62121;stroke-width:0.714375;stroke-linecap:butt;stroke-linejoin:miter;stroke-miterlimit:4;stroke-dasharray:none;stroke-opacity:1"
         d="m 25.846498,272.83194 1.615325,10.86272"
         id="path858-8"
         inkscape:connector-curvature="0"
         sodipodi:nodetypes="cc" />
      <path
         style="fill:none;stroke:#a62121;stroke-width:0.714375;stroke-linecap:butt;stroke-linejoin:miter;stroke-miterlimit:4;stroke-dasharray:none;stroke-opacity:1"
         d="m 24.519985,273.07898 1.685633,10.91275"
         id="path860"
         inkscape:connector-curvature="0"
         sodipodi:nodetypes="cc" />
      <path
         style="fill:none;stroke:#a62121;stroke-width:0.714375;stroke-linecap:butt;stroke-linejoin:miter;stroke-miterlimit:4;stroke-dasharray:none;stroke-opacity:1"
         d="m 27.157468,272.5878 1.546512,10.81311"
         id="path862"
         inkscape:connector-curvature="0"
         sodipodi:nodetypes="cc" />
      <path
         style="fill:none;stroke:#a62121;stroke-width:0.714375;stroke-linecap:butt;stroke-linejoin:miter;stroke-miterlimit:4;stroke-dasharray:none;stroke-opacity:1"
         d="m 21.362762,273.66694 0.444212,2.64059"
         id="path864"
         inkscape:connector-curvature="0" />
      <path
         style="fill:none;stroke:#a62121;stroke-width:0.714375;stroke-linecap:butt;stroke-linejoin:miter;stroke-miterlimit:4;stroke-dasharray:none;stroke-opacity:1"
         d="m 22.273828,273.49727 0.432307,2.63206"
         id="path866"
         inkscape:connector-curvature="0" />
    </g>
    <path
       sodipodi:nodetypes="ccccc"
       inkscape:connector-curvature="0"
       id="rect868"
       d="m 82.516913,111.06803 1.752646,-9.83898 c 0.0957,-0.53726 -0.22628,-1.06164 -0.718586,-1.17173 L 81.772747,99.659748 C 81.282954,99.550142 80.807414,99.894457 80.71,100.42915 l -1.783786,9.7906 c -0.09963,0.54686 0.220347,1.08578 0.715249,1.20329 l 1.796909,0.42659 c 0.497488,0.11792 0.980636,-0.23206 1.078541,-0.7816 z"
       style="fill:#ffe680;fill-opacity:1;stroke:none;stroke-width:1.9;stroke-linecap:square;stroke-linejoin:round;stroke-miterlimit:4;stroke-dasharray:none;stroke-dashoffset:0;stroke-opacity:1" />
    <path
       sodipodi:nodetypes="ccccc"
       inkscape:connector-curvature="0"
       id="rect870"
       d="m 75.364395,109.37827 1.814355,-9.742597 c 0.0991,-0.532082 -0.213808,-1.05086 -0.69834,-1.159219 l -1.75008,-0.391257 c -0.482067,-0.107717 -0.954043,0.233575 -1.054771,0.763238 l -1.844395,9.695165 c -0.10303,0.5415 0.207799,1.07456 0.694806,1.19018 l 1.768101,0.41975 c 0.48952,0.11641 0.968995,-0.23093 1.070324,-0.77526 z"
       style="fill:#ffe680;fill-opacity:1;stroke:none;stroke-width:1.9;stroke-linecap:square;stroke-linejoin:round;stroke-miterlimit:4;stroke-dasharray:none;stroke-dashoffset:0;stroke-opacity:1" />
    <path
       sodipodi:nodetypes="ccccc"
       inkscape:connector-curvature="0"
       id="rect872"
       d="m 68.326147,107.71558 1.873902,-9.648147 c 0.102349,-0.526979 -0.201752,-1.040239 -0.678668,-1.146897 l -1.722599,-0.385134 c -0.474512,-0.106205 -0.942977,0.232819 -1.046917,0.757152 l -1.902887,9.601626 c -0.10628,0.5362 0.195666,1.06352 0.674941,1.17728 l 1.739988,0.41311 c 0.481735,0.11414 0.957582,-0.23018 1.06224,-0.76899 z"
       style="fill:#ffe680;fill-opacity:1;stroke:none;stroke-width:1.9;stroke-linecap:square;stroke-linejoin:round;stroke-miterlimit:4;stroke-dasharray:none;stroke-dashoffset:0;stroke-opacity:1" />
    <path
       sodipodi:nodetypes="ccccc"
       inkscape:connector-curvature="0"
       id="rect874"
       d="m 61.399381,106.07928 1.931369,-9.555557 c 0.105486,-0.521953 -0.190035,-1.02977 -0.659475,-1.134728 l -1.695833,-0.379162 c -0.467115,-0.104315 -0.932092,0.231685 -1.039124,0.751106 l -1.959334,9.509861 c -0.109417,0.53102 0.183837,1.05263 0.655571,1.16462 l 1.71261,0.4066 c 0.474111,0.11263 0.946359,-0.22904 1.054216,-0.76274 z"
       style="fill:#ffe680;fill-opacity:1;stroke:none;stroke-width:1.9;stroke-linecap:square;stroke-linejoin:round;stroke-miterlimit:4;stroke-dasharray:none;stroke-dashoffset:0;stroke-opacity:1" />
    <path
       sodipodi:nodetypes="ccccc"
       inkscape:connector-curvature="0"
       id="rect876"
       d="m 54.581521,104.46867 1.9868,-9.464582 C 56.676869,94.487087 56.3897,93.984523 55.927524,93.881191 l -1.66964,-0.373418 c -0.459904,-0.102803 -0.921456,0.230552 -1.03146,0.74521 l -2.013785,9.419717 c -0.112441,0.52596 0.172384,1.04202 0.636722,1.15226 l 1.685828,0.40022 c 0.466685,0.11074 0.935399,-0.22829 1.046332,-0.75663 z"
       style="fill:#ffe680;fill-opacity:1;stroke:none;stroke-width:1.9;stroke-linecap:square;stroke-linejoin:round;stroke-miterlimit:4;stroke-dasharray:none;stroke-dashoffset:0;stroke-opacity:1" />
    <path
       sodipodi:nodetypes="ccccc"
       inkscape:connector-curvature="0"
       id="rect878"
       d="m 47.870002,102.88316 2.040291,-9.375273 c 0.111459,-0.512164 -0.167546,-1.009512 -0.622654,-1.111257 l -1.644004,-0.367748 c -0.452863,-0.101291 -0.911051,0.229417 -1.023946,0.739351 l -2.066324,9.331237 c -0.115351,0.52097 0.161272,1.03162 0.618414,1.14013 l 1.659624,0.39402 c 0.459432,0.10923 0.924681,-0.22715 1.038599,-0.75065 z"
       style="fill:#ffe680;fill-opacity:1;stroke:none;stroke-width:1.9;stroke-linecap:square;stroke-linejoin:round;stroke-miterlimit:4;stroke-dasharray:none;stroke-dashoffset:0;stroke-opacity:1" />
    <path
       sodipodi:nodetypes="ccccc"
       inkscape:connector-curvature="0"
       id="rect880"
       d="m 41.262458,101.32221 2.091874,-9.287432 C 43.468625,91.527263 43.19752,91.03498 42.749306,90.934784 l -1.618904,-0.362078 c -0.445981,-0.09978 -0.900851,0.228661 -1.016523,0.733644 l -2.117046,9.24442 c -0.118148,0.51602 0.150463,1.02127 0.600518,1.12812 l 1.634143,0.38796 c 0.452345,0.10734 0.914173,-0.22639 1.030964,-0.74475 z"
       style="fill:#ffe680;fill-opacity:1;stroke:none;stroke-width:1.9;stroke-linecap:square;stroke-linejoin:round;stroke-miterlimit:4;stroke-dasharray:none;stroke-dashoffset:0;stroke-opacity:1" />
    <path
       sodipodi:nodetypes="ccccc"
       inkscape:connector-curvature="0"
       id="rect882"
       d="m 34.756232,99.785229 c 0.559133,-2.40276 1.423468,-6.115503 2.14174,-9.201336 0.117041,-0.502828 -0.146366,-0.990085 -0.58779,-1.088806 l -1.594466,-0.35641 c -0.439253,-0.09827 -0.890849,0.227528 -1.009205,0.728013 l -2.165958,9.159042 c -0.1209,0.511182 0.139944,1.011248 0.583155,1.116468 l 1.609157,0.38204 c 0.445428,0.10583 0.903843,-0.22526 1.023367,-0.738936 z"
       style="fill:#ffe680;fill-opacity:1;stroke:none;stroke-width:1.9;stroke-linecap:square;stroke-linejoin:round;stroke-miterlimit:4;stroke-dasharray:none;stroke-dashoffset:0;stroke-opacity:1" />
    <path
       sodipodi:nodetypes="ccccc"
       inkscape:connector-curvature="0"
       id="rect884"
       d="m 29.230517,94.602854 2.172191,-9.04373 c 0.118707,-0.494248 -0.13691,-0.971565 -0.570416,-1.066544 l -1.565957,-0.343182 c -0.431405,-0.09449 -0.877966,0.227528 -0.997945,0.719358 l -2.195504,9.002759 c -0.122529,0.50245 0.130514,0.992202 0.565721,1.093493 l 1.580021,0.367748 c 0.437365,0.101669 0.890646,-0.22526 1.011889,-0.730054 z"
       style="fill:#ffe680;fill-opacity:1;stroke:none;stroke-width:1.9;stroke-linecap:square;stroke-linejoin:round;stroke-miterlimit:4;stroke-dasharray:none;stroke-dashoffset:0;stroke-opacity:1" />
    <path
       id="path14"
       style="color:#000000;fill:#808080;stroke-linecap:square;-inkscape-stroke:none"
       d="M 101.67578 15.935547 L 84.339844 115.54102 L 27.507812 101.78125 L 26.546875 101.54883 L 27.238281 102.90039 L 85.261719 116.94727 L 102.81836 16.080078 L 101.67578 15.935547 z " />
    <path
       style="fill:none;stroke:#404040;stroke-width:0.9;stroke-linecap:butt;stroke-linejoin:miter;stroke-opacity:1;stroke-dasharray:none"
       d="M 43.860222,8.6260086 102.81809,16.080447 85.262354,116.94772 27.238281,102.90039 22.714718,94.051874 Z"
       id="path15" />
  </g>
</svg>
